G04 #@! TF.GenerationSoftware,KiCad,Pcbnew,(5.1.4)-1*
G04 #@! TF.CreationDate,2020-01-26T21:21:17-03:00*
G04 #@! TF.ProjectId,CONTESTING,434f4e54-4553-4544-994e-472e6b696361,rev?*
G04 #@! TF.SameCoordinates,Original*
G04 #@! TF.FileFunction,Soldermask,Top*
G04 #@! TF.FilePolarity,Negative*
%FSLAX46Y46*%
G04 Gerber Fmt 4.6, Leading zero omitted, Abs format (unit mm)*
G04 Created by KiCad (PCBNEW (5.1.4)-1) date 2020-01-26 21:21:17*
%MOMM*%
%LPD*%
G04 APERTURE LIST*
%ADD10C,0.100000*%
G04 APERTURE END LIST*
D10*
G36*
X110101000Y-128001000D02*
G01*
X108499000Y-128001000D01*
X108499000Y-126599000D01*
X110101000Y-126599000D01*
X110101000Y-128001000D01*
X110101000Y-128001000D01*
G37*
G36*
X107401000Y-128001000D02*
G01*
X105799000Y-128001000D01*
X105799000Y-126599000D01*
X107401000Y-126599000D01*
X107401000Y-128001000D01*
X107401000Y-128001000D01*
G37*
G36*
X91226000Y-127701000D02*
G01*
X82574000Y-127701000D01*
X82574000Y-126099000D01*
X91226000Y-126099000D01*
X91226000Y-127701000D01*
X91226000Y-127701000D01*
G37*
G36*
X99701000Y-125826000D02*
G01*
X98099000Y-125826000D01*
X98099000Y-124474000D01*
X99701000Y-124474000D01*
X99701000Y-125826000D01*
X99701000Y-125826000D01*
G37*
G36*
X102201000Y-125826000D02*
G01*
X100599000Y-125826000D01*
X100599000Y-124474000D01*
X102201000Y-124474000D01*
X102201000Y-125826000D01*
X102201000Y-125826000D01*
G37*
G36*
X104276000Y-125801000D02*
G01*
X102924000Y-125801000D01*
X102924000Y-124199000D01*
X104276000Y-124199000D01*
X104276000Y-125801000D01*
X104276000Y-125801000D01*
G37*
G36*
X93401000Y-125526000D02*
G01*
X91799000Y-125526000D01*
X91799000Y-116874000D01*
X93401000Y-116874000D01*
X93401000Y-125526000D01*
X93401000Y-125526000D01*
G37*
G36*
X82001000Y-125526000D02*
G01*
X80399000Y-125526000D01*
X80399000Y-116874000D01*
X82001000Y-116874000D01*
X82001000Y-125526000D01*
X82001000Y-125526000D01*
G37*
G36*
X74201000Y-124976000D02*
G01*
X72599000Y-124976000D01*
X72599000Y-123624000D01*
X74201000Y-123624000D01*
X74201000Y-124976000D01*
X74201000Y-124976000D01*
G37*
G36*
X76701000Y-124976000D02*
G01*
X75099000Y-124976000D01*
X75099000Y-123624000D01*
X76701000Y-123624000D01*
X76701000Y-124976000D01*
X76701000Y-124976000D01*
G37*
G36*
X71426000Y-123901000D02*
G01*
X70074000Y-123901000D01*
X70074000Y-122299000D01*
X71426000Y-122299000D01*
X71426000Y-123901000D01*
X71426000Y-123901000D01*
G37*
G36*
X102201000Y-123326000D02*
G01*
X100599000Y-123326000D01*
X100599000Y-121974000D01*
X102201000Y-121974000D01*
X102201000Y-123326000D01*
X102201000Y-123326000D01*
G37*
G36*
X99701000Y-123326000D02*
G01*
X98099000Y-123326000D01*
X98099000Y-121974000D01*
X99701000Y-121974000D01*
X99701000Y-123326000D01*
X99701000Y-123326000D01*
G37*
G36*
X104276000Y-123301000D02*
G01*
X102924000Y-123301000D01*
X102924000Y-121699000D01*
X104276000Y-121699000D01*
X104276000Y-123301000D01*
X104276000Y-123301000D01*
G37*
G36*
X75051000Y-122301000D02*
G01*
X73749000Y-122301000D01*
X73749000Y-120799000D01*
X75051000Y-120799000D01*
X75051000Y-122301000D01*
X75051000Y-122301000D01*
G37*
G36*
X76651000Y-122301000D02*
G01*
X75349000Y-122301000D01*
X75349000Y-120799000D01*
X76651000Y-120799000D01*
X76651000Y-122301000D01*
X76651000Y-122301000D01*
G37*
G36*
X71426000Y-121401000D02*
G01*
X70074000Y-121401000D01*
X70074000Y-119799000D01*
X71426000Y-119799000D01*
X71426000Y-121401000D01*
X71426000Y-121401000D01*
G37*
G36*
X102201000Y-120826000D02*
G01*
X100599000Y-120826000D01*
X100599000Y-119474000D01*
X102201000Y-119474000D01*
X102201000Y-120826000D01*
X102201000Y-120826000D01*
G37*
G36*
X99701000Y-120826000D02*
G01*
X98099000Y-120826000D01*
X98099000Y-119474000D01*
X99701000Y-119474000D01*
X99701000Y-120826000D01*
X99701000Y-120826000D01*
G37*
G36*
X75051000Y-120101000D02*
G01*
X73749000Y-120101000D01*
X73749000Y-118599000D01*
X75051000Y-118599000D01*
X75051000Y-120101000D01*
X75051000Y-120101000D01*
G37*
G36*
X76651000Y-120101000D02*
G01*
X75349000Y-120101000D01*
X75349000Y-118599000D01*
X76651000Y-118599000D01*
X76651000Y-120101000D01*
X76651000Y-120101000D01*
G37*
G36*
X71551000Y-118351000D02*
G01*
X69749000Y-118351000D01*
X69749000Y-117249000D01*
X71551000Y-117249000D01*
X71551000Y-118351000D01*
X71551000Y-118351000D01*
G37*
G36*
X65251000Y-118351000D02*
G01*
X63449000Y-118351000D01*
X63449000Y-117249000D01*
X65251000Y-117249000D01*
X65251000Y-118351000D01*
X65251000Y-118351000D01*
G37*
G36*
X102201000Y-118326000D02*
G01*
X100599000Y-118326000D01*
X100599000Y-116974000D01*
X102201000Y-116974000D01*
X102201000Y-118326000D01*
X102201000Y-118326000D01*
G37*
G36*
X99701000Y-118326000D02*
G01*
X98099000Y-118326000D01*
X98099000Y-116974000D01*
X99701000Y-116974000D01*
X99701000Y-118326000D01*
X99701000Y-118326000D01*
G37*
G36*
X76401000Y-117601000D02*
G01*
X74999000Y-117601000D01*
X74999000Y-115999000D01*
X76401000Y-115999000D01*
X76401000Y-117601000D01*
X76401000Y-117601000D01*
G37*
G36*
X91226000Y-116301000D02*
G01*
X82574000Y-116301000D01*
X82574000Y-114699000D01*
X91226000Y-114699000D01*
X91226000Y-116301000D01*
X91226000Y-116301000D01*
G37*
G36*
X97151000Y-115951000D02*
G01*
X95549000Y-115951000D01*
X95549000Y-114549000D01*
X97151000Y-114549000D01*
X97151000Y-115951000D01*
X97151000Y-115951000D01*
G37*
G36*
X99851000Y-115951000D02*
G01*
X98249000Y-115951000D01*
X98249000Y-114549000D01*
X99851000Y-114549000D01*
X99851000Y-115951000D01*
X99851000Y-115951000D01*
G37*
G36*
X104901000Y-115851000D02*
G01*
X102299000Y-115851000D01*
X102299000Y-113749000D01*
X104901000Y-113749000D01*
X104901000Y-115851000D01*
X104901000Y-115851000D01*
G37*
G36*
X110401000Y-115851000D02*
G01*
X107799000Y-115851000D01*
X107799000Y-113749000D01*
X110401000Y-113749000D01*
X110401000Y-115851000D01*
X110401000Y-115851000D01*
G37*
G36*
X76401000Y-114901000D02*
G01*
X74999000Y-114901000D01*
X74999000Y-113299000D01*
X76401000Y-113299000D01*
X76401000Y-114901000D01*
X76401000Y-114901000D01*
G37*
G36*
X71551000Y-114551000D02*
G01*
X69749000Y-114551000D01*
X69749000Y-113449000D01*
X71551000Y-113449000D01*
X71551000Y-114551000D01*
X71551000Y-114551000D01*
G37*
G36*
X65251000Y-114551000D02*
G01*
X63449000Y-114551000D01*
X63449000Y-113449000D01*
X65251000Y-113449000D01*
X65251000Y-114551000D01*
X65251000Y-114551000D01*
G37*
G36*
X97151000Y-113451000D02*
G01*
X95549000Y-113451000D01*
X95549000Y-112049000D01*
X97151000Y-112049000D01*
X97151000Y-113451000D01*
X97151000Y-113451000D01*
G37*
G36*
X99851000Y-113451000D02*
G01*
X98249000Y-113451000D01*
X98249000Y-112049000D01*
X99851000Y-112049000D01*
X99851000Y-113451000D01*
X99851000Y-113451000D01*
G37*
G36*
X89301000Y-113326000D02*
G01*
X87699000Y-113326000D01*
X87699000Y-111974000D01*
X89301000Y-111974000D01*
X89301000Y-113326000D01*
X89301000Y-113326000D01*
G37*
G36*
X86801000Y-113326000D02*
G01*
X85199000Y-113326000D01*
X85199000Y-111974000D01*
X86801000Y-111974000D01*
X86801000Y-113326000D01*
X86801000Y-113326000D01*
G37*
G36*
X106197740Y-112058626D02*
G01*
X106246136Y-112068253D01*
X106283902Y-112083896D01*
X106337311Y-112106019D01*
X106337312Y-112106020D01*
X106419369Y-112160848D01*
X106489152Y-112230631D01*
X106489153Y-112230633D01*
X106543981Y-112312689D01*
X106581747Y-112403865D01*
X106601000Y-112500655D01*
X106601000Y-112599345D01*
X106581747Y-112696135D01*
X106543981Y-112787311D01*
X106543980Y-112787312D01*
X106489152Y-112869369D01*
X106419369Y-112939152D01*
X106378062Y-112966752D01*
X106337311Y-112993981D01*
X106283902Y-113016104D01*
X106246136Y-113031747D01*
X106197740Y-113041373D01*
X106149345Y-113051000D01*
X106050655Y-113051000D01*
X106002260Y-113041373D01*
X105953864Y-113031747D01*
X105916098Y-113016104D01*
X105862689Y-112993981D01*
X105821938Y-112966752D01*
X105780631Y-112939152D01*
X105710848Y-112869369D01*
X105656020Y-112787312D01*
X105656019Y-112787311D01*
X105618253Y-112696135D01*
X105599000Y-112599345D01*
X105599000Y-112500655D01*
X105618253Y-112403865D01*
X105656019Y-112312689D01*
X105710847Y-112230633D01*
X105710848Y-112230631D01*
X105780631Y-112160848D01*
X105862688Y-112106020D01*
X105862689Y-112106019D01*
X105916098Y-112083896D01*
X105953864Y-112068253D01*
X106002260Y-112058626D01*
X106050655Y-112049000D01*
X106149345Y-112049000D01*
X106197740Y-112058626D01*
X106197740Y-112058626D01*
G37*
G36*
X104801000Y-112251000D02*
G01*
X102399000Y-112251000D01*
X102399000Y-108449000D01*
X104801000Y-108449000D01*
X104801000Y-112251000D01*
X104801000Y-112251000D01*
G37*
G36*
X96221009Y-99817591D02*
G01*
X96716658Y-99916181D01*
X97650440Y-100302967D01*
X98490822Y-100864492D01*
X99205508Y-101579178D01*
X99767033Y-102419560D01*
X100153819Y-103353342D01*
X100351000Y-104344641D01*
X100351000Y-105355359D01*
X100153819Y-106346658D01*
X99767033Y-107280440D01*
X99205508Y-108120822D01*
X98490822Y-108835508D01*
X97650440Y-109397033D01*
X96716658Y-109783819D01*
X96378915Y-109851000D01*
X95725361Y-109981000D01*
X94714639Y-109981000D01*
X94061085Y-109851000D01*
X93723342Y-109783819D01*
X92789560Y-109397033D01*
X91949178Y-108835508D01*
X91234492Y-108120822D01*
X90672967Y-107280440D01*
X90286181Y-106346658D01*
X90089000Y-105355359D01*
X90089000Y-104344641D01*
X90286181Y-103353342D01*
X90672967Y-102419560D01*
X91234492Y-101579178D01*
X91949178Y-100864492D01*
X92789560Y-100302967D01*
X93723342Y-99916181D01*
X94218991Y-99817591D01*
X94714639Y-99719000D01*
X95725361Y-99719000D01*
X96221009Y-99817591D01*
X96221009Y-99817591D01*
G37*
G36*
X66251009Y-99817591D02*
G01*
X66746658Y-99916181D01*
X67680440Y-100302967D01*
X68520822Y-100864492D01*
X69235508Y-101579178D01*
X69797033Y-102419560D01*
X70183819Y-103353342D01*
X70381000Y-104344641D01*
X70381000Y-105355359D01*
X70183819Y-106346658D01*
X69797033Y-107280440D01*
X69235508Y-108120822D01*
X68520822Y-108835508D01*
X67680440Y-109397033D01*
X66746658Y-109783819D01*
X66408915Y-109851000D01*
X65755361Y-109981000D01*
X64744639Y-109981000D01*
X64091085Y-109851000D01*
X63753342Y-109783819D01*
X62819560Y-109397033D01*
X61979178Y-108835508D01*
X61264492Y-108120822D01*
X60702967Y-107280440D01*
X60316181Y-106346658D01*
X60119000Y-105355359D01*
X60119000Y-104344641D01*
X60316181Y-103353342D01*
X60702967Y-102419560D01*
X61264492Y-101579178D01*
X61979178Y-100864492D01*
X62819560Y-100302967D01*
X63753342Y-99916181D01*
X64248991Y-99817591D01*
X64744639Y-99719000D01*
X65755361Y-99719000D01*
X66251009Y-99817591D01*
X66251009Y-99817591D01*
G37*
G36*
X106197740Y-107658626D02*
G01*
X106246136Y-107668253D01*
X106283902Y-107683896D01*
X106337311Y-107706019D01*
X106337312Y-107706020D01*
X106419369Y-107760848D01*
X106489152Y-107830631D01*
X106489153Y-107830633D01*
X106543981Y-107912689D01*
X106581747Y-108003865D01*
X106601000Y-108100655D01*
X106601000Y-108199345D01*
X106581747Y-108296135D01*
X106543981Y-108387311D01*
X106543980Y-108387312D01*
X106489152Y-108469369D01*
X106419369Y-108539152D01*
X106378062Y-108566752D01*
X106337311Y-108593981D01*
X106283902Y-108616104D01*
X106246136Y-108631747D01*
X106197740Y-108641373D01*
X106149345Y-108651000D01*
X106050655Y-108651000D01*
X106002260Y-108641373D01*
X105953864Y-108631747D01*
X105916098Y-108616104D01*
X105862689Y-108593981D01*
X105821938Y-108566752D01*
X105780631Y-108539152D01*
X105710848Y-108469369D01*
X105656020Y-108387312D01*
X105656019Y-108387311D01*
X105618253Y-108296135D01*
X105599000Y-108199345D01*
X105599000Y-108100655D01*
X105618253Y-108003865D01*
X105656019Y-107912689D01*
X105710847Y-107830633D01*
X105710848Y-107830631D01*
X105780631Y-107760848D01*
X105862688Y-107706020D01*
X105862689Y-107706019D01*
X105916098Y-107683896D01*
X105953864Y-107668253D01*
X106002260Y-107658626D01*
X106050655Y-107649000D01*
X106149345Y-107649000D01*
X106197740Y-107658626D01*
X106197740Y-107658626D01*
G37*
G36*
X110401000Y-106951000D02*
G01*
X107799000Y-106951000D01*
X107799000Y-104849000D01*
X110401000Y-104849000D01*
X110401000Y-106951000D01*
X110401000Y-106951000D01*
G37*
G36*
X104901000Y-106951000D02*
G01*
X102299000Y-106951000D01*
X102299000Y-104849000D01*
X104901000Y-104849000D01*
X104901000Y-106951000D01*
X104901000Y-106951000D01*
G37*
M02*
