G04 #@! TF.GenerationSoftware,KiCad,Pcbnew,(5.1.4)-1*
G04 #@! TF.CreationDate,2020-01-26T21:21:17-03:00*
G04 #@! TF.ProjectId,CONTESTING,434f4e54-4553-4544-994e-472e6b696361,rev?*
G04 #@! TF.SameCoordinates,Original*
G04 #@! TF.FileFunction,Legend,Top*
G04 #@! TF.FilePolarity,Positive*
%FSLAX46Y46*%
G04 Gerber Fmt 4.6, Leading zero omitted, Abs format (unit mm)*
G04 Created by KiCad (PCBNEW (5.1.4)-1) date 2020-01-26 21:21:17*
%MOMM*%
%LPD*%
G04 APERTURE LIST*
%ADD10C,0.150000*%
%ADD11C,0.120000*%
%ADD12C,0.200000*%
%ADD13C,0.254000*%
G04 APERTURE END LIST*
D10*
X76500000Y-120250000D02*
X76500000Y-120650000D01*
X73900000Y-120250000D02*
X73900000Y-120650000D01*
X74000000Y-120350000D02*
X75000000Y-120350000D01*
X91500000Y-116025000D02*
X91500000Y-114750000D01*
X92075000Y-126375000D02*
X92075000Y-125700000D01*
X81725000Y-126375000D02*
X81725000Y-125700000D01*
X81725000Y-116025000D02*
X81725000Y-116700000D01*
X92075000Y-116025000D02*
X92075000Y-116700000D01*
X81725000Y-116025000D02*
X82400000Y-116025000D01*
X81725000Y-126375000D02*
X82400000Y-126375000D01*
X92075000Y-126375000D02*
X91400000Y-126375000D01*
X92075000Y-116025000D02*
X91500000Y-116025000D01*
D11*
X65250000Y-99600000D02*
G75*
G03X65250000Y-110100000I0J-5250000D01*
G01*
X95250000Y-110100000D02*
G75*
G03X95250000Y-99600000I0J5250000D01*
G01*
X95250000Y-99600000D02*
X65250000Y-99600000D01*
X65250000Y-110100000D02*
X95250000Y-110100000D01*
X66250000Y-113150000D02*
X68750000Y-113150000D01*
X64750000Y-114900000D02*
X64750000Y-116900000D01*
X66250000Y-118650000D02*
X68750000Y-118650000D01*
X70250000Y-114900000D02*
X70250000Y-116900000D01*
X65800000Y-113600000D02*
X66250000Y-113150000D01*
X69200000Y-113600000D02*
X68750000Y-113150000D01*
X69200000Y-118200000D02*
X68750000Y-118650000D01*
X65800000Y-118200000D02*
X66250000Y-118650000D01*
X108550000Y-128180000D02*
X107350000Y-128180000D01*
X107350000Y-126420000D02*
X108550000Y-126420000D01*
X76580000Y-114850000D02*
X76580000Y-116050000D01*
X74820000Y-116050000D02*
X74820000Y-114850000D01*
X97100000Y-111870000D02*
X98300000Y-111870000D01*
X98300000Y-113630000D02*
X97100000Y-113630000D01*
X98300000Y-116130000D02*
X97100000Y-116130000D01*
X97100000Y-114370000D02*
X98300000Y-114370000D01*
D12*
X101924270Y-111881000D02*
G75*
G03X101924270Y-111881000I-336270J0D01*
G01*
X111350000Y-114200000D02*
X111350000Y-106500000D01*
D11*
X75150000Y-123450000D02*
X74150000Y-123450000D01*
X74150000Y-125150000D02*
X75150000Y-125150000D01*
X71600000Y-122350000D02*
X71600000Y-121350000D01*
X69900000Y-121350000D02*
X69900000Y-122350000D01*
X99650000Y-121000000D02*
X100650000Y-121000000D01*
X100650000Y-119300000D02*
X99650000Y-119300000D01*
X104450000Y-124250000D02*
X104450000Y-123250000D01*
X102750000Y-123250000D02*
X102750000Y-124250000D01*
X99650000Y-118500000D02*
X100650000Y-118500000D01*
X100650000Y-116800000D02*
X99650000Y-116800000D01*
X99650000Y-123500000D02*
X100650000Y-123500000D01*
X100650000Y-121800000D02*
X99650000Y-121800000D01*
X99650000Y-126000000D02*
X100650000Y-126000000D01*
X100650000Y-124300000D02*
X99650000Y-124300000D01*
X86750000Y-113500000D02*
X87750000Y-113500000D01*
X87750000Y-111800000D02*
X86750000Y-111800000D01*
D10*
X76952380Y-121159523D02*
X77952380Y-120492857D01*
X76952380Y-120492857D02*
X77952380Y-121159523D01*
X77952380Y-119588095D02*
X77952380Y-120159523D01*
X77952380Y-119873809D02*
X76952380Y-119873809D01*
X77095238Y-119969047D01*
X77190476Y-120064285D01*
X77238095Y-120159523D01*
X93802380Y-121961904D02*
X94611904Y-121961904D01*
X94707142Y-121914285D01*
X94754761Y-121866666D01*
X94802380Y-121771428D01*
X94802380Y-121580952D01*
X94754761Y-121485714D01*
X94707142Y-121438095D01*
X94611904Y-121390476D01*
X93802380Y-121390476D01*
X94802380Y-120390476D02*
X94802380Y-120961904D01*
X94802380Y-120676190D02*
X93802380Y-120676190D01*
X93945238Y-120771428D01*
X94040476Y-120866666D01*
X94088095Y-120961904D01*
X78238095Y-110602380D02*
X78809523Y-110602380D01*
X78523809Y-111602380D02*
X78523809Y-110602380D01*
X79142857Y-111602380D02*
X79142857Y-110602380D01*
X79523809Y-110602380D01*
X79619047Y-110650000D01*
X79666666Y-110697619D01*
X79714285Y-110792857D01*
X79714285Y-110935714D01*
X79666666Y-111030952D01*
X79619047Y-111078571D01*
X79523809Y-111126190D01*
X79142857Y-111126190D01*
X80666666Y-111602380D02*
X80095238Y-111602380D01*
X80380952Y-111602380D02*
X80380952Y-110602380D01*
X80285714Y-110745238D01*
X80190476Y-110840476D01*
X80095238Y-110888095D01*
X66166666Y-112554761D02*
X66309523Y-112602380D01*
X66547619Y-112602380D01*
X66642857Y-112554761D01*
X66690476Y-112507142D01*
X66738095Y-112411904D01*
X66738095Y-112316666D01*
X66690476Y-112221428D01*
X66642857Y-112173809D01*
X66547619Y-112126190D01*
X66357142Y-112078571D01*
X66261904Y-112030952D01*
X66214285Y-111983333D01*
X66166666Y-111888095D01*
X66166666Y-111792857D01*
X66214285Y-111697619D01*
X66261904Y-111650000D01*
X66357142Y-111602380D01*
X66595238Y-111602380D01*
X66738095Y-111650000D01*
X67071428Y-111602380D02*
X67309523Y-112602380D01*
X67500000Y-111888095D01*
X67690476Y-112602380D01*
X67928571Y-111602380D01*
X68833333Y-112602380D02*
X68261904Y-112602380D01*
X68547619Y-112602380D02*
X68547619Y-111602380D01*
X68452380Y-111745238D01*
X68357142Y-111840476D01*
X68261904Y-111888095D01*
X107733333Y-126102380D02*
X107400000Y-125626190D01*
X107161904Y-126102380D02*
X107161904Y-125102380D01*
X107542857Y-125102380D01*
X107638095Y-125150000D01*
X107685714Y-125197619D01*
X107733333Y-125292857D01*
X107733333Y-125435714D01*
X107685714Y-125530952D01*
X107638095Y-125578571D01*
X107542857Y-125626190D01*
X107161904Y-125626190D01*
X108590476Y-125435714D02*
X108590476Y-126102380D01*
X108352380Y-125054761D02*
X108114285Y-125769047D01*
X108733333Y-125769047D01*
X77852380Y-115616666D02*
X77376190Y-115950000D01*
X77852380Y-116188095D02*
X76852380Y-116188095D01*
X76852380Y-115807142D01*
X76900000Y-115711904D01*
X76947619Y-115664285D01*
X77042857Y-115616666D01*
X77185714Y-115616666D01*
X77280952Y-115664285D01*
X77328571Y-115711904D01*
X77376190Y-115807142D01*
X77376190Y-116188095D01*
X76852380Y-115283333D02*
X76852380Y-114664285D01*
X77233333Y-114997619D01*
X77233333Y-114854761D01*
X77280952Y-114759523D01*
X77328571Y-114711904D01*
X77423809Y-114664285D01*
X77661904Y-114664285D01*
X77757142Y-114711904D01*
X77804761Y-114759523D01*
X77852380Y-114854761D01*
X77852380Y-115140476D01*
X77804761Y-115235714D01*
X77757142Y-115283333D01*
X97533333Y-111502380D02*
X97200000Y-111026190D01*
X96961904Y-111502380D02*
X96961904Y-110502380D01*
X97342857Y-110502380D01*
X97438095Y-110550000D01*
X97485714Y-110597619D01*
X97533333Y-110692857D01*
X97533333Y-110835714D01*
X97485714Y-110930952D01*
X97438095Y-110978571D01*
X97342857Y-111026190D01*
X96961904Y-111026190D01*
X97914285Y-110597619D02*
X97961904Y-110550000D01*
X98057142Y-110502380D01*
X98295238Y-110502380D01*
X98390476Y-110550000D01*
X98438095Y-110597619D01*
X98485714Y-110692857D01*
X98485714Y-110788095D01*
X98438095Y-110930952D01*
X97866666Y-111502380D01*
X98485714Y-111502380D01*
X101033333Y-115652380D02*
X100700000Y-115176190D01*
X100461904Y-115652380D02*
X100461904Y-114652380D01*
X100842857Y-114652380D01*
X100938095Y-114700000D01*
X100985714Y-114747619D01*
X101033333Y-114842857D01*
X101033333Y-114985714D01*
X100985714Y-115080952D01*
X100938095Y-115128571D01*
X100842857Y-115176190D01*
X100461904Y-115176190D01*
X101985714Y-115652380D02*
X101414285Y-115652380D01*
X101700000Y-115652380D02*
X101700000Y-114652380D01*
X101604761Y-114795238D01*
X101509523Y-114890476D01*
X101414285Y-114938095D01*
D13*
X108856666Y-109285523D02*
X108856666Y-110192666D01*
X108796190Y-110374095D01*
X108675238Y-110495047D01*
X108493809Y-110555523D01*
X108372857Y-110555523D01*
X110126666Y-110555523D02*
X109400952Y-110555523D01*
X109763809Y-110555523D02*
X109763809Y-109285523D01*
X109642857Y-109466952D01*
X109521904Y-109587904D01*
X109400952Y-109648380D01*
D10*
X74483333Y-126407142D02*
X74435714Y-126454761D01*
X74292857Y-126502380D01*
X74197619Y-126502380D01*
X74054761Y-126454761D01*
X73959523Y-126359523D01*
X73911904Y-126264285D01*
X73864285Y-126073809D01*
X73864285Y-125930952D01*
X73911904Y-125740476D01*
X73959523Y-125645238D01*
X74054761Y-125550000D01*
X74197619Y-125502380D01*
X74292857Y-125502380D01*
X74435714Y-125550000D01*
X74483333Y-125597619D01*
X75054761Y-125930952D02*
X74959523Y-125883333D01*
X74911904Y-125835714D01*
X74864285Y-125740476D01*
X74864285Y-125692857D01*
X74911904Y-125597619D01*
X74959523Y-125550000D01*
X75054761Y-125502380D01*
X75245238Y-125502380D01*
X75340476Y-125550000D01*
X75388095Y-125597619D01*
X75435714Y-125692857D01*
X75435714Y-125740476D01*
X75388095Y-125835714D01*
X75340476Y-125883333D01*
X75245238Y-125930952D01*
X75054761Y-125930952D01*
X74959523Y-125978571D01*
X74911904Y-126026190D01*
X74864285Y-126121428D01*
X74864285Y-126311904D01*
X74911904Y-126407142D01*
X74959523Y-126454761D01*
X75054761Y-126502380D01*
X75245238Y-126502380D01*
X75340476Y-126454761D01*
X75388095Y-126407142D01*
X75435714Y-126311904D01*
X75435714Y-126121428D01*
X75388095Y-126026190D01*
X75340476Y-125978571D01*
X75245238Y-125930952D01*
X69407142Y-121816666D02*
X69454761Y-121864285D01*
X69502380Y-122007142D01*
X69502380Y-122102380D01*
X69454761Y-122245238D01*
X69359523Y-122340476D01*
X69264285Y-122388095D01*
X69073809Y-122435714D01*
X68930952Y-122435714D01*
X68740476Y-122388095D01*
X68645238Y-122340476D01*
X68550000Y-122245238D01*
X68502380Y-122102380D01*
X68502380Y-122007142D01*
X68550000Y-121864285D01*
X68597619Y-121816666D01*
X68502380Y-121483333D02*
X68502380Y-120816666D01*
X69502380Y-121245238D01*
X103233333Y-120707142D02*
X103185714Y-120754761D01*
X103042857Y-120802380D01*
X102947619Y-120802380D01*
X102804761Y-120754761D01*
X102709523Y-120659523D01*
X102661904Y-120564285D01*
X102614285Y-120373809D01*
X102614285Y-120230952D01*
X102661904Y-120040476D01*
X102709523Y-119945238D01*
X102804761Y-119850000D01*
X102947619Y-119802380D01*
X103042857Y-119802380D01*
X103185714Y-119850000D01*
X103233333Y-119897619D01*
X104090476Y-119802380D02*
X103900000Y-119802380D01*
X103804761Y-119850000D01*
X103757142Y-119897619D01*
X103661904Y-120040476D01*
X103614285Y-120230952D01*
X103614285Y-120611904D01*
X103661904Y-120707142D01*
X103709523Y-120754761D01*
X103804761Y-120802380D01*
X103995238Y-120802380D01*
X104090476Y-120754761D01*
X104138095Y-120707142D01*
X104185714Y-120611904D01*
X104185714Y-120373809D01*
X104138095Y-120278571D01*
X104090476Y-120230952D01*
X103995238Y-120183333D01*
X103804761Y-120183333D01*
X103709523Y-120230952D01*
X103661904Y-120278571D01*
X103614285Y-120373809D01*
X103957142Y-127266666D02*
X104004761Y-127314285D01*
X104052380Y-127457142D01*
X104052380Y-127552380D01*
X104004761Y-127695238D01*
X103909523Y-127790476D01*
X103814285Y-127838095D01*
X103623809Y-127885714D01*
X103480952Y-127885714D01*
X103290476Y-127838095D01*
X103195238Y-127790476D01*
X103100000Y-127695238D01*
X103052380Y-127552380D01*
X103052380Y-127457142D01*
X103100000Y-127314285D01*
X103147619Y-127266666D01*
X103052380Y-126361904D02*
X103052380Y-126838095D01*
X103528571Y-126885714D01*
X103480952Y-126838095D01*
X103433333Y-126742857D01*
X103433333Y-126504761D01*
X103480952Y-126409523D01*
X103528571Y-126361904D01*
X103623809Y-126314285D01*
X103861904Y-126314285D01*
X103957142Y-126361904D01*
X104004761Y-126409523D01*
X104052380Y-126504761D01*
X104052380Y-126742857D01*
X104004761Y-126838095D01*
X103957142Y-126885714D01*
X103333333Y-118057142D02*
X103285714Y-118104761D01*
X103142857Y-118152380D01*
X103047619Y-118152380D01*
X102904761Y-118104761D01*
X102809523Y-118009523D01*
X102761904Y-117914285D01*
X102714285Y-117723809D01*
X102714285Y-117580952D01*
X102761904Y-117390476D01*
X102809523Y-117295238D01*
X102904761Y-117200000D01*
X103047619Y-117152380D01*
X103142857Y-117152380D01*
X103285714Y-117200000D01*
X103333333Y-117247619D01*
X104190476Y-117485714D02*
X104190476Y-118152380D01*
X103952380Y-117104761D02*
X103714285Y-117819047D01*
X104333333Y-117819047D01*
X96733333Y-123107142D02*
X96685714Y-123154761D01*
X96542857Y-123202380D01*
X96447619Y-123202380D01*
X96304761Y-123154761D01*
X96209523Y-123059523D01*
X96161904Y-122964285D01*
X96114285Y-122773809D01*
X96114285Y-122630952D01*
X96161904Y-122440476D01*
X96209523Y-122345238D01*
X96304761Y-122250000D01*
X96447619Y-122202380D01*
X96542857Y-122202380D01*
X96685714Y-122250000D01*
X96733333Y-122297619D01*
X97066666Y-122202380D02*
X97685714Y-122202380D01*
X97352380Y-122583333D01*
X97495238Y-122583333D01*
X97590476Y-122630952D01*
X97638095Y-122678571D01*
X97685714Y-122773809D01*
X97685714Y-123011904D01*
X97638095Y-123107142D01*
X97590476Y-123154761D01*
X97495238Y-123202380D01*
X97209523Y-123202380D01*
X97114285Y-123154761D01*
X97066666Y-123107142D01*
X96633333Y-125407142D02*
X96585714Y-125454761D01*
X96442857Y-125502380D01*
X96347619Y-125502380D01*
X96204761Y-125454761D01*
X96109523Y-125359523D01*
X96061904Y-125264285D01*
X96014285Y-125073809D01*
X96014285Y-124930952D01*
X96061904Y-124740476D01*
X96109523Y-124645238D01*
X96204761Y-124550000D01*
X96347619Y-124502380D01*
X96442857Y-124502380D01*
X96585714Y-124550000D01*
X96633333Y-124597619D01*
X97014285Y-124597619D02*
X97061904Y-124550000D01*
X97157142Y-124502380D01*
X97395238Y-124502380D01*
X97490476Y-124550000D01*
X97538095Y-124597619D01*
X97585714Y-124692857D01*
X97585714Y-124788095D01*
X97538095Y-124930952D01*
X96966666Y-125502380D01*
X97585714Y-125502380D01*
X87083333Y-111257142D02*
X87035714Y-111304761D01*
X86892857Y-111352380D01*
X86797619Y-111352380D01*
X86654761Y-111304761D01*
X86559523Y-111209523D01*
X86511904Y-111114285D01*
X86464285Y-110923809D01*
X86464285Y-110780952D01*
X86511904Y-110590476D01*
X86559523Y-110495238D01*
X86654761Y-110400000D01*
X86797619Y-110352380D01*
X86892857Y-110352380D01*
X87035714Y-110400000D01*
X87083333Y-110447619D01*
X88035714Y-111352380D02*
X87464285Y-111352380D01*
X87750000Y-111352380D02*
X87750000Y-110352380D01*
X87654761Y-110495238D01*
X87559523Y-110590476D01*
X87464285Y-110638095D01*
M02*
