G04 #@! TF.GenerationSoftware,KiCad,Pcbnew,(5.1.4)-1*
G04 #@! TF.CreationDate,2020-01-26T21:21:17-03:00*
G04 #@! TF.ProjectId,CONTESTING,434f4e54-4553-4544-994e-472e6b696361,rev?*
G04 #@! TF.SameCoordinates,Original*
G04 #@! TF.FileFunction,Paste,Top*
G04 #@! TF.FilePolarity,Positive*
%FSLAX46Y46*%
G04 Gerber Fmt 4.6, Leading zero omitted, Abs format (unit mm)*
G04 Created by KiCad (PCBNEW (5.1.4)-1) date 2020-01-26 21:21:17*
%MOMM*%
%LPD*%
G04 APERTURE LIST*
%ADD10R,1.200000X1.400000*%
%ADD11R,1.500000X0.550000*%
%ADD12R,0.550000X1.500000*%
%ADD13R,1.700000X1.000000*%
%ADD14R,1.500000X1.300000*%
%ADD15R,1.300000X1.500000*%
%ADD16R,2.500000X2.000000*%
%ADD17R,2.300000X0.500000*%
%ADD18R,1.500000X1.250000*%
%ADD19R,1.250000X1.500000*%
G04 APERTURE END LIST*
D10*
X76000000Y-121550000D03*
X76000000Y-119350000D03*
X74400000Y-121550000D03*
X74400000Y-119350000D03*
D11*
X92600000Y-117200000D03*
X92600000Y-118000000D03*
X92600000Y-118800000D03*
X92600000Y-119600000D03*
X92600000Y-120400000D03*
X92600000Y-121200000D03*
X92600000Y-122000000D03*
X92600000Y-122800000D03*
X92600000Y-123600000D03*
X92600000Y-124400000D03*
X92600000Y-125200000D03*
D12*
X90900000Y-126900000D03*
X90100000Y-126900000D03*
X89300000Y-126900000D03*
X88500000Y-126900000D03*
X87700000Y-126900000D03*
X86900000Y-126900000D03*
X86100000Y-126900000D03*
X85300000Y-126900000D03*
X84500000Y-126900000D03*
X83700000Y-126900000D03*
X82900000Y-126900000D03*
D11*
X81200000Y-125200000D03*
X81200000Y-124400000D03*
X81200000Y-123600000D03*
X81200000Y-122800000D03*
X81200000Y-122000000D03*
X81200000Y-121200000D03*
X81200000Y-120400000D03*
X81200000Y-119600000D03*
X81200000Y-118800000D03*
X81200000Y-118000000D03*
X81200000Y-117200000D03*
D12*
X82900000Y-115500000D03*
X83700000Y-115500000D03*
X84500000Y-115500000D03*
X85300000Y-115500000D03*
X86100000Y-115500000D03*
X86900000Y-115500000D03*
X87700000Y-115500000D03*
X88500000Y-115500000D03*
X89300000Y-115500000D03*
X90100000Y-115500000D03*
X90900000Y-115500000D03*
D13*
X70650000Y-117800000D03*
X64350000Y-117800000D03*
X70650000Y-114000000D03*
X64350000Y-114000000D03*
D14*
X106600000Y-127300000D03*
X109300000Y-127300000D03*
D15*
X75700000Y-116800000D03*
X75700000Y-114100000D03*
D14*
X99050000Y-112750000D03*
X96350000Y-112750000D03*
X96350000Y-115250000D03*
X99050000Y-115250000D03*
D16*
X103600000Y-114800000D03*
X109100000Y-114800000D03*
X109100000Y-105900000D03*
X103600000Y-105900000D03*
D17*
X103600000Y-108750000D03*
X103600000Y-109550000D03*
X103600000Y-110350000D03*
X103600000Y-111150000D03*
X103600000Y-111950000D03*
D18*
X73400000Y-124300000D03*
X75900000Y-124300000D03*
D19*
X70750000Y-120600000D03*
X70750000Y-123100000D03*
D18*
X101400000Y-120150000D03*
X98900000Y-120150000D03*
D19*
X103600000Y-122500000D03*
X103600000Y-125000000D03*
D18*
X101400000Y-117650000D03*
X98900000Y-117650000D03*
X101400000Y-122650000D03*
X98900000Y-122650000D03*
X101400000Y-125150000D03*
X98900000Y-125150000D03*
X88500000Y-112650000D03*
X86000000Y-112650000D03*
M02*
