  0
SECTION
  2
HEADER
  9
$ACADVER
  1
AC1014
  9
$HANDSEED
  5
FFFF
  9
$MEASUREMENT
 70
     1
  0
ENDSEC
  0
SECTION
  2
TABLES
  0
TABLE
  2
VPORT
  5
8
330
0
100
AcDbSymbolTable
 70
     4
  0
VPORT
  5
2E
330
8
100
AcDbSymbolTableRecord
100
AcDbViewportTableRecord
  2
*ACTIVE
 70
     0
 10
0.0
 20
0.0
 11
1.0
 21
1.0
 12
210.0
 22
148.5
 13
0.0
 23
0.0
 14
10.0
 24
10.0
 15
10.0
 25
10.0
 16
0.0
 26
0.0
 36
1.0
 17
0.0
 27
0.0
 37
0.0
 40
341.0
 41
1.24
 42
50.0
 43
0.0
 44
0.0
 50
0.0
 51
0.0
 71
     0
 72
   100
 73
     1
 74
     3
 75
     0
 76
     0
 77
     0
 78
     0
  0
ENDTAB
  0
TABLE
  2
LTYPE
  5
5
330
0
100
AcDbSymbolTable
 70
     1
  0
LTYPE
  5
14
330
5
100
AcDbSymbolTableRecord
100
AcDbLinetypeTableRecord
  2
BYBLOCK
 70
     0
  3

 72
    65
 73
     0
 40
0.0
  0
LTYPE
  5
15
330
5
100
AcDbSymbolTableRecord
100
AcDbLinetypeTableRecord
  2
BYLAYER
 70
     0
  3

 72
    65
 73
     0
 40
0.0
  0
LTYPE
  5
16
330
5
100
AcDbSymbolTableRecord
100
AcDbLinetypeTableRecord
  2
CONTINUOUS
 70
     0
  3
Solid line
 72
    65
 73
     0
 40
0.0
  0
ENDTAB
  0
TABLE
  2
LAYER
  5
2
100
AcDbSymbolTable
 70
2
  0
LAYER
  5
50
100
AcDbSymbolTableRecord
100
AcDbLayerTableRecord
  2
0
 70
0
  6
CONTINUOUS
  0
LAYER
  5
51
100
AcDbSymbolTableRecord
100
AcDbLayerTableRecord
  2
Layer_1
 70
0
  6
CONTINUOUS
  0
ENDTAB
  0
TABLE
  2
STYLE
  5
3
330
0
100
AcDbSymbolTable
 70
     1
  0
STYLE
  5
11
330
3
100
AcDbSymbolTableRecord
100
AcDbTextStyleTableRecord
  2
STANDARD
 70
     0
 40
0.0
 41
1.0
 50
0.0
 71
     0
 42
2.5
  3
txt
  4

  0
ENDTAB
  0
TABLE
  2
VIEW
  5
6
330
0
100
AcDbSymbolTable
 70
     0
  0
ENDTAB
  0
TABLE
  2
UCS
  5
7
330
0
100
AcDbSymbolTable
 70
     0
  0
ENDTAB
  0
TABLE
  2
APPID
  5
9
330
0
100
AcDbSymbolTable
 70
     2
  0
APPID
  5
12
330
9
100
AcDbSymbolTableRecord
100
AcDbRegAppTableRecord
  2
ACAD
 70
     0
  0
ENDTAB
  0
TABLE
  2
DIMSTYLE
  5
A
330
0
100
AcDbSymbolTable
 70
     1
  0
DIMSTYLE
105
27
330
A
100
AcDbSymbolTableRecord
100
AcDbDimStyleTableRecord
  2
ISO-25
 70
     0
  3

  4

  5

  6

  7

 40
1.0
 41
2.5
 42
0.625
 43
3.75
 44
1.25
 45
0.0
 46
0.0
 47
0.0
 48
0.0
140
2.5
141
2.5
142
0.0
143
0.03937007874016
144
1.0
145
0.0
146
1.0
147
0.625
 71
     0
 72
     0
 73
     0
 74
     0
 75
     0
 76
     0
 77
     1
 78
     8
170
     0
171
     3
172
     1
173
     0
174
     0
175
     0
176
     0
177
     0
178
     0
270
     2
271
     2
272
     2
273
     2
274
     3
340
11
275
     0
280
     0
281
     0
282
     0
283
     0
284
     8
285
     0
286
     0
287
     3
288
     0
  0
ENDTAB
  0
TABLE
  2
BLOCK_RECORD
  5
1
330
0
100
AcDbSymbolTable
 70
     1
  0
BLOCK_RECORD
  5
1F
330
1
100
AcDbSymbolTableRecord
100
AcDbBlockTableRecord
  2
*MODEL_SPACE
  0
BLOCK_RECORD
  5
1B
330
1
100
AcDbSymbolTableRecord
100
AcDbBlockTableRecord
  2
*PAPER_SPACE
  0
ENDTAB
  0
ENDSEC
  0
SECTION
  2
BLOCKS
  0
BLOCK
  5
20
330
1F
100
AcDbEntity
  8
0
100
AcDbBlockBegin
  2
*MODEL_SPACE
 70
     0
 10
0.0
 20
0.0
 30
0.0
  3
*MODEL_SPACE
  1

  0
ENDBLK
  5
21
330
1F
100
AcDbEntity
  8
0
100
AcDbBlockEnd
  0
BLOCK
  5
1C
330
1B
100
AcDbEntity
 67
     1
  8
0
100
AcDbBlockBegin
  2
*PAPER_SPACE
  1

  0
ENDBLK
  5
1D
330
1B
100
AcDbEntity
 67
     1
  8
0
100
AcDbBlockEnd
  0
ENDSEC
  0
SECTION
  2
ENTITIES
  0
SPLINE
  5
100
100
AcDbEntity
  8
Layer_1
 62
7
100
AcDbSpline
 70
8
 71
3
 72
8
 73
4
 74
0
 40
0
 40
0
 40
0
 40
0
 40
1
 40
1
 40
1
 40
1
 10
3.105738
 20
10.439630
 30
0.0
 10
3.091220
 20
10.372577
 30
0.0
 10
3.071173
 20
10.319693
 30
0.0
 10
3.045595
 20
10.280980
 30
0.0
  0
SPLINE
  5
101
100
AcDbEntity
  8
Layer_1
 62
7
100
AcDbSpline
 70
8
 71
3
 72
8
 73
4
 74
0
 40
0
 40
0
 40
0
 40
0
 40
1
 40
1
 40
1
 40
1
 10
3.045595
 20
10.280980
 30
0.0
 10
3.020708
 20
10.242247
 30
0.0
 10
2.983723
 20
10.211480
 30
0.0
 10
2.934640
 20
10.188680
 30
0.0
  0
SPLINE
  5
102
100
AcDbEntity
  8
Layer_1
 62
7
100
AcDbSpline
 70
8
 71
3
 72
8
 73
4
 74
0
 40
0
 40
0
 40
0
 40
0
 40
1
 40
1
 40
1
 40
1
 10
2.934640
 20
10.188680
 30
0.0
 10
2.886249
 20
10.166547
 30
0.0
 10
2.830253
 20
10.155480
 30
0.0
 10
2.766654
 20
10.155480
 30
0.0
  0
SPLINE
  5
103
100
AcDbEntity
  8
Layer_1
 62
7
100
AcDbSpline
 70
8
 71
3
 72
8
 73
4
 74
0
 40
0
 40
0
 40
0
 40
0
 40
1
 40
1
 40
1
 40
1
 10
2.766654
 20
10.155480
 30
0.0
 10
2.732780
 20
10.155480
 30
0.0
 10
2.691647
 20
10.157480
 30
0.0
 10
2.643256
 20
10.161480
 30
0.0
  0
LWPOLYLINE
  5
104
100
AcDbEntity
  8
Layer_1
 62
7
100
AcDbPolyline
 90
2
 70
0
 10
3.067371
 20
10.466630
 30
0.0
 10
3.105738
 20
10.439630
 30
0.0
  0
SPLINE
  5
105
100
AcDbEntity
  8
Layer_1
 62
7
100
AcDbSpline
 70
8
 71
3
 72
8
 73
4
 74
0
 40
0
 40
0
 40
0
 40
0
 40
1
 40
1
 40
1
 40
1
 10
2.643256
 20
9.113110
 30
0.0
 10
2.748334
 20
9.144910
 30
0.0
 10
2.831982
 20
9.185697
 30
0.0
 10
2.894199
 20
9.235470
 30
0.0
  0
SPLINE
  5
106
100
AcDbEntity
  8
Layer_1
 62
7
100
AcDbSpline
 70
8
 71
3
 72
8
 73
4
 74
0
 40
0
 40
0
 40
0
 40
0
 40
1
 40
1
 40
1
 40
1
 10
2.894199
 20
9.235470
 30
0.0
 10
2.956416
 20
9.285937
 30
0.0
 10
3.014140
 20
9.358180
 30
0.0
 10
3.067371
 20
9.452200
 30
0.0
  0
LWPOLYLINE
  5
107
100
AcDbEntity
  8
Layer_1
 62
7
100
AcDbPolyline
 90
2
 70
0
 10
2.643256
 20
10.161480
 30
0.0
 10
2.643256
 20
9.113110
 30
0.0
  0
SPLINE
  5
108
100
AcDbEntity
  8
Layer_1
 62
7
100
AcDbSpline
 70
8
 71
3
 72
8
 73
4
 74
0
 40
0
 40
0
 40
0
 40
0
 40
1
 40
1
 40
1
 40
1
 10
3.105738
 20
9.433500
 30
0.0
 10
3.075320
 20
9.340867
 30
0.0
 10
3.040064
 20
9.266553
 30
0.0
 10
2.999968
 20
9.210560
 30
0.0
  0
SPLINE
  5
109
100
AcDbEntity
  8
Layer_1
 62
7
100
AcDbSpline
 70
8
 71
3
 72
8
 73
4
 74
0
 40
0
 40
0
 40
0
 40
0
 40
1
 40
1
 40
1
 40
1
 10
2.999968
 20
9.210560
 30
0.0
 10
2.935677
 20
9.120000
 30
0.0
 10
2.852720
 20
9.048103
 30
0.0
 10
2.751099
 20
8.994870
 30
0.0
  0
SPLINE
  5
10a
100
AcDbEntity
  8
Layer_1
 62
7
100
AcDbSpline
 70
8
 71
3
 72
8
 73
4
 74
0
 40
0
 40
0
 40
0
 40
0
 40
1
 40
1
 40
1
 40
1
 10
2.751099
 20
8.994870
 30
0.0
 10
2.649477
 20
8.942337
 30
0.0
 10
2.531955
 20
8.916070
 30
0.0
 10
2.398534
 20
8.916070
 30
0.0
  0
SPLINE
  5
10b
100
AcDbEntity
  8
Layer_1
 62
7
100
AcDbSpline
 70
8
 71
3
 72
8
 73
4
 74
0
 40
0
 40
0
 40
0
 40
0
 40
1
 40
1
 40
1
 40
1
 10
2.398534
 20
8.916070
 30
0.0
 10
2.268568
 20
8.916070
 30
0.0
 10
2.146899
 20
8.940970
 30
0.0
 10
2.033525
 20
8.990770
 30
0.0
  0
SPLINE
  5
10c
100
AcDbEntity
  8
Layer_1
 62
7
100
AcDbSpline
 70
8
 71
3
 72
8
 73
4
 74
0
 40
0
 40
0
 40
0
 40
0
 40
1
 40
1
 40
1
 40
1
 10
2.033525
 20
8.990770
 30
0.0
 10
1.967851
 20
9.019770
 30
0.0
 10
1.907707
 20
9.060557
 30
0.0
 10
1.853095
 20
9.113130
 30
0.0
  0
SPLINE
  5
10d
100
AcDbEntity
  8
Layer_1
 62
7
100
AcDbSpline
 70
8
 71
3
 72
8
 73
4
 74
0
 40
0
 40
0
 40
0
 40
0
 40
1
 40
1
 40
1
 40
1
 10
1.853095
 20
9.113130
 30
0.0
 10
1.798481
 20
9.165663
 30
0.0
 10
1.753546
 20
9.229263
 30
0.0
 10
1.718290
 20
9.303930
 30
0.0
  0
SPLINE
  5
10e
100
AcDbEntity
  8
Layer_1
 62
7
100
AcDbSpline
 70
8
 71
3
 72
8
 73
4
 74
0
 40
0
 40
0
 40
0
 40
0
 40
1
 40
1
 40
1
 40
1
 10
1.718290
 20
9.303930
 30
0.0
 10
1.683725
 20
9.378590
 30
0.0
 10
1.666442
 20
9.463277
 30
0.0
 10
1.666442
 20
9.557990
 30
0.0
  0
SPLINE
  5
10f
100
AcDbEntity
  8
Layer_1
 62
7
100
AcDbSpline
 70
8
 71
3
 72
8
 73
4
 74
0
 40
0
 40
0
 40
0
 40
0
 40
1
 40
1
 40
1
 40
1
 10
1.666442
 20
9.557990
 30
0.0
 10
1.666442
 20
9.653390
 30
0.0
 10
1.685453
 20
9.744640
 30
0.0
 10
1.723475
 20
9.831740
 30
0.0
  0
SPLINE
  5
110
100
AcDbEntity
  8
Layer_1
 62
7
100
AcDbSpline
 70
8
 71
3
 72
8
 73
4
 74
0
 40
0
 40
0
 40
0
 40
0
 40
1
 40
1
 40
1
 40
1
 10
1.723475
 20
9.831740
 30
0.0
 10
1.761497
 20
9.918847
 30
0.0
 10
1.817493
 20
10.002150
 30
0.0
 10
1.891462
 20
10.081650
 30
0.0
  0
SPLINE
  5
111
100
AcDbEntity
  8
Layer_1
 62
7
100
AcDbSpline
 70
8
 71
3
 72
8
 73
4
 74
0
 40
0
 40
0
 40
0
 40
0
 40
1
 40
1
 40
1
 40
1
 10
1.891462
 20
10.081650
 30
0.0
 10
1.938471
 20
10.131450
 30
0.0
 10
2.004836
 20
10.186410
 30
0.0
 10
2.090558
 20
10.246530
 30
0.0
  0
LWPOLYLINE
  5
112
100
AcDbEntity
  8
Layer_1
 62
7
100
AcDbPolyline
 90
2
 70
0
 10
3.067371
 20
9.452200
 30
0.0
 10
3.105738
 20
9.433500
 30
0.0
  0
SPLINE
  5
113
100
AcDbEntity
  8
Layer_1
 62
7
100
AcDbSpline
 70
8
 71
3
 72
8
 73
4
 74
0
 40
0
 40
0
 40
0
 40
0
 40
1
 40
1
 40
1
 40
1
 10
1.959901
 20
10.253530
 30
0.0
 10
1.911510
 20
10.256197
 30
0.0
 10
1.857934
 20
10.245830
 30
0.0
 10
1.799173
 20
10.222430
 30
0.0
  0
SPLINE
  5
114
100
AcDbEntity
  8
Layer_1
 62
7
100
AcDbSpline
 70
8
 71
3
 72
8
 73
4
 74
0
 40
0
 40
0
 40
0
 40
0
 40
1
 40
1
 40
1
 40
1
 10
1.799173
 20
10.222430
 30
0.0
 10
1.740412
 20
10.199630
 30
0.0
 10
1.694441
 20
10.168863
 30
0.0
 10
1.661258
 20
10.130130
 30
0.0
  0
SPLINE
  5
115
100
AcDbEntity
  8
Layer_1
 62
7
100
AcDbSpline
 70
8
 71
3
 72
8
 73
4
 74
0
 40
0
 40
0
 40
0
 40
0
 40
1
 40
1
 40
1
 40
1
 10
1.661258
 20
10.130130
 30
0.0
 10
1.628766
 20
10.091397
 30
0.0
 10
1.600423
 20
10.033673
 30
0.0
 10
1.576228
 20
9.956960
 30
0.0
  0
LWPOLYLINE
  5
116
100
AcDbEntity
  8
Layer_1
 62
7
100
AcDbPolyline
 90
2
 70
0
 10
2.090558
 20
10.246530
 30
0.0
 10
1.959901
 20
10.253530
 30
0.0
  0
SPLINE
  5
117
100
AcDbEntity
  8
Layer_1
 62
7
100
AcDbSpline
 70
8
 71
3
 72
8
 73
4
 74
0
 40
0
 40
0
 40
0
 40
0
 40
1
 40
1
 40
1
 40
1
 10
1.537861
 20
9.979760
 30
0.0
 10
1.561365
 20
10.077927
 30
0.0
 10
1.591783
 20
10.154317
 30
0.0
 10
1.629113
 20
10.208930
 30
0.0
  0
SPLINE
  5
118
100
AcDbEntity
  8
Layer_1
 62
7
100
AcDbSpline
 70
8
 71
3
 72
8
 73
4
 74
0
 40
0
 40
0
 40
0
 40
0
 40
1
 40
1
 40
1
 40
1
 10
1.629113
 20
10.208930
 30
0.0
 10
1.678887
 20
10.281517
 30
0.0
 10
1.744561
 20
10.337510
 30
0.0
 10
1.826134
 20
10.376910
 30
0.0
  0
SPLINE
  5
119
100
AcDbEntity
  8
Layer_1
 62
7
100
AcDbSpline
 70
8
 71
3
 72
8
 73
4
 74
0
 40
0
 40
0
 40
0
 40
0
 40
1
 40
1
 40
1
 40
1
 10
1.826134
 20
10.376910
 30
0.0
 10
1.907708
 20
10.416977
 30
0.0
 10
2.000689
 20
10.437010
 30
0.0
 10
2.105076
 20
10.437010
 30
0.0
  0
SPLINE
  5
11a
100
AcDbEntity
  8
Layer_1
 62
7
100
AcDbSpline
 70
8
 71
3
 72
8
 73
4
 74
0
 40
0
 40
0
 40
0
 40
0
 40
1
 40
1
 40
1
 40
1
 10
2.105076
 20
10.437010
 30
0.0
 10
2.177663
 20
10.437010
 30
0.0
 10
2.305900
 20
10.421810
 30
0.0
 10
2.489787
 20
10.391410
 30
0.0
  0
SPLINE
  5
11b
100
AcDbEntity
  8
Layer_1
 62
7
100
AcDbSpline
 70
8
 71
3
 72
8
 73
4
 74
0
 40
0
 40
0
 40
0
 40
0
 40
1
 40
1
 40
1
 40
1
 10
2.489787
 20
10.391410
 30
0.0
 10
2.673673
 20
10.361010
 30
0.0
 10
2.800182
 20
10.345810
 30
0.0
 10
2.869313
 20
10.345810
 30
0.0
  0
SPLINE
  5
11c
100
AcDbEntity
  8
Layer_1
 62
7
100
AcDbSpline
 70
8
 71
3
 72
8
 73
4
 74
0
 40
0
 40
0
 40
0
 40
0
 40
1
 40
1
 40
1
 40
1
 10
2.869313
 20
10.345810
 30
0.0
 10
2.915630
 20
10.345810
 30
0.0
 10
2.950886
 20
10.352710
 30
0.0
 10
2.975082
 20
10.366510
 30
0.0
  0
SPLINE
  5
11d
100
AcDbEntity
  8
Layer_1
 62
7
100
AcDbSpline
 70
8
 71
3
 72
8
 73
4
 74
0
 40
0
 40
0
 40
0
 40
0
 40
1
 40
1
 40
1
 40
1
 10
2.975082
 20
10.366510
 30
0.0
 10
2.999969
 20
10.381043
 30
0.0
 10
3.030732
 20
10.414243
 30
0.0
 10
3.067371
 20
10.466110
 30
0.0
  0
LWPOLYLINE
  5
11e
100
AcDbEntity
  8
Layer_1
 62
7
100
AcDbPolyline
 90
2
 70
0
 10
1.576228
 20
9.956960
 30
0.0
 10
1.537861
 20
9.979760
 30
0.0
  0
LWPOLYLINE
  5
11f
100
AcDbEntity
  8
Layer_1
 62
7
100
AcDbPolyline
 90
2
 70
0
 10
3.067371
 20
10.466110
 30
0.0
 10
3.067371
 20
10.466630
 30
0.0
  0
SPLINE
  5
120
100
AcDbEntity
  8
Layer_1
 62
7
100
AcDbSpline
 70
8
 71
3
 72
8
 73
4
 74
0
 40
0
 40
0
 40
0
 40
0
 40
1
 40
1
 40
1
 40
1
 10
2.151738
 20
10.241430
 30
0.0
 10
2.059103
 20
10.161930
 30
0.0
 10
1.991010
 20
10.082430
 30
0.0
 10
1.947458
 20
10.002930
 30
0.0
  0
SPLINE
  5
121
100
AcDbEntity
  8
Layer_1
 62
7
100
AcDbSpline
 70
8
 71
3
 72
8
 73
4
 74
0
 40
0
 40
0
 40
0
 40
0
 40
1
 40
1
 40
1
 40
1
 10
1.947458
 20
10.002930
 30
0.0
 10
1.888697
 20
9.895777
 30
0.0
 10
1.859317
 20
9.785513
 30
0.0
 10
1.859317
 20
9.672140
 30
0.0
  0
SPLINE
  5
122
100
AcDbEntity
  8
Layer_1
 62
7
100
AcDbSpline
 70
8
 71
3
 72
8
 73
4
 74
0
 40
0
 40
0
 40
0
 40
0
 40
1
 40
1
 40
1
 40
1
 10
1.859317
 20
9.672140
 30
0.0
 10
1.859317
 20
9.478580
 30
0.0
 10
1.938817
 20
9.320617
 30
0.0
 10
2.097817
 20
9.198250
 30
0.0
  0
SPLINE
  5
123
100
AcDbEntity
  8
Layer_1
 62
7
100
AcDbSpline
 70
8
 71
3
 72
8
 73
4
 74
0
 40
0
 40
0
 40
0
 40
0
 40
1
 40
1
 40
1
 40
1
 10
2.097817
 20
9.198250
 30
0.0
 10
2.148282
 20
9.240450
 30
0.0
 10
2.179045
 20
9.274670
 30
0.0
 10
2.190106
 20
9.300910
 30
0.0
  0
SPLINE
  5
124
100
AcDbEntity
  8
Layer_1
 62
7
100
AcDbSpline
 70
8
 71
3
 72
8
 73
4
 74
0
 40
0
 40
0
 40
0
 40
0
 40
1
 40
1
 40
1
 40
1
 10
2.190106
 20
9.300910
 30
0.0
 10
2.201166
 20
9.327177
 30
0.0
 10
2.206697
 20
9.380753
 30
0.0
 10
2.206697
 20
9.461640
 30
0.0
  0
LWPOLYLINE
  5
125
100
AcDbEntity
  8
Layer_1
 62
7
100
AcDbPolyline
 90
2
 70
0
 10
2.206697
 20
10.236430
 30
0.0
 10
2.151738
 20
10.241430
 30
0.0
  0
SPLINE
  5
126
100
AcDbEntity
  8
Layer_1
 62
7
100
AcDbSpline
 70
8
 71
3
 72
8
 73
4
 74
0
 40
0
 40
0
 40
0
 40
0
 40
1
 40
1
 40
1
 40
1
 10
2.595556
 20
10.171130
 30
0.0
 10
2.529882
 20
10.180130
 30
0.0
 10
2.471812
 20
10.189797
 30
0.0
 10
2.421347
 20
10.200130
 30
0.0
  0
LWPOLYLINE
  5
127
100
AcDbEntity
  8
Layer_1
 62
7
100
AcDbPolyline
 90
2
 70
0
 10
2.206697
 20
9.461640
 30
0.0
 10
2.206697
 20
10.236430
 30
0.0
  0
SPLINE
  5
128
100
AcDbEntity
  8
Layer_1
 62
7
100
AcDbSpline
 70
8
 71
3
 72
8
 73
4
 74
0
 40
0
 40
0
 40
0
 40
0
 40
1
 40
1
 40
1
 40
1
 10
2.421347
 20
9.580030
 30
0.0
 10
2.421347
 20
9.507443
 30
0.0
 10
2.418237
 20
9.461127
 30
0.0
 10
2.412017
 20
9.441080
 30
0.0
  0
SPLINE
  5
129
100
AcDbEntity
  8
Layer_1
 62
7
100
AcDbSpline
 70
8
 71
3
 72
8
 73
4
 74
0
 40
0
 40
0
 40
0
 40
0
 40
1
 40
1
 40
1
 40
1
 10
2.412017
 20
9.441080
 30
0.0
 10
2.406484
 20
9.421747
 30
0.0
 10
2.393003
 20
9.399613
 30
0.0
 10
2.371576
 20
9.374680
 30
0.0
  0
SPLINE
  5
12a
100
AcDbEntity
  8
Layer_1
 62
7
100
AcDbSpline
 70
8
 71
3
 72
8
 73
4
 74
0
 40
0
 40
0
 40
0
 40
0
 40
1
 40
1
 40
1
 40
1
 10
2.371576
 20
9.374680
 30
0.0
 10
2.332863
 20
9.331813
 30
0.0
 10
2.255437
 20
9.264063
 30
0.0
 10
2.139298
 20
9.171430
 30
0.0
  0
SPLINE
  5
12b
100
AcDbEntity
  8
Layer_1
 62
7
100
AcDbSpline
 70
8
 71
3
 72
8
 73
4
 74
0
 40
0
 40
0
 40
0
 40
0
 40
1
 40
1
 40
1
 40
1
 10
2.139298
 20
9.171430
 30
0.0
 10
2.197367
 20
9.143097
 30
0.0
 10
2.244376
 20
9.124097
 30
0.0
 10
2.280324
 20
9.114430
 30
0.0
  0
SPLINE
  5
12c
100
AcDbEntity
  8
Layer_1
 62
7
100
AcDbSpline
 70
8
 71
3
 72
8
 73
4
 74
0
 40
0
 40
0
 40
0
 40
0
 40
1
 40
1
 40
1
 40
1
 10
2.280324
 20
9.114430
 30
0.0
 10
2.342541
 20
9.097830
 30
0.0
 10
2.402339
 20
9.089530
 30
0.0
 10
2.459717
 20
9.089530
 30
0.0
  0
SPLINE
  5
12d
100
AcDbEntity
  8
Layer_1
 62
7
100
AcDbSpline
 70
8
 71
3
 72
8
 73
4
 74
0
 40
0
 40
0
 40
0
 40
0
 40
1
 40
1
 40
1
 40
1
 10
2.459717
 20
9.089530
 30
0.0
 10
2.490135
 20
9.089530
 30
0.0
 10
2.535415
 20
9.093330
 30
0.0
 10
2.595559
 20
9.100930
 30
0.0
  0
LWPOLYLINE
  5
12e
100
AcDbEntity
  8
Layer_1
 62
7
100
AcDbPolyline
 90
2
 70
0
 10
2.421347
 20
10.200130
 30
0.0
 10
2.421347
 20
9.580030
 30
0.0
  0
LWPOLYLINE
  5
12f
100
AcDbEntity
  8
Layer_1
 62
7
100
AcDbPolyline
 90
2
 70
0
 10
2.595559
 20
9.100930
 30
0.0
 10
2.595556
 20
10.171130
 30
0.0
  0
SPLINE
  5
130
100
AcDbEntity
  8
Layer_1
 62
7
100
AcDbSpline
 70
8
 71
3
 72
8
 73
4
 74
0
 40
0
 40
0
 40
0
 40
0
 40
1
 40
1
 40
1
 40
1
 10
3.999594
 20
9.962690
 30
0.0
 10
3.962264
 20
9.904623
 30
0.0
 10
3.938414
 20
9.860033
 30
0.0
 10
3.928044
 20
9.828920
 30
0.0
  0
SPLINE
  5
131
100
AcDbEntity
  8
Layer_1
 62
7
100
AcDbSpline
 70
8
 71
3
 72
8
 73
4
 74
0
 40
0
 40
0
 40
0
 40
0
 40
1
 40
1
 40
1
 40
1
 10
3.928044
 20
9.828920
 30
0.0
 10
3.918366
 20
9.798520
 30
0.0
 10
3.913527
 20
9.757043
 30
0.0
 10
3.913527
 20
9.704490
 30
0.0
  0
LWPOLYLINE
  5
132
100
AcDbEntity
  8
Layer_1
 62
7
100
AcDbPolyline
 90
2
 70
0
 10
3.962264
 20
9.977190
 30
0.0
 10
3.999594
 20
9.962690
 30
0.0
  0
SPLINE
  5
133
100
AcDbEntity
  8
Layer_1
 62
7
100
AcDbSpline
 70
8
 71
3
 72
8
 73
4
 74
0
 40
0
 40
0
 40
0
 40
0
 40
1
 40
1
 40
1
 40
1
 10
3.913527
 20
9.262750
 30
0.0
 10
3.913527
 20
9.189470
 30
0.0
 10
3.919058
 20
9.143497
 30
0.0
 10
3.930118
 20
9.124830
 30
0.0
  0
SPLINE
  5
134
100
AcDbEntity
  8
Layer_1
 62
7
100
AcDbSpline
 70
8
 71
3
 72
8
 73
4
 74
0
 40
0
 40
0
 40
0
 40
0
 40
1
 40
1
 40
1
 40
1
 10
3.930118
 20
9.124830
 30
0.0
 10
3.941870
 20
9.106830
 30
0.0
 10
3.955696
 20
9.097830
 30
0.0
 10
3.971596
 20
9.097830
 30
0.0
  0
SPLINE
  5
135
100
AcDbEntity
  8
Layer_1
 62
7
100
AcDbSpline
 70
8
 71
3
 72
8
 73
4
 74
0
 40
0
 40
0
 40
0
 40
0
 40
1
 40
1
 40
1
 40
1
 10
3.971596
 20
9.097830
 30
0.0
 10
3.979892
 20
9.097830
 30
0.0
 10
3.988533
 20
9.099830
 30
0.0
 10
3.997520
 20
9.103830
 30
0.0
  0
SPLINE
  5
136
100
AcDbEntity
  8
Layer_1
 62
7
100
AcDbSpline
 70
8
 71
3
 72
8
 73
4
 74
0
 40
0
 40
0
 40
0
 40
0
 40
1
 40
1
 40
1
 40
1
 10
3.997520
 20
9.103830
 30
0.0
 10
4.003054
 20
9.107163
 30
0.0
 10
4.019299
 20
9.119597
 30
0.0
 10
4.046257
 20
9.141130
 30
0.0
  0
LWPOLYLINE
  5
137
100
AcDbEntity
  8
Layer_1
 62
7
100
AcDbPolyline
 90
2
 70
0
 10
3.913527
 20
9.704490
 30
0.0
 10
3.913527
 20
9.262750
 30
0.0
  0
SPLINE
  5
138
100
AcDbEntity
  8
Layer_1
 62
7
100
AcDbSpline
 70
8
 71
3
 72
8
 73
4
 74
0
 40
0
 40
0
 40
0
 40
0
 40
1
 40
1
 40
1
 40
1
 10
3.837829
 20
8.916130
 30
0.0
 10
3.784598
 20
8.957597
 30
0.0
 10
3.748996
 20
8.994583
 30
0.0
 10
3.731023
 20
9.027090
 30
0.0
  0
SPLINE
  5
139
100
AcDbEntity
  8
Layer_1
 62
7
100
AcDbSpline
 70
8
 71
3
 72
8
 73
4
 74
0
 40
0
 40
0
 40
0
 40
0
 40
1
 40
1
 40
1
 40
1
 10
3.731023
 20
9.027090
 30
0.0
 10
3.713049
 20
9.060290
 30
0.0
 10
3.703025
 20
9.106260
 30
0.0
 10
3.700951
 20
9.165000
 30
0.0
  0
LWPOLYLINE
  5
13a
100
AcDbEntity
  8
Layer_1
 62
7
100
AcDbPolyline
 90
3
 70
0
 10
4.046257
 20
9.141130
 30
0.0
 10
4.069070
 20
9.106930
 30
0.0
 10
3.837829
 20
8.916130
 30
0.0
  0
SPLINE
  5
13b
100
AcDbEntity
  8
Layer_1
 62
7
100
AcDbSpline
 70
8
 71
3
 72
8
 73
4
 74
0
 40
0
 40
0
 40
0
 40
0
 40
1
 40
1
 40
1
 40
1
 10
3.385716
 20
8.916130
 30
0.0
 10
3.267503
 20
9.012917
 30
0.0
 10
3.208396
 20
9.108317
 30
0.0
 10
3.208396
 20
9.202330
 30
0.0
  0
SPLINE
  5
13c
100
AcDbEntity
  8
Layer_1
 62
7
100
AcDbSpline
 70
8
 71
3
 72
8
 73
4
 74
0
 40
0
 40
0
 40
0
 40
0
 40
1
 40
1
 40
1
 40
1
 10
3.208396
 20
9.202330
 30
0.0
 10
3.208396
 20
9.265263
 30
0.0
 10
3.221185
 20
9.324370
 30
0.0
 10
3.246763
 20
9.379650
 30
0.0
  0
SPLINE
  5
13d
100
AcDbEntity
  8
Layer_1
 62
7
100
AcDbSpline
 70
8
 71
3
 72
8
 73
4
 74
0
 40
0
 40
0
 40
0
 40
0
 40
1
 40
1
 40
1
 40
1
 10
3.246763
 20
9.379650
 30
0.0
 10
3.280637
 20
9.452237
 30
0.0
 10
3.339052
 20
9.536923
 30
0.0
 10
3.422009
 20
9.633710
 30
0.0
  0
LWPOLYLINE
  5
13e
100
AcDbEntity
  8
Layer_1
 62
7
100
AcDbPolyline
 90
2
 70
0
 10
3.700951
 20
9.165000
 30
0.0
 10
3.385716
 20
8.916130
 30
0.0
  0
SPLINE
  5
13f
100
AcDbEntity
  8
Layer_1
 62
7
100
AcDbSpline
 70
8
 71
3
 72
8
 73
4
 74
0
 40
0
 40
0
 40
0
 40
0
 40
1
 40
1
 40
1
 40
1
 10
3.312091
 20
9.928170
 30
0.0
 10
3.339052
 20
9.925503
 30
0.0
 10
3.359099
 20
9.924170
 30
0.0
 10
3.372234
 20
9.924170
 30
0.0
  0
SPLINE
  5
140
100
AcDbEntity
  8
Layer_1
 62
7
100
AcDbSpline
 70
8
 71
3
 72
8
 73
4
 74
0
 40
0
 40
0
 40
0
 40
0
 40
1
 40
1
 40
1
 40
1
 10
3.372234
 20
9.924170
 30
0.0
 10
3.453808
 20
9.924170
 30
0.0
 10
3.525704
 20
9.956670
 30
0.0
 10
3.587921
 20
10.021670
 30
0.0
  0
SPLINE
  5
141
100
AcDbEntity
  8
Layer_1
 62
7
100
AcDbSpline
 70
8
 71
3
 72
8
 73
4
 74
0
 40
0
 40
0
 40
0
 40
0
 40
1
 40
1
 40
1
 40
1
 10
3.587921
 20
10.021670
 30
0.0
 10
3.638386
 20
9.991937
 30
0.0
 10
3.693345
 20
9.968070
 30
0.0
 10
3.752797
 20
9.950070
 30
0.0
  0
SPLINE
  5
142
100
AcDbEntity
  8
Layer_1
 62
7
100
AcDbSpline
 70
8
 71
3
 72
8
 73
4
 74
0
 40
0
 40
0
 40
0
 40
0
 40
1
 40
1
 40
1
 40
1
 10
3.752797
 20
9.950070
 30
0.0
 10
3.812940
 20
9.932070
 30
0.0
 10
3.858912
 20
9.923070
 30
0.0
 10
3.890712
 20
9.923070
 30
0.0
  0
SPLINE
  5
143
100
AcDbEntity
  8
Layer_1
 62
7
100
AcDbSpline
 70
8
 71
3
 72
8
 73
4
 74
0
 40
0
 40
0
 40
0
 40
0
 40
1
 40
1
 40
1
 40
1
 10
3.890712
 20
9.923070
 30
0.0
 10
3.905230
 20
9.923070
 30
0.0
 10
3.916291
 20
9.925403
 30
0.0
 10
3.923895
 20
9.930070
 30
0.0
  0
SPLINE
  5
144
100
AcDbEntity
  8
Layer_1
 62
7
100
AcDbSpline
 70
8
 71
3
 72
8
 73
4
 74
0
 40
0
 40
0
 40
0
 40
0
 40
1
 40
1
 40
1
 40
1
 10
3.923895
 20
9.930070
 30
0.0
 10
3.931500
 20
9.935403
 30
0.0
 10
3.944289
 20
9.950970
 30
0.0
 10
3.962262
 20
9.976770
 30
0.0
  0
LWPOLYLINE
  5
145
100
AcDbEntity
  8
Layer_1
 62
7
100
AcDbPolyline
 90
3
 70
0
 10
3.422009
 20
9.633710
 30
0.0
 10
3.297574
 20
9.899170
 30
0.0
 10
3.312091
 20
9.928170
 30
0.0
  0
LWPOLYLINE
  5
146
100
AcDbEntity
  8
Layer_1
 62
7
100
AcDbPolyline
 90
2
 70
0
 10
3.962262
 20
9.976770
 30
0.0
 10
3.962264
 20
9.977190
 30
0.0
  0
LWPOLYLINE
  5
147
100
AcDbEntity
  8
Layer_1
 62
7
100
AcDbPolyline
 90
4
 70
1
 10
3.700951
 20
9.779130
 30
0.0
 10
3.346312
 20
9.888010
 30
0.0
 10
3.472821
 20
9.620480
 30
0.0
 10
3.700951
 20
9.513670
 30
0.0
  0
SPLINE
  5
148
100
AcDbEntity
  8
Layer_1
 62
7
100
AcDbSpline
 70
8
 71
3
 72
8
 73
4
 74
0
 40
0
 40
0
 40
0
 40
0
 40
1
 40
1
 40
1
 40
1
 10
3.450008
 20
9.588330
 30
0.0
 10
3.411294
 20
9.503990
 30
0.0
 10
3.391938
 20
9.430020
 30
0.0
 10
3.391938
 20
9.366420
 30
0.0
  0
SPLINE
  5
149
100
AcDbEntity
  8
Layer_1
 62
7
100
AcDbSpline
 70
8
 71
3
 72
8
 73
4
 74
0
 40
0
 40
0
 40
0
 40
0
 40
1
 40
1
 40
1
 40
1
 10
3.391938
 20
9.366420
 30
0.0
 10
3.391938
 20
9.254427
 30
0.0
 10
3.442749
 20
9.162137
 30
0.0
 10
3.544370
 20
9.089550
 30
0.0
  0
LWPOLYLINE
  5
14a
100
AcDbEntity
  8
Layer_1
 62
7
100
AcDbPolyline
 90
2
 70
0
 10
3.700951
 20
9.471150
 30
0.0
 10
3.450008
 20
9.588330
 30
0.0
  0
LWPOLYLINE
  5
14b
100
AcDbEntity
  8
Layer_1
 62
7
100
AcDbPolyline
 90
3
 70
0
 10
3.544370
 20
9.089550
 30
0.0
 10
3.700951
 20
9.216060
 30
0.0
 10
3.700951
 20
9.471150
 30
0.0
  0
SPLINE
  5
14c
100
AcDbEntity
  8
Layer_1
 62
7
100
AcDbSpline
 70
8
 71
3
 72
8
 73
4
 74
0
 40
0
 40
0
 40
0
 40
0
 40
1
 40
1
 40
1
 40
1
 10
4.861306
 20
9.891120
 30
0.0
 10
4.872366
 20
9.916720
 30
0.0
 10
4.884464
 20
9.936087
 30
0.0
 10
4.897599
 20
9.949220
 30
0.0
  0
SPLINE
  5
14d
100
AcDbEntity
  8
Layer_1
 62
7
100
AcDbSpline
 70
8
 71
3
 72
8
 73
4
 74
0
 40
0
 40
0
 40
0
 40
0
 40
1
 40
1
 40
1
 40
1
 10
4.897599
 20
9.949220
 30
0.0
 10
4.911425
 20
9.962353
 30
0.0
 10
4.932164
 20
9.974787
 30
0.0
 10
4.959816
 20
9.986520
 30
0.0
  0
LWPOLYLINE
  5
14e
100
AcDbEntity
  8
Layer_1
 62
7
100
AcDbPolyline
 90
2
 70
0
 10
4.157212
 20
10.375380
 30
0.0
 10
4.861306
 20
9.891120
 30
0.0
  0
SPLINE
  5
14f
100
AcDbEntity
  8
Layer_1
 62
7
100
AcDbSpline
 70
8
 71
3
 72
8
 73
4
 74
0
 40
0
 40
0
 40
0
 40
0
 40
1
 40
1
 40
1
 40
1
 10
4.959816
 20
9.944020
 30
0.0
 10
4.945990
 20
9.925353
 30
0.0
 10
4.937003
 20
9.908420
 30
0.0
 10
4.932855
 20
9.893220
 30
0.0
  0
SPLINE
  5
150
100
AcDbEntity
  8
Layer_1
 62
7
100
AcDbSpline
 70
8
 71
3
 72
8
 73
4
 74
0
 40
0
 40
0
 40
0
 40
0
 40
1
 40
1
 40
1
 40
1
 10
4.932855
 20
9.893220
 30
0.0
 10
4.928708
 20
9.878020
 30
0.0
 10
4.926635
 20
9.846920
 30
0.0
 10
4.926635
 20
9.799920
 30
0.0
  0
LWPOLYLINE
  5
151
100
AcDbEntity
  8
Layer_1
 62
7
100
AcDbPolyline
 90
2
 70
0
 10
4.959816
 20
9.986520
 30
0.0
 10
4.959816
 20
9.944020
 30
0.0
  0
SPLINE
  5
152
100
AcDbEntity
  8
Layer_1
 62
7
100
AcDbSpline
 70
8
 71
3
 72
8
 73
4
 74
0
 40
0
 40
0
 40
0
 40
0
 40
1
 40
1
 40
1
 40
1
 10
4.926635
 20
9.102050
 30
0.0
 10
4.838839
 20
9.068850
 30
0.0
 10
4.773511
 20
9.039817
 30
0.0
 10
4.730650
 20
9.014950
 30
0.0
  0
SPLINE
  5
153
100
AcDbEntity
  8
Layer_1
 62
7
100
AcDbSpline
 70
8
 71
3
 72
8
 73
4
 74
0
 40
0
 40
0
 40
0
 40
0
 40
1
 40
1
 40
1
 40
1
 10
4.730650
 20
9.014950
 30
0.0
 10
4.687789
 20
8.990750
 30
0.0
 10
4.641472
 20
8.957917
 30
0.0
 10
4.591698
 20
8.916450
 30
0.0
  0
SPLINE
  5
154
100
AcDbEntity
  8
Layer_1
 62
7
100
AcDbSpline
 70
8
 71
3
 72
8
 73
4
 74
0
 40
0
 40
0
 40
0
 40
0
 40
1
 40
1
 40
1
 40
1
 10
4.591698
 20
8.916450
 30
0.0
 10
4.510124
 20
8.969717
 30
0.0
 10
4.437882
 20
9.008430
 30
0.0
 10
4.374974
 20
9.032590
 30
0.0
  0
SPLINE
  5
155
100
AcDbEntity
  8
Layer_1
 62
7
100
AcDbSpline
 70
8
 71
3
 72
8
 73
4
 74
0
 40
0
 40
0
 40
0
 40
0
 40
1
 40
1
 40
1
 40
1
 10
4.374974
 20
9.032590
 30
0.0
 10
4.312065
 20
9.056790
 30
0.0
 10
4.244317
 20
9.073390
 30
0.0
 10
4.171730
 20
9.082390
 30
0.0
  0
LWPOLYLINE
  5
156
100
AcDbEntity
  8
Layer_1
 62
7
100
AcDbPolyline
 90
2
 70
0
 10
4.926635
 20
9.799920
 30
0.0
 10
4.926635
 20
9.102050
 30
0.0
  0
SPLINE
  5
157
100
AcDbEntity
  8
Layer_1
 62
7
100
AcDbSpline
 70
8
 71
3
 72
8
 73
4
 74
0
 40
0
 40
0
 40
0
 40
0
 40
1
 40
1
 40
1
 40
1
 10
4.171730
 20
9.102090
 30
0.0
 10
4.196617
 20
9.123490
 30
0.0
 10
4.212517
 20
9.144923
 30
0.0
 10
4.219430
 20
9.166390
 30
0.0
  0
SPLINE
  5
158
100
AcDbEntity
  8
Layer_1
 62
7
100
AcDbSpline
 70
8
 71
3
 72
8
 73
4
 74
0
 40
0
 40
0
 40
0
 40
0
 40
1
 40
1
 40
1
 40
1
 10
4.219430
 20
9.166390
 30
0.0
 10
4.227035
 20
9.188523
 30
0.0
 10
4.230837
 20
9.233803
 30
0.0
 10
4.230837
 20
9.302230
 30
0.0
  0
LWPOLYLINE
  5
159
100
AcDbEntity
  8
Layer_1
 62
7
100
AcDbPolyline
 90
2
 70
0
 10
4.171730
 20
9.082390
 30
0.0
 10
4.171730
 20
9.102090
 30
0.0
  0
SPLINE
  5
15a
100
AcDbEntity
  8
Layer_1
 62
7
100
AcDbSpline
 70
8
 71
3
 72
8
 73
4
 74
0
 40
0
 40
0
 40
0
 40
0
 40
1
 40
1
 40
1
 40
1
 10
4.230837
 20
9.845590
 30
0.0
 10
4.325546
 20
9.871857
 30
0.0
 10
4.392602
 20
9.901590
 30
0.0
 10
4.432007
 20
9.934790
 30
0.0
  0
LWPOLYLINE
  5
15b
100
AcDbEntity
  8
Layer_1
 62
7
100
AcDbPolyline
 90
2
 70
0
 10
4.230837
 20
9.302230
 30
0.0
 10
4.230837
 20
9.845590
 30
0.0
  0
LWPOLYLINE
  5
15c
100
AcDbEntity
  8
Layer_1
 62
7
100
AcDbPolyline
 90
3
 70
0
 10
4.432007
 20
9.934790
 30
0.0
 10
4.157213
 20
10.122480
 30
0.0
 10
4.157212
 20
10.375380
 30
0.0
  0
SPLINE
  5
15d
100
AcDbEntity
  8
Layer_1
 62
7
100
AcDbSpline
 70
8
 71
3
 72
8
 73
4
 74
0
 40
0
 40
0
 40
0
 40
0
 40
1
 40
1
 40
1
 40
1
 10
4.502519
 20
9.888010
 30
0.0
 10
4.483162
 20
9.872143
 30
0.0
 10
4.463460
 20
9.858310
 30
0.0
 10
4.443413
 20
9.846510
 30
0.0
  0
LWPOLYLINE
  5
15e
100
AcDbEntity
  8
Layer_1
 62
7
100
AcDbPolyline
 90
2
 70
0
 10
4.715095
 20
9.740760
 30
0.0
 10
4.502519
 20
9.888010
 30
0.0
  0
LWPOLYLINE
  5
15f
100
AcDbEntity
  8
Layer_1
 62
7
100
AcDbPolyline
 90
4
 70
0
 10
4.443413
 20
9.846510
 30
0.0
 10
4.443413
 20
9.205670
 30
0.0
 10
4.715095
 20
9.085390
 30
0.0
 10
4.715095
 20
9.740760
 30
0.0
  0
SPLINE
  5
160
100
AcDbEntity
  8
Layer_1
 62
7
100
AcDbSpline
 70
8
 71
3
 72
8
 73
4
 74
0
 40
0
 40
0
 40
0
 40
0
 40
1
 40
1
 40
1
 40
1
 10
5.907594
 20
9.962690
 30
0.0
 10
5.870264
 20
9.904623
 30
0.0
 10
5.846414
 20
9.860033
 30
0.0
 10
5.836044
 20
9.828920
 30
0.0
  0
SPLINE
  5
161
100
AcDbEntity
  8
Layer_1
 62
7
100
AcDbSpline
 70
8
 71
3
 72
8
 73
4
 74
0
 40
0
 40
0
 40
0
 40
0
 40
1
 40
1
 40
1
 40
1
 10
5.836044
 20
9.828920
 30
0.0
 10
5.826366
 20
9.798520
 30
0.0
 10
5.821527
 20
9.757043
 30
0.0
 10
5.821527
 20
9.704490
 30
0.0
  0
LWPOLYLINE
  5
162
100
AcDbEntity
  8
Layer_1
 62
7
100
AcDbPolyline
 90
2
 70
0
 10
5.870264
 20
9.977190
 30
0.0
 10
5.907594
 20
9.962690
 30
0.0
  0
SPLINE
  5
163
100
AcDbEntity
  8
Layer_1
 62
7
100
AcDbSpline
 70
8
 71
3
 72
8
 73
4
 74
0
 40
0
 40
0
 40
0
 40
0
 40
1
 40
1
 40
1
 40
1
 10
5.821527
 20
9.262750
 30
0.0
 10
5.821527
 20
9.189470
 30
0.0
 10
5.827058
 20
9.143497
 30
0.0
 10
5.838118
 20
9.124830
 30
0.0
  0
SPLINE
  5
164
100
AcDbEntity
  8
Layer_1
 62
7
100
AcDbSpline
 70
8
 71
3
 72
8
 73
4
 74
0
 40
0
 40
0
 40
0
 40
0
 40
1
 40
1
 40
1
 40
1
 10
5.838118
 20
9.124830
 30
0.0
 10
5.849870
 20
9.106830
 30
0.0
 10
5.863696
 20
9.097830
 30
0.0
 10
5.879596
 20
9.097830
 30
0.0
  0
SPLINE
  5
165
100
AcDbEntity
  8
Layer_1
 62
7
100
AcDbSpline
 70
8
 71
3
 72
8
 73
4
 74
0
 40
0
 40
0
 40
0
 40
0
 40
1
 40
1
 40
1
 40
1
 10
5.879596
 20
9.097830
 30
0.0
 10
5.887892
 20
9.097830
 30
0.0
 10
5.896533
 20
9.099830
 30
0.0
 10
5.905520
 20
9.103830
 30
0.0
  0
SPLINE
  5
166
100
AcDbEntity
  8
Layer_1
 62
7
100
AcDbSpline
 70
8
 71
3
 72
8
 73
4
 74
0
 40
0
 40
0
 40
0
 40
0
 40
1
 40
1
 40
1
 40
1
 10
5.905520
 20
9.103830
 30
0.0
 10
5.911054
 20
9.107163
 30
0.0
 10
5.927299
 20
9.119597
 30
0.0
 10
5.954257
 20
9.141130
 30
0.0
  0
LWPOLYLINE
  5
167
100
AcDbEntity
  8
Layer_1
 62
7
100
AcDbPolyline
 90
2
 70
0
 10
5.821527
 20
9.704490
 30
0.0
 10
5.821527
 20
9.262750
 30
0.0
  0
SPLINE
  5
168
100
AcDbEntity
  8
Layer_1
 62
7
100
AcDbSpline
 70
8
 71
3
 72
8
 73
4
 74
0
 40
0
 40
0
 40
0
 40
0
 40
1
 40
1
 40
1
 40
1
 10
5.745829
 20
8.916130
 30
0.0
 10
5.692598
 20
8.957597
 30
0.0
 10
5.656996
 20
8.994583
 30
0.0
 10
5.639022
 20
9.027090
 30
0.0
  0
SPLINE
  5
169
100
AcDbEntity
  8
Layer_1
 62
7
100
AcDbSpline
 70
8
 71
3
 72
8
 73
4
 74
0
 40
0
 40
0
 40
0
 40
0
 40
1
 40
1
 40
1
 40
1
 10
5.639022
 20
9.027090
 30
0.0
 10
5.621048
 20
9.060290
 30
0.0
 10
5.611024
 20
9.106260
 30
0.0
 10
5.608950
 20
9.165000
 30
0.0
  0
LWPOLYLINE
  5
16a
100
AcDbEntity
  8
Layer_1
 62
7
100
AcDbPolyline
 90
3
 70
0
 10
5.954257
 20
9.141130
 30
0.0
 10
5.977070
 20
9.106930
 30
0.0
 10
5.745829
 20
8.916130
 30
0.0
  0
SPLINE
  5
16b
100
AcDbEntity
  8
Layer_1
 62
7
100
AcDbSpline
 70
8
 71
3
 72
8
 73
4
 74
0
 40
0
 40
0
 40
0
 40
0
 40
1
 40
1
 40
1
 40
1
 10
5.293716
 20
8.916130
 30
0.0
 10
5.175503
 20
9.012917
 30
0.0
 10
5.116396
 20
9.108317
 30
0.0
 10
5.116396
 20
9.202330
 30
0.0
  0
SPLINE
  5
16c
100
AcDbEntity
  8
Layer_1
 62
7
100
AcDbSpline
 70
8
 71
3
 72
8
 73
4
 74
0
 40
0
 40
0
 40
0
 40
0
 40
1
 40
1
 40
1
 40
1
 10
5.116396
 20
9.202330
 30
0.0
 10
5.116396
 20
9.265263
 30
0.0
 10
5.129185
 20
9.324370
 30
0.0
 10
5.154763
 20
9.379650
 30
0.0
  0
SPLINE
  5
16d
100
AcDbEntity
  8
Layer_1
 62
7
100
AcDbSpline
 70
8
 71
3
 72
8
 73
4
 74
0
 40
0
 40
0
 40
0
 40
0
 40
1
 40
1
 40
1
 40
1
 10
5.154763
 20
9.379650
 30
0.0
 10
5.188637
 20
9.452237
 30
0.0
 10
5.247052
 20
9.536923
 30
0.0
 10
5.330009
 20
9.633710
 30
0.0
  0
LWPOLYLINE
  5
16e
100
AcDbEntity
  8
Layer_1
 62
7
100
AcDbPolyline
 90
2
 70
0
 10
5.608950
 20
9.165000
 30
0.0
 10
5.293716
 20
8.916130
 30
0.0
  0
SPLINE
  5
16f
100
AcDbEntity
  8
Layer_1
 62
7
100
AcDbSpline
 70
8
 71
3
 72
8
 73
4
 74
0
 40
0
 40
0
 40
0
 40
0
 40
1
 40
1
 40
1
 40
1
 10
5.220091
 20
9.928170
 30
0.0
 10
5.247052
 20
9.925503
 30
0.0
 10
5.267100
 20
9.924170
 30
0.0
 10
5.280235
 20
9.924170
 30
0.0
  0
SPLINE
  5
170
100
AcDbEntity
  8
Layer_1
 62
7
100
AcDbSpline
 70
8
 71
3
 72
8
 73
4
 74
0
 40
0
 40
0
 40
0
 40
0
 40
1
 40
1
 40
1
 40
1
 10
5.280235
 20
9.924170
 30
0.0
 10
5.361809
 20
9.924170
 30
0.0
 10
5.433705
 20
9.956670
 30
0.0
 10
5.495922
 20
10.021670
 30
0.0
  0
SPLINE
  5
171
100
AcDbEntity
  8
Layer_1
 62
7
100
AcDbSpline
 70
8
 71
3
 72
8
 73
4
 74
0
 40
0
 40
0
 40
0
 40
0
 40
1
 40
1
 40
1
 40
1
 10
5.495922
 20
10.021670
 30
0.0
 10
5.546387
 20
9.991937
 30
0.0
 10
5.601346
 20
9.968070
 30
0.0
 10
5.660798
 20
9.950070
 30
0.0
  0
SPLINE
  5
172
100
AcDbEntity
  8
Layer_1
 62
7
100
AcDbSpline
 70
8
 71
3
 72
8
 73
4
 74
0
 40
0
 40
0
 40
0
 40
0
 40
1
 40
1
 40
1
 40
1
 10
5.660798
 20
9.950070
 30
0.0
 10
5.720941
 20
9.932070
 30
0.0
 10
5.766913
 20
9.923070
 30
0.0
 10
5.798713
 20
9.923070
 30
0.0
  0
SPLINE
  5
173
100
AcDbEntity
  8
Layer_1
 62
7
100
AcDbSpline
 70
8
 71
3
 72
8
 73
4
 74
0
 40
0
 40
0
 40
0
 40
0
 40
1
 40
1
 40
1
 40
1
 10
5.798713
 20
9.923070
 30
0.0
 10
5.813231
 20
9.923070
 30
0.0
 10
5.824292
 20
9.925403
 30
0.0
 10
5.831896
 20
9.930070
 30
0.0
  0
SPLINE
  5
174
100
AcDbEntity
  8
Layer_1
 62
7
100
AcDbSpline
 70
8
 71
3
 72
8
 73
4
 74
0
 40
0
 40
0
 40
0
 40
0
 40
1
 40
1
 40
1
 40
1
 10
5.831896
 20
9.930070
 30
0.0
 10
5.839500
 20
9.935403
 30
0.0
 10
5.852289
 20
9.950970
 30
0.0
 10
5.870263
 20
9.976770
 30
0.0
  0
LWPOLYLINE
  5
175
100
AcDbEntity
  8
Layer_1
 62
7
100
AcDbPolyline
 90
3
 70
0
 10
5.330009
 20
9.633710
 30
0.0
 10
5.205574
 20
9.899170
 30
0.0
 10
5.220091
 20
9.928170
 30
0.0
  0
LWPOLYLINE
  5
176
100
AcDbEntity
  8
Layer_1
 62
7
100
AcDbPolyline
 90
2
 70
0
 10
5.870263
 20
9.976770
 30
0.0
 10
5.870264
 20
9.977190
 30
0.0
  0
LWPOLYLINE
  5
177
100
AcDbEntity
  8
Layer_1
 62
7
100
AcDbPolyline
 90
4
 70
1
 10
5.608951
 20
9.779130
 30
0.0
 10
5.254312
 20
9.888010
 30
0.0
 10
5.380821
 20
9.620480
 30
0.0
 10
5.608951
 20
9.513670
 30
0.0
  0
SPLINE
  5
178
100
AcDbEntity
  8
Layer_1
 62
7
100
AcDbSpline
 70
8
 71
3
 72
8
 73
4
 74
0
 40
0
 40
0
 40
0
 40
0
 40
1
 40
1
 40
1
 40
1
 10
5.358008
 20
9.588330
 30
0.0
 10
5.319294
 20
9.503990
 30
0.0
 10
5.299938
 20
9.430020
 30
0.0
 10
5.299938
 20
9.366420
 30
0.0
  0
SPLINE
  5
179
100
AcDbEntity
  8
Layer_1
 62
7
100
AcDbSpline
 70
8
 71
3
 72
8
 73
4
 74
0
 40
0
 40
0
 40
0
 40
0
 40
1
 40
1
 40
1
 40
1
 10
5.299938
 20
9.366420
 30
0.0
 10
5.299938
 20
9.254427
 30
0.0
 10
5.350749
 20
9.162137
 30
0.0
 10
5.452370
 20
9.089550
 30
0.0
  0
LWPOLYLINE
  5
17a
100
AcDbEntity
  8
Layer_1
 62
7
100
AcDbPolyline
 90
2
 70
0
 10
5.608951
 20
9.471150
 30
0.0
 10
5.358008
 20
9.588330
 30
0.0
  0
LWPOLYLINE
  5
17b
100
AcDbEntity
  8
Layer_1
 62
7
100
AcDbPolyline
 90
3
 70
0
 10
5.452370
 20
9.089550
 30
0.0
 10
5.608951
 20
9.216060
 30
0.0
 10
5.608951
 20
9.471150
 30
0.0
  0
SPLINE
  5
17c
100
AcDbEntity
  8
Layer_1
 62
7
100
AcDbSpline
 70
8
 71
3
 72
8
 73
4
 74
0
 40
0
 40
0
 40
0
 40
0
 40
1
 40
1
 40
1
 40
1
 10
6.533916
 20
10.375340
 30
0.0
 10
6.481377
 20
10.340740
 30
0.0
 10
6.446121
 20
10.304100
 30
0.0
 10
6.428147
 20
10.265420
 30
0.0
  0
SPLINE
  5
17d
100
AcDbEntity
  8
Layer_1
 62
7
100
AcDbSpline
 70
8
 71
3
 72
8
 73
4
 74
0
 40
0
 40
0
 40
0
 40
0
 40
1
 40
1
 40
1
 40
1
 10
6.428147
 20
10.265420
 30
0.0
 10
6.410173
 20
10.227420
 30
0.0
 10
6.401186
 20
10.165550
 30
0.0
 10
6.401186
 20
10.079810
 30
0.0
  0
LWPOLYLINE
  5
17e
100
AcDbEntity
  8
Layer_1
 62
7
100
AcDbPolyline
 90
2
 70
0
 10
6.533916
 20
10.402340
 30
0.0
 10
6.533916
 20
10.375340
 30
0.0
  0
SPLINE
  5
17f
100
AcDbEntity
  8
Layer_1
 62
7
100
AcDbSpline
 70
8
 71
3
 72
8
 73
4
 74
0
 40
0
 40
0
 40
0
 40
0
 40
1
 40
1
 40
1
 40
1
 10
6.680127
 20
9.578960
 30
0.0
 10
6.734740
 20
9.540227
 30
0.0
 10
6.775527
 20
9.498057
 30
0.0
 10
6.802488
 20
9.452450
 30
0.0
  0
SPLINE
  5
180
100
AcDbEntity
  8
Layer_1
 62
7
100
AcDbSpline
 70
8
 71
3
 72
8
 73
4
 74
0
 40
0
 40
0
 40
0
 40
0
 40
1
 40
1
 40
1
 40
1
 10
6.802488
 20
9.452450
 30
0.0
 10
6.830140
 20
9.407517
 30
0.0
 10
6.851570
 20
9.341150
 30
0.0
 10
6.866779
 20
9.253350
 30
0.0
  0
SPLINE
  5
181
100
AcDbEntity
  8
Layer_1
 62
7
100
AcDbSpline
 70
8
 71
3
 72
8
 73
4
 74
0
 40
0
 40
0
 40
0
 40
0
 40
1
 40
1
 40
1
 40
1
 10
6.866779
 20
9.253350
 30
0.0
 10
6.881988
 20
9.166250
 30
0.0
 10
6.894085
 20
9.116130
 30
0.0
 10
6.903072
 20
9.102990
 30
0.0
  0
SPLINE
  5
182
100
AcDbEntity
  8
Layer_1
 62
7
100
AcDbSpline
 70
8
 71
3
 72
8
 73
4
 74
0
 40
0
 40
0
 40
0
 40
0
 40
1
 40
1
 40
1
 40
1
 10
6.903072
 20
9.102990
 30
0.0
 10
6.912059
 20
9.089857
 30
0.0
 10
6.920354
 20
9.083290
 30
0.0
 10
6.927959
 20
9.083290
 30
0.0
  0
SPLINE
  5
183
100
AcDbEntity
  8
Layer_1
 62
7
100
AcDbSpline
 70
8
 71
3
 72
8
 73
4
 74
0
 40
0
 40
0
 40
0
 40
0
 40
1
 40
1
 40
1
 40
1
 10
6.927959
 20
9.083290
 30
0.0
 10
6.936254
 20
9.083290
 30
0.0
 10
6.959067
 20
9.097457
 30
0.0
 10
6.996398
 20
9.125790
 30
0.0
  0
LWPOLYLINE
  5
184
100
AcDbEntity
  8
Layer_1
 62
7
100
AcDbPolyline
 90
5
 70
0
 10
6.401186
 20
10.079810
 30
0.0
 10
6.401186
 20
9.722060
 30
0.0
 10
6.710199
 20
10.021740
 30
0.0
 10
6.920701
 20
9.789460
 30
0.0
 10
6.680127
 20
9.578960
 30
0.0
  0
SPLINE
  5
185
100
AcDbEntity
  8
Layer_1
 62
7
100
AcDbSpline
 70
8
 71
3
 72
8
 73
4
 74
0
 40
0
 40
0
 40
0
 40
0
 40
1
 40
1
 40
1
 40
1
 10
6.774489
 20
8.916310
 30
0.0
 10
6.746146
 20
8.945310
 30
0.0
 10
6.725061
 20
8.976077
 30
0.0
 10
6.711235
 20
9.008610
 30
0.0
  0
SPLINE
  5
186
100
AcDbEntity
  8
Layer_1
 62
7
100
AcDbSpline
 70
8
 71
3
 72
8
 73
4
 74
0
 40
0
 40
0
 40
0
 40
0
 40
1
 40
1
 40
1
 40
1
 10
6.711235
 20
9.008610
 30
0.0
 10
6.697409
 20
9.041077
 30
0.0
 10
6.687040
 20
9.088430
 30
0.0
 10
6.680126
 20
9.150670
 30
0.0
  0
LWPOLYLINE
  5
187
100
AcDbEntity
  8
Layer_1
 62
7
100
AcDbPolyline
 90
3
 70
0
 10
6.996398
 20
9.125790
 30
0.0
 10
7.016100
 20
9.092590
 30
0.0
 10
6.774489
 20
8.916310
 30
0.0
  0
SPLINE
  5
188
100
AcDbEntity
  8
Layer_1
 62
7
100
AcDbSpline
 70
8
 71
3
 72
8
 73
4
 74
0
 40
0
 40
0
 40
0
 40
0
 40
1
 40
1
 40
1
 40
1
 10
6.386668
 20
8.916320
 30
0.0
 10
6.344498
 20
8.956453
 30
0.0
 10
6.303711
 20
8.987920
 30
0.0
 10
6.264307
 20
9.010720
 30
0.0
  0
SPLINE
  5
189
100
AcDbEntity
  8
Layer_1
 62
7
100
AcDbSpline
 70
8
 71
3
 72
8
 73
4
 74
0
 40
0
 40
0
 40
0
 40
0
 40
1
 40
1
 40
1
 40
1
 10
6.264307
 20
9.010720
 30
0.0
 10
6.225593
 20
9.033520
 30
0.0
 10
6.177202
 20
9.054253
 30
0.0
 10
6.119133
 20
9.072920
 30
0.0
  0
LWPOLYLINE
  5
18a
100
AcDbEntity
  8
Layer_1
 62
7
100
AcDbPolyline
 90
2
 70
0
 10
6.680126
 20
9.150670
 30
0.0
 10
6.386668
 20
8.916320
 30
0.0
  0
SPLINE
  5
18b
100
AcDbEntity
  8
Layer_1
 62
7
100
AcDbSpline
 70
8
 71
3
 72
8
 73
4
 74
0
 40
0
 40
0
 40
0
 40
0
 40
1
 40
1
 40
1
 40
1
 10
6.119133
 20
9.092620
 30
0.0
 10
6.150933
 20
9.114087
 30
0.0
 10
6.171326
 20
9.136220
 30
0.0
 10
6.180313
 20
9.159020
 30
0.0
  0
SPLINE
  5
18c
100
AcDbEntity
  8
Layer_1
 62
7
100
AcDbSpline
 70
8
 71
3
 72
8
 73
4
 74
0
 40
0
 40
0
 40
0
 40
0
 40
1
 40
1
 40
1
 40
1
 10
6.180313
 20
9.159020
 30
0.0
 10
6.189299
 20
9.182553
 30
0.0
 10
6.193793
 20
9.240970
 30
0.0
 10
6.193793
 20
9.334270
 30
0.0
  0
LWPOLYLINE
  5
18d
100
AcDbEntity
  8
Layer_1
 62
7
100
AcDbPolyline
 90
2
 70
0
 10
6.119133
 20
9.072920
 30
0.0
 10
6.119133
 20
9.092620
 30
0.0
  0
SPLINE
  5
18e
100
AcDbEntity
  8
Layer_1
 62
7
100
AcDbSpline
 70
8
 71
3
 72
8
 73
4
 74
0
 40
0
 40
0
 40
0
 40
0
 40
1
 40
1
 40
1
 40
1
 10
6.193793
 20
10.088130
 30
0.0
 10
6.193793
 20
10.147597
 30
0.0
 10
6.191026
 20
10.189077
 30
0.0
 10
6.185493
 20
10.212570
 30
0.0
  0
SPLINE
  5
18f
100
AcDbEntity
  8
Layer_1
 62
7
100
AcDbSpline
 70
8
 71
3
 72
8
 73
4
 74
0
 40
0
 40
0
 40
0
 40
0
 40
1
 40
1
 40
1
 40
1
 10
6.185493
 20
10.212570
 30
0.0
 10
6.177889
 20
10.247170
 30
0.0
 10
6.166482
 20
10.273770
 30
0.0
 10
6.151273
 20
10.292370
 30
0.0
  0
SPLINE
  5
190
100
AcDbEntity
  8
Layer_1
 62
7
100
AcDbSpline
 70
8
 71
3
 72
8
 73
4
 74
0
 40
0
 40
0
 40
0
 40
0
 40
1
 40
1
 40
1
 40
1
 10
6.151273
 20
10.292370
 30
0.0
 10
6.136755
 20
10.311703
 30
0.0
 10
6.112905
 20
10.329337
 30
0.0
 10
6.079723
 20
10.345270
 30
0.0
  0
LWPOLYLINE
  5
191
100
AcDbEntity
  8
Layer_1
 62
7
100
AcDbPolyline
 90
2
 70
0
 10
6.193793
 20
9.334270
 30
0.0
 10
6.193793
 20
10.088130
 30
0.0
  0
SPLINE
  5
192
100
AcDbEntity
  8
Layer_1
 62
7
100
AcDbSpline
 70
8
 71
3
 72
8
 73
4
 74
0
 40
0
 40
0
 40
0
 40
0
 40
1
 40
1
 40
1
 40
1
 10
6.095277
 20
10.375370
 30
0.0
 10
6.136755
 20
10.360170
 30
0.0
 10
6.167863
 20
10.346003
 30
0.0
 10
6.188603
 20
10.332870
 30
0.0
  0
SPLINE
  5
193
100
AcDbEntity
  8
Layer_1
 62
7
100
AcDbSpline
 70
8
 71
3
 72
8
 73
4
 74
0
 40
0
 40
0
 40
0
 40
0
 40
1
 40
1
 40
1
 40
1
 10
6.188603
 20
10.332870
 30
0.0
 10
6.210033
 20
10.320403
 30
0.0
 10
6.236303
 20
10.299670
 30
0.0
 10
6.267412
 20
10.270670
 30
0.0
  0
SPLINE
  5
194
100
AcDbEntity
  8
Layer_1
 62
7
100
AcDbSpline
 70
8
 71
3
 72
8
 73
4
 74
0
 40
0
 40
0
 40
0
 40
0
 40
1
 40
1
 40
1
 40
1
 10
6.267412
 20
10.270670
 30
0.0
 10
6.312346
 20
10.313537
 30
0.0
 10
6.354862
 20
10.344637
 30
0.0
 10
6.394957
 20
10.363970
 30
0.0
  0
SPLINE
  5
195
100
AcDbEntity
  8
Layer_1
 62
7
100
AcDbSpline
 70
8
 71
3
 72
8
 73
4
 74
0
 40
0
 40
0
 40
0
 40
0
 40
1
 40
1
 40
1
 40
1
 10
6.394957
 20
10.363970
 30
0.0
 10
6.435744
 20
10.384037
 30
0.0
 10
6.482061
 20
10.396837
 30
0.0
 10
6.533910
 20
10.402370
 30
0.0
  0
LWPOLYLINE
  5
196
100
AcDbEntity
  8
Layer_1
 62
7
100
AcDbPolyline
 90
2
 70
0
 10
6.079723
 20
10.345270
 30
0.0
 10
6.095277
 20
10.375370
 30
0.0
  0
LWPOLYLINE
  5
197
100
AcDbEntity
  8
Layer_1
 62
7
100
AcDbPolyline
 90
1
 70
1
 10
6.533910
 20
10.402370
 30
0.0
  0
LWPOLYLINE
  5
198
100
AcDbEntity
  8
Layer_1
 62
7
100
AcDbPolyline
 90
4
 70
1
 10
6.588875
 20
9.850680
 30
0.0
 10
6.401186
 20
9.669210
 30
0.0
 10
6.401186
 20
9.392340
 30
0.0
 10
6.742345
 20
9.683730
 30
0.0
  0
SPLINE
  5
199
100
AcDbEntity
  8
Layer_1
 62
7
100
AcDbSpline
 70
8
 71
3
 72
8
 73
4
 74
0
 40
0
 40
0
 40
0
 40
0
 40
1
 40
1
 40
1
 40
1
 10
6.674943
 20
9.198460
 30
0.0
 10
6.656969
 20
9.314600
 30
0.0
 10
6.606504
 20
9.397213
 30
0.0
 10
6.523547
 20
9.446300
 30
0.0
  0
LWPOLYLINE
  5
19a
100
AcDbEntity
  8
Layer_1
 62
7
100
AcDbPolyline
 90
4
 70
0
 10
6.401186
 20
9.338420
 30
0.0
 10
6.401186
 20
9.159030
 30
0.0
 10
6.523547
 20
9.074030
 30
0.0
 10
6.674943
 20
9.198460
 30
0.0
  0
LWPOLYLINE
  5
19b
100
AcDbEntity
  8
Layer_1
 62
7
100
AcDbPolyline
 90
2
 70
0
 10
6.523547
 20
9.446300
 30
0.0
 10
6.401186
 20
9.338420
 30
0.0
  0
SPLINE
  5
19c
100
AcDbEntity
  8
Layer_1
 62
7
100
AcDbSpline
 70
8
 71
3
 72
8
 73
4
 74
0
 40
0
 40
0
 40
0
 40
0
 40
1
 40
1
 40
1
 40
1
 10
7.493101
 20
8.916390
 30
0.0
 10
7.424662
 20
8.953057
 30
0.0
 10
7.368321
 20
8.979323
 30
0.0
 10
7.324077
 20
8.995190
 30
0.0
  0
SPLINE
  5
19d
100
AcDbEntity
  8
Layer_1
 62
7
100
AcDbSpline
 70
8
 71
3
 72
8
 73
4
 74
0
 40
0
 40
0
 40
0
 40
0
 40
1
 40
1
 40
1
 40
1
 10
7.324077
 20
8.995190
 30
0.0
 10
7.279834
 20
9.011123
 30
0.0
 10
7.216925
 20
9.027723
 30
0.0
 10
7.135351
 20
9.044990
 30
0.0
  0
LWPOLYLINE
  5
19e
100
AcDbEntity
  8
Layer_1
 62
7
100
AcDbPolyline
 90
8
 70
0
 10
7.575021
 20
10.021780
 30
0.0
 10
7.867442
 20
9.680620
 30
0.0
 10
7.402886
 20
9.355010
 30
0.0
 10
7.402886
 20
9.166290
 30
0.0
 10
7.643460
 20
9.070890
 30
0.0
 10
7.806262
 20
9.181840
 30
0.0
 10
7.829075
 20
9.150740
 30
0.0
 10
7.493101
 20
8.916390
 30
0.0
  0
SPLINE
  5
19f
100
AcDbEntity
  8
Layer_1
 62
7
100
AcDbSpline
 70
8
 71
3
 72
8
 73
4
 74
0
 40
0
 40
0
 40
0
 40
0
 40
1
 40
1
 40
1
 40
1
 10
7.135351
 20
9.070890
 30
0.0
 10
7.158856
 20
9.084690
 30
0.0
 10
7.174410
 20
9.101623
 30
0.0
 10
7.182014
 20
9.121690
 30
0.0
  0
SPLINE
  5
1a0
100
AcDbEntity
  8
Layer_1
 62
7
100
AcDbSpline
 70
8
 71
3
 72
8
 73
4
 74
0
 40
0
 40
0
 40
0
 40
0
 40
1
 40
1
 40
1
 40
1
 10
7.182014
 20
9.121690
 30
0.0
 10
7.190309
 20
9.142423
 30
0.0
 10
7.194457
 20
9.186667
 30
0.0
 10
7.194457
 20
9.254420
 30
0.0
  0
LWPOLYLINE
  5
1a1
100
AcDbEntity
  8
Layer_1
 62
7
100
AcDbPolyline
 90
2
 70
0
 10
7.135351
 20
9.044990
 30
0.0
 10
7.135351
 20
9.070890
 30
0.0
  0
SPLINE
  5
1a2
100
AcDbEntity
  8
Layer_1
 62
7
100
AcDbSpline
 70
8
 71
3
 72
8
 73
4
 74
0
 40
0
 40
0
 40
0
 40
0
 40
1
 40
1
 40
1
 40
1
 10
7.194457
 20
9.847560
 30
0.0
 10
7.259440
 20
9.871093
 30
0.0
 10
7.313362
 20
9.892527
 30
0.0
 10
7.356222
 20
9.911860
 30
0.0
  0
SPLINE
  5
1a3
100
AcDbEntity
  8
Layer_1
 62
7
100
AcDbSpline
 70
8
 71
3
 72
8
 73
4
 74
0
 40
0
 40
0
 40
0
 40
0
 40
1
 40
1
 40
1
 40
1
 10
7.356222
 20
9.911860
 30
0.0
 10
7.387331
 20
9.926393
 30
0.0
 10
7.460264
 20
9.963033
 30
0.0
 10
7.575020
 20
10.021780
 30
0.0
  0
LWPOLYLINE
  5
1a4
100
AcDbEntity
  8
Layer_1
 62
7
100
AcDbPolyline
 90
2
 70
0
 10
7.194457
 20
9.254420
 30
0.0
 10
7.194457
 20
9.847560
 30
0.0
  0
LWPOLYLINE
  5
1a5
100
AcDbEntity
  8
Layer_1
 62
7
100
AcDbPolyline
 90
1
 70
1
 10
7.575020
 20
10.021780
 30
0.0
  0
LWPOLYLINE
  5
1a6
100
AcDbEntity
  8
Layer_1
 62
7
100
AcDbPolyline
 90
4
 70
1
 10
7.417403
 20
9.902530
 30
0.0
 10
7.402886
 20
9.895530
 30
0.0
 10
7.402886
 20
9.425790
 30
0.0
 10
7.675606
 20
9.616590
 30
0.0
  0
SPLINE
  5
1a7
100
AcDbEntity
  8
Layer_1
 62
7
100
AcDbSpline
 70
8
 71
3
 72
8
 73
4
 74
0
 40
0
 40
0
 40
0
 40
0
 40
1
 40
1
 40
1
 40
1
 10
8.168160
 20
10.021780
 30
0.0
 10
8.227612
 20
9.981713
 30
0.0
 10
8.265979
 20
9.946800
 30
0.0
 10
8.283262
 20
9.917040
 30
0.0
  0
SPLINE
  5
1a8
100
AcDbEntity
  8
Layer_1
 62
7
100
AcDbSpline
 70
8
 71
3
 72
8
 73
4
 74
0
 40
0
 40
0
 40
0
 40
0
 40
1
 40
1
 40
1
 40
1
 10
8.283262
 20
9.917040
 30
0.0
 10
8.301236
 20
9.887307
 30
0.0
 10
8.310223
 20
9.846520
 30
0.0
 10
8.310223
 20
9.794680
 30
0.0
  0
LWPOLYLINE
  5
1a9
100
AcDbEntity
  8
Layer_1
 62
7
100
AcDbPolyline
 90
2
 70
0
 10
7.950399
 20
9.840310
 30
0.0
 10
8.168160
 20
10.021780
 30
0.0
  0
SPLINE
  5
1aa
100
AcDbEntity
  8
Layer_1
 62
7
100
AcDbSpline
 70
8
 71
3
 72
8
 73
4
 74
0
 40
0
 40
0
 40
0
 40
0
 40
1
 40
1
 40
1
 40
1
 10
8.624421
 20
10.021790
 30
0.0
 10
8.731573
 20
9.909103
 30
0.0
 10
8.785149
 20
9.788470
 30
0.0
 10
8.785149
 20
9.659890
 30
0.0
  0
SPLINE
  5
1ab
100
AcDbEntity
  8
Layer_1
 62
7
100
AcDbSpline
 70
8
 71
3
 72
8
 73
4
 74
0
 40
0
 40
0
 40
0
 40
0
 40
1
 40
1
 40
1
 40
1
 10
8.785149
 20
9.659890
 30
0.0
 10
8.785149
 20
9.590757
 30
0.0
 10
8.767521
 20
9.521627
 30
0.0
 10
8.732264
 20
9.452500
 30
0.0
  0
SPLINE
  5
1ac
100
AcDbEntity
  8
Layer_1
 62
7
100
AcDbSpline
 70
8
 71
3
 72
8
 73
4
 74
0
 40
0
 40
0
 40
0
 40
0
 40
1
 40
1
 40
1
 40
1
 10
8.732264
 20
9.452500
 30
0.0
 10
8.697007
 20
9.384060
 30
0.0
 10
8.641703
 20
9.318730
 30
0.0
 10
8.566351
 20
9.256510
 30
0.0
  0
SPLINE
  5
1ad
100
AcDbEntity
  8
Layer_1
 62
7
100
AcDbSpline
 70
8
 71
3
 72
8
 73
4
 74
0
 40
0
 40
0
 40
0
 40
0
 40
1
 40
1
 40
1
 40
1
 10
8.566351
 20
9.256510
 30
0.0
 10
8.490999
 20
9.194977
 30
0.0
 10
8.369329
 20
9.114097
 30
0.0
 10
8.201342
 20
9.013870
 30
0.0
  0
SPLINE
  5
1ae
100
AcDbEntity
  8
Layer_1
 62
7
100
AcDbSpline
 70
8
 71
3
 72
8
 73
4
 74
0
 40
0
 40
0
 40
0
 40
0
 40
1
 40
1
 40
1
 40
1
 10
8.201342
 20
9.013870
 30
0.0
 10
8.128064
 20
8.969603
 30
0.0
 10
8.084166
 20
8.941603
 30
0.0
 10
8.069649
 20
8.929870
 30
0.0
  0
SPLINE
  5
1af
100
AcDbEntity
  8
Layer_1
 62
7
100
AcDbSpline
 70
8
 71
3
 72
8
 73
4
 74
0
 40
0
 40
0
 40
0
 40
0
 40
1
 40
1
 40
1
 40
1
 10
8.069649
 20
8.929870
 30
0.0
 10
8.038540
 20
8.905670
 30
0.0
 10
8.016418
 20
8.882170
 30
0.0
 10
8.003284
 20
8.859370
 30
0.0
  0
SPLINE
  5
1b0
100
AcDbEntity
  8
Layer_1
 62
7
100
AcDbSpline
 70
8
 71
3
 72
8
 73
4
 74
0
 40
0
 40
0
 40
0
 40
0
 40
1
 40
1
 40
1
 40
1
 10
8.003284
 20
8.859370
 30
0.0
 10
7.993606
 20
8.842770
 30
0.0
 10
7.988767
 20
8.824103
 30
0.0
 10
7.988767
 20
8.803370
 30
0.0
  0
SPLINE
  5
1b1
100
AcDbEntity
  8
Layer_1
 62
7
100
AcDbSpline
 70
8
 71
3
 72
8
 73
4
 74
0
 40
0
 40
0
 40
0
 40
0
 40
1
 40
1
 40
1
 40
1
 10
7.988767
 20
8.803370
 30
0.0
 10
7.988767
 20
8.768103
 30
0.0
 10
8.006049
 20
8.735603
 30
0.0
 10
8.040615
 20
8.705870
 30
0.0
  0
SPLINE
  5
1b2
100
AcDbEntity
  8
Layer_1
 62
7
100
AcDbSpline
 70
8
 71
3
 72
8
 73
4
 74
0
 40
0
 40
0
 40
0
 40
0
 40
1
 40
1
 40
1
 40
1
 10
8.040615
 20
8.705870
 30
0.0
 10
8.075871
 20
8.675470
 30
0.0
 10
8.122189
 20
8.660270
 30
0.0
 10
8.179567
 20
8.660270
 30
0.0
  0
SPLINE
  5
1b3
100
AcDbEntity
  8
Layer_1
 62
7
100
AcDbSpline
 70
8
 71
3
 72
8
 73
4
 74
0
 40
0
 40
0
 40
0
 40
0
 40
1
 40
1
 40
1
 40
1
 10
8.179567
 20
8.660270
 30
0.0
 10
8.221045
 20
8.660270
 30
0.0
 10
8.255264
 20
8.667537
 30
0.0
 10
8.282226
 20
8.682070
 30
0.0
  0
SPLINE
  5
1b4
100
AcDbEntity
  8
Layer_1
 62
7
100
AcDbSpline
 70
8
 71
3
 72
8
 73
4
 74
0
 40
0
 40
0
 40
0
 40
0
 40
1
 40
1
 40
1
 40
1
 10
8.282226
 20
8.682070
 30
0.0
 10
8.295360
 20
8.689003
 30
0.0
 10
8.308149
 20
8.703870
 30
0.0
 10
8.320593
 20
8.726670
 30
0.0
  0
SPLINE
  5
1b5
100
AcDbEntity
  8
Layer_1
 62
7
100
AcDbSpline
 70
8
 71
3
 72
8
 73
4
 74
0
 40
0
 40
0
 40
0
 40
0
 40
1
 40
1
 40
1
 40
1
 10
8.320593
 20
8.726670
 30
0.0
 10
8.333036
 20
8.748803
 30
0.0
 10
8.343751
 20
8.763303
 30
0.0
 10
8.352739
 20
8.770170
 30
0.0
  0
SPLINE
  5
1b6
100
AcDbEntity
  8
Layer_1
 62
7
100
AcDbSpline
 70
8
 71
3
 72
8
 73
4
 74
0
 40
0
 40
0
 40
0
 40
0
 40
1
 40
1
 40
1
 40
1
 10
8.352739
 20
8.770170
 30
0.0
 10
8.361725
 20
8.777103
 30
0.0
 10
8.372441
 20
8.780570
 30
0.0
 10
8.384885
 20
8.780570
 30
0.0
  0
SPLINE
  5
1b7
100
AcDbEntity
  8
Layer_1
 62
7
100
AcDbSpline
 70
8
 71
3
 72
8
 73
4
 74
0
 40
0
 40
0
 40
0
 40
0
 40
1
 40
1
 40
1
 40
1
 10
8.384885
 20
8.780570
 30
0.0
 10
8.398711
 20
8.780570
 30
0.0
 10
8.409772
 20
8.776770
 30
0.0
 10
8.418068
 20
8.769170
 30
0.0
  0
SPLINE
  5
1b8
100
AcDbEntity
  8
Layer_1
 62
7
100
AcDbSpline
 70
8
 71
3
 72
8
 73
4
 74
0
 40
0
 40
0
 40
0
 40
0
 40
1
 40
1
 40
1
 40
1
 10
8.418068
 20
8.769170
 30
0.0
 10
8.426363
 20
8.761570
 30
0.0
 10
8.430511
 20
8.751537
 30
0.0
 10
8.430511
 20
8.739070
 30
0.0
  0
SPLINE
  5
1b9
100
AcDbEntity
  8
Layer_1
 62
7
100
AcDbSpline
 70
8
 71
3
 72
8
 73
4
 74
0
 40
0
 40
0
 40
0
 40
0
 40
1
 40
1
 40
1
 40
1
 10
8.430511
 20
8.739070
 30
0.0
 10
8.430511
 20
8.716937
 30
0.0
 10
8.414265
 20
8.695170
 30
0.0
 10
8.381774
 20
8.673770
 30
0.0
  0
SPLINE
  5
1ba
100
AcDbEntity
  8
Layer_1
 62
7
100
AcDbSpline
 70
8
 71
3
 72
8
 73
4
 74
0
 40
0
 40
0
 40
0
 40
0
 40
1
 40
1
 40
1
 40
1
 10
8.381774
 20
8.673770
 30
0.0
 10
8.332000
 20
8.639237
 30
0.0
 10
8.269091
 20
8.621970
 30
0.0
 10
8.193048
 20
8.621970
 30
0.0
  0
SPLINE
  5
1bb
100
AcDbEntity
  8
Layer_1
 62
7
100
AcDbSpline
 70
8
 71
3
 72
8
 73
4
 74
0
 40
0
 40
0
 40
0
 40
0
 40
1
 40
1
 40
1
 40
1
 10
8.193048
 20
8.621970
 30
0.0
 10
8.113548
 20
8.621970
 30
0.0
 10
8.052367
 20
8.640970
 30
0.0
 10
8.009506
 20
8.678970
 30
0.0
  0
SPLINE
  5
1bc
100
AcDbEntity
  8
Layer_1
 62
7
100
AcDbSpline
 70
8
 71
3
 72
8
 73
4
 74
0
 40
0
 40
0
 40
0
 40
0
 40
1
 40
1
 40
1
 40
1
 10
8.009506
 20
8.678970
 30
0.0
 10
7.966646
 20
8.716303
 30
0.0
 10
7.945215
 20
8.760893
 30
0.0
 10
7.945215
 20
8.812740
 30
0.0
  0
SPLINE
  5
1bd
100
AcDbEntity
  8
Layer_1
 62
7
100
AcDbSpline
 70
8
 71
3
 72
8
 73
4
 74
0
 40
0
 40
0
 40
0
 40
0
 40
1
 40
1
 40
1
 40
1
 10
7.945215
 20
8.812740
 30
0.0
 10
7.945215
 20
8.863873
 30
0.0
 10
7.969065
 20
8.913647
 30
0.0
 10
8.016765
 20
8.962060
 30
0.0
  0
SPLINE
  5
1be
100
AcDbEntity
  8
Layer_1
 62
7
100
AcDbSpline
 70
8
 71
3
 72
8
 73
4
 74
0
 40
0
 40
0
 40
0
 40
0
 40
1
 40
1
 40
1
 40
1
 10
8.016765
 20
8.962060
 30
0.0
 10
8.039579
 20
8.985527
 30
0.0
 10
8.053750
 20
9.002127
 30
0.0
 10
8.059280
 20
9.011860
 30
0.0
  0
SPLINE
  5
1bf
100
AcDbEntity
  8
Layer_1
 62
7
100
AcDbSpline
 70
8
 71
3
 72
8
 73
4
 74
0
 40
0
 40
0
 40
0
 40
0
 40
1
 40
1
 40
1
 40
1
 10
8.059280
 20
9.011860
 30
0.0
 10
8.074489
 20
9.038127
 30
0.0
 10
8.084859
 20
9.062327
 30
0.0
 10
8.090389
 20
9.084460
 30
0.0
  0
SPLINE
  5
1c0
100
AcDbEntity
  8
Layer_1
 62
7
100
AcDbSpline
 70
8
 71
3
 72
8
 73
4
 74
0
 40
0
 40
0
 40
0
 40
0
 40
1
 40
1
 40
1
 40
1
 10
8.090389
 20
9.084460
 30
0.0
 10
8.095923
 20
9.107260
 30
0.0
 10
8.098689
 20
9.139060
 30
0.0
 10
8.098689
 20
9.179860
 30
0.0
  0
LWPOLYLINE
  5
1c1
100
AcDbEntity
  8
Layer_1
 62
7
100
AcDbPolyline
 90
3
 70
0
 10
8.310223
 20
9.794680
 30
0.0
 10
8.310223
 20
9.771880
 30
0.0
 10
8.624421
 20
10.021790
 30
0.0
  0
SPLINE
  5
1c2
100
AcDbEntity
  8
Layer_1
 62
7
100
AcDbSpline
 70
8
 71
3
 72
8
 73
4
 74
0
 40
0
 40
0
 40
0
 40
0
 40
1
 40
1
 40
1
 40
1
 10
8.098689
 20
9.675520
 30
0.0
 10
8.098689
 20
9.744653
 30
0.0
 10
8.090739
 20
9.791663
 30
0.0
 10
8.074839
 20
9.816550
 30
0.0
  0
SPLINE
  5
1c3
100
AcDbEntity
  8
Layer_1
 62
7
100
AcDbSpline
 70
8
 71
3
 72
8
 73
4
 74
0
 40
0
 40
0
 40
0
 40
0
 40
1
 40
1
 40
1
 40
1
 10
8.074839
 20
9.816550
 30
0.0
 10
8.062396
 20
9.835883
 30
0.0
 10
8.048916
 20
9.845550
 30
0.0
 10
8.034398
 20
9.845550
 30
0.0
  0
SPLINE
  5
1c4
100
AcDbEntity
  8
Layer_1
 62
7
100
AcDbSpline
 70
8
 71
3
 72
8
 73
4
 74
0
 40
0
 40
0
 40
0
 40
0
 40
1
 40
1
 40
1
 40
1
 10
8.034398
 20
9.845550
 30
0.0
 10
8.022646
 20
9.845550
 30
0.0
 10
8.007438
 20
9.836550
 30
0.0
 10
7.988772
 20
9.818550
 30
0.0
  0
SPLINE
  5
1c5
100
AcDbEntity
  8
Layer_1
 62
7
100
AcDbSpline
 70
8
 71
3
 72
8
 73
4
 74
0
 40
0
 40
0
 40
0
 40
0
 40
1
 40
1
 40
1
 40
1
 10
7.988772
 20
9.818550
 30
0.0
 10
7.986006
 20
9.815883
 30
0.0
 10
7.981512
 20
9.811750
 30
0.0
 10
7.975291
 20
9.806150
 30
0.0
  0
LWPOLYLINE
  5
1c6
100
AcDbEntity
  8
Layer_1
 62
7
100
AcDbPolyline
 90
2
 70
0
 10
8.098689
 20
9.179860
 30
0.0
 10
8.098689
 20
9.675520
 30
0.0
  0
LWPOLYLINE
  5
1c7
100
AcDbEntity
  8
Layer_1
 62
7
100
AcDbPolyline
 90
2
 70
0
 10
7.975291
 20
9.806150
 30
0.0
 10
7.950399
 20
9.840310
 30
0.0
  0
SPLINE
  5
1c8
100
AcDbEntity
  8
Layer_1
 62
7
100
AcDbSpline
 70
8
 71
3
 72
8
 73
4
 74
0
 40
0
 40
0
 40
0
 40
0
 40
1
 40
1
 40
1
 40
1
 10
8.310223
 20
9.135180
 30
0.0
 10
8.407697
 20
9.205693
 30
0.0
 10
8.476827
 20
9.278970
 30
0.0
 10
8.517614
 20
9.355010
 30
0.0
  0
SPLINE
  5
1c9
100
AcDbEntity
  8
Layer_1
 62
7
100
AcDbSpline
 70
8
 71
3
 72
8
 73
4
 74
0
 40
0
 40
0
 40
0
 40
0
 40
1
 40
1
 40
1
 40
1
 10
8.517614
 20
9.355010
 30
0.0
 10
8.559092
 20
9.431750
 30
0.0
 10
8.579831
 20
9.504683
 30
0.0
 10
8.579831
 20
9.573810
 30
0.0
  0
SPLINE
  5
1ca
100
AcDbEntity
  8
Layer_1
 62
7
100
AcDbSpline
 70
8
 71
3
 72
8
 73
4
 74
0
 40
0
 40
0
 40
0
 40
0
 40
1
 40
1
 40
1
 40
1
 10
8.579831
 20
9.573810
 30
0.0
 10
8.579831
 20
9.667137
 30
0.0
 10
8.541809
 20
9.758390
 30
0.0
 10
8.465766
 20
9.847570
 30
0.0
  0
LWPOLYLINE
  5
1cb
100
AcDbEntity
  8
Layer_1
 62
7
100
AcDbPolyline
 90
2
 70
0
 10
8.310223
 20
9.724170
 30
0.0
 10
8.310223
 20
9.135180
 30
0.0
  0
LWPOLYLINE
  5
1cc
100
AcDbEntity
  8
Layer_1
 62
7
100
AcDbPolyline
 90
2
 70
0
 10
8.465766
 20
9.847570
 30
0.0
 10
8.310223
 20
9.724170
 30
0.0
  0
SPLINE
  5
1cd
100
AcDbEntity
  8
Layer_1
 62
7
100
AcDbSpline
 70
8
 71
3
 72
8
 73
4
 74
0
 40
0
 40
0
 40
0
 40
0
 40
1
 40
1
 40
1
 40
1
 10
10.401764
 20
10.050810
 30
0.0
 10
10.404497
 20
10.010743
 30
0.0
 10
10.405864
 20
9.977217
 30
0.0
 10
10.405864
 20
9.950230
 30
0.0
  0
SPLINE
  5
1ce
100
AcDbEntity
  8
Layer_1
 62
7
100
AcDbSpline
 70
8
 71
3
 72
8
 73
4
 74
0
 40
0
 40
0
 40
0
 40
0
 40
1
 40
1
 40
1
 40
1
 10
10.405864
 20
9.950230
 30
0.0
 10
10.405864
 20
9.836857
 30
0.0
 10
10.374754
 20
9.740073
 30
0.0
 10
10.312534
 20
9.659880
 30
0.0
  0
SPLINE
  5
1cf
100
AcDbEntity
  8
Layer_1
 62
7
100
AcDbSpline
 70
8
 71
3
 72
8
 73
4
 74
0
 40
0
 40
0
 40
0
 40
0
 40
1
 40
1
 40
1
 40
1
 10
10.312534
 20
9.659880
 30
0.0
 10
10.250314
 20
9.579687
 30
0.0
 10
10.111016
 20
9.478410
 30
0.0
 10
9.894640
 20
9.356050
 30
0.0
  0
SPLINE
  5
1d0
100
AcDbEntity
  8
Layer_1
 62
7
100
AcDbSpline
 70
8
 71
3
 72
8
 73
4
 74
0
 40
0
 40
0
 40
0
 40
0
 40
1
 40
1
 40
1
 40
1
 10
9.894640
 20
9.356050
 30
0.0
 10
9.797166
 20
9.300717
 30
0.0
 10
9.728381
 20
9.256127
 30
0.0
 10
9.688286
 20
9.222280
 30
0.0
  0
SPLINE
  5
1d1
100
AcDbEntity
  8
Layer_1
 62
7
100
AcDbSpline
 70
8
 71
3
 72
8
 73
4
 74
0
 40
0
 40
0
 40
0
 40
0
 40
1
 40
1
 40
1
 40
1
 10
9.688286
 20
9.222280
 30
0.0
 10
9.648881
 20
9.189080
 30
0.0
 10
9.613279
 20
9.148293
 30
0.0
 10
9.581479
 20
9.099920
 30
0.0
  0
SPLINE
  5
1d2
100
AcDbEntity
  8
Layer_1
 62
7
100
AcDbSpline
 70
8
 71
3
 72
8
 73
4
 74
0
 40
0
 40
0
 40
0
 40
0
 40
1
 40
1
 40
1
 40
1
 10
9.581479
 20
9.099920
 30
0.0
 10
9.665818
 20
9.137253
 30
0.0
 10
9.739097
 20
9.163187
 30
0.0
 10
9.801314
 20
9.177720
 30
0.0
  0
SPLINE
  5
1d3
100
AcDbEntity
  8
Layer_1
 62
7
100
AcDbSpline
 70
8
 71
3
 72
8
 73
4
 74
0
 40
0
 40
0
 40
0
 40
0
 40
1
 40
1
 40
1
 40
1
 10
9.801314
 20
9.177720
 30
0.0
 10
9.864223
 20
9.192920
 30
0.0
 10
9.926094
 20
9.200520
 30
0.0
 10
9.986929
 20
9.200520
 30
0.0
  0
SPLINE
  5
1d4
100
AcDbEntity
  8
Layer_1
 62
7
100
AcDbSpline
 70
8
 71
3
 72
8
 73
4
 74
0
 40
0
 40
0
 40
0
 40
0
 40
1
 40
1
 40
1
 40
1
 10
9.986929
 20
9.200520
 30
0.0
 10
10.038777
 20
9.200520
 30
0.0
 10
10.091662
 20
9.196720
 30
0.0
 10
10.145584
 20
9.189120
 30
0.0
  0
SPLINE
  5
1d5
100
AcDbEntity
  8
Layer_1
 62
7
100
AcDbSpline
 70
8
 71
3
 72
8
 73
4
 74
0
 40
0
 40
0
 40
0
 40
0
 40
1
 40
1
 40
1
 40
1
 10
10.145584
 20
9.189120
 30
0.0
 10
10.200197
 20
9.181520
 30
0.0
 10
10.241675
 20
9.173920
 30
0.0
 10
10.270018
 20
9.166320
 30
0.0
  0
LWPOLYLINE
  5
1d6
100
AcDbEntity
  8
Layer_1
 62
7
100
AcDbPolyline
 90
3
 70
0
 10
9.470577
 20
10.028000
 30
0.0
 10
9.901951
 20
10.351530
 30
0.0
 10
10.401764
 20
10.050810
 30
0.0
  0
SPLINE
  5
1d7
100
AcDbEntity
  8
Layer_1
 62
7
100
AcDbSpline
 70
8
 71
3
 72
8
 73
4
 74
0
 40
0
 40
0
 40
0
 40
0
 40
1
 40
1
 40
1
 40
1
 10
10.250316
 20
8.916360
 30
0.0
 10
10.142473
 20
8.953693
 30
0.0
 10
10.068849
 20
8.976160
 30
0.0
 10
10.029444
 20
8.983760
 30
0.0
  0
SPLINE
  5
1d8
100
AcDbEntity
  8
Layer_1
 62
7
100
AcDbSpline
 70
8
 71
3
 72
8
 73
4
 74
0
 40
0
 40
0
 40
0
 40
0
 40
1
 40
1
 40
1
 40
1
 10
10.029444
 20
8.983760
 30
0.0
 10
9.967227
 20
8.996893
 30
0.0
 10
9.908466
 20
9.003460
 30
0.0
 10
9.853162
 20
9.003460
 30
0.0
  0
SPLINE
  5
1d9
100
AcDbEntity
  8
Layer_1
 62
7
100
AcDbSpline
 70
8
 71
3
 72
8
 73
4
 74
0
 40
0
 40
0
 40
0
 40
0
 40
1
 40
1
 40
1
 40
1
 10
9.853162
 20
9.003460
 30
0.0
 10
9.748084
 20
9.003460
 30
0.0
 10
9.633673
 20
8.979593
 30
0.0
 10
9.509929
 20
8.931860
 30
0.0
  0
SPLINE
  5
1da
100
AcDbEntity
  8
Layer_1
 62
7
100
AcDbSpline
 70
8
 71
3
 72
8
 73
4
 74
0
 40
0
 40
0
 40
0
 40
0
 40
1
 40
1
 40
1
 40
1
 10
9.509929
 20
8.931860
 30
0.0
 10
9.483660
 20
8.921460
 30
0.0
 10
9.468451
 20
8.916260
 30
0.0
 10
9.464303
 20
8.916260
 30
0.0
  0
SPLINE
  5
1db
100
AcDbEntity
  8
Layer_1
 62
7
100
AcDbSpline
 70
8
 71
3
 72
8
 73
4
 74
0
 40
0
 40
0
 40
0
 40
0
 40
1
 40
1
 40
1
 40
1
 10
9.464303
 20
8.916260
 30
0.0
 10
9.460157
 20
8.916260
 30
0.0
 10
9.457047
 20
8.917593
 30
0.0
 10
9.454973
 20
8.920260
 30
0.0
  0
SPLINE
  5
1dc
100
AcDbEntity
  8
Layer_1
 62
7
100
AcDbSpline
 70
8
 71
3
 72
8
 73
4
 74
0
 40
0
 40
0
 40
0
 40
0
 40
1
 40
1
 40
1
 40
1
 10
9.454973
 20
8.920260
 30
0.0
 10
9.452207
 20
8.923593
 30
0.0
 10
9.450823
 20
8.928793
 30
0.0
 10
9.450823
 20
8.935860
 30
0.0
  0
SPLINE
  5
1dd
100
AcDbEntity
  8
Layer_1
 62
7
100
AcDbSpline
 70
8
 71
3
 72
8
 73
4
 74
0
 40
0
 40
0
 40
0
 40
0
 40
1
 40
1
 40
1
 40
1
 10
9.450823
 20
8.935860
 30
0.0
 10
9.450823
 20
8.969060
 30
0.0
 10
9.462230
 20
9.009503
 30
0.0
 10
9.485043
 20
9.057190
 30
0.0
  0
SPLINE
  5
1de
100
AcDbEntity
  8
Layer_1
 62
7
100
AcDbSpline
 70
8
 71
3
 72
8
 73
4
 74
0
 40
0
 40
0
 40
0
 40
0
 40
1
 40
1
 40
1
 40
1
 10
9.485043
 20
9.057190
 30
0.0
 10
9.515461
 20
9.122190
 30
0.0
 10
9.559358
 20
9.186133
 30
0.0
 10
9.616737
 20
9.249020
 30
0.0
  0
SPLINE
  5
1df
100
AcDbEntity
  8
Layer_1
 62
7
100
AcDbSpline
 70
8
 71
3
 72
8
 73
4
 74
0
 40
0
 40
0
 40
0
 40
0
 40
1
 40
1
 40
1
 40
1
 10
9.616737
 20
9.249020
 30
0.0
 10
9.657523
 20
9.294620
 30
0.0
 10
9.723889
 20
9.354767
 30
0.0
 10
9.815832
 20
9.429460
 30
0.0
  0
SPLINE
  5
1e0
100
AcDbEntity
  8
Layer_1
 62
7
100
AcDbSpline
 70
8
 71
3
 72
8
 73
4
 74
0
 40
0
 40
0
 40
0
 40
0
 40
1
 40
1
 40
1
 40
1
 10
9.815832
 20
9.429460
 30
0.0
 10
9.907776
 20
9.504120
 30
0.0
 10
9.971376
 20
9.560807
 30
0.0
 10
10.006632
 20
9.599520
 30
0.0
  0
SPLINE
  5
1e1
100
AcDbEntity
  8
Layer_1
 62
7
100
AcDbSpline
 70
8
 71
3
 72
8
 73
4
 74
0
 40
0
 40
0
 40
0
 40
0
 40
1
 40
1
 40
1
 40
1
 10
10.006632
 20
9.599520
 30
0.0
 10
10.055712
 20
9.654120
 30
0.0
 10
10.093388
 20
9.711150
 30
0.0
 10
10.119661
 20
9.770610
 30
0.0
  0
SPLINE
  5
1e2
100
AcDbEntity
  8
Layer_1
 62
7
100
AcDbSpline
 70
8
 71
3
 72
8
 73
4
 74
0
 40
0
 40
0
 40
0
 40
0
 40
1
 40
1
 40
1
 40
1
 10
10.119661
 20
9.770610
 30
0.0
 10
10.146621
 20
9.830077
 30
0.0
 10
10.160101
 20
9.893333
 30
0.0
 10
10.160101
 20
9.960380
 30
0.0
  0
SPLINE
  5
1e3
100
AcDbEntity
  8
Layer_1
 62
7
100
AcDbSpline
 70
8
 71
3
 72
8
 73
4
 74
0
 40
0
 40
0
 40
0
 40
0
 40
1
 40
1
 40
1
 40
1
 10
10.160101
 20
9.960380
 30
0.0
 10
10.160101
 20
10.060620
 30
0.0
 10
10.122771
 20
10.143230
 30
0.0
 10
10.048110
 20
10.208210
 30
0.0
  0
LWPOLYLINE
  5
1e4
100
AcDbEntity
  8
Layer_1
 62
7
100
AcDbPolyline
 90
3
 70
0
 10
10.270018
 20
9.166320
 30
0.0
 10
10.430747
 20
9.114420
 30
0.0
 10
10.250316
 20
8.916360
 30
0.0
  0
SPLINE
  5
1e5
100
AcDbEntity
  8
Layer_1
 62
7
100
AcDbSpline
 70
8
 71
3
 72
8
 73
4
 74
0
 40
0
 40
0
 40
0
 40
0
 40
1
 40
1
 40
1
 40
1
 10
11.005273
 20
10.351530
 30
0.0
 10
11.162199
 20
10.297597
 30
0.0
 10
11.284214
 20
10.211183
 30
0.0
 10
11.371318
 20
10.092290
 30
0.0
  0
SPLINE
  5
1e6
100
AcDbEntity
  8
Layer_1
 62
7
100
AcDbSpline
 70
8
 71
3
 72
8
 73
4
 74
0
 40
0
 40
0
 40
0
 40
0
 40
1
 40
1
 40
1
 40
1
 10
11.371318
 20
10.092290
 30
0.0
 10
11.458423
 20
9.974077
 30
0.0
 10
11.501975
 20
9.834780
 30
0.0
 10
11.501975
 20
9.674400
 30
0.0
  0
SPLINE
  5
1e7
100
AcDbEntity
  8
Layer_1
 62
7
100
AcDbSpline
 70
8
 71
3
 72
8
 73
4
 74
0
 40
0
 40
0
 40
0
 40
0
 40
1
 40
1
 40
1
 40
1
 10
11.501975
 20
9.674400
 30
0.0
 10
11.501975
 20
9.516780
 30
0.0
 10
11.461188
 20
9.373333
 30
0.0
 10
11.379614
 20
9.244060
 30
0.0
  0
SPLINE
  5
1e8
100
AcDbEntity
  8
Layer_1
 62
7
100
AcDbSpline
 70
8
 71
3
 72
8
 73
4
 74
0
 40
0
 40
0
 40
0
 40
0
 40
1
 40
1
 40
1
 40
1
 10
11.379614
 20
9.244060
 30
0.0
 10
11.298731
 20
9.115480
 30
0.0
 10
11.188814
 20
9.006253
 30
0.0
 10
11.049862
 20
8.916380
 30
0.0
  0
SPLINE
  5
1e9
100
AcDbEntity
  8
Layer_1
 62
7
100
AcDbSpline
 70
8
 71
3
 72
8
 73
4
 74
0
 40
0
 40
0
 40
0
 40
0
 40
1
 40
1
 40
1
 40
1
 10
11.049862
 20
8.916380
 30
0.0
 10
10.951005
 20
8.939913
 30
0.0
 10
10.861136
 20
8.984157
 30
0.0
 10
10.780253
 20
9.049110
 30
0.0
  0
SPLINE
  5
1ea
100
AcDbEntity
  8
Layer_1
 62
7
100
AcDbSpline
 70
8
 71
3
 72
8
 73
4
 74
0
 40
0
 40
0
 40
0
 40
0
 40
1
 40
1
 40
1
 40
1
 10
10.780253
 20
9.049110
 30
0.0
 10
10.700062
 20
9.114110
 30
0.0
 10
10.638536
 20
9.194993
 30
0.0
 10
10.595675
 20
9.291760
 30
0.0
  0
SPLINE
  5
1eb
100
AcDbEntity
  8
Layer_1
 62
7
100
AcDbSpline
 70
8
 71
3
 72
8
 73
4
 74
0
 40
0
 40
0
 40
0
 40
0
 40
1
 40
1
 40
1
 40
1
 10
10.595675
 20
9.291760
 30
0.0
 10
10.553508
 20
9.388540
 30
0.0
 10
10.532425
 20
9.489123
 30
0.0
 10
10.532425
 20
9.593510
 30
0.0
  0
SPLINE
  5
1ec
100
AcDbEntity
  8
Layer_1
 62
7
100
AcDbSpline
 70
8
 71
3
 72
8
 73
4
 74
0
 40
0
 40
0
 40
0
 40
0
 40
1
 40
1
 40
1
 40
1
 10
10.532425
 20
9.593510
 30
0.0
 10
10.532425
 20
9.742837
 30
0.0
 10
10.575631
 20
9.888013
 30
0.0
 10
10.662044
 20
10.029040
 30
0.0
  0
SPLINE
  5
1ed
100
AcDbEntity
  8
Layer_1
 62
7
100
AcDbSpline
 70
8
 71
3
 72
8
 73
4
 74
0
 40
0
 40
0
 40
0
 40
0
 40
1
 40
1
 40
1
 40
1
 10
10.662044
 20
10.029040
 30
0.0
 10
10.748457
 20
10.170067
 30
0.0
 10
10.862868
 20
10.277563
 30
0.0
 10
11.005277
 20
10.351530
 30
0.0
  0
LWPOLYLINE
  5
1ee
100
AcDbEntity
  8
Layer_1
 62
7
100
AcDbPolyline
 90
3
 70
0
 10
10.048110
 20
10.208210
 30
0.0
 10
9.617773
 20
9.878460
 30
0.0
 10
9.470577
 20
10.028000
 30
0.0
  0
SPLINE
  5
1ef
100
AcDbEntity
  8
Layer_1
 62
7
100
AcDbSpline
 70
8
 71
3
 72
8
 73
4
 74
0
 40
0
 40
0
 40
0
 40
0
 40
1
 40
1
 40
1
 40
1
 10
10.824842
 20
10.160730
 30
0.0
 10
10.729442
 20
10.052197
 30
0.0
 10
10.681742
 20
9.921540
 30
0.0
 10
10.681742
 20
9.768760
 30
0.0
  0
SPLINE
  5
1f0
100
AcDbEntity
  8
Layer_1
 62
7
100
AcDbSpline
 70
8
 71
3
 72
8
 73
4
 74
0
 40
0
 40
0
 40
0
 40
0
 40
1
 40
1
 40
1
 40
1
 10
10.681742
 20
9.768760
 30
0.0
 10
10.681742
 20
9.660913
 30
0.0
 10
10.704902
 20
9.559290
 30
0.0
 10
10.751222
 20
9.463890
 30
0.0
  0
SPLINE
  5
1f1
100
AcDbEntity
  8
Layer_1
 62
7
100
AcDbSpline
 70
8
 71
3
 72
8
 73
4
 74
0
 40
0
 40
0
 40
0
 40
0
 40
1
 40
1
 40
1
 40
1
 10
10.751222
 20
9.463890
 30
0.0
 10
10.797542
 20
9.368490
 30
0.0
 10
10.863561
 20
9.289683
 30
0.0
 10
10.949280
 20
9.227470
 30
0.0
  0
SPLINE
  5
1f2
100
AcDbEntity
  8
Layer_1
 62
7
100
AcDbSpline
 70
8
 71
3
 72
8
 73
4
 74
0
 40
0
 40
0
 40
0
 40
0
 40
1
 40
1
 40
1
 40
1
 10
10.949280
 20
9.227470
 30
0.0
 10
11.035693
 20
9.165270
 30
0.0
 10
11.123835
 20
9.127593
 30
0.0
 10
11.213704
 20
9.114440
 30
0.0
  0
SPLINE
  5
1f3
100
AcDbEntity
  8
Layer_1
 62
7
100
AcDbSpline
 70
8
 71
3
 72
8
 73
4
 74
0
 40
0
 40
0
 40
0
 40
0
 40
1
 40
1
 40
1
 40
1
 10
11.213704
 20
9.114440
 30
0.0
 10
11.263477
 20
9.182880
 30
0.0
 10
11.298734
 20
9.246827
 30
0.0
 10
11.319474
 20
9.306280
 30
0.0
  0
SPLINE
  5
1f4
100
AcDbEntity
  8
Layer_1
 62
7
100
AcDbSpline
 70
8
 71
3
 72
8
 73
4
 74
0
 40
0
 40
0
 40
0
 40
0
 40
1
 40
1
 40
1
 40
1
 10
11.319474
 20
9.306280
 30
0.0
 10
11.340901
 20
9.366413
 30
0.0
 10
11.351614
 20
9.432777
 30
0.0
 10
11.351614
 20
9.505370
 30
0.0
  0
SPLINE
  5
1f5
100
AcDbEntity
  8
Layer_1
 62
7
100
AcDbSpline
 70
8
 71
3
 72
8
 73
4
 74
0
 40
0
 40
0
 40
0
 40
0
 40
1
 40
1
 40
1
 40
1
 10
11.351614
 20
9.505370
 30
0.0
 10
11.351614
 20
9.604917
 30
0.0
 10
11.331221
 20
9.699627
 30
0.0
 10
11.290434
 20
9.789500
 30
0.0
  0
SPLINE
  5
1f6
100
AcDbEntity
  8
Layer_1
 62
7
100
AcDbSpline
 70
8
 71
3
 72
8
 73
4
 74
0
 40
0
 40
0
 40
0
 40
0
 40
1
 40
1
 40
1
 40
1
 10
11.290434
 20
9.789500
 30
0.0
 10
11.250341
 20
9.880060
 30
0.0
 10
11.189852
 20
9.956450
 30
0.0
 10
11.108967
 20
10.018670
 30
0.0
  0
SPLINE
  5
1f7
100
AcDbEntity
  8
Layer_1
 62
7
100
AcDbSpline
 70
8
 71
3
 72
8
 73
4
 74
0
 40
0
 40
0
 40
0
 40
0
 40
1
 40
1
 40
1
 40
1
 10
11.108967
 20
10.018670
 30
0.0
 10
11.028084
 20
10.081603
 30
0.0
 10
10.933375
 20
10.128957
 30
0.0
 10
10.824840
 20
10.160730
 30
0.0
  0
LWPOLYLINE
  5
1f8
100
AcDbEntity
  8
Layer_1
 62
7
100
AcDbPolyline
 90
1
 70
1
 10
11.005277
 20
10.351530
 30
0.0
  0
LWPOLYLINE
  5
1f9
100
AcDbEntity
  8
Layer_1
 62
7
100
AcDbPolyline
 90
1
 70
1
 10
10.824840
 20
10.160730
 30
0.0
  0
SPLINE
  5
1fa
100
AcDbEntity
  8
Layer_1
 62
7
100
AcDbSpline
 70
8
 71
3
 72
8
 73
4
 74
0
 40
0
 40
0
 40
0
 40
0
 40
1
 40
1
 40
1
 40
1
 10
12.020453
 20
10.351530
 30
0.0
 10
12.083360
 20
10.325930
 30
0.0
 10
12.129677
 20
10.291363
 30
0.0
 10
12.159405
 20
10.247830
 30
0.0
  0
SPLINE
  5
1fb
100
AcDbEntity
  8
Layer_1
 62
7
100
AcDbSpline
 70
8
 71
3
 72
8
 73
4
 74
0
 40
0
 40
0
 40
0
 40
0
 40
1
 40
1
 40
1
 40
1
 10
12.159405
 20
10.247830
 30
0.0
 10
12.189825
 20
10.204297
 30
0.0
 10
12.205035
 20
10.147957
 30
0.0
 10
12.205035
 20
10.078810
 30
0.0
  0
LWPOLYLINE
  5
1fc
100
AcDbEntity
  8
Layer_1
 62
7
100
AcDbPolyline
 90
2
 70
0
 10
11.761214
 20
10.133770
 30
0.0
 10
12.020453
 20
10.351530
 30
0.0
  0
SPLINE
  5
1fd
100
AcDbEntity
  8
Layer_1
 62
7
100
AcDbSpline
 70
8
 71
3
 72
8
 73
4
 74
0
 40
0
 40
0
 40
0
 40
0
 40
1
 40
1
 40
1
 40
1
 10
12.205035
 20
9.210880
 30
0.0
 10
12.205035
 20
9.186680
 30
0.0
 10
12.209182
 20
9.168713
 30
0.0
 10
12.217475
 20
9.156980
 30
0.0
  0
SPLINE
  5
1fe
100
AcDbEntity
  8
Layer_1
 62
7
100
AcDbSpline
 70
8
 71
3
 72
8
 73
4
 74
0
 40
0
 40
0
 40
0
 40
0
 40
1
 40
1
 40
1
 40
1
 10
12.217475
 20
9.156980
 30
0.0
 10
12.231995
 20
9.135513
 30
0.0
 10
12.258955
 20
9.110280
 30
0.0
 10
12.298355
 20
9.081280
 30
0.0
  0
LWPOLYLINE
  5
1ff
100
AcDbEntity
  8
Layer_1
 62
7
100
AcDbPolyline
 90
2
 70
0
 10
12.205035
 20
10.078810
 30
0.0
 10
12.205035
 20
9.210880
 30
0.0
  0
SPLINE
  5
200
100
AcDbEntity
  8
Layer_1
 62
7
100
AcDbSpline
 70
8
 71
3
 72
8
 73
4
 74
0
 40
0
 40
0
 40
0
 40
0
 40
1
 40
1
 40
1
 40
1
 10
11.988307
 20
9.950230
 30
0.0
 10
11.988307
 20
10.002763
 30
0.0
 10
11.984850
 20
10.039057
 30
0.0
 10
11.977937
 20
10.059110
 30
0.0
  0
SPLINE
  5
201
100
AcDbEntity
  8
Layer_1
 62
7
100
AcDbSpline
 70
8
 71
3
 72
8
 73
4
 74
0
 40
0
 40
0
 40
0
 40
0
 40
1
 40
1
 40
1
 40
1
 10
11.977937
 20
10.059110
 30
0.0
 10
11.966877
 20
10.092310
 30
0.0
 10
11.950287
 20
10.118577
 30
0.0
 10
11.928167
 20
10.137910
 30
0.0
  0
SPLINE
  5
202
100
AcDbEntity
  8
Layer_1
 62
7
100
AcDbSpline
 70
8
 71
3
 72
8
 73
4
 74
0
 40
0
 40
0
 40
0
 40
0
 40
1
 40
1
 40
1
 40
1
 10
11.928167
 20
10.137910
 30
0.0
 10
11.912267
 20
10.151043
 30
0.0
 10
11.898440
 20
10.157610
 30
0.0
 10
11.886687
 20
10.157610
 30
0.0
  0
SPLINE
  5
203
100
AcDbEntity
  8
Layer_1
 62
7
100
AcDbSpline
 70
8
 71
3
 72
8
 73
4
 74
0
 40
0
 40
0
 40
0
 40
0
 40
1
 40
1
 40
1
 40
1
 10
11.886687
 20
10.157610
 30
0.0
 10
11.872860
 20
10.157610
 30
0.0
 10
11.853850
 20
10.147577
 30
0.0
 10
11.829657
 20
10.127510
 30
0.0
  0
SPLINE
  5
204
100
AcDbEntity
  8
Layer_1
 62
7
100
AcDbSpline
 70
8
 71
3
 72
8
 73
4
 74
0
 40
0
 40
0
 40
0
 40
0
 40
1
 40
1
 40
1
 40
1
 10
11.829657
 20
10.127510
 30
0.0
 10
11.815137
 20
10.115777
 30
0.0
 10
11.802694
 20
10.106110
 30
0.0
 10
11.792327
 20
10.098510
 30
0.0
  0
LWPOLYLINE
  5
205
100
AcDbEntity
  8
Layer_1
 62
7
100
AcDbPolyline
 90
7
 70
0
 10
12.298355
 20
9.081280
 30
0.0
 10
12.411384
 20
9.173580
 30
0.0
 10
12.444564
 20
9.138280
 30
0.0
 10
12.170808
 20
8.916370
 30
0.0
 10
11.918827
 20
9.081250
 30
0.0
 10
11.988307
 20
9.173550
 30
0.0
 10
11.988307
 20
9.950230
 30
0.0
  0
LWPOLYLINE
  5
206
100
AcDbEntity
  8
Layer_1
 62
7
100
AcDbPolyline
 90
2
 70
0
 10
11.792327
 20
10.098510
 30
0.0
 10
11.761214
 20
10.133770
 30
0.0
  0
SPLINE
  5
207
100
AcDbEntity
  8
Layer_1
 62
7
100
AcDbSpline
 70
8
 71
3
 72
8
 73
4
 74
0
 40
0
 40
0
 40
0
 40
0
 40
1
 40
1
 40
1
 40
1
 10
13.310427
 20
9.104070
 30
0.0
 10
13.362967
 20
9.183570
 30
0.0
 10
13.399606
 20
9.257193
 30
0.0
 10
13.420344
 20
9.324940
 30
0.0
  0
SPLINE
  5
208
100
AcDbEntity
  8
Layer_1
 62
7
100
AcDbSpline
 70
8
 71
3
 72
8
 73
4
 74
0
 40
0
 40
0
 40
0
 40
0
 40
1
 40
1
 40
1
 40
1
 10
13.420344
 20
9.324940
 30
0.0
 10
13.451451
 20
9.425873
 30
0.0
 10
13.467004
 20
9.523347
 30
0.0
 10
13.467004
 20
9.617360
 30
0.0
  0
SPLINE
  5
209
100
AcDbEntity
  8
Layer_1
 62
7
100
AcDbSpline
 70
8
 71
3
 72
8
 73
4
 74
0
 40
0
 40
0
 40
0
 40
0
 40
1
 40
1
 40
1
 40
1
 10
13.467004
 20
9.617360
 30
0.0
 10
13.467004
 20
9.638827
 30
0.0
 10
13.464571
 20
9.666493
 30
0.0
 10
13.459704
 20
9.700360
 30
0.0
  0
LWPOLYLINE
  5
20a
100
AcDbEntity
  8
Layer_1
 62
7
100
AcDbPolyline
 90
3
 70
0
 10
12.779505
 20
9.095780
 30
0.0
 10
12.925716
 20
9.280350
 30
0.0
 10
13.310427
 20
9.104070
 30
0.0
  0
SPLINE
  5
20b
100
AcDbEntity
  8
Layer_1
 62
7
100
AcDbSpline
 70
8
 71
3
 72
8
 73
4
 74
0
 40
0
 40
0
 40
0
 40
0
 40
1
 40
1
 40
1
 40
1
 10
12.989962
 20
9.382020
 30
0.0
 10
12.918067
 20
9.417287
 30
0.0
 10
12.868984
 20
9.445620
 30
0.0
 10
12.842715
 20
9.467020
 30
0.0
  0
SPLINE
  5
20c
100
AcDbEntity
  8
Layer_1
 62
7
100
AcDbSpline
 70
8
 71
3
 72
8
 73
4
 74
0
 40
0
 40
0
 40
0
 40
0
 40
1
 40
1
 40
1
 40
1
 10
12.842715
 20
9.467020
 30
0.0
 10
12.800548
 20
9.500887
 30
0.0
 10
12.765292
 20
9.543747
 30
0.0
 10
12.736945
 20
9.595600
 30
0.0
  0
SPLINE
  5
20d
100
AcDbEntity
  8
Layer_1
 62
7
100
AcDbSpline
 70
8
 71
3
 72
8
 73
4
 74
0
 40
0
 40
0
 40
0
 40
0
 40
1
 40
1
 40
1
 40
1
 10
12.736945
 20
9.595600
 30
0.0
 10
12.709292
 20
9.647467
 30
0.0
 10
12.695465
 20
9.704500
 30
0.0
 10
12.695465
 20
9.766700
 30
0.0
  0
SPLINE
  5
20e
100
AcDbEntity
  8
Layer_1
 62
7
100
AcDbSpline
 70
8
 71
3
 72
8
 73
4
 74
0
 40
0
 40
0
 40
0
 40
0
 40
1
 40
1
 40
1
 40
1
 10
12.695465
 20
9.766700
 30
0.0
 10
12.695465
 20
9.868320
 30
0.0
 10
12.732450
 20
9.965447
 30
0.0
 10
12.806419
 20
10.058080
 30
0.0
  0
SPLINE
  5
20f
100
AcDbEntity
  8
Layer_1
 62
7
100
AcDbSpline
 70
8
 71
3
 72
8
 73
4
 74
0
 40
0
 40
0
 40
0
 40
0
 40
1
 40
1
 40
1
 40
1
 10
12.806419
 20
10.058080
 30
0.0
 10
12.896980
 20
10.170760
 30
0.0
 10
13.017267
 20
10.268580
 30
0.0
 10
13.167280
 20
10.351540
 30
0.0
  0
SPLINE
  5
210
100
AcDbEntity
  8
Layer_1
 62
7
100
AcDbSpline
 70
8
 71
3
 72
8
 73
4
 74
0
 40
0
 40
0
 40
0
 40
0
 40
1
 40
1
 40
1
 40
1
 10
13.167280
 20
10.351540
 30
0.0
 10
13.326971
 20
10.305940
 30
0.0
 10
13.449332
 20
10.227823
 30
0.0
 10
13.534363
 20
10.117190
 30
0.0
  0
SPLINE
  5
211
100
AcDbEntity
  8
Layer_1
 62
7
100
AcDbSpline
 70
8
 71
3
 72
8
 73
4
 74
0
 40
0
 40
0
 40
0
 40
0
 40
1
 40
1
 40
1
 40
1
 10
13.534363
 20
10.117190
 30
0.0
 10
13.620084
 20
10.007270
 30
0.0
 10
13.662945
 20
9.874883
 30
0.0
 10
13.662945
 20
9.720030
 30
0.0
  0
SPLINE
  5
212
100
AcDbEntity
  8
Layer_1
 62
7
100
AcDbSpline
 70
8
 71
3
 72
8
 73
4
 74
0
 40
0
 40
0
 40
0
 40
0
 40
1
 40
1
 40
1
 40
1
 10
13.662945
 20
9.720030
 30
0.0
 10
13.662945
 20
9.603203
 30
0.0
 10
13.641168
 20
9.495360
 30
0.0
 10
13.597615
 20
9.396500
 30
0.0
  0
SPLINE
  5
213
100
AcDbEntity
  8
Layer_1
 62
7
100
AcDbSpline
 70
8
 71
3
 72
8
 73
4
 74
0
 40
0
 40
0
 40
0
 40
0
 40
1
 40
1
 40
1
 40
1
 10
13.597615
 20
9.396500
 30
0.0
 10
13.564435
 20
9.321147
 30
0.0
 10
13.509131
 20
9.240957
 30
0.0
 10
13.431702
 20
9.155930
 30
0.0
  0
SPLINE
  5
214
100
AcDbEntity
  8
Layer_1
 62
7
100
AcDbSpline
 70
8
 71
3
 72
8
 73
4
 74
0
 40
0
 40
0
 40
0
 40
0
 40
1
 40
1
 40
1
 40
1
 10
13.431702
 20
9.155930
 30
0.0
 10
13.354967
 20
9.071590
 30
0.0
 10
13.266826
 20
8.991743
 30
0.0
 10
13.167278
 20
8.916390
 30
0.0
  0
LWPOLYLINE
  5
215
100
AcDbEntity
  8
Layer_1
 62
7
100
AcDbPolyline
 90
2
 70
0
 10
13.459704
 20
9.700360
 30
0.0
 10
12.989962
 20
9.382020
 30
0.0
  0
SPLINE
  5
216
100
AcDbEntity
  8
Layer_1
 62
7
100
AcDbSpline
 70
8
 71
3
 72
8
 73
4
 74
0
 40
0
 40
0
 40
0
 40
0
 40
1
 40
1
 40
1
 40
1
 10
13.450416
 20
9.750090
 30
0.0
 10
13.397183
 20
9.968543
 30
0.0
 10
13.238183
 20
10.104733
 30
0.0
 10
12.973416
 20
10.158660
 30
0.0
  0
SPLINE
  5
217
100
AcDbEntity
  8
Layer_1
 62
7
100
AcDbSpline
 70
8
 71
3
 72
8
 73
4
 74
0
 40
0
 40
0
 40
0
 40
0
 40
1
 40
1
 40
1
 40
1
 10
12.973416
 20
10.158660
 30
0.0
 10
12.939543
 20
10.118527
 30
0.0
 10
12.913963
 20
10.078430
 30
0.0
 10
12.896676
 20
10.038370
 30
0.0
  0
SPLINE
  5
218
100
AcDbEntity
  8
Layer_1
 62
7
100
AcDbSpline
 70
8
 71
3
 72
8
 73
4
 74
0
 40
0
 40
0
 40
0
 40
0
 40
1
 40
1
 40
1
 40
1
 10
12.896676
 20
10.038370
 30
0.0
 10
12.879396
 20
9.998303
 30
0.0
 10
12.870756
 20
9.957860
 30
0.0
 10
12.870756
 20
9.917040
 30
0.0
  0
SPLINE
  5
219
100
AcDbEntity
  8
Layer_1
 62
7
100
AcDbSpline
 70
8
 71
3
 72
8
 73
4
 74
0
 40
0
 40
0
 40
0
 40
0
 40
1
 40
1
 40
1
 40
1
 10
12.870756
 20
9.917040
 30
0.0
 10
12.870756
 20
9.867973
 30
0.0
 10
12.882853
 20
9.819583
 30
0.0
 10
12.907046
 20
9.771870
 30
0.0
  0
SPLINE
  5
21a
100
AcDbEntity
  8
Layer_1
 62
7
100
AcDbSpline
 70
8
 71
3
 72
8
 73
4
 74
0
 40
0
 40
0
 40
0
 40
0
 40
1
 40
1
 40
1
 40
1
 10
12.907046
 20
9.771870
 30
0.0
 10
12.931933
 20
9.724137
 30
0.0
 10
12.967880
 20
9.683350
 30
0.0
 10
13.014889
 20
9.649510
 30
0.0
  0
SPLINE
  5
21b
100
AcDbEntity
  8
Layer_1
 62
7
100
AcDbSpline
 70
8
 71
3
 72
8
 73
4
 74
0
 40
0
 40
0
 40
0
 40
0
 40
1
 40
1
 40
1
 40
1
 10
13.014889
 20
9.649510
 30
0.0
 10
13.050142
 20
9.623910
 30
0.0
 10
13.106138
 20
9.597277
 30
0.0
 10
13.182876
 20
9.569610
 30
0.0
  0
LWPOLYLINE
  5
21c
100
AcDbEntity
  8
Layer_1
 62
7
100
AcDbPolyline
 90
2
 70
0
 10
13.167278
 20
8.916390
 30
0.0
 10
12.779505
 20
9.095780
 30
0.0
  0
LWPOLYLINE
  5
21d
100
AcDbEntity
  8
Layer_1
 62
7
100
AcDbPolyline
 90
2
 70
0
 10
13.182876
 20
9.569610
 30
0.0
 10
13.450416
 20
9.750090
 30
0.0
  0
SPLINE
  5
21e
100
AcDbEntity
  8
Layer_1
 62
7
100
AcDbSpline
 70
8
 71
3
 72
8
 73
4
 74
0
 40
0
 40
0
 40
0
 40
0
 40
1
 40
1
 40
1
 40
1
 10
6.149993
 20
7.745320
 30
0.0
 10
6.161053
 20
7.710787
 30
0.0
 10
6.179373
 20
7.686253
 30
0.0
 10
6.204952
 20
7.671720
 30
0.0
  0
SPLINE
  5
21f
100
AcDbEntity
  8
Layer_1
 62
7
100
AcDbSpline
 70
8
 71
3
 72
8
 73
4
 74
0
 40
0
 40
0
 40
0
 40
0
 40
1
 40
1
 40
1
 40
1
 10
6.204952
 20
7.671720
 30
0.0
 10
6.238134
 20
7.652387
 30
0.0
 10
6.292056
 20
7.642720
 30
0.0
 10
6.366717
 20
7.642720
 30
0.0
  0
SPLINE
  5
220
100
AcDbEntity
  8
Layer_1
 62
7
100
AcDbSpline
 70
8
 71
3
 72
8
 73
4
 74
0
 40
0
 40
0
 40
0
 40
0
 40
1
 40
1
 40
1
 40
1
 10
6.366717
 20
7.642720
 30
0.0
 10
6.414417
 20
7.642720
 30
0.0
 10
6.565812
 20
7.647553
 30
0.0
 10
6.820904
 20
7.657220
 30
0.0
  0
SPLINE
  5
221
100
AcDbEntity
  8
Layer_1
 62
7
100
AcDbSpline
 70
8
 71
3
 72
8
 73
4
 74
0
 40
0
 40
0
 40
0
 40
0
 40
1
 40
1
 40
1
 40
1
 10
6.820904
 20
7.657220
 30
0.0
 10
6.975064
 20
7.663220
 30
0.0
 10
7.071156
 20
7.666220
 30
0.0
 10
7.109178
 20
7.666220
 30
0.0
  0
SPLINE
  5
222
100
AcDbEntity
  8
Layer_1
 62
7
100
AcDbSpline
 70
8
 71
3
 72
8
 73
4
 74
0
 40
0
 40
0
 40
0
 40
0
 40
1
 40
1
 40
1
 40
1
 10
7.109178
 20
7.666220
 30
0.0
 10
7.223934
 20
7.666220
 30
0.0
 10
7.321408
 20
7.646520
 30
0.0
 10
7.401599
 20
7.607120
 30
0.0
  0
SPLINE
  5
223
100
AcDbEntity
  8
Layer_1
 62
7
100
AcDbSpline
 70
8
 71
3
 72
8
 73
4
 74
0
 40
0
 40
0
 40
0
 40
0
 40
1
 40
1
 40
1
 40
1
 10
7.401599
 20
7.607120
 30
0.0
 10
7.482482
 20
7.567720
 30
0.0
 10
7.548156
 20
7.507230
 30
0.0
 10
7.598621
 20
7.425650
 30
0.0
  0
SPLINE
  5
224
100
AcDbEntity
  8
Layer_1
 62
7
100
AcDbSpline
 70
8
 71
3
 72
8
 73
4
 74
0
 40
0
 40
0
 40
0
 40
0
 40
1
 40
1
 40
1
 40
1
 10
7.598621
 20
7.425650
 30
0.0
 10
7.649086
 20
7.344077
 30
0.0
 10
7.682615
 20
7.231740
 30
0.0
 10
7.699206
 20
7.088640
 30
0.0
  0
SPLINE
  5
225
100
AcDbEntity
  8
Layer_1
 62
7
100
AcDbSpline
 70
8
 71
3
 72
8
 73
4
 74
0
 40
0
 40
0
 40
0
 40
0
 40
1
 40
1
 40
1
 40
1
 10
7.699206
 20
7.088640
 30
0.0
 10
7.710958
 20
6.988400
 30
0.0
 10
7.720982
 20
6.767530
 30
0.0
 10
7.729278
 20
6.426030
 30
0.0
  0
SPLINE
  5
226
100
AcDbEntity
  8
Layer_1
 62
7
100
AcDbSpline
 70
8
 71
3
 72
8
 73
4
 74
0
 40
0
 40
0
 40
0
 40
0
 40
1
 40
1
 40
1
 40
1
 10
7.729278
 20
6.426030
 30
0.0
 10
7.594473
 20
6.340997
 30
0.0
 10
7.490778
 20
6.267370
 30
0.0
 10
7.418191
 20
6.205150
 30
0.0
  0
SPLINE
  5
227
100
AcDbEntity
  8
Layer_1
 62
7
100
AcDbSpline
 70
8
 71
3
 72
8
 73
4
 74
0
 40
0
 40
0
 40
0
 40
0
 40
1
 40
1
 40
1
 40
1
 10
7.418191
 20
6.205150
 30
0.0
 10
7.198356
 20
6.266683
 30
0.0
 10
7.004445
 20
6.297450
 30
0.0
 10
6.836458
 20
6.297450
 30
0.0
  0
SPLINE
  5
228
100
AcDbEntity
  8
Layer_1
 62
7
100
AcDbSpline
 70
8
 71
3
 72
8
 73
4
 74
0
 40
0
 40
0
 40
0
 40
0
 40
1
 40
1
 40
1
 40
1
 10
6.836458
 20
6.297450
 30
0.0
 10
6.722393
 20
6.297450
 30
0.0
 10
6.616623
 20
6.283617
 30
0.0
 10
6.519150
 20
6.255950
 30
0.0
  0
SPLINE
  5
229
100
AcDbEntity
  8
Layer_1
 62
7
100
AcDbSpline
 70
8
 71
3
 72
8
 73
4
 74
0
 40
0
 40
0
 40
0
 40
0
 40
1
 40
1
 40
1
 40
1
 10
6.519150
 20
6.255950
 30
0.0
 10
6.421676
 20
6.228950
 30
0.0
 10
6.318326
 20
6.185397
 30
0.0
 10
6.209100
 20
6.125290
 30
0.0
  0
LWPOLYLINE
  5
22a
100
AcDbEntity
  8
Layer_1
 62
7
100
AcDbPolyline
 90
2
 70
0
 10
6.101256
 20
7.745320
 30
0.0
 10
6.149993
 20
7.745320
 30
0.0
  0
SPLINE
  5
22b
100
AcDbEntity
  8
Layer_1
 62
7
100
AcDbSpline
 70
8
 71
3
 72
8
 73
4
 74
0
 40
0
 40
0
 40
0
 40
0
 40
1
 40
1
 40
1
 40
1
 10
6.179028
 20
6.164690
 30
0.0
 10
6.320745
 20
6.237970
 30
0.0
 10
6.445180
 20
6.312977
 30
0.0
 10
6.552332
 20
6.389710
 30
0.0
  0
SPLINE
  5
22c
100
AcDbEntity
  8
Layer_1
 62
7
100
AcDbSpline
 70
8
 71
3
 72
8
 73
4
 74
0
 40
0
 40
0
 40
0
 40
0
 40
1
 40
1
 40
1
 40
1
 10
6.552332
 20
6.389710
 30
0.0
 10
6.659484
 20
6.466443
 30
0.0
 10
6.729997
 20
6.534883
 30
0.0
 10
6.763871
 20
6.595030
 30
0.0
  0
SPLINE
  5
22d
100
AcDbEntity
  8
Layer_1
 62
7
100
AcDbSpline
 70
8
 71
3
 72
8
 73
4
 74
0
 40
0
 40
0
 40
0
 40
0
 40
1
 40
1
 40
1
 40
1
 10
6.763871
 20
6.595030
 30
0.0
 10
6.798436
 20
6.655897
 30
0.0
 10
6.815719
 20
6.732977
 30
0.0
 10
6.815719
 20
6.826270
 30
0.0
  0
SPLINE
  5
22e
100
AcDbEntity
  8
Layer_1
 62
7
100
AcDbSpline
 70
8
 71
3
 72
8
 73
4
 74
0
 40
0
 40
0
 40
0
 40
0
 40
1
 40
1
 40
1
 40
1
 10
6.815719
 20
6.826270
 30
0.0
 10
6.815719
 20
6.860137
 30
0.0
 10
6.815029
 20
6.910257
 30
0.0
 10
6.813649
 20
6.976630
 30
0.0
  0
SPLINE
  5
22f
100
AcDbEntity
  8
Layer_1
 62
7
100
AcDbSpline
 70
8
 71
3
 72
8
 73
4
 74
0
 40
0
 40
0
 40
0
 40
0
 40
1
 40
1
 40
1
 40
1
 10
6.813649
 20
6.976630
 30
0.0
 10
6.812269
 20
7.022963
 30
0.0
 10
6.811579
 20
7.071010
 30
0.0
 10
6.811579
 20
7.120770
 30
0.0
  0
SPLINE
  5
230
100
AcDbEntity
  8
Layer_1
 62
7
100
AcDbSpline
 70
8
 71
3
 72
8
 73
4
 74
0
 40
0
 40
0
 40
0
 40
0
 40
1
 40
1
 40
1
 40
1
 10
6.811579
 20
7.120770
 30
0.0
 10
6.811579
 20
7.208563
 30
0.0
 10
6.816418
 20
7.273200
 30
0.0
 10
6.826096
 20
7.314680
 30
0.0
  0
SPLINE
  5
231
100
AcDbEntity
  8
Layer_1
 62
7
100
AcDbSpline
 70
8
 71
3
 72
8
 73
4
 74
0
 40
0
 40
0
 40
0
 40
0
 40
1
 40
1
 40
1
 40
1
 10
6.826096
 20
7.314680
 30
0.0
 10
6.836465
 20
7.356147
 30
0.0
 10
6.857896
 20
7.403847
 30
0.0
 10
6.890387
 20
7.457780
 30
0.0
  0
LWPOLYLINE
  5
232
100
AcDbEntity
  8
Layer_1
 62
7
100
AcDbPolyline
 90
2
 70
0
 10
6.209100
 20
6.125290
 30
0.0
 10
6.179028
 20
6.164690
 30
0.0
  0
SPLINE
  5
233
100
AcDbEntity
  8
Layer_1
 62
7
100
AcDbSpline
 70
8
 71
3
 72
8
 73
4
 74
0
 40
0
 40
0
 40
0
 40
0
 40
1
 40
1
 40
1
 40
1
 10
6.863426
 20
7.457780
 30
0.0
 10
6.779087
 20
7.409380
 30
0.0
 10
6.722746
 20
7.365137
 30
0.0
 10
6.694402
 20
7.325050
 30
0.0
  0
SPLINE
  5
234
100
AcDbEntity
  8
Layer_1
 62
7
100
AcDbSpline
 70
8
 71
3
 72
8
 73
4
 74
0
 40
0
 40
0
 40
0
 40
0
 40
1
 40
1
 40
1
 40
1
 10
6.694402
 20
7.325050
 30
0.0
 10
6.666750
 20
7.285650
 30
0.0
 10
6.652924
 20
7.235183
 30
0.0
 10
6.652924
 20
7.173650
 30
0.0
  0
LWPOLYLINE
  5
235
100
AcDbEntity
  8
Layer_1
 62
7
100
AcDbPolyline
 90
2
 70
0
 10
6.890387
 20
7.457780
 30
0.0
 10
6.863426
 20
7.457780
 30
0.0
  0
SPLINE
  5
236
100
AcDbEntity
  8
Layer_1
 62
7
100
AcDbSpline
 70
8
 71
3
 72
8
 73
4
 74
0
 40
0
 40
0
 40
0
 40
0
 40
1
 40
1
 40
1
 40
1
 10
6.661224
 20
6.805530
 30
0.0
 10
6.661224
 20
6.707363
 30
0.0
 10
6.631844
 20
6.619223
 30
0.0
 10
6.573083
 20
6.541110
 30
0.0
  0
SPLINE
  5
237
100
AcDbEntity
  8
Layer_1
 62
7
100
AcDbSpline
 70
8
 71
3
 72
8
 73
4
 74
0
 40
0
 40
0
 40
0
 40
0
 40
1
 40
1
 40
1
 40
1
 10
6.573083
 20
6.541110
 30
0.0
 10
6.514322
 20
6.463683
 30
0.0
 10
6.373296
 20
6.351690
 30
0.0
 10
6.150005
 20
6.205130
 30
0.0
  0
LWPOLYLINE
  5
238
100
AcDbEntity
  8
Layer_1
 62
7
100
AcDbPolyline
 90
2
 70
0
 10
6.652924
 20
7.173650
 30
0.0
 10
6.661224
 20
6.805530
 30
0.0
  0
SPLINE
  5
239
100
AcDbEntity
  8
Layer_1
 62
7
100
AcDbSpline
 70
8
 71
3
 72
8
 73
4
 74
0
 40
0
 40
0
 40
0
 40
0
 40
1
 40
1
 40
1
 40
1
 10
6.119933
 20
6.245530
 30
0.0
 10
6.232616
 20
6.324337
 30
0.0
 10
6.306931
 20
6.388973
 30
0.0
 10
6.342879
 20
6.439440
 30
0.0
  0
SPLINE
  5
23a
100
AcDbEntity
  8
Layer_1
 62
7
100
AcDbSpline
 70
8
 71
3
 72
8
 73
4
 74
0
 40
0
 40
0
 40
0
 40
0
 40
1
 40
1
 40
1
 40
1
 10
6.342879
 20
6.439440
 30
0.0
 10
6.378827
 20
6.489907
 30
0.0
 10
6.396801
 20
6.542790
 30
0.0
 10
6.396801
 20
6.598090
 30
0.0
  0
SPLINE
  5
23b
100
AcDbEntity
  8
Layer_1
 62
7
100
AcDbSpline
 70
8
 71
3
 72
8
 73
4
 74
0
 40
0
 40
0
 40
0
 40
0
 40
1
 40
1
 40
1
 40
1
 10
6.396801
 20
6.598090
 30
0.0
 10
6.396801
 20
6.645823
 30
0.0
 10
6.381592
 20
6.686263
 30
0.0
 10
6.351175
 20
6.719410
 30
0.0
  0
SPLINE
  5
23c
100
AcDbEntity
  8
Layer_1
 62
7
100
AcDbSpline
 70
8
 71
3
 72
8
 73
4
 74
0
 40
0
 40
0
 40
0
 40
0
 40
1
 40
1
 40
1
 40
1
 10
6.351175
 20
6.719410
 30
0.0
 10
6.320757
 20
6.753277
 30
0.0
 10
6.287229
 20
6.770210
 30
0.0
 10
6.250590
 20
6.770210
 30
0.0
  0
SPLINE
  5
23d
100
AcDbEntity
  8
Layer_1
 62
7
100
AcDbSpline
 70
8
 71
3
 72
8
 73
4
 74
0
 40
0
 40
0
 40
0
 40
0
 40
1
 40
1
 40
1
 40
1
 10
6.250590
 20
6.770210
 30
0.0
 10
6.231925
 20
6.770210
 30
0.0
 10
6.214642
 20
6.765010
 30
0.0
 10
6.198742
 20
6.754610
 30
0.0
  0
SPLINE
  5
23e
100
AcDbEntity
  8
Layer_1
 62
7
100
AcDbSpline
 70
8
 71
3
 72
8
 73
4
 74
0
 40
0
 40
0
 40
0
 40
0
 40
1
 40
1
 40
1
 40
1
 10
6.198742
 20
6.754610
 30
0.0
 10
6.182842
 20
6.744277
 30
0.0
 10
6.161412
 20
6.722843
 30
0.0
 10
6.134451
 20
6.690310
 30
0.0
  0
LWPOLYLINE
  5
23f
100
AcDbEntity
  8
Layer_1
 62
7
100
AcDbPolyline
 90
2
 70
0
 10
6.150005
 20
6.205130
 30
0.0
 10
6.119933
 20
6.245530
 30
0.0
  0
SPLINE
  5
240
100
AcDbEntity
  8
Layer_1
 62
7
100
AcDbSpline
 70
8
 71
3
 72
8
 73
4
 74
0
 40
0
 40
0
 40
0
 40
0
 40
1
 40
1
 40
1
 40
1
 10
6.101268
 20
6.723510
 30
0.0
 10
6.124773
 20
6.782977
 30
0.0
 10
6.155881
 20
6.826530
 30
0.0
 10
6.194594
 20
6.854170
 30
0.0
  0
SPLINE
  5
241
100
AcDbEntity
  8
Layer_1
 62
7
100
AcDbSpline
 70
8
 71
3
 72
8
 73
4
 74
0
 40
0
 40
0
 40
0
 40
0
 40
1
 40
1
 40
1
 40
1
 10
6.194594
 20
6.854170
 30
0.0
 10
6.233998
 20
6.881837
 30
0.0
 10
6.281007
 20
6.895670
 30
0.0
 10
6.335620
 20
6.895670
 30
0.0
  0
SPLINE
  5
242
100
AcDbEntity
  8
Layer_1
 62
7
100
AcDbSpline
 70
8
 71
3
 72
8
 73
4
 74
0
 40
0
 40
0
 40
0
 40
0
 40
1
 40
1
 40
1
 40
1
 10
6.335620
 20
6.895670
 30
0.0
 10
6.351520
 20
6.895670
 30
0.0
 10
6.368803
 20
6.894003
 30
0.0
 10
6.387468
 20
6.890670
 30
0.0
  0
SPLINE
  5
243
100
AcDbEntity
  8
Layer_1
 62
7
100
AcDbSpline
 70
8
 71
3
 72
8
 73
4
 74
0
 40
0
 40
0
 40
0
 40
0
 40
1
 40
1
 40
1
 40
1
 10
6.387468
 20
6.890670
 30
0.0
 10
6.406825
 20
6.887337
 30
0.0
 10
6.427564
 20
6.882137
 30
0.0
 10
6.449685
 20
6.875070
 30
0.0
  0
SPLINE
  5
244
100
AcDbEntity
  8
Layer_1
 62
7
100
AcDbSpline
 70
8
 71
3
 72
8
 73
4
 74
0
 40
0
 40
0
 40
0
 40
0
 40
1
 40
1
 40
1
 40
1
 10
6.449685
 20
6.875070
 30
0.0
 10
6.448305
 20
6.915137
 30
0.0
 10
6.447615
 20
6.950047
 30
0.0
 10
6.447615
 20
6.979800
 30
0.0
  0
SPLINE
  5
245
100
AcDbEntity
  8
Layer_1
 62
7
100
AcDbSpline
 70
8
 71
3
 72
8
 73
4
 74
0
 40
0
 40
0
 40
0
 40
0
 40
1
 40
1
 40
1
 40
1
 10
6.447615
 20
6.979800
 30
0.0
 10
6.447615
 20
7.088333
 30
0.0
 10
6.469391
 20
7.176473
 30
0.0
 10
6.512943
 20
7.244220
 30
0.0
  0
SPLINE
  5
246
100
AcDbEntity
  8
Layer_1
 62
7
100
AcDbSpline
 70
8
 71
3
 72
8
 73
4
 74
0
 40
0
 40
0
 40
0
 40
0
 40
1
 40
1
 40
1
 40
1
 10
6.512943
 20
7.244220
 30
0.0
 10
6.557186
 20
7.312660
 30
0.0
 10
6.641525
 20
7.383867
 30
0.0
 10
6.765960
 20
7.457840
 30
0.0
  0
SPLINE
  5
247
100
AcDbEntity
  8
Layer_1
 62
7
100
AcDbSpline
 70
8
 71
3
 72
8
 73
4
 74
0
 40
0
 40
0
 40
0
 40
0
 40
1
 40
1
 40
1
 40
1
 10
6.765960
 20
7.457840
 30
0.0
 10
6.651895
 20
7.446107
 30
0.0
 10
6.553384
 20
7.440240
 30
0.0
 10
6.470428
 20
7.440240
 30
0.0
  0
SPLINE
  5
248
100
AcDbEntity
  8
Layer_1
 62
7
100
AcDbSpline
 70
8
 71
3
 72
8
 73
4
 74
0
 40
0
 40
0
 40
0
 40
0
 40
1
 40
1
 40
1
 40
1
 10
6.470428
 20
7.440240
 30
0.0
 10
6.382632
 20
7.440240
 30
0.0
 10
6.307280
 20
7.452673
 30
0.0
 10
6.244371
 20
7.477540
 30
0.0
  0
SPLINE
  5
249
100
AcDbEntity
  8
Layer_1
 62
7
100
AcDbSpline
 70
8
 71
3
 72
8
 73
4
 74
0
 40
0
 40
0
 40
0
 40
0
 40
1
 40
1
 40
1
 40
1
 10
6.244371
 20
7.477540
 30
0.0
 10
6.197363
 20
7.496873
 30
0.0
 10
6.162797
 20
7.527640
 30
0.0
 10
6.140676
 20
7.569840
 30
0.0
  0
SPLINE
  5
24a
100
AcDbEntity
  8
Layer_1
 62
7
100
AcDbSpline
 70
8
 71
3
 72
8
 73
4
 74
0
 40
0
 40
0
 40
0
 40
0
 40
1
 40
1
 40
1
 40
1
 10
6.140676
 20
7.569840
 30
0.0
 10
6.118554
 20
7.612707
 30
0.0
 10
6.105419
 20
7.671120
 30
0.0
 10
6.101272
 20
7.745080
 30
0.0
  0
LWPOLYLINE
  5
24b
100
AcDbEntity
  8
Layer_1
 62
7
100
AcDbPolyline
 90
2
 70
0
 10
6.134451
 20
6.690310
 30
0.0
 10
6.101268
 20
6.723510
 30
0.0
  0
SPLINE
  5
24c
100
AcDbEntity
  8
Layer_1
 62
7
100
AcDbSpline
 70
8
 71
3
 72
8
 73
4
 74
0
 40
0
 40
0
 40
0
 40
0
 40
1
 40
1
 40
1
 40
1
 10
6.941190
 20
7.458090
 30
0.0
 10
6.911464
 20
7.407623
 30
0.0
 10
6.891417
 20
7.363723
 30
0.0
 10
6.881047
 20
7.326390
 30
0.0
  0
SPLINE
  5
24d
100
AcDbEntity
  8
Layer_1
 62
7
100
AcDbSpline
 70
8
 71
3
 72
8
 73
4
 74
0
 40
0
 40
0
 40
0
 40
0
 40
1
 40
1
 40
1
 40
1
 10
6.881047
 20
7.326390
 30
0.0
 10
6.867221
 20
7.275257
 30
0.0
 10
6.860308
 20
7.227557
 30
0.0
 10
6.860308
 20
7.183290
 30
0.0
  0
LWPOLYLINE
  5
24e
100
AcDbEntity
  8
Layer_1
 62
7
100
AcDbPolyline
 90
2
 70
0
 10
6.101272
 20
7.745080
 30
0.0
 10
6.101256
 20
7.745320
 30
0.0
  0
SPLINE
  5
24f
100
AcDbEntity
  8
Layer_1
 62
7
100
AcDbSpline
 70
8
 71
3
 72
8
 73
4
 74
0
 40
0
 40
0
 40
0
 40
0
 40
1
 40
1
 40
1
 40
1
 10
6.868608
 20
6.774730
 30
0.0
 10
6.868608
 20
6.722197
 30
0.0
 10
6.855474
 20
6.668623
 30
0.0
 10
6.829204
 20
6.614010
 30
0.0
  0
SPLINE
  5
250
100
AcDbEntity
  8
Layer_1
 62
7
100
AcDbSpline
 70
8
 71
3
 72
8
 73
4
 74
0
 40
0
 40
0
 40
0
 40
0
 40
1
 40
1
 40
1
 40
1
 10
6.829204
 20
6.614010
 30
0.0
 10
6.809156
 20
6.573210
 30
0.0
 10
6.771480
 20
6.523433
 30
0.0
 10
6.716176
 20
6.464680
 30
0.0
  0
SPLINE
  5
251
100
AcDbEntity
  8
Layer_1
 62
7
100
AcDbSpline
 70
8
 71
3
 72
8
 73
4
 74
0
 40
0
 40
0
 40
0
 40
0
 40
1
 40
1
 40
1
 40
1
 10
6.716176
 20
6.464680
 30
0.0
 10
6.817106
 20
6.481280
 30
0.0
 10
6.894187
 20
6.489247
 30
0.0
 10
6.947417
 20
6.488580
 30
0.0
  0
LWPOLYLINE
  5
252
100
AcDbEntity
  8
Layer_1
 62
7
100
AcDbPolyline
 90
2
 70
0
 10
6.860308
 20
7.183290
 30
0.0
 10
6.868608
 20
6.774730
 30
0.0
  0
SPLINE
  5
253
100
AcDbEntity
  8
Layer_1
 62
7
100
AcDbSpline
 70
8
 71
3
 72
8
 73
4
 74
0
 40
0
 40
0
 40
0
 40
0
 40
1
 40
1
 40
1
 40
1
 10
7.059403
 20
7.059900
 30
0.0
 10
7.101573
 20
7.030167
 30
0.0
 10
7.138212
 20
7.009767
 30
0.0
 10
7.169321
 20
6.998700
 30
0.0
  0
SPLINE
  5
254
100
AcDbEntity
  8
Layer_1
 62
7
100
AcDbSpline
 70
8
 71
3
 72
8
 73
4
 74
0
 40
0
 40
0
 40
0
 40
0
 40
1
 40
1
 40
1
 40
1
 10
7.169321
 20
6.998700
 30
0.0
 10
7.201121
 20
6.987633
 30
0.0
 10
7.235340
 20
6.982100
 30
0.0
 10
7.271979
 20
6.982100
 30
0.0
  0
SPLINE
  5
255
100
AcDbEntity
  8
Layer_1
 62
7
100
AcDbSpline
 70
8
 71
3
 72
8
 73
4
 74
0
 40
0
 40
0
 40
0
 40
0
 40
1
 40
1
 40
1
 40
1
 10
7.271979
 20
6.982100
 30
0.0
 10
7.308619
 20
6.982100
 30
0.0
 10
7.342838
 20
6.987633
 30
0.0
 10
7.374638
 20
6.998700
 30
0.0
  0
SPLINE
  5
256
100
AcDbEntity
  8
Layer_1
 62
7
100
AcDbSpline
 70
8
 71
3
 72
8
 73
4
 74
0
 40
0
 40
0
 40
0
 40
0
 40
1
 40
1
 40
1
 40
1
 10
7.374638
 20
6.998700
 30
0.0
 10
7.406438
 20
7.010433
 30
0.0
 10
7.443768
 20
7.030833
 30
0.0
 10
7.486629
 20
7.059900
 30
0.0
  0
SPLINE
  5
257
100
AcDbEntity
  8
Layer_1
 62
7
100
AcDbSpline
 70
8
 71
3
 72
8
 73
4
 74
0
 40
0
 40
0
 40
0
 40
0
 40
1
 40
1
 40
1
 40
1
 10
7.486629
 20
7.059900
 30
0.0
 10
7.473495
 20
7.215440
 30
0.0
 10
7.433399
 20
7.320517
 30
0.0
 10
7.366342
 20
7.375130
 30
0.0
  0
SPLINE
  5
258
100
AcDbEntity
  8
Layer_1
 62
7
100
AcDbSpline
 70
8
 71
3
 72
8
 73
4
 74
0
 40
0
 40
0
 40
0
 40
0
 40
1
 40
1
 40
1
 40
1
 10
7.366342
 20
7.375130
 30
0.0
 10
7.299286
 20
7.430463
 30
0.0
 10
7.196973
 20
7.458130
 30
0.0
 10
7.059403
 20
7.458130
 30
0.0
  0
LWPOLYLINE
  5
259
100
AcDbEntity
  8
Layer_1
 62
7
100
AcDbPolyline
 90
4
 70
0
 10
6.947417
 20
6.488580
 30
0.0
 10
7.006524
 20
6.487580
 30
0.0
 10
7.006524
 20
7.458170
 30
0.0
 10
6.941190
 20
7.458090
 30
0.0
  0
SPLINE
  5
25a
100
AcDbEntity
  8
Layer_1
 62
7
100
AcDbSpline
 70
8
 71
3
 72
8
 73
4
 74
0
 40
0
 40
0
 40
0
 40
0
 40
1
 40
1
 40
1
 40
1
 10
7.059403
 20
6.717700
 30
0.0
 10
7.106412
 20
6.744633
 30
0.0
 10
7.146508
 20
6.762967
 30
0.0
 10
7.179690
 20
6.772700
 30
0.0
  0
SPLINE
  5
25b
100
AcDbEntity
  8
Layer_1
 62
7
100
AcDbSpline
 70
8
 71
3
 72
8
 73
4
 74
0
 40
0
 40
0
 40
0
 40
0
 40
1
 40
1
 40
1
 40
1
 10
7.179690
 20
6.772700
 30
0.0
 10
7.212873
 20
6.783100
 30
0.0
 10
7.249166
 20
6.788300
 30
0.0
 10
7.288571
 20
6.788300
 30
0.0
  0
SPLINE
  5
25c
100
AcDbEntity
  8
Layer_1
 62
7
100
AcDbSpline
 70
8
 71
3
 72
8
 73
4
 74
0
 40
0
 40
0
 40
0
 40
0
 40
1
 40
1
 40
1
 40
1
 10
7.288571
 20
6.788300
 30
0.0
 10
7.326593
 20
6.788300
 30
0.0
 10
7.361849
 20
6.783467
 30
0.0
 10
7.394340
 20
6.773800
 30
0.0
  0
SPLINE
  5
25d
100
AcDbEntity
  8
Layer_1
 62
7
100
AcDbSpline
 70
8
 71
3
 72
8
 73
4
 74
0
 40
0
 40
0
 40
0
 40
0
 40
1
 40
1
 40
1
 40
1
 10
7.394340
 20
6.773800
 30
0.0
 10
7.426832
 20
6.764800
 30
0.0
 10
7.465890
 20
6.747500
 30
0.0
 10
7.511516
 20
6.721900
 30
0.0
  0
LWPOLYLINE
  5
25e
100
AcDbEntity
  8
Layer_1
 62
7
100
AcDbPolyline
 90
2
 70
0
 10
7.059403
 20
7.458130
 30
0.0
 10
7.059403
 20
7.059900
 30
0.0
  0
SPLINE
  5
25f
100
AcDbEntity
  8
Layer_1
 62
7
100
AcDbSpline
 70
8
 71
3
 72
8
 73
4
 74
0
 40
0
 40
0
 40
0
 40
0
 40
1
 40
1
 40
1
 40
1
 10
7.493888
 20
7.002910
 30
0.0
 10
7.449645
 20
6.975977
 30
0.0
 10
7.411278
 20
6.957310
 30
0.0
 10
7.378786
 20
6.946910
 30
0.0
  0
SPLINE
  5
260
100
AcDbEntity
  8
Layer_1
 62
7
100
AcDbSpline
 70
8
 71
3
 72
8
 73
4
 74
0
 40
0
 40
0
 40
0
 40
0
 40
1
 40
1
 40
1
 40
1
 10
7.378786
 20
6.946910
 30
0.0
 10
7.346986
 20
6.937243
 30
0.0
 10
7.312075
 20
6.932410
 30
0.0
 10
7.274054
 20
6.932410
 30
0.0
  0
SPLINE
  5
261
100
AcDbEntity
  8
Layer_1
 62
7
100
AcDbSpline
 70
8
 71
3
 72
8
 73
4
 74
0
 40
0
 40
0
 40
0
 40
0
 40
1
 40
1
 40
1
 40
1
 10
7.274054
 20
6.932410
 30
0.0
 10
7.237414
 20
6.932410
 30
0.0
 10
7.201121
 20
6.938277
 30
0.0
 10
7.165173
 20
6.950010
 30
0.0
  0
SPLINE
  5
262
100
AcDbEntity
  8
Layer_1
 62
7
100
AcDbSpline
 70
8
 71
3
 72
8
 73
4
 74
0
 40
0
 40
0
 40
0
 40
0
 40
1
 40
1
 40
1
 40
1
 10
7.165173
 20
6.950010
 30
0.0
 10
7.129225
 20
6.961743
 30
0.0
 10
7.093969
 20
6.979377
 30
0.0
 10
7.059404
 20
7.002910
 30
0.0
  0
LWPOLYLINE
  5
263
100
AcDbEntity
  8
Layer_1
 62
7
100
AcDbPolyline
 90
2
 70
0
 10
7.511516
 20
6.721900
 30
0.0
 10
7.493888
 20
7.002910
 30
0.0
  0
SPLINE
  5
264
100
AcDbEntity
  8
Layer_1
 62
7
100
AcDbSpline
 70
8
 71
3
 72
8
 73
4
 74
0
 40
0
 40
0
 40
0
 40
0
 40
1
 40
1
 40
1
 40
1
 10
7.059403
 20
6.484390
 30
0.0
 10
7.143742
 20
6.477457
 30
0.0
 10
7.212182
 20
6.468823
 30
0.0
 10
7.264721
 20
6.458490
 30
0.0
  0
SPLINE
  5
265
100
AcDbEntity
  8
Layer_1
 62
7
100
AcDbSpline
 70
8
 71
3
 72
8
 73
4
 74
0
 40
0
 40
0
 40
0
 40
0
 40
1
 40
1
 40
1
 40
1
 10
7.264721
 20
6.458490
 30
0.0
 10
7.317951
 20
6.448823
 30
0.0
 10
7.400908
 20
6.428090
 30
0.0
 10
7.513590
 20
6.396290
 30
0.0
  0
SPLINE
  5
266
100
AcDbEntity
  8
Layer_1
 62
7
100
AcDbSpline
 70
8
 71
3
 72
8
 73
4
 74
0
 40
0
 40
0
 40
0
 40
0
 40
1
 40
1
 40
1
 40
1
 10
7.513590
 20
6.396290
 30
0.0
 10
7.514970
 20
6.500677
 30
0.0
 10
7.515660
 20
6.554600
 30
0.0
 10
7.515660
 20
6.558060
 30
0.0
  0
SPLINE
  5
267
100
AcDbEntity
  8
Layer_1
 62
7
100
AcDbSpline
 70
8
 71
3
 72
8
 73
4
 74
0
 40
0
 40
0
 40
0
 40
0
 40
1
 40
1
 40
1
 40
1
 10
7.515660
 20
6.558060
 30
0.0
 10
7.515660
 20
6.566327
 30
0.0
 10
7.514970
 20
6.599493
 30
0.0
 10
7.513590
 20
6.657560
 30
0.0
  0
SPLINE
  5
268
100
AcDbEntity
  8
Layer_1
 62
7
100
AcDbSpline
 70
8
 71
3
 72
8
 73
4
 74
0
 40
0
 40
0
 40
0
 40
0
 40
1
 40
1
 40
1
 40
1
 10
7.513590
 20
6.657560
 30
0.0
 10
7.469347
 20
6.687960
 30
0.0
 10
7.430288
 20
6.709027
 30
0.0
 10
7.396414
 20
6.720760
 30
0.0
  0
SPLINE
  5
269
100
AcDbEntity
  8
Layer_1
 62
7
100
AcDbSpline
 70
8
 71
3
 72
8
 73
4
 74
0
 40
0
 40
0
 40
0
 40
0
 40
1
 40
1
 40
1
 40
1
 10
7.396414
 20
6.720760
 30
0.0
 10
7.363231
 20
6.732493
 30
0.0
 10
7.326938
 20
6.738360
 30
0.0
 10
7.287534
 20
6.738360
 30
0.0
  0
SPLINE
  5
26a
100
AcDbEntity
  8
Layer_1
 62
7
100
AcDbSpline
 70
8
 71
3
 72
8
 73
4
 74
0
 40
0
 40
0
 40
0
 40
0
 40
1
 40
1
 40
1
 40
1
 10
7.287534
 20
6.738360
 30
0.0
 10
7.247438
 20
6.738360
 30
0.0
 10
7.210108
 20
6.732493
 30
0.0
 10
7.175542
 20
6.720760
 30
0.0
  0
SPLINE
  5
26b
100
AcDbEntity
  8
Layer_1
 62
7
100
AcDbSpline
 70
8
 71
3
 72
8
 73
4
 74
0
 40
0
 40
0
 40
0
 40
0
 40
1
 40
1
 40
1
 40
1
 10
7.175542
 20
6.720760
 30
0.0
 10
7.141668
 20
6.709027
 30
0.0
 10
7.102955
 20
6.687960
 30
0.0
 10
7.059403
 20
6.657560
 30
0.0
  0
LWPOLYLINE
  5
26c
100
AcDbEntity
  8
Layer_1
 62
7
100
AcDbPolyline
 90
2
 70
0
 10
7.059404
 20
7.002910
 30
0.0
 10
7.059403
 20
6.717700
 30
0.0
  0
LWPOLYLINE
  5
26d
100
AcDbEntity
  8
Layer_1
 62
7
100
AcDbPolyline
 90
2
 70
0
 10
7.059403
 20
6.657560
 30
0.0
 10
7.059403
 20
6.484390
 30
0.0
  0
LWPOLYLINE
  5
26e
100
AcDbEntity
  8
Layer_1
 62
7
100
AcDbPolyline
 90
4
 70
1
 10
8.152355
 20
6.205440
 30
0.0
 10
7.994738
 20
6.363060
 30
0.0
 10
8.152355
 20
6.521720
 30
0.0
 10
8.311010
 20
6.363060
 30
0.0
  0
SPLINE
  5
26f
100
AcDbEntity
  8
Layer_1
 62
7
100
AcDbSpline
 70
8
 71
3
 72
8
 73
4
 74
0
 40
0
 40
0
 40
0
 40
0
 40
1
 40
1
 40
1
 40
1
 10
9.706753
 20
7.739130
 30
0.0
 10
9.627253
 20
7.727397
 30
0.0
 10
9.567801
 20
7.704230
 30
0.0
 10
9.528397
 20
7.669630
 30
0.0
  0
SPLINE
  5
270
100
AcDbEntity
  8
Layer_1
 62
7
100
AcDbSpline
 70
8
 71
3
 72
8
 73
4
 74
0
 40
0
 40
0
 40
0
 40
0
 40
1
 40
1
 40
1
 40
1
 10
9.528397
 20
7.669630
 30
0.0
 10
9.488992
 20
7.635763
 30
0.0
 10
9.469290
 20
7.585297
 30
0.0
 10
9.469290
 20
7.518230
 30
0.0
  0
SPLINE
  5
271
100
AcDbEntity
  8
Layer_1
 62
7
100
AcDbSpline
 70
8
 71
3
 72
8
 73
4
 74
0
 40
0
 40
0
 40
0
 40
0
 40
1
 40
1
 40
1
 40
1
 10
9.469290
 20
7.518230
 30
0.0
 10
9.469290
 20
7.481563
 30
0.0
 10
9.473092
 20
7.428680
 30
0.0
 10
9.480696
 20
7.359580
 30
0.0
  0
SPLINE
  5
272
100
AcDbEntity
  8
Layer_1
 62
7
100
AcDbSpline
 70
8
 71
3
 72
8
 73
4
 74
0
 40
0
 40
0
 40
0
 40
0
 40
1
 40
1
 40
1
 40
1
 10
9.480696
 20
7.359580
 30
0.0
 10
9.494522
 20
7.240673
 30
0.0
 10
9.501435
 20
7.143543
 30
0.0
 10
9.501435
 20
7.068190
 30
0.0
  0
SPLINE
  5
273
100
AcDbEntity
  8
Layer_1
 62
7
100
AcDbSpline
 70
8
 71
3
 72
8
 73
4
 74
0
 40
0
 40
0
 40
0
 40
0
 40
1
 40
1
 40
1
 40
1
 10
9.501435
 20
7.068190
 30
0.0
 10
9.501435
 20
6.966570
 30
0.0
 10
9.478622
 20
6.877393
 30
0.0
 10
9.432996
 20
6.800660
 30
0.0
  0
SPLINE
  5
274
100
AcDbEntity
  8
Layer_1
 62
7
100
AcDbSpline
 70
8
 71
3
 72
8
 73
4
 74
0
 40
0
 40
0
 40
0
 40
0
 40
1
 40
1
 40
1
 40
1
 10
9.432996
 20
6.800660
 30
0.0
 10
9.388061
 20
6.724613
 30
0.0
 10
9.282291
 20
6.615387
 30
0.0
 10
9.115687
 20
6.472980
 30
0.0
  0
SPLINE
  5
275
100
AcDbEntity
  8
Layer_1
 62
7
100
AcDbSpline
 70
8
 71
3
 72
8
 73
4
 74
0
 40
0
 40
0
 40
0
 40
0
 40
1
 40
1
 40
1
 40
1
 10
9.115687
 20
6.472980
 30
0.0
 10
9.224913
 20
6.508247
 30
0.0
 10
9.323078
 20
6.525880
 30
0.0
 10
9.410183
 20
6.525880
 30
0.0
  0
SPLINE
  5
276
100
AcDbEntity
  8
Layer_1
 62
7
100
AcDbSpline
 70
8
 71
3
 72
8
 73
4
 74
0
 40
0
 40
0
 40
0
 40
0
 40
1
 40
1
 40
1
 40
1
 10
9.410183
 20
6.525880
 30
0.0
 10
9.489683
 20
6.525880
 30
0.0
 10
9.560887
 20
6.514813
 30
0.0
 10
9.623796
 20
6.492680
 30
0.0
  0
SPLINE
  5
277
100
AcDbEntity
  8
Layer_1
 62
7
100
AcDbSpline
 70
8
 71
3
 72
8
 73
4
 74
0
 40
0
 40
0
 40
0
 40
0
 40
1
 40
1
 40
1
 40
1
 10
9.623796
 20
6.492680
 30
0.0
 10
9.687396
 20
6.471280
 30
0.0
 10
9.757909
 20
6.433603
 30
0.0
 10
9.835335
 20
6.379650
 30
0.0
  0
LWPOLYLINE
  5
278
100
AcDbEntity
  8
Layer_1
 62
7
100
AcDbPolyline
 90
2
 70
0
 10
9.682903
 20
7.776430
 30
0.0
 10
9.706753
 20
7.739130
 30
0.0
  0
SPLINE
  5
279
100
AcDbEntity
  8
Layer_1
 62
7
100
AcDbSpline
 70
8
 71
3
 72
8
 73
4
 74
0
 40
0
 40
0
 40
0
 40
0
 40
1
 40
1
 40
1
 40
1
 10
9.700531
 20
6.205400
 30
0.0
 10
9.627252
 20
6.260000
 30
0.0
 10
9.553974
 20
6.299750
 30
0.0
 10
9.480696
 20
6.324650
 30
0.0
  0
SPLINE
  5
27a
100
AcDbEntity
  8
Layer_1
 62
7
100
AcDbSpline
 70
8
 71
3
 72
8
 73
4
 74
0
 40
0
 40
0
 40
0
 40
0
 40
1
 40
1
 40
1
 40
1
 10
9.480696
 20
6.324650
 30
0.0
 10
9.408109
 20
6.350250
 30
0.0
 10
9.323079
 20
6.363050
 30
0.0
 10
9.225605
 20
6.363050
 30
0.0
  0
SPLINE
  5
27b
100
AcDbEntity
  8
Layer_1
 62
7
100
AcDbSpline
 70
8
 71
3
 72
8
 73
4
 74
0
 40
0
 40
0
 40
0
 40
0
 40
1
 40
1
 40
1
 40
1
 10
9.225605
 20
6.363050
 30
0.0
 10
9.135044
 20
6.363050
 30
0.0
 10
9.049668
 20
6.352350
 30
0.0
 10
8.969476
 20
6.330950
 30
0.0
  0
SPLINE
  5
27c
100
AcDbEntity
  8
Layer_1
 62
7
100
AcDbSpline
 70
8
 71
3
 72
8
 73
4
 74
0
 40
0
 40
0
 40
0
 40
0
 40
1
 40
1
 40
1
 40
1
 10
8.969476
 20
6.330950
 30
0.0
 10
8.889976
 20
6.309483
 30
0.0
 10
8.787318
 20
6.267657
 30
0.0
 10
8.661500
 20
6.205470
 30
0.0
  0
LWPOLYLINE
  5
27d
100
AcDbEntity
  8
Layer_1
 62
7
100
AcDbPolyline
 90
4
 70
0
 10
9.835335
 20
6.379650
 30
0.0
 10
9.939030
 20
6.472950
 30
0.0
 10
9.969102
 20
6.436650
 30
0.0
 10
9.700531
 20
6.205400
 30
0.0
  0
SPLINE
  5
27e
100
AcDbEntity
  8
Layer_1
 62
7
100
AcDbSpline
 70
8
 71
3
 72
8
 73
4
 74
0
 40
0
 40
0
 40
0
 40
0
 40
1
 40
1
 40
1
 40
1
 10
8.640761
 20
6.234470
 30
0.0
 10
8.765887
 20
6.327103
 30
0.0
 10
8.848844
 20
6.401073
 30
0.0
 10
8.889631
 20
6.456380
 30
0.0
  0
SPLINE
  5
27f
100
AcDbEntity
  8
Layer_1
 62
7
100
AcDbSpline
 70
8
 71
3
 72
8
 73
4
 74
0
 40
0
 40
0
 40
0
 40
0
 40
1
 40
1
 40
1
 40
1
 10
8.889631
 20
6.456380
 30
0.0
 10
8.930418
 20
6.512380
 30
0.0
 10
8.950812
 20
6.564920
 30
0.0
 10
8.950812
 20
6.614000
 30
0.0
  0
SPLINE
  5
280
100
AcDbEntity
  8
Layer_1
 62
7
100
AcDbSpline
 70
8
 71
3
 72
8
 73
4
 74
0
 40
0
 40
0
 40
0
 40
0
 40
1
 40
1
 40
1
 40
1
 10
8.950812
 20
6.614000
 30
0.0
 10
8.950812
 20
6.661000
 30
0.0
 10
8.935949
 20
6.700057
 30
0.0
 10
8.906223
 20
6.731170
 30
0.0
  0
SPLINE
  5
281
100
AcDbEntity
  8
Layer_1
 62
7
100
AcDbSpline
 70
8
 71
3
 72
8
 73
4
 74
0
 40
0
 40
0
 40
0
 40
0
 40
1
 40
1
 40
1
 40
1
 10
8.906223
 20
6.731170
 30
0.0
 10
8.876497
 20
6.762970
 30
0.0
 10
8.842277
 20
6.778870
 30
0.0
 10
8.803564
 20
6.778870
 30
0.0
  0
SPLINE
  5
282
100
AcDbEntity
  8
Layer_1
 62
7
100
AcDbSpline
 70
8
 71
3
 72
8
 73
4
 74
0
 40
0
 40
0
 40
0
 40
0
 40
1
 40
1
 40
1
 40
1
 10
8.803564
 20
6.778870
 30
0.0
 10
8.784207
 20
6.778870
 30
0.0
 10
8.762086
 20
6.773003
 30
0.0
 10
8.737199
 20
6.761270
 30
0.0
  0
LWPOLYLINE
  5
283
100
AcDbEntity
  8
Layer_1
 62
7
100
AcDbPolyline
 90
2
 70
0
 10
8.661500
 20
6.205470
 30
0.0
 10
8.640761
 20
6.234470
 30
0.0
  0
SPLINE
  5
284
100
AcDbEntity
  8
Layer_1
 62
7
100
AcDbSpline
 70
8
 71
3
 72
8
 73
4
 74
0
 40
0
 40
0
 40
0
 40
0
 40
1
 40
1
 40
1
 40
1
 10
8.706090
 20
6.791370
 30
0.0
 10
8.731668
 20
6.814170
 30
0.0
 10
8.755172
 20
6.830070
 30
0.0
 10
8.776603
 20
6.839070
 30
0.0
  0
SPLINE
  5
285
100
AcDbEntity
  8
Layer_1
 62
7
100
AcDbSpline
 70
8
 71
3
 72
8
 73
4
 74
0
 40
0
 40
0
 40
0
 40
0
 40
1
 40
1
 40
1
 40
1
 10
8.776603
 20
6.839070
 30
0.0
 10
8.798034
 20
6.848070
 30
0.0
 10
8.822921
 20
6.852570
 30
0.0
 10
8.851264
 20
6.852570
 30
0.0
  0
SPLINE
  5
286
100
AcDbEntity
  8
Layer_1
 62
7
100
AcDbSpline
 70
8
 71
3
 72
8
 73
4
 74
0
 40
0
 40
0
 40
0
 40
0
 40
1
 40
1
 40
1
 40
1
 10
8.851264
 20
6.852570
 30
0.0
 10
8.867855
 20
6.852570
 30
0.0
 10
8.884792
 20
6.850237
 30
0.0
 10
8.902075
 20
6.845570
 30
0.0
  0
SPLINE
  5
287
100
AcDbEntity
  8
Layer_1
 62
7
100
AcDbSpline
 70
8
 71
3
 72
8
 73
4
 74
0
 40
0
 40
0
 40
0
 40
0
 40
1
 40
1
 40
1
 40
1
 10
8.902075
 20
6.845570
 30
0.0
 10
8.919358
 20
6.841570
 30
0.0
 10
8.936640
 20
6.834670
 30
0.0
 10
8.953923
 20
6.824870
 30
0.0
  0
SPLINE
  5
288
100
AcDbEntity
  8
Layer_1
 62
7
100
AcDbSpline
 70
8
 71
3
 72
8
 73
4
 74
0
 40
0
 40
0
 40
0
 40
0
 40
1
 40
1
 40
1
 40
1
 10
8.953923
 20
6.824870
 30
0.0
 10
8.955303
 20
6.840803
 30
0.0
 10
8.955993
 20
6.853603
 30
0.0
 10
8.955993
 20
6.863270
 30
0.0
  0
SPLINE
  5
289
100
AcDbEntity
  8
Layer_1
 62
7
100
AcDbSpline
 70
8
 71
3
 72
8
 73
4
 74
0
 40
0
 40
0
 40
0
 40
0
 40
1
 40
1
 40
1
 40
1
 10
8.955993
 20
6.863270
 30
0.0
 10
8.955993
 20
6.907537
 30
0.0
 10
8.939402
 20
6.945907
 30
0.0
 10
8.906219
 20
6.978380
 30
0.0
  0
SPLINE
  5
28a
100
AcDbEntity
  8
Layer_1
 62
7
100
AcDbSpline
 70
8
 71
3
 72
8
 73
4
 74
0
 40
0
 40
0
 40
0
 40
0
 40
1
 40
1
 40
1
 40
1
 10
8.906219
 20
6.978380
 30
0.0
 10
8.873036
 20
7.010847
 30
0.0
 10
8.832250
 20
7.027080
 30
0.0
 10
8.783858
 20
7.027080
 30
0.0
  0
SPLINE
  5
28b
100
AcDbEntity
  8
Layer_1
 62
7
100
AcDbSpline
 70
8
 71
3
 72
8
 73
4
 74
0
 40
0
 40
0
 40
0
 40
0
 40
1
 40
1
 40
1
 40
1
 10
8.783858
 20
7.027080
 30
0.0
 10
8.749293
 20
7.027080
 30
0.0
 10
8.713691
 20
7.013247
 30
0.0
 10
8.677052
 20
6.985580
 30
0.0
  0
LWPOLYLINE
  5
28c
100
AcDbEntity
  8
Layer_1
 62
7
100
AcDbPolyline
 90
2
 70
0
 10
8.737199
 20
6.761270
 30
0.0
 10
8.706090
 20
6.791370
 30
0.0
  0
SPLINE
  5
28d
100
AcDbEntity
  8
Layer_1
 62
7
100
AcDbSpline
 70
8
 71
3
 72
8
 73
4
 74
0
 40
0
 40
0
 40
0
 40
0
 40
1
 40
1
 40
1
 40
1
 10
8.640759
 20
7.010480
 30
0.0
 10
8.666337
 20
7.044347
 30
0.0
 10
8.692606
 20
7.068213
 30
0.0
 10
8.719568
 20
7.082080
 30
0.0
  0
SPLINE
  5
28e
100
AcDbEntity
  8
Layer_1
 62
7
100
AcDbSpline
 70
8
 71
3
 72
8
 73
4
 74
0
 40
0
 40
0
 40
0
 40
0
 40
1
 40
1
 40
1
 40
1
 10
8.719568
 20
7.082080
 30
0.0
 10
8.762428
 20
7.104880
 30
0.0
 10
8.808055
 20
7.116280
 30
0.0
 10
8.856446
 20
7.116280
 30
0.0
  0
SPLINE
  5
28f
100
AcDbEntity
  8
Layer_1
 62
7
100
AcDbSpline
 70
8
 71
3
 72
8
 73
4
 74
0
 40
0
 40
0
 40
0
 40
0
 40
1
 40
1
 40
1
 40
1
 10
8.856446
 20
7.116280
 30
0.0
 10
8.866815
 20
7.116280
 30
0.0
 10
8.878222
 20
7.115280
 30
0.0
 10
8.890666
 20
7.113280
 30
0.0
  0
SPLINE
  5
290
100
AcDbEntity
  8
Layer_1
 62
7
100
AcDbSpline
 70
8
 71
3
 72
8
 73
4
 74
0
 40
0
 40
0
 40
0
 40
0
 40
1
 40
1
 40
1
 40
1
 10
8.890666
 20
7.113280
 30
0.0
 10
8.903109
 20
7.111947
 30
0.0
 10
8.916244
 20
7.109613
 30
0.0
 10
8.930070
 20
7.106280
 30
0.0
  0
SPLINE
  5
291
100
AcDbEntity
  8
Layer_1
 62
7
100
AcDbSpline
 70
8
 71
3
 72
8
 73
4
 74
0
 40
0
 40
0
 40
0
 40
0
 40
1
 40
1
 40
1
 40
1
 10
8.930070
 20
7.106280
 30
0.0
 10
8.925923
 20
7.148480
 30
0.0
 10
8.923850
 20
7.183737
 30
0.0
 10
8.923850
 20
7.212050
 30
0.0
  0
SPLINE
  5
292
100
AcDbEntity
  8
Layer_1
 62
7
100
AcDbSpline
 70
8
 71
3
 72
8
 73
4
 74
0
 40
0
 40
0
 40
0
 40
0
 40
1
 40
1
 40
1
 40
1
 10
8.923850
 20
7.212050
 30
0.0
 10
8.923850
 20
7.295697
 30
0.0
 10
8.936293
 20
7.366903
 30
0.0
 10
8.961180
 20
7.425670
 30
0.0
  0
SPLINE
  5
293
100
AcDbEntity
  8
Layer_1
 62
7
100
AcDbSpline
 70
8
 71
3
 72
8
 73
4
 74
0
 40
0
 40
0
 40
0
 40
0
 40
1
 40
1
 40
1
 40
1
 10
8.961180
 20
7.425670
 30
0.0
 10
8.986758
 20
7.484403
 30
0.0
 10
9.030310
 20
7.545583
 30
0.0
 10
9.091837
 20
7.609210
 30
0.0
  0
SPLINE
  5
294
100
AcDbEntity
  8
Layer_1
 62
7
100
AcDbSpline
 70
8
 71
3
 72
8
 73
4
 74
0
 40
0
 40
0
 40
0
 40
0
 40
1
 40
1
 40
1
 40
1
 10
9.091837
 20
7.609210
 30
0.0
 10
9.025471
 20
7.585677
 30
0.0
 10
8.969130
 20
7.573910
 30
0.0
 10
8.922813
 20
7.573910
 30
0.0
  0
SPLINE
  5
295
100
AcDbEntity
  8
Layer_1
 62
7
100
AcDbSpline
 70
8
 71
3
 72
8
 73
4
 74
0
 40
0
 40
0
 40
0
 40
0
 40
1
 40
1
 40
1
 40
1
 10
8.922813
 20
7.573910
 30
0.0
 10
8.877187
 20
7.573910
 30
0.0
 10
8.819463
 20
7.584643
 30
0.0
 10
8.749641
 20
7.606110
 30
0.0
  0
SPLINE
  5
296
100
AcDbEntity
  8
Layer_1
 62
7
100
AcDbSpline
 70
8
 71
3
 72
8
 73
4
 74
0
 40
0
 40
0
 40
0
 40
0
 40
1
 40
1
 40
1
 40
1
 10
8.749641
 20
7.606110
 30
0.0
 10
8.717841
 20
7.615777
 30
0.0
 10
8.692608
 20
7.620610
 30
0.0
 10
8.673943
 20
7.620610
 30
0.0
  0
SPLINE
  5
297
100
AcDbEntity
  8
Layer_1
 62
7
100
AcDbSpline
 70
8
 71
3
 72
8
 73
4
 74
0
 40
0
 40
0
 40
0
 40
0
 40
1
 40
1
 40
1
 40
1
 10
8.673943
 20
7.620610
 30
0.0
 10
8.637995
 20
7.620610
 30
0.0
 10
8.607578
 20
7.609210
 30
0.0
 10
8.582691
 20
7.586410
 30
0.0
  0
SPLINE
  5
298
100
AcDbEntity
  8
Layer_1
 62
7
100
AcDbSpline
 70
8
 71
3
 72
8
 73
4
 74
0
 40
0
 40
0
 40
0
 40
0
 40
1
 40
1
 40
1
 40
1
 10
8.582691
 20
7.586410
 30
0.0
 10
8.558495
 20
7.563610
 30
0.0
 10
8.546397
 20
7.536310
 30
0.0
 10
8.546397
 20
7.504510
 30
0.0
  0
SPLINE
  5
299
100
AcDbEntity
  8
Layer_1
 62
7
100
AcDbSpline
 70
8
 71
3
 72
8
 73
4
 74
0
 40
0
 40
0
 40
0
 40
0
 40
1
 40
1
 40
1
 40
1
 10
8.546397
 20
7.504510
 30
0.0
 10
8.546397
 20
7.492777
 30
0.0
 10
8.549507
 20
7.478943
 30
0.0
 10
8.555727
 20
7.463010
 30
0.0
  0
LWPOLYLINE
  5
29a
100
AcDbEntity
  8
Layer_1
 62
7
100
AcDbPolyline
 90
2
 70
0
 10
8.677052
 20
6.985580
 30
0.0
 10
8.640759
 20
7.010480
 30
0.0
  0
SPLINE
  5
29b
100
AcDbEntity
  8
Layer_1
 62
7
100
AcDbSpline
 70
8
 71
3
 72
8
 73
4
 74
0
 40
0
 40
0
 40
0
 40
0
 40
1
 40
1
 40
1
 40
1
 10
8.511138
 20
7.447410
 30
0.0
 10
8.503533
 20
7.479877
 30
0.0
 10
8.499731
 20
7.506843
 30
0.0
 10
8.499731
 20
7.528310
 30
0.0
  0
SPLINE
  5
29c
100
AcDbEntity
  8
Layer_1
 62
7
100
AcDbSpline
 70
8
 71
3
 72
8
 73
4
 74
0
 40
0
 40
0
 40
0
 40
0
 40
1
 40
1
 40
1
 40
1
 10
8.499731
 20
7.528310
 30
0.0
 10
8.499731
 20
7.595370
 30
0.0
 10
8.525655
 20
7.653440
 30
0.0
 10
8.577503
 20
7.702520
 30
0.0
  0
SPLINE
  5
29d
100
AcDbEntity
  8
Layer_1
 62
7
100
AcDbSpline
 70
8
 71
3
 72
8
 73
4
 74
0
 40
0
 40
0
 40
0
 40
0
 40
1
 40
1
 40
1
 40
1
 10
8.577503
 20
7.702520
 30
0.0
 10
8.629351
 20
7.752320
 30
0.0
 10
8.691568
 20
7.777220
 30
0.0
 10
8.764155
 20
7.777220
 30
0.0
  0
SPLINE
  5
29e
100
AcDbEntity
  8
Layer_1
 62
7
100
AcDbSpline
 70
8
 71
3
 72
8
 73
4
 74
0
 40
0
 40
0
 40
0
 40
0
 40
1
 40
1
 40
1
 40
1
 10
8.764155
 20
7.777220
 30
0.0
 10
8.797338
 20
7.777220
 30
0.0
 10
8.848494
 20
7.764787
 30
0.0
 10
8.917625
 20
7.739920
 30
0.0
  0
SPLINE
  5
29f
100
AcDbEntity
  8
Layer_1
 62
7
100
AcDbSpline
 70
8
 71
3
 72
8
 73
4
 74
0
 40
0
 40
0
 40
0
 40
0
 40
1
 40
1
 40
1
 40
1
 10
8.917625
 20
7.739920
 30
0.0
 10
8.987446
 20
7.715053
 30
0.0
 10
9.041714
 20
7.702620
 30
0.0
 10
9.080427
 20
7.702620
 30
0.0
  0
SPLINE
  5
2a0
100
AcDbEntity
  8
Layer_1
 62
7
100
AcDbSpline
 70
8
 71
3
 72
8
 73
4
 74
0
 40
0
 40
0
 40
0
 40
0
 40
1
 40
1
 40
1
 40
1
 10
9.080427
 20
7.702620
 30
0.0
 10
9.150940
 20
7.702620
 30
0.0
 10
9.217996
 20
7.727520
 30
0.0
 10
9.281596
 20
7.777320
 30
0.0
  0
LWPOLYLINE
  5
2a1
100
AcDbEntity
  8
Layer_1
 62
7
100
AcDbPolyline
 90
2
 70
0
 10
8.555727
 20
7.463010
 30
0.0
 10
8.511138
 20
7.447410
 30
0.0
  0
SPLINE
  5
2a2
100
AcDbEntity
  8
Layer_1
 62
7
100
AcDbSpline
 70
8
 71
3
 72
8
 73
4
 74
0
 40
0
 40
0
 40
0
 40
0
 40
1
 40
1
 40
1
 40
1
 10
9.311668
 20
7.740020
 30
0.0
 10
9.242538
 20
7.688153
 30
0.0
 10
9.193801
 20
7.636997
 30
0.0
 10
9.165458
 20
7.586550
 30
0.0
  0
SPLINE
  5
2a3
100
AcDbEntity
  8
Layer_1
 62
7
100
AcDbSpline
 70
8
 71
3
 72
8
 73
4
 74
0
 40
0
 40
0
 40
0
 40
0
 40
1
 40
1
 40
1
 40
1
 10
9.165458
 20
7.586550
 30
0.0
 10
9.137806
 20
7.536083
 30
0.0
 10
9.123980
 20
7.474903
 30
0.0
 10
9.123980
 20
7.403010
 30
0.0
  0
SPLINE
  5
2a4
100
AcDbEntity
  8
Layer_1
 62
7
100
AcDbSpline
 70
8
 71
3
 72
8
 73
4
 74
0
 40
0
 40
0
 40
0
 40
0
 40
1
 40
1
 40
1
 40
1
 10
9.123980
 20
7.403010
 30
0.0
 10
9.123980
 20
7.349810
 30
0.0
 10
9.127436
 20
7.288283
 30
0.0
 10
9.134349
 20
7.218430
 30
0.0
  0
SPLINE
  5
2a5
100
AcDbEntity
  8
Layer_1
 62
7
100
AcDbSpline
 70
8
 71
3
 72
8
 73
4
 74
0
 40
0
 40
0
 40
0
 40
0
 40
1
 40
1
 40
1
 40
1
 10
9.134349
 20
7.218430
 30
0.0
 10
9.148175
 20
7.087083
 30
0.0
 10
9.155088
 20
6.997907
 30
0.0
 10
9.155088
 20
6.950900
 30
0.0
  0
SPLINE
  5
2a6
100
AcDbEntity
  8
Layer_1
 62
7
100
AcDbSpline
 70
8
 71
3
 72
8
 73
4
 74
0
 40
0
 40
0
 40
0
 40
0
 40
1
 40
1
 40
1
 40
1
 10
9.155088
 20
6.950900
 30
0.0
 10
9.155088
 20
6.850660
 30
0.0
 10
9.138842
 20
6.759753
 30
0.0
 10
9.106351
 20
6.678180
 30
0.0
  0
SPLINE
  5
2a7
100
AcDbEntity
  8
Layer_1
 62
7
100
AcDbSpline
 70
8
 71
3
 72
8
 73
4
 74
0
 40
0
 40
0
 40
0
 40
0
 40
1
 40
1
 40
1
 40
1
 10
9.106351
 20
6.678180
 30
0.0
 10
9.073859
 20
6.597300
 30
0.0
 10
9.015098
 20
6.503627
 30
0.0
 10
8.930068
 20
6.397160
 30
0.0
  0
SPLINE
  5
2a8
100
AcDbEntity
  8
Layer_1
 62
7
100
AcDbSpline
 70
8
 71
3
 72
8
 73
4
 74
0
 40
0
 40
0
 40
0
 40
0
 40
1
 40
1
 40
1
 40
1
 10
8.930068
 20
6.397160
 30
0.0
 10
9.059342
 20
6.489107
 30
0.0
 10
9.151977
 20
6.583470
 30
0.0
 10
9.207972
 20
6.680250
 30
0.0
  0
SPLINE
  5
2a9
100
AcDbEntity
  8
Layer_1
 62
7
100
AcDbSpline
 70
8
 71
3
 72
8
 73
4
 74
0
 40
0
 40
0
 40
0
 40
0
 40
1
 40
1
 40
1
 40
1
 10
9.207972
 20
6.680250
 30
0.0
 10
9.264659
 20
6.777037
 30
0.0
 10
9.293002
 20
6.885917
 30
0.0
 10
9.293002
 20
7.006890
 30
0.0
  0
SPLINE
  5
2aa
100
AcDbEntity
  8
Layer_1
 62
7
100
AcDbSpline
 70
8
 71
3
 72
8
 73
4
 74
0
 40
0
 40
0
 40
0
 40
0
 40
1
 40
1
 40
1
 40
1
 10
9.293002
 20
7.006890
 30
0.0
 10
9.293002
 20
7.075330
 30
0.0
 10
9.288163
 20
7.150337
 30
0.0
 10
9.278485
 20
7.231910
 30
0.0
  0
SPLINE
  5
2ab
100
AcDbEntity
  8
Layer_1
 62
7
100
AcDbSpline
 70
8
 71
3
 72
8
 73
4
 74
0
 40
0
 40
0
 40
0
 40
0
 40
1
 40
1
 40
1
 40
1
 10
9.278485
 20
7.231910
 30
0.0
 10
9.268807
 20
7.314177
 30
0.0
 10
9.263968
 20
7.383310
 30
0.0
 10
9.263968
 20
7.439310
 30
0.0
  0
SPLINE
  5
2ac
100
AcDbEntity
  8
Layer_1
 62
7
100
AcDbSpline
 70
8
 71
3
 72
8
 73
4
 74
0
 40
0
 40
0
 40
0
 40
0
 40
1
 40
1
 40
1
 40
1
 10
9.263968
 20
7.439310
 30
0.0
 10
9.263968
 20
7.489110
 30
0.0
 10
9.275721
 20
7.538190
 30
0.0
 10
9.299225
 20
7.586550
 30
0.0
  0
SPLINE
  5
2ad
100
AcDbEntity
  8
Layer_1
 62
7
100
AcDbSpline
 70
8
 71
3
 72
8
 73
4
 74
0
 40
0
 40
0
 40
0
 40
0
 40
1
 40
1
 40
1
 40
1
 10
9.299225
 20
7.586550
 30
0.0
 10
9.322729
 20
7.634950
 30
0.0
 10
9.353838
 20
7.672973
 30
0.0
 10
9.392551
 20
7.700620
 30
0.0
  0
SPLINE
  5
2ae
100
AcDbEntity
  8
Layer_1
 62
7
100
AcDbSpline
 70
8
 71
3
 72
8
 73
4
 74
0
 40
0
 40
0
 40
0
 40
0
 40
1
 40
1
 40
1
 40
1
 10
9.392551
 20
7.700620
 30
0.0
 10
9.431265
 20
7.728287
 30
0.0
 10
9.474125
 20
7.748320
 30
0.0
 10
9.521134
 20
7.760720
 30
0.0
  0
SPLINE
  5
2af
100
AcDbEntity
  8
Layer_1
 62
7
100
AcDbSpline
 70
8
 71
3
 72
8
 73
4
 74
0
 40
0
 40
0
 40
0
 40
0
 40
1
 40
1
 40
1
 40
1
 10
9.521134
 20
7.760720
 30
0.0
 10
9.556390
 20
7.769720
 30
0.0
 10
9.610312
 20
7.775253
 30
0.0
 10
9.682899
 20
7.777320
 30
0.0
  0
LWPOLYLINE
  5
2b0
100
AcDbEntity
  8
Layer_1
 62
7
100
AcDbPolyline
 90
2
 70
0
 10
9.281596
 20
7.777320
 30
0.0
 10
9.311668
 20
7.740020
 30
0.0
  0
LWPOLYLINE
  5
2b1
100
AcDbEntity
  8
Layer_1
 62
7
100
AcDbPolyline
 90
2
 70
0
 10
9.682899
 20
7.777320
 30
0.0
 10
9.682903
 20
7.776430
 30
0.0
  0
LWPOLYLINE
  5
2b2
100
AcDbEntity
  8
Layer_1
 62
7
100
AcDbPolyline
 90
4
 70
1
 10
10.296781
 20
6.205440
 30
0.0
 10
10.139164
 20
6.363060
 30
0.0
 10
10.296781
 20
6.521720
 30
0.0
 10
10.455436
 20
6.363060
 30
0.0
  0
ENDSEC
  0
SECTION
  2
OBJECTS
  0
DICTIONARY
  5
C
330
0
100
AcDbDictionary
  3
ACAD_GROUP
350
D
  3
ACAD_MLINESTYLE
350
17
  0
DICTIONARY
  5
D
330
C
100
AcDbDictionary
  0
DICTIONARY
  5
1A
330
C
100
AcDbDictionary
  0
DICTIONARY
  5
17
330
C
100
AcDbDictionary
  3
STANDARD
350
18
  0
DICTIONARY
  5
19
330
C
100
AcDbDictionary
  0
ENDSEC
  0
EOF
