<?xml version="1.0" encoding="UTF-8" standalone="no"?>
<!-- Created with Inkscape (http://www.inkscape.org/) -->

<svg
   xmlns:dc="http://purl.org/dc/elements/1.1/"
   xmlns:cc="http://creativecommons.org/ns#"
   xmlns:rdf="http://www.w3.org/1999/02/22-rdf-syntax-ns#"
   xmlns:svg="http://www.w3.org/2000/svg"
   xmlns="http://www.w3.org/2000/svg"
   xmlns:sodipodi="http://sodipodi.sourceforge.net/DTD/sodipodi-0.dtd"
   xmlns:inkscape="http://www.inkscape.org/namespaces/inkscape"
   width="15mm"
   height="15mm"
   viewBox="0 0 15 15"
   version="1.1"
   id="svg8"
   sodipodi:docname="firma.svg"
   inkscape:version="0.92.4 (5da689c313, 2019-01-14)">
  <defs
     id="defs2" />
  <sodipodi:namedview
     id="base"
     pagecolor="#ffffff"
     bordercolor="#666666"
     borderopacity="1.0"
     inkscape:pageopacity="0.0"
     inkscape:pageshadow="2"
     inkscape:zoom="7.9195959"
     inkscape:cx="44.957059"
     inkscape:cy="3.2519921"
     inkscape:document-units="mm"
     inkscape:current-layer="layer1"
     showgrid="false"
     inkscape:window-width="996"
     inkscape:window-height="1008"
     inkscape:window-x="915"
     inkscape:window-y="0"
     inkscape:window-maximized="0" />
  <metadata
     id="metadata5">
    <rdf:RDF>
      <cc:Work
         rdf:about="">
        <dc:format>image/svg+xml</dc:format>
        <dc:type
           rdf:resource="http://purl.org/dc/dcmitype/StillImage" />
        <dc:title></dc:title>
      </cc:Work>
    </rdf:RDF>
  </metadata>
  <g
     inkscape:label="Layer 1"
     inkscape:groupmode="layer"
     id="layer1"
     transform="translate(0,-282)">
    <flowRoot
       xml:space="preserve"
       id="flowRoot4698"
       style="font-style:normal;font-weight:normal;font-size:40px;line-height:1.25;font-family:sans-serif;letter-spacing:0px;word-spacing:0px;fill:#000000;fill-opacity:1;stroke:none"
       transform="scale(0.26458333)"><flowRegion
         id="flowRegion4700"><rect
           id="rect4702"
           width="167.14285"
           height="57.857143"
           x="185"
           y="733.59113" /></flowRegion><flowPara
         id="flowPara4704"></flowPara></flowRoot>    <text
       xml:space="preserve"
       style="font-style:normal;font-weight:normal;font-size:36.38579559px;line-height:1.25;font-family:sans-serif;letter-spacing:0px;word-spacing:0px;fill:#000000;fill-opacity:1;stroke:none;stroke-width:0.9096449"
       x="63.598019"
       y="67.963554"
       id="text4708"
       transform="scale(0.83076931,1.2037036)"><tspan
         sodipodi:role="line"
         id="tspan4706"
         x="63.598019"
         y="101.15942"
         style="font-style:italic;font-variant:normal;font-weight:normal;font-stretch:normal;font-size:9.87777805px;font-family:'Old English Text MT';-inkscape-font-specification:'Old English Text MT Italic';stroke-width:0.9096449" /><tspan
         sodipodi:role="line"
         x="63.598019"
         y="146.64166"
         style="font-style:normal;font-variant:normal;font-weight:normal;font-stretch:normal;font-size:9.87777805px;font-family:Consolas;-inkscape-font-specification:Consolas;stroke-width:0.9096449"
         id="tspan4718" /></text>
    <flowRoot
       xml:space="preserve"
       id="flowRoot4710"
       style="font-style:normal;font-weight:normal;font-size:40px;line-height:1.25;font-family:sans-serif;letter-spacing:0px;word-spacing:0px;fill:#000000;fill-opacity:1;stroke:none"
       transform="scale(0.26458333)"><flowRegion
         id="flowRegion4712"><rect
           id="rect4714"
           width="288.57144"
           height="205.71428"
           x="231.42857"
           y="406.80539" /></flowRegion><flowPara
         id="flowPara4716"></flowPara></flowRoot>    <g
       id="g5003">
      <g
         id="g4996">
        <g
           aria-label="Tadakey 2019"
           style="font-style:normal;font-variant:normal;font-weight:normal;font-stretch:normal;font-size:2.12368679px;line-height:1.25;font-family:'Script MT Bold';-inkscape-font-specification:'Script MT Bold, ';letter-spacing:0px;word-spacing:0px;fill:#000000;fill-opacity:1;stroke:none;stroke-width:0.05309217"
           id="text4722">
          <path
             d="m 3.0673708,286.53337 0.038367,0.027 q -0.021776,0.10058 -0.060143,0.15865 -0.03733,0.0581 -0.1109544,0.0923 -0.072587,0.0332 -0.1679869,0.0332 -0.050811,0 -0.1233978,-0.006 v 1.04837 q 0.1576173,-0.0477 0.2509434,-0.12236 0.093326,-0.0757 0.1731717,-0.21673 l 0.038367,0.0187 q -0.045626,0.13895 -0.1057695,0.22294 -0.096437,0.13584 -0.2488696,0.21569 -0.1524326,0.0788 -0.3525652,0.0788 -0.1949478,0 -0.3650086,-0.0747 -0.098511,-0.0435 -0.1804304,-0.12236 -0.08192,-0.0788 -0.1348044,-0.1908 -0.051848,-0.11199 -0.051848,-0.25406 0,-0.1431 0.057033,-0.27375 0.057033,-0.13066 0.1679869,-0.24991 0.070513,-0.0747 0.1990957,-0.16488 l -0.1306565,-0.007 q -0.072587,-0.004 -0.1607283,0.0311 -0.088141,0.0342 -0.1379152,0.0923 -0.048737,0.0581 -0.08503,0.17317 l -0.038367,-0.0228 q 0.035257,-0.14725 0.091252,-0.22917 0.074661,-0.10888 0.1970217,-0.16798 0.1223608,-0.0601 0.2789413,-0.0601 0.1088804,0 0.3847108,0.0456 0.2758304,0.0456 0.3795261,0.0456 0.069476,0 0.1057695,-0.0207 0.03733,-0.0218 0.092289,-0.0996 z m -0.8606738,0.2302 -0.054959,-0.005 q -0.1389522,0.11925 -0.2042804,0.2385 -0.088141,0.16073 -0.088141,0.33079 0,0.29034 0.2385,0.47389 0.075698,-0.0633 0.092289,-0.10266 0.016591,-0.0394 0.016591,-0.16073 z m 0.3888587,0.0653 q -0.098511,-0.0135 -0.1742087,-0.029 v 0.6201 q 0,0.10888 -0.00933,0.13895 -0.0083,0.029 -0.040441,0.0664 -0.05807,0.0643 -0.2322783,0.20325 0.087104,0.0425 0.1410261,0.057 0.093326,0.0249 0.1793935,0.0249 0.045626,0 0.1358413,-0.0114 z"
             style="font-style:normal;font-variant:normal;font-weight:normal;font-stretch:normal;font-family:'Old English Text MT';-inkscape-font-specification:'Old English Text MT';stroke-width:0.05309217"
             id="path5005" />
          <path
             d="m 3.9622643,287.02281 0.03733,0.0145 q -0.055996,0.0871 -0.07155,0.13377 -0.014517,0.0456 -0.014517,0.12443 v 0.44174 q 0,0.10992 0.016591,0.13792 0.017628,0.027 0.041478,0.027 0.012443,0 0.025924,-0.006 0.0083,-0.005 0.048737,-0.0373 l 0.022813,0.0342 -0.2312413,0.1908 q -0.079846,-0.0622 -0.1068065,-0.11096 -0.026961,-0.0498 -0.030072,-0.13791 l -0.3152348,0.24887 q -0.1773195,-0.14518 -0.1773195,-0.2862 0,-0.0944 0.038367,-0.17732 0.050811,-0.10888 0.1752457,-0.25406 l -0.1244348,-0.26546 0.014517,-0.029 q 0.040441,0.004 0.060143,0.004 0.1223608,0 0.2156869,-0.0975 0.075698,0.0446 0.1648761,0.0716 0.090215,0.027 0.1379152,0.027 0.021776,0 0.033183,-0.007 0.011407,-0.008 0.038367,-0.0467 z m -0.261313,0.19806 -0.3546391,-0.10888 0.1265087,0.26753 0.2281304,0.10681 z m 0,0.30798 -0.2509435,-0.11718 q -0.05807,0.12651 -0.05807,0.22191 0,0.16799 0.1524326,0.27687 l 0.1565805,-0.12651 z"
             style="font-style:normal;font-variant:normal;font-weight:normal;font-stretch:normal;font-family:'Old English Text MT';-inkscape-font-specification:'Old English Text MT';stroke-width:0.05309217"
             id="path5007" />
          <path
             d="m 4.1572121,286.62462 0.7040934,0.48426 q 0.016591,-0.0384 0.036293,-0.0581 0.020739,-0.0197 0.062217,-0.0373 v 0.0425 q -0.020739,0.028 -0.026961,0.0508 -0.00622,0.0228 -0.00622,0.0933 v 0.69787 q -0.1316934,0.0498 -0.1959847,0.0871 -0.064291,0.0363 -0.1389522,0.0985 -0.1223609,-0.0799 -0.2167239,-0.11614 -0.094363,-0.0363 -0.2032435,-0.0498 v -0.0197 q 0.03733,-0.0321 0.0477,-0.0643 0.011407,-0.0332 0.011407,-0.13584 v -0.54336 q 0.142063,-0.0394 0.2011695,-0.0892 l -0.2747934,-0.18769 z m 0.5578825,0.63462 -0.2125761,-0.14725 q -0.029035,0.0238 -0.059106,0.0415 v 0.64084 l 0.2716826,0.12028 z"
             style="font-style:normal;font-variant:normal;font-weight:normal;font-stretch:normal;font-family:'Old English Text MT';-inkscape-font-specification:'Old English Text MT';stroke-width:0.05309217"
             id="path5009" />
          <path
             d="m 5.8702642,287.02281 0.03733,0.0145 q -0.055996,0.0871 -0.07155,0.13377 -0.014517,0.0456 -0.014517,0.12443 v 0.44174 q 0,0.10992 0.016591,0.13792 0.017628,0.027 0.041478,0.027 0.012443,0 0.025924,-0.006 0.0083,-0.005 0.048737,-0.0373 l 0.022813,0.0342 -0.2312413,0.1908 q -0.079846,-0.0622 -0.1068065,-0.11096 -0.026961,-0.0498 -0.030072,-0.13791 l -0.3152347,0.24887 q -0.1773196,-0.14518 -0.1773196,-0.2862 0,-0.0944 0.038367,-0.17732 0.050811,-0.10888 0.1752457,-0.25406 l -0.1244348,-0.26546 0.014517,-0.029 q 0.040441,0.004 0.060144,0.004 0.1223608,0 0.2156869,-0.0975 0.075698,0.0446 0.1648761,0.0716 0.090215,0.027 0.1379152,0.027 0.021776,0 0.033183,-0.007 0.011406,-0.008 0.038367,-0.0467 z m -0.2613131,0.19806 -0.3546391,-0.10888 0.1265087,0.26753 0.2281304,0.10681 z m 0,0.30798 -0.2509434,-0.11718 q -0.05807,0.12651 -0.05807,0.22191 0,0.16799 0.1524326,0.27687 l 0.1565804,-0.12651 z"
             style="font-style:normal;font-variant:normal;font-weight:normal;font-stretch:normal;font-family:'Old English Text MT';-inkscape-font-specification:'Old English Text MT';stroke-width:0.05309217"
             id="path5011" />
          <path
             d="m 6.5339164,286.59766 v 0.027 q -0.078809,0.0519 -0.1057696,0.10992 -0.026961,0.057 -0.026961,0.18561 v 0.35775 l 0.3090131,-0.29968 0.2105021,0.23228 -0.2405739,0.2105 q 0.08192,0.0581 0.1223609,0.12651 0.041478,0.0674 0.064291,0.1991 0.022813,0.13065 0.036293,0.15036 0.01348,0.0197 0.024887,0.0197 0.012443,0 0.068439,-0.0425 l 0.019702,0.0332 -0.2416108,0.17628 q -0.042515,-0.0435 -0.063254,-0.0923 -0.020739,-0.0487 -0.031109,-0.14206 l -0.2934587,0.23435 q -0.063254,-0.0602 -0.1223608,-0.0944 -0.05807,-0.0342 -0.1451739,-0.0622 v -0.0197 q 0.0477,-0.0322 0.06118,-0.0664 0.01348,-0.0353 0.01348,-0.17525 v -0.75386 q 0,-0.0892 -0.0083,-0.12444 -0.011406,-0.0519 -0.03422,-0.0798 -0.021776,-0.029 -0.07155,-0.0529 l 0.015554,-0.0301 q 0.062217,0.0228 0.093326,0.0425 0.032146,0.0187 0.078809,0.0622 0.067402,-0.0643 0.1275456,-0.0933 0.06118,-0.0301 0.1389522,-0.0384 z m 0.054959,0.55166 -0.1876891,0.18147 v 0.27687 l 0.3411587,-0.29139 z m -0.1876891,0.51226 v 0.17939 l 0.1223609,0.085 0.1513956,-0.12443 q -0.026961,-0.17421 -0.1513956,-0.24784 z"
             style="font-style:normal;font-variant:normal;font-weight:normal;font-stretch:normal;font-family:'Old English Text MT';-inkscape-font-specification:'Old English Text MT';stroke-width:0.05309217"
             id="path5013" />
          <path
             d="m 7.5750207,286.97822 0.2924217,0.34116 -0.4645565,0.32561 v 0.18872 l 0.2405739,0.0954 0.1628022,-0.11095 0.022813,0.0311 -0.3359739,0.23435 q -0.1026587,-0.055 -0.1690239,-0.0788 -0.066365,-0.0239 -0.1887261,-0.0498 v -0.0259 q 0.035257,-0.0207 0.046663,-0.0508 0.012443,-0.0311 0.012443,-0.13273 v -0.59314 q 0.097474,-0.0353 0.1617652,-0.0643 0.046663,-0.0218 0.2187978,-0.10992 z m -0.1576174,0.11925 -0.014517,0.007 v 0.46974 l 0.2727195,-0.1908 z"
             style="font-style:normal;font-variant:normal;font-weight:normal;font-stretch:normal;font-family:'Old English Text MT';-inkscape-font-specification:'Old English Text MT';stroke-width:0.05309217"
             id="path5015" />
          <path
             d="m 7.9503989,287.15969 0.2177608,-0.18147 q 0.089178,0.0601 0.1151022,0.10474 0.026961,0.0446 0.026961,0.12236 v 0.0228 l 0.3141978,-0.24991 q 0.1607282,0.16903 0.1607282,0.3619 0,0.1037 -0.052885,0.20739 -0.052885,0.10266 -0.165913,0.19599 -0.1130283,0.0923 -0.3650087,0.24264 -0.1099174,0.0664 -0.1316934,0.084 -0.046663,0.0363 -0.066365,0.0705 -0.014517,0.0249 -0.014517,0.056 0,0.0529 0.051848,0.0975 0.052885,0.0456 0.1389521,0.0456 0.062217,0 0.1026587,-0.0218 0.019702,-0.0104 0.038367,-0.0446 0.018665,-0.0332 0.032146,-0.0435 0.01348,-0.0104 0.032146,-0.0104 0.020739,0 0.033183,0.0114 0.012443,0.0114 0.012443,0.0301 0,0.0332 -0.048737,0.0653 -0.074661,0.0518 -0.188726,0.0518 -0.11925,0 -0.1835413,-0.057 -0.064291,-0.056 -0.064291,-0.13377 0,-0.0767 0.07155,-0.14932 0.03422,-0.0352 0.042515,-0.0498 0.022813,-0.0394 0.031109,-0.0726 0.0083,-0.0342 0.0083,-0.0954 v -0.49566 q 0,-0.1037 -0.02385,-0.14103 -0.018665,-0.029 -0.040441,-0.029 -0.017628,0 -0.045626,0.027 -0.00415,0.004 -0.013481,0.0124 z m 0.3598239,0.11614 v 0.58899 q 0.1462108,-0.10577 0.2073912,-0.21983 0.062217,-0.11511 0.062217,-0.2188 0,-0.13999 -0.1140652,-0.27376 z"
             style="font-style:normal;font-variant:normal;font-weight:normal;font-stretch:normal;font-family:'Old English Text MT';-inkscape-font-specification:'Old English Text MT';stroke-width:0.05309217"
             id="path5017" />
          <path
             d="m 9.4705769,286.972 0.4313739,-0.32353 0.4998132,0.30072 q 0.0041,0.0601 0.0041,0.10058 0,0.17006 -0.09333,0.29035 -0.09333,0.12029 -0.4178939,0.30383 -0.1462109,0.083 -0.2063543,0.13377 -0.059107,0.0498 -0.1068066,0.12236 0.1265087,-0.056 0.2198348,-0.0778 0.094363,-0.0228 0.1856152,-0.0228 0.077772,0 0.1586548,0.0114 0.08192,0.0114 0.124434,0.0228 l 0.160729,0.0519 -0.180431,0.19806 q -0.161765,-0.056 -0.220872,-0.0674 -0.093326,-0.0197 -0.1762822,-0.0197 -0.1576173,0 -0.3432325,0.0716 -0.039404,0.0156 -0.045626,0.0156 -0.00622,0 -0.00933,-0.004 -0.00415,-0.005 -0.00415,-0.0156 0,-0.0498 0.03422,-0.12133 0.045626,-0.0975 0.1316935,-0.19183 0.06118,-0.0684 0.1990956,-0.18044 0.1379152,-0.11199 0.1907996,-0.17006 0.07362,-0.0819 0.113029,-0.17109 0.04044,-0.0892 0.04044,-0.18977 0,-0.15036 -0.111991,-0.24783 l -0.4303373,0.32975 z"
             style="font-style:normal;font-variant:normal;font-weight:normal;font-stretch:normal;font-family:'Old English Text MT';-inkscape-font-specification:'Old English Text MT';stroke-width:0.05309217"
             id="path5019" />
          <path
             d="m 11.005273,286.64847 q 0.235389,0.0809 0.366045,0.25924 0.130657,0.17732 0.130657,0.41789 0,0.23643 -0.122361,0.43034 -0.121324,0.19287 -0.329752,0.32768 -0.148285,-0.0353 -0.269609,-0.13273 -0.120287,-0.0975 -0.184578,-0.24265 -0.06325,-0.14517 -0.06325,-0.30175 0,-0.22399 0.129619,-0.43553 0.12962,-0.21154 0.343233,-0.32249 z m -0.180431,0.1908 q -0.1431,0.1628 -0.1431,0.39197 0,0.16177 0.06948,0.30487 0.06948,0.1431 0.198058,0.23642 0.12962,0.0933 0.264424,0.11303 0.07466,-0.10266 0.10577,-0.19184 0.03214,-0.0902 0.03214,-0.19909 0,-0.14932 -0.06118,-0.28413 -0.06014,-0.13584 -0.181467,-0.22917 -0.121324,-0.0944 -0.284127,-0.14206 z"
             style="font-style:normal;font-variant:normal;font-weight:normal;font-stretch:normal;font-family:'Old English Text MT';-inkscape-font-specification:'Old English Text MT';stroke-width:0.05309217"
             id="path5021" />
          <path
             d="m 11.761214,286.86623 0.259239,-0.21776 q 0.09436,0.0384 0.138952,0.1037 0.04563,0.0653 0.04563,0.16902 v 0.86793 q 0,0.0363 0.01244,0.0539 0.02178,0.0322 0.08088,0.0757 l 0.113029,-0.0923 0.03318,0.0353 -0.273756,0.22191 -0.251981,-0.16488 0.06948,-0.0923 v -0.77668 q 0,-0.0788 -0.01037,-0.10888 -0.01659,-0.0498 -0.04977,-0.0788 -0.02385,-0.0197 -0.04148,-0.0197 -0.02074,0 -0.05703,0.0301 -0.02178,0.0176 -0.03733,0.029 z"
             style="font-style:normal;font-variant:normal;font-weight:normal;font-stretch:normal;font-family:'Old English Text MT';-inkscape-font-specification:'Old English Text MT';stroke-width:0.05309217"
             id="path5023" />
          <path
             d="m 12.779505,287.90422 0.146211,-0.18457 0.384711,0.17628 q 0.07881,-0.11925 0.109917,-0.22087 0.04666,-0.1514 0.04666,-0.29242 0,-0.0322 -0.0073,-0.083 l -0.469742,0.31834 q -0.107843,-0.0529 -0.147247,-0.085 -0.06325,-0.0508 -0.10577,-0.12858 -0.04148,-0.0778 -0.04148,-0.1711 0,-0.15243 0.110954,-0.29138 0.135841,-0.16902 0.360861,-0.29346 0.239537,0.0684 0.367083,0.23435 0.128582,0.16488 0.128582,0.39716 0,0.17524 -0.06533,0.32353 -0.04977,0.11303 -0.165913,0.24057 -0.115102,0.12651 -0.264424,0.23954 z m 0.670911,-0.65431 q -0.07985,-0.32768 -0.477,-0.40857 -0.05081,0.0602 -0.07674,0.12029 -0.02592,0.0601 -0.02592,0.12133 0,0.0736 0.03629,0.14517 0.03733,0.0716 0.107843,0.12236 0.05288,0.0384 0.167987,0.0799 z"
             style="font-style:normal;font-variant:normal;font-weight:normal;font-stretch:normal;font-family:'Old English Text MT';-inkscape-font-specification:'Old English Text MT';stroke-width:0.05309217"
             id="path5025" />
        </g>
      </g>
      <g
         aria-label="D.L."
         style="font-style:normal;font-variant:normal;font-weight:normal;font-stretch:normal;font-size:2.12368679px;line-height:1.25;font-family:'Script MT Bold';-inkscape-font-specification:'Script MT Bold, ';letter-spacing:0px;word-spacing:0px;fill:#000000;fill-opacity:1;stroke:none;stroke-width:0.05309217"
         id="text4726">
        <path
           d="m 6.1012555,289.25468 h 0.048737 q 0.016591,0.0518 0.054959,0.0736 0.049774,0.029 0.1617652,0.029 0.07155,0 0.4541869,-0.0145 0.2312413,-0.009 0.2882739,-0.009 0.1721348,0 0.2924217,0.0591 0.1213239,0.0591 0.1970217,0.18147 0.075698,0.12236 0.1005848,0.33701 0.017628,0.15036 0.030072,0.66261 -0.2022065,0.12755 -0.3110869,0.22088 -0.3297521,-0.0923 -0.5817325,-0.0923 -0.1710979,0 -0.3173087,0.0415 -0.1462109,0.0405 -0.31005,0.13066 l -0.030072,-0.0394 q 0.212576,-0.10992 0.3733043,-0.22502 0.1607282,-0.1151 0.2115391,-0.20532 0.051848,-0.0913 0.051848,-0.23124 0,-0.0508 -0.00207,-0.15036 -0.00207,-0.0695 -0.00207,-0.14414 0,-0.13169 0.014517,-0.19391 0.015554,-0.0622 0.064291,-0.1431 h -0.026961 q -0.1265087,0.0726 -0.1690239,0.13273 -0.041478,0.0591 -0.041478,0.1514 l 0.0083,0.36812 q 0,0.14725 -0.088141,0.26442 -0.088141,0.11614 -0.4230782,0.33598 l -0.030072,-0.0404 q 0.1690239,-0.11821 0.2229457,-0.19391 0.053922,-0.0757 0.053922,-0.15865 0,-0.0716 -0.045626,-0.12132 -0.045626,-0.0508 -0.1005847,-0.0508 -0.027998,0 -0.051848,0.0156 -0.02385,0.0155 -0.064291,0.0643 l -0.033183,-0.0332 q 0.035257,-0.0892 0.093326,-0.13066 0.059106,-0.0415 0.1410261,-0.0415 0.02385,0 0.051848,0.005 0.029035,0.005 0.062217,0.0156 -0.00207,-0.0601 -0.00207,-0.10473 0,-0.1628 0.065328,-0.26442 0.066365,-0.10266 0.2530174,-0.21362 -0.1710978,0.0176 -0.2955326,0.0176 -0.1316934,0 -0.2260565,-0.0373 -0.070513,-0.029 -0.1036956,-0.0923 -0.033183,-0.0643 -0.039404,-0.17524 z m 0.8399348,0.28723 q -0.044589,0.0757 -0.060143,0.1317 -0.020739,0.0767 -0.020739,0.1431 l 0.0083,0.40856 q 0,0.0788 -0.039404,0.16072 -0.030072,0.0612 -0.1130283,0.14933 0.1513956,-0.0249 0.2312413,-0.0239 l 0.059107,0.001 v -0.97059 z m 0.118213,0.39819 q 0.063254,0.0446 0.1099174,0.0612 0.0477,0.0166 0.1026587,0.0166 0.054959,0 0.1026586,-0.0166 0.0477,-0.0176 0.1119913,-0.0612 -0.019702,-0.23331 -0.1202869,-0.31523 -0.1005848,-0.083 -0.3069391,-0.083 z m 0,0.3422 q 0.070513,-0.0404 0.1202869,-0.055 0.049774,-0.0156 0.1088805,-0.0156 0.057033,0 0.1057695,0.0145 0.048737,0.0135 0.1171761,0.0519 l -0.017628,-0.28101 q -0.066365,0.0404 -0.1151021,0.056 -0.0477,0.0145 -0.1047326,0.0145 -0.054959,0 -0.1088805,-0.0176 -0.053922,-0.0176 -0.1057695,-0.0529 z m 0,0.23331 q 0.1265087,0.0104 0.2053174,0.0259 0.079846,0.0145 0.2488695,0.0622 0.00207,-0.15658 0.00207,-0.16177 0,-0.0124 -0.00207,-0.0995 -0.066365,-0.0456 -0.1171761,-0.0632 -0.049774,-0.0176 -0.1088804,-0.0176 -0.060143,0 -0.1119913,0.0176 -0.050811,0.0176 -0.1161391,0.0632 z"
           style="font-style:normal;font-variant:normal;font-weight:normal;font-stretch:normal;font-family:'Old English Text MT';-inkscape-font-specification:'Old English Text MT';stroke-width:0.05309217"
           id="path5028" />
        <path
           d="m 8.1523553,290.79456 -0.1576173,-0.15762 0.1576173,-0.15866 0.1586544,0.15866 z"
           style="font-style:normal;font-variant:normal;font-weight:normal;font-stretch:normal;font-family:'Old English Text MT';-inkscape-font-specification:'Old English Text MT';stroke-width:0.05309217"
           id="path5030" />
        <path
           d="m 9.6829032,289.22357 0.02385,0.0373 q -0.11925,0.0176 -0.1783565,0.0695 -0.059107,0.0508 -0.059107,0.1514 0,0.055 0.011406,0.15865 0.020739,0.17836 0.020739,0.29139 0,0.15243 -0.068439,0.26753 -0.067402,0.11407 -0.3173087,0.32768 0.1638391,-0.0529 0.2944957,-0.0529 0.1192499,0 0.213613,0.0332 0.0954,0.0321 0.2115391,0.11303 l 0.1036956,-0.0933 0.030072,0.0363 -0.2685717,0.23125 q -0.1099174,-0.0819 -0.2198348,-0.11925 -0.1088804,-0.0384 -0.2550913,-0.0384 -0.1358413,0 -0.2561282,0.0321 -0.11925,0.0322 -0.3079761,0.12548 l -0.020739,-0.029 q 0.1876891,-0.13895 0.2488695,-0.22191 0.061181,-0.084 0.061181,-0.15762 0,-0.0705 -0.044589,-0.11717 -0.044589,-0.0477 -0.1026587,-0.0477 -0.029035,0 -0.066365,0.0176 l -0.031109,-0.0301 q 0.038367,-0.0342 0.070513,-0.0477 0.032146,-0.0135 0.074661,-0.0135 0.024887,0 0.050811,0.007 0.025924,0.006 0.051848,0.0207 0.00207,-0.0239 0.00207,-0.0384 0,-0.0664 -0.049774,-0.11511 -0.049774,-0.0487 -0.1223608,-0.0487 -0.051848,0 -0.1068065,0.0415 l -0.036293,-0.0249 q 0.038367,-0.0508 0.078809,-0.0716 0.064291,-0.0342 0.1368782,-0.0342 0.015554,0 0.03422,0.003 0.018665,0.002 0.039404,0.007 -0.00622,-0.0633 -0.00622,-0.10577 0,-0.12547 0.03733,-0.21362 0.038367,-0.0881 0.1306565,-0.18354 -0.099548,0.0353 -0.1690239,0.0353 -0.068439,0 -0.1731717,-0.0322 -0.0477,-0.0145 -0.075698,-0.0145 -0.053922,0 -0.091252,0.0342 -0.036294,0.0342 -0.036294,0.0819 0,0.0176 0.00933,0.0415 l -0.044589,0.0156 q -0.011407,-0.0487 -0.011407,-0.0809 0,-0.10059 0.077772,-0.17421 0.077772,-0.0747 0.1866522,-0.0747 0.049774,0 0.1534695,0.0373 0.1047326,0.0373 0.1628022,0.0373 0.1057696,0 0.2011696,-0.0747 l 0.030072,0.0373 q -0.1036957,0.0778 -0.1462109,0.15347 -0.041478,0.0757 -0.041478,0.18354 0,0.0798 0.010369,0.18458 0.020739,0.19702 0.020739,0.26753 0,0.15036 -0.048737,0.27272 -0.048737,0.12132 -0.1762826,0.28102 0.1939109,-0.13792 0.2779043,-0.28309 0.08503,-0.14518 0.08503,-0.32664 0,-0.10266 -0.014517,-0.22502 -0.014517,-0.1234 -0.014517,-0.2074 0,-0.0747 0.035257,-0.14724 0.035256,-0.0726 0.093326,-0.11407 0.05807,-0.0415 0.1285826,-0.0601 0.052885,-0.0135 0.1617652,-0.0166 z"
           style="font-style:normal;font-variant:normal;font-weight:normal;font-stretch:normal;font-family:'Old English Text MT';-inkscape-font-specification:'Old English Text MT';stroke-width:0.05309217"
           id="path5032" />
        <path
           d="m 10.296781,290.79456 -0.157617,-0.15762 0.157617,-0.15866 0.158655,0.15866 z"
           style="font-style:normal;font-variant:normal;font-weight:normal;font-stretch:normal;font-family:'Old English Text MT';-inkscape-font-specification:'Old English Text MT';stroke-width:0.05309217"
           id="path5034" />
      </g>
    </g>
  </g>
</svg>
