  0
SECTION
  2
HEADER
  9
$ACADVER
  1
AC1014
  9
$HANDSEED
  5
FFFF
  9
$MEASUREMENT
 70
     1
  0
ENDSEC
  0
SECTION
  2
TABLES
  0
TABLE
  2
VPORT
  5
8
330
0
100
AcDbSymbolTable
 70
     4
  0
VPORT
  5
2E
330
8
100
AcDbSymbolTableRecord
100
AcDbViewportTableRecord
  2
*ACTIVE
 70
     0
 10
0.0
 20
0.0
 11
1.0
 21
1.0
 12
210.0
 22
148.5
 13
0.0
 23
0.0
 14
10.0
 24
10.0
 15
10.0
 25
10.0
 16
0.0
 26
0.0
 36
1.0
 17
0.0
 27
0.0
 37
0.0
 40
341.0
 41
1.24
 42
50.0
 43
0.0
 44
0.0
 50
0.0
 51
0.0
 71
     0
 72
   100
 73
     1
 74
     3
 75
     0
 76
     0
 77
     0
 78
     0
  0
ENDTAB
  0
TABLE
  2
LTYPE
  5
5
330
0
100
AcDbSymbolTable
 70
     1
  0
LTYPE
  5
14
330
5
100
AcDbSymbolTableRecord
100
AcDbLinetypeTableRecord
  2
BYBLOCK
 70
     0
  3

 72
    65
 73
     0
 40
0.0
  0
LTYPE
  5
15
330
5
100
AcDbSymbolTableRecord
100
AcDbLinetypeTableRecord
  2
BYLAYER
 70
     0
  3

 72
    65
 73
     0
 40
0.0
  0
LTYPE
  5
16
330
5
100
AcDbSymbolTableRecord
100
AcDbLinetypeTableRecord
  2
CONTINUOUS
 70
     0
  3
Solid line
 72
    65
 73
     0
 40
0.0
  0
ENDTAB
  0
TABLE
  2
LAYER
  5
2
100
AcDbSymbolTable
 70
2
  0
LAYER
  5
50
100
AcDbSymbolTableRecord
100
AcDbLayerTableRecord
  2
0
 70
0
  6
CONTINUOUS
  0
LAYER
  5
51
100
AcDbSymbolTableRecord
100
AcDbLayerTableRecord
  2
Layer_1
 70
0
  6
CONTINUOUS
  0
ENDTAB
  0
TABLE
  2
STYLE
  5
3
330
0
100
AcDbSymbolTable
 70
     1
  0
STYLE
  5
11
330
3
100
AcDbSymbolTableRecord
100
AcDbTextStyleTableRecord
  2
STANDARD
 70
     0
 40
0.0
 41
1.0
 50
0.0
 71
     0
 42
2.5
  3
txt
  4

  0
ENDTAB
  0
TABLE
  2
VIEW
  5
6
330
0
100
AcDbSymbolTable
 70
     0
  0
ENDTAB
  0
TABLE
  2
UCS
  5
7
330
0
100
AcDbSymbolTable
 70
     0
  0
ENDTAB
  0
TABLE
  2
APPID
  5
9
330
0
100
AcDbSymbolTable
 70
     2
  0
APPID
  5
12
330
9
100
AcDbSymbolTableRecord
100
AcDbRegAppTableRecord
  2
ACAD
 70
     0
  0
ENDTAB
  0
TABLE
  2
DIMSTYLE
  5
A
330
0
100
AcDbSymbolTable
 70
     1
  0
DIMSTYLE
105
27
330
A
100
AcDbSymbolTableRecord
100
AcDbDimStyleTableRecord
  2
ISO-25
 70
     0
  3

  4

  5

  6

  7

 40
1.0
 41
2.5
 42
0.625
 43
3.75
 44
1.25
 45
0.0
 46
0.0
 47
0.0
 48
0.0
140
2.5
141
2.5
142
0.0
143
0.03937007874016
144
1.0
145
0.0
146
1.0
147
0.625
 71
     0
 72
     0
 73
     0
 74
     0
 75
     0
 76
     0
 77
     1
 78
     8
170
     0
171
     3
172
     1
173
     0
174
     0
175
     0
176
     0
177
     0
178
     0
270
     2
271
     2
272
     2
273
     2
274
     3
340
11
275
     0
280
     0
281
     0
282
     0
283
     0
284
     8
285
     0
286
     0
287
     3
288
     0
  0
ENDTAB
  0
TABLE
  2
BLOCK_RECORD
  5
1
330
0
100
AcDbSymbolTable
 70
     1
  0
BLOCK_RECORD
  5
1F
330
1
100
AcDbSymbolTableRecord
100
AcDbBlockTableRecord
  2
*MODEL_SPACE
  0
BLOCK_RECORD
  5
1B
330
1
100
AcDbSymbolTableRecord
100
AcDbBlockTableRecord
  2
*PAPER_SPACE
  0
ENDTAB
  0
ENDSEC
  0
SECTION
  2
BLOCKS
  0
BLOCK
  5
20
330
1F
100
AcDbEntity
  8
0
100
AcDbBlockBegin
  2
*MODEL_SPACE
 70
     0
 10
0.0
 20
0.0
 30
0.0
  3
*MODEL_SPACE
  1

  0
ENDBLK
  5
21
330
1F
100
AcDbEntity
  8
0
100
AcDbBlockEnd
  0
BLOCK
  5
1C
330
1B
100
AcDbEntity
 67
     1
  8
0
100
AcDbBlockBegin
  2
*PAPER_SPACE
  1

  0
ENDBLK
  5
1D
330
1B
100
AcDbEntity
 67
     1
  8
0
100
AcDbBlockEnd
  0
ENDSEC
  0
SECTION
  2
ENTITIES
  0
SPLINE
  5
100
100
AcDbEntity
  8
Layer_1
 62
7
100
AcDbSpline
 70
8
 71
3
 72
8
 73
4
 74
0
 40
0
 40
0
 40
0
 40
0
 40
1
 40
1
 40
1
 40
1
 10
7.479963
 20
11.489161
 30
0.0
 10
7.231493
 20
11.476377
 30
0.0
 10
6.872004
 20
11.432991
 30
0.0
 10
6.563748
 20
11.408361
 30
0.0
  0
SPLINE
  5
101
100
AcDbEntity
  8
Layer_1
 62
7
100
AcDbSpline
 70
8
 71
3
 72
8
 73
4
 74
0
 40
0
 40
0
 40
0
 40
0
 40
1
 40
1
 40
1
 40
1
 10
6.563748
 20
11.408361
 30
0.0
 10
6.399285
 20
11.395222
 30
0.0
 10
6.259922
 20
11.359070
 30
0.0
 10
6.113486
 20
11.276126
 30
0.0
  0
SPLINE
  5
102
100
AcDbEntity
  8
Layer_1
 62
7
100
AcDbSpline
 70
8
 71
3
 72
8
 73
4
 74
0
 40
0
 40
0
 40
0
 40
0
 40
1
 40
1
 40
1
 40
1
 10
6.113486
 20
11.276126
 30
0.0
 10
5.897184
 20
11.153613
 30
0.0
 10
5.666610
 20
11.037135
 30
0.0
 10
5.463000
 20
10.895533
 30
0.0
  0
SPLINE
  5
103
100
AcDbEntity
  8
Layer_1
 62
7
100
AcDbSpline
 70
8
 71
3
 72
8
 73
4
 74
0
 40
0
 40
0
 40
0
 40
0
 40
1
 40
1
 40
1
 40
1
 10
5.463000
 20
10.895533
 30
0.0
 10
5.129597
 20
10.663682
 30
0.0
 10
4.828254
 20
10.392268
 30
0.0
 10
4.525997
 20
10.122874
 30
0.0
  0
SPLINE
  5
104
100
AcDbEntity
  8
Layer_1
 62
7
100
AcDbSpline
 70
8
 71
3
 72
8
 73
4
 74
0
 40
0
 40
0
 40
0
 40
0
 40
1
 40
1
 40
1
 40
1
 10
4.525997
 20
10.122874
 30
0.0
 10
4.401721
 20
10.012115
 30
0.0
 10
4.313847
 20
9.866801
 30
0.0
 10
4.212015
 20
9.735534
 30
0.0
  0
SPLINE
  5
105
100
AcDbEntity
  8
Layer_1
 62
7
100
AcDbSpline
 70
8
 71
3
 72
8
 73
4
 74
0
 40
0
 40
0
 40
0
 40
0
 40
1
 40
1
 40
1
 40
1
 10
4.212015
 20
9.735534
 30
0.0
 10
4.162656
 20
9.671911
 30
0.0
 10
4.135153
 20
9.611608
 30
0.0
 10
4.131940
 20
9.534206
 30
0.0
  0
SPLINE
  5
106
100
AcDbEntity
  8
Layer_1
 62
7
100
AcDbSpline
 70
8
 71
3
 72
8
 73
4
 74
0
 40
0
 40
0
 40
0
 40
0
 40
1
 40
1
 40
1
 40
1
 10
4.131940
 20
9.534206
 30
0.0
 10
4.124454
 20
9.353695
 30
0.0
 10
4.099229
 20
9.185882
 30
0.0
 10
4.207959
 20
9.041602
 30
0.0
  0
SPLINE
  5
107
100
AcDbEntity
  8
Layer_1
 62
7
100
AcDbSpline
 70
8
 71
3
 72
8
 73
4
 74
0
 40
0
 40
0
 40
0
 40
0
 40
1
 40
1
 40
1
 40
1
 10
4.207959
 20
9.041602
 30
0.0
 10
4.321972
 20
8.890307
 30
0.0
 10
4.466894
 20
8.775795
 30
0.0
 10
4.655619
 20
8.759277
 30
0.0
  0
SPLINE
  5
108
100
AcDbEntity
  8
Layer_1
 62
7
100
AcDbSpline
 70
8
 71
3
 72
8
 73
4
 74
0
 40
0
 40
0
 40
0
 40
0
 40
1
 40
1
 40
1
 40
1
 10
4.655619
 20
8.759277
 30
0.0
 10
4.777247
 20
8.748634
 30
0.0
 10
4.915599
 20
8.824237
 30
0.0
 10
4.981105
 20
8.927268
 30
0.0
  0
SPLINE
  5
109
100
AcDbEntity
  8
Layer_1
 62
7
100
AcDbSpline
 70
8
 71
3
 72
8
 73
4
 74
0
 40
0
 40
0
 40
0
 40
0
 40
1
 40
1
 40
1
 40
1
 10
4.981105
 20
8.927268
 30
0.0
 10
5.262450
 20
9.369796
 30
0.0
 10
5.377930
 20
9.904956
 30
0.0
 10
5.663545
 20
10.344711
 30
0.0
  0
SPLINE
  5
10a
100
AcDbEntity
  8
Layer_1
 62
7
100
AcDbSpline
 70
8
 71
3
 72
8
 73
4
 74
0
 40
0
 40
0
 40
0
 40
0
 40
1
 40
1
 40
1
 40
1
 10
5.663545
 20
10.344711
 30
0.0
 10
5.774707
 20
10.515856
 30
0.0
 10
5.960932
 20
10.635131
 30
0.0
 10
6.141585
 20
10.728653
 30
0.0
  0
SPLINE
  5
10b
100
AcDbEntity
  8
Layer_1
 62
7
100
AcDbSpline
 70
8
 71
3
 72
8
 73
4
 74
0
 40
0
 40
0
 40
0
 40
0
 40
1
 40
1
 40
1
 40
1
 10
6.141585
 20
10.728653
 30
0.0
 10
6.290962
 20
10.805985
 30
0.0
 10
6.444359
 20
10.903795
 30
0.0
 10
6.611037
 20
10.922183
 30
0.0
  0
SPLINE
  5
10c
100
AcDbEntity
  8
Layer_1
 62
7
100
AcDbSpline
 70
8
 71
3
 72
8
 73
4
 74
0
 40
0
 40
0
 40
0
 40
0
 40
1
 40
1
 40
1
 40
1
 10
6.611037
 20
10.922183
 30
0.0
 10
6.885944
 20
10.952509
 30
0.0
 10
7.248813
 20
10.954174
 30
0.0
 10
7.427471
 20
10.922183
 30
0.0
  0
SPLINE
  5
10d
100
AcDbEntity
  8
Layer_1
 62
7
100
AcDbSpline
 70
8
 71
3
 72
8
 73
4
 74
0
 40
0
 40
0
 40
0
 40
0
 40
1
 40
1
 40
1
 40
1
 10
7.427471
 20
10.922183
 30
0.0
 10
7.614301
 20
10.888725
 30
0.0
 10
7.669514
 20
11.498907
 30
0.0
 10
7.479968
 20
11.489155
 30
0.0
  0
SPLINE
  5
10e
100
AcDbEntity
  8
Layer_1
 62
7
100
AcDbSpline
 70
8
 71
3
 72
8
 73
4
 74
0
 40
0
 40
0
 40
0
 40
0
 40
1
 40
1
 40
1
 40
1
 10
4.575585
 20
8.835427
 30
0.0
 10
4.637890
 20
8.684975
 30
0.0
 10
4.754801
 20
8.483979
 30
0.0
 10
4.787254
 20
8.189514
 30
0.0
  0
SPLINE
  5
10f
100
AcDbEntity
  8
Layer_1
 62
7
100
AcDbSpline
 70
8
 71
3
 72
8
 73
4
 74
0
 40
0
 40
0
 40
0
 40
0
 40
1
 40
1
 40
1
 40
1
 10
4.787254
 20
8.189514
 30
0.0
 10
4.740354
 20
8.000546
 30
0.0
 10
4.576666
 20
7.836107
 30
0.0
 10
4.612386
 20
7.630377
 30
0.0
  0
SPLINE
  5
110
100
AcDbEntity
  8
Layer_1
 62
7
100
AcDbSpline
 70
8
 71
3
 72
8
 73
4
 74
0
 40
0
 40
0
 40
0
 40
0
 40
1
 40
1
 40
1
 40
1
 10
4.612386
 20
7.630377
 30
0.0
 10
4.631745
 20
7.290309
 30
0.0
 10
4.813269
 20
7.514974
 30
0.0
 10
4.919472
 20
7.607552
 30
0.0
  0
SPLINE
  5
111
100
AcDbEntity
  8
Layer_1
 62
7
100
AcDbSpline
 70
8
 71
3
 72
8
 73
4
 74
0
 40
0
 40
0
 40
0
 40
0
 40
1
 40
1
 40
1
 40
1
 10
4.919472
 20
7.607552
 30
0.0
 10
5.101676
 20
7.710405
 30
0.0
 10
5.288821
 20
7.731371
 30
0.0
 10
5.293697
 20
7.960300
 30
0.0
  0
SPLINE
  5
112
100
AcDbEntity
  8
Layer_1
 62
7
100
AcDbSpline
 70
8
 71
3
 72
8
 73
4
 74
0
 40
0
 40
0
 40
0
 40
0
 40
1
 40
1
 40
1
 40
1
 10
5.293697
 20
7.960300
 30
0.0
 10
5.303260
 20
8.271211
 30
0.0
 10
5.178936
 20
8.555193
 30
0.0
 10
5.176578
 20
8.857509
 30
0.0
  0
SPLINE
  5
113
100
AcDbEntity
  8
Layer_1
 62
7
100
AcDbSpline
 70
8
 71
3
 72
8
 73
4
 74
0
 40
0
 40
0
 40
0
 40
0
 40
1
 40
1
 40
1
 40
1
 10
5.176578
 20
8.857509
 30
0.0
 10
5.257484
 20
9.224334
 30
0.0
 10
5.449435
 20
9.493800
 30
0.0
 10
5.704165
 20
9.742127
 30
0.0
  0
SPLINE
  5
114
100
AcDbEntity
  8
Layer_1
 62
7
100
AcDbSpline
 70
8
 71
3
 72
8
 73
4
 74
0
 40
0
 40
0
 40
0
 40
0
 40
1
 40
1
 40
1
 40
1
 10
5.704165
 20
9.742127
 30
0.0
 10
5.561844
 20
9.486940
 30
0.0
 10
5.382426
 20
9.249024
 30
0.0
 10
5.289124
 20
8.969230
 30
0.0
  0
SPLINE
  5
115
100
AcDbEntity
  8
Layer_1
 62
7
100
AcDbSpline
 70
8
 71
3
 72
8
 73
4
 74
0
 40
0
 40
0
 40
0
 40
0
 40
1
 40
1
 40
1
 40
1
 10
5.289124
 20
8.969230
 30
0.0
 10
5.243293
 20
8.762128
 30
0.0
 10
5.301147
 20
8.585757
 30
0.0
 10
5.320615
 20
8.393902
 30
0.0
  0
SPLINE
  5
116
100
AcDbEntity
  8
Layer_1
 62
7
100
AcDbSpline
 70
8
 71
3
 72
8
 73
4
 74
0
 40
0
 40
0
 40
0
 40
0
 40
1
 40
1
 40
1
 40
1
 10
5.320615
 20
8.393902
 30
0.0
 10
5.337398
 20
8.195733
 30
0.0
 10
5.439855
 20
7.980756
 30
0.0
 10
5.387517
 20
7.797584
 30
0.0
  0
SPLINE
  5
117
100
AcDbEntity
  8
Layer_1
 62
7
100
AcDbSpline
 70
8
 71
3
 72
8
 73
4
 74
0
 40
0
 40
0
 40
0
 40
0
 40
1
 40
1
 40
1
 40
1
 10
5.387517
 20
7.797584
 30
0.0
 10
5.242292
 20
7.626119
 30
0.0
 10
5.015026
 20
7.580088
 30
0.0
 10
4.880765
 20
7.434988
 30
0.0
  0
SPLINE
  5
118
100
AcDbEntity
  8
Layer_1
 62
7
100
AcDbSpline
 70
8
 71
3
 72
8
 73
4
 74
0
 40
0
 40
0
 40
0
 40
0
 40
1
 40
1
 40
1
 40
1
 10
4.880765
 20
7.434988
 30
0.0
 10
4.737055
 20
7.300834
 30
0.0
 10
4.945166
 20
7.185568
 30
0.0
 10
5.028728
 20
7.099327
 30
0.0
  0
SPLINE
  5
119
100
AcDbEntity
  8
Layer_1
 62
7
100
AcDbSpline
 70
8
 71
3
 72
8
 73
4
 74
0
 40
0
 40
0
 40
0
 40
0
 40
1
 40
1
 40
1
 40
1
 10
5.028728
 20
7.099327
 30
0.0
 10
5.091900
 20
6.962192
 30
0.0
 10
5.430768
 20
6.900802
 30
0.0
 10
5.634549
 20
6.924815
 30
0.0
  0
SPLINE
  5
11a
100
AcDbEntity
  8
Layer_1
 62
7
100
AcDbSpline
 70
8
 71
3
 72
8
 73
4
 74
0
 40
0
 40
0
 40
0
 40
0
 40
1
 40
1
 40
1
 40
1
 10
5.634549
 20
6.924815
 30
0.0
 10
5.874027
 20
6.950677
 30
0.0
 10
6.022376
 20
6.962040
 30
0.0
 10
6.275888
 20
6.957388
 30
0.0
  0
SPLINE
  5
11b
100
AcDbEntity
  8
Layer_1
 62
7
100
AcDbSpline
 70
8
 71
3
 72
8
 73
4
 74
0
 40
0
 40
0
 40
0
 40
0
 40
1
 40
1
 40
1
 40
1
 10
6.275888
 20
6.957388
 30
0.0
 10
6.346229
 20
6.956099
 30
0.0
 10
6.538138
 20
7.059944
 30
0.0
 10
6.673574
 20
7.185670
 30
0.0
  0
SPLINE
  5
11c
100
AcDbEntity
  8
Layer_1
 62
7
100
AcDbSpline
 70
8
 71
3
 72
8
 73
4
 74
0
 40
0
 40
0
 40
0
 40
0
 40
1
 40
1
 40
1
 40
1
 10
6.673574
 20
7.185670
 30
0.0
 10
6.824655
 20
7.325917
 30
0.0
 10
6.894034
 20
7.467092
 30
0.0
 10
6.917684
 20
7.491420
 30
0.0
  0
SPLINE
  5
11d
100
AcDbEntity
  8
Layer_1
 62
7
100
AcDbSpline
 70
8
 71
3
 72
8
 73
4
 74
0
 40
0
 40
0
 40
0
 40
0
 40
1
 40
1
 40
1
 40
1
 10
6.917684
 20
7.491420
 30
0.0
 10
6.943190
 20
7.046206
 30
0.0
 10
6.609221
 20
7.176197
 30
0.0
 10
6.801509
 20
6.979608
 30
0.0
  0
SPLINE
  5
11e
100
AcDbEntity
  8
Layer_1
 62
7
100
AcDbSpline
 70
8
 71
3
 72
8
 73
4
 74
0
 40
0
 40
0
 40
0
 40
0
 40
1
 40
1
 40
1
 40
1
 10
6.801509
 20
6.979608
 30
0.0
 10
6.938680
 20
6.826163
 30
0.0
 10
6.909423
 20
6.596295
 30
0.0
 10
6.946604
 20
6.406269
 30
0.0
  0
SPLINE
  5
11f
100
AcDbEntity
  8
Layer_1
 62
7
100
AcDbSpline
 70
8
 71
3
 72
8
 73
4
 74
0
 40
0
 40
0
 40
0
 40
0
 40
1
 40
1
 40
1
 40
1
 10
6.946604
 20
6.406269
 30
0.0
 10
6.952032
 20
6.324091
 30
0.0
 10
6.866510
 20
6.024643
 30
0.0
 10
6.866510
 20
6.024643
 30
0.0
  0
SPLINE
  5
120
100
AcDbEntity
  8
Layer_1
 62
7
100
AcDbSpline
 70
8
 71
3
 72
8
 73
4
 74
0
 40
0
 40
0
 40
0
 40
0
 40
1
 40
1
 40
1
 40
1
 10
6.866510
 20
6.024643
 30
0.0
 10
6.866510
 20
6.024643
 30
0.0
 10
6.884072
 20
6.494131
 30
0.0
 10
6.719729
 20
6.600316
 30
0.0
  0
SPLINE
  5
121
100
AcDbEntity
  8
Layer_1
 62
7
100
AcDbSpline
 70
8
 71
3
 72
8
 73
4
 74
0
 40
0
 40
0
 40
0
 40
0
 40
1
 40
1
 40
1
 40
1
 10
6.719729
 20
6.600316
 30
0.0
 10
6.598001
 20
6.721706
 30
0.0
 10
6.445797
 20
6.862262
 30
0.0
 10
6.253259
 20
6.864282
 30
0.0
  0
SPLINE
  5
122
100
AcDbEntity
  8
Layer_1
 62
7
100
AcDbSpline
 70
8
 71
3
 72
8
 73
4
 74
0
 40
0
 40
0
 40
0
 40
0
 40
1
 40
1
 40
1
 40
1
 10
6.253259
 20
6.864282
 30
0.0
 10
5.874324
 20
6.868249
 30
0.0
 10
5.478046
 20
6.781177
 30
0.0
 10
5.143062
 20
6.841431
 30
0.0
  0
SPLINE
  5
123
100
AcDbEntity
  8
Layer_1
 62
7
100
AcDbSpline
 70
8
 71
3
 72
8
 73
4
 74
0
 40
0
 40
0
 40
0
 40
0
 40
1
 40
1
 40
1
 40
1
 10
5.143062
 20
6.841431
 30
0.0
 10
4.978297
 20
6.931128
 30
0.0
 10
4.822963
 20
7.034771
 30
0.0
 10
4.656784
 20
7.231437
 30
0.0
  0
SPLINE
  5
124
100
AcDbEntity
  8
Layer_1
 62
7
100
AcDbSpline
 70
8
 71
3
 72
8
 73
4
 74
0
 40
0
 40
0
 40
0
 40
0
 40
1
 40
1
 40
1
 40
1
 10
4.656784
 20
7.231437
 30
0.0
 10
4.520331
 20
7.406353
 30
0.0
 10
4.492725
 20
7.623879
 30
0.0
 10
4.462357
 20
7.829656
 30
0.0
  0
SPLINE
  5
125
100
AcDbEntity
  8
Layer_1
 62
7
100
AcDbSpline
 70
8
 71
3
 72
8
 73
4
 74
0
 40
0
 40
0
 40
0
 40
0
 40
1
 40
1
 40
1
 40
1
 10
4.462357
 20
7.829656
 30
0.0
 10
4.506575
 20
8.009490
 30
0.0
 10
4.709330
 20
8.147777
 30
0.0
 10
4.642684
 20
8.353008
 30
0.0
  0
SPLINE
  5
126
100
AcDbEntity
  8
Layer_1
 62
7
100
AcDbSpline
 70
8
 71
3
 72
8
 73
4
 74
0
 40
0
 40
0
 40
0
 40
0
 40
1
 40
1
 40
1
 40
1
 10
4.642684
 20
8.353008
 30
0.0
 10
4.613566
 20
8.518374
 30
0.0
 10
4.422456
 20
8.629203
 30
0.0
 10
4.427890
 20
8.830502
 30
0.0
  0
SPLINE
  5
127
100
AcDbEntity
  8
Layer_1
 62
7
100
AcDbSpline
 70
8
 71
3
 72
8
 73
4
 74
0
 40
0
 40
0
 40
0
 40
0
 40
1
 40
1
 40
1
 40
1
 10
4.427890
 20
8.830502
 30
0.0
 10
4.475991
 20
8.845792
 30
0.0
 10
4.526461
 20
8.832979
 30
0.0
 10
4.575633
 20
8.835378
 30
0.0
  0
LWPOLYLINE
  5
128
100
AcDbEntity
  8
Layer_1
 62
7
100
AcDbPolyline
 90
1
 70
1
 10
7.479968
 20
11.489155
 30
0.0
  0
SPLINE
  5
129
100
AcDbEntity
  8
Layer_1
 62
7
100
AcDbSpline
 70
8
 71
3
 72
8
 73
4
 74
0
 40
0
 40
0
 40
0
 40
0
 40
1
 40
1
 40
1
 40
1
 10
4.896314
 20
7.061915
 30
0.0
 10
4.921116
 20
6.483480
 30
0.0
 10
5.244632
 20
6.265795
 30
0.0
 10
5.600373
 20
6.221071
 30
0.0
  0
SPLINE
  5
12a
100
AcDbEntity
  8
Layer_1
 62
7
100
AcDbSpline
 70
8
 71
3
 72
8
 73
4
 74
0
 40
0
 40
0
 40
0
 40
0
 40
1
 40
1
 40
1
 40
1
 10
5.600373
 20
6.221071
 30
0.0
 10
5.817376
 20
6.193798
 30
0.0
 10
6.045349
 20
6.159206
 30
0.0
 10
6.315420
 20
6.209189
 30
0.0
  0
SPLINE
  5
12b
100
AcDbEntity
  8
Layer_1
 62
7
100
AcDbSpline
 70
8
 71
3
 72
8
 73
4
 74
0
 40
0
 40
0
 40
0
 40
0
 40
1
 40
1
 40
1
 40
1
 10
6.315420
 20
6.209189
 30
0.0
 10
6.533534
 20
6.249554
 30
0.0
 10
6.671412
 20
6.465843
 30
0.0
 10
6.714312
 20
6.652733
 30
0.0
  0
SPLINE
  5
12c
100
AcDbEntity
  8
Layer_1
 62
7
100
AcDbSpline
 70
8
 71
3
 72
8
 73
4
 74
0
 40
0
 40
0
 40
0
 40
0
 40
1
 40
1
 40
1
 40
1
 10
6.714312
 20
6.652733
 30
0.0
 10
6.687574
 20
6.396649
 30
0.0
 10
6.542045
 20
6.187569
 30
0.0
 10
6.316834
 20
6.147567
 30
0.0
  0
SPLINE
  5
12d
100
AcDbEntity
  8
Layer_1
 62
7
100
AcDbSpline
 70
8
 71
3
 72
8
 73
4
 74
0
 40
0
 40
0
 40
0
 40
0
 40
1
 40
1
 40
1
 40
1
 10
6.316834
 20
6.147567
 30
0.0
 10
6.108806
 20
6.110616
 30
0.0
 10
5.844513
 20
6.121609
 30
0.0
 10
5.595432
 20
6.130933
 30
0.0
  0
SPLINE
  5
12e
100
AcDbEntity
  8
Layer_1
 62
7
100
AcDbSpline
 70
8
 71
3
 72
8
 73
4
 74
0
 40
0
 40
0
 40
0
 40
0
 40
1
 40
1
 40
1
 40
1
 10
5.595432
 20
6.130933
 30
0.0
 10
5.230312
 20
6.144600
 30
0.0
 10
4.933424
 20
6.476382
 30
0.0
 10
4.883889
 20
6.844436
 30
0.0
  0
SPLINE
  5
12f
100
AcDbEntity
  8
Layer_1
 62
7
100
AcDbSpline
 70
8
 71
3
 72
8
 73
4
 74
0
 40
0
 40
0
 40
0
 40
0
 40
1
 40
1
 40
1
 40
1
 10
4.883889
 20
6.844436
 30
0.0
 10
4.886775
 20
6.916980
 30
0.0
 10
4.893445
 20
6.989322
 30
0.0
 10
4.896240
 20
7.061872
 30
0.0
  0
LWPOLYLINE
  5
130
100
AcDbEntity
  8
Layer_1
 62
7
100
AcDbPolyline
 90
1
 70
1
 10
4.575633
 20
8.835378
 30
0.0
  0
LWPOLYLINE
  5
131
100
AcDbEntity
  8
Layer_1
 62
7
100
AcDbPolyline
 90
1
 70
1
 10
4.896240
 20
7.061872
 30
0.0
  0
SPLINE
  5
132
100
AcDbEntity
  8
Layer_1
 62
7
100
AcDbSpline
 70
8
 71
3
 72
8
 73
4
 74
0
 40
0
 40
0
 40
0
 40
0
 40
1
 40
1
 40
1
 40
1
 10
6.683926
 20
5.976972
 30
0.0
 10
6.627519
 20
6.053686
 30
0.0
 10
6.000714
 20
6.008791
 30
0.0
 10
5.663058
 20
6.037958
 30
0.0
  0
LWPOLYLINE
  5
133
100
AcDbEntity
  8
Layer_1
 62
7
100
AcDbPolyline
 90
4
 70
0
 10
5.663094
 20
6.037958
 30
0.0
 10
6.723696
 20
6.075080
 30
0.0
 10
6.882790
 20
5.706515
 30
0.0
 10
6.683926
 20
5.976972
 30
0.0
  0
SPLINE
  5
134
100
AcDbEntity
  8
Layer_1
 62
7
100
AcDbSpline
 70
8
 71
3
 72
8
 73
4
 74
0
 40
0
 40
0
 40
0
 40
0
 40
1
 40
1
 40
1
 40
1
 10
3.921061
 20
8.809293
 30
0.0
 10
4.065620
 20
8.576533
 30
0.0
 10
4.216571
 20
8.316374
 30
0.0
 10
4.221340
 20
8.031348
 30
0.0
  0
SPLINE
  5
135
100
AcDbEntity
  8
Layer_1
 62
7
100
AcDbSpline
 70
8
 71
3
 72
8
 73
4
 74
0
 40
0
 40
0
 40
0
 40
0
 40
1
 40
1
 40
1
 40
1
 10
4.221340
 20
8.031348
 30
0.0
 10
4.196562
 20
7.863606
 30
0.0
 10
4.106418
 20
7.681694
 30
0.0
 10
3.993112
 20
7.583289
 30
0.0
  0
SPLINE
  5
136
100
AcDbEntity
  8
Layer_1
 62
7
100
AcDbSpline
 70
8
 71
3
 72
8
 73
4
 74
0
 40
0
 40
0
 40
0
 40
0
 40
1
 40
1
 40
1
 40
1
 10
3.993112
 20
7.583289
 30
0.0
 10
3.854925
 20
7.430189
 30
0.0
 10
3.988135
 20
7.205922
 30
0.0
 10
4.145993
 20
7.186459
 30
0.0
  0
SPLINE
  5
137
100
AcDbEntity
  8
Layer_1
 62
7
100
AcDbSpline
 70
8
 71
3
 72
8
 73
4
 74
0
 40
0
 40
0
 40
0
 40
0
 40
1
 40
1
 40
1
 40
1
 10
4.145993
 20
7.186459
 30
0.0
 10
4.345534
 20
6.988420
 30
0.0
 10
4.579695
 20
6.767759
 30
0.0
 10
4.584263
 20
6.469986
 30
0.0
  0
SPLINE
  5
138
100
AcDbEntity
  8
Layer_1
 62
7
100
AcDbSpline
 70
8
 71
3
 72
8
 73
4
 74
0
 40
0
 40
0
 40
0
 40
0
 40
1
 40
1
 40
1
 40
1
 10
4.584263
 20
6.469986
 30
0.0
 10
4.612625
 20
6.234488
 30
0.0
 10
4.586532
 20
5.965171
 30
0.0
 10
4.788650
 20
5.766224
 30
0.0
  0
SPLINE
  5
139
100
AcDbEntity
  8
Layer_1
 62
7
100
AcDbSpline
 70
8
 71
3
 72
8
 73
4
 74
0
 40
0
 40
0
 40
0
 40
0
 40
1
 40
1
 40
1
 40
1
 10
4.788650
 20
5.766224
 30
0.0
 10
4.963881
 20
5.583094
 30
0.0
 10
5.187613
 20
5.281656
 30
0.0
 10
5.445135
 20
5.380910
 30
0.0
  0
SPLINE
  5
13a
100
AcDbEntity
  8
Layer_1
 62
7
100
AcDbSpline
 70
8
 71
3
 72
8
 73
4
 74
0
 40
0
 40
0
 40
0
 40
0
 40
1
 40
1
 40
1
 40
1
 10
5.445135
 20
5.380910
 30
0.0
 10
5.614396
 20
5.423390
 30
0.0
 10
5.721567
 20
5.599849
 30
0.0
 10
5.862231
 20
5.692545
 30
0.0
  0
SPLINE
  5
13b
100
AcDbEntity
  8
Layer_1
 62
7
100
AcDbSpline
 70
8
 71
3
 72
8
 73
4
 74
0
 40
0
 40
0
 40
0
 40
0
 40
1
 40
1
 40
1
 40
1
 10
5.862231
 20
5.692545
 30
0.0
 10
6.022565
 20
5.771932
 30
0.0
 10
6.141615
 20
5.727104
 30
0.0
 10
6.275496
 20
5.675531
 30
0.0
  0
SPLINE
  5
13c
100
AcDbEntity
  8
Layer_1
 62
7
100
AcDbSpline
 70
8
 71
3
 72
8
 73
4
 74
0
 40
0
 40
0
 40
0
 40
0
 40
1
 40
1
 40
1
 40
1
 10
6.275496
 20
5.675531
 30
0.0
 10
6.349798
 20
5.634935
 30
0.0
 10
6.420180
 20
5.413466
 30
0.0
 10
6.420180
 20
5.413466
 30
0.0
  0
SPLINE
  5
13d
100
AcDbEntity
  8
Layer_1
 62
7
100
AcDbSpline
 70
8
 71
3
 72
8
 73
4
 74
0
 40
0
 40
0
 40
0
 40
0
 40
1
 40
1
 40
1
 40
1
 10
6.420180
 20
5.413466
 30
0.0
 10
6.420180
 20
5.413466
 30
0.0
 10
6.182466
 20
5.830437
 30
0.0
 10
5.911124
 20
5.568586
 30
0.0
  0
SPLINE
  5
13e
100
AcDbEntity
  8
Layer_1
 62
7
100
AcDbSpline
 70
8
 71
3
 72
8
 73
4
 74
0
 40
0
 40
0
 40
0
 40
0
 40
1
 40
1
 40
1
 40
1
 10
5.911124
 20
5.568586
 30
0.0
 10
5.810296
 20
5.460191
 30
0.0
 10
5.720261
 20
5.350075
 30
0.0
 10
5.592961
 20
5.272844
 30
0.0
  0
SPLINE
  5
13f
100
AcDbEntity
  8
Layer_1
 62
7
100
AcDbSpline
 70
8
 71
3
 72
8
 73
4
 74
0
 40
0
 40
0
 40
0
 40
0
 40
1
 40
1
 40
1
 40
1
 10
5.592961
 20
5.272844
 30
0.0
 10
5.476233
 20
5.209975
 30
0.0
 10
5.335701
 20
5.214141
 30
0.0
 10
5.208668
 20
5.233569
 30
0.0
  0
SPLINE
  5
140
100
AcDbEntity
  8
Layer_1
 62
7
100
AcDbSpline
 70
8
 71
3
 72
8
 73
4
 74
0
 40
0
 40
0
 40
0
 40
0
 40
1
 40
1
 40
1
 40
1
 10
5.208668
 20
5.233569
 30
0.0
 10
5.029666
 20
5.286253
 30
0.0
 10
4.882060
 20
5.418059
 30
0.0
 10
4.763734
 20
5.557113
 30
0.0
  0
SPLINE
  5
141
100
AcDbEntity
  8
Layer_1
 62
7
100
AcDbSpline
 70
8
 71
3
 72
8
 73
4
 74
0
 40
0
 40
0
 40
0
 40
0
 40
1
 40
1
 40
1
 40
1
 10
4.763734
 20
5.557113
 30
0.0
 10
4.591325
 20
5.798729
 30
0.0
 10
4.460800
 20
6.100321
 30
0.0
 10
4.483774
 20
6.402649
 30
0.0
  0
SPLINE
  5
142
100
AcDbEntity
  8
Layer_1
 62
7
100
AcDbSpline
 70
8
 71
3
 72
8
 73
4
 74
0
 40
0
 40
0
 40
0
 40
0
 40
1
 40
1
 40
1
 40
1
 10
4.483774
 20
6.402649
 30
0.0
 10
4.502947
 20
6.580648
 30
0.0
 10
4.411437
 20
6.736332
 30
0.0
 10
4.317606
 20
6.884396
 30
0.0
  0
SPLINE
  5
143
100
AcDbEntity
  8
Layer_1
 62
7
100
AcDbSpline
 70
8
 71
3
 72
8
 73
4
 74
0
 40
0
 40
0
 40
0
 40
0
 40
1
 40
1
 40
1
 40
1
 10
4.317606
 20
6.884396
 30
0.0
 10
4.204264
 20
7.063244
 30
0.0
 10
3.974100
 20
7.105651
 30
0.0
 10
3.854557
 20
7.266140
 30
0.0
  0
SPLINE
  5
144
100
AcDbEntity
  8
Layer_1
 62
7
100
AcDbSpline
 70
8
 71
3
 72
8
 73
4
 74
0
 40
0
 40
0
 40
0
 40
0
 40
1
 40
1
 40
1
 40
1
 10
3.854557
 20
7.266140
 30
0.0
 10
3.809648
 20
7.385837
 30
0.0
 10
3.821084
 20
7.520306
 30
0.0
 10
3.915116
 20
7.643341
 30
0.0
  0
SPLINE
  5
145
100
AcDbEntity
  8
Layer_1
 62
7
100
AcDbSpline
 70
8
 71
3
 72
8
 73
4
 74
0
 40
0
 40
0
 40
0
 40
0
 40
1
 40
1
 40
1
 40
1
 10
3.915116
 20
7.643341
 30
0.0
 10
4.052720
 20
7.778617
 30
0.0
 10
4.208357
 20
7.969439
 30
0.0
 10
4.129796
 20
8.174896
 30
0.0
  0
SPLINE
  5
146
100
AcDbEntity
  8
Layer_1
 62
7
100
AcDbSpline
 70
8
 71
3
 72
8
 73
4
 74
0
 40
0
 40
0
 40
0
 40
0
 40
1
 40
1
 40
1
 40
1
 10
4.129796
 20
8.174896
 30
0.0
 10
4.066078
 20
8.367897
 30
0.0
 10
4.017143
 20
8.589592
 30
0.0
 10
3.921061
 20
8.809285
 30
0.0
  0
LWPOLYLINE
  5
147
100
AcDbEntity
  8
Layer_1
 62
7
100
AcDbPolyline
 90
1
 70
1
 10
5.663058
 20
6.037958
 30
0.0
  0
LWPOLYLINE
  5
148
100
AcDbEntity
  8
Layer_1
 62
7
100
AcDbPolyline
 90
1
 70
1
 10
3.921061
 20
8.809285
 30
0.0
  0
LWPOLYLINE
  5
149
100
AcDbEntity
  8
Layer_1
 62
7
100
AcDbPolyline
 90
5
 70
1
 10
6.410273
 20
10.289991
 30
0.0
 10
6.407054
 20
10.056780
 30
0.0
 10
6.363137
 20
10.267653
 30
0.0
 10
5.960925
 20
10.701207
 30
0.0
 10
6.002560
 20
10.750714
 30
0.0
  0
SPLINE
  5
14a
100
AcDbEntity
  8
Layer_1
 62
7
100
AcDbSpline
 70
8
 71
3
 72
8
 73
4
 74
0
 40
0
 40
0
 40
0
 40
0
 40
1
 40
1
 40
1
 40
1
 10
3.483325
 20
13.661208
 30
0.0
 10
3.483325
 20
13.661208
 30
0.0
 10
3.409564
 20
13.296355
 30
0.0
 10
3.455658
 20
12.915276
 30
0.0
  0
SPLINE
  5
14b
100
AcDbEntity
  8
Layer_1
 62
7
100
AcDbSpline
 70
8
 71
3
 72
8
 73
4
 74
0
 40
0
 40
0
 40
0
 40
0
 40
1
 40
1
 40
1
 40
1
 10
3.455658
 20
12.915276
 30
0.0
 10
3.490323
 20
12.628687
 30
0.0
 10
3.645767
 20
12.332909
 30
0.0
 10
3.656642
 20
12.176233
 30
0.0
  0
SPLINE
  5
14c
100
AcDbEntity
  8
Layer_1
 62
7
100
AcDbSpline
 70
8
 71
3
 72
8
 73
4
 74
0
 40
0
 40
0
 40
0
 40
0
 40
1
 40
1
 40
1
 40
1
 10
3.656642
 20
12.176233
 30
0.0
 10
3.794549
 20
11.775904
 30
0.0
 10
4.080669
 20
11.452812
 30
0.0
 10
4.322451
 20
11.112780
 30
0.0
  0
SPLINE
  5
14d
100
AcDbEntity
  8
Layer_1
 62
7
100
AcDbSpline
 70
8
 71
3
 72
8
 73
4
 74
0
 40
0
 40
0
 40
0
 40
0
 40
1
 40
1
 40
1
 40
1
 10
4.322451
 20
11.112780
 30
0.0
 10
4.491392
 20
10.898937
 30
0.0
 10
4.654483
 20
10.674474
 30
0.0
 10
4.848797
 20
10.484923
 30
0.0
  0
SPLINE
  5
14e
100
AcDbEntity
  8
Layer_1
 62
7
100
AcDbSpline
 70
8
 71
3
 72
8
 73
4
 74
0
 40
0
 40
0
 40
0
 40
0
 40
1
 40
1
 40
1
 40
1
 10
4.848797
 20
10.484923
 30
0.0
 10
4.987589
 20
10.435355
 30
0.0
 10
5.126382
 20
10.385788
 30
0.0
 10
5.265174
 20
10.336218
 30
0.0
  0
SPLINE
  5
14f
100
AcDbEntity
  8
Layer_1
 62
7
100
AcDbSpline
 70
8
 71
3
 72
8
 73
4
 74
0
 40
0
 40
0
 40
0
 40
0
 40
1
 40
1
 40
1
 40
1
 10
5.265174
 20
10.336218
 30
0.0
 10
5.348641
 20
10.105946
 30
0.0
 10
5.311536
 20
9.851787
 30
0.0
 10
5.223942
 20
9.629070
 30
0.0
  0
SPLINE
  5
150
100
AcDbEntity
  8
Layer_1
 62
7
100
AcDbSpline
 70
8
 71
3
 72
8
 73
4
 74
0
 40
0
 40
0
 40
0
 40
0
 40
1
 40
1
 40
1
 40
1
 10
5.223942
 20
9.629070
 30
0.0
 10
5.152526
 20
9.319721
 30
0.0
 10
5.003411
 20
9.029664
 30
0.0
 10
4.822900
 20
8.773259
 30
0.0
  0
SPLINE
  5
151
100
AcDbEntity
  8
Layer_1
 62
7
100
AcDbSpline
 70
8
 71
3
 72
8
 73
4
 74
0
 40
0
 40
0
 40
0
 40
0
 40
1
 40
1
 40
1
 40
1
 10
4.822900
 20
8.773259
 30
0.0
 10
4.557265
 20
8.670536
 30
0.0
 10
4.544739
 20
9.070295
 30
0.0
 10
4.486723
 20
9.243655
 30
0.0
  0
SPLINE
  5
152
100
AcDbEntity
  8
Layer_1
 62
7
100
AcDbSpline
 70
8
 71
3
 72
8
 73
4
 74
0
 40
0
 40
0
 40
0
 40
0
 40
1
 40
1
 40
1
 40
1
 10
4.486723
 20
9.243655
 30
0.0
 10
4.221432
 20
9.720038
 30
0.0
 10
3.893600
 20
10.172521
 30
0.0
 10
3.553936
 20
10.599922
 30
0.0
  0
SPLINE
  5
153
100
AcDbEntity
  8
Layer_1
 62
7
100
AcDbSpline
 70
8
 71
3
 72
8
 73
4
 74
0
 40
0
 40
0
 40
0
 40
0
 40
1
 40
1
 40
1
 40
1
 10
3.553936
 20
10.599922
 30
0.0
 10
3.304843
 20
10.932417
 30
0.0
 10
3.117810
 20
11.308198
 30
0.0
 10
2.975330
 20
11.697052
 30
0.0
  0
SPLINE
  5
154
100
AcDbEntity
  8
Layer_1
 62
7
100
AcDbSpline
 70
8
 71
3
 72
8
 73
4
 74
0
 40
0
 40
0
 40
0
 40
0
 40
1
 40
1
 40
1
 40
1
 10
2.975330
 20
11.697052
 30
0.0
 10
2.928881
 20
11.944667
 30
0.0
 10
2.932860
 20
12.199765
 30
0.0
 10
2.907424
 20
12.450587
 30
0.0
  0
SPLINE
  5
155
100
AcDbEntity
  8
Layer_1
 62
7
100
AcDbSpline
 70
8
 71
3
 72
8
 73
4
 74
0
 40
0
 40
0
 40
0
 40
0
 40
1
 40
1
 40
1
 40
1
 10
2.907424
 20
12.450587
 30
0.0
 10
2.879076
 20
12.611920
 30
0.0
 10
2.880979
 20
12.839851
 30
0.0
 10
2.973120
 20
12.978168
 30
0.0
  0
SPLINE
  5
156
100
AcDbEntity
  8
Layer_1
 62
7
100
AcDbSpline
 70
8
 71
3
 72
8
 73
4
 74
0
 40
0
 40
0
 40
0
 40
0
 40
1
 40
1
 40
1
 40
1
 10
2.973120
 20
12.978168
 30
0.0
 10
3.059426
 20
13.132005
 30
0.0
 10
3.483364
 20
13.661261
 30
0.0
 10
3.483364
 20
13.661261
 30
0.0
  0
LWPOLYLINE
  5
157
100
AcDbEntity
  8
Layer_1
 62
7
100
AcDbPolyline
 90
5
 70
1
 10
6.571231
 20
10.524599
 30
0.0
 10
6.568012
 20
10.291387
 30
0.0
 10
6.524096
 20
10.502260
 30
0.0
 10
6.121884
 20
10.935814
 30
0.0
 10
6.163518
 20
10.985321
 30
0.0
  0
LWPOLYLINE
  5
158
100
AcDbEntity
  8
Layer_1
 62
7
100
AcDbPolyline
 90
1
 70
1
 10
3.483364
 20
13.661261
 30
0.0
  0
LWPOLYLINE
  5
159
100
AcDbEntity
  8
Layer_1
 62
7
100
AcDbPolyline
 90
3
 70
1
 10
3.164972
 20
12.494705
 30
0.0
 10
4.077090
 20
9.875004
 30
0.0
 10
4.278608
 20
9.625762
 30
0.0
  0
LWPOLYLINE
  5
15a
100
AcDbEntity
  8
Layer_1
 62
7
100
AcDbPolyline
 90
3
 70
1
 10
3.854539
 20
11.248614
 30
0.0
 10
4.660578
 20
8.772112
 30
0.0
 10
4.777247
 20
8.740294
 30
0.0
  0
SPLINE
  5
15b
100
AcDbEntity
  8
Layer_1
 62
7
100
AcDbSpline
 70
8
 71
3
 72
8
 73
4
 74
0
 40
0
 40
0
 40
0
 40
0
 40
1
 40
1
 40
1
 40
1
 10
7.464521
 20
1.800774
 30
0.0
 10
7.484353
 20
1.708956
 30
0.0
 10
7.501918
 20
1.530322
 30
0.0
 10
7.469189
 20
1.582316
 30
0.0
  0
SPLINE
  5
15c
100
AcDbEntity
  8
Layer_1
 62
7
100
AcDbSpline
 70
8
 71
3
 72
8
 73
4
 74
0
 40
0
 40
0
 40
0
 40
0
 40
1
 40
1
 40
1
 40
1
 10
7.469189
 20
1.582316
 30
0.0
 10
7.439200
 20
1.629960
 30
0.0
 10
6.837710
 20
1.542768
 30
0.0
 10
6.655666
 20
1.435404
 30
0.0
  0
SPLINE
  5
15d
100
AcDbEntity
  8
Layer_1
 62
7
100
AcDbSpline
 70
8
 71
3
 72
8
 73
4
 74
0
 40
0
 40
0
 40
0
 40
0
 40
1
 40
1
 40
1
 40
1
 10
6.655666
 20
1.435404
 30
0.0
 10
6.162005
 20
1.424909
 30
0.0
 10
5.808467
 20
1.840746
 30
0.0
 10
5.700726
 20
2.298403
 30
0.0
  0
SPLINE
  5
15e
100
AcDbEntity
  8
Layer_1
 62
7
100
AcDbSpline
 70
8
 71
3
 72
8
 73
4
 74
0
 40
0
 40
0
 40
0
 40
0
 40
1
 40
1
 40
1
 40
1
 10
5.700726
 20
2.298403
 30
0.0
 10
5.599292
 20
2.669070
 30
0.0
 10
5.487887
 20
3.042553
 30
0.0
 10
5.226225
 20
3.336079
 30
0.0
  0
SPLINE
  5
15f
100
AcDbEntity
  8
Layer_1
 62
7
100
AcDbSpline
 70
8
 71
3
 72
8
 73
4
 74
0
 40
0
 40
0
 40
0
 40
0
 40
1
 40
1
 40
1
 40
1
 10
5.226225
 20
3.336079
 30
0.0
 10
4.887833
 20
3.781471
 30
0.0
 10
4.539093
 20
4.177102
 30
0.0
 10
4.172512
 20
4.634021
 30
0.0
  0
SPLINE
  5
160
100
AcDbEntity
  8
Layer_1
 62
7
100
AcDbSpline
 70
8
 71
3
 72
8
 73
4
 74
0
 40
0
 40
0
 40
0
 40
0
 40
1
 40
1
 40
1
 40
1
 10
4.172512
 20
4.634021
 30
0.0
 10
3.908612
 20
5.168231
 30
0.0
 10
4.466140
 20
5.635289
 30
0.0
 10
4.361980
 20
6.177262
 30
0.0
  0
SPLINE
  5
161
100
AcDbEntity
  8
Layer_1
 62
7
100
AcDbSpline
 70
8
 71
3
 72
8
 73
4
 74
0
 40
0
 40
0
 40
0
 40
0
 40
1
 40
1
 40
1
 40
1
 10
4.361980
 20
6.177262
 30
0.0
 10
4.314497
 20
6.358236
 30
0.0
 10
4.281922
 20
6.577555
 30
0.0
 10
4.393415
 20
6.274021
 30
0.0
  0
SPLINE
  5
162
100
AcDbEntity
  8
Layer_1
 62
7
100
AcDbSpline
 70
8
 71
3
 72
8
 73
4
 74
0
 40
0
 40
0
 40
0
 40
0
 40
1
 40
1
 40
1
 40
1
 10
4.393415
 20
6.274021
 30
0.0
 10
4.579610
 20
5.884882
 30
0.0
 10
4.346781
 20
5.477722
 30
0.0
 10
4.287539
 20
5.095580
 30
0.0
  0
SPLINE
  5
163
100
AcDbEntity
  8
Layer_1
 62
7
100
AcDbSpline
 70
8
 71
3
 72
8
 73
4
 74
0
 40
0
 40
0
 40
0
 40
0
 40
1
 40
1
 40
1
 40
1
 10
4.287539
 20
5.095580
 30
0.0
 10
4.366682
 20
4.614136
 30
0.0
 10
4.753445
 20
4.283067
 30
0.0
 10
5.027294
 20
3.948915
 30
0.0
  0
SPLINE
  5
164
100
AcDbEntity
  8
Layer_1
 62
7
100
AcDbSpline
 70
8
 71
3
 72
8
 73
4
 74
0
 40
0
 40
0
 40
0
 40
0
 40
1
 40
1
 40
1
 40
1
 10
5.027294
 20
3.948915
 30
0.0
 10
5.268185
 20
3.540948
 30
0.0
 10
5.759328
 20
3.289401
 30
0.0
 10
5.828819
 20
2.790193
 30
0.0
  0
SPLINE
  5
165
100
AcDbEntity
  8
Layer_1
 62
7
100
AcDbSpline
 70
8
 71
3
 72
8
 73
4
 74
0
 40
0
 40
0
 40
0
 40
0
 40
1
 40
1
 40
1
 40
1
 10
5.828819
 20
2.790193
 30
0.0
 10
5.947281
 20
2.379666
 30
0.0
 10
5.985887
 20
1.802704
 30
0.0
 10
6.510487
 20
1.693419
 30
0.0
  0
SPLINE
  5
166
100
AcDbEntity
  8
Layer_1
 62
7
100
AcDbSpline
 70
8
 71
3
 72
8
 73
4
 74
0
 40
0
 40
0
 40
0
 40
0
 40
1
 40
1
 40
1
 40
1
 10
6.510487
 20
1.693419
 30
0.0
 10
6.870475
 20
1.554834
 30
0.0
 10
7.165546
 20
1.798309
 30
0.0
 10
7.464477
 20
1.800810
 30
0.0
  0
LWPOLYLINE
  5
167
100
AcDbEntity
  8
Layer_1
 62
7
100
AcDbPolyline
 90
3
 70
1
 10
4.358202
 20
10.500841
 30
0.0
 10
5.047591
 20
9.185674
 30
0.0
 10
4.978652
 20
9.026581
 30
0.0
  0
SPLINE
  5
168
100
AcDbEntity
  8
Layer_1
 62
7
100
AcDbSpline
 70
8
 71
3
 72
8
 73
4
 74
0
 40
0
 40
0
 40
0
 40
0
 40
1
 40
1
 40
1
 40
1
 10
5.792573
 20
2.934610
 30
0.0
 10
5.648827
 20
3.640926
 30
0.0
 10
5.186455
 20
4.263437
 30
0.0
 10
4.814172
 20
4.943145
 30
0.0
  0
SPLINE
  5
169
100
AcDbEntity
  8
Layer_1
 62
7
100
AcDbSpline
 70
8
 71
3
 72
8
 73
4
 74
0
 40
0
 40
0
 40
0
 40
0
 40
1
 40
1
 40
1
 40
1
 10
4.814172
 20
4.943145
 30
0.0
 10
5.074746
 20
4.331622
 30
0.0
 10
5.662381
 20
3.371573
 30
0.0
 10
5.551314
 20
3.288599
 30
0.0
  0
LWPOLYLINE
  5
16a
100
AcDbEntity
  8
Layer_1
 62
7
100
AcDbPolyline
 90
1
 70
1
 10
7.464477
 20
1.800810
 30
0.0
  0
SPLINE
  5
16b
100
AcDbEntity
  8
Layer_1
 62
7
100
AcDbSpline
 70
8
 71
3
 72
8
 73
4
 74
0
 40
0
 40
0
 40
0
 40
0
 40
1
 40
1
 40
1
 40
1
 10
7.460363
 20
2.450547
 30
0.0
 10
7.289961
 20
2.454699
 30
0.0
 10
7.132406
 20
2.394096
 30
0.0
 10
6.956391
 20
2.376678
 30
0.0
  0
SPLINE
  5
16c
100
AcDbEntity
  8
Layer_1
 62
7
100
AcDbSpline
 70
8
 71
3
 72
8
 73
4
 74
0
 40
0
 40
0
 40
0
 40
0
 40
1
 40
1
 40
1
 40
1
 10
6.956391
 20
2.376678
 30
0.0
 10
6.763473
 20
2.337289
 30
0.0
 10
6.482081
 20
2.262487
 30
0.0
 10
6.363233
 20
2.416968
 30
0.0
  0
SPLINE
  5
16d
100
AcDbEntity
  8
Layer_1
 62
7
100
AcDbSpline
 70
8
 71
3
 72
8
 73
4
 74
0
 40
0
 40
0
 40
0
 40
0
 40
1
 40
1
 40
1
 40
1
 10
6.363233
 20
2.416968
 30
0.0
 10
6.198194
 20
2.566689
 30
0.0
 10
6.139311
 20
2.741991
 30
0.0
 10
6.068780
 20
2.917448
 30
0.0
  0
SPLINE
  5
16e
100
AcDbEntity
  8
Layer_1
 62
7
100
AcDbSpline
 70
8
 71
3
 72
8
 73
4
 74
0
 40
0
 40
0
 40
0
 40
0
 40
1
 40
1
 40
1
 40
1
 10
6.068780
 20
2.917448
 30
0.0
 10
5.754157
 20
3.700145
 30
0.0
 10
5.558578
 20
4.526556
 30
0.0
 10
5.280797
 20
5.239940
 30
0.0
  0
SPLINE
  5
16f
100
AcDbEntity
  8
Layer_1
 62
7
100
AcDbSpline
 70
8
 71
3
 72
8
 73
4
 74
0
 40
0
 40
0
 40
0
 40
0
 40
1
 40
1
 40
1
 40
1
 10
5.280797
 20
5.239940
 30
0.0
 10
5.560205
 20
4.316598
 30
0.0
 10
5.757032
 20
3.394562
 30
0.0
 10
6.145874
 20
2.512914
 30
0.0
  0
SPLINE
  5
170
100
AcDbEntity
  8
Layer_1
 62
7
100
AcDbSpline
 70
8
 71
3
 72
8
 73
4
 74
0
 40
0
 40
0
 40
0
 40
0
 40
1
 40
1
 40
1
 40
1
 10
6.145874
 20
2.512914
 30
0.0
 10
6.232132
 20
2.383345
 30
0.0
 10
6.359022
 20
2.249744
 30
0.0
 10
6.473451
 20
2.226040
 30
0.0
  0
SPLINE
  5
171
100
AcDbEntity
  8
Layer_1
 62
7
100
AcDbSpline
 70
8
 71
3
 72
8
 73
4
 74
0
 40
0
 40
0
 40
0
 40
0
 40
1
 40
1
 40
1
 40
1
 10
6.473451
 20
2.226040
 30
0.0
 10
6.642534
 20
2.200996
 30
0.0
 10
6.779396
 20
2.301708
 30
0.0
 10
6.942825
 20
2.331156
 30
0.0
  0
SPLINE
  5
172
100
AcDbEntity
  8
Layer_1
 62
7
100
AcDbSpline
 70
8
 71
3
 72
8
 73
4
 74
0
 40
0
 40
0
 40
0
 40
0
 40
1
 40
1
 40
1
 40
1
 10
6.942825
 20
2.331156
 30
0.0
 10
7.103998
 20
2.360200
 30
0.0
 10
7.407075
 20
2.439752
 30
0.0
 10
7.448544
 20
2.352521
 30
0.0
  0
SPLINE
  5
173
100
AcDbEntity
  8
Layer_1
 62
7
100
AcDbSpline
 70
8
 71
3
 72
8
 73
4
 74
0
 40
0
 40
0
 40
0
 40
0
 40
1
 40
1
 40
1
 40
1
 10
7.448544
 20
2.352521
 30
0.0
 10
7.475503
 20
2.377165
 30
0.0
 10
7.463848
 20
2.418953
 30
0.0
 10
7.460329
 20
2.450504
 30
0.0
  0
LWPOLYLINE
  5
174
100
AcDbEntity
  8
Layer_1
 62
7
100
AcDbPolyline
 90
2
 70
0
 10
5.551314
 20
3.288599
 30
0.0
 10
5.792573
 20
2.934610
 30
0.0
  0
SPLINE
  5
175
100
AcDbEntity
  8
Layer_1
 62
7
100
AcDbSpline
 70
8
 71
3
 72
8
 73
4
 74
0
 40
0
 40
0
 40
0
 40
0
 40
1
 40
1
 40
1
 40
1
 10
7.479963
 20
2.622196
 30
0.0
 10
7.194217
 20
2.640190
 30
0.0
 10
6.921313
 20
2.589863
 30
0.0
 10
6.587505
 20
2.640945
 30
0.0
  0
SPLINE
  5
176
100
AcDbEntity
  8
Layer_1
 62
7
100
AcDbSpline
 70
8
 71
3
 72
8
 73
4
 74
0
 40
0
 40
0
 40
0
 40
0
 40
1
 40
1
 40
1
 40
1
 10
6.587505
 20
2.640945
 30
0.0
 10
6.575403
 20
2.642798
 30
0.0
 10
6.366517
 20
2.781727
 30
0.0
 10
6.296907
 20
2.927831
 30
0.0
  0
SPLINE
  5
177
100
AcDbEntity
  8
Layer_1
 62
7
100
AcDbSpline
 70
8
 71
3
 72
8
 73
4
 74
0
 40
0
 40
0
 40
0
 40
0
 40
1
 40
1
 40
1
 40
1
 10
6.296907
 20
2.927831
 30
0.0
 10
5.991823
 20
3.568160
 30
0.0
 10
5.803175
 20
4.296512
 30
0.0
 10
5.556321
 20
4.980852
 30
0.0
  0
SPLINE
  5
178
100
AcDbEntity
  8
Layer_1
 62
7
100
AcDbSpline
 70
8
 71
3
 72
8
 73
4
 74
0
 40
0
 40
0
 40
0
 40
0
 40
1
 40
1
 40
1
 40
1
 10
5.556321
 20
4.980852
 30
0.0
 10
5.779667
 20
4.279109
 30
0.0
 10
5.884064
 20
3.480970
 30
0.0
 10
6.243452
 20
2.879841
 30
0.0
  0
SPLINE
  5
179
100
AcDbEntity
  8
Layer_1
 62
7
100
AcDbSpline
 70
8
 71
3
 72
8
 73
4
 74
0
 40
0
 40
0
 40
0
 40
0
 40
1
 40
1
 40
1
 40
1
 10
6.243452
 20
2.879841
 30
0.0
 10
6.477644
 20
2.488112
 30
0.0
 10
6.590350
 20
2.561808
 30
0.0
 10
6.594484
 20
2.561761
 30
0.0
  0
SPLINE
  5
17a
100
AcDbEntity
  8
Layer_1
 62
7
100
AcDbSpline
 70
8
 71
3
 72
8
 73
4
 74
0
 40
0
 40
0
 40
0
 40
0
 40
1
 40
1
 40
1
 40
1
 10
6.594484
 20
2.561761
 30
0.0
 10
6.878692
 20
2.558785
 30
0.0
 10
7.178330
 20
2.594094
 30
0.0
 10
7.470015
 20
2.548962
 30
0.0
  0
LWPOLYLINE
  5
17b
100
AcDbEntity
  8
Layer_1
 62
7
100
AcDbPolyline
 90
1
 70
1
 10
7.460329
 20
2.450504
 30
0.0
  0
SPLINE
  5
17c
100
AcDbEntity
  8
Layer_1
 62
7
100
AcDbSpline
 70
8
 71
3
 72
8
 73
4
 74
0
 40
0
 40
0
 40
0
 40
0
 40
1
 40
1
 40
1
 40
1
 10
6.039059
 20
4.041718
 30
0.0
 10
5.957570
 20
4.218582
 30
0.0
 10
5.947782
 20
4.420642
 30
0.0
 10
5.861001
 20
4.593235
 30
0.0
  0
SPLINE
  5
17d
100
AcDbEntity
  8
Layer_1
 62
7
100
AcDbSpline
 70
8
 71
3
 72
8
 73
4
 74
0
 40
0
 40
0
 40
0
 40
0
 40
1
 40
1
 40
1
 40
1
 10
5.861001
 20
4.593235
 30
0.0
 10
5.740069
 20
4.833758
 30
0.0
 10
5.559641
 20
5.036625
 30
0.0
 10
5.392084
 20
5.250789
 30
0.0
  0
SPLINE
  5
17e
100
AcDbEntity
  8
Layer_1
 62
7
100
AcDbSpline
 70
8
 71
3
 72
8
 73
4
 74
0
 40
0
 40
0
 40
0
 40
0
 40
1
 40
1
 40
1
 40
1
 10
5.392084
 20
5.250789
 30
0.0
 10
5.546164
 20
5.012149
 30
0.0
 10
5.701955
 20
4.859090
 30
0.0
 10
5.789704
 20
4.631188
 30
0.0
  0
SPLINE
  5
17f
100
AcDbEntity
  8
Layer_1
 62
7
100
AcDbSpline
 70
8
 71
3
 72
8
 73
4
 74
0
 40
0
 40
0
 40
0
 40
0
 40
1
 40
1
 40
1
 40
1
 10
5.789704
 20
4.631188
 30
0.0
 10
5.837542
 20
4.506930
 30
0.0
 10
5.891957
 20
4.373055
 30
0.0
 10
5.913963
 20
4.235581
 30
0.0
  0
SPLINE
  5
180
100
AcDbEntity
  8
Layer_1
 62
7
100
AcDbSpline
 70
8
 71
3
 72
8
 73
4
 74
0
 40
0
 40
0
 40
0
 40
0
 40
1
 40
1
 40
1
 40
1
 10
5.913963
 20
4.235581
 30
0.0
 10
5.940389
 20
4.070501
 30
0.0
 10
5.930030
 20
3.901886
 30
0.0
 10
5.938302
 20
3.760653
 30
0.0
  0
SPLINE
  5
181
100
AcDbEntity
  8
Layer_1
 62
7
100
AcDbSpline
 70
8
 71
3
 72
8
 73
4
 74
0
 40
0
 40
0
 40
0
 40
0
 40
1
 40
1
 40
1
 40
1
 10
5.938302
 20
3.760653
 30
0.0
 10
5.952443
 20
3.836666
 30
0.0
 10
5.966585
 20
3.912672
 30
0.0
 10
5.980726
 20
3.988685
 30
0.0
  0
SPLINE
  5
182
100
AcDbEntity
  8
Layer_1
 62
7
100
AcDbSpline
 70
8
 71
3
 72
8
 73
4
 74
0
 40
0
 40
0
 40
0
 40
0
 40
1
 40
1
 40
1
 40
1
 10
5.980726
 20
3.988685
 30
0.0
 10
6.066391
 20
3.913540
 30
0.0
 10
6.155761
 20
3.846579
 30
0.0
 10
6.273623
 20
3.821948
 30
0.0
  0
SPLINE
  5
183
100
AcDbEntity
  8
Layer_1
 62
7
100
AcDbSpline
 70
8
 71
3
 72
8
 73
4
 74
0
 40
0
 40
0
 40
0
 40
0
 40
1
 40
1
 40
1
 40
1
 10
6.273623
 20
3.821948
 30
0.0
 10
6.462188
 20
3.782541
 30
0.0
 10
6.645888
 20
3.723918
 30
0.0
 10
6.828811
 20
3.662682
 30
0.0
  0
SPLINE
  5
184
100
AcDbEntity
  8
Layer_1
 62
7
100
AcDbSpline
 70
8
 71
3
 72
8
 73
4
 74
0
 40
0
 40
0
 40
0
 40
0
 40
1
 40
1
 40
1
 40
1
 10
6.828811
 20
3.662682
 30
0.0
 10
6.972040
 20
3.614736
 30
0.0
 10
7.114794
 20
3.565192
 30
0.0
 10
7.259039
 20
3.522019
 30
0.0
  0
LWPOLYLINE
  5
185
100
AcDbEntity
  8
Layer_1
 62
7
100
AcDbPolyline
 90
2
 70
0
 10
7.470015
 20
2.548962
 30
0.0
 10
7.479963
 20
2.622196
 30
0.0
  0
SPLINE
  5
186
100
AcDbEntity
  8
Layer_1
 62
7
100
AcDbSpline
 70
8
 71
3
 72
8
 73
4
 74
0
 40
0
 40
0
 40
0
 40
0
 40
1
 40
1
 40
1
 40
1
 10
7.492102
 20
3.522019
 30
0.0
 10
7.514905
 20
3.639382
 30
0.0
 10
7.304564
 20
3.530303
 30
0.0
 10
7.214036
 20
3.577115
 30
0.0
  0
SPLINE
  5
187
100
AcDbEntity
  8
Layer_1
 62
7
100
AcDbSpline
 70
8
 71
3
 72
8
 73
4
 74
0
 40
0
 40
0
 40
0
 40
0
 40
1
 40
1
 40
1
 40
1
 10
7.214036
 20
3.577115
 30
0.0
 10
6.880775
 20
3.684262
 30
0.0
 10
6.539673
 20
3.769784
 30
0.0
 10
6.214074
 20
3.898533
 30
0.0
  0
SPLINE
  5
188
100
AcDbEntity
  8
Layer_1
 62
7
100
AcDbSpline
 70
8
 71
3
 72
8
 73
4
 74
0
 40
0
 40
0
 40
0
 40
0
 40
1
 40
1
 40
1
 40
1
 10
6.214074
 20
3.898533
 30
0.0
 10
6.143983
 20
3.926249
 30
0.0
 10
6.070613
 20
3.973263
 30
0.0
 10
6.039075
 20
4.041715
 30
0.0
  0
LWPOLYLINE
  5
189
100
AcDbEntity
  8
Layer_1
 62
7
100
AcDbPolyline
 90
2
 70
0
 10
7.259039
 20
3.522019
 30
0.0
 10
7.492102
 20
3.522019
 30
0.0
  0
SPLINE
  5
18a
100
AcDbEntity
  8
Layer_1
 62
7
100
AcDbSpline
 70
8
 71
3
 72
8
 73
4
 74
0
 40
0
 40
0
 40
0
 40
0
 40
1
 40
1
 40
1
 40
1
 10
6.030744
 20
3.947281
 30
0.0
 10
6.030744
 20
3.947281
 30
0.0
 10
6.299295
 20
3.400736
 30
0.0
 10
6.510590
 20
3.156388
 30
0.0
  0
SPLINE
  5
18b
100
AcDbEntity
  8
Layer_1
 62
7
100
AcDbSpline
 70
8
 71
3
 72
8
 73
4
 74
0
 40
0
 40
0
 40
0
 40
0
 40
1
 40
1
 40
1
 40
1
 10
6.510590
 20
3.156388
 30
0.0
 10
6.562813
 20
3.095990
 30
0.0
 10
6.572645
 20
3.036548
 30
0.0
 10
6.661457
 20
2.986152
 30
0.0
  0
SPLINE
  5
18c
100
AcDbEntity
  8
Layer_1
 62
7
100
AcDbSpline
 70
8
 71
3
 72
8
 73
4
 74
0
 40
0
 40
0
 40
0
 40
0
 40
1
 40
1
 40
1
 40
1
 10
6.661457
 20
2.986152
 30
0.0
 10
6.779925
 20
2.918930
 30
0.0
 10
6.952287
 20
2.859963
 30
0.0
 10
7.063687
 20
2.862030
 30
0.0
  0
LWPOLYLINE
  5
18d
100
AcDbEntity
  8
Layer_1
 62
7
100
AcDbPolyline
 90
1
 70
1
 10
6.039075
 20
4.041715
 30
0.0
  0
SPLINE
  5
18e
100
AcDbEntity
  8
Layer_1
 62
7
100
AcDbSpline
 70
8
 71
3
 72
8
 73
4
 74
0
 40
0
 40
0
 40
0
 40
0
 40
1
 40
1
 40
1
 40
1
 10
7.475295
 20
2.906667
 30
0.0
 10
7.311836
 20
2.913228
 30
0.0
 10
7.135976
 20
2.886152
 30
0.0
 10
6.995318
 20
2.906667
 30
0.0
  0
SPLINE
  5
18f
100
AcDbEntity
  8
Layer_1
 62
7
100
AcDbSpline
 70
8
 71
3
 72
8
 73
4
 74
0
 40
0
 40
0
 40
0
 40
0
 40
1
 40
1
 40
1
 40
1
 10
6.995318
 20
2.906667
 30
0.0
 10
6.894336
 20
2.923767
 30
0.0
 10
6.780501
 20
2.956668
 30
0.0
 10
6.694326
 20
3.012021
 30
0.0
  0
SPLINE
  5
190
100
AcDbEntity
  8
Layer_1
 62
7
100
AcDbSpline
 70
8
 71
3
 72
8
 73
4
 74
0
 40
0
 40
0
 40
0
 40
0
 40
1
 40
1
 40
1
 40
1
 10
6.694326
 20
3.012021
 30
0.0
 10
6.637687
 20
3.048403
 30
0.0
 10
6.601986
 20
3.110324
 30
0.0
 10
6.561206
 20
3.163886
 30
0.0
  0
SPLINE
  5
191
100
AcDbEntity
  8
Layer_1
 62
7
100
AcDbSpline
 70
8
 71
3
 72
8
 73
4
 74
0
 40
0
 40
0
 40
0
 40
0
 40
1
 40
1
 40
1
 40
1
 10
6.561206
 20
3.163886
 30
0.0
 10
6.361392
 20
3.426349
 30
0.0
 10
6.030738
 20
3.947296
 30
0.0
 10
6.030738
 20
3.947296
 30
0.0
  0
LWPOLYLINE
  5
192
100
AcDbEntity
  8
Layer_1
 62
7
100
AcDbPolyline
 90
3
 70
0
 10
7.063687
 20
2.862030
 30
0.0
 10
7.468666
 20
2.869530
 30
0.0
 10
7.475295
 20
2.906667
 30
0.0
  0
SPLINE
  5
193
100
AcDbEntity
  8
Layer_1
 62
7
100
AcDbSpline
 70
8
 71
3
 72
8
 73
4
 74
0
 40
0
 40
0
 40
0
 40
0
 40
1
 40
1
 40
1
 40
1
 10
7.441951
 20
3.384224
 30
0.0
 10
7.441951
 20
3.384224
 30
0.0
 10
7.285512
 20
3.365647
 30
0.0
 10
7.208080
 20
3.375194
 30
0.0
  0
SPLINE
  5
194
100
AcDbEntity
  8
Layer_1
 62
7
100
AcDbSpline
 70
8
 71
3
 72
8
 73
4
 74
0
 40
0
 40
0
 40
0
 40
0
 40
1
 40
1
 40
1
 40
1
 10
7.208080
 20
3.375194
 30
0.0
 10
7.068094
 20
3.392454
 30
0.0
 10
6.935294
 20
3.447952
 30
0.0
 10
6.801889
 20
3.493733
 30
0.0
  0
SPLINE
  5
195
100
AcDbEntity
  8
Layer_1
 62
7
100
AcDbSpline
 70
8
 71
3
 72
8
 73
4
 74
0
 40
0
 40
0
 40
0
 40
0
 40
1
 40
1
 40
1
 40
1
 10
6.801889
 20
3.493733
 30
0.0
 10
6.706050
 20
3.526626
 30
0.0
 10
6.608299
 20
3.557314
 30
0.0
 10
6.519279
 20
3.605715
 30
0.0
  0
SPLINE
  5
196
100
AcDbEntity
  8
Layer_1
 62
7
100
AcDbSpline
 70
8
 71
3
 72
8
 73
4
 74
0
 40
0
 40
0
 40
0
 40
0
 40
1
 40
1
 40
1
 40
1
 10
6.519279
 20
3.605715
 30
0.0
 10
6.467784
 20
3.633714
 30
0.0
 10
6.424391
 20
3.674582
 30
0.0
 10
6.376032
 20
3.707707
 30
0.0
  0
SPLINE
  5
197
100
AcDbEntity
  8
Layer_1
 62
7
100
AcDbSpline
 70
8
 71
3
 72
8
 73
4
 74
0
 40
0
 40
0
 40
0
 40
0
 40
1
 40
1
 40
1
 40
1
 10
6.376032
 20
3.707707
 30
0.0
 10
6.266016
 20
3.783072
 30
0.0
 10
6.031332
 20
3.947006
 30
0.0
 10
6.031332
 20
3.947006
 30
0.0
  0
SPLINE
  5
198
100
AcDbEntity
  8
Layer_1
 62
7
100
AcDbSpline
 70
8
 71
3
 72
8
 73
4
 74
0
 40
0
 40
0
 40
0
 40
0
 40
1
 40
1
 40
1
 40
1
 10
6.031332
 20
3.947006
 30
0.0
 10
6.031332
 20
3.947006
 30
0.0
 10
6.241095
 20
3.756748
 30
0.0
 10
6.347238
 20
3.679779
 30
0.0
  0
SPLINE
  5
199
100
AcDbEntity
  8
Layer_1
 62
7
100
AcDbSpline
 70
8
 71
3
 72
8
 73
4
 74
0
 40
0
 40
0
 40
0
 40
0
 40
1
 40
1
 40
1
 40
1
 10
6.347238
 20
3.679779
 30
0.0
 10
6.397200
 20
3.643551
 30
0.0
 10
6.448119
 20
3.607978
 30
0.0
 10
6.502857
 20
3.579474
 30
0.0
  0
SPLINE
  5
19a
100
AcDbEntity
  8
Layer_1
 62
7
100
AcDbSpline
 70
8
 71
3
 72
8
 73
4
 74
0
 40
0
 40
0
 40
0
 40
0
 40
1
 40
1
 40
1
 40
1
 10
6.502857
 20
3.579474
 30
0.0
 10
6.595963
 20
3.530988
 30
0.0
 10
6.695282
 20
3.494962
 30
0.0
 10
6.794405
 20
3.460419
 30
0.0
  0
SPLINE
  5
19b
100
AcDbEntity
  8
Layer_1
 62
7
100
AcDbSpline
 70
8
 71
3
 72
8
 73
4
 74
0
 40
0
 40
0
 40
0
 40
0
 40
1
 40
1
 40
1
 40
1
 10
6.794405
 20
3.460419
 30
0.0
 10
6.931772
 20
3.412544
 30
0.0
 10
7.069513
 20
3.359615
 30
0.0
 10
7.213449
 20
3.338548
 30
0.0
  0
SPLINE
  5
19c
100
AcDbEntity
  8
Layer_1
 62
7
100
AcDbSpline
 70
8
 71
3
 72
8
 73
4
 74
0
 40
0
 40
0
 40
0
 40
0
 40
1
 40
1
 40
1
 40
1
 10
7.213449
 20
3.338548
 30
0.0
 10
7.294463
 20
3.326691
 30
0.0
 10
7.459062
 20
3.336671
 30
0.0
 10
7.459062
 20
3.336671
 30
0.0
  0
LWPOLYLINE
  5
19d
100
AcDbEntity
  8
Layer_1
 62
7
100
AcDbPolyline
 90
1
 70
1
 10
6.030738
 20
3.947296
 30
0.0
  0
LWPOLYLINE
  5
19e
100
AcDbEntity
  8
Layer_1
 62
7
100
AcDbPolyline
 90
2
 70
0
 10
7.459062
 20
3.336671
 30
0.0
 10
7.441951
 20
3.384224
 30
0.0
  0
LWPOLYLINE
  5
19f
100
AcDbEntity
  8
Layer_1
 62
7
100
AcDbPolyline
 90
4
 70
1
 10
6.937694
 20
2.903131
 30
0.0
 10
7.235805
 20
2.891882
 30
0.0
 10
7.235805
 20
2.601272
 30
0.0
 10
6.873946
 20
2.595647
 30
0.0
  0
LWPOLYLINE
  5
1a0
100
AcDbEntity
  8
Layer_1
 62
7
100
AcDbPolyline
 90
4
 70
1
 10
7.237635
 20
2.884719
 30
0.0
 10
7.455124
 20
2.890343
 30
0.0
 10
7.457001
 20
2.577235
 30
0.0
 10
7.235764
 20
2.607233
 30
0.0
  0
LWPOLYLINE
  5
1a1
100
AcDbEntity
  8
Layer_1
 62
7
100
AcDbPolyline
 90
4
 70
1
 10
6.483922
 20
3.788105
 30
0.0
 10
6.768907
 20
3.692486
 30
0.0
 10
6.733284
 20
3.501243
 30
0.0
 10
6.465172
 20
3.613735
 30
0.0
  0
LWPOLYLINE
  5
1a2
100
AcDbEntity
  8
Layer_1
 62
7
100
AcDbPolyline
 90
4
 70
1
 10
6.746444
 20
3.696638
 30
0.0
 10
6.753944
 20
3.490397
 30
0.0
 10
7.037059
 20
3.400403
 30
0.0
 10
7.078306
 20
3.602896
 30
0.0
  0
LWPOLYLINE
  5
1a3
100
AcDbEntity
  8
Layer_1
 62
7
100
AcDbPolyline
 90
4
 70
1
 10
7.080240
 20
3.604577
 30
0.0
 10
7.040867
 20
3.396459
 30
0.0
 10
7.256480
 20
3.351462
 30
0.0
 10
7.277104
 20
3.555825
 30
0.0
  0
SPLINE
  5
1a4
100
AcDbEntity
  8
Layer_1
 62
7
100
AcDbSpline
 70
8
 71
3
 72
8
 73
4
 74
0
 40
0
 40
0
 40
0
 40
0
 40
1
 40
1
 40
1
 40
1
 10
6.303957
 20
3.835026
 30
0.0
 10
6.518602
 20
3.773304
 30
0.0
 10
6.509081
 20
3.729958
 30
0.0
 10
6.565678
 20
3.569457
 30
0.0
  0
SPLINE
  5
1a5
100
AcDbEntity
  8
Layer_1
 62
7
100
AcDbSpline
 70
8
 71
3
 72
8
 73
4
 74
0
 40
0
 40
0
 40
0
 40
0
 40
1
 40
1
 40
1
 40
1
 10
6.565678
 20
3.569457
 30
0.0
 10
6.453571
 20
3.432429
 30
0.0
 10
6.353474
 20
3.278817
 30
0.0
 10
6.184498
 20
3.216507
 30
0.0
  0
SPLINE
  5
1a6
100
AcDbEntity
  8
Layer_1
 62
7
100
AcDbSpline
 70
8
 71
3
 72
8
 73
4
 74
0
 40
0
 40
0
 40
0
 40
0
 40
1
 40
1
 40
1
 40
1
 10
6.184498
 20
3.216507
 30
0.0
 10
6.019269
 20
3.167636
 30
0.0
 10
5.761878
 20
3.096441
 30
0.0
 10
5.627564
 20
3.174212
 30
0.0
  0
SPLINE
  5
1a7
100
AcDbEntity
  8
Layer_1
 62
7
100
AcDbSpline
 70
8
 71
3
 72
8
 73
4
 74
0
 40
0
 40
0
 40
0
 40
0
 40
1
 40
1
 40
1
 40
1
 10
5.627564
 20
3.174212
 30
0.0
 10
5.732288
 20
3.282410
 30
0.0
 10
5.915472
 20
3.354295
 30
0.0
 10
6.022256
 20
3.460587
 30
0.0
  0
SPLINE
  5
1a8
100
AcDbEntity
  8
Layer_1
 62
7
100
AcDbSpline
 70
8
 71
3
 72
8
 73
4
 74
0
 40
0
 40
0
 40
0
 40
0
 40
1
 40
1
 40
1
 40
1
 10
6.022256
 20
3.460587
 30
0.0
 10
6.167250
 20
3.614786
 30
0.0
 10
6.163662
 20
3.701591
 30
0.0
 10
6.303957
 20
3.835026
 30
0.0
  0
LWPOLYLINE
  5
1a9
100
AcDbEntity
  8
Layer_1
 62
7
100
AcDbPolyline
 90
4
 70
1
 10
7.269708
 20
3.554092
 30
0.0
 10
7.280957
 20
3.355353
 30
0.0
 10
7.468447
 20
3.357229
 30
0.0
 10
7.464699
 20
3.555969
 30
0.0
  0
SPLINE
  5
1aa
100
AcDbEntity
  8
Layer_1
 62
7
100
AcDbSpline
 70
8
 71
3
 72
8
 73
4
 74
0
 40
0
 40
0
 40
0
 40
0
 40
1
 40
1
 40
1
 40
1
 10
6.329497
 20
4.517466
 30
0.0
 10
6.430396
 20
4.163476
 30
0.0
 10
6.468830
 20
3.780859
 30
0.0
 10
6.614328
 20
3.447063
 30
0.0
  0
SPLINE
  5
1ab
100
AcDbEntity
  8
Layer_1
 62
7
100
AcDbSpline
 70
8
 71
3
 72
8
 73
4
 74
0
 40
0
 40
0
 40
0
 40
0
 40
1
 40
1
 40
1
 40
1
 10
6.614328
 20
3.447063
 30
0.0
 10
6.689640
 20
3.245990
 30
0.0
 10
6.861051
 20
3.120870
 30
0.0
 10
6.886401
 20
2.886299
 30
0.0
  0
SPLINE
  5
1ac
100
AcDbEntity
  8
Layer_1
 62
7
100
AcDbSpline
 70
8
 71
3
 72
8
 73
4
 74
0
 40
0
 40
0
 40
0
 40
0
 40
1
 40
1
 40
1
 40
1
 10
6.886401
 20
2.886299
 30
0.0
 10
6.914607
 20
2.625273
 30
0.0
 10
6.700634
 20
2.466364
 30
0.0
 10
6.539693
 20
2.662941
 30
0.0
  0
SPLINE
  5
1ad
100
AcDbEntity
  8
Layer_1
 62
7
100
AcDbSpline
 70
8
 71
3
 72
8
 73
4
 74
0
 40
0
 40
0
 40
0
 40
0
 40
1
 40
1
 40
1
 40
1
 10
6.539693
 20
2.662941
 30
0.0
 10
6.298707
 20
2.957287
 30
0.0
 10
6.222154
 20
3.374305
 30
0.0
 10
6.197238
 20
3.765179
 30
0.0
  0
SPLINE
  5
1ae
100
AcDbEntity
  8
Layer_1
 62
7
100
AcDbSpline
 70
8
 71
3
 72
8
 73
4
 74
0
 40
0
 40
0
 40
0
 40
0
 40
1
 40
1
 40
1
 40
1
 10
6.197238
 20
3.765179
 30
0.0
 10
6.158455
 20
4.037246
 30
0.0
 10
6.252117
 20
4.272114
 30
0.0
 10
6.329503
 20
4.517466
 30
0.0
  0
LWPOLYLINE
  5
1af
100
AcDbEntity
  8
Layer_1
 62
7
100
AcDbPolyline
 90
1
 70
1
 10
6.303957
 20
3.835026
 30
0.0
  0
SPLINE
  5
1b0
100
AcDbEntity
  8
Layer_1
 62
7
100
AcDbSpline
 70
8
 71
3
 72
8
 73
4
 74
0
 40
0
 40
0
 40
0
 40
0
 40
1
 40
1
 40
1
 40
1
 10
6.150720
 20
5.484998
 30
0.0
 10
6.030898
 20
5.485117
 30
0.0
 10
5.877988
 20
5.374228
 30
0.0
 10
5.890871
 20
5.265982
 30
0.0
  0
SPLINE
  5
1b1
100
AcDbEntity
  8
Layer_1
 62
7
100
AcDbSpline
 70
8
 71
3
 72
8
 73
4
 74
0
 40
0
 40
0
 40
0
 40
0
 40
1
 40
1
 40
1
 40
1
 10
5.890871
 20
5.265982
 30
0.0
 10
5.883663
 20
5.135285
 30
0.0
 10
5.845729
 20
5.014691
 30
0.0
 10
5.946553
 20
4.915188
 30
0.0
  0
SPLINE
  5
1b2
100
AcDbEntity
  8
Layer_1
 62
7
100
AcDbSpline
 70
8
 71
3
 72
8
 73
4
 74
0
 40
0
 40
0
 40
0
 40
0
 40
1
 40
1
 40
1
 40
1
 10
5.946553
 20
4.915188
 30
0.0
 10
6.066761
 20
4.814841
 30
0.0
 10
6.293748
 20
4.778135
 30
0.0
 10
6.430984
 20
4.709161
 30
0.0
  0
SPLINE
  5
1b3
100
AcDbEntity
  8
Layer_1
 62
7
100
AcDbSpline
 70
8
 71
3
 72
8
 73
4
 74
0
 40
0
 40
0
 40
0
 40
0
 40
1
 40
1
 40
1
 40
1
 10
6.430984
 20
4.709161
 30
0.0
 10
6.716183
 20
4.545625
 30
0.0
 10
6.848329
 20
4.196731
 30
0.0
 10
7.151139
 20
4.102211
 30
0.0
  0
SPLINE
  5
1b4
100
AcDbEntity
  8
Layer_1
 62
7
100
AcDbSpline
 70
8
 71
3
 72
8
 73
4
 74
0
 40
0
 40
0
 40
0
 40
0
 40
1
 40
1
 40
1
 40
1
 10
7.151139
 20
4.102211
 30
0.0
 10
7.242000
 20
4.077417
 30
0.0
 10
7.335617
 20
4.064578
 30
0.0
 10
7.425837
 20
4.068802
 30
0.0
  0
LWPOLYLINE
  5
1b5
100
AcDbEntity
  8
Layer_1
 62
7
100
AcDbPolyline
 90
1
 70
1
 10
6.329503
 20
4.517466
 30
0.0
  0
SPLINE
  5
1b6
100
AcDbEntity
  8
Layer_1
 62
7
100
AcDbSpline
 70
8
 71
3
 72
8
 73
4
 74
0
 40
0
 40
0
 40
0
 40
0
 40
1
 40
1
 40
1
 40
1
 10
7.425837
 20
4.224712
 30
0.0
 10
7.300694
 20
4.210603
 30
0.0
 10
7.155902
 20
4.280163
 30
0.0
 10
7.080608
 20
4.365773
 30
0.0
  0
SPLINE
  5
1b7
100
AcDbEntity
  8
Layer_1
 62
7
100
AcDbSpline
 70
8
 71
3
 72
8
 73
4
 74
0
 40
0
 40
0
 40
0
 40
0
 40
1
 40
1
 40
1
 40
1
 10
7.080608
 20
4.365773
 30
0.0
 10
6.941139
 20
4.464896
 30
0.0
 10
6.810008
 20
4.622190
 30
0.0
 10
6.659277
 20
4.742558
 30
0.0
  0
SPLINE
  5
1b8
100
AcDbEntity
  8
Layer_1
 62
7
100
AcDbSpline
 70
8
 71
3
 72
8
 73
4
 74
0
 40
0
 40
0
 40
0
 40
0
 40
1
 40
1
 40
1
 40
1
 10
6.659277
 20
4.742558
 30
0.0
 10
6.531176
 20
4.856637
 30
0.0
 10
6.406199
 20
4.996950
 30
0.0
 10
6.230522
 20
5.030252
 30
0.0
  0
SPLINE
  5
1b9
100
AcDbEntity
  8
Layer_1
 62
7
100
AcDbSpline
 70
8
 71
3
 72
8
 73
4
 74
0
 40
0
 40
0
 40
0
 40
0
 40
1
 40
1
 40
1
 40
1
 10
6.230522
 20
5.030252
 30
0.0
 10
5.999835
 20
4.907360
 30
0.0
 10
5.910661
 20
5.089133
 30
0.0
 10
5.989233
 20
5.251127
 30
0.0
  0
SPLINE
  5
1ba
100
AcDbEntity
  8
Layer_1
 62
7
100
AcDbSpline
 70
8
 71
3
 72
8
 73
4
 74
0
 40
0
 40
0
 40
0
 40
0
 40
1
 40
1
 40
1
 40
1
 10
5.989233
 20
5.251127
 30
0.0
 10
6.055476
 20
5.359688
 30
0.0
 10
6.077362
 20
5.402078
 30
0.0
 10
6.250936
 20
5.444159
 30
0.0
  0
SPLINE
  5
1bb
100
AcDbEntity
  8
Layer_1
 62
7
100
AcDbSpline
 70
8
 71
3
 72
8
 73
4
 74
0
 40
0
 40
0
 40
0
 40
0
 40
1
 40
1
 40
1
 40
1
 10
6.250936
 20
5.444159
 30
0.0
 10
6.225908
 20
5.473560
 30
0.0
 10
6.190651
 20
5.484962
 30
0.0
 10
6.150708
 20
5.484992
 30
0.0
  0
LWPOLYLINE
  5
1bc
100
AcDbEntity
  8
Layer_1
 62
7
100
AcDbPolyline
 90
2
 70
0
 10
7.425837
 20
4.068802
 30
0.0
 10
7.425837
 20
4.224712
 30
0.0
  0
SPLINE
  5
1bd
100
AcDbEntity
  8
Layer_1
 62
7
100
AcDbSpline
 70
8
 71
3
 72
8
 73
4
 74
0
 40
0
 40
0
 40
0
 40
0
 40
1
 40
1
 40
1
 40
1
 10
4.422942
 20
5.636453
 30
0.0
 10
4.257648
 20
5.636453
 30
0.0
 10
4.103324
 20
5.807342
 30
0.0
 10
4.072682
 20
5.987129
 30
0.0
  0
SPLINE
  5
1be
100
AcDbEntity
  8
Layer_1
 62
7
100
AcDbSpline
 70
8
 71
3
 72
8
 73
4
 74
0
 40
0
 40
0
 40
0
 40
0
 40
1
 40
1
 40
1
 40
1
 10
4.072682
 20
5.987129
 30
0.0
 10
4.026839
 20
6.256107
 30
0.0
 10
4.151689
 20
6.519081
 30
0.0
 10
4.094966
 20
6.795781
 30
0.0
  0
SPLINE
  5
1bf
100
AcDbEntity
  8
Layer_1
 62
7
100
AcDbSpline
 70
8
 71
3
 72
8
 73
4
 74
0
 40
0
 40
0
 40
0
 40
0
 40
1
 40
1
 40
1
 40
1
 10
4.094966
 20
6.795781
 30
0.0
 10
3.978369
 20
7.364534
 30
0.0
 10
3.864861
 20
7.931815
 30
0.0
 10
3.806726
 20
8.509661
 30
0.0
  0
SPLINE
  5
1c0
100
AcDbEntity
  8
Layer_1
 62
7
100
AcDbSpline
 70
8
 71
3
 72
8
 73
4
 74
0
 40
0
 40
0
 40
0
 40
0
 40
1
 40
1
 40
1
 40
1
 10
3.806726
 20
8.509661
 30
0.0
 10
3.785984
 20
8.715824
 30
0.0
 10
3.912222
 20
8.981073
 30
0.0
 10
4.124140
 20
9.038258
 30
0.0
  0
SPLINE
  5
1c1
100
AcDbEntity
  8
Layer_1
 62
7
100
AcDbSpline
 70
8
 71
3
 72
8
 73
4
 74
0
 40
0
 40
0
 40
0
 40
0
 40
1
 40
1
 40
1
 40
1
 10
4.124140
 20
9.038258
 30
0.0
 10
4.327506
 20
9.093139
 30
0.0
 10
4.457609
 20
8.828887
 30
0.0
 10
4.640769
 20
8.766114
 30
0.0
  0
SPLINE
  5
1c2
100
AcDbEntity
  8
Layer_1
 62
7
100
AcDbSpline
 70
8
 71
3
 72
8
 73
4
 74
0
 40
0
 40
0
 40
0
 40
0
 40
1
 40
1
 40
1
 40
1
 10
4.640769
 20
8.766114
 30
0.0
 10
4.754634
 20
8.727090
 30
0.0
 10
4.764612
 20
8.906361
 30
0.0
 10
4.640710
 20
8.948246
 30
0.0
  0
SPLINE
  5
1c3
100
AcDbEntity
  8
Layer_1
 62
7
100
AcDbSpline
 70
8
 71
3
 72
8
 73
4
 74
0
 40
0
 40
0
 40
0
 40
0
 40
1
 40
1
 40
1
 40
1
 10
4.640710
 20
8.948246
 30
0.0
 10
4.435586
 20
9.017589
 30
0.0
 10
4.258983
 20
9.140434
 30
0.0
 10
4.044451
 20
9.163033
 30
0.0
  0
SPLINE
  5
1c4
100
AcDbEntity
  8
Layer_1
 62
7
100
AcDbSpline
 70
8
 71
3
 72
8
 73
4
 74
0
 40
0
 40
0
 40
0
 40
0
 40
1
 40
1
 40
1
 40
1
 10
4.044451
 20
9.163033
 30
0.0
 10
3.834611
 20
9.185140
 30
0.0
 10
3.755956
 20
8.947741
 30
0.0
 10
3.720978
 20
8.762615
 30
0.0
  0
SPLINE
  5
1c5
100
AcDbEntity
  8
Layer_1
 62
7
100
AcDbSpline
 70
8
 71
3
 72
8
 73
4
 74
0
 40
0
 40
0
 40
0
 40
0
 40
1
 40
1
 40
1
 40
1
 10
3.720978
 20
8.762615
 30
0.0
 10
3.692612
 20
8.612478
 30
0.0
 10
3.680205
 20
8.465294
 30
0.0
 10
3.704882
 20
8.314605
 30
0.0
  0
SPLINE
  5
1c6
100
AcDbEntity
  8
Layer_1
 62
7
100
AcDbSpline
 70
8
 71
3
 72
8
 73
4
 74
0
 40
0
 40
0
 40
0
 40
0
 40
1
 40
1
 40
1
 40
1
 10
3.704882
 20
8.314605
 30
0.0
 10
3.748315
 20
8.049397
 30
0.0
 10
3.869690
 20
7.807075
 30
0.0
 10
3.834510
 20
7.530244
 30
0.0
  0
SPLINE
  5
1c7
100
AcDbEntity
  8
Layer_1
 62
7
100
AcDbSpline
 70
8
 71
3
 72
8
 73
4
 74
0
 40
0
 40
0
 40
0
 40
0
 40
1
 40
1
 40
1
 40
1
 10
3.834510
 20
7.530244
 30
0.0
 10
3.818521
 20
7.404430
 30
0.0
 10
3.797551
 20
7.280789
 30
0.0
 10
3.841062
 20
7.156744
 30
0.0
  0
SPLINE
  5
1c8
100
AcDbEntity
  8
Layer_1
 62
7
100
AcDbSpline
 70
8
 71
3
 72
8
 73
4
 74
0
 40
0
 40
0
 40
0
 40
0
 40
1
 40
1
 40
1
 40
1
 10
3.841062
 20
7.156744
 30
0.0
 10
3.917805
 20
6.937947
 30
0.0
 10
4.026496
 20
6.725049
 30
0.0
 10
4.025510
 20
6.485589
 30
0.0
  0
SPLINE
  5
1c9
100
AcDbEntity
  8
Layer_1
 62
7
100
AcDbSpline
 70
8
 71
3
 72
8
 73
4
 74
0
 40
0
 40
0
 40
0
 40
0
 40
1
 40
1
 40
1
 40
1
 10
4.025510
 20
6.485589
 30
0.0
 10
4.024893
 20
6.335696
 30
0.0
 10
3.949468
 20
6.207862
 30
0.0
 10
3.947609
 20
6.058354
 30
0.0
  0
SPLINE
  5
1ca
100
AcDbEntity
  8
Layer_1
 62
7
100
AcDbSpline
 70
8
 71
3
 72
8
 73
4
 74
0
 40
0
 40
0
 40
0
 40
0
 40
1
 40
1
 40
1
 40
1
 10
3.947609
 20
6.058354
 30
0.0
 10
3.945875
 20
5.918992
 30
0.0
 10
3.938122
 20
5.743517
 30
0.0
 10
4.057655
 20
5.654610
 30
0.0
  0
SPLINE
  5
1cb
100
AcDbEntity
  8
Layer_1
 62
7
100
AcDbSpline
 70
8
 71
3
 72
8
 73
4
 74
0
 40
0
 40
0
 40
0
 40
0
 40
1
 40
1
 40
1
 40
1
 10
4.057655
 20
5.654610
 30
0.0
 10
4.148005
 20
5.587406
 30
0.0
 10
4.339456
 20
5.516934
 30
0.0
 10
4.419175
 20
5.620728
 30
0.0
  0
SPLINE
  5
1cc
100
AcDbEntity
  8
Layer_1
 62
7
100
AcDbSpline
 70
8
 71
3
 72
8
 73
4
 74
0
 40
0
 40
0
 40
0
 40
0
 40
1
 40
1
 40
1
 40
1
 10
4.419175
 20
5.620728
 30
0.0
 10
4.422466
 20
5.625010
 30
0.0
 10
4.428365
 20
5.636499
 30
0.0
 10
4.422971
 20
5.636499
 30
0.0
  0
LWPOLYLINE
  5
1cd
100
AcDbEntity
  8
Layer_1
 62
7
100
AcDbPolyline
 90
1
 70
1
 10
6.150708
 20
5.484992
 30
0.0
  0
LWPOLYLINE
  5
1ce
100
AcDbEntity
  8
Layer_1
 62
7
100
AcDbPolyline
 90
1
 70
1
 10
4.422971
 20
5.636499
 30
0.0
  0
LWPOLYLINE
  5
1cf
100
AcDbEntity
  8
Layer_1
 62
7
100
AcDbPolyline
 90
5
 70
1
 10
3.794551
 20
8.533110
 30
0.0
 10
4.003512
 20
8.175972
 30
0.0
 10
4.058382
 20
7.902569
 30
0.0
 10
3.979804
 20
8.159176
 30
0.0
 10
3.773551
 20
8.422868
 30
0.0
  0
SPLINE
  5
1d0
100
AcDbEntity
  8
Layer_1
 62
7
100
AcDbSpline
 70
8
 71
3
 72
8
 73
4
 74
0
 40
0
 40
0
 40
0
 40
0
 40
1
 40
1
 40
1
 40
1
 10
4.172259
 20
9.735796
 30
0.0
 10
3.828978
 20
10.243349
 30
0.0
 10
3.370258
 20
11.051021
 30
0.0
 10
2.964833
 20
11.720216
 30
0.0
  0
LWPOLYLINE
  5
1d1
100
AcDbEntity
  8
Layer_1
 62
7
100
AcDbPolyline
 90
3
 70
0
 10
2.964814
 20
11.720204
 30
0.0
 10
4.140760
 20
9.179319
 30
0.0
 10
4.172259
 20
9.735796
 30
0.0
  0
SPLINE
  5
1d2
100
AcDbEntity
  8
Layer_1
 62
7
100
AcDbSpline
 70
8
 71
3
 72
8
 73
4
 74
0
 40
0
 40
0
 40
0
 40
0
 40
1
 40
1
 40
1
 40
1
 10
7.372460
 20
11.489161
 30
0.0
 10
7.620929
 20
11.476377
 30
0.0
 10
7.980419
 20
11.432991
 30
0.0
 10
8.288675
 20
11.408361
 30
0.0
  0
SPLINE
  5
1d3
100
AcDbEntity
  8
Layer_1
 62
7
100
AcDbSpline
 70
8
 71
3
 72
8
 73
4
 74
0
 40
0
 40
0
 40
0
 40
0
 40
1
 40
1
 40
1
 40
1
 10
8.288675
 20
11.408361
 30
0.0
 10
8.453138
 20
11.395222
 30
0.0
 10
8.592500
 20
11.359070
 30
0.0
 10
8.738937
 20
11.276126
 30
0.0
  0
SPLINE
  5
1d4
100
AcDbEntity
  8
Layer_1
 62
7
100
AcDbSpline
 70
8
 71
3
 72
8
 73
4
 74
0
 40
0
 40
0
 40
0
 40
0
 40
1
 40
1
 40
1
 40
1
 10
8.738937
 20
11.276126
 30
0.0
 10
8.955239
 20
11.153613
 30
0.0
 10
9.185813
 20
11.037135
 30
0.0
 10
9.389422
 20
10.895533
 30
0.0
  0
SPLINE
  5
1d5
100
AcDbEntity
  8
Layer_1
 62
7
100
AcDbSpline
 70
8
 71
3
 72
8
 73
4
 74
0
 40
0
 40
0
 40
0
 40
0
 40
1
 40
1
 40
1
 40
1
 10
9.389422
 20
10.895533
 30
0.0
 10
9.722826
 20
10.663682
 30
0.0
 10
10.024168
 20
10.392268
 30
0.0
 10
10.326426
 20
10.122874
 30
0.0
  0
SPLINE
  5
1d6
100
AcDbEntity
  8
Layer_1
 62
7
100
AcDbSpline
 70
8
 71
3
 72
8
 73
4
 74
0
 40
0
 40
0
 40
0
 40
0
 40
1
 40
1
 40
1
 40
1
 10
10.326426
 20
10.122874
 30
0.0
 10
10.450702
 20
10.012115
 30
0.0
 10
10.538576
 20
9.866801
 30
0.0
 10
10.640407
 20
9.735534
 30
0.0
  0
SPLINE
  5
1d7
100
AcDbEntity
  8
Layer_1
 62
7
100
AcDbSpline
 70
8
 71
3
 72
8
 73
4
 74
0
 40
0
 40
0
 40
0
 40
0
 40
1
 40
1
 40
1
 40
1
 10
10.640407
 20
9.735534
 30
0.0
 10
10.689767
 20
9.671911
 30
0.0
 10
10.717269
 20
9.611608
 30
0.0
 10
10.720483
 20
9.534206
 30
0.0
  0
SPLINE
  5
1d8
100
AcDbEntity
  8
Layer_1
 62
7
100
AcDbSpline
 70
8
 71
3
 72
8
 73
4
 74
0
 40
0
 40
0
 40
0
 40
0
 40
1
 40
1
 40
1
 40
1
 10
10.720483
 20
9.534206
 30
0.0
 10
10.727969
 20
9.353695
 30
0.0
 10
10.753193
 20
9.185882
 30
0.0
 10
10.644464
 20
9.041602
 30
0.0
  0
SPLINE
  5
1d9
100
AcDbEntity
  8
Layer_1
 62
7
100
AcDbSpline
 70
8
 71
3
 72
8
 73
4
 74
0
 40
0
 40
0
 40
0
 40
0
 40
1
 40
1
 40
1
 40
1
 10
10.644464
 20
9.041602
 30
0.0
 10
10.530451
 20
8.890307
 30
0.0
 10
10.385529
 20
8.775795
 30
0.0
 10
10.196804
 20
8.759277
 30
0.0
  0
SPLINE
  5
1da
100
AcDbEntity
  8
Layer_1
 62
7
100
AcDbSpline
 70
8
 71
3
 72
8
 73
4
 74
0
 40
0
 40
0
 40
0
 40
0
 40
1
 40
1
 40
1
 40
1
 10
10.196804
 20
8.759277
 30
0.0
 10
10.075176
 20
8.748634
 30
0.0
 10
9.936823
 20
8.824237
 30
0.0
 10
9.871317
 20
8.927268
 30
0.0
  0
SPLINE
  5
1db
100
AcDbEntity
  8
Layer_1
 62
7
100
AcDbSpline
 70
8
 71
3
 72
8
 73
4
 74
0
 40
0
 40
0
 40
0
 40
0
 40
1
 40
1
 40
1
 40
1
 10
9.871317
 20
8.927268
 30
0.0
 10
9.589973
 20
9.369796
 30
0.0
 10
9.474493
 20
9.904956
 30
0.0
 10
9.188878
 20
10.344711
 30
0.0
  0
SPLINE
  5
1dc
100
AcDbEntity
  8
Layer_1
 62
7
100
AcDbSpline
 70
8
 71
3
 72
8
 73
4
 74
0
 40
0
 40
0
 40
0
 40
0
 40
1
 40
1
 40
1
 40
1
 10
9.188878
 20
10.344711
 30
0.0
 10
9.077715
 20
10.515856
 30
0.0
 10
8.891491
 20
10.635131
 30
0.0
 10
8.710837
 20
10.728653
 30
0.0
  0
SPLINE
  5
1dd
100
AcDbEntity
  8
Layer_1
 62
7
100
AcDbSpline
 70
8
 71
3
 72
8
 73
4
 74
0
 40
0
 40
0
 40
0
 40
0
 40
1
 40
1
 40
1
 40
1
 10
8.710837
 20
10.728653
 30
0.0
 10
8.561461
 20
10.805985
 30
0.0
 10
8.408063
 20
10.903795
 30
0.0
 10
8.241385
 20
10.922183
 30
0.0
  0
SPLINE
  5
1de
100
AcDbEntity
  8
Layer_1
 62
7
100
AcDbSpline
 70
8
 71
3
 72
8
 73
4
 74
0
 40
0
 40
0
 40
0
 40
0
 40
1
 40
1
 40
1
 40
1
 10
8.241385
 20
10.922183
 30
0.0
 10
7.966479
 20
10.952509
 30
0.0
 10
7.603610
 20
10.954174
 30
0.0
 10
7.424952
 20
10.922183
 30
0.0
  0
SPLINE
  5
1df
100
AcDbEntity
  8
Layer_1
 62
7
100
AcDbSpline
 70
8
 71
3
 72
8
 73
4
 74
0
 40
0
 40
0
 40
0
 40
0
 40
1
 40
1
 40
1
 40
1
 10
7.424952
 20
10.922183
 30
0.0
 10
7.238122
 20
10.888725
 30
0.0
 10
7.182909
 20
11.498907
 30
0.0
 10
7.372455
 20
11.489155
 30
0.0
  0
LWPOLYLINE
  5
1e0
100
AcDbEntity
  8
Layer_1
 62
7
100
AcDbPolyline
 90
1
 70
1
 10
2.964833
 20
11.720216
 30
0.0
  0
SPLINE
  5
1e1
100
AcDbEntity
  8
Layer_1
 62
7
100
AcDbSpline
 70
8
 71
3
 72
8
 73
4
 74
0
 40
0
 40
0
 40
0
 40
0
 40
1
 40
1
 40
1
 40
1
 10
10.276837
 20
8.835427
 30
0.0
 10
10.214533
 20
8.684975
 30
0.0
 10
10.097621
 20
8.483979
 30
0.0
 10
10.065168
 20
8.189514
 30
0.0
  0
SPLINE
  5
1e2
100
AcDbEntity
  8
Layer_1
 62
7
100
AcDbSpline
 70
8
 71
3
 72
8
 73
4
 74
0
 40
0
 40
0
 40
0
 40
0
 40
1
 40
1
 40
1
 40
1
 10
10.065168
 20
8.189514
 30
0.0
 10
10.112069
 20
8.000546
 30
0.0
 10
10.275756
 20
7.836107
 30
0.0
 10
10.240037
 20
7.630377
 30
0.0
  0
SPLINE
  5
1e3
100
AcDbEntity
  8
Layer_1
 62
7
100
AcDbSpline
 70
8
 71
3
 72
8
 73
4
 74
0
 40
0
 40
0
 40
0
 40
0
 40
1
 40
1
 40
1
 40
1
 10
10.240037
 20
7.630377
 30
0.0
 10
10.220677
 20
7.290309
 30
0.0
 10
10.039154
 20
7.514974
 30
0.0
 10
9.932951
 20
7.607552
 30
0.0
  0
SPLINE
  5
1e4
100
AcDbEntity
  8
Layer_1
 62
7
100
AcDbSpline
 70
8
 71
3
 72
8
 73
4
 74
0
 40
0
 40
0
 40
0
 40
0
 40
1
 40
1
 40
1
 40
1
 10
9.932951
 20
7.607552
 30
0.0
 10
9.750747
 20
7.710405
 30
0.0
 10
9.563602
 20
7.731371
 30
0.0
 10
9.558726
 20
7.960300
 30
0.0
  0
SPLINE
  5
1e5
100
AcDbEntity
  8
Layer_1
 62
7
100
AcDbSpline
 70
8
 71
3
 72
8
 73
4
 74
0
 40
0
 40
0
 40
0
 40
0
 40
1
 40
1
 40
1
 40
1
 10
9.558726
 20
7.960300
 30
0.0
 10
9.549162
 20
8.271211
 30
0.0
 10
9.673487
 20
8.555193
 30
0.0
 10
9.675845
 20
8.857509
 30
0.0
  0
SPLINE
  5
1e6
100
AcDbEntity
  8
Layer_1
 62
7
100
AcDbSpline
 70
8
 71
3
 72
8
 73
4
 74
0
 40
0
 40
0
 40
0
 40
0
 40
1
 40
1
 40
1
 40
1
 10
9.675845
 20
8.857509
 30
0.0
 10
9.594938
 20
9.224334
 30
0.0
 10
9.402988
 20
9.493800
 30
0.0
 10
9.148258
 20
9.742127
 30
0.0
  0
SPLINE
  5
1e7
100
AcDbEntity
  8
Layer_1
 62
7
100
AcDbSpline
 70
8
 71
3
 72
8
 73
4
 74
0
 40
0
 40
0
 40
0
 40
0
 40
1
 40
1
 40
1
 40
1
 10
9.148258
 20
9.742127
 30
0.0
 10
9.290578
 20
9.486940
 30
0.0
 10
9.469996
 20
9.249024
 30
0.0
 10
9.563299
 20
8.969230
 30
0.0
  0
SPLINE
  5
1e8
100
AcDbEntity
  8
Layer_1
 62
7
100
AcDbSpline
 70
8
 71
3
 72
8
 73
4
 74
0
 40
0
 40
0
 40
0
 40
0
 40
1
 40
1
 40
1
 40
1
 10
9.563299
 20
8.969230
 30
0.0
 10
9.609130
 20
8.762128
 30
0.0
 10
9.551276
 20
8.585757
 30
0.0
 10
9.531807
 20
8.393902
 30
0.0
  0
SPLINE
  5
1e9
100
AcDbEntity
  8
Layer_1
 62
7
100
AcDbSpline
 70
8
 71
3
 72
8
 73
4
 74
0
 40
0
 40
0
 40
0
 40
0
 40
1
 40
1
 40
1
 40
1
 10
9.531807
 20
8.393902
 30
0.0
 10
9.515025
 20
8.195733
 30
0.0
 10
9.412568
 20
7.980756
 30
0.0
 10
9.464906
 20
7.797584
 30
0.0
  0
SPLINE
  5
1ea
100
AcDbEntity
  8
Layer_1
 62
7
100
AcDbSpline
 70
8
 71
3
 72
8
 73
4
 74
0
 40
0
 40
0
 40
0
 40
0
 40
1
 40
1
 40
1
 40
1
 10
9.464906
 20
7.797584
 30
0.0
 10
9.610131
 20
7.626119
 30
0.0
 10
9.837397
 20
7.580088
 30
0.0
 10
9.971657
 20
7.434988
 30
0.0
  0
SPLINE
  5
1eb
100
AcDbEntity
  8
Layer_1
 62
7
100
AcDbSpline
 70
8
 71
3
 72
8
 73
4
 74
0
 40
0
 40
0
 40
0
 40
0
 40
1
 40
1
 40
1
 40
1
 10
9.971657
 20
7.434988
 30
0.0
 10
10.115368
 20
7.300834
 30
0.0
 10
9.907256
 20
7.185568
 30
0.0
 10
9.823694
 20
7.099327
 30
0.0
  0
SPLINE
  5
1ec
100
AcDbEntity
  8
Layer_1
 62
7
100
AcDbSpline
 70
8
 71
3
 72
8
 73
4
 74
0
 40
0
 40
0
 40
0
 40
0
 40
1
 40
1
 40
1
 40
1
 10
9.823694
 20
7.099327
 30
0.0
 10
9.760523
 20
6.962192
 30
0.0
 10
9.421655
 20
6.900802
 30
0.0
 10
9.217873
 20
6.924815
 30
0.0
  0
SPLINE
  5
1ed
100
AcDbEntity
  8
Layer_1
 62
7
100
AcDbSpline
 70
8
 71
3
 72
8
 73
4
 74
0
 40
0
 40
0
 40
0
 40
0
 40
1
 40
1
 40
1
 40
1
 10
9.217873
 20
6.924815
 30
0.0
 10
8.978396
 20
6.950677
 30
0.0
 10
8.830047
 20
6.962040
 30
0.0
 10
8.576534
 20
6.957388
 30
0.0
  0
SPLINE
  5
1ee
100
AcDbEntity
  8
Layer_1
 62
7
100
AcDbSpline
 70
8
 71
3
 72
8
 73
4
 74
0
 40
0
 40
0
 40
0
 40
0
 40
1
 40
1
 40
1
 40
1
 10
8.576534
 20
6.957388
 30
0.0
 10
8.506194
 20
6.956099
 30
0.0
 10
8.314285
 20
7.059944
 30
0.0
 10
8.178848
 20
7.185670
 30
0.0
  0
SPLINE
  5
1ef
100
AcDbEntity
  8
Layer_1
 62
7
100
AcDbSpline
 70
8
 71
3
 72
8
 73
4
 74
0
 40
0
 40
0
 40
0
 40
0
 40
1
 40
1
 40
1
 40
1
 10
8.178848
 20
7.185670
 30
0.0
 10
8.027767
 20
7.325917
 30
0.0
 10
7.958389
 20
7.467092
 30
0.0
 10
7.934738
 20
7.491420
 30
0.0
  0
SPLINE
  5
1f0
100
AcDbEntity
  8
Layer_1
 62
7
100
AcDbSpline
 70
8
 71
3
 72
8
 73
4
 74
0
 40
0
 40
0
 40
0
 40
0
 40
1
 40
1
 40
1
 40
1
 10
7.934738
 20
7.491420
 30
0.0
 10
7.909233
 20
7.046206
 30
0.0
 10
8.243202
 20
7.176197
 30
0.0
 10
8.050913
 20
6.979608
 30
0.0
  0
SPLINE
  5
1f1
100
AcDbEntity
  8
Layer_1
 62
7
100
AcDbSpline
 70
8
 71
3
 72
8
 73
4
 74
0
 40
0
 40
0
 40
0
 40
0
 40
1
 40
1
 40
1
 40
1
 10
8.050913
 20
6.979608
 30
0.0
 10
7.913742
 20
6.826163
 30
0.0
 10
7.943000
 20
6.596295
 30
0.0
 10
7.905819
 20
6.406269
 30
0.0
  0
SPLINE
  5
1f2
100
AcDbEntity
  8
Layer_1
 62
7
100
AcDbSpline
 70
8
 71
3
 72
8
 73
4
 74
0
 40
0
 40
0
 40
0
 40
0
 40
1
 40
1
 40
1
 40
1
 10
7.905819
 20
6.406269
 30
0.0
 10
7.900391
 20
6.324091
 30
0.0
 10
7.985912
 20
6.024643
 30
0.0
 10
7.985912
 20
6.024643
 30
0.0
  0
SPLINE
  5
1f3
100
AcDbEntity
  8
Layer_1
 62
7
100
AcDbSpline
 70
8
 71
3
 72
8
 73
4
 74
0
 40
0
 40
0
 40
0
 40
0
 40
1
 40
1
 40
1
 40
1
 10
7.985912
 20
6.024643
 30
0.0
 10
7.985912
 20
6.024643
 30
0.0
 10
7.968351
 20
6.494131
 30
0.0
 10
8.132693
 20
6.600316
 30
0.0
  0
SPLINE
  5
1f4
100
AcDbEntity
  8
Layer_1
 62
7
100
AcDbSpline
 70
8
 71
3
 72
8
 73
4
 74
0
 40
0
 40
0
 40
0
 40
0
 40
1
 40
1
 40
1
 40
1
 10
8.132693
 20
6.600316
 30
0.0
 10
8.254422
 20
6.721706
 30
0.0
 10
8.406625
 20
6.862262
 30
0.0
 10
8.599164
 20
6.864282
 30
0.0
  0
SPLINE
  5
1f5
100
AcDbEntity
  8
Layer_1
 62
7
100
AcDbSpline
 70
8
 71
3
 72
8
 73
4
 74
0
 40
0
 40
0
 40
0
 40
0
 40
1
 40
1
 40
1
 40
1
 10
8.599164
 20
6.864282
 30
0.0
 10
8.978099
 20
6.868249
 30
0.0
 10
9.374377
 20
6.781177
 30
0.0
 10
9.709361
 20
6.841431
 30
0.0
  0
SPLINE
  5
1f6
100
AcDbEntity
  8
Layer_1
 62
7
100
AcDbSpline
 70
8
 71
3
 72
8
 73
4
 74
0
 40
0
 40
0
 40
0
 40
0
 40
1
 40
1
 40
1
 40
1
 10
9.709361
 20
6.841431
 30
0.0
 10
9.874126
 20
6.931128
 30
0.0
 10
10.029460
 20
7.034771
 30
0.0
 10
10.195639
 20
7.231437
 30
0.0
  0
SPLINE
  5
1f7
100
AcDbEntity
  8
Layer_1
 62
7
100
AcDbSpline
 70
8
 71
3
 72
8
 73
4
 74
0
 40
0
 40
0
 40
0
 40
0
 40
1
 40
1
 40
1
 40
1
 10
10.195639
 20
7.231437
 30
0.0
 10
10.332091
 20
7.406353
 30
0.0
 10
10.359698
 20
7.623879
 30
0.0
 10
10.390066
 20
7.829656
 30
0.0
  0
SPLINE
  5
1f8
100
AcDbEntity
  8
Layer_1
 62
7
100
AcDbSpline
 70
8
 71
3
 72
8
 73
4
 74
0
 40
0
 40
0
 40
0
 40
0
 40
1
 40
1
 40
1
 40
1
 10
10.390066
 20
7.829656
 30
0.0
 10
10.345848
 20
8.009490
 30
0.0
 10
10.143093
 20
8.147777
 30
0.0
 10
10.209739
 20
8.353008
 30
0.0
  0
SPLINE
  5
1f9
100
AcDbEntity
  8
Layer_1
 62
7
100
AcDbSpline
 70
8
 71
3
 72
8
 73
4
 74
0
 40
0
 40
0
 40
0
 40
0
 40
1
 40
1
 40
1
 40
1
 10
10.209739
 20
8.353008
 30
0.0
 10
10.238857
 20
8.518374
 30
0.0
 10
10.429967
 20
8.629203
 30
0.0
 10
10.424532
 20
8.830502
 30
0.0
  0
SPLINE
  5
1fa
100
AcDbEntity
  8
Layer_1
 62
7
100
AcDbSpline
 70
8
 71
3
 72
8
 73
4
 74
0
 40
0
 40
0
 40
0
 40
0
 40
1
 40
1
 40
1
 40
1
 10
10.424532
 20
8.830502
 30
0.0
 10
10.376431
 20
8.845792
 30
0.0
 10
10.325962
 20
8.832979
 30
0.0
 10
10.276789
 20
8.835378
 30
0.0
  0
LWPOLYLINE
  5
1fb
100
AcDbEntity
  8
Layer_1
 62
7
100
AcDbPolyline
 90
1
 70
1
 10
7.372455
 20
11.489155
 30
0.0
  0
SPLINE
  5
1fc
100
AcDbEntity
  8
Layer_1
 62
7
100
AcDbSpline
 70
8
 71
3
 72
8
 73
4
 74
0
 40
0
 40
0
 40
0
 40
0
 40
1
 40
1
 40
1
 40
1
 10
9.956109
 20
7.061915
 30
0.0
 10
9.931307
 20
6.483480
 30
0.0
 10
9.607791
 20
6.265795
 30
0.0
 10
9.252049
 20
6.221071
 30
0.0
  0
SPLINE
  5
1fd
100
AcDbEntity
  8
Layer_1
 62
7
100
AcDbSpline
 70
8
 71
3
 72
8
 73
4
 74
0
 40
0
 40
0
 40
0
 40
0
 40
1
 40
1
 40
1
 40
1
 10
9.252049
 20
6.221071
 30
0.0
 10
9.035047
 20
6.193798
 30
0.0
 10
8.807074
 20
6.159206
 30
0.0
 10
8.537002
 20
6.209189
 30
0.0
  0
SPLINE
  5
1fe
100
AcDbEntity
  8
Layer_1
 62
7
100
AcDbSpline
 70
8
 71
3
 72
8
 73
4
 74
0
 40
0
 40
0
 40
0
 40
0
 40
1
 40
1
 40
1
 40
1
 10
8.537002
 20
6.209189
 30
0.0
 10
8.318889
 20
6.249554
 30
0.0
 10
8.181011
 20
6.465843
 30
0.0
 10
8.138111
 20
6.652733
 30
0.0
  0
SPLINE
  5
1ff
100
AcDbEntity
  8
Layer_1
 62
7
100
AcDbSpline
 70
8
 71
3
 72
8
 73
4
 74
0
 40
0
 40
0
 40
0
 40
0
 40
1
 40
1
 40
1
 40
1
 10
8.138111
 20
6.652733
 30
0.0
 10
8.164849
 20
6.396649
 30
0.0
 10
8.310378
 20
6.187569
 30
0.0
 10
8.535589
 20
6.147567
 30
0.0
  0
SPLINE
  5
200
100
AcDbEntity
  8
Layer_1
 62
7
100
AcDbSpline
 70
8
 71
3
 72
8
 73
4
 74
0
 40
0
 40
0
 40
0
 40
0
 40
1
 40
1
 40
1
 40
1
 10
8.535589
 20
6.147567
 30
0.0
 10
8.743617
 20
6.110616
 30
0.0
 10
9.007909
 20
6.121609
 30
0.0
 10
9.256991
 20
6.130933
 30
0.0
  0
SPLINE
  5
201
100
AcDbEntity
  8
Layer_1
 62
7
100
AcDbSpline
 70
8
 71
3
 72
8
 73
4
 74
0
 40
0
 40
0
 40
0
 40
0
 40
1
 40
1
 40
1
 40
1
 10
9.256991
 20
6.130933
 30
0.0
 10
9.622111
 20
6.144600
 30
0.0
 10
9.918999
 20
6.476382
 30
0.0
 10
9.968534
 20
6.844436
 30
0.0
  0
SPLINE
  5
202
100
AcDbEntity
  8
Layer_1
 62
7
100
AcDbSpline
 70
8
 71
3
 72
8
 73
4
 74
0
 40
0
 40
0
 40
0
 40
0
 40
1
 40
1
 40
1
 40
1
 10
9.968534
 20
6.844436
 30
0.0
 10
9.965647
 20
6.916980
 30
0.0
 10
9.958978
 20
6.989322
 30
0.0
 10
9.956182
 20
7.061872
 30
0.0
  0
LWPOLYLINE
  5
203
100
AcDbEntity
  8
Layer_1
 62
7
100
AcDbPolyline
 90
1
 70
1
 10
10.276789
 20
8.835378
 30
0.0
  0
LWPOLYLINE
  5
204
100
AcDbEntity
  8
Layer_1
 62
7
100
AcDbPolyline
 90
1
 70
1
 10
9.956182
 20
7.061872
 30
0.0
  0
SPLINE
  5
205
100
AcDbEntity
  8
Layer_1
 62
7
100
AcDbSpline
 70
8
 71
3
 72
8
 73
4
 74
0
 40
0
 40
0
 40
0
 40
0
 40
1
 40
1
 40
1
 40
1
 10
8.168497
 20
5.976972
 30
0.0
 10
8.224903
 20
6.053686
 30
0.0
 10
8.851709
 20
6.008791
 30
0.0
 10
9.189365
 20
6.037958
 30
0.0
  0
LWPOLYLINE
  5
206
100
AcDbEntity
  8
Layer_1
 62
7
100
AcDbPolyline
 90
4
 70
0
 10
9.189329
 20
6.037958
 30
0.0
 10
8.128726
 20
6.075080
 30
0.0
 10
7.969633
 20
5.706515
 30
0.0
 10
8.168497
 20
5.976972
 30
0.0
  0
SPLINE
  5
207
100
AcDbEntity
  8
Layer_1
 62
7
100
AcDbSpline
 70
8
 71
3
 72
8
 73
4
 74
0
 40
0
 40
0
 40
0
 40
0
 40
1
 40
1
 40
1
 40
1
 10
10.931362
 20
8.809293
 30
0.0
 10
10.786802
 20
8.576533
 30
0.0
 10
10.635852
 20
8.316374
 30
0.0
 10
10.631082
 20
8.031348
 30
0.0
  0
SPLINE
  5
208
100
AcDbEntity
  8
Layer_1
 62
7
100
AcDbSpline
 70
8
 71
3
 72
8
 73
4
 74
0
 40
0
 40
0
 40
0
 40
0
 40
1
 40
1
 40
1
 40
1
 10
10.631082
 20
8.031348
 30
0.0
 10
10.655861
 20
7.863606
 30
0.0
 10
10.746004
 20
7.681694
 30
0.0
 10
10.859311
 20
7.583289
 30
0.0
  0
SPLINE
  5
209
100
AcDbEntity
  8
Layer_1
 62
7
100
AcDbSpline
 70
8
 71
3
 72
8
 73
4
 74
0
 40
0
 40
0
 40
0
 40
0
 40
1
 40
1
 40
1
 40
1
 10
10.859311
 20
7.583289
 30
0.0
 10
10.997497
 20
7.430189
 30
0.0
 10
10.864288
 20
7.205922
 30
0.0
 10
10.706430
 20
7.186459
 30
0.0
  0
SPLINE
  5
20a
100
AcDbEntity
  8
Layer_1
 62
7
100
AcDbSpline
 70
8
 71
3
 72
8
 73
4
 74
0
 40
0
 40
0
 40
0
 40
0
 40
1
 40
1
 40
1
 40
1
 10
10.706430
 20
7.186459
 30
0.0
 10
10.506889
 20
6.988420
 30
0.0
 10
10.272727
 20
6.767759
 30
0.0
 10
10.268160
 20
6.469986
 30
0.0
  0
SPLINE
  5
20b
100
AcDbEntity
  8
Layer_1
 62
7
100
AcDbSpline
 70
8
 71
3
 72
8
 73
4
 74
0
 40
0
 40
0
 40
0
 40
0
 40
1
 40
1
 40
1
 40
1
 10
10.268160
 20
6.469986
 30
0.0
 10
10.239797
 20
6.234488
 30
0.0
 10
10.265891
 20
5.965171
 30
0.0
 10
10.063772
 20
5.766224
 30
0.0
  0
SPLINE
  5
20c
100
AcDbEntity
  8
Layer_1
 62
7
100
AcDbSpline
 70
8
 71
3
 72
8
 73
4
 74
0
 40
0
 40
0
 40
0
 40
0
 40
1
 40
1
 40
1
 40
1
 10
10.063772
 20
5.766224
 30
0.0
 10
9.888542
 20
5.583094
 30
0.0
 10
9.664810
 20
5.281656
 30
0.0
 10
9.407288
 20
5.380910
 30
0.0
  0
SPLINE
  5
20d
100
AcDbEntity
  8
Layer_1
 62
7
100
AcDbSpline
 70
8
 71
3
 72
8
 73
4
 74
0
 40
0
 40
0
 40
0
 40
0
 40
1
 40
1
 40
1
 40
1
 10
9.407288
 20
5.380910
 30
0.0
 10
9.238026
 20
5.423390
 30
0.0
 10
9.130855
 20
5.599849
 30
0.0
 10
8.990192
 20
5.692545
 30
0.0
  0
SPLINE
  5
20e
100
AcDbEntity
  8
Layer_1
 62
7
100
AcDbSpline
 70
8
 71
3
 72
8
 73
4
 74
0
 40
0
 40
0
 40
0
 40
0
 40
1
 40
1
 40
1
 40
1
 10
8.990192
 20
5.692545
 30
0.0
 10
8.829857
 20
5.771932
 30
0.0
 10
8.710808
 20
5.727104
 30
0.0
 10
8.576927
 20
5.675531
 30
0.0
  0
SPLINE
  5
20f
100
AcDbEntity
  8
Layer_1
 62
7
100
AcDbSpline
 70
8
 71
3
 72
8
 73
4
 74
0
 40
0
 40
0
 40
0
 40
0
 40
1
 40
1
 40
1
 40
1
 10
8.576927
 20
5.675531
 30
0.0
 10
8.502625
 20
5.634935
 30
0.0
 10
8.432243
 20
5.413466
 30
0.0
 10
8.432243
 20
5.413466
 30
0.0
  0
SPLINE
  5
210
100
AcDbEntity
  8
Layer_1
 62
7
100
AcDbSpline
 70
8
 71
3
 72
8
 73
4
 74
0
 40
0
 40
0
 40
0
 40
0
 40
1
 40
1
 40
1
 40
1
 10
8.432243
 20
5.413466
 30
0.0
 10
8.432243
 20
5.413466
 30
0.0
 10
8.669956
 20
5.830437
 30
0.0
 10
8.941299
 20
5.568586
 30
0.0
  0
SPLINE
  5
211
100
AcDbEntity
  8
Layer_1
 62
7
100
AcDbSpline
 70
8
 71
3
 72
8
 73
4
 74
0
 40
0
 40
0
 40
0
 40
0
 40
1
 40
1
 40
1
 40
1
 10
8.941299
 20
5.568586
 30
0.0
 10
9.042126
 20
5.460191
 30
0.0
 10
9.132162
 20
5.350075
 30
0.0
 10
9.259462
 20
5.272844
 30
0.0
  0
SPLINE
  5
212
100
AcDbEntity
  8
Layer_1
 62
7
100
AcDbSpline
 70
8
 71
3
 72
8
 73
4
 74
0
 40
0
 40
0
 40
0
 40
0
 40
1
 40
1
 40
1
 40
1
 10
9.259462
 20
5.272844
 30
0.0
 10
9.376189
 20
5.209975
 30
0.0
 10
9.516722
 20
5.214141
 30
0.0
 10
9.643754
 20
5.233569
 30
0.0
  0
SPLINE
  5
213
100
AcDbEntity
  8
Layer_1
 62
7
100
AcDbSpline
 70
8
 71
3
 72
8
 73
4
 74
0
 40
0
 40
0
 40
0
 40
0
 40
1
 40
1
 40
1
 40
1
 10
9.643754
 20
5.233569
 30
0.0
 10
9.822757
 20
5.286253
 30
0.0
 10
9.970363
 20
5.418059
 30
0.0
 10
10.088688
 20
5.557113
 30
0.0
  0
SPLINE
  5
214
100
AcDbEntity
  8
Layer_1
 62
7
100
AcDbSpline
 70
8
 71
3
 72
8
 73
4
 74
0
 40
0
 40
0
 40
0
 40
0
 40
1
 40
1
 40
1
 40
1
 10
10.088688
 20
5.557113
 30
0.0
 10
10.261098
 20
5.798729
 30
0.0
 10
10.391623
 20
6.100321
 30
0.0
 10
10.368649
 20
6.402649
 30
0.0
  0
SPLINE
  5
215
100
AcDbEntity
  8
Layer_1
 62
7
100
AcDbSpline
 70
8
 71
3
 72
8
 73
4
 74
0
 40
0
 40
0
 40
0
 40
0
 40
1
 40
1
 40
1
 40
1
 10
10.368649
 20
6.402649
 30
0.0
 10
10.349475
 20
6.580648
 30
0.0
 10
10.440985
 20
6.736332
 30
0.0
 10
10.534816
 20
6.884396
 30
0.0
  0
SPLINE
  5
216
100
AcDbEntity
  8
Layer_1
 62
7
100
AcDbSpline
 70
8
 71
3
 72
8
 73
4
 74
0
 40
0
 40
0
 40
0
 40
0
 40
1
 40
1
 40
1
 40
1
 10
10.534816
 20
6.884396
 30
0.0
 10
10.648158
 20
7.063244
 30
0.0
 10
10.878323
 20
7.105651
 30
0.0
 10
10.997866
 20
7.266140
 30
0.0
  0
SPLINE
  5
217
100
AcDbEntity
  8
Layer_1
 62
7
100
AcDbSpline
 70
8
 71
3
 72
8
 73
4
 74
0
 40
0
 40
0
 40
0
 40
0
 40
1
 40
1
 40
1
 40
1
 10
10.997866
 20
7.266140
 30
0.0
 10
11.042775
 20
7.385837
 30
0.0
 10
11.031339
 20
7.520306
 30
0.0
 10
10.937307
 20
7.643341
 30
0.0
  0
SPLINE
  5
218
100
AcDbEntity
  8
Layer_1
 62
7
100
AcDbSpline
 70
8
 71
3
 72
8
 73
4
 74
0
 40
0
 40
0
 40
0
 40
0
 40
1
 40
1
 40
1
 40
1
 10
10.937307
 20
7.643341
 30
0.0
 10
10.799703
 20
7.778617
 30
0.0
 10
10.644066
 20
7.969439
 30
0.0
 10
10.722627
 20
8.174896
 30
0.0
  0
SPLINE
  5
219
100
AcDbEntity
  8
Layer_1
 62
7
100
AcDbSpline
 70
8
 71
3
 72
8
 73
4
 74
0
 40
0
 40
0
 40
0
 40
0
 40
1
 40
1
 40
1
 40
1
 10
10.722627
 20
8.174896
 30
0.0
 10
10.786345
 20
8.367897
 30
0.0
 10
10.835280
 20
8.589592
 30
0.0
 10
10.931362
 20
8.809285
 30
0.0
  0
LWPOLYLINE
  5
21a
100
AcDbEntity
  8
Layer_1
 62
7
100
AcDbPolyline
 90
1
 70
1
 10
9.189365
 20
6.037958
 30
0.0
  0
LWPOLYLINE
  5
21b
100
AcDbEntity
  8
Layer_1
 62
7
100
AcDbPolyline
 90
1
 70
1
 10
10.931362
 20
8.809285
 30
0.0
  0
LWPOLYLINE
  5
21c
100
AcDbEntity
  8
Layer_1
 62
7
100
AcDbPolyline
 90
5
 70
1
 10
8.442150
 20
10.289991
 30
0.0
 10
8.445369
 20
10.056780
 30
0.0
 10
8.489286
 20
10.267653
 30
0.0
 10
8.891497
 20
10.701207
 30
0.0
 10
8.849863
 20
10.750714
 30
0.0
  0
SPLINE
  5
21d
100
AcDbEntity
  8
Layer_1
 62
7
100
AcDbSpline
 70
8
 71
3
 72
8
 73
4
 74
0
 40
0
 40
0
 40
0
 40
0
 40
1
 40
1
 40
1
 40
1
 10
11.369097
 20
13.661208
 30
0.0
 10
11.369097
 20
13.661208
 30
0.0
 10
11.442859
 20
13.296355
 30
0.0
 10
11.396765
 20
12.915276
 30
0.0
  0
SPLINE
  5
21e
100
AcDbEntity
  8
Layer_1
 62
7
100
AcDbSpline
 70
8
 71
3
 72
8
 73
4
 74
0
 40
0
 40
0
 40
0
 40
0
 40
1
 40
1
 40
1
 40
1
 10
11.396765
 20
12.915276
 30
0.0
 10
11.362099
 20
12.628687
 30
0.0
 10
11.206656
 20
12.332909
 30
0.0
 10
11.195781
 20
12.176233
 30
0.0
  0
SPLINE
  5
21f
100
AcDbEntity
  8
Layer_1
 62
7
100
AcDbSpline
 70
8
 71
3
 72
8
 73
4
 74
0
 40
0
 40
0
 40
0
 40
0
 40
1
 40
1
 40
1
 40
1
 10
11.195781
 20
12.176233
 30
0.0
 10
11.057873
 20
11.775904
 30
0.0
 10
10.771753
 20
11.452812
 30
0.0
 10
10.529971
 20
11.112780
 30
0.0
  0
SPLINE
  5
220
100
AcDbEntity
  8
Layer_1
 62
7
100
AcDbSpline
 70
8
 71
3
 72
8
 73
4
 74
0
 40
0
 40
0
 40
0
 40
0
 40
1
 40
1
 40
1
 40
1
 10
10.529971
 20
11.112780
 30
0.0
 10
10.361031
 20
10.898937
 30
0.0
 10
10.197940
 20
10.674474
 30
0.0
 10
10.003626
 20
10.484923
 30
0.0
  0
SPLINE
  5
221
100
AcDbEntity
  8
Layer_1
 62
7
100
AcDbSpline
 70
8
 71
3
 72
8
 73
4
 74
0
 40
0
 40
0
 40
0
 40
0
 40
1
 40
1
 40
1
 40
1
 10
10.003626
 20
10.484923
 30
0.0
 10
9.864833
 20
10.435355
 30
0.0
 10
9.726041
 20
10.385788
 30
0.0
 10
9.587248
 20
10.336218
 30
0.0
  0
SPLINE
  5
222
100
AcDbEntity
  8
Layer_1
 62
7
100
AcDbSpline
 70
8
 71
3
 72
8
 73
4
 74
0
 40
0
 40
0
 40
0
 40
0
 40
1
 40
1
 40
1
 40
1
 10
9.587248
 20
10.336218
 30
0.0
 10
9.503782
 20
10.105946
 30
0.0
 10
9.540886
 20
9.851787
 30
0.0
 10
9.628481
 20
9.629070
 30
0.0
  0
SPLINE
  5
223
100
AcDbEntity
  8
Layer_1
 62
7
100
AcDbSpline
 70
8
 71
3
 72
8
 73
4
 74
0
 40
0
 40
0
 40
0
 40
0
 40
1
 40
1
 40
1
 40
1
 10
9.628481
 20
9.629070
 30
0.0
 10
9.699897
 20
9.319721
 30
0.0
 10
9.849012
 20
9.029664
 30
0.0
 10
10.029523
 20
8.773259
 30
0.0
  0
SPLINE
  5
224
100
AcDbEntity
  8
Layer_1
 62
7
100
AcDbSpline
 70
8
 71
3
 72
8
 73
4
 74
0
 40
0
 40
0
 40
0
 40
0
 40
1
 40
1
 40
1
 40
1
 10
10.029523
 20
8.773259
 30
0.0
 10
10.295158
 20
8.670536
 30
0.0
 10
10.307684
 20
9.070295
 30
0.0
 10
10.365700
 20
9.243655
 30
0.0
  0
SPLINE
  5
225
100
AcDbEntity
  8
Layer_1
 62
7
100
AcDbSpline
 70
8
 71
3
 72
8
 73
4
 74
0
 40
0
 40
0
 40
0
 40
0
 40
1
 40
1
 40
1
 40
1
 10
10.365700
 20
9.243655
 30
0.0
 10
10.630990
 20
9.720038
 30
0.0
 10
10.958823
 20
10.172521
 30
0.0
 10
11.298486
 20
10.599922
 30
0.0
  0
SPLINE
  5
226
100
AcDbEntity
  8
Layer_1
 62
7
100
AcDbSpline
 70
8
 71
3
 72
8
 73
4
 74
0
 40
0
 40
0
 40
0
 40
0
 40
1
 40
1
 40
1
 40
1
 10
11.298486
 20
10.599922
 30
0.0
 10
11.547580
 20
10.932417
 30
0.0
 10
11.734612
 20
11.308198
 30
0.0
 10
11.877093
 20
11.697052
 30
0.0
  0
SPLINE
  5
227
100
AcDbEntity
  8
Layer_1
 62
7
100
AcDbSpline
 70
8
 71
3
 72
8
 73
4
 74
0
 40
0
 40
0
 40
0
 40
0
 40
1
 40
1
 40
1
 40
1
 10
11.877093
 20
11.697052
 30
0.0
 10
11.923541
 20
11.944667
 30
0.0
 10
11.919563
 20
12.199765
 30
0.0
 10
11.944999
 20
12.450587
 30
0.0
  0
SPLINE
  5
228
100
AcDbEntity
  8
Layer_1
 62
7
100
AcDbSpline
 70
8
 71
3
 72
8
 73
4
 74
0
 40
0
 40
0
 40
0
 40
0
 40
1
 40
1
 40
1
 40
1
 10
11.944999
 20
12.450587
 30
0.0
 10
11.973346
 20
12.611920
 30
0.0
 10
11.971443
 20
12.839851
 30
0.0
 10
11.879303
 20
12.978168
 30
0.0
  0
SPLINE
  5
229
100
AcDbEntity
  8
Layer_1
 62
7
100
AcDbSpline
 70
8
 71
3
 72
8
 73
4
 74
0
 40
0
 40
0
 40
0
 40
0
 40
1
 40
1
 40
1
 40
1
 10
11.879303
 20
12.978168
 30
0.0
 10
11.792997
 20
13.132005
 30
0.0
 10
11.369059
 20
13.661261
 30
0.0
 10
11.369059
 20
13.661261
 30
0.0
  0
LWPOLYLINE
  5
22a
100
AcDbEntity
  8
Layer_1
 62
7
100
AcDbPolyline
 90
5
 70
1
 10
8.281191
 20
10.524599
 30
0.0
 10
8.284410
 20
10.291387
 30
0.0
 10
8.328327
 20
10.502260
 30
0.0
 10
8.730539
 20
10.935814
 30
0.0
 10
8.688905
 20
10.985321
 30
0.0
  0
LWPOLYLINE
  5
22b
100
AcDbEntity
  8
Layer_1
 62
7
100
AcDbPolyline
 90
1
 70
1
 10
11.369059
 20
13.661261
 30
0.0
  0
LWPOLYLINE
  5
22c
100
AcDbEntity
  8
Layer_1
 62
7
100
AcDbPolyline
 90
3
 70
1
 10
11.687450
 20
12.494705
 30
0.0
 10
10.775333
 20
9.875004
 30
0.0
 10
10.573815
 20
9.625762
 30
0.0
  0
LWPOLYLINE
  5
22d
100
AcDbEntity
  8
Layer_1
 62
7
100
AcDbPolyline
 90
3
 70
1
 10
10.997883
 20
11.248614
 30
0.0
 10
10.191844
 20
8.772112
 30
0.0
 10
10.075176
 20
8.740294
 30
0.0
  0
SPLINE
  5
22e
100
AcDbEntity
  8
Layer_1
 62
7
100
AcDbSpline
 70
8
 71
3
 72
8
 73
4
 74
0
 40
0
 40
0
 40
0
 40
0
 40
1
 40
1
 40
1
 40
1
 10
7.387902
 20
1.800774
 30
0.0
 10
7.368070
 20
1.708956
 30
0.0
 10
7.350504
 20
1.530322
 30
0.0
 10
7.383234
 20
1.582316
 30
0.0
  0
SPLINE
  5
22f
100
AcDbEntity
  8
Layer_1
 62
7
100
AcDbSpline
 70
8
 71
3
 72
8
 73
4
 74
0
 40
0
 40
0
 40
0
 40
0
 40
1
 40
1
 40
1
 40
1
 10
7.383234
 20
1.582316
 30
0.0
 10
7.413223
 20
1.629960
 30
0.0
 10
8.014713
 20
1.542768
 30
0.0
 10
8.196756
 20
1.435404
 30
0.0
  0
SPLINE
  5
230
100
AcDbEntity
  8
Layer_1
 62
7
100
AcDbSpline
 70
8
 71
3
 72
8
 73
4
 74
0
 40
0
 40
0
 40
0
 40
0
 40
1
 40
1
 40
1
 40
1
 10
8.196756
 20
1.435404
 30
0.0
 10
8.690418
 20
1.424909
 30
0.0
 10
9.043956
 20
1.840746
 30
0.0
 10
9.151697
 20
2.298403
 30
0.0
  0
SPLINE
  5
231
100
AcDbEntity
  8
Layer_1
 62
7
100
AcDbSpline
 70
8
 71
3
 72
8
 73
4
 74
0
 40
0
 40
0
 40
0
 40
0
 40
1
 40
1
 40
1
 40
1
 10
9.151697
 20
2.298403
 30
0.0
 10
9.253130
 20
2.669070
 30
0.0
 10
9.364536
 20
3.042553
 30
0.0
 10
9.626197
 20
3.336079
 30
0.0
  0
SPLINE
  5
232
100
AcDbEntity
  8
Layer_1
 62
7
100
AcDbSpline
 70
8
 71
3
 72
8
 73
4
 74
0
 40
0
 40
0
 40
0
 40
0
 40
1
 40
1
 40
1
 40
1
 10
9.626197
 20
3.336079
 30
0.0
 10
9.964590
 20
3.781471
 30
0.0
 10
10.313329
 20
4.177102
 30
0.0
 10
10.679910
 20
4.634021
 30
0.0
  0
SPLINE
  5
233
100
AcDbEntity
  8
Layer_1
 62
7
100
AcDbSpline
 70
8
 71
3
 72
8
 73
4
 74
0
 40
0
 40
0
 40
0
 40
0
 40
1
 40
1
 40
1
 40
1
 10
10.679910
 20
4.634021
 30
0.0
 10
10.943811
 20
5.168231
 30
0.0
 10
10.386283
 20
5.635289
 30
0.0
 10
10.490443
 20
6.177262
 30
0.0
  0
SPLINE
  5
234
100
AcDbEntity
  8
Layer_1
 62
7
100
AcDbSpline
 70
8
 71
3
 72
8
 73
4
 74
0
 40
0
 40
0
 40
0
 40
0
 40
1
 40
1
 40
1
 40
1
 10
10.490443
 20
6.177262
 30
0.0
 10
10.537926
 20
6.358236
 30
0.0
 10
10.570500
 20
6.577555
 30
0.0
 10
10.459008
 20
6.274021
 30
0.0
  0
SPLINE
  5
235
100
AcDbEntity
  8
Layer_1
 62
7
100
AcDbSpline
 70
8
 71
3
 72
8
 73
4
 74
0
 40
0
 40
0
 40
0
 40
0
 40
1
 40
1
 40
1
 40
1
 10
10.459008
 20
6.274021
 30
0.0
 10
10.272813
 20
5.884882
 30
0.0
 10
10.505642
 20
5.477722
 30
0.0
 10
10.564884
 20
5.095580
 30
0.0
  0
SPLINE
  5
236
100
AcDbEntity
  8
Layer_1
 62
7
100
AcDbSpline
 70
8
 71
3
 72
8
 73
4
 74
0
 40
0
 40
0
 40
0
 40
0
 40
1
 40
1
 40
1
 40
1
 10
10.564884
 20
5.095580
 30
0.0
 10
10.485741
 20
4.614136
 30
0.0
 10
10.098978
 20
4.283067
 30
0.0
 10
9.825129
 20
3.948915
 30
0.0
  0
SPLINE
  5
237
100
AcDbEntity
  8
Layer_1
 62
7
100
AcDbSpline
 70
8
 71
3
 72
8
 73
4
 74
0
 40
0
 40
0
 40
0
 40
0
 40
1
 40
1
 40
1
 40
1
 10
9.825129
 20
3.948915
 30
0.0
 10
9.584238
 20
3.540948
 30
0.0
 10
9.093095
 20
3.289401
 30
0.0
 10
9.023604
 20
2.790193
 30
0.0
  0
SPLINE
  5
238
100
AcDbEntity
  8
Layer_1
 62
7
100
AcDbSpline
 70
8
 71
3
 72
8
 73
4
 74
0
 40
0
 40
0
 40
0
 40
0
 40
1
 40
1
 40
1
 40
1
 10
9.023604
 20
2.790193
 30
0.0
 10
8.905142
 20
2.379666
 30
0.0
 10
8.866536
 20
1.802704
 30
0.0
 10
8.341936
 20
1.693419
 30
0.0
  0
SPLINE
  5
239
100
AcDbEntity
  8
Layer_1
 62
7
100
AcDbSpline
 70
8
 71
3
 72
8
 73
4
 74
0
 40
0
 40
0
 40
0
 40
0
 40
1
 40
1
 40
1
 40
1
 10
8.341936
 20
1.693419
 30
0.0
 10
7.981948
 20
1.554834
 30
0.0
 10
7.686877
 20
1.798309
 30
0.0
 10
7.387946
 20
1.800810
 30
0.0
  0
LWPOLYLINE
  5
23a
100
AcDbEntity
  8
Layer_1
 62
7
100
AcDbPolyline
 90
3
 70
1
 10
10.494220
 20
10.500841
 30
0.0
 10
9.804831
 20
9.185674
 30
0.0
 10
9.873770
 20
9.026581
 30
0.0
  0
SPLINE
  5
23b
100
AcDbEntity
  8
Layer_1
 62
7
100
AcDbSpline
 70
8
 71
3
 72
8
 73
4
 74
0
 40
0
 40
0
 40
0
 40
0
 40
1
 40
1
 40
1
 40
1
 10
9.059850
 20
2.934610
 30
0.0
 10
9.203596
 20
3.640926
 30
0.0
 10
9.665968
 20
4.263437
 30
0.0
 10
10.038251
 20
4.943145
 30
0.0
  0
SPLINE
  5
23c
100
AcDbEntity
  8
Layer_1
 62
7
100
AcDbSpline
 70
8
 71
3
 72
8
 73
4
 74
0
 40
0
 40
0
 40
0
 40
0
 40
1
 40
1
 40
1
 40
1
 10
10.038251
 20
4.943145
 30
0.0
 10
9.777676
 20
4.331622
 30
0.0
 10
9.190042
 20
3.371573
 30
0.0
 10
9.301109
 20
3.288599
 30
0.0
  0
LWPOLYLINE
  5
23d
100
AcDbEntity
  8
Layer_1
 62
7
100
AcDbPolyline
 90
1
 70
1
 10
7.387946
 20
1.800810
 30
0.0
  0
SPLINE
  5
23e
100
AcDbEntity
  8
Layer_1
 62
7
100
AcDbSpline
 70
8
 71
3
 72
8
 73
4
 74
0
 40
0
 40
0
 40
0
 40
0
 40
1
 40
1
 40
1
 40
1
 10
7.392060
 20
2.450547
 30
0.0
 10
7.562462
 20
2.454699
 30
0.0
 10
7.720017
 20
2.394096
 30
0.0
 10
7.896032
 20
2.376678
 30
0.0
  0
SPLINE
  5
23f
100
AcDbEntity
  8
Layer_1
 62
7
100
AcDbSpline
 70
8
 71
3
 72
8
 73
4
 74
0
 40
0
 40
0
 40
0
 40
0
 40
1
 40
1
 40
1
 40
1
 10
7.896032
 20
2.376678
 30
0.0
 10
8.088950
 20
2.337289
 30
0.0
 10
8.370342
 20
2.262487
 30
0.0
 10
8.489190
 20
2.416968
 30
0.0
  0
SPLINE
  5
240
100
AcDbEntity
  8
Layer_1
 62
7
100
AcDbSpline
 70
8
 71
3
 72
8
 73
4
 74
0
 40
0
 40
0
 40
0
 40
0
 40
1
 40
1
 40
1
 40
1
 10
8.489190
 20
2.416968
 30
0.0
 10
8.654229
 20
2.566689
 30
0.0
 10
8.713112
 20
2.741991
 30
0.0
 10
8.783643
 20
2.917448
 30
0.0
  0
SPLINE
  5
241
100
AcDbEntity
  8
Layer_1
 62
7
100
AcDbSpline
 70
8
 71
3
 72
8
 73
4
 74
0
 40
0
 40
0
 40
0
 40
0
 40
1
 40
1
 40
1
 40
1
 10
8.783643
 20
2.917448
 30
0.0
 10
9.098266
 20
3.700145
 30
0.0
 10
9.293845
 20
4.526556
 30
0.0
 10
9.571626
 20
5.239940
 30
0.0
  0
SPLINE
  5
242
100
AcDbEntity
  8
Layer_1
 62
7
100
AcDbSpline
 70
8
 71
3
 72
8
 73
4
 74
0
 40
0
 40
0
 40
0
 40
0
 40
1
 40
1
 40
1
 40
1
 10
9.571626
 20
5.239940
 30
0.0
 10
9.292218
 20
4.316598
 30
0.0
 10
9.095391
 20
3.394562
 30
0.0
 10
8.706549
 20
2.512914
 30
0.0
  0
SPLINE
  5
243
100
AcDbEntity
  8
Layer_1
 62
7
100
AcDbSpline
 70
8
 71
3
 72
8
 73
4
 74
0
 40
0
 40
0
 40
0
 40
0
 40
1
 40
1
 40
1
 40
1
 10
8.706549
 20
2.512914
 30
0.0
 10
8.620291
 20
2.383345
 30
0.0
 10
8.493401
 20
2.249744
 30
0.0
 10
8.378972
 20
2.226040
 30
0.0
  0
SPLINE
  5
244
100
AcDbEntity
  8
Layer_1
 62
7
100
AcDbSpline
 70
8
 71
3
 72
8
 73
4
 74
0
 40
0
 40
0
 40
0
 40
0
 40
1
 40
1
 40
1
 40
1
 10
8.378972
 20
2.226040
 30
0.0
 10
8.209889
 20
2.200996
 30
0.0
 10
8.073026
 20
2.301708
 30
0.0
 10
7.909597
 20
2.331156
 30
0.0
  0
SPLINE
  5
245
100
AcDbEntity
  8
Layer_1
 62
7
100
AcDbSpline
 70
8
 71
3
 72
8
 73
4
 74
0
 40
0
 40
0
 40
0
 40
0
 40
1
 40
1
 40
1
 40
1
 10
7.909597
 20
2.331156
 30
0.0
 10
7.748425
 20
2.360200
 30
0.0
 10
7.445348
 20
2.439752
 30
0.0
 10
7.403879
 20
2.352521
 30
0.0
  0
SPLINE
  5
246
100
AcDbEntity
  8
Layer_1
 62
7
100
AcDbSpline
 70
8
 71
3
 72
8
 73
4
 74
0
 40
0
 40
0
 40
0
 40
0
 40
1
 40
1
 40
1
 40
1
 10
7.403879
 20
2.352521
 30
0.0
 10
7.376919
 20
2.377165
 30
0.0
 10
7.388574
 20
2.418953
 30
0.0
 10
7.392094
 20
2.450504
 30
0.0
  0
LWPOLYLINE
  5
247
100
AcDbEntity
  8
Layer_1
 62
7
100
AcDbPolyline
 90
2
 70
0
 10
9.301109
 20
3.288599
 30
0.0
 10
9.059850
 20
2.934610
 30
0.0
  0
SPLINE
  5
248
100
AcDbEntity
  8
Layer_1
 62
7
100
AcDbSpline
 70
8
 71
3
 72
8
 73
4
 74
0
 40
0
 40
0
 40
0
 40
0
 40
1
 40
1
 40
1
 40
1
 10
7.372460
 20
2.622196
 30
0.0
 10
7.658205
 20
2.640190
 30
0.0
 10
7.931110
 20
2.589863
 30
0.0
 10
8.264917
 20
2.640945
 30
0.0
  0
SPLINE
  5
249
100
AcDbEntity
  8
Layer_1
 62
7
100
AcDbSpline
 70
8
 71
3
 72
8
 73
4
 74
0
 40
0
 40
0
 40
0
 40
0
 40
1
 40
1
 40
1
 40
1
 10
8.264917
 20
2.640945
 30
0.0
 10
8.277019
 20
2.642798
 30
0.0
 10
8.485905
 20
2.781727
 30
0.0
 10
8.555515
 20
2.927831
 30
0.0
  0
SPLINE
  5
24a
100
AcDbEntity
  8
Layer_1
 62
7
100
AcDbSpline
 70
8
 71
3
 72
8
 73
4
 74
0
 40
0
 40
0
 40
0
 40
0
 40
1
 40
1
 40
1
 40
1
 10
8.555515
 20
2.927831
 30
0.0
 10
8.860600
 20
3.568160
 30
0.0
 10
9.049248
 20
4.296512
 30
0.0
 10
9.296102
 20
4.980852
 30
0.0
  0
SPLINE
  5
24b
100
AcDbEntity
  8
Layer_1
 62
7
100
AcDbSpline
 70
8
 71
3
 72
8
 73
4
 74
0
 40
0
 40
0
 40
0
 40
0
 40
1
 40
1
 40
1
 40
1
 10
9.296102
 20
4.980852
 30
0.0
 10
9.072756
 20
4.279109
 30
0.0
 10
8.968359
 20
3.480970
 30
0.0
 10
8.608970
 20
2.879841
 30
0.0
  0
SPLINE
  5
24c
100
AcDbEntity
  8
Layer_1
 62
7
100
AcDbSpline
 70
8
 71
3
 72
8
 73
4
 74
0
 40
0
 40
0
 40
0
 40
0
 40
1
 40
1
 40
1
 40
1
 10
8.608970
 20
2.879841
 30
0.0
 10
8.374779
 20
2.488112
 30
0.0
 10
8.262072
 20
2.561808
 30
0.0
 10
8.257938
 20
2.561761
 30
0.0
  0
SPLINE
  5
24d
100
AcDbEntity
  8
Layer_1
 62
7
100
AcDbSpline
 70
8
 71
3
 72
8
 73
4
 74
0
 40
0
 40
0
 40
0
 40
0
 40
1
 40
1
 40
1
 40
1
 10
8.257938
 20
2.561761
 30
0.0
 10
7.973731
 20
2.558785
 30
0.0
 10
7.674093
 20
2.594094
 30
0.0
 10
7.382408
 20
2.548962
 30
0.0
  0
LWPOLYLINE
  5
24e
100
AcDbEntity
  8
Layer_1
 62
7
100
AcDbPolyline
 90
1
 70
1
 10
7.392094
 20
2.450504
 30
0.0
  0
SPLINE
  5
24f
100
AcDbEntity
  8
Layer_1
 62
7
100
AcDbSpline
 70
8
 71
3
 72
8
 73
4
 74
0
 40
0
 40
0
 40
0
 40
0
 40
1
 40
1
 40
1
 40
1
 10
8.813364
 20
4.041718
 30
0.0
 10
8.894852
 20
4.218582
 30
0.0
 10
8.904641
 20
4.420642
 30
0.0
 10
8.991422
 20
4.593235
 30
0.0
  0
SPLINE
  5
250
100
AcDbEntity
  8
Layer_1
 62
7
100
AcDbSpline
 70
8
 71
3
 72
8
 73
4
 74
0
 40
0
 40
0
 40
0
 40
0
 40
1
 40
1
 40
1
 40
1
 10
8.991422
 20
4.593235
 30
0.0
 10
9.112354
 20
4.833758
 30
0.0
 10
9.292782
 20
5.036625
 30
0.0
 10
9.460339
 20
5.250789
 30
0.0
  0
SPLINE
  5
251
100
AcDbEntity
  8
Layer_1
 62
7
100
AcDbSpline
 70
8
 71
3
 72
8
 73
4
 74
0
 40
0
 40
0
 40
0
 40
0
 40
1
 40
1
 40
1
 40
1
 10
9.460339
 20
5.250789
 30
0.0
 10
9.306258
 20
5.012149
 30
0.0
 10
9.150467
 20
4.859090
 30
0.0
 10
9.062718
 20
4.631188
 30
0.0
  0
SPLINE
  5
252
100
AcDbEntity
  8
Layer_1
 62
7
100
AcDbSpline
 70
8
 71
3
 72
8
 73
4
 74
0
 40
0
 40
0
 40
0
 40
0
 40
1
 40
1
 40
1
 40
1
 10
9.062718
 20
4.631188
 30
0.0
 10
9.014881
 20
4.506930
 30
0.0
 10
8.960465
 20
4.373055
 30
0.0
 10
8.938460
 20
4.235581
 30
0.0
  0
SPLINE
  5
253
100
AcDbEntity
  8
Layer_1
 62
7
100
AcDbSpline
 70
8
 71
3
 72
8
 73
4
 74
0
 40
0
 40
0
 40
0
 40
0
 40
1
 40
1
 40
1
 40
1
 10
8.938460
 20
4.235581
 30
0.0
 10
8.912033
 20
4.070501
 30
0.0
 10
8.922392
 20
3.901886
 30
0.0
 10
8.914121
 20
3.760653
 30
0.0
  0
SPLINE
  5
254
100
AcDbEntity
  8
Layer_1
 62
7
100
AcDbSpline
 70
8
 71
3
 72
8
 73
4
 74
0
 40
0
 40
0
 40
0
 40
0
 40
1
 40
1
 40
1
 40
1
 10
8.914121
 20
3.760653
 30
0.0
 10
8.899979
 20
3.836666
 30
0.0
 10
8.885838
 20
3.912672
 30
0.0
 10
8.871696
 20
3.988685
 30
0.0
  0
SPLINE
  5
255
100
AcDbEntity
  8
Layer_1
 62
7
100
AcDbSpline
 70
8
 71
3
 72
8
 73
4
 74
0
 40
0
 40
0
 40
0
 40
0
 40
1
 40
1
 40
1
 40
1
 10
8.871696
 20
3.988685
 30
0.0
 10
8.786032
 20
3.913540
 30
0.0
 10
8.696662
 20
3.846579
 30
0.0
 10
8.578800
 20
3.821948
 30
0.0
  0
SPLINE
  5
256
100
AcDbEntity
  8
Layer_1
 62
7
100
AcDbSpline
 70
8
 71
3
 72
8
 73
4
 74
0
 40
0
 40
0
 40
0
 40
0
 40
1
 40
1
 40
1
 40
1
 10
8.578800
 20
3.821948
 30
0.0
 10
8.390235
 20
3.782541
 30
0.0
 10
8.206535
 20
3.723918
 30
0.0
 10
8.023612
 20
3.662682
 30
0.0
  0
SPLINE
  5
257
100
AcDbEntity
  8
Layer_1
 62
7
100
AcDbSpline
 70
8
 71
3
 72
8
 73
4
 74
0
 40
0
 40
0
 40
0
 40
0
 40
1
 40
1
 40
1
 40
1
 10
8.023612
 20
3.662682
 30
0.0
 10
7.880383
 20
3.614736
 30
0.0
 10
7.737629
 20
3.565192
 30
0.0
 10
7.593384
 20
3.522019
 30
0.0
  0
LWPOLYLINE
  5
258
100
AcDbEntity
  8
Layer_1
 62
7
100
AcDbPolyline
 90
2
 70
0
 10
7.382408
 20
2.548962
 30
0.0
 10
7.372460
 20
2.622196
 30
0.0
  0
SPLINE
  5
259
100
AcDbEntity
  8
Layer_1
 62
7
100
AcDbSpline
 70
8
 71
3
 72
8
 73
4
 74
0
 40
0
 40
0
 40
0
 40
0
 40
1
 40
1
 40
1
 40
1
 10
7.360321
 20
3.522019
 30
0.0
 10
7.337517
 20
3.639382
 30
0.0
 10
7.547858
 20
3.530303
 30
0.0
 10
7.638387
 20
3.577115
 30
0.0
  0
SPLINE
  5
25a
100
AcDbEntity
  8
Layer_1
 62
7
100
AcDbSpline
 70
8
 71
3
 72
8
 73
4
 74
0
 40
0
 40
0
 40
0
 40
0
 40
1
 40
1
 40
1
 40
1
 10
7.638387
 20
3.577115
 30
0.0
 10
7.971648
 20
3.684262
 30
0.0
 10
8.312749
 20
3.769784
 30
0.0
 10
8.638348
 20
3.898533
 30
0.0
  0
SPLINE
  5
25b
100
AcDbEntity
  8
Layer_1
 62
7
100
AcDbSpline
 70
8
 71
3
 72
8
 73
4
 74
0
 40
0
 40
0
 40
0
 40
0
 40
1
 40
1
 40
1
 40
1
 10
8.638348
 20
3.898533
 30
0.0
 10
8.708440
 20
3.926249
 30
0.0
 10
8.781809
 20
3.973263
 30
0.0
 10
8.813348
 20
4.041715
 30
0.0
  0
LWPOLYLINE
  5
25c
100
AcDbEntity
  8
Layer_1
 62
7
100
AcDbPolyline
 90
2
 70
0
 10
7.593384
 20
3.522019
 30
0.0
 10
7.360321
 20
3.522019
 30
0.0
  0
SPLINE
  5
25d
100
AcDbEntity
  8
Layer_1
 62
7
100
AcDbSpline
 70
8
 71
3
 72
8
 73
4
 74
0
 40
0
 40
0
 40
0
 40
0
 40
1
 40
1
 40
1
 40
1
 10
8.821679
 20
3.947281
 30
0.0
 10
8.821679
 20
3.947281
 30
0.0
 10
8.553128
 20
3.400736
 30
0.0
 10
8.341833
 20
3.156388
 30
0.0
  0
SPLINE
  5
25e
100
AcDbEntity
  8
Layer_1
 62
7
100
AcDbSpline
 70
8
 71
3
 72
8
 73
4
 74
0
 40
0
 40
0
 40
0
 40
0
 40
1
 40
1
 40
1
 40
1
 10
8.341833
 20
3.156388
 30
0.0
 10
8.289610
 20
3.095990
 30
0.0
 10
8.279778
 20
3.036548
 30
0.0
 10
8.190966
 20
2.986152
 30
0.0
  0
SPLINE
  5
25f
100
AcDbEntity
  8
Layer_1
 62
7
100
AcDbSpline
 70
8
 71
3
 72
8
 73
4
 74
0
 40
0
 40
0
 40
0
 40
0
 40
1
 40
1
 40
1
 40
1
 10
8.190966
 20
2.986152
 30
0.0
 10
8.072498
 20
2.918930
 30
0.0
 10
7.900136
 20
2.859963
 30
0.0
 10
7.788736
 20
2.862030
 30
0.0
  0
LWPOLYLINE
  5
260
100
AcDbEntity
  8
Layer_1
 62
7
100
AcDbPolyline
 90
1
 70
1
 10
8.813348
 20
4.041715
 30
0.0
  0
SPLINE
  5
261
100
AcDbEntity
  8
Layer_1
 62
7
100
AcDbSpline
 70
8
 71
3
 72
8
 73
4
 74
0
 40
0
 40
0
 40
0
 40
0
 40
1
 40
1
 40
1
 40
1
 10
7.377128
 20
2.906667
 30
0.0
 10
7.540587
 20
2.913228
 30
0.0
 10
7.716447
 20
2.886152
 30
0.0
 10
7.857105
 20
2.906667
 30
0.0
  0
SPLINE
  5
262
100
AcDbEntity
  8
Layer_1
 62
7
100
AcDbSpline
 70
8
 71
3
 72
8
 73
4
 74
0
 40
0
 40
0
 40
0
 40
0
 40
1
 40
1
 40
1
 40
1
 10
7.857105
 20
2.906667
 30
0.0
 10
7.958087
 20
2.923767
 30
0.0
 10
8.071922
 20
2.956668
 30
0.0
 10
8.158097
 20
3.012021
 30
0.0
  0
SPLINE
  5
263
100
AcDbEntity
  8
Layer_1
 62
7
100
AcDbSpline
 70
8
 71
3
 72
8
 73
4
 74
0
 40
0
 40
0
 40
0
 40
0
 40
1
 40
1
 40
1
 40
1
 10
8.158097
 20
3.012021
 30
0.0
 10
8.214736
 20
3.048403
 30
0.0
 10
8.250437
 20
3.110324
 30
0.0
 10
8.291217
 20
3.163886
 30
0.0
  0
SPLINE
  5
264
100
AcDbEntity
  8
Layer_1
 62
7
100
AcDbSpline
 70
8
 71
3
 72
8
 73
4
 74
0
 40
0
 40
0
 40
0
 40
0
 40
1
 40
1
 40
1
 40
1
 10
8.291217
 20
3.163886
 30
0.0
 10
8.491031
 20
3.426349
 30
0.0
 10
8.821685
 20
3.947296
 30
0.0
 10
8.821685
 20
3.947296
 30
0.0
  0
LWPOLYLINE
  5
265
100
AcDbEntity
  8
Layer_1
 62
7
100
AcDbPolyline
 90
3
 70
0
 10
7.788736
 20
2.862030
 30
0.0
 10
7.383756
 20
2.869530
 30
0.0
 10
7.377128
 20
2.906667
 30
0.0
  0
SPLINE
  5
266
100
AcDbEntity
  8
Layer_1
 62
7
100
AcDbSpline
 70
8
 71
3
 72
8
 73
4
 74
0
 40
0
 40
0
 40
0
 40
0
 40
1
 40
1
 40
1
 40
1
 10
7.410472
 20
3.384224
 30
0.0
 10
7.410472
 20
3.384224
 30
0.0
 10
7.566910
 20
3.365647
 30
0.0
 10
7.644343
 20
3.375194
 30
0.0
  0
SPLINE
  5
267
100
AcDbEntity
  8
Layer_1
 62
7
100
AcDbSpline
 70
8
 71
3
 72
8
 73
4
 74
0
 40
0
 40
0
 40
0
 40
0
 40
1
 40
1
 40
1
 40
1
 10
7.644343
 20
3.375194
 30
0.0
 10
7.784329
 20
3.392454
 30
0.0
 10
7.917128
 20
3.447952
 30
0.0
 10
8.050534
 20
3.493733
 30
0.0
  0
SPLINE
  5
268
100
AcDbEntity
  8
Layer_1
 62
7
100
AcDbSpline
 70
8
 71
3
 72
8
 73
4
 74
0
 40
0
 40
0
 40
0
 40
0
 40
1
 40
1
 40
1
 40
1
 10
8.050534
 20
3.493733
 30
0.0
 10
8.146372
 20
3.526626
 30
0.0
 10
8.244123
 20
3.557314
 30
0.0
 10
8.333143
 20
3.605715
 30
0.0
  0
SPLINE
  5
269
100
AcDbEntity
  8
Layer_1
 62
7
100
AcDbSpline
 70
8
 71
3
 72
8
 73
4
 74
0
 40
0
 40
0
 40
0
 40
0
 40
1
 40
1
 40
1
 40
1
 10
8.333143
 20
3.605715
 30
0.0
 10
8.384639
 20
3.633714
 30
0.0
 10
8.428032
 20
3.674582
 30
0.0
 10
8.476390
 20
3.707707
 30
0.0
  0
SPLINE
  5
26a
100
AcDbEntity
  8
Layer_1
 62
7
100
AcDbSpline
 70
8
 71
3
 72
8
 73
4
 74
0
 40
0
 40
0
 40
0
 40
0
 40
1
 40
1
 40
1
 40
1
 10
8.476390
 20
3.707707
 30
0.0
 10
8.586406
 20
3.783072
 30
0.0
 10
8.821091
 20
3.947006
 30
0.0
 10
8.821091
 20
3.947006
 30
0.0
  0
SPLINE
  5
26b
100
AcDbEntity
  8
Layer_1
 62
7
100
AcDbSpline
 70
8
 71
3
 72
8
 73
4
 74
0
 40
0
 40
0
 40
0
 40
0
 40
1
 40
1
 40
1
 40
1
 10
8.821091
 20
3.947006
 30
0.0
 10
8.821091
 20
3.947006
 30
0.0
 10
8.611328
 20
3.756748
 30
0.0
 10
8.505185
 20
3.679779
 30
0.0
  0
SPLINE
  5
26c
100
AcDbEntity
  8
Layer_1
 62
7
100
AcDbSpline
 70
8
 71
3
 72
8
 73
4
 74
0
 40
0
 40
0
 40
0
 40
0
 40
1
 40
1
 40
1
 40
1
 10
8.505185
 20
3.679779
 30
0.0
 10
8.455222
 20
3.643551
 30
0.0
 10
8.404304
 20
3.607978
 30
0.0
 10
8.349566
 20
3.579474
 30
0.0
  0
SPLINE
  5
26d
100
AcDbEntity
  8
Layer_1
 62
7
100
AcDbSpline
 70
8
 71
3
 72
8
 73
4
 74
0
 40
0
 40
0
 40
0
 40
0
 40
1
 40
1
 40
1
 40
1
 10
8.349566
 20
3.579474
 30
0.0
 10
8.256460
 20
3.530988
 30
0.0
 10
8.157140
 20
3.494962
 30
0.0
 10
8.058017
 20
3.460419
 30
0.0
  0
SPLINE
  5
26e
100
AcDbEntity
  8
Layer_1
 62
7
100
AcDbSpline
 70
8
 71
3
 72
8
 73
4
 74
0
 40
0
 40
0
 40
0
 40
0
 40
1
 40
1
 40
1
 40
1
 10
8.058017
 20
3.460419
 30
0.0
 10
7.920650
 20
3.412544
 30
0.0
 10
7.782909
 20
3.359615
 30
0.0
 10
7.638973
 20
3.338548
 30
0.0
  0
SPLINE
  5
26f
100
AcDbEntity
  8
Layer_1
 62
7
100
AcDbSpline
 70
8
 71
3
 72
8
 73
4
 74
0
 40
0
 40
0
 40
0
 40
0
 40
1
 40
1
 40
1
 40
1
 10
7.638973
 20
3.338548
 30
0.0
 10
7.557960
 20
3.326691
 30
0.0
 10
7.393360
 20
3.336671
 30
0.0
 10
7.393360
 20
3.336671
 30
0.0
  0
LWPOLYLINE
  5
270
100
AcDbEntity
  8
Layer_1
 62
7
100
AcDbPolyline
 90
1
 70
1
 10
8.821685
 20
3.947296
 30
0.0
  0
LWPOLYLINE
  5
271
100
AcDbEntity
  8
Layer_1
 62
7
100
AcDbPolyline
 90
2
 70
0
 10
7.393360
 20
3.336671
 30
0.0
 10
7.410472
 20
3.384224
 30
0.0
  0
LWPOLYLINE
  5
272
100
AcDbEntity
  8
Layer_1
 62
7
100
AcDbPolyline
 90
4
 70
1
 10
7.914729
 20
2.903131
 30
0.0
 10
7.616617
 20
2.891882
 30
0.0
 10
7.616617
 20
2.601272
 30
0.0
 10
7.978477
 20
2.595647
 30
0.0
  0
LWPOLYLINE
  5
273
100
AcDbEntity
  8
Layer_1
 62
7
100
AcDbPolyline
 90
4
 70
1
 10
7.614788
 20
2.884719
 30
0.0
 10
7.397298
 20
2.890343
 30
0.0
 10
7.395421
 20
2.577235
 30
0.0
 10
7.616659
 20
2.607233
 30
0.0
  0
LWPOLYLINE
  5
274
100
AcDbEntity
  8
Layer_1
 62
7
100
AcDbPolyline
 90
4
 70
1
 10
8.368501
 20
3.788105
 30
0.0
 10
8.083515
 20
3.692486
 30
0.0
 10
8.119139
 20
3.501243
 30
0.0
 10
8.387250
 20
3.613735
 30
0.0
  0
LWPOLYLINE
  5
275
100
AcDbEntity
  8
Layer_1
 62
7
100
AcDbPolyline
 90
4
 70
1
 10
8.105978
 20
3.696638
 30
0.0
 10
8.098479
 20
3.490397
 30
0.0
 10
7.815364
 20
3.400403
 30
0.0
 10
7.774117
 20
3.602896
 30
0.0
  0
LWPOLYLINE
  5
276
100
AcDbEntity
  8
Layer_1
 62
7
100
AcDbPolyline
 90
4
 70
1
 10
7.772183
 20
3.604577
 30
0.0
 10
7.811556
 20
3.396459
 30
0.0
 10
7.595943
 20
3.351462
 30
0.0
 10
7.575319
 20
3.555825
 30
0.0
  0
SPLINE
  5
277
100
AcDbEntity
  8
Layer_1
 62
7
100
AcDbSpline
 70
8
 71
3
 72
8
 73
4
 74
0
 40
0
 40
0
 40
0
 40
0
 40
1
 40
1
 40
1
 40
1
 10
8.548465
 20
3.835026
 30
0.0
 10
8.333821
 20
3.773304
 30
0.0
 10
8.343341
 20
3.729958
 30
0.0
 10
8.286745
 20
3.569457
 30
0.0
  0
SPLINE
  5
278
100
AcDbEntity
  8
Layer_1
 62
7
100
AcDbSpline
 70
8
 71
3
 72
8
 73
4
 74
0
 40
0
 40
0
 40
0
 40
0
 40
1
 40
1
 40
1
 40
1
 10
8.286745
 20
3.569457
 30
0.0
 10
8.398851
 20
3.432429
 30
0.0
 10
8.498948
 20
3.278817
 30
0.0
 10
8.667925
 20
3.216507
 30
0.0
  0
SPLINE
  5
279
100
AcDbEntity
  8
Layer_1
 62
7
100
AcDbSpline
 70
8
 71
3
 72
8
 73
4
 74
0
 40
0
 40
0
 40
0
 40
0
 40
1
 40
1
 40
1
 40
1
 10
8.667925
 20
3.216507
 30
0.0
 10
8.833154
 20
3.167636
 30
0.0
 10
9.090545
 20
3.096441
 30
0.0
 10
9.224859
 20
3.174212
 30
0.0
  0
SPLINE
  5
27a
100
AcDbEntity
  8
Layer_1
 62
7
100
AcDbSpline
 70
8
 71
3
 72
8
 73
4
 74
0
 40
0
 40
0
 40
0
 40
0
 40
1
 40
1
 40
1
 40
1
 10
9.224859
 20
3.174212
 30
0.0
 10
9.120135
 20
3.282410
 30
0.0
 10
8.936951
 20
3.354295
 30
0.0
 10
8.830166
 20
3.460587
 30
0.0
  0
SPLINE
  5
27b
100
AcDbEntity
  8
Layer_1
 62
7
100
AcDbSpline
 70
8
 71
3
 72
8
 73
4
 74
0
 40
0
 40
0
 40
0
 40
0
 40
1
 40
1
 40
1
 40
1
 10
8.830166
 20
3.460587
 30
0.0
 10
8.685173
 20
3.614786
 30
0.0
 10
8.688760
 20
3.701591
 30
0.0
 10
8.548465
 20
3.835026
 30
0.0
  0
LWPOLYLINE
  5
27c
100
AcDbEntity
  8
Layer_1
 62
7
100
AcDbPolyline
 90
4
 70
1
 10
7.582715
 20
3.554092
 30
0.0
 10
7.571466
 20
3.355353
 30
0.0
 10
7.383976
 20
3.357229
 30
0.0
 10
7.387724
 20
3.555969
 30
0.0
  0
SPLINE
  5
27d
100
AcDbEntity
  8
Layer_1
 62
7
100
AcDbSpline
 70
8
 71
3
 72
8
 73
4
 74
0
 40
0
 40
0
 40
0
 40
0
 40
1
 40
1
 40
1
 40
1
 10
8.522926
 20
4.517466
 30
0.0
 10
8.422027
 20
4.163476
 30
0.0
 10
8.383593
 20
3.780859
 30
0.0
 10
8.238095
 20
3.447063
 30
0.0
  0
SPLINE
  5
27e
100
AcDbEntity
  8
Layer_1
 62
7
100
AcDbSpline
 70
8
 71
3
 72
8
 73
4
 74
0
 40
0
 40
0
 40
0
 40
0
 40
1
 40
1
 40
1
 40
1
 10
8.238095
 20
3.447063
 30
0.0
 10
8.162783
 20
3.245990
 30
0.0
 10
7.991371
 20
3.120870
 30
0.0
 10
7.966022
 20
2.886299
 30
0.0
  0
SPLINE
  5
27f
100
AcDbEntity
  8
Layer_1
 62
7
100
AcDbSpline
 70
8
 71
3
 72
8
 73
4
 74
0
 40
0
 40
0
 40
0
 40
0
 40
1
 40
1
 40
1
 40
1
 10
7.966022
 20
2.886299
 30
0.0
 10
7.937815
 20
2.625273
 30
0.0
 10
8.151789
 20
2.466364
 30
0.0
 10
8.312730
 20
2.662941
 30
0.0
  0
SPLINE
  5
280
100
AcDbEntity
  8
Layer_1
 62
7
100
AcDbSpline
 70
8
 71
3
 72
8
 73
4
 74
0
 40
0
 40
0
 40
0
 40
0
 40
1
 40
1
 40
1
 40
1
 10
8.312730
 20
2.662941
 30
0.0
 10
8.553716
 20
2.957287
 30
0.0
 10
8.630269
 20
3.374305
 30
0.0
 10
8.655185
 20
3.765179
 30
0.0
  0
SPLINE
  5
281
100
AcDbEntity
  8
Layer_1
 62
7
100
AcDbSpline
 70
8
 71
3
 72
8
 73
4
 74
0
 40
0
 40
0
 40
0
 40
0
 40
1
 40
1
 40
1
 40
1
 10
8.655185
 20
3.765179
 30
0.0
 10
8.693968
 20
4.037246
 30
0.0
 10
8.600306
 20
4.272114
 30
0.0
 10
8.522920
 20
4.517466
 30
0.0
  0
LWPOLYLINE
  5
282
100
AcDbEntity
  8
Layer_1
 62
7
100
AcDbPolyline
 90
1
 70
1
 10
8.548465
 20
3.835026
 30
0.0
  0
SPLINE
  5
283
100
AcDbEntity
  8
Layer_1
 62
7
100
AcDbSpline
 70
8
 71
3
 72
8
 73
4
 74
0
 40
0
 40
0
 40
0
 40
0
 40
1
 40
1
 40
1
 40
1
 10
8.701702
 20
5.484998
 30
0.0
 10
8.821524
 20
5.485117
 30
0.0
 10
8.974435
 20
5.374228
 30
0.0
 10
8.961552
 20
5.265982
 30
0.0
  0
SPLINE
  5
284
100
AcDbEntity
  8
Layer_1
 62
7
100
AcDbSpline
 70
8
 71
3
 72
8
 73
4
 74
0
 40
0
 40
0
 40
0
 40
0
 40
1
 40
1
 40
1
 40
1
 10
8.961552
 20
5.265982
 30
0.0
 10
8.968760
 20
5.135285
 30
0.0
 10
9.006694
 20
5.014691
 30
0.0
 10
8.905870
 20
4.915188
 30
0.0
  0
SPLINE
  5
285
100
AcDbEntity
  8
Layer_1
 62
7
100
AcDbSpline
 70
8
 71
3
 72
8
 73
4
 74
0
 40
0
 40
0
 40
0
 40
0
 40
1
 40
1
 40
1
 40
1
 10
8.905870
 20
4.915188
 30
0.0
 10
8.785662
 20
4.814841
 30
0.0
 10
8.558675
 20
4.778135
 30
0.0
 10
8.421439
 20
4.709161
 30
0.0
  0
SPLINE
  5
286
100
AcDbEntity
  8
Layer_1
 62
7
100
AcDbSpline
 70
8
 71
3
 72
8
 73
4
 74
0
 40
0
 40
0
 40
0
 40
0
 40
1
 40
1
 40
1
 40
1
 10
8.421439
 20
4.709161
 30
0.0
 10
8.136240
 20
4.545625
 30
0.0
 10
8.004093
 20
4.196731
 30
0.0
 10
7.701284
 20
4.102211
 30
0.0
  0
SPLINE
  5
287
100
AcDbEntity
  8
Layer_1
 62
7
100
AcDbSpline
 70
8
 71
3
 72
8
 73
4
 74
0
 40
0
 40
0
 40
0
 40
0
 40
1
 40
1
 40
1
 40
1
 10
7.701284
 20
4.102211
 30
0.0
 10
7.610423
 20
4.077417
 30
0.0
 10
7.516805
 20
4.064578
 30
0.0
 10
7.426586
 20
4.068802
 30
0.0
  0
LWPOLYLINE
  5
288
100
AcDbEntity
  8
Layer_1
 62
7
100
AcDbPolyline
 90
1
 70
1
 10
8.522920
 20
4.517466
 30
0.0
  0
SPLINE
  5
289
100
AcDbEntity
  8
Layer_1
 62
7
100
AcDbSpline
 70
8
 71
3
 72
8
 73
4
 74
0
 40
0
 40
0
 40
0
 40
0
 40
1
 40
1
 40
1
 40
1
 10
7.426586
 20
4.224712
 30
0.0
 10
7.551729
 20
4.210603
 30
0.0
 10
7.696520
 20
4.280163
 30
0.0
 10
7.771814
 20
4.365773
 30
0.0
  0
SPLINE
  5
28a
100
AcDbEntity
  8
Layer_1
 62
7
100
AcDbSpline
 70
8
 71
3
 72
8
 73
4
 74
0
 40
0
 40
0
 40
0
 40
0
 40
1
 40
1
 40
1
 40
1
 10
7.771814
 20
4.365773
 30
0.0
 10
7.911284
 20
4.464896
 30
0.0
 10
8.042415
 20
4.622190
 30
0.0
 10
8.193145
 20
4.742558
 30
0.0
  0
SPLINE
  5
28b
100
AcDbEntity
  8
Layer_1
 62
7
100
AcDbSpline
 70
8
 71
3
 72
8
 73
4
 74
0
 40
0
 40
0
 40
0
 40
0
 40
1
 40
1
 40
1
 40
1
 10
8.193145
 20
4.742558
 30
0.0
 10
8.321247
 20
4.856637
 30
0.0
 10
8.446224
 20
4.996950
 30
0.0
 10
8.621900
 20
5.030252
 30
0.0
  0
SPLINE
  5
28c
100
AcDbEntity
  8
Layer_1
 62
7
100
AcDbSpline
 70
8
 71
3
 72
8
 73
4
 74
0
 40
0
 40
0
 40
0
 40
0
 40
1
 40
1
 40
1
 40
1
 10
8.621900
 20
5.030252
 30
0.0
 10
8.852588
 20
4.907360
 30
0.0
 10
8.941762
 20
5.089133
 30
0.0
 10
8.863189
 20
5.251127
 30
0.0
  0
SPLINE
  5
28d
100
AcDbEntity
  8
Layer_1
 62
7
100
AcDbSpline
 70
8
 71
3
 72
8
 73
4
 74
0
 40
0
 40
0
 40
0
 40
0
 40
1
 40
1
 40
1
 40
1
 10
8.863189
 20
5.251127
 30
0.0
 10
8.796947
 20
5.359688
 30
0.0
 10
8.775060
 20
5.402078
 30
0.0
 10
8.601487
 20
5.444159
 30
0.0
  0
SPLINE
  5
28e
100
AcDbEntity
  8
Layer_1
 62
7
100
AcDbSpline
 70
8
 71
3
 72
8
 73
4
 74
0
 40
0
 40
0
 40
0
 40
0
 40
1
 40
1
 40
1
 40
1
 10
8.601487
 20
5.444159
 30
0.0
 10
8.626515
 20
5.473560
 30
0.0
 10
8.661772
 20
5.484962
 30
0.0
 10
8.701714
 20
5.484992
 30
0.0
  0
LWPOLYLINE
  5
28f
100
AcDbEntity
  8
Layer_1
 62
7
100
AcDbPolyline
 90
2
 70
0
 10
7.426586
 20
4.068802
 30
0.0
 10
7.426586
 20
4.224712
 30
0.0
  0
SPLINE
  5
290
100
AcDbEntity
  8
Layer_1
 62
7
100
AcDbSpline
 70
8
 71
3
 72
8
 73
4
 74
0
 40
0
 40
0
 40
0
 40
0
 40
1
 40
1
 40
1
 40
1
 10
10.429481
 20
5.636453
 30
0.0
 10
10.594775
 20
5.636453
 30
0.0
 10
10.749099
 20
5.807342
 30
0.0
 10
10.779740
 20
5.987129
 30
0.0
  0
SPLINE
  5
291
100
AcDbEntity
  8
Layer_1
 62
7
100
AcDbSpline
 70
8
 71
3
 72
8
 73
4
 74
0
 40
0
 40
0
 40
0
 40
0
 40
1
 40
1
 40
1
 40
1
 10
10.779740
 20
5.987129
 30
0.0
 10
10.825584
 20
6.256107
 30
0.0
 10
10.700734
 20
6.519081
 30
0.0
 10
10.757457
 20
6.795781
 30
0.0
  0
SPLINE
  5
292
100
AcDbEntity
  8
Layer_1
 62
7
100
AcDbSpline
 70
8
 71
3
 72
8
 73
4
 74
0
 40
0
 40
0
 40
0
 40
0
 40
1
 40
1
 40
1
 40
1
 10
10.757457
 20
6.795781
 30
0.0
 10
10.874054
 20
7.364534
 30
0.0
 10
10.987562
 20
7.931815
 30
0.0
 10
11.045697
 20
8.509661
 30
0.0
  0
SPLINE
  5
293
100
AcDbEntity
  8
Layer_1
 62
7
100
AcDbSpline
 70
8
 71
3
 72
8
 73
4
 74
0
 40
0
 40
0
 40
0
 40
0
 40
1
 40
1
 40
1
 40
1
 10
11.045697
 20
8.509661
 30
0.0
 10
11.066439
 20
8.715824
 30
0.0
 10
10.940201
 20
8.981073
 30
0.0
 10
10.728282
 20
9.038258
 30
0.0
  0
SPLINE
  5
294
100
AcDbEntity
  8
Layer_1
 62
7
100
AcDbSpline
 70
8
 71
3
 72
8
 73
4
 74
0
 40
0
 40
0
 40
0
 40
0
 40
1
 40
1
 40
1
 40
1
 10
10.728282
 20
9.038258
 30
0.0
 10
10.524916
 20
9.093139
 30
0.0
 10
10.394813
 20
8.828887
 30
0.0
 10
10.211653
 20
8.766114
 30
0.0
  0
SPLINE
  5
295
100
AcDbEntity
  8
Layer_1
 62
7
100
AcDbSpline
 70
8
 71
3
 72
8
 73
4
 74
0
 40
0
 40
0
 40
0
 40
0
 40
1
 40
1
 40
1
 40
1
 10
10.211653
 20
8.766114
 30
0.0
 10
10.097789
 20
8.727090
 30
0.0
 10
10.087811
 20
8.906361
 30
0.0
 10
10.211713
 20
8.948246
 30
0.0
  0
SPLINE
  5
296
100
AcDbEntity
  8
Layer_1
 62
7
100
AcDbSpline
 70
8
 71
3
 72
8
 73
4
 74
0
 40
0
 40
0
 40
0
 40
0
 40
1
 40
1
 40
1
 40
1
 10
10.211713
 20
8.948246
 30
0.0
 10
10.416837
 20
9.017589
 30
0.0
 10
10.593440
 20
9.140434
 30
0.0
 10
10.807972
 20
9.163033
 30
0.0
  0
SPLINE
  5
297
100
AcDbEntity
  8
Layer_1
 62
7
100
AcDbSpline
 70
8
 71
3
 72
8
 73
4
 74
0
 40
0
 40
0
 40
0
 40
0
 40
1
 40
1
 40
1
 40
1
 10
10.807972
 20
9.163033
 30
0.0
 10
11.017811
 20
9.185140
 30
0.0
 10
11.096467
 20
8.947741
 30
0.0
 10
11.131444
 20
8.762615
 30
0.0
  0
SPLINE
  5
298
100
AcDbEntity
  8
Layer_1
 62
7
100
AcDbSpline
 70
8
 71
3
 72
8
 73
4
 74
0
 40
0
 40
0
 40
0
 40
0
 40
1
 40
1
 40
1
 40
1
 10
11.131444
 20
8.762615
 30
0.0
 10
11.159811
 20
8.612478
 30
0.0
 10
11.172218
 20
8.465294
 30
0.0
 10
11.147540
 20
8.314605
 30
0.0
  0
SPLINE
  5
299
100
AcDbEntity
  8
Layer_1
 62
7
100
AcDbSpline
 70
8
 71
3
 72
8
 73
4
 74
0
 40
0
 40
0
 40
0
 40
0
 40
1
 40
1
 40
1
 40
1
 10
11.147540
 20
8.314605
 30
0.0
 10
11.104108
 20
8.049397
 30
0.0
 10
10.982733
 20
7.807075
 30
0.0
 10
11.017912
 20
7.530244
 30
0.0
  0
SPLINE
  5
29a
100
AcDbEntity
  8
Layer_1
 62
7
100
AcDbSpline
 70
8
 71
3
 72
8
 73
4
 74
0
 40
0
 40
0
 40
0
 40
0
 40
1
 40
1
 40
1
 40
1
 10
11.017912
 20
7.530244
 30
0.0
 10
11.033901
 20
7.404430
 30
0.0
 10
11.054872
 20
7.280789
 30
0.0
 10
11.011361
 20
7.156744
 30
0.0
  0
SPLINE
  5
29b
100
AcDbEntity
  8
Layer_1
 62
7
100
AcDbSpline
 70
8
 71
3
 72
8
 73
4
 74
0
 40
0
 40
0
 40
0
 40
0
 40
1
 40
1
 40
1
 40
1
 10
11.011361
 20
7.156744
 30
0.0
 10
10.934618
 20
6.937947
 30
0.0
 10
10.825926
 20
6.725049
 30
0.0
 10
10.826912
 20
6.485589
 30
0.0
  0
SPLINE
  5
29c
100
AcDbEntity
  8
Layer_1
 62
7
100
AcDbSpline
 70
8
 71
3
 72
8
 73
4
 74
0
 40
0
 40
0
 40
0
 40
0
 40
1
 40
1
 40
1
 40
1
 10
10.826912
 20
6.485589
 30
0.0
 10
10.827530
 20
6.335696
 30
0.0
 10
10.902955
 20
6.207862
 30
0.0
 10
10.904814
 20
6.058354
 30
0.0
  0
SPLINE
  5
29d
100
AcDbEntity
  8
Layer_1
 62
7
100
AcDbSpline
 70
8
 71
3
 72
8
 73
4
 74
0
 40
0
 40
0
 40
0
 40
0
 40
1
 40
1
 40
1
 40
1
 10
10.904814
 20
6.058354
 30
0.0
 10
10.906548
 20
5.918992
 30
0.0
 10
10.914301
 20
5.743517
 30
0.0
 10
10.794768
 20
5.654610
 30
0.0
  0
SPLINE
  5
29e
100
AcDbEntity
  8
Layer_1
 62
7
100
AcDbSpline
 70
8
 71
3
 72
8
 73
4
 74
0
 40
0
 40
0
 40
0
 40
0
 40
1
 40
1
 40
1
 40
1
 10
10.794768
 20
5.654610
 30
0.0
 10
10.704418
 20
5.587406
 30
0.0
 10
10.512966
 20
5.516934
 30
0.0
 10
10.433247
 20
5.620728
 30
0.0
  0
SPLINE
  5
29f
100
AcDbEntity
  8
Layer_1
 62
7
100
AcDbSpline
 70
8
 71
3
 72
8
 73
4
 74
0
 40
0
 40
0
 40
0
 40
0
 40
1
 40
1
 40
1
 40
1
 10
10.433247
 20
5.620728
 30
0.0
 10
10.429957
 20
5.625010
 30
0.0
 10
10.424057
 20
5.636499
 30
0.0
 10
10.429452
 20
5.636499
 30
0.0
  0
LWPOLYLINE
  5
2a0
100
AcDbEntity
  8
Layer_1
 62
7
100
AcDbPolyline
 90
1
 70
1
 10
8.701714
 20
5.484992
 30
0.0
  0
LWPOLYLINE
  5
2a1
100
AcDbEntity
  8
Layer_1
 62
7
100
AcDbPolyline
 90
1
 70
1
 10
10.429452
 20
5.636499
 30
0.0
  0
LWPOLYLINE
  5
2a2
100
AcDbEntity
  8
Layer_1
 62
7
100
AcDbPolyline
 90
5
 70
1
 10
11.057872
 20
8.533110
 30
0.0
 10
10.848911
 20
8.175972
 30
0.0
 10
10.794041
 20
7.902569
 30
0.0
 10
10.872619
 20
8.159176
 30
0.0
 10
11.078872
 20
8.422868
 30
0.0
  0
SPLINE
  5
2a3
100
AcDbEntity
  8
Layer_1
 62
7
100
AcDbSpline
 70
8
 71
3
 72
8
 73
4
 74
0
 40
0
 40
0
 40
0
 40
0
 40
1
 40
1
 40
1
 40
1
 10
10.680164
 20
9.735796
 30
0.0
 10
11.023445
 20
10.243349
 30
0.0
 10
11.482164
 20
11.051021
 30
0.0
 10
11.887589
 20
11.720216
 30
0.0
  0
LWPOLYLINE
  5
2a4
100
AcDbEntity
  8
Layer_1
 62
7
100
AcDbPolyline
 90
3
 70
0
 10
11.887609
 20
11.720204
 30
0.0
 10
10.711663
 20
9.179319
 30
0.0
 10
10.680164
 20
9.735796
 30
0.0
  0
LWPOLYLINE
  5
2a5
100
AcDbEntity
  8
Layer_1
 62
7
100
AcDbPolyline
 90
1
 70
1
 10
11.887589
 20
11.720216
 30
0.0
  0
ENDSEC
  0
SECTION
  2
OBJECTS
  0
DICTIONARY
  5
C
330
0
100
AcDbDictionary
  3
ACAD_GROUP
350
D
  3
ACAD_MLINESTYLE
350
17
  0
DICTIONARY
  5
D
330
C
100
AcDbDictionary
  0
DICTIONARY
  5
1A
330
C
100
AcDbDictionary
  0
DICTIONARY
  5
17
330
C
100
AcDbDictionary
  3
STANDARD
350
18
  0
DICTIONARY
  5
19
330
C
100
AcDbDictionary
  0
ENDSEC
  0
EOF
