  0
SECTION
  2
HEADER
  9
$ACADVER
  1
AC1014
  9
$HANDSEED
  5
FFFF
  9
$MEASUREMENT
 70
     1
  0
ENDSEC
  0
SECTION
  2
TABLES
  0
TABLE
  2
VPORT
  5
8
330
0
100
AcDbSymbolTable
 70
     4
  0
VPORT
  5
2E
330
8
100
AcDbSymbolTableRecord
100
AcDbViewportTableRecord
  2
*ACTIVE
 70
     0
 10
0.0
 20
0.0
 11
1.0
 21
1.0
 12
210.0
 22
148.5
 13
0.0
 23
0.0
 14
10.0
 24
10.0
 15
10.0
 25
10.0
 16
0.0
 26
0.0
 36
1.0
 17
0.0
 27
0.0
 37
0.0
 40
341.0
 41
1.24
 42
50.0
 43
0.0
 44
0.0
 50
0.0
 51
0.0
 71
     0
 72
   100
 73
     1
 74
     3
 75
     0
 76
     0
 77
     0
 78
     0
  0
ENDTAB
  0
TABLE
  2
LTYPE
  5
5
330
0
100
AcDbSymbolTable
 70
     1
  0
LTYPE
  5
14
330
5
100
AcDbSymbolTableRecord
100
AcDbLinetypeTableRecord
  2
BYBLOCK
 70
     0
  3

 72
    65
 73
     0
 40
0.0
  0
LTYPE
  5
15
330
5
100
AcDbSymbolTableRecord
100
AcDbLinetypeTableRecord
  2
BYLAYER
 70
     0
  3

 72
    65
 73
     0
 40
0.0
  0
LTYPE
  5
16
330
5
100
AcDbSymbolTableRecord
100
AcDbLinetypeTableRecord
  2
CONTINUOUS
 70
     0
  3
Solid line
 72
    65
 73
     0
 40
0.0
  0
ENDTAB
  0
TABLE
  2
LAYER
  5
2
100
AcDbSymbolTable
 70
2
  0
LAYER
  5
50
100
AcDbSymbolTableRecord
100
AcDbLayerTableRecord
  2
0
 70
0
  6
CONTINUOUS
  0
LAYER
  5
51
100
AcDbSymbolTableRecord
100
AcDbLayerTableRecord
  2
Layer_1
 70
0
  6
CONTINUOUS
  0
ENDTAB
  0
TABLE
  2
STYLE
  5
3
330
0
100
AcDbSymbolTable
 70
     1
  0
STYLE
  5
11
330
3
100
AcDbSymbolTableRecord
100
AcDbTextStyleTableRecord
  2
STANDARD
 70
     0
 40
0.0
 41
1.0
 50
0.0
 71
     0
 42
2.5
  3
txt
  4

  0
ENDTAB
  0
TABLE
  2
VIEW
  5
6
330
0
100
AcDbSymbolTable
 70
     0
  0
ENDTAB
  0
TABLE
  2
UCS
  5
7
330
0
100
AcDbSymbolTable
 70
     0
  0
ENDTAB
  0
TABLE
  2
APPID
  5
9
330
0
100
AcDbSymbolTable
 70
     2
  0
APPID
  5
12
330
9
100
AcDbSymbolTableRecord
100
AcDbRegAppTableRecord
  2
ACAD
 70
     0
  0
ENDTAB
  0
TABLE
  2
DIMSTYLE
  5
A
330
0
100
AcDbSymbolTable
 70
     1
  0
DIMSTYLE
105
27
330
A
100
AcDbSymbolTableRecord
100
AcDbDimStyleTableRecord
  2
ISO-25
 70
     0
  3

  4

  5

  6

  7

 40
1.0
 41
2.5
 42
0.625
 43
3.75
 44
1.25
 45
0.0
 46
0.0
 47
0.0
 48
0.0
140
2.5
141
2.5
142
0.0
143
0.03937007874016
144
1.0
145
0.0
146
1.0
147
0.625
 71
     0
 72
     0
 73
     0
 74
     0
 75
     0
 76
     0
 77
     1
 78
     8
170
     0
171
     3
172
     1
173
     0
174
     0
175
     0
176
     0
177
     0
178
     0
270
     2
271
     2
272
     2
273
     2
274
     3
340
11
275
     0
280
     0
281
     0
282
     0
283
     0
284
     8
285
     0
286
     0
287
     3
288
     0
  0
ENDTAB
  0
TABLE
  2
BLOCK_RECORD
  5
1
330
0
100
AcDbSymbolTable
 70
     1
  0
BLOCK_RECORD
  5
1F
330
1
100
AcDbSymbolTableRecord
100
AcDbBlockTableRecord
  2
*MODEL_SPACE
  0
BLOCK_RECORD
  5
1B
330
1
100
AcDbSymbolTableRecord
100
AcDbBlockTableRecord
  2
*PAPER_SPACE
  0
ENDTAB
  0
ENDSEC
  0
SECTION
  2
BLOCKS
  0
BLOCK
  5
20
330
1F
100
AcDbEntity
  8
0
100
AcDbBlockBegin
  2
*MODEL_SPACE
 70
     0
 10
0.0
 20
0.0
 30
0.0
  3
*MODEL_SPACE
  1

  0
ENDBLK
  5
21
330
1F
100
AcDbEntity
  8
0
100
AcDbBlockEnd
  0
BLOCK
  5
1C
330
1B
100
AcDbEntity
 67
     1
  8
0
100
AcDbBlockBegin
  2
*PAPER_SPACE
  1

  0
ENDBLK
  5
1D
330
1B
100
AcDbEntity
 67
     1
  8
0
100
AcDbBlockEnd
  0
ENDSEC
  0
SECTION
  2
ENTITIES
  0
SPLINE
  5
100
100
AcDbEntity
  8
Layer_1
 62
7
100
AcDbSpline
 70
8
 71
3
 72
8
 73
4
 74
0
 40
0
 40
0
 40
0
 40
0
 40
1
 40
1
 40
1
 40
1
 10
6.556355
 20
13.028506
 30
0.0
 10
6.551918
 20
13.019632
 30
0.0
 10
6.526405
 20
13.018522
 30
0.0
 10
6.484254
 20
13.022959
 30
0.0
  0
SPLINE
  5
101
100
AcDbEntity
  8
Layer_1
 62
7
100
AcDbSpline
 70
8
 71
3
 72
8
 73
4
 74
0
 40
0
 40
0
 40
0
 40
0
 40
1
 40
1
 40
1
 40
1
 10
6.358910
 20
12.823296
 30
0.0
 10
6.365565
 20
12.712372
 30
0.0
 10
6.365565
 20
12.709044
 30
0.0
 10
6.338944
 20
12.683532
 30
0.0
  0
SPLINE
  5
102
100
AcDbEntity
  8
Layer_1
 62
7
100
AcDbSpline
 70
8
 71
3
 72
8
 73
4
 74
0
 40
0
 40
0
 40
0
 40
0
 40
1
 40
1
 40
1
 40
1
 10
6.338944
 20
12.683532
 30
0.0
 10
6.323414
 20
12.669112
 30
0.0
 10
6.306776
 20
12.645818
 30
0.0
 10
6.302339
 20
12.630288
 30
0.0
  0
SPLINE
  5
103
100
AcDbEntity
  8
Layer_1
 62
7
100
AcDbSpline
 70
8
 71
3
 72
8
 73
4
 74
0
 40
0
 40
0
 40
0
 40
0
 40
1
 40
1
 40
1
 40
1
 10
6.302339
 20
12.630288
 30
0.0
 10
6.297902
 20
12.614759
 30
0.0
 10
6.282372
 20
12.579263
 30
0.0
 10
6.267952
 20
12.550423
 30
0.0
  0
SPLINE
  5
104
100
AcDbEntity
  8
Layer_1
 62
7
100
AcDbSpline
 70
8
 71
3
 72
8
 73
4
 74
0
 40
0
 40
0
 40
0
 40
0
 40
1
 40
1
 40
1
 40
1
 10
6.267952
 20
12.550423
 30
0.0
 10
6.253532
 20
12.521583
 30
0.0
 10
6.241330
 20
12.478323
 30
0.0
 10
6.241330
 20
12.455028
 30
0.0
  0
SPLINE
  5
105
100
AcDbEntity
  8
Layer_1
 62
7
100
AcDbSpline
 70
8
 71
3
 72
8
 73
4
 74
0
 40
0
 40
0
 40
0
 40
0
 40
1
 40
1
 40
1
 40
1
 10
6.241330
 20
12.455028
 30
0.0
 10
6.241330
 20
12.397348
 30
0.0
 10
6.213599
 20
12.299735
 30
0.0
 10
6.084928
 20
11.914829
 30
0.0
  0
SPLINE
  5
106
100
AcDbEntity
  8
Layer_1
 62
7
100
AcDbSpline
 70
8
 71
3
 72
8
 73
4
 74
0
 40
0
 40
0
 40
0
 40
0
 40
1
 40
1
 40
1
 40
1
 10
6.084928
 20
11.914829
 30
0.0
 10
6.060524
 20
11.841619
 30
0.0
 10
6.027247
 20
11.741787
 30
0.0
 10
6.012827
 20
11.692981
 30
0.0
  0
SPLINE
  5
107
100
AcDbEntity
  8
Layer_1
 62
7
100
AcDbSpline
 70
8
 71
3
 72
8
 73
4
 74
0
 40
0
 40
0
 40
0
 40
0
 40
1
 40
1
 40
1
 40
1
 10
6.012827
 20
11.692981
 30
0.0
 10
5.977331
 20
11.576510
 30
0.0
 10
5.955146
 20
11.541015
 30
0.0
 10
5.908558
 20
11.524376
 30
0.0
  0
SPLINE
  5
108
100
AcDbEntity
  8
Layer_1
 62
7
100
AcDbSpline
 70
8
 71
3
 72
8
 73
4
 74
0
 40
0
 40
0
 40
0
 40
0
 40
1
 40
1
 40
1
 40
1
 10
5.908558
 20
11.524376
 30
0.0
 10
5.828693
 20
11.496645
 30
0.0
 10
5.634576
 20
11.445620
 30
0.0
 10
5.570240
 20
11.435637
 30
0.0
  0
SPLINE
  5
109
100
AcDbEntity
  8
Layer_1
 62
7
100
AcDbSpline
 70
8
 71
3
 72
8
 73
4
 74
0
 40
0
 40
0
 40
0
 40
0
 40
1
 40
1
 40
1
 40
1
 10
5.570240
 20
11.435637
 30
0.0
 10
5.411619
 20
11.410124
 30
0.0
 10
5.042242
 20
11.290326
 30
0.0
 10
4.892495
 20
11.216007
 30
0.0
  0
SPLINE
  5
10a
100
AcDbEntity
  8
Layer_1
 62
7
100
AcDbSpline
 70
8
 71
3
 72
8
 73
4
 74
0
 40
0
 40
0
 40
0
 40
0
 40
1
 40
1
 40
1
 40
1
 10
4.892495
 20
11.216007
 30
0.0
 10
4.578580
 20
11.060714
 30
0.0
 10
4.346748
 20
10.863269
 30
0.0
 10
4.109371
 20
10.549354
 30
0.0
  0
SPLINE
  5
10b
100
AcDbEntity
  8
Layer_1
 62
7
100
AcDbSpline
 70
8
 71
3
 72
8
 73
4
 74
0
 40
0
 40
0
 40
0
 40
0
 40
1
 40
1
 40
1
 40
1
 10
4.109371
 20
10.549354
 30
0.0
 10
3.874212
 20
10.237658
 30
0.0
 10
3.813204
 20
10.093457
 30
0.0
 10
3.787692
 20
9.782869
 30
0.0
  0
SPLINE
  5
10c
100
AcDbEntity
  8
Layer_1
 62
7
100
AcDbSpline
 70
8
 71
3
 72
8
 73
4
 74
0
 40
0
 40
0
 40
0
 40
0
 40
1
 40
1
 40
1
 40
1
 10
3.787692
 20
9.782869
 30
0.0
 10
3.772162
 20
9.597626
 30
0.0
 10
3.787692
 20
9.326972
 30
0.0
 10
3.823187
 20
9.167241
 30
0.0
  0
SPLINE
  5
10d
100
AcDbEntity
  8
Layer_1
 62
7
100
AcDbSpline
 70
8
 71
3
 72
8
 73
4
 74
0
 40
0
 40
0
 40
0
 40
0
 40
1
 40
1
 40
1
 40
1
 10
3.823187
 20
9.167241
 30
0.0
 10
3.884195
 20
8.886603
 30
0.0
 10
4.031724
 20
8.558268
 30
0.0
 10
4.192564
 20
8.341967
 30
0.0
  0
SPLINE
  5
10e
100
AcDbEntity
  8
Layer_1
 62
7
100
AcDbSpline
 70
8
 71
3
 72
8
 73
4
 74
0
 40
0
 40
0
 40
0
 40
0
 40
1
 40
1
 40
1
 40
1
 10
4.192564
 20
8.341967
 30
0.0
 10
4.362278
 20
8.114572
 30
0.0
 10
4.657336
 20
7.893834
 30
0.0
 10
4.865873
 20
7.838372
 30
0.0
  0
SPLINE
  5
10f
100
AcDbEntity
  8
Layer_1
 62
7
100
AcDbSpline
 70
8
 71
3
 72
8
 73
4
 74
0
 40
0
 40
0
 40
0
 40
0
 40
1
 40
1
 40
1
 40
1
 10
4.865873
 20
7.838372
 30
0.0
 10
4.893604
 20
7.830607
 30
0.0
 10
4.973469
 20
7.798439
 30
0.0
 10
5.044460
 20
7.766271
 30
0.0
  0
SPLINE
  5
110
100
AcDbEntity
  8
Layer_1
 62
7
100
AcDbSpline
 70
8
 71
3
 72
8
 73
4
 74
0
 40
0
 40
0
 40
0
 40
0
 40
1
 40
1
 40
1
 40
1
 10
5.044460
 20
7.766271
 30
0.0
 10
5.236359
 20
7.678641
 30
0.0
 10
5.378342
 20
7.635381
 30
0.0
 10
5.501467
 20
7.628725
 30
0.0
  0
SPLINE
  5
111
100
AcDbEntity
  8
Layer_1
 62
7
100
AcDbSpline
 70
8
 71
3
 72
8
 73
4
 74
0
 40
0
 40
0
 40
0
 40
0
 40
1
 40
1
 40
1
 40
1
 10
5.501467
 20
7.628725
 30
0.0
 10
5.511450
 20
7.627616
 30
0.0
 10
5.525871
 20
7.615414
 30
0.0
 10
5.533635
 20
7.599885
 30
0.0
  0
SPLINE
  5
112
100
AcDbEntity
  8
Layer_1
 62
7
100
AcDbSpline
 70
8
 71
3
 72
8
 73
4
 74
0
 40
0
 40
0
 40
0
 40
0
 40
1
 40
1
 40
1
 40
1
 10
5.533635
 20
7.599885
 30
0.0
 10
5.550274
 20
7.563280
 30
0.0
 10
5.529198
 20
7.538877
 30
0.0
 10
5.482610
 20
7.538877
 30
0.0
  0
SPLINE
  5
113
100
AcDbEntity
  8
Layer_1
 62
7
100
AcDbSpline
 70
8
 71
3
 72
8
 73
4
 74
0
 40
0
 40
0
 40
0
 40
0
 40
1
 40
1
 40
1
 40
1
 10
5.482610
 20
7.538877
 30
0.0
 10
5.463753
 20
7.538877
 30
0.0
 10
5.388325
 20
7.527784
 30
0.0
 10
5.316224
 20
7.515583
 30
0.0
  0
SPLINE
  5
114
100
AcDbEntity
  8
Layer_1
 62
7
100
AcDbSpline
 70
8
 71
3
 72
8
 73
4
 74
0
 40
0
 40
0
 40
0
 40
0
 40
1
 40
1
 40
1
 40
1
 10
5.316224
 20
7.515583
 30
0.0
 10
5.189771
 20
7.493398
 30
0.0
 10
5.180897
 20
7.492289
 30
0.0
 10
5.099922
 20
7.510037
 30
0.0
  0
SPLINE
  5
115
100
AcDbEntity
  8
Layer_1
 62
7
100
AcDbSpline
 70
8
 71
3
 72
8
 73
4
 74
0
 40
0
 40
0
 40
0
 40
0
 40
1
 40
1
 40
1
 40
1
 10
5.099922
 20
7.510037
 30
0.0
 10
5.026713
 20
7.525566
 30
0.0
 10
4.696159
 20
7.575482
 30
0.0
 10
4.461000
 20
7.606540
 30
0.0
  0
SPLINE
  5
116
100
AcDbEntity
  8
Layer_1
 62
7
100
AcDbSpline
 70
8
 71
3
 72
8
 73
4
 74
0
 40
0
 40
0
 40
0
 40
0
 40
1
 40
1
 40
1
 40
1
 10
4.461000
 20
7.606540
 30
0.0
 10
4.365606
 20
7.618742
 30
0.0
 10
4.321236
 20
7.633162
 30
0.0
 10
4.289068
 20
7.660893
 30
0.0
  0
SPLINE
  5
117
100
AcDbEntity
  8
Layer_1
 62
7
100
AcDbSpline
 70
8
 71
3
 72
8
 73
4
 74
0
 40
0
 40
0
 40
0
 40
0
 40
1
 40
1
 40
1
 40
1
 10
4.289068
 20
7.660893
 30
0.0
 10
4.262446
 20
7.684187
 30
0.0
 10
4.241371
 20
7.680860
 30
0.0
 10
4.251354
 20
7.655347
 30
0.0
  0
SPLINE
  5
118
100
AcDbEntity
  8
Layer_1
 62
7
100
AcDbSpline
 70
8
 71
3
 72
8
 73
4
 74
0
 40
0
 40
0
 40
0
 40
0
 40
1
 40
1
 40
1
 40
1
 10
4.251354
 20
7.655347
 30
0.0
 10
4.264665
 20
7.620961
 30
0.0
 10
4.131556
 20
7.620961
 30
0.0
 10
4.049472
 20
7.655347
 30
0.0
  0
SPLINE
  5
119
100
AcDbEntity
  8
Layer_1
 62
7
100
AcDbSpline
 70
8
 71
3
 72
8
 73
4
 74
0
 40
0
 40
0
 40
0
 40
0
 40
1
 40
1
 40
1
 40
1
 10
4.049472
 20
7.655347
 30
0.0
 10
4.027287
 20
7.664221
 30
0.0
 10
4.010649
 20
7.666439
 30
0.0
 10
4.003993
 20
7.659784
 30
0.0
  0
SPLINE
  5
11a
100
AcDbEntity
  8
Layer_1
 62
7
100
AcDbSpline
 70
8
 71
3
 72
8
 73
4
 74
0
 40
0
 40
0
 40
0
 40
0
 40
1
 40
1
 40
1
 40
1
 10
4.003993
 20
7.659784
 30
0.0
 10
3.997338
 20
7.653129
 30
0.0
 10
3.981809
 20
7.653129
 30
0.0
 10
3.961842
 20
7.660893
 30
0.0
  0
SPLINE
  5
11b
100
AcDbEntity
  8
Layer_1
 62
7
100
AcDbSpline
 70
8
 71
3
 72
8
 73
4
 74
0
 40
0
 40
0
 40
0
 40
0
 40
1
 40
1
 40
1
 40
1
 10
3.961842
 20
7.660893
 30
0.0
 10
3.945204
 20
7.667549
 30
0.0
 10
3.930783
 20
7.670876
 30
0.0
 10
3.929674
 20
7.669767
 30
0.0
  0
SPLINE
  5
11c
100
AcDbEntity
  8
Layer_1
 62
7
100
AcDbSpline
 70
8
 71
3
 72
8
 73
4
 74
0
 40
0
 40
0
 40
0
 40
0
 40
1
 40
1
 40
1
 40
1
 10
3.929674
 20
7.669767
 30
0.0
 10
3.928565
 20
7.667549
 30
0.0
 10
3.923019
 20
7.652019
 30
0.0
 10
3.917473
 20
7.633162
 30
0.0
  0
SPLINE
  5
11d
100
AcDbEntity
  8
Layer_1
 62
7
100
AcDbSpline
 70
8
 71
3
 72
8
 73
4
 74
0
 40
0
 40
0
 40
0
 40
0
 40
1
 40
1
 40
1
 40
1
 10
3.917473
 20
7.633162
 30
0.0
 10
3.895288
 20
7.566608
 30
0.0
 10
3.702280
 20
7.504490
 30
0.0
 10
3.409441
 20
7.467885
 30
0.0
  0
SPLINE
  5
11e
100
AcDbEntity
  8
Layer_1
 62
7
100
AcDbSpline
 70
8
 71
3
 72
8
 73
4
 74
0
 40
0
 40
0
 40
0
 40
0
 40
1
 40
1
 40
1
 40
1
 10
3.409441
 20
7.467885
 30
0.0
 10
3.297407
 20
7.454575
 30
0.0
 10
3.271895
 20
7.447919
 30
0.0
 10
3.234181
 20
7.420188
 30
0.0
  0
SPLINE
  5
11f
100
AcDbEntity
  8
Layer_1
 62
7
100
AcDbSpline
 70
8
 71
3
 72
8
 73
4
 74
0
 40
0
 40
0
 40
0
 40
0
 40
1
 40
1
 40
1
 40
1
 10
3.234181
 20
7.420188
 30
0.0
 10
3.134349
 20
7.348088
 30
0.0
 10
3.118820
 20
7.338104
 30
0.0
 10
3.097744
 20
7.333667
 30
0.0
  0
SPLINE
  5
120
100
AcDbEntity
  8
Layer_1
 62
7
100
AcDbSpline
 70
8
 71
3
 72
8
 73
4
 74
0
 40
0
 40
0
 40
0
 40
0
 40
1
 40
1
 40
1
 40
1
 10
3.097744
 20
7.333667
 30
0.0
 10
3.061139
 20
7.327012
 30
0.0
 10
2.947997
 20
7.298172
 30
0.0
 10
2.881442
 20
7.279315
 30
0.0
  0
SPLINE
  5
121
100
AcDbEntity
  8
Layer_1
 62
7
100
AcDbSpline
 70
8
 71
3
 72
8
 73
4
 74
0
 40
0
 40
0
 40
0
 40
0
 40
1
 40
1
 40
1
 40
1
 10
2.881442
 20
7.279315
 30
0.0
 10
2.849274
 20
7.270441
 30
0.0
 10
2.810451
 20
7.249365
 30
0.0
 10
2.796031
 20
7.233836
 30
0.0
  0
SPLINE
  5
122
100
AcDbEntity
  8
Layer_1
 62
7
100
AcDbSpline
 70
8
 71
3
 72
8
 73
4
 74
0
 40
0
 40
0
 40
0
 40
0
 40
1
 40
1
 40
1
 40
1
 10
2.796031
 20
7.233836
 30
0.0
 10
2.774955
 20
7.211651
 30
0.0
 10
2.760535
 20
7.206105
 30
0.0
 10
2.713947
 20
7.206105
 30
0.0
  0
SPLINE
  5
123
100
AcDbEntity
  8
Layer_1
 62
7
100
AcDbSpline
 70
8
 71
3
 72
8
 73
4
 74
0
 40
0
 40
0
 40
0
 40
0
 40
1
 40
1
 40
1
 40
1
 10
2.713947
 20
7.206105
 30
0.0
 10
2.654048
 20
7.206105
 30
0.0
 10
2.609679
 20
7.189466
 30
0.0
 10
2.548670
 20
7.145097
 30
0.0
  0
SPLINE
  5
124
100
AcDbEntity
  8
Layer_1
 62
7
100
AcDbSpline
 70
8
 71
3
 72
8
 73
4
 74
0
 40
0
 40
0
 40
0
 40
0
 40
1
 40
1
 40
1
 40
1
 10
2.548670
 20
7.145097
 30
0.0
 10
2.527595
 20
7.129567
 30
0.0
 10
2.496536
 20
7.117366
 30
0.0
 10
2.479898
 20
7.117366
 30
0.0
  0
SPLINE
  5
125
100
AcDbEntity
  8
Layer_1
 62
7
100
AcDbSpline
 70
8
 71
3
 72
8
 73
4
 74
0
 40
0
 40
0
 40
0
 40
0
 40
1
 40
1
 40
1
 40
1
 10
2.479898
 20
7.117366
 30
0.0
 10
2.445511
 20
7.117366
 30
0.0
 10
2.418889
 20
7.095181
 30
0.0
 10
2.390049
 20
7.041937
 30
0.0
  0
SPLINE
  5
126
100
AcDbEntity
  8
Layer_1
 62
7
100
AcDbSpline
 70
8
 71
3
 72
8
 73
4
 74
0
 40
0
 40
0
 40
0
 40
0
 40
1
 40
1
 40
1
 40
1
 10
2.390049
 20
7.041937
 30
0.0
 10
2.361209
 20
6.988694
 30
0.0
 10
2.326822
 20
6.973164
 30
0.0
 10
2.208134
 20
6.960963
 30
0.0
  0
SPLINE
  5
127
100
AcDbEntity
  8
Layer_1
 62
7
100
AcDbSpline
 70
8
 71
3
 72
8
 73
4
 74
0
 40
0
 40
0
 40
0
 40
0
 40
1
 40
1
 40
1
 40
1
 10
2.208134
 20
6.960963
 30
0.0
 10
2.112739
 20
6.950980
 30
0.0
 10
2.086117
 20
6.944324
 30
0.0
 10
2.004034
 20
6.902173
 30
0.0
  0
SPLINE
  5
128
100
AcDbEntity
  8
Layer_1
 62
7
100
AcDbSpline
 70
8
 71
3
 72
8
 73
4
 74
0
 40
0
 40
0
 40
0
 40
0
 40
1
 40
1
 40
1
 40
1
 10
2.004034
 20
6.902173
 30
0.0
 10
1.951899
 20
6.875551
 30
0.0
 10
1.859832
 20
6.835619
 30
0.0
 10
1.798824
 20
6.813434
 30
0.0
  0
SPLINE
  5
129
100
AcDbEntity
  8
Layer_1
 62
7
100
AcDbSpline
 70
8
 71
3
 72
8
 73
4
 74
0
 40
0
 40
0
 40
0
 40
0
 40
1
 40
1
 40
1
 40
1
 10
1.798824
 20
6.813434
 30
0.0
 10
1.714522
 20
6.782375
 30
0.0
 10
1.663497
 20
6.754644
 30
0.0
 10
1.586959
 20
6.696964
 30
0.0
  0
SPLINE
  5
12a
100
AcDbEntity
  8
Layer_1
 62
7
100
AcDbSpline
 70
8
 71
3
 72
8
 73
4
 74
0
 40
0
 40
0
 40
0
 40
0
 40
1
 40
1
 40
1
 40
1
 10
1.586959
 20
6.696964
 30
0.0
 10
1.474926
 20
6.613771
 30
0.0
 10
1.330725
 20
6.536124
 30
0.0
 10
1.207599
 20
6.491754
 30
0.0
  0
SPLINE
  5
12b
100
AcDbEntity
  8
Layer_1
 62
7
100
AcDbSpline
 70
8
 71
3
 72
8
 73
4
 74
0
 40
0
 40
0
 40
0
 40
0
 40
1
 40
1
 40
1
 40
1
 10
1.207599
 20
6.491754
 30
0.0
 10
1.162120
 20
6.476225
 30
0.0
 10
1.093348
 20
6.439620
 30
0.0
 10
1.053415
 20
6.410780
 30
0.0
  0
SPLINE
  5
12c
100
AcDbEntity
  8
Layer_1
 62
7
100
AcDbSpline
 70
8
 71
3
 72
8
 73
4
 74
0
 40
0
 40
0
 40
0
 40
0
 40
1
 40
1
 40
1
 40
1
 10
1.053415
 20
6.410780
 30
0.0
 10
1.013482
 20
6.383049
 30
0.0
 10
0.933617
 20
6.339788
 30
0.0
 10
0.874827
 20
6.316494
 30
0.0
  0
SPLINE
  5
12d
100
AcDbEntity
  8
Layer_1
 62
7
100
AcDbSpline
 70
8
 71
3
 72
8
 73
4
 74
0
 40
0
 40
0
 40
0
 40
0
 40
1
 40
1
 40
1
 40
1
 10
0.874827
 20
6.316494
 30
0.0
 10
0.816038
 20
6.293200
 30
0.0
 10
0.749483
 20
6.262142
 30
0.0
 10
0.728408
 20
6.248831
 30
0.0
  0
SPLINE
  5
12e
100
AcDbEntity
  8
Layer_1
 62
7
100
AcDbSpline
 70
8
 71
3
 72
8
 73
4
 74
0
 40
0
 40
0
 40
0
 40
0
 40
1
 40
1
 40
1
 40
1
 10
0.728408
 20
6.248831
 30
0.0
 10
0.707332
 20
6.235520
 30
0.0
 10
0.677383
 20
6.217772
 30
0.0
 10
0.661853
 20
6.211117
 30
0.0
  0
SPLINE
  5
12f
100
AcDbEntity
  8
Layer_1
 62
7
100
AcDbSpline
 70
8
 71
3
 72
8
 73
4
 74
0
 40
0
 40
0
 40
0
 40
0
 40
1
 40
1
 40
1
 40
1
 10
0.661853
 20
6.211117
 30
0.0
 10
0.594190
 20
6.181167
 30
0.0
 10
0.403400
 20
5.980395
 30
0.0
 10
0.388980
 20
5.924933
 30
0.0
  0
SPLINE
  5
130
100
AcDbEntity
  8
Layer_1
 62
7
100
AcDbSpline
 70
8
 71
3
 72
8
 73
4
 74
0
 40
0
 40
0
 40
0
 40
0
 40
1
 40
1
 40
1
 40
1
 10
0.388980
 20
5.924933
 30
0.0
 10
0.380106
 20
5.889437
 30
0.0
 10
0.421148
 20
5.830647
 30
0.0
 10
0.455535
 20
5.830647
 30
0.0
  0
SPLINE
  5
131
100
AcDbEntity
  8
Layer_1
 62
7
100
AcDbSpline
 70
8
 71
3
 72
8
 73
4
 74
0
 40
0
 40
0
 40
0
 40
0
 40
1
 40
1
 40
1
 40
1
 10
0.455535
 20
5.830647
 30
0.0
 10
0.468845
 20
5.830647
 30
0.0
 10
0.509887
 20
5.853941
 30
0.0
 10
0.546492
 20
5.881672
 30
0.0
  0
SPLINE
  5
132
100
AcDbEntity
  8
Layer_1
 62
7
100
AcDbSpline
 70
8
 71
3
 72
8
 73
4
 74
0
 40
0
 40
0
 40
0
 40
0
 40
1
 40
1
 40
1
 40
1
 10
0.546492
 20
5.881672
 30
0.0
 10
0.615265
 20
5.936025
 30
0.0
 10
0.752811
 20
6.008126
 30
0.0
 10
0.787197
 20
6.008126
 30
0.0
  0
SPLINE
  5
133
100
AcDbEntity
  8
Layer_1
 62
7
100
AcDbSpline
 70
8
 71
3
 72
8
 73
4
 74
0
 40
0
 40
0
 40
0
 40
0
 40
1
 40
1
 40
1
 40
1
 10
0.787197
 20
6.008126
 30
0.0
 10
0.814928
 20
6.008126
 30
0.0
 10
0.870390
 20
6.038075
 30
0.0
 10
0.914760
 20
6.075789
 30
0.0
  0
SPLINE
  5
134
100
AcDbEntity
  8
Layer_1
 62
7
100
AcDbSpline
 70
8
 71
3
 72
8
 73
4
 74
0
 40
0
 40
0
 40
0
 40
0
 40
1
 40
1
 40
1
 40
1
 10
0.914760
 20
6.075789
 30
0.0
 10
0.997953
 20
6.148999
 30
0.0
 10
1.119969
 20
6.190041
 30
0.0
 10
1.218692
 20
6.178949
 30
0.0
  0
LWPOLYLINE
  5
135
100
AcDbEntity
  8
Layer_1
 62
7
100
AcDbPolyline
 90
5
 70
0
 10
6.484254
 20
13.022959
 30
0.0
 10
6.418809
 20
13.029615
 30
0.0
 10
6.384422
 20
12.983027
 30
0.0
 10
6.351145
 20
12.936439
 30
0.0
 10
6.358910
 20
12.823296
 30
0.0
  0
SPLINE
  5
136
100
AcDbEntity
  8
Layer_1
 62
7
100
AcDbSpline
 70
8
 71
3
 72
8
 73
4
 74
0
 40
0
 40
0
 40
0
 40
0
 40
1
 40
1
 40
1
 40
1
 10
1.299666
 20
6.211117
 30
0.0
 10
1.328506
 20
6.279889
 30
0.0
 10
1.395061
 20
6.307620
 30
0.0
 10
1.809917
 20
6.426309
 30
0.0
  0
SPLINE
  5
137
100
AcDbEntity
  8
Layer_1
 62
7
100
AcDbSpline
 70
8
 71
3
 72
8
 73
4
 74
0
 40
0
 40
0
 40
0
 40
0
 40
1
 40
1
 40
1
 40
1
 10
1.809917
 20
6.426309
 30
0.0
 10
1.846522
 20
6.436292
 30
0.0
 10
1.924168
 20
6.474006
 30
0.0
 10
1.984067
 20
6.509502
 30
0.0
  0
SPLINE
  5
138
100
AcDbEntity
  8
Layer_1
 62
7
100
AcDbSpline
 70
8
 71
3
 72
8
 73
4
 74
0
 40
0
 40
0
 40
0
 40
0
 40
1
 40
1
 40
1
 40
1
 10
1.984067
 20
6.509502
 30
0.0
 10
2.042857
 20
6.544998
 30
0.0
 10
2.133815
 20
6.591586
 30
0.0
 10
2.185949
 20
6.612661
 30
0.0
  0
SPLINE
  5
139
100
AcDbEntity
  8
Layer_1
 62
7
100
AcDbSpline
 70
8
 71
3
 72
8
 73
4
 74
0
 40
0
 40
0
 40
0
 40
0
 40
1
 40
1
 40
1
 40
1
 10
2.185949
 20
6.612661
 30
0.0
 10
2.299091
 20
6.658140
 30
0.0
 10
2.371192
 20
6.694745
 30
0.0
 10
2.431091
 20
6.735787
 30
0.0
  0
SPLINE
  5
13a
100
AcDbEntity
  8
Layer_1
 62
7
100
AcDbSpline
 70
8
 71
3
 72
8
 73
4
 74
0
 40
0
 40
0
 40
0
 40
0
 40
1
 40
1
 40
1
 40
1
 10
2.431091
 20
6.735787
 30
0.0
 10
2.455494
 20
6.752426
 30
0.0
 10
2.504301
 20
6.772392
 30
0.0
 10
2.539797
 20
6.780157
 30
0.0
  0
SPLINE
  5
13b
100
AcDbEntity
  8
Layer_1
 62
7
100
AcDbSpline
 70
8
 71
3
 72
8
 73
4
 74
0
 40
0
 40
0
 40
0
 40
0
 40
1
 40
1
 40
1
 40
1
 10
2.539797
 20
6.780157
 30
0.0
 10
2.575292
 20
6.789031
 30
0.0
 10
2.615225
 20
6.803451
 30
0.0
 10
2.630754
 20
6.813434
 30
0.0
  0
SPLINE
  5
13c
100
AcDbEntity
  8
Layer_1
 62
7
100
AcDbSpline
 70
8
 71
3
 72
8
 73
4
 74
0
 40
0
 40
0
 40
0
 40
0
 40
1
 40
1
 40
1
 40
1
 10
2.630754
 20
6.813434
 30
0.0
 10
2.645174
 20
6.822308
 30
0.0
 10
2.686216
 20
6.840056
 30
0.0
 10
2.721712
 20
6.851148
 30
0.0
  0
SPLINE
  5
13d
100
AcDbEntity
  8
Layer_1
 62
7
100
AcDbSpline
 70
8
 71
3
 72
8
 73
4
 74
0
 40
0
 40
0
 40
0
 40
0
 40
1
 40
1
 40
1
 40
1
 10
2.721712
 20
6.851148
 30
0.0
 10
2.757208
 20
6.863350
 30
0.0
 10
2.813779
 20
6.882207
 30
0.0
 10
2.847056
 20
6.894408
 30
0.0
  0
SPLINE
  5
13e
100
AcDbEntity
  8
Layer_1
 62
7
100
AcDbSpline
 70
8
 71
3
 72
8
 73
4
 74
0
 40
0
 40
0
 40
0
 40
0
 40
1
 40
1
 40
1
 40
1
 10
2.847056
 20
6.894408
 30
0.0
 10
2.881442
 20
6.906610
 30
0.0
 10
2.981274
 20
6.924358
 30
0.0
 10
3.068904
 20
6.934341
 30
0.0
  0
SPLINE
  5
13f
100
AcDbEntity
  8
Layer_1
 62
7
100
AcDbSpline
 70
8
 71
3
 72
8
 73
4
 74
0
 40
0
 40
0
 40
0
 40
0
 40
1
 40
1
 40
1
 40
1
 10
3.068904
 20
6.934341
 30
0.0
 10
3.157643
 20
6.943215
 30
0.0
 10
3.295189
 20
6.967618
 30
0.0
 10
3.373945
 20
6.987585
 30
0.0
  0
SPLINE
  5
140
100
AcDbEntity
  8
Layer_1
 62
7
100
AcDbSpline
 70
8
 71
3
 72
8
 73
4
 74
0
 40
0
 40
0
 40
0
 40
0
 40
1
 40
1
 40
1
 40
1
 10
3.373945
 20
6.987585
 30
0.0
 10
3.512600
 20
7.021971
 30
0.0
 10
3.527020
 20
7.023080
 30
0.0
 10
3.734448
 20
7.021971
 30
0.0
  0
SPLINE
  5
141
100
AcDbEntity
  8
Layer_1
 62
7
100
AcDbSpline
 70
8
 71
3
 72
8
 73
4
 74
0
 40
0
 40
0
 40
0
 40
0
 40
1
 40
1
 40
1
 40
1
 10
3.734448
 20
7.021971
 30
0.0
 10
3.859792
 20
7.021971
 30
0.0
 10
3.976262
 20
7.016425
 30
0.0
 10
4.010649
 20
7.008660
 30
0.0
  0
SPLINE
  5
142
100
AcDbEntity
  8
Layer_1
 62
7
100
AcDbSpline
 70
8
 71
3
 72
8
 73
4
 74
0
 40
0
 40
0
 40
0
 40
0
 40
1
 40
1
 40
1
 40
1
 10
4.010649
 20
7.008660
 30
0.0
 10
4.063892
 20
6.996458
 30
0.0
 10
4.073875
 20
6.997568
 30
0.0
 10
4.099388
 20
7.014206
 30
0.0
  0
SPLINE
  5
143
100
AcDbEntity
  8
Layer_1
 62
7
100
AcDbSpline
 70
8
 71
3
 72
8
 73
4
 74
0
 40
0
 40
0
 40
0
 40
0
 40
1
 40
1
 40
1
 40
1
 10
4.099388
 20
7.014206
 30
0.0
 10
4.122682
 20
7.030845
 30
0.0
 10
4.152631
 20
7.034173
 30
0.0
 10
4.261337
 20
7.034173
 30
0.0
  0
SPLINE
  5
144
100
AcDbEntity
  8
Layer_1
 62
7
100
AcDbSpline
 70
8
 71
3
 72
8
 73
4
 74
0
 40
0
 40
0
 40
0
 40
0
 40
1
 40
1
 40
1
 40
1
 10
4.261337
 20
7.034173
 30
0.0
 10
4.381135
 20
7.035282
 30
0.0
 10
4.401101
 20
7.037500
 30
0.0
 10
4.463219
 20
7.065231
 30
0.0
  0
SPLINE
  5
145
100
AcDbEntity
  8
Layer_1
 62
7
100
AcDbSpline
 70
8
 71
3
 72
8
 73
4
 74
0
 40
0
 40
0
 40
0
 40
0
 40
1
 40
1
 40
1
 40
1
 10
4.463219
 20
7.065231
 30
0.0
 10
4.553067
 20
7.104055
 30
0.0
 10
4.617403
 20
7.104055
 30
0.0
 10
4.698378
 20
7.066341
 30
0.0
  0
SPLINE
  5
146
100
AcDbEntity
  8
Layer_1
 62
7
100
AcDbSpline
 70
8
 71
3
 72
8
 73
4
 74
0
 40
0
 40
0
 40
0
 40
0
 40
1
 40
1
 40
1
 40
1
 10
4.698378
 20
7.066341
 30
0.0
 10
4.758277
 20
7.037500
 30
0.0
 10
4.764932
 20
7.036391
 30
0.0
 10
4.904696
 20
7.043047
 30
0.0
  0
SPLINE
  5
147
100
AcDbEntity
  8
Layer_1
 62
7
100
AcDbSpline
 70
8
 71
3
 72
8
 73
4
 74
0
 40
0
 40
0
 40
0
 40
0
 40
1
 40
1
 40
1
 40
1
 10
4.904696
 20
7.043047
 30
0.0
 10
5.379451
 20
7.066341
 30
0.0
 10
5.694475
 20
7.086307
 30
0.0
 10
5.796525
 20
7.100727
 30
0.0
  0
SPLINE
  5
148
100
AcDbEntity
  8
Layer_1
 62
7
100
AcDbSpline
 70
8
 71
3
 72
8
 73
4
 74
0
 40
0
 40
0
 40
0
 40
0
 40
1
 40
1
 40
1
 40
1
 10
5.796525
 20
7.100727
 30
0.0
 10
5.860861
 20
7.110710
 30
0.0
 10
6.010608
 20
7.125130
 30
0.0
 10
6.129297
 20
7.134004
 30
0.0
  0
SPLINE
  5
149
100
AcDbEntity
  8
Layer_1
 62
7
100
AcDbSpline
 70
8
 71
3
 72
8
 73
4
 74
0
 40
0
 40
0
 40
0
 40
0
 40
1
 40
1
 40
1
 40
1
 10
6.129297
 20
7.134004
 30
0.0
 10
6.257969
 20
7.143987
 30
0.0
 10
6.379985
 20
7.160626
 30
0.0
 10
6.433229
 20
7.173937
 30
0.0
  0
SPLINE
  5
14a
100
AcDbEntity
  8
Layer_1
 62
7
100
AcDbSpline
 70
8
 71
3
 72
8
 73
4
 74
0
 40
0
 40
0
 40
0
 40
0
 40
1
 40
1
 40
1
 40
1
 10
6.433229
 20
7.173937
 30
0.0
 10
6.495346
 20
7.190575
 30
0.0
 10
6.545262
 20
7.196122
 30
0.0
 10
6.602943
 20
7.192794
 30
0.0
  0
SPLINE
  5
14b
100
AcDbEntity
  8
Layer_1
 62
7
100
AcDbSpline
 70
8
 71
3
 72
8
 73
4
 74
0
 40
0
 40
0
 40
0
 40
0
 40
1
 40
1
 40
1
 40
1
 10
6.602943
 20
7.192794
 30
0.0
 10
6.717194
 20
7.187248
 30
0.0
 10
6.731614
 20
7.167281
 30
0.0
 10
6.634001
 20
7.149534
 30
0.0
  0
SPLINE
  5
14c
100
AcDbEntity
  8
Layer_1
 62
7
100
AcDbSpline
 70
8
 71
3
 72
8
 73
4
 74
0
 40
0
 40
0
 40
0
 40
0
 40
1
 40
1
 40
1
 40
1
 10
6.634001
 20
7.149534
 30
0.0
 10
6.605161
 20
7.143987
 30
0.0
 10
6.578539
 20
7.136223
 30
0.0
 10
6.575212
 20
7.132895
 30
0.0
  0
SPLINE
  5
14d
100
AcDbEntity
  8
Layer_1
 62
7
100
AcDbSpline
 70
8
 71
3
 72
8
 73
4
 74
0
 40
0
 40
0
 40
0
 40
0
 40
1
 40
1
 40
1
 40
1
 10
6.575212
 20
7.132895
 30
0.0
 10
6.565228
 20
7.122912
 30
0.0
 10
6.597396
 20
7.108492
 30
0.0
 10
6.647312
 20
7.100727
 30
0.0
  0
SPLINE
  5
14e
100
AcDbEntity
  8
Layer_1
 62
7
100
AcDbSpline
 70
8
 71
3
 72
8
 73
4
 74
0
 40
0
 40
0
 40
0
 40
0
 40
1
 40
1
 40
1
 40
1
 10
6.647312
 20
7.100727
 30
0.0
 10
6.672825
 20
7.097399
 30
0.0
 10
6.701665
 20
7.085198
 30
0.0
 10
6.710539
 20
7.075214
 30
0.0
  0
SPLINE
  5
14f
100
AcDbEntity
  8
Layer_1
 62
7
100
AcDbSpline
 70
8
 71
3
 72
8
 73
4
 74
0
 40
0
 40
0
 40
0
 40
0
 40
1
 40
1
 40
1
 40
1
 10
6.710539
 20
7.075214
 30
0.0
 10
6.736051
 20
7.047483
 30
0.0
 10
6.746035
 20
6.968727
 30
0.0
 10
6.729396
 20
6.928795
 30
0.0
  0
SPLINE
  5
150
100
AcDbEntity
  8
Layer_1
 62
7
100
AcDbSpline
 70
8
 71
3
 72
8
 73
4
 74
0
 40
0
 40
0
 40
0
 40
0
 40
1
 40
1
 40
1
 40
1
 10
6.729396
 20
6.928795
 30
0.0
 10
6.713867
 20
6.892190
 30
0.0
 10
6.656186
 20
6.851148
 30
0.0
 10
6.619581
 20
6.851148
 30
0.0
  0
SPLINE
  5
151
100
AcDbEntity
  8
Layer_1
 62
7
100
AcDbSpline
 70
8
 71
3
 72
8
 73
4
 74
0
 40
0
 40
0
 40
0
 40
0
 40
1
 40
1
 40
1
 40
1
 10
6.619581
 20
6.851148
 30
0.0
 10
6.604052
 20
6.851148
 30
0.0
 10
6.590741
 20
6.838946
 30
0.0
 10
6.577430
 20
6.810106
 30
0.0
  0
SPLINE
  5
152
100
AcDbEntity
  8
Layer_1
 62
7
100
AcDbSpline
 70
8
 71
3
 72
8
 73
4
 74
0
 40
0
 40
0
 40
0
 40
0
 40
1
 40
1
 40
1
 40
1
 10
6.577430
 20
6.810106
 30
0.0
 10
6.554136
 20
6.762409
 30
0.0
 10
6.419918
 20
6.653703
 30
0.0
 10
6.372221
 20
6.643720
 30
0.0
  0
SPLINE
  5
153
100
AcDbEntity
  8
Layer_1
 62
7
100
AcDbSpline
 70
8
 71
3
 72
8
 73
4
 74
0
 40
0
 40
0
 40
0
 40
0
 40
1
 40
1
 40
1
 40
1
 10
6.372221
 20
6.643720
 30
0.0
 10
6.352254
 20
6.639283
 30
0.0
 10
6.334507
 20
6.625972
 30
0.0
 10
6.324523
 20
6.606006
 30
0.0
  0
SPLINE
  5
154
100
AcDbEntity
  8
Layer_1
 62
7
100
AcDbSpline
 70
8
 71
3
 72
8
 73
4
 74
0
 40
0
 40
0
 40
0
 40
0
 40
1
 40
1
 40
1
 40
1
 10
6.324523
 20
6.606006
 30
0.0
 10
6.303448
 20
6.566073
 30
0.0
 10
6.163684
 20
6.447385
 30
0.0
 10
6.101566
 20
6.417435
 30
0.0
  0
SPLINE
  5
155
100
AcDbEntity
  8
Layer_1
 62
7
100
AcDbSpline
 70
8
 71
3
 72
8
 73
4
 74
0
 40
0
 40
0
 40
0
 40
0
 40
1
 40
1
 40
1
 40
1
 10
6.101566
 20
6.417435
 30
0.0
 10
6.074944
 20
6.405234
 30
0.0
 10
6.043886
 20
6.378612
 30
0.0
 10
6.030575
 20
6.357536
 30
0.0
  0
SPLINE
  5
156
100
AcDbEntity
  8
Layer_1
 62
7
100
AcDbSpline
 70
8
 71
3
 72
8
 73
4
 74
0
 40
0
 40
0
 40
0
 40
0
 40
1
 40
1
 40
1
 40
1
 10
6.030575
 20
6.357536
 30
0.0
 10
6.007281
 20
6.320931
 30
0.0
 10
5.935180
 20
6.255486
 30
0.0
 10
5.888592
 20
6.231083
 30
0.0
  0
SPLINE
  5
157
100
AcDbEntity
  8
Layer_1
 62
7
100
AcDbSpline
 70
8
 71
3
 72
8
 73
4
 74
0
 40
0
 40
0
 40
0
 40
0
 40
1
 40
1
 40
1
 40
1
 10
5.888592
 20
6.231083
 30
0.0
 10
5.871953
 20
6.222209
 30
0.0
 10
5.845332
 20
6.219990
 30
0.0
 10
5.812055
 20
6.225537
 30
0.0
  0
LWPOLYLINE
  5
158
100
AcDbEntity
  8
Layer_1
 62
7
100
AcDbPolyline
 90
3
 70
0
 10
1.218692
 20
6.178949
 30
0.0
 10
1.283028
 20
6.171184
 30
0.0
 10
1.299666
 20
6.211117
 30
0.0
  0
SPLINE
  5
159
100
AcDbEntity
  8
Layer_1
 62
7
100
AcDbSpline
 70
8
 71
3
 72
8
 73
4
 74
0
 40
0
 40
0
 40
0
 40
0
 40
1
 40
1
 40
1
 40
1
 10
5.797634
 20
6.142344
 30
0.0
 10
5.776559
 20
6.130142
 30
0.0
 10
5.742172
 20
6.119050
 30
0.0
 10
5.723315
 20
6.119050
 30
0.0
  0
SPLINE
  5
15a
100
AcDbEntity
  8
Layer_1
 62
7
100
AcDbSpline
 70
8
 71
3
 72
8
 73
4
 74
0
 40
0
 40
0
 40
0
 40
0
 40
1
 40
1
 40
1
 40
1
 10
5.723315
 20
6.119050
 30
0.0
 10
5.682273
 20
6.119050
 30
0.0
 10
5.678946
 20
6.112394
 30
0.0
 10
5.705567
 20
6.083554
 30
0.0
  0
SPLINE
  5
15b
100
AcDbEntity
  8
Layer_1
 62
7
100
AcDbSpline
 70
8
 71
3
 72
8
 73
4
 74
0
 40
0
 40
0
 40
0
 40
0
 40
1
 40
1
 40
1
 40
1
 10
5.705567
 20
6.083554
 30
0.0
 10
5.723315
 20
6.064697
 30
0.0
 10
5.723315
 20
6.059151
 30
0.0
 10
5.708895
 20
6.032529
 30
0.0
  0
SPLINE
  5
15c
100
AcDbEntity
  8
Layer_1
 62
7
100
AcDbSpline
 70
8
 71
3
 72
8
 73
4
 74
0
 40
0
 40
0
 40
0
 40
0
 40
1
 40
1
 40
1
 40
1
 10
5.708895
 20
6.032529
 30
0.0
 10
5.698912
 20
6.017000
 30
0.0
 10
5.675618
 20
5.993705
 30
0.0
 10
5.655652
 20
5.982613
 30
0.0
  0
SPLINE
  5
15d
100
AcDbEntity
  8
Layer_1
 62
7
100
AcDbSpline
 70
8
 71
3
 72
8
 73
4
 74
0
 40
0
 40
0
 40
0
 40
0
 40
1
 40
1
 40
1
 40
1
 10
5.655652
 20
5.982613
 30
0.0
 10
5.619047
 20
5.961538
 30
0.0
 10
5.619047
 20
5.961538
 30
0.0
 10
5.558039
 20
5.984832
 30
0.0
  0
SPLINE
  5
15e
100
AcDbEntity
  8
Layer_1
 62
7
100
AcDbSpline
 70
8
 71
3
 72
8
 73
4
 74
0
 40
0
 40
0
 40
0
 40
0
 40
1
 40
1
 40
1
 40
1
 10
5.558039
 20
5.984832
 30
0.0
 10
5.523652
 20
5.997033
 30
0.0
 10
5.491484
 20
6.005907
 30
0.0
 10
5.485938
 20
6.001470
 30
0.0
  0
SPLINE
  5
15f
100
AcDbEntity
  8
Layer_1
 62
7
100
AcDbSpline
 70
8
 71
3
 72
8
 73
4
 74
0
 40
0
 40
0
 40
0
 40
0
 40
1
 40
1
 40
1
 40
1
 10
5.485938
 20
6.001470
 30
0.0
 10
5.464862
 20
5.989269
 30
0.0
 10
5.477064
 20
5.974848
 30
0.0
 10
5.521434
 20
5.962647
 30
0.0
  0
SPLINE
  5
160
100
AcDbEntity
  8
Layer_1
 62
7
100
AcDbSpline
 70
8
 71
3
 72
8
 73
4
 74
0
 40
0
 40
0
 40
0
 40
0
 40
1
 40
1
 40
1
 40
1
 10
5.521434
 20
5.962647
 30
0.0
 10
5.545837
 20
5.954882
 30
0.0
 10
5.573568
 20
5.939353
 30
0.0
 10
5.581333
 20
5.927151
 30
0.0
  0
SPLINE
  5
161
100
AcDbEntity
  8
Layer_1
 62
7
100
AcDbSpline
 70
8
 71
3
 72
8
 73
4
 74
0
 40
0
 40
0
 40
0
 40
0
 40
1
 40
1
 40
1
 40
1
 10
5.581333
 20
5.927151
 30
0.0
 10
5.594643
 20
5.908294
 30
0.0
 10
5.593534
 20
5.902748
 30
0.0
 10
5.575786
 20
5.887218
 30
0.0
  0
SPLINE
  5
162
100
AcDbEntity
  8
Layer_1
 62
7
100
AcDbSpline
 70
8
 71
3
 72
8
 73
4
 74
0
 40
0
 40
0
 40
0
 40
0
 40
1
 40
1
 40
1
 40
1
 10
5.575786
 20
5.887218
 30
0.0
 10
5.563585
 20
5.877235
 30
0.0
 10
5.544728
 20
5.843958
 30
0.0
 10
5.533635
 20
5.812899
 30
0.0
  0
SPLINE
  5
163
100
AcDbEntity
  8
Layer_1
 62
7
100
AcDbSpline
 70
8
 71
3
 72
8
 73
4
 74
0
 40
0
 40
0
 40
0
 40
0
 40
1
 40
1
 40
1
 40
1
 10
5.533635
 20
5.812899
 30
0.0
 10
5.497030
 20
5.715286
 30
0.0
 10
5.402745
 20
5.589942
 30
0.0
 10
5.352829
 20
5.573304
 30
0.0
  0
SPLINE
  5
164
100
AcDbEntity
  8
Layer_1
 62
7
100
AcDbSpline
 70
8
 71
3
 72
8
 73
4
 74
0
 40
0
 40
0
 40
0
 40
0
 40
1
 40
1
 40
1
 40
1
 10
5.352829
 20
5.573304
 30
0.0
 10
5.342846
 20
5.569976
 30
0.0
 10
5.342846
 20
5.563320
 30
0.0
 10
5.352829
 20
5.545573
 30
0.0
  0
SPLINE
  5
165
100
AcDbEntity
  8
Layer_1
 62
7
100
AcDbSpline
 70
8
 71
3
 72
8
 73
4
 74
0
 40
0
 40
0
 40
0
 40
0
 40
1
 40
1
 40
1
 40
1
 10
5.352829
 20
5.545573
 30
0.0
 10
5.379451
 20
5.494547
 30
0.0
 10
5.368359
 20
5.452396
 30
0.0
 10
5.315115
 20
5.401371
 30
0.0
  0
SPLINE
  5
166
100
AcDbEntity
  8
Layer_1
 62
7
100
AcDbSpline
 70
8
 71
3
 72
8
 73
4
 74
0
 40
0
 40
0
 40
0
 40
0
 40
1
 40
1
 40
1
 40
1
 10
5.315115
 20
5.401371
 30
0.0
 10
5.266308
 20
5.354783
 30
0.0
 10
5.265199
 20
5.351456
 30
0.0
 10
5.261871
 20
5.278246
 30
0.0
  0
SPLINE
  5
167
100
AcDbEntity
  8
Layer_1
 62
7
100
AcDbSpline
 70
8
 71
3
 72
8
 73
4
 74
0
 40
0
 40
0
 40
0
 40
0
 40
1
 40
1
 40
1
 40
1
 10
5.261871
 20
5.278246
 30
0.0
 10
5.259653
 20
5.232767
 30
0.0
 10
5.248561
 20
5.182851
 30
0.0
 10
5.234140
 20
5.149574
 30
0.0
  0
SPLINE
  5
168
100
AcDbEntity
  8
Layer_1
 62
7
100
AcDbSpline
 70
8
 71
3
 72
8
 73
4
 74
0
 40
0
 40
0
 40
0
 40
0
 40
1
 40
1
 40
1
 40
1
 10
5.234140
 20
5.149574
 30
0.0
 10
5.203082
 20
5.081910
 30
0.0
 10
5.204191
 20
5.074146
 30
0.0
 10
5.237468
 20
5.034213
 30
0.0
  0
SPLINE
  5
169
100
AcDbEntity
  8
Layer_1
 62
7
100
AcDbSpline
 70
8
 71
3
 72
8
 73
4
 74
0
 40
0
 40
0
 40
0
 40
0
 40
1
 40
1
 40
1
 40
1
 10
5.237468
 20
5.034213
 30
0.0
 10
5.272964
 20
4.992062
 30
0.0
 10
5.271855
 20
4.979860
 30
0.0
 10
5.231922
 20
4.937709
 30
0.0
  0
SPLINE
  5
16a
100
AcDbEntity
  8
Layer_1
 62
7
100
AcDbSpline
 70
8
 71
3
 72
8
 73
4
 74
0
 40
0
 40
0
 40
0
 40
0
 40
1
 40
1
 40
1
 40
1
 10
5.231922
 20
4.937709
 30
0.0
 10
5.201973
 20
4.906650
 30
0.0
 10
5.199754
 20
4.898886
 30
0.0
 10
5.209737
 20
4.872264
 30
0.0
  0
SPLINE
  5
16b
100
AcDbEntity
  8
Layer_1
 62
7
100
AcDbSpline
 70
8
 71
3
 72
8
 73
4
 74
0
 40
0
 40
0
 40
0
 40
0
 40
1
 40
1
 40
1
 40
1
 10
5.209737
 20
4.872264
 30
0.0
 10
5.226376
 20
4.829003
 30
0.0
 10
5.223048
 20
4.709206
 30
0.0
 10
5.205300
 20
4.657071
 30
0.0
  0
SPLINE
  5
16c
100
AcDbEntity
  8
Layer_1
 62
7
100
AcDbSpline
 70
8
 71
3
 72
8
 73
4
 74
0
 40
0
 40
0
 40
0
 40
0
 40
1
 40
1
 40
1
 40
1
 10
5.205300
 20
4.657071
 30
0.0
 10
5.169805
 20
4.556130
 30
0.0
 10
5.154275
 20
4.222249
 30
0.0
 10
5.177569
 20
4.044771
 30
0.0
  0
SPLINE
  5
16d
100
AcDbEntity
  8
Layer_1
 62
7
100
AcDbSpline
 70
8
 71
3
 72
8
 73
4
 74
0
 40
0
 40
0
 40
0
 40
0
 40
1
 40
1
 40
1
 40
1
 10
5.177569
 20
4.044771
 30
0.0
 10
5.185334
 20
3.992637
 30
0.0
 10
5.190880
 20
3.907225
 30
0.0
 10
5.191989
 20
3.855091
 30
0.0
  0
SPLINE
  5
16e
100
AcDbEntity
  8
Layer_1
 62
7
100
AcDbSpline
 70
8
 71
3
 72
8
 73
4
 74
0
 40
0
 40
0
 40
0
 40
0
 40
1
 40
1
 40
1
 40
1
 10
5.191989
 20
3.855091
 30
0.0
 10
5.193099
 20
3.797410
 30
0.0
 10
5.198645
 20
3.753041
 30
0.0
 10
5.207519
 20
3.743058
 30
0.0
  0
SPLINE
  5
16f
100
AcDbEntity
  8
Layer_1
 62
7
100
AcDbSpline
 70
8
 71
3
 72
8
 73
4
 74
0
 40
0
 40
0
 40
0
 40
0
 40
1
 40
1
 40
1
 40
1
 10
5.207519
 20
3.743058
 30
0.0
 10
5.215283
 20
3.733074
 30
0.0
 10
5.245233
 20
3.621041
 30
0.0
 10
5.275182
 20
3.492369
 30
0.0
  0
SPLINE
  5
170
100
AcDbEntity
  8
Layer_1
 62
7
100
AcDbSpline
 70
8
 71
3
 72
8
 73
4
 74
0
 40
0
 40
0
 40
0
 40
0
 40
1
 40
1
 40
1
 40
1
 10
5.275182
 20
3.492369
 30
0.0
 10
5.343955
 20
3.199530
 30
0.0
 10
5.375014
 20
3.135194
 30
0.0
 10
5.442678
 20
3.135194
 30
0.0
  0
SPLINE
  5
171
100
AcDbEntity
  8
Layer_1
 62
7
100
AcDbSpline
 70
8
 71
3
 72
8
 73
4
 74
0
 40
0
 40
0
 40
0
 40
0
 40
1
 40
1
 40
1
 40
1
 10
5.442678
 20
3.135194
 30
0.0
 10
5.488156
 20
3.135194
 30
0.0
 10
5.512560
 20
3.217278
 30
0.0
 10
5.487047
 20
3.284941
 30
0.0
  0
SPLINE
  5
172
100
AcDbEntity
  8
Layer_1
 62
7
100
AcDbSpline
 70
8
 71
3
 72
8
 73
4
 74
0
 40
0
 40
0
 40
0
 40
0
 40
1
 40
1
 40
1
 40
1
 10
5.487047
 20
3.284941
 30
0.0
 10
5.481501
 20
3.300471
 30
0.0
 10
5.470409
 20
3.370353
 30
0.0
 10
5.463753
 20
3.441344
 30
0.0
  0
SPLINE
  5
173
100
AcDbEntity
  8
Layer_1
 62
7
100
AcDbSpline
 70
8
 71
3
 72
8
 73
4
 74
0
 40
0
 40
0
 40
0
 40
0
 40
1
 40
1
 40
1
 40
1
 10
5.463753
 20
3.441344
 30
0.0
 10
5.453770
 20
3.541176
 30
0.0
 10
5.453770
 20
3.581108
 30
0.0
 10
5.463753
 20
3.626587
 30
0.0
  0
SPLINE
  5
174
100
AcDbEntity
  8
Layer_1
 62
7
100
AcDbSpline
 70
8
 71
3
 72
8
 73
4
 74
0
 40
0
 40
0
 40
0
 40
0
 40
1
 40
1
 40
1
 40
1
 10
5.463753
 20
3.626587
 30
0.0
 10
5.475955
 20
3.677612
 30
0.0
 10
5.474846
 20
3.695360
 30
0.0
 10
5.454879
 20
3.775225
 30
0.0
  0
SPLINE
  5
175
100
AcDbEntity
  8
Layer_1
 62
7
100
AcDbSpline
 70
8
 71
3
 72
8
 73
4
 74
0
 40
0
 40
0
 40
0
 40
0
 40
1
 40
1
 40
1
 40
1
 10
5.454879
 20
3.775225
 30
0.0
 10
5.427148
 20
3.881713
 30
0.0
 10
5.424930
 20
3.950485
 30
0.0
 10
5.448224
 20
4.008166
 30
0.0
  0
SPLINE
  5
176
100
AcDbEntity
  8
Layer_1
 62
7
100
AcDbSpline
 70
8
 71
3
 72
8
 73
4
 74
0
 40
0
 40
0
 40
0
 40
0
 40
1
 40
1
 40
1
 40
1
 10
5.448224
 20
4.008166
 30
0.0
 10
5.471518
 20
4.071393
 30
0.0
 10
5.490375
 20
4.177880
 30
0.0
 10
5.485938
 20
4.227795
 30
0.0
  0
SPLINE
  5
177
100
AcDbEntity
  8
Layer_1
 62
7
100
AcDbSpline
 70
8
 71
3
 72
8
 73
4
 74
0
 40
0
 40
0
 40
0
 40
0
 40
1
 40
1
 40
1
 40
1
 10
5.485938
 20
4.227795
 30
0.0
 10
5.480392
 20
4.294350
 30
0.0
 10
5.483719
 20
4.386417
 30
0.0
 10
5.492593
 20
4.451862
 30
0.0
  0
SPLINE
  5
178
100
AcDbEntity
  8
Layer_1
 62
7
100
AcDbSpline
 70
8
 71
3
 72
8
 73
4
 74
0
 40
0
 40
0
 40
0
 40
0
 40
1
 40
1
 40
1
 40
1
 10
5.492593
 20
4.451862
 30
0.0
 10
5.498140
 20
4.486248
 30
0.0
 10
5.495921
 20
4.529509
 30
0.0
 10
5.488156
 20
4.563895
 30
0.0
  0
SPLINE
  5
179
100
AcDbEntity
  8
Layer_1
 62
7
100
AcDbSpline
 70
8
 71
3
 72
8
 73
4
 74
0
 40
0
 40
0
 40
0
 40
0
 40
1
 40
1
 40
1
 40
1
 10
5.488156
 20
4.563895
 30
0.0
 10
5.477064
 20
4.604937
 30
0.0
 10
5.477064
 20
4.635996
 30
0.0
 10
5.487047
 20
4.689239
 30
0.0
  0
SPLINE
  5
17a
100
AcDbEntity
  8
Layer_1
 62
7
100
AcDbSpline
 70
8
 71
3
 72
8
 73
4
 74
0
 40
0
 40
0
 40
0
 40
0
 40
1
 40
1
 40
1
 40
1
 10
5.487047
 20
4.689239
 30
0.0
 10
5.501467
 20
4.771323
 30
0.0
 10
5.522543
 20
4.810146
 30
0.0
 10
5.553602
 20
4.810146
 30
0.0
  0
SPLINE
  5
17b
100
AcDbEntity
  8
Layer_1
 62
7
100
AcDbSpline
 70
8
 71
3
 72
8
 73
4
 74
0
 40
0
 40
0
 40
0
 40
0
 40
1
 40
1
 40
1
 40
1
 10
5.553602
 20
4.810146
 30
0.0
 10
5.580223
 20
4.810146
 30
0.0
 10
5.582442
 20
4.824567
 30
0.0
 10
5.559148
 20
4.843424
 30
0.0
  0
SPLINE
  5
17c
100
AcDbEntity
  8
Layer_1
 62
7
100
AcDbSpline
 70
8
 71
3
 72
8
 73
4
 74
0
 40
0
 40
0
 40
0
 40
0
 40
1
 40
1
 40
1
 40
1
 10
5.559148
 20
4.843424
 30
0.0
 10
5.535854
 20
4.862281
 30
0.0
 10
5.540291
 20
4.948801
 30
0.0
 10
5.564694
 20
4.948801
 30
0.0
  0
SPLINE
  5
17d
100
AcDbEntity
  8
Layer_1
 62
7
100
AcDbSpline
 70
8
 71
3
 72
8
 73
4
 74
0
 40
0
 40
0
 40
0
 40
0
 40
1
 40
1
 40
1
 40
1
 10
5.564694
 20
4.948801
 30
0.0
 10
5.573568
 20
4.948801
 30
0.0
 10
5.585770
 20
4.967658
 30
0.0
 10
5.593534
 20
4.994280
 30
0.0
  0
SPLINE
  5
17e
100
AcDbEntity
  8
Layer_1
 62
7
100
AcDbSpline
 70
8
 71
3
 72
8
 73
4
 74
0
 40
0
 40
0
 40
0
 40
0
 40
1
 40
1
 40
1
 40
1
 10
5.593534
 20
4.994280
 30
0.0
 10
5.600190
 20
5.018684
 30
0.0
 10
5.616828
 20
5.058616
 30
0.0
 10
5.629030
 20
5.083019
 30
0.0
  0
SPLINE
  5
17f
100
AcDbEntity
  8
Layer_1
 62
7
100
AcDbSpline
 70
8
 71
3
 72
8
 73
4
 74
0
 40
0
 40
0
 40
0
 40
0
 40
1
 40
1
 40
1
 40
1
 10
5.629030
 20
5.083019
 30
0.0
 10
5.641232
 20
5.107423
 30
0.0
 10
5.665635
 20
5.169540
 30
0.0
 10
5.682273
 20
5.221674
 30
0.0
  0
SPLINE
  5
180
100
AcDbEntity
  8
Layer_1
 62
7
100
AcDbSpline
 70
8
 71
3
 72
8
 73
4
 74
0
 40
0
 40
0
 40
0
 40
0
 40
1
 40
1
 40
1
 40
1
 10
5.682273
 20
5.221674
 30
0.0
 10
5.697803
 20
5.272699
 30
0.0
 10
5.718878
 20
5.330380
 30
0.0
 10
5.727752
 20
5.348128
 30
0.0
  0
SPLINE
  5
181
100
AcDbEntity
  8
Layer_1
 62
7
100
AcDbSpline
 70
8
 71
3
 72
8
 73
4
 74
0
 40
0
 40
0
 40
0
 40
0
 40
1
 40
1
 40
1
 40
1
 10
5.727752
 20
5.348128
 30
0.0
 10
5.748828
 20
5.390279
 30
0.0
 10
5.797634
 20
5.442413
 30
0.0
 10
5.816491
 20
5.442413
 30
0.0
  0
SPLINE
  5
182
100
AcDbEntity
  8
Layer_1
 62
7
100
AcDbSpline
 70
8
 71
3
 72
8
 73
4
 74
0
 40
0
 40
0
 40
0
 40
0
 40
1
 40
1
 40
1
 40
1
 10
5.816491
 20
5.442413
 30
0.0
 10
5.824256
 20
5.442413
 30
0.0
 10
5.837567
 20
5.457943
 30
0.0
 10
5.847550
 20
5.475690
 30
0.0
  0
SPLINE
  5
183
100
AcDbEntity
  8
Layer_1
 62
7
100
AcDbSpline
 70
8
 71
3
 72
8
 73
4
 74
0
 40
0
 40
0
 40
0
 40
0
 40
1
 40
1
 40
1
 40
1
 10
5.847550
 20
5.475690
 30
0.0
 10
5.857533
 20
5.494547
 30
0.0
 10
5.883046
 20
5.521169
 30
0.0
 10
5.906340
 20
5.535589
 30
0.0
  0
SPLINE
  5
184
100
AcDbEntity
  8
Layer_1
 62
7
100
AcDbSpline
 70
8
 71
3
 72
8
 73
4
 74
0
 40
0
 40
0
 40
0
 40
0
 40
1
 40
1
 40
1
 40
1
 10
5.906340
 20
5.535589
 30
0.0
 10
5.929634
 20
5.550009
 30
0.0
 10
5.962911
 20
5.581068
 30
0.0
 10
5.979550
 20
5.604362
 30
0.0
  0
SPLINE
  5
185
100
AcDbEntity
  8
Layer_1
 62
7
100
AcDbSpline
 70
8
 71
3
 72
8
 73
4
 74
0
 40
0
 40
0
 40
0
 40
0
 40
1
 40
1
 40
1
 40
1
 10
5.979550
 20
5.604362
 30
0.0
 10
5.997298
 20
5.628766
 30
0.0
 10
6.028356
 20
5.665370
 30
0.0
 10
6.049432
 20
5.686446
 30
0.0
  0
SPLINE
  5
186
100
AcDbEntity
  8
Layer_1
 62
7
100
AcDbSpline
 70
8
 71
3
 72
8
 73
4
 74
0
 40
0
 40
0
 40
0
 40
0
 40
1
 40
1
 40
1
 40
1
 10
6.049432
 20
5.686446
 30
0.0
 10
6.090474
 20
5.728597
 30
0.0
 10
6.188087
 20
5.856160
 30
0.0
 10
6.297902
 20
6.012563
 30
0.0
  0
SPLINE
  5
187
100
AcDbEntity
  8
Layer_1
 62
7
100
AcDbSpline
 70
8
 71
3
 72
8
 73
4
 74
0
 40
0
 40
0
 40
0
 40
0
 40
1
 40
1
 40
1
 40
1
 10
6.297902
 20
6.012563
 30
0.0
 10
6.453195
 20
6.232192
 30
0.0
 10
6.649531
 20
6.384158
 30
0.0
 10
6.881362
 20
6.461805
 30
0.0
  0
SPLINE
  5
188
100
AcDbEntity
  8
Layer_1
 62
7
100
AcDbSpline
 70
8
 71
3
 72
8
 73
4
 74
0
 40
0
 40
0
 40
0
 40
0
 40
1
 40
1
 40
1
 40
1
 10
6.881362
 20
6.461805
 30
0.0
 10
6.960118
 20
6.488427
 30
0.0
 10
7.008924
 20
6.480662
 30
0.0
 10
7.052185
 20
6.434074
 30
0.0
  0
SPLINE
  5
189
100
AcDbEntity
  8
Layer_1
 62
7
100
AcDbSpline
 70
8
 71
3
 72
8
 73
4
 74
0
 40
0
 40
0
 40
0
 40
0
 40
1
 40
1
 40
1
 40
1
 10
7.052185
 20
6.434074
 30
0.0
 10
7.066605
 20
6.418544
 30
0.0
 10
7.110975
 20
6.388595
 30
0.0
 10
7.150907
 20
6.368629
 30
0.0
  0
SPLINE
  5
18a
100
AcDbEntity
  8
Layer_1
 62
7
100
AcDbSpline
 70
8
 71
3
 72
8
 73
4
 74
0
 40
0
 40
0
 40
0
 40
0
 40
1
 40
1
 40
1
 40
1
 10
7.150907
 20
6.368629
 30
0.0
 10
7.250739
 20
6.318713
 30
0.0
 10
7.343915
 20
6.245503
 30
0.0
 10
7.425999
 20
6.153436
 30
0.0
  0
SPLINE
  5
18b
100
AcDbEntity
  8
Layer_1
 62
7
100
AcDbSpline
 70
8
 71
3
 72
8
 73
4
 74
0
 40
0
 40
0
 40
0
 40
0
 40
1
 40
1
 40
1
 40
1
 10
7.425999
 20
6.153436
 30
0.0
 10
7.463713
 20
6.111285
 30
0.0
 10
7.504755
 20
6.073571
 30
0.0
 10
7.515847
 20
6.069134
 30
0.0
  0
SPLINE
  5
18c
100
AcDbEntity
  8
Layer_1
 62
7
100
AcDbSpline
 70
8
 71
3
 72
8
 73
4
 74
0
 40
0
 40
0
 40
0
 40
0
 40
1
 40
1
 40
1
 40
1
 10
7.515847
 20
6.069134
 30
0.0
 10
7.549124
 20
6.059151
 30
0.0
 10
7.576855
 20
5.974848
 30
0.0
 10
7.569091
 20
5.908294
 30
0.0
  0
SPLINE
  5
18d
100
AcDbEntity
  8
Layer_1
 62
7
100
AcDbSpline
 70
8
 71
3
 72
8
 73
4
 74
0
 40
0
 40
0
 40
0
 40
0
 40
1
 40
1
 40
1
 40
1
 10
7.569091
 20
5.908294
 30
0.0
 10
7.563544
 20
5.865034
 30
0.0
 10
7.565763
 20
5.852832
 30
0.0
 10
7.577965
 20
5.852832
 30
0.0
  0
SPLINE
  5
18e
100
AcDbEntity
  8
Layer_1
 62
7
100
AcDbSpline
 70
8
 71
3
 72
8
 73
4
 74
0
 40
0
 40
0
 40
0
 40
0
 40
1
 40
1
 40
1
 40
1
 10
7.577965
 20
5.852832
 30
0.0
 10
7.602368
 20
5.852832
 30
0.0
 10
7.613460
 20
5.822883
 30
0.0
 10
7.650065
 20
5.669807
 30
0.0
  0
SPLINE
  5
18f
100
AcDbEntity
  8
Layer_1
 62
7
100
AcDbSpline
 70
8
 71
3
 72
8
 73
4
 74
0
 40
0
 40
0
 40
0
 40
0
 40
1
 40
1
 40
1
 40
1
 10
7.650065
 20
5.669807
 30
0.0
 10
7.684452
 20
5.524497
 30
0.0
 10
7.695544
 20
5.495657
 30
0.0
 10
7.727712
 20
5.459052
 30
0.0
  0
SPLINE
  5
190
100
AcDbEntity
  8
Layer_1
 62
7
100
AcDbSpline
 70
8
 71
3
 72
8
 73
4
 74
0
 40
0
 40
0
 40
0
 40
0
 40
1
 40
1
 40
1
 40
1
 10
7.727712
 20
5.459052
 30
0.0
 10
7.738804
 20
5.446850
 30
0.0
 10
7.754334
 20
5.414682
 30
0.0
 10
7.760989
 20
5.386951
 30
0.0
  0
SPLINE
  5
191
100
AcDbEntity
  8
Layer_1
 62
7
100
AcDbSpline
 70
8
 71
3
 72
8
 73
4
 74
0
 40
0
 40
0
 40
0
 40
0
 40
1
 40
1
 40
1
 40
1
 10
7.760989
 20
5.386951
 30
0.0
 10
7.770972
 20
5.350346
 30
0.0
 10
7.788720
 20
5.323725
 30
0.0
 10
7.829762
 20
5.286010
 30
0.0
  0
SPLINE
  5
192
100
AcDbEntity
  8
Layer_1
 62
7
100
AcDbSpline
 70
8
 71
3
 72
8
 73
4
 74
0
 40
0
 40
0
 40
0
 40
0
 40
1
 40
1
 40
1
 40
1
 10
7.829762
 20
5.286010
 30
0.0
 10
7.886333
 20
5.232767
 30
0.0
 10
7.904081
 20
5.190616
 30
0.0
 10
7.905190
 20
5.108532
 30
0.0
  0
SPLINE
  5
193
100
AcDbEntity
  8
Layer_1
 62
7
100
AcDbSpline
 70
8
 71
3
 72
8
 73
4
 74
0
 40
0
 40
0
 40
0
 40
0
 40
1
 40
1
 40
1
 40
1
 10
7.905190
 20
5.108532
 30
0.0
 10
7.905190
 20
5.083019
 30
0.0
 10
7.912955
 20
5.061944
 30
0.0
 10
7.927375
 20
5.048633
 30
0.0
  0
SPLINE
  5
194
100
AcDbEntity
  8
Layer_1
 62
7
100
AcDbSpline
 70
8
 71
3
 72
8
 73
4
 74
0
 40
0
 40
0
 40
0
 40
0
 40
1
 40
1
 40
1
 40
1
 10
7.927375
 20
5.048633
 30
0.0
 10
7.939577
 20
5.037541
 30
0.0
 10
7.951778
 20
5.018684
 30
0.0
 10
7.956215
 20
5.005373
 30
0.0
  0
SPLINE
  5
195
100
AcDbEntity
  8
Layer_1
 62
7
100
AcDbSpline
 70
8
 71
3
 72
8
 73
4
 74
0
 40
0
 40
0
 40
0
 40
0
 40
1
 40
1
 40
1
 40
1
 10
7.956215
 20
5.005373
 30
0.0
 10
7.960652
 20
4.993171
 30
0.0
 10
7.978400
 20
4.965440
 30
0.0
 10
7.995039
 20
4.945474
 30
0.0
  0
SPLINE
  5
196
100
AcDbEntity
  8
Layer_1
 62
7
100
AcDbSpline
 70
8
 71
3
 72
8
 73
4
 74
0
 40
0
 40
0
 40
0
 40
0
 40
1
 40
1
 40
1
 40
1
 10
7.995039
 20
4.945474
 30
0.0
 10
8.033862
 20
4.901104
 30
0.0
 10
8.085997
 20
4.801272
 30
0.0
 10
8.105963
 20
4.732500
 30
0.0
  0
SPLINE
  5
197
100
AcDbEntity
  8
Layer_1
 62
7
100
AcDbSpline
 70
8
 71
3
 72
8
 73
4
 74
0
 40
0
 40
0
 40
0
 40
0
 40
1
 40
1
 40
1
 40
1
 10
8.105963
 20
4.732500
 30
0.0
 10
8.113728
 20
4.704769
 30
0.0
 10
8.131475
 20
4.670382
 30
0.0
 10
8.145895
 20
4.657071
 30
0.0
  0
SPLINE
  5
198
100
AcDbEntity
  8
Layer_1
 62
7
100
AcDbSpline
 70
8
 71
3
 72
8
 73
4
 74
0
 40
0
 40
0
 40
0
 40
0
 40
1
 40
1
 40
1
 40
1
 10
8.145895
 20
4.657071
 30
0.0
 10
8.176954
 20
4.623794
 30
0.0
 10
8.223542
 20
4.545038
 30
0.0
 10
8.242399
 20
4.490685
 30
0.0
  0
SPLINE
  5
199
100
AcDbEntity
  8
Layer_1
 62
7
100
AcDbSpline
 70
8
 71
3
 72
8
 73
4
 74
0
 40
0
 40
0
 40
0
 40
0
 40
1
 40
1
 40
1
 40
1
 10
8.242399
 20
4.490685
 30
0.0
 10
8.251273
 20
4.468500
 30
0.0
 10
8.270130
 20
4.430786
 30
0.0
 10
8.285660
 20
4.407492
 30
0.0
  0
SPLINE
  5
19a
100
AcDbEntity
  8
Layer_1
 62
7
100
AcDbSpline
 70
8
 71
3
 72
8
 73
4
 74
0
 40
0
 40
0
 40
0
 40
0
 40
1
 40
1
 40
1
 40
1
 10
8.285660
 20
4.407492
 30
0.0
 10
8.301189
 20
4.385307
 30
0.0
 10
8.320046
 20
4.340938
 30
0.0
 10
8.326702
 20
4.308770
 30
0.0
  0
SPLINE
  5
19b
100
AcDbEntity
  8
Layer_1
 62
7
100
AcDbSpline
 70
8
 71
3
 72
8
 73
4
 74
0
 40
0
 40
0
 40
0
 40
0
 40
1
 40
1
 40
1
 40
1
 10
8.326702
 20
4.308770
 30
0.0
 10
8.345559
 20
4.228905
 30
0.0
 10
8.372180
 20
4.180098
 30
0.0
 10
8.420987
 20
4.133510
 30
0.0
  0
SPLINE
  5
19c
100
AcDbEntity
  8
Layer_1
 62
7
100
AcDbSpline
 70
8
 71
3
 72
8
 73
4
 74
0
 40
0
 40
0
 40
0
 40
0
 40
1
 40
1
 40
1
 40
1
 10
8.420987
 20
4.133510
 30
0.0
 10
8.443172
 20
4.112434
 30
0.0
 10
8.484214
 20
4.063628
 30
0.0
 10
8.511945
 20
4.025914
 30
0.0
  0
SPLINE
  5
19d
100
AcDbEntity
  8
Layer_1
 62
7
100
AcDbSpline
 70
8
 71
3
 72
8
 73
4
 74
0
 40
0
 40
0
 40
0
 40
0
 40
1
 40
1
 40
1
 40
1
 10
8.511945
 20
4.025914
 30
0.0
 10
8.539676
 20
3.987090
 30
0.0
 10
8.566297
 20
3.956032
 30
0.0
 10
8.571844
 20
3.956032
 30
0.0
  0
SPLINE
  5
19e
100
AcDbEntity
  8
Layer_1
 62
7
100
AcDbSpline
 70
8
 71
3
 72
8
 73
4
 74
0
 40
0
 40
0
 40
0
 40
0
 40
1
 40
1
 40
1
 40
1
 10
8.571844
 20
3.956032
 30
0.0
 10
8.577390
 20
3.956032
 30
0.0
 10
8.592919
 20
3.944939
 30
0.0
 10
8.605121
 20
3.932738
 30
0.0
  0
SPLINE
  5
19f
100
AcDbEntity
  8
Layer_1
 62
7
100
AcDbSpline
 70
8
 71
3
 72
8
 73
4
 74
0
 40
0
 40
0
 40
0
 40
0
 40
1
 40
1
 40
1
 40
1
 10
8.605121
 20
3.932738
 30
0.0
 10
8.618432
 20
3.919427
 30
0.0
 10
8.657255
 20
3.892805
 30
0.0
 10
8.690532
 20
3.873948
 30
0.0
  0
SPLINE
  5
1a0
100
AcDbEntity
  8
Layer_1
 62
7
100
AcDbSpline
 70
8
 71
3
 72
8
 73
4
 74
0
 40
0
 40
0
 40
0
 40
0
 40
1
 40
1
 40
1
 40
1
 10
8.690532
 20
3.873948
 30
0.0
 10
8.751541
 20
3.839561
 30
0.0
 10
8.752650
 20
3.837343
 30
0.0
 10
8.795910
 20
3.728637
 30
0.0
  0
SPLINE
  5
1a1
100
AcDbEntity
  8
Layer_1
 62
7
100
AcDbSpline
 70
8
 71
3
 72
8
 73
4
 74
0
 40
0
 40
0
 40
0
 40
0
 40
1
 40
1
 40
1
 40
1
 10
8.795910
 20
3.728637
 30
0.0
 10
8.830297
 20
3.642117
 30
0.0
 10
8.851372
 20
3.604403
 30
0.0
 10
8.897960
 20
3.554487
 30
0.0
  0
SPLINE
  5
1a2
100
AcDbEntity
  8
Layer_1
 62
7
100
AcDbSpline
 70
8
 71
3
 72
8
 73
4
 74
0
 40
0
 40
0
 40
0
 40
0
 40
1
 40
1
 40
1
 40
1
 10
8.897960
 20
3.554487
 30
0.0
 10
8.935674
 20
3.514554
 30
0.0
 10
8.958968
 20
3.477949
 30
0.0
 10
8.963405
 20
3.453546
 30
0.0
  0
SPLINE
  5
1a3
100
AcDbEntity
  8
Layer_1
 62
7
100
AcDbSpline
 70
8
 71
3
 72
8
 73
4
 74
0
 40
0
 40
0
 40
0
 40
0
 40
1
 40
1
 40
1
 40
1
 10
8.963405
 20
3.453546
 30
0.0
 10
8.971170
 20
3.411395
 30
0.0
 10
9.008884
 20
3.355933
 30
0.0
 10
9.072111
 20
3.290488
 30
0.0
  0
SPLINE
  5
1a4
100
AcDbEntity
  8
Layer_1
 62
7
100
AcDbSpline
 70
8
 71
3
 72
8
 73
4
 74
0
 40
0
 40
0
 40
0
 40
0
 40
1
 40
1
 40
1
 40
1
 10
9.072111
 20
3.290488
 30
0.0
 10
9.094296
 20
3.267194
 30
0.0
 10
9.128682
 20
3.217278
 30
0.0
 10
9.148648
 20
3.178454
 30
0.0
  0
SPLINE
  5
1a5
100
AcDbEntity
  8
Layer_1
 62
7
100
AcDbSpline
 70
8
 71
3
 72
8
 73
4
 74
0
 40
0
 40
0
 40
0
 40
0
 40
1
 40
1
 40
1
 40
1
 10
9.148648
 20
3.178454
 30
0.0
 10
9.167506
 20
3.139631
 30
0.0
 10
9.197455
 20
3.087497
 30
0.0
 10
9.214094
 20
3.063093
 30
0.0
  0
SPLINE
  5
1a6
100
AcDbEntity
  8
Layer_1
 62
7
100
AcDbSpline
 70
8
 71
3
 72
8
 73
4
 74
0
 40
0
 40
0
 40
0
 40
0
 40
1
 40
1
 40
1
 40
1
 10
9.214094
 20
3.063093
 30
0.0
 10
9.247371
 20
3.014287
 30
0.0
 10
9.317253
 20
2.894489
 30
0.0
 10
9.356076
 20
2.819061
 30
0.0
  0
SPLINE
  5
1a7
100
AcDbEntity
  8
Layer_1
 62
7
100
AcDbSpline
 70
8
 71
3
 72
8
 73
4
 74
0
 40
0
 40
0
 40
0
 40
0
 40
1
 40
1
 40
1
 40
1
 10
9.356076
 20
2.819061
 30
0.0
 10
9.369387
 20
2.791330
 30
0.0
 10
9.386026
 20
2.769145
 30
0.0
 10
9.391572
 20
2.769145
 30
0.0
  0
SPLINE
  5
1a8
100
AcDbEntity
  8
Layer_1
 62
7
100
AcDbSpline
 70
8
 71
3
 72
8
 73
4
 74
0
 40
0
 40
0
 40
0
 40
0
 40
1
 40
1
 40
1
 40
1
 10
9.391572
 20
2.769145
 30
0.0
 10
9.397118
 20
2.769145
 30
0.0
 10
9.419303
 20
2.741414
 30
0.0
 10
9.442597
 20
2.708137
 30
0.0
  0
SPLINE
  5
1a9
100
AcDbEntity
  8
Layer_1
 62
7
100
AcDbSpline
 70
8
 71
3
 72
8
 73
4
 74
0
 40
0
 40
0
 40
0
 40
0
 40
1
 40
1
 40
1
 40
1
 10
9.442597
 20
2.708137
 30
0.0
 10
9.490294
 20
2.636036
 30
0.0
 10
9.651134
 20
2.482961
 30
0.0
 10
9.688848
 20
2.472978
 30
0.0
  0
SPLINE
  5
1aa
100
AcDbEntity
  8
Layer_1
 62
7
100
AcDbSpline
 70
8
 71
3
 72
8
 73
4
 74
0
 40
0
 40
0
 40
0
 40
0
 40
1
 40
1
 40
1
 40
1
 10
9.688848
 20
2.472978
 30
0.0
 10
9.733218
 20
2.461885
 30
0.0
 10
9.759840
 20
2.499599
 30
0.0
 10
9.759840
 20
2.572809
 30
0.0
  0
SPLINE
  5
1ab
100
AcDbEntity
  8
Layer_1
 62
7
100
AcDbSpline
 70
8
 71
3
 72
8
 73
4
 74
0
 40
0
 40
0
 40
0
 40
0
 40
1
 40
1
 40
1
 40
1
 10
9.759840
 20
2.572809
 30
0.0
 10
9.760949
 20
2.641582
 30
0.0
 10
9.752075
 20
2.657112
 30
0.0
 10
9.650025
 20
2.772473
 30
0.0
  0
SPLINE
  5
1ac
100
AcDbEntity
  8
Layer_1
 62
7
100
AcDbSpline
 70
8
 71
3
 72
8
 73
4
 74
0
 40
0
 40
0
 40
0
 40
0
 40
1
 40
1
 40
1
 40
1
 10
9.650025
 20
2.772473
 30
0.0
 10
9.617857
 20
2.810187
 30
0.0
 10
9.577924
 20
2.867867
 30
0.0
 10
9.561286
 20
2.900035
 30
0.0
  0
SPLINE
  5
1ad
100
AcDbEntity
  8
Layer_1
 62
7
100
AcDbSpline
 70
8
 71
3
 72
8
 73
4
 74
0
 40
0
 40
0
 40
0
 40
0
 40
1
 40
1
 40
1
 40
1
 10
9.561286
 20
2.900035
 30
0.0
 10
9.545756
 20
2.931094
 30
0.0
 10
9.514698
 20
2.984337
 30
0.0
 10
9.492513
 20
3.016505
 30
0.0
  0
SPLINE
  5
1ae
100
AcDbEntity
  8
Layer_1
 62
7
100
AcDbSpline
 70
8
 71
3
 72
8
 73
4
 74
0
 40
0
 40
0
 40
0
 40
0
 40
1
 40
1
 40
1
 40
1
 10
9.492513
 20
3.016505
 30
0.0
 10
9.432614
 20
3.100808
 30
0.0
 10
9.256245
 20
3.394756
 30
0.0
 10
9.214094
 20
3.479058
 30
0.0
  0
SPLINE
  5
1af
100
AcDbEntity
  8
Layer_1
 62
7
100
AcDbSpline
 70
8
 71
3
 72
8
 73
4
 74
0
 40
0
 40
0
 40
0
 40
0
 40
1
 40
1
 40
1
 40
1
 10
9.214094
 20
3.479058
 30
0.0
 10
9.194127
 20
3.518991
 30
0.0
 10
9.158632
 20
3.583327
 30
0.0
 10
9.136447
 20
3.623260
 30
0.0
  0
SPLINE
  5
1b0
100
AcDbEntity
  8
Layer_1
 62
7
100
AcDbSpline
 70
8
 71
3
 72
8
 73
4
 74
0
 40
0
 40
0
 40
0
 40
0
 40
1
 40
1
 40
1
 40
1
 10
9.136447
 20
3.623260
 30
0.0
 10
9.113153
 20
3.663192
 30
0.0
 10
9.088749
 20
3.715327
 30
0.0
 10
9.082094
 20
3.740839
 30
0.0
  0
SPLINE
  5
1b1
100
AcDbEntity
  8
Layer_1
 62
7
100
AcDbSpline
 70
8
 71
3
 72
8
 73
4
 74
0
 40
0
 40
0
 40
0
 40
0
 40
1
 40
1
 40
1
 40
1
 10
9.082094
 20
3.740839
 30
0.0
 10
9.069892
 20
3.784099
 30
0.0
 10
8.988918
 20
3.911662
 30
0.0
 10
8.923473
 20
3.987090
 30
0.0
  0
SPLINE
  5
1b2
100
AcDbEntity
  8
Layer_1
 62
7
100
AcDbSpline
 70
8
 71
3
 72
8
 73
4
 74
0
 40
0
 40
0
 40
0
 40
0
 40
1
 40
1
 40
1
 40
1
 10
8.923473
 20
3.987090
 30
0.0
 10
8.906834
 20
4.007057
 30
0.0
 10
8.892414
 20
4.031460
 30
0.0
 10
8.892414
 20
4.042552
 30
0.0
  0
SPLINE
  5
1b3
100
AcDbEntity
  8
Layer_1
 62
7
100
AcDbSpline
 70
8
 71
3
 72
8
 73
4
 74
0
 40
0
 40
0
 40
0
 40
0
 40
1
 40
1
 40
1
 40
1
 10
8.892414
 20
4.042552
 30
0.0
 10
8.892414
 20
4.053645
 30
0.0
 10
8.871338
 20
4.096905
 30
0.0
 10
8.846935
 20
4.139056
 30
0.0
  0
SPLINE
  5
1b4
100
AcDbEntity
  8
Layer_1
 62
7
100
AcDbSpline
 70
8
 71
3
 72
8
 73
4
 74
0
 40
0
 40
0
 40
0
 40
0
 40
1
 40
1
 40
1
 40
1
 10
8.846935
 20
4.139056
 30
0.0
 10
8.782599
 20
4.247762
 30
0.0
 10
8.764851
 20
4.294350
 30
0.0
 10
8.749322
 20
4.383089
 30
0.0
  0
SPLINE
  5
1b5
100
AcDbEntity
  8
Layer_1
 62
7
100
AcDbSpline
 70
8
 71
3
 72
8
 73
4
 74
0
 40
0
 40
0
 40
0
 40
0
 40
1
 40
1
 40
1
 40
1
 10
8.749322
 20
4.383089
 30
0.0
 10
8.732683
 20
4.481811
 30
0.0
 10
8.708280
 20
4.557240
 30
0.0
 10
8.672784
 20
4.624903
 30
0.0
  0
SPLINE
  5
1b6
100
AcDbEntity
  8
Layer_1
 62
7
100
AcDbSpline
 70
8
 71
3
 72
8
 73
4
 74
0
 40
0
 40
0
 40
0
 40
0
 40
1
 40
1
 40
1
 40
1
 10
8.672784
 20
4.624903
 30
0.0
 10
8.649490
 20
4.668164
 30
0.0
 10
8.646163
 20
4.682584
 30
0.0
 10
8.656146
 20
4.699222
 30
0.0
  0
SPLINE
  5
1b7
100
AcDbEntity
  8
Layer_1
 62
7
100
AcDbSpline
 70
8
 71
3
 72
8
 73
4
 74
0
 40
0
 40
0
 40
0
 40
0
 40
1
 40
1
 40
1
 40
1
 10
8.656146
 20
4.699222
 30
0.0
 10
8.667238
 20
4.715861
 30
0.0
 10
8.663911
 20
4.723626
 30
0.0
 10
8.640617
 20
4.744701
 30
0.0
  0
SPLINE
  5
1b8
100
AcDbEntity
  8
Layer_1
 62
7
100
AcDbSpline
 70
8
 71
3
 72
8
 73
4
 74
0
 40
0
 40
0
 40
0
 40
0
 40
1
 40
1
 40
1
 40
1
 10
8.640617
 20
4.744701
 30
0.0
 10
8.589591
 20
4.792399
 30
0.0
 10
8.548550
 20
4.856734
 30
0.0
 10
8.548550
 20
4.890012
 30
0.0
  0
SPLINE
  5
1b9
100
AcDbEntity
  8
Layer_1
 62
7
100
AcDbSpline
 70
8
 71
3
 72
8
 73
4
 74
0
 40
0
 40
0
 40
0
 40
0
 40
1
 40
1
 40
1
 40
1
 10
8.548550
 20
4.890012
 30
0.0
 10
8.548550
 20
4.928835
 30
0.0
 10
8.513054
 20
4.983188
 30
0.0
 10
8.481995
 20
4.993171
 30
0.0
  0
SPLINE
  5
1ba
100
AcDbEntity
  8
Layer_1
 62
7
100
AcDbSpline
 70
8
 71
3
 72
8
 73
4
 74
0
 40
0
 40
0
 40
0
 40
0
 40
1
 40
1
 40
1
 40
1
 10
8.481995
 20
4.993171
 30
0.0
 10
8.457592
 20
5.000936
 30
0.0
 10
8.404348
 20
5.101877
 30
0.0
 10
8.404348
 20
5.142918
 30
0.0
  0
SPLINE
  5
1bb
100
AcDbEntity
  8
Layer_1
 62
7
100
AcDbSpline
 70
8
 71
3
 72
8
 73
4
 74
0
 40
0
 40
0
 40
0
 40
0
 40
1
 40
1
 40
1
 40
1
 10
8.404348
 20
5.142918
 30
0.0
 10
8.404348
 20
5.161775
 30
0.0
 10
8.388819
 20
5.187288
 30
0.0
 10
8.355542
 20
5.219456
 30
0.0
  0
SPLINE
  5
1bc
100
AcDbEntity
  8
Layer_1
 62
7
100
AcDbSpline
 70
8
 71
3
 72
8
 73
4
 74
0
 40
0
 40
0
 40
0
 40
0
 40
1
 40
1
 40
1
 40
1
 10
8.355542
 20
5.219456
 30
0.0
 10
8.327811
 20
5.246078
 30
0.0
 10
8.303408
 20
5.279355
 30
0.0
 10
8.300080
 20
5.292666
 30
0.0
  0
SPLINE
  5
1bd
100
AcDbEntity
  8
Layer_1
 62
7
100
AcDbSpline
 70
8
 71
3
 72
8
 73
4
 74
0
 40
0
 40
0
 40
0
 40
0
 40
1
 40
1
 40
1
 40
1
 10
8.300080
 20
5.292666
 30
0.0
 10
8.286769
 20
5.344800
 30
0.0
 10
8.174736
 20
5.515623
 30
0.0
 10
8.113728
 20
5.576631
 30
0.0
  0
SPLINE
  5
1be
100
AcDbEntity
  8
Layer_1
 62
7
100
AcDbSpline
 70
8
 71
3
 72
8
 73
4
 74
0
 40
0
 40
0
 40
0
 40
0
 40
1
 40
1
 40
1
 40
1
 10
8.113728
 20
5.576631
 30
0.0
 10
8.076013
 20
5.614345
 30
0.0
 10
8.049392
 20
5.649841
 30
0.0
 10
8.049392
 20
5.663152
 30
0.0
  0
SPLINE
  5
1bf
100
AcDbEntity
  8
Layer_1
 62
7
100
AcDbSpline
 70
8
 71
3
 72
8
 73
4
 74
0
 40
0
 40
0
 40
0
 40
0
 40
1
 40
1
 40
1
 40
1
 10
8.049392
 20
5.663152
 30
0.0
 10
8.049392
 20
5.677572
 30
0.0
 10
8.039408
 20
5.690883
 30
0.0
 10
8.024988
 20
5.696429
 30
0.0
  0
SPLINE
  5
1c0
100
AcDbEntity
  8
Layer_1
 62
7
100
AcDbSpline
 70
8
 71
3
 72
8
 73
4
 74
0
 40
0
 40
0
 40
0
 40
0
 40
1
 40
1
 40
1
 40
1
 10
8.024988
 20
5.696429
 30
0.0
 10
8.010568
 20
5.701975
 30
0.0
 10
7.988383
 20
5.717505
 30
0.0
 10
7.975073
 20
5.731925
 30
0.0
  0
SPLINE
  5
1c1
100
AcDbEntity
  8
Layer_1
 62
7
100
AcDbSpline
 70
8
 71
3
 72
8
 73
4
 74
0
 40
0
 40
0
 40
0
 40
0
 40
1
 40
1
 40
1
 40
1
 10
7.975073
 20
5.731925
 30
0.0
 10
7.941795
 20
5.769639
 30
0.0
 10
7.892989
 20
5.877235
 30
0.0
 10
7.900753
 20
5.899420
 30
0.0
  0
SPLINE
  5
1c2
100
AcDbEntity
  8
Layer_1
 62
7
100
AcDbSpline
 70
8
 71
3
 72
8
 73
4
 74
0
 40
0
 40
0
 40
0
 40
0
 40
1
 40
1
 40
1
 40
1
 10
7.900753
 20
5.899420
 30
0.0
 10
7.905190
 20
5.913840
 30
0.0
 10
7.901863
 20
5.917168
 30
0.0
 10
7.890770
 20
5.912731
 30
0.0
  0
SPLINE
  5
1c3
100
AcDbEntity
  8
Layer_1
 62
7
100
AcDbSpline
 70
8
 71
3
 72
8
 73
4
 74
0
 40
0
 40
0
 40
0
 40
0
 40
1
 40
1
 40
1
 40
1
 10
7.890770
 20
5.912731
 30
0.0
 10
7.879678
 20
5.909403
 30
0.0
 10
7.870804
 20
5.918277
 30
0.0
 10
7.863039
 20
5.938243
 30
0.0
  0
SPLINE
  5
1c4
100
AcDbEntity
  8
Layer_1
 62
7
100
AcDbSpline
 70
8
 71
3
 72
8
 73
4
 74
0
 40
0
 40
0
 40
0
 40
0
 40
1
 40
1
 40
1
 40
1
 10
7.863039
 20
5.938243
 30
0.0
 10
7.857493
 20
5.954882
 30
0.0
 10
7.848619
 20
5.979285
 30
0.0
 10
7.843073
 20
5.990378
 30
0.0
  0
SPLINE
  5
1c5
100
AcDbEntity
  8
Layer_1
 62
7
100
AcDbSpline
 70
8
 71
3
 72
8
 73
4
 74
0
 40
0
 40
0
 40
0
 40
0
 40
1
 40
1
 40
1
 40
1
 10
7.843073
 20
5.990378
 30
0.0
 10
7.836418
 20
6.008126
 30
0.0
 10
7.838636
 20
6.010344
 30
0.0
 10
7.854165
 20
6.004798
 30
0.0
  0
SPLINE
  5
1c6
100
AcDbEntity
  8
Layer_1
 62
7
100
AcDbSpline
 70
8
 71
3
 72
8
 73
4
 74
0
 40
0
 40
0
 40
0
 40
0
 40
1
 40
1
 40
1
 40
1
 10
7.854165
 20
6.004798
 30
0.0
 10
7.869695
 20
5.998142
 30
0.0
 10
7.873022
 20
6.000361
 30
0.0
 10
7.866367
 20
6.015890
 30
0.0
  0
SPLINE
  5
1c7
100
AcDbEntity
  8
Layer_1
 62
7
100
AcDbSpline
 70
8
 71
3
 72
8
 73
4
 74
0
 40
0
 40
0
 40
0
 40
0
 40
1
 40
1
 40
1
 40
1
 10
7.866367
 20
6.015890
 30
0.0
 10
7.863039
 20
6.026983
 30
0.0
 10
7.854165
 20
6.060260
 30
0.0
 10
7.847510
 20
6.091319
 30
0.0
  0
SPLINE
  5
1c8
100
AcDbEntity
  8
Layer_1
 62
7
100
AcDbSpline
 70
8
 71
3
 72
8
 73
4
 74
0
 40
0
 40
0
 40
0
 40
0
 40
1
 40
1
 40
1
 40
1
 10
7.847510
 20
6.091319
 30
0.0
 10
7.841964
 20
6.121268
 30
0.0
 10
7.829762
 20
6.157873
 30
0.0
 10
7.820888
 20
6.171184
 30
0.0
  0
SPLINE
  5
1c9
100
AcDbEntity
  8
Layer_1
 62
7
100
AcDbSpline
 70
8
 71
3
 72
8
 73
4
 74
0
 40
0
 40
0
 40
0
 40
0
 40
1
 40
1
 40
1
 40
1
 10
7.820888
 20
6.171184
 30
0.0
 10
7.812014
 20
6.184495
 30
0.0
 10
7.805359
 20
6.204461
 30
0.0
 10
7.805359
 20
6.214444
 30
0.0
  0
SPLINE
  5
1ca
100
AcDbEntity
  8
Layer_1
 62
7
100
AcDbSpline
 70
8
 71
3
 72
8
 73
4
 74
0
 40
0
 40
0
 40
0
 40
0
 40
1
 40
1
 40
1
 40
1
 10
7.805359
 20
6.214444
 30
0.0
 10
7.805359
 20
6.224427
 30
0.0
 10
7.783174
 20
6.254377
 30
0.0
 10
7.755443
 20
6.282108
 30
0.0
  0
SPLINE
  5
1cb
100
AcDbEntity
  8
Layer_1
 62
7
100
AcDbSpline
 70
8
 71
3
 72
8
 73
4
 74
0
 40
0
 40
0
 40
0
 40
0
 40
1
 40
1
 40
1
 40
1
 10
7.755443
 20
6.282108
 30
0.0
 10
7.702199
 20
6.334242
 30
0.0
 10
7.694435
 20
6.364192
 30
0.0
 10
7.723275
 20
6.406343
 30
0.0
  0
SPLINE
  5
1cc
100
AcDbEntity
  8
Layer_1
 62
7
100
AcDbSpline
 70
8
 71
3
 72
8
 73
4
 74
0
 40
0
 40
0
 40
0
 40
0
 40
1
 40
1
 40
1
 40
1
 10
7.723275
 20
6.406343
 30
0.0
 10
7.742132
 20
6.431855
 30
0.0
 10
7.780956
 20
6.435183
 30
0.0
 10
7.829762
 20
6.414107
 30
0.0
  0
SPLINE
  5
1cd
100
AcDbEntity
  8
Layer_1
 62
7
100
AcDbSpline
 70
8
 71
3
 72
8
 73
4
 74
0
 40
0
 40
0
 40
0
 40
0
 40
1
 40
1
 40
1
 40
1
 10
7.829762
 20
6.414107
 30
0.0
 10
7.844182
 20
6.407452
 30
0.0
 10
7.851947
 20
6.411889
 30
0.0
 10
7.860821
 20
6.434074
 30
0.0
  0
SPLINE
  5
1ce
100
AcDbEntity
  8
Layer_1
 62
7
100
AcDbSpline
 70
8
 71
3
 72
8
 73
4
 74
0
 40
0
 40
0
 40
0
 40
0
 40
1
 40
1
 40
1
 40
1
 10
7.860821
 20
6.434074
 30
0.0
 10
7.867476
 20
6.454040
 30
0.0
 10
7.883006
 20
6.465132
 30
0.0
 10
7.904081
 20
6.469569
 30
0.0
  0
SPLINE
  5
1cf
100
AcDbEntity
  8
Layer_1
 62
7
100
AcDbSpline
 70
8
 71
3
 72
8
 73
4
 74
0
 40
0
 40
0
 40
0
 40
0
 40
1
 40
1
 40
1
 40
1
 10
7.904081
 20
6.469569
 30
0.0
 10
7.921829
 20
6.472897
 30
0.0
 10
7.959543
 20
6.496191
 30
0.0
 10
7.988383
 20
6.519485
 30
0.0
  0
SPLINE
  5
1d0
100
AcDbEntity
  8
Layer_1
 62
7
100
AcDbSpline
 70
8
 71
3
 72
8
 73
4
 74
0
 40
0
 40
0
 40
0
 40
0
 40
1
 40
1
 40
1
 40
1
 10
7.988383
 20
6.519485
 30
0.0
 10
8.017224
 20
6.542779
 30
0.0
 10
8.044955
 20
6.562746
 30
0.0
 10
8.050501
 20
6.562746
 30
0.0
  0
SPLINE
  5
1d1
100
AcDbEntity
  8
Layer_1
 62
7
100
AcDbSpline
 70
8
 71
3
 72
8
 73
4
 74
0
 40
0
 40
0
 40
0
 40
0
 40
1
 40
1
 40
1
 40
1
 10
8.050501
 20
6.562746
 30
0.0
 10
8.056047
 20
6.562746
 30
0.0
 10
8.060484
 20
6.569401
 30
0.0
 10
8.060484
 20
6.578275
 30
0.0
  0
SPLINE
  5
1d2
100
AcDbEntity
  8
Layer_1
 62
7
100
AcDbSpline
 70
8
 71
3
 72
8
 73
4
 74
0
 40
0
 40
0
 40
0
 40
0
 40
1
 40
1
 40
1
 40
1
 10
8.060484
 20
6.578275
 30
0.0
 10
8.060484
 20
6.600460
 30
0.0
 10
8.154769
 20
6.680325
 30
0.0
 10
8.189156
 20
6.689199
 30
0.0
  0
SPLINE
  5
1d3
100
AcDbEntity
  8
Layer_1
 62
7
100
AcDbSpline
 70
8
 71
3
 72
8
 73
4
 74
0
 40
0
 40
0
 40
0
 40
0
 40
1
 40
1
 40
1
 40
1
 10
8.189156
 20
6.689199
 30
0.0
 10
8.210231
 20
6.694745
 30
0.0
 10
8.230198
 20
6.689199
 30
0.0
 10
8.261256
 20
6.668123
 30
0.0
  0
SPLINE
  5
1d4
100
AcDbEntity
  8
Layer_1
 62
7
100
AcDbSpline
 70
8
 71
3
 72
8
 73
4
 74
0
 40
0
 40
0
 40
0
 40
0
 40
1
 40
1
 40
1
 40
1
 10
8.261256
 20
6.668123
 30
0.0
 10
8.335576
 20
6.619317
 30
0.0
 10
8.488651
 20
6.602678
 30
0.0
 10
8.576281
 20
6.634846
 30
0.0
  0
SPLINE
  5
1d5
100
AcDbEntity
  8
Layer_1
 62
7
100
AcDbSpline
 70
8
 71
3
 72
8
 73
4
 74
0
 40
0
 40
0
 40
0
 40
0
 40
1
 40
1
 40
1
 40
1
 10
8.576281
 20
6.634846
 30
0.0
 10
8.638398
 20
6.657031
 30
0.0
 10
8.681658
 20
6.655922
 30
0.0
 10
8.681658
 20
6.632628
 30
0.0
  0
SPLINE
  5
1d6
100
AcDbEntity
  8
Layer_1
 62
7
100
AcDbSpline
 70
8
 71
3
 72
8
 73
4
 74
0
 40
0
 40
0
 40
0
 40
0
 40
1
 40
1
 40
1
 40
1
 10
8.681658
 20
6.632628
 30
0.0
 10
8.681658
 20
6.617098
 30
0.0
 10
8.683877
 20
6.615989
 30
0.0
 10
8.701625
 20
6.631518
 30
0.0
  0
SPLINE
  5
1d7
100
AcDbEntity
  8
Layer_1
 62
7
100
AcDbSpline
 70
8
 71
3
 72
8
 73
4
 74
0
 40
0
 40
0
 40
0
 40
0
 40
1
 40
1
 40
1
 40
1
 10
8.701625
 20
6.631518
 30
0.0
 10
8.764851
 20
6.688090
 30
0.0
 10
8.919036
 20
6.720258
 30
0.0
 10
8.976716
 20
6.690308
 30
0.0
  0
SPLINE
  5
1d8
100
AcDbEntity
  8
Layer_1
 62
7
100
AcDbSpline
 70
8
 71
3
 72
8
 73
4
 74
0
 40
0
 40
0
 40
0
 40
0
 40
1
 40
1
 40
1
 40
1
 10
8.976716
 20
6.690308
 30
0.0
 10
8.994464
 20
6.681434
 30
0.0
 10
9.019977
 20
6.673670
 30
0.0
 10
9.033287
 20
6.673670
 30
0.0
  0
SPLINE
  5
1d9
100
AcDbEntity
  8
Layer_1
 62
7
100
AcDbSpline
 70
8
 71
3
 72
8
 73
4
 74
0
 40
0
 40
0
 40
0
 40
0
 40
1
 40
1
 40
1
 40
1
 10
9.033287
 20
6.673670
 30
0.0
 10
9.047708
 20
6.673670
 30
0.0
 10
9.084313
 20
6.663686
 30
0.0
 10
9.116480
 20
6.650376
 30
0.0
  0
SPLINE
  5
1da
100
AcDbEntity
  8
Layer_1
 62
7
100
AcDbSpline
 70
8
 71
3
 72
8
 73
4
 74
0
 40
0
 40
0
 40
0
 40
0
 40
1
 40
1
 40
1
 40
1
 10
9.116480
 20
6.650376
 30
0.0
 10
9.148648
 20
6.637065
 30
0.0
 10
9.211875
 20
6.612661
 30
0.0
 10
9.257354
 20
6.594914
 30
0.0
  0
SPLINE
  5
1db
100
AcDbEntity
  8
Layer_1
 62
7
100
AcDbSpline
 70
8
 71
3
 72
8
 73
4
 74
0
 40
0
 40
0
 40
0
 40
0
 40
1
 40
1
 40
1
 40
1
 10
9.257354
 20
6.594914
 30
0.0
 10
9.409320
 20
6.536124
 30
0.0
 10
9.443706
 20
6.477334
 30
0.0
 10
9.486967
 20
6.204461
 30
0.0
  0
SPLINE
  5
1dc
100
AcDbEntity
  8
Layer_1
 62
7
100
AcDbSpline
 70
8
 71
3
 72
8
 73
4
 74
0
 40
0
 40
0
 40
0
 40
0
 40
1
 40
1
 40
1
 40
1
 10
9.486967
 20
6.204461
 30
0.0
 10
9.522462
 20
5.977067
 30
0.0
 10
9.520244
 20
5.931588
 30
0.0
 10
9.460345
 20
5.801807
 30
0.0
  0
SPLINE
  5
1dd
100
AcDbEntity
  8
Layer_1
 62
7
100
AcDbSpline
 70
8
 71
3
 72
8
 73
4
 74
0
 40
0
 40
0
 40
0
 40
0
 40
1
 40
1
 40
1
 40
1
 10
9.460345
 20
5.801807
 30
0.0
 10
9.417085
 20
5.708631
 30
0.0
 10
9.403774
 20
5.655387
 30
0.0
 10
9.420412
 20
5.639858
 30
0.0
  0
SPLINE
  5
1de
100
AcDbEntity
  8
Layer_1
 62
7
100
AcDbSpline
 70
8
 71
3
 72
8
 73
4
 74
0
 40
0
 40
0
 40
0
 40
0
 40
1
 40
1
 40
1
 40
1
 10
9.420412
 20
5.639858
 30
0.0
 10
9.431505
 20
5.628766
 30
0.0
 10
9.557958
 20
5.676463
 30
0.0
 10
9.557958
 20
5.691992
 30
0.0
  0
SPLINE
  5
1df
100
AcDbEntity
  8
Layer_1
 62
7
100
AcDbSpline
 70
8
 71
3
 72
8
 73
4
 74
0
 40
0
 40
0
 40
0
 40
0
 40
1
 40
1
 40
1
 40
1
 10
9.557958
 20
5.691992
 30
0.0
 10
9.557958
 20
5.699757
 30
0.0
 10
9.570160
 20
5.721942
 30
0.0
 10
9.585689
 20
5.739690
 30
0.0
  0
SPLINE
  5
1e0
100
AcDbEntity
  8
Layer_1
 62
7
100
AcDbSpline
 70
8
 71
3
 72
8
 73
4
 74
0
 40
0
 40
0
 40
0
 40
0
 40
1
 40
1
 40
1
 40
1
 10
9.585689
 20
5.739690
 30
0.0
 10
9.601218
 20
5.758547
 30
0.0
 10
9.613420
 20
5.776294
 30
0.0
 10
9.613420
 20
5.780731
 30
0.0
  0
SPLINE
  5
1e1
100
AcDbEntity
  8
Layer_1
 62
7
100
AcDbSpline
 70
8
 71
3
 72
8
 73
4
 74
0
 40
0
 40
0
 40
0
 40
0
 40
1
 40
1
 40
1
 40
1
 10
9.613420
 20
5.780731
 30
0.0
 10
9.613420
 20
5.785168
 30
0.0
 10
9.628949
 20
5.806244
 30
0.0
 10
9.646697
 20
5.827319
 30
0.0
  0
SPLINE
  5
1e2
100
AcDbEntity
  8
Layer_1
 62
7
100
AcDbSpline
 70
8
 71
3
 72
8
 73
4
 74
0
 40
0
 40
0
 40
0
 40
0
 40
1
 40
1
 40
1
 40
1
 10
9.646697
 20
5.827319
 30
0.0
 10
9.671100
 20
5.853941
 30
0.0
 10
9.679974
 20
5.876126
 30
0.0
 10
9.679974
 20
5.906076
 30
0.0
  0
SPLINE
  5
1e3
100
AcDbEntity
  8
Layer_1
 62
7
100
AcDbSpline
 70
8
 71
3
 72
8
 73
4
 74
0
 40
0
 40
0
 40
0
 40
0
 40
1
 40
1
 40
1
 40
1
 10
9.679974
 20
5.906076
 30
0.0
 10
9.679974
 20
5.929370
 30
0.0
 10
9.687739
 20
5.958210
 30
0.0
 10
9.696613
 20
5.971521
 30
0.0
  0
SPLINE
  5
1e4
100
AcDbEntity
  8
Layer_1
 62
7
100
AcDbSpline
 70
8
 71
3
 72
8
 73
4
 74
0
 40
0
 40
0
 40
0
 40
0
 40
1
 40
1
 40
1
 40
1
 10
9.696613
 20
5.971521
 30
0.0
 10
9.727672
 20
6.015890
 30
0.0
 10
9.748747
 20
6.200024
 30
0.0
 10
9.740983
 20
6.358645
 30
0.0
  0
SPLINE
  5
1e5
100
AcDbEntity
  8
Layer_1
 62
7
100
AcDbSpline
 70
8
 71
3
 72
8
 73
4
 74
0
 40
0
 40
0
 40
0
 40
0
 40
1
 40
1
 40
1
 40
1
 10
9.740983
 20
6.358645
 30
0.0
 10
9.734327
 20
6.486208
 30
0.0
 10
9.735436
 20
6.505065
 30
0.0
 10
9.752075
 20
6.521704
 30
0.0
  0
SPLINE
  5
1e6
100
AcDbEntity
  8
Layer_1
 62
7
100
AcDbSpline
 70
8
 71
3
 72
8
 73
4
 74
0
 40
0
 40
0
 40
0
 40
0
 40
1
 40
1
 40
1
 40
1
 10
9.752075
 20
6.521704
 30
0.0
 10
9.777588
 20
6.548325
 30
0.0
 10
9.793117
 20
6.544998
 30
0.0
 10
9.829722
 20
6.507284
 30
0.0
  0
SPLINE
  5
1e7
100
AcDbEntity
  8
Layer_1
 62
7
100
AcDbSpline
 70
8
 71
3
 72
8
 73
4
 74
0
 40
0
 40
0
 40
0
 40
0
 40
1
 40
1
 40
1
 40
1
 10
9.829722
 20
6.507284
 30
0.0
 10
9.847470
 20
6.488427
 30
0.0
 10
9.870764
 20
6.474006
 30
0.0
 10
9.881856
 20
6.474006
 30
0.0
  0
SPLINE
  5
1e8
100
AcDbEntity
  8
Layer_1
 62
7
100
AcDbSpline
 70
8
 71
3
 72
8
 73
4
 74
0
 40
0
 40
0
 40
0
 40
0
 40
1
 40
1
 40
1
 40
1
 10
9.881856
 20
6.474006
 30
0.0
 10
9.919570
 20
6.474006
 30
0.0
 10
9.991671
 20
6.428528
 30
0.0
 10
10.013856
 20
6.390813
 30
0.0
  0
SPLINE
  5
1e9
100
AcDbEntity
  8
Layer_1
 62
7
100
AcDbSpline
 70
8
 71
3
 72
8
 73
4
 74
0
 40
0
 40
0
 40
0
 40
0
 40
1
 40
1
 40
1
 40
1
 10
10.013856
 20
6.390813
 30
0.0
 10
10.026057
 20
6.369738
 30
0.0
 10
10.053788
 20
6.343116
 30
0.0
 10
10.074864
 20
6.330914
 30
0.0
  0
SPLINE
  5
1ea
100
AcDbEntity
  8
Layer_1
 62
7
100
AcDbSpline
 70
8
 71
3
 72
8
 73
4
 74
0
 40
0
 40
0
 40
0
 40
0
 40
1
 40
1
 40
1
 40
1
 10
10.074864
 20
6.330914
 30
0.0
 10
10.099267
 20
6.316494
 30
0.0
 10
10.120343
 20
6.290982
 30
0.0
 10
10.134763
 20
6.258814
 30
0.0
  0
SPLINE
  5
1eb
100
AcDbEntity
  8
Layer_1
 62
7
100
AcDbSpline
 70
8
 71
3
 72
8
 73
4
 74
0
 40
0
 40
0
 40
0
 40
0
 40
1
 40
1
 40
1
 40
1
 10
10.134763
 20
6.258814
 30
0.0
 10
10.146964
 20
6.229974
 30
0.0
 10
10.164712
 20
6.206680
 30
0.0
 10
10.179132
 20
6.202243
 30
0.0
  0
SPLINE
  5
1ec
100
AcDbEntity
  8
Layer_1
 62
7
100
AcDbSpline
 70
8
 71
3
 72
8
 73
4
 74
0
 40
0
 40
0
 40
0
 40
0
 40
1
 40
1
 40
1
 40
1
 10
10.179132
 20
6.202243
 30
0.0
 10
10.191334
 20
6.197806
 30
0.0
 10
10.241250
 20
6.165638
 30
0.0
 10
10.287838
 20
6.131251
 30
0.0
  0
SPLINE
  5
1ed
100
AcDbEntity
  8
Layer_1
 62
7
100
AcDbSpline
 70
8
 71
3
 72
8
 73
4
 74
0
 40
0
 40
0
 40
0
 40
0
 40
1
 40
1
 40
1
 40
1
 10
10.287838
 20
6.131251
 30
0.0
 10
10.334426
 20
6.095756
 30
0.0
 10
10.394325
 20
6.055823
 30
0.0
 10
10.418728
 20
6.043621
 30
0.0
  0
SPLINE
  5
1ee
100
AcDbEntity
  8
Layer_1
 62
7
100
AcDbSpline
 70
8
 71
3
 72
8
 73
4
 74
0
 40
0
 40
0
 40
0
 40
0
 40
1
 40
1
 40
1
 40
1
 10
10.418728
 20
6.043621
 30
0.0
 10
10.467535
 20
6.019218
 30
0.0
 10
10.613954
 20
5.906076
 30
0.0
 10
10.649450
 20
5.866143
 30
0.0
  0
SPLINE
  5
1ef
100
AcDbEntity
  8
Layer_1
 62
7
100
AcDbSpline
 70
8
 71
3
 72
8
 73
4
 74
0
 40
0
 40
0
 40
0
 40
0
 40
1
 40
1
 40
1
 40
1
 10
10.649450
 20
5.866143
 30
0.0
 10
10.663870
 20
5.849504
 30
0.0
 10
10.667198
 20
5.833975
 30
0.0
 10
10.662761
 20
5.814009
 30
0.0
  0
SPLINE
  5
1f0
100
AcDbEntity
  8
Layer_1
 62
7
100
AcDbSpline
 70
8
 71
3
 72
8
 73
4
 74
0
 40
0
 40
0
 40
0
 40
0
 40
1
 40
1
 40
1
 40
1
 10
10.662761
 20
5.814009
 30
0.0
 10
10.657215
 20
5.794042
 30
0.0
 10
10.659433
 20
5.785168
 30
0.0
 10
10.669416
 20
5.787387
 30
0.0
  0
SPLINE
  5
1f1
100
AcDbEntity
  8
Layer_1
 62
7
100
AcDbSpline
 70
8
 71
3
 72
8
 73
4
 74
0
 40
0
 40
0
 40
0
 40
0
 40
1
 40
1
 40
1
 40
1
 10
10.669416
 20
5.787387
 30
0.0
 10
10.677181
 20
5.788496
 30
0.0
 10
10.689383
 20
5.788496
 30
0.0
 10
10.697147
 20
5.787387
 30
0.0
  0
SPLINE
  5
1f2
100
AcDbEntity
  8
Layer_1
 62
7
100
AcDbSpline
 70
8
 71
3
 72
8
 73
4
 74
0
 40
0
 40
0
 40
0
 40
0
 40
1
 40
1
 40
1
 40
1
 10
10.697147
 20
5.787387
 30
0.0
 10
10.720442
 20
5.785168
 30
0.0
 10
10.784777
 20
5.713068
 30
0.0
 10
10.839130
 20
5.629875
 30
0.0
  0
SPLINE
  5
1f3
100
AcDbEntity
  8
Layer_1
 62
7
100
AcDbSpline
 70
8
 71
3
 72
8
 73
4
 74
0
 40
0
 40
0
 40
0
 40
0
 40
1
 40
1
 40
1
 40
1
 10
10.839130
 20
5.629875
 30
0.0
 10
10.905685
 20
5.527825
 30
0.0
 10
10.985550
 20
5.433539
 30
0.0
 10
11.025483
 20
5.413573
 30
0.0
  0
SPLINE
  5
1f4
100
AcDbEntity
  8
Layer_1
 62
7
100
AcDbSpline
 70
8
 71
3
 72
8
 73
4
 74
0
 40
0
 40
0
 40
0
 40
0
 40
1
 40
1
 40
1
 40
1
 10
11.025483
 20
5.413573
 30
0.0
 10
11.042121
 20
5.404699
 30
0.0
 10
11.055432
 20
5.390279
 30
0.0
 10
11.055432
 20
5.381405
 30
0.0
  0
SPLINE
  5
1f5
100
AcDbEntity
  8
Layer_1
 62
7
100
AcDbSpline
 70
8
 71
3
 72
8
 73
4
 74
0
 40
0
 40
0
 40
0
 40
0
 40
1
 40
1
 40
1
 40
1
 10
11.055432
 20
5.381405
 30
0.0
 10
11.055432
 20
5.372531
 30
0.0
 10
11.068743
 20
5.353674
 30
0.0
 10
11.084272
 20
5.340363
 30
0.0
  0
SPLINE
  5
1f6
100
AcDbEntity
  8
Layer_1
 62
7
100
AcDbSpline
 70
8
 71
3
 72
8
 73
4
 74
0
 40
0
 40
0
 40
0
 40
0
 40
1
 40
1
 40
1
 40
1
 10
11.084272
 20
5.340363
 30
0.0
 10
11.099802
 20
5.325943
 30
0.0
 10
11.154154
 20
5.264935
 30
0.0
 10
11.206289
 20
5.202817
 30
0.0
  0
SPLINE
  5
1f7
100
AcDbEntity
  8
Layer_1
 62
7
100
AcDbSpline
 70
8
 71
3
 72
8
 73
4
 74
0
 40
0
 40
0
 40
0
 40
0
 40
1
 40
1
 40
1
 40
1
 10
11.206289
 20
5.202817
 30
0.0
 10
11.302793
 20
5.087456
 30
0.0
 10
11.332742
 20
5.065272
 30
0.0
 10
11.389313
 20
5.065272
 30
0.0
  0
SPLINE
  5
1f8
100
AcDbEntity
  8
Layer_1
 62
7
100
AcDbSpline
 70
8
 71
3
 72
8
 73
4
 74
0
 40
0
 40
0
 40
0
 40
0
 40
1
 40
1
 40
1
 40
1
 10
11.389313
 20
5.065272
 30
0.0
 10
11.425918
 20
5.065272
 30
0.0
 10
11.476943
 20
5.043087
 30
0.0
 10
11.498019
 20
5.016465
 30
0.0
  0
SPLINE
  5
1f9
100
AcDbEntity
  8
Layer_1
 62
7
100
AcDbSpline
 70
8
 71
3
 72
8
 73
4
 74
0
 40
0
 40
0
 40
0
 40
0
 40
1
 40
1
 40
1
 40
1
 10
11.498019
 20
5.016465
 30
0.0
 10
11.505783
 20
5.007591
 30
0.0
 10
11.533514
 20
4.988734
 30
0.0
 10
11.561245
 20
4.976532
 30
0.0
  0
SPLINE
  5
1fa
100
AcDbEntity
  8
Layer_1
 62
7
100
AcDbSpline
 70
8
 71
3
 72
8
 73
4
 74
0
 40
0
 40
0
 40
0
 40
0
 40
1
 40
1
 40
1
 40
1
 10
11.561245
 20
4.976532
 30
0.0
 10
11.621144
 20
4.946583
 30
0.0
 10
11.764236
 20
4.795726
 30
0.0
 10
11.773110
 20
4.752466
 30
0.0
  0
SPLINE
  5
1fb
100
AcDbEntity
  8
Layer_1
 62
7
100
AcDbSpline
 70
8
 71
3
 72
8
 73
4
 74
0
 40
0
 40
0
 40
0
 40
0
 40
1
 40
1
 40
1
 40
1
 10
11.773110
 20
4.752466
 30
0.0
 10
11.778656
 20
4.725844
 30
0.0
 10
11.784203
 20
4.721407
 30
0.0
 10
11.815261
 20
4.721407
 30
0.0
  0
SPLINE
  5
1fc
100
AcDbEntity
  8
Layer_1
 62
7
100
AcDbSpline
 70
8
 71
3
 72
8
 73
4
 74
0
 40
0
 40
0
 40
0
 40
0
 40
1
 40
1
 40
1
 40
1
 10
11.815261
 20
4.721407
 30
0.0
 10
11.835228
 20
4.721407
 30
0.0
 10
11.861849
 20
4.712533
 30
0.0
 10
11.875160
 20
4.701441
 30
0.0
  0
SPLINE
  5
1fd
100
AcDbEntity
  8
Layer_1
 62
7
100
AcDbSpline
 70
8
 71
3
 72
8
 73
4
 74
0
 40
0
 40
0
 40
0
 40
0
 40
1
 40
1
 40
1
 40
1
 10
11.875160
 20
4.701441
 30
0.0
 10
11.900673
 20
4.680365
 30
0.0
 10
11.980538
 20
4.539492
 30
0.0
 10
11.991631
 20
4.495122
 30
0.0
  0
SPLINE
  5
1fe
100
AcDbEntity
  8
Layer_1
 62
7
100
AcDbSpline
 70
8
 71
3
 72
8
 73
4
 74
0
 40
0
 40
0
 40
0
 40
0
 40
1
 40
1
 40
1
 40
1
 10
11.991631
 20
4.495122
 30
0.0
 10
11.994958
 20
4.479593
 30
0.0
 10
12.022689
 20
4.441879
 30
0.0
 10
12.052639
 20
4.411929
 30
0.0
  0
SPLINE
  5
1ff
100
AcDbEntity
  8
Layer_1
 62
7
100
AcDbSpline
 70
8
 71
3
 72
8
 73
4
 74
0
 40
0
 40
0
 40
0
 40
0
 40
1
 40
1
 40
1
 40
1
 10
12.052639
 20
4.411929
 30
0.0
 10
12.093681
 20
4.370887
 30
0.0
 10
12.129176
 20
4.313207
 30
0.0
 10
12.196840
 20
4.177880
 30
0.0
  0
SPLINE
  5
200
100
AcDbEntity
  8
Layer_1
 62
7
100
AcDbSpline
 70
8
 71
3
 72
8
 73
4
 74
0
 40
0
 40
0
 40
0
 40
0
 40
1
 40
1
 40
1
 40
1
 10
12.196840
 20
4.177880
 30
0.0
 10
12.245647
 20
4.079157
 30
0.0
 10
12.286688
 20
3.990418
 30
0.0
 10
12.286688
 20
3.981544
 30
0.0
  0
SPLINE
  5
201
100
AcDbEntity
  8
Layer_1
 62
7
100
AcDbSpline
 70
8
 71
3
 72
8
 73
4
 74
0
 40
0
 40
0
 40
0
 40
0
 40
1
 40
1
 40
1
 40
1
 10
12.286688
 20
3.981544
 30
0.0
 10
12.286688
 20
3.972670
 30
0.0
 10
12.301109
 20
3.947158
 30
0.0
 10
12.318856
 20
3.924973
 30
0.0
  0
SPLINE
  5
202
100
AcDbEntity
  8
Layer_1
 62
7
100
AcDbSpline
 70
8
 71
3
 72
8
 73
4
 74
0
 40
0
 40
0
 40
0
 40
0
 40
1
 40
1
 40
1
 40
1
 10
12.318856
 20
3.924973
 30
0.0
 10
12.335495
 20
3.902788
 30
0.0
 10
12.364335
 20
3.850654
 30
0.0
 10
12.380974
 20
3.809612
 30
0.0
  0
SPLINE
  5
203
100
AcDbEntity
  8
Layer_1
 62
7
100
AcDbSpline
 70
8
 71
3
 72
8
 73
4
 74
0
 40
0
 40
0
 40
0
 40
0
 40
1
 40
1
 40
1
 40
1
 10
12.380974
 20
3.809612
 30
0.0
 10
12.398722
 20
3.766352
 30
0.0
 10
12.439764
 20
3.700906
 30
0.0
 10
12.483024
 20
3.648772
 30
0.0
  0
SPLINE
  5
204
100
AcDbEntity
  8
Layer_1
 62
7
100
AcDbSpline
 70
8
 71
3
 72
8
 73
4
 74
0
 40
0
 40
0
 40
0
 40
0
 40
1
 40
1
 40
1
 40
1
 10
12.483024
 20
3.648772
 30
0.0
 10
12.529612
 20
3.592201
 30
0.0
 10
12.577309
 20
3.516773
 30
0.0
 10
12.620570
 20
3.426924
 30
0.0
  0
SPLINE
  5
205
100
AcDbEntity
  8
Layer_1
 62
7
100
AcDbSpline
 70
8
 71
3
 72
8
 73
4
 74
0
 40
0
 40
0
 40
0
 40
0
 40
1
 40
1
 40
1
 40
1
 10
12.620570
 20
3.426924
 30
0.0
 10
12.700435
 20
3.263866
 30
0.0
 10
12.708200
 20
3.253883
 30
0.0
 10
12.761443
 20
3.263866
 30
0.0
  0
SPLINE
  5
206
100
AcDbEntity
  8
Layer_1
 62
7
100
AcDbSpline
 70
8
 71
3
 72
8
 73
4
 74
0
 40
0
 40
0
 40
0
 40
0
 40
1
 40
1
 40
1
 40
1
 10
12.761443
 20
3.263866
 30
0.0
 10
12.827998
 20
3.276067
 30
0.0
 10
12.841308
 20
3.294925
 30
0.0
 10
12.841308
 20
3.380336
 30
0.0
  0
SPLINE
  5
207
100
AcDbEntity
  8
Layer_1
 62
7
100
AcDbSpline
 70
8
 71
3
 72
8
 73
4
 74
0
 40
0
 40
0
 40
0
 40
0
 40
1
 40
1
 40
1
 40
1
 10
12.841308
 20
3.380336
 30
0.0
 10
12.841308
 20
3.442453
 30
0.0
 10
12.836871
 20
3.460201
 30
0.0
 10
12.815796
 20
3.486823
 30
0.0
  0
SPLINE
  5
208
100
AcDbEntity
  8
Layer_1
 62
7
100
AcDbSpline
 70
8
 71
3
 72
8
 73
4
 74
0
 40
0
 40
0
 40
0
 40
0
 40
1
 40
1
 40
1
 40
1
 10
12.815796
 20
3.486823
 30
0.0
 10
12.762552
 20
3.550050
 30
0.0
 10
12.641645
 20
3.782990
 30
0.0
 10
12.641645
 20
3.820704
 30
0.0
  0
SPLINE
  5
209
100
AcDbEntity
  8
Layer_1
 62
7
100
AcDbSpline
 70
8
 71
3
 72
8
 73
4
 74
0
 40
0
 40
0
 40
0
 40
0
 40
1
 40
1
 40
1
 40
1
 10
12.641645
 20
3.820704
 30
0.0
 10
12.641645
 20
3.826251
 30
0.0
 10
12.618351
 20
3.870620
 30
0.0
 10
12.589511
 20
3.920536
 30
0.0
  0
SPLINE
  5
20a
100
AcDbEntity
  8
Layer_1
 62
7
100
AcDbSpline
 70
8
 71
3
 72
8
 73
4
 74
0
 40
0
 40
0
 40
0
 40
0
 40
1
 40
1
 40
1
 40
1
 10
12.589511
 20
3.920536
 30
0.0
 10
12.559561
 20
3.969342
 30
0.0
 10
12.519629
 20
4.039225
 30
0.0
 10
12.499662
 20
4.075830
 30
0.0
  0
SPLINE
  5
20b
100
AcDbEntity
  8
Layer_1
 62
7
100
AcDbSpline
 70
8
 71
3
 72
8
 73
4
 74
0
 40
0
 40
0
 40
0
 40
0
 40
1
 40
1
 40
1
 40
1
 10
12.499662
 20
4.075830
 30
0.0
 10
12.478587
 20
4.111325
 30
0.0
 10
12.435327
 20
4.172333
 30
0.0
 10
12.402049
 20
4.210048
 30
0.0
  0
SPLINE
  5
20c
100
AcDbEntity
  8
Layer_1
 62
7
100
AcDbSpline
 70
8
 71
3
 72
8
 73
4
 74
0
 40
0
 40
0
 40
0
 40
0
 40
1
 40
1
 40
1
 40
1
 10
12.402049
 20
4.210048
 30
0.0
 10
12.357680
 20
4.261073
 30
0.0
 10
12.339932
 20
4.291022
 30
0.0
 10
12.334386
 20
4.325409
 30
0.0
  0
SPLINE
  5
20d
100
AcDbEntity
  8
Layer_1
 62
7
100
AcDbSpline
 70
8
 71
3
 72
8
 73
4
 74
0
 40
0
 40
0
 40
0
 40
0
 40
1
 40
1
 40
1
 40
1
 10
12.334386
 20
4.325409
 30
0.0
 10
12.329949
 20
4.353140
 30
0.0
 10
12.316638
 20
4.380871
 30
0.0
 10
12.298890
 20
4.397509
 30
0.0
  0
SPLINE
  5
20e
100
AcDbEntity
  8
Layer_1
 62
7
100
AcDbSpline
 70
8
 71
3
 72
8
 73
4
 74
0
 40
0
 40
0
 40
0
 40
0
 40
1
 40
1
 40
1
 40
1
 10
12.298890
 20
4.397509
 30
0.0
 10
12.274487
 20
4.420803
 30
0.0
 10
12.272268
 20
4.425240
 30
0.0
 10
12.285579
 20
4.446316
 30
0.0
  0
SPLINE
  5
20f
100
AcDbEntity
  8
Layer_1
 62
7
100
AcDbSpline
 70
8
 71
3
 72
8
 73
4
 74
0
 40
0
 40
0
 40
0
 40
0
 40
1
 40
1
 40
1
 40
1
 10
12.285579
 20
4.446316
 30
0.0
 10
12.298890
 20
4.468500
 30
0.0
 10
12.296672
 20
4.474047
 30
0.0
 10
12.254520
 20
4.509542
 30
0.0
  0
SPLINE
  5
210
100
AcDbEntity
  8
Layer_1
 62
7
100
AcDbSpline
 70
8
 71
3
 72
8
 73
4
 74
0
 40
0
 40
0
 40
0
 40
0
 40
1
 40
1
 40
1
 40
1
 10
12.254520
 20
4.509542
 30
0.0
 10
12.210151
 20
4.548366
 30
0.0
 10
12.196840
 20
4.579424
 30
0.0
 10
12.220134
 20
4.593845
 30
0.0
  0
SPLINE
  5
211
100
AcDbEntity
  8
Layer_1
 62
7
100
AcDbSpline
 70
8
 71
3
 72
8
 73
4
 74
0
 40
0
 40
0
 40
0
 40
0
 40
1
 40
1
 40
1
 40
1
 10
12.220134
 20
4.593845
 30
0.0
 10
12.226789
 20
4.597172
 30
0.0
 10
12.231226
 20
4.610483
 30
0.0
 10
12.231226
 20
4.622685
 30
0.0
  0
SPLINE
  5
212
100
AcDbEntity
  8
Layer_1
 62
7
100
AcDbSpline
 70
8
 71
3
 72
8
 73
4
 74
0
 40
0
 40
0
 40
0
 40
0
 40
1
 40
1
 40
1
 40
1
 10
12.231226
 20
4.622685
 30
0.0
 10
12.231226
 20
4.638214
 30
0.0
 10
12.223462
 20
4.643760
 30
0.0
 10
12.203495
 20
4.643760
 30
0.0
  0
SPLINE
  5
213
100
AcDbEntity
  8
Layer_1
 62
7
100
AcDbSpline
 70
8
 71
3
 72
8
 73
4
 74
0
 40
0
 40
0
 40
0
 40
0
 40
1
 40
1
 40
1
 40
1
 10
12.203495
 20
4.643760
 30
0.0
 10
12.171327
 20
4.643760
 30
0.0
 10
12.094790
 20
4.709206
 30
0.0
 10
12.047093
 20
4.777978
 30
0.0
  0
SPLINE
  5
214
100
AcDbEntity
  8
Layer_1
 62
7
100
AcDbSpline
 70
8
 71
3
 72
8
 73
4
 74
0
 40
0
 40
0
 40
0
 40
0
 40
1
 40
1
 40
1
 40
1
 10
12.047093
 20
4.777978
 30
0.0
 10
12.017143
 20
4.822348
 30
0.0
 10
12.016034
 20
4.824567
 30
0.0
 10
12.037109
 20
4.838987
 30
0.0
  0
SPLINE
  5
215
100
AcDbEntity
  8
Layer_1
 62
7
100
AcDbSpline
 70
8
 71
3
 72
8
 73
4
 74
0
 40
0
 40
0
 40
0
 40
0
 40
1
 40
1
 40
1
 40
1
 10
12.037109
 20
4.838987
 30
0.0
 10
12.048202
 20
4.847861
 30
0.0
 10
12.064840
 20
4.854516
 30
0.0
 10
12.072605
 20
4.854516
 30
0.0
  0
SPLINE
  5
216
100
AcDbEntity
  8
Layer_1
 62
7
100
AcDbSpline
 70
8
 71
3
 72
8
 73
4
 74
0
 40
0
 40
0
 40
0
 40
0
 40
1
 40
1
 40
1
 40
1
 10
12.072605
 20
4.854516
 30
0.0
 10
12.093681
 20
4.854516
 30
0.0
 10
12.090353
 20
4.874482
 30
0.0
 10
12.067059
 20
4.886684
 30
0.0
  0
SPLINE
  5
217
100
AcDbEntity
  8
Layer_1
 62
7
100
AcDbSpline
 70
8
 71
3
 72
8
 73
4
 74
0
 40
0
 40
0
 40
0
 40
0
 40
1
 40
1
 40
1
 40
1
 10
12.067059
 20
4.886684
 30
0.0
 10
12.055966
 20
4.892230
 30
0.0
 10
12.019362
 20
4.901104
 30
0.0
 10
11.986084
 20
4.905541
 30
0.0
  0
SPLINE
  5
218
100
AcDbEntity
  8
Layer_1
 62
7
100
AcDbSpline
 70
8
 71
3
 72
8
 73
4
 74
0
 40
0
 40
0
 40
0
 40
0
 40
1
 40
1
 40
1
 40
1
 10
11.986084
 20
4.905541
 30
0.0
 10
11.952807
 20
4.909978
 30
0.0
 10
11.920639
 20
4.917743
 30
0.0
 10
11.912875
 20
4.923289
 30
0.0
  0
SPLINE
  5
219
100
AcDbEntity
  8
Layer_1
 62
7
100
AcDbSpline
 70
8
 71
3
 72
8
 73
4
 74
0
 40
0
 40
0
 40
0
 40
0
 40
1
 40
1
 40
1
 40
1
 10
11.912875
 20
4.923289
 30
0.0
 10
11.906219
 20
4.928835
 30
0.0
 10
11.886253
 20
4.967658
 30
0.0
 10
11.870723
 20
5.009810
 30
0.0
  0
SPLINE
  5
21a
100
AcDbEntity
  8
Layer_1
 62
7
100
AcDbSpline
 70
8
 71
3
 72
8
 73
4
 74
0
 40
0
 40
0
 40
0
 40
0
 40
1
 40
1
 40
1
 40
1
 10
11.870723
 20
5.009810
 30
0.0
 10
11.855194
 20
5.051961
 30
0.0
 10
11.834118
 20
5.091893
 30
0.0
 10
11.825245
 20
5.099658
 30
0.0
  0
SPLINE
  5
21b
100
AcDbEntity
  8
Layer_1
 62
7
100
AcDbSpline
 70
8
 71
3
 72
8
 73
4
 74
0
 40
0
 40
0
 40
0
 40
0
 40
1
 40
1
 40
1
 40
1
 10
11.825245
 20
5.099658
 30
0.0
 10
11.816371
 20
5.106313
 30
0.0
 10
11.801951
 20
5.139591
 30
0.0
 10
11.791967
 20
5.171759
 30
0.0
  0
SPLINE
  5
21c
100
AcDbEntity
  8
Layer_1
 62
7
100
AcDbSpline
 70
8
 71
3
 72
8
 73
4
 74
0
 40
0
 40
0
 40
0
 40
0
 40
1
 40
1
 40
1
 40
1
 10
11.791967
 20
5.171759
 30
0.0
 10
11.779766
 20
5.213910
 30
0.0
 10
11.765346
 20
5.238313
 30
0.0
 10
11.742052
 20
5.254952
 30
0.0
  0
SPLINE
  5
21d
100
AcDbEntity
  8
Layer_1
 62
7
100
AcDbSpline
 70
8
 71
3
 72
8
 73
4
 74
0
 40
0
 40
0
 40
0
 40
0
 40
1
 40
1
 40
1
 40
1
 10
11.742052
 20
5.254952
 30
0.0
 10
11.710993
 20
5.277136
 30
0.0
 10
11.709884
 20
5.281573
 30
0.0
 10
11.716539
 20
5.328161
 30
0.0
  0
LWPOLYLINE
  5
21e
100
AcDbEntity
  8
Layer_1
 62
7
100
AcDbPolyline
 90
5
 70
0
 10
5.812055
 20
6.225537
 30
0.0
 10
5.761029
 20
6.233301
 30
0.0
 10
5.797634
 20
6.200024
 30
0.0
 10
5.835349
 20
6.165638
 30
0.0
 10
5.797634
 20
6.142344
 30
0.0
  0
SPLINE
  5
21f
100
AcDbEntity
  8
Layer_1
 62
7
100
AcDbSpline
 70
8
 71
3
 72
8
 73
4
 74
0
 40
0
 40
0
 40
0
 40
0
 40
1
 40
1
 40
1
 40
1
 10
11.647766
 20
5.450178
 30
0.0
 10
11.605615
 20
5.490111
 30
0.0
 10
11.545716
 20
5.541136
 30
0.0
 10
11.514657
 20
5.564430
 30
0.0
  0
SPLINE
  5
220
100
AcDbEntity
  8
Layer_1
 62
7
100
AcDbSpline
 70
8
 71
3
 72
8
 73
4
 74
0
 40
0
 40
0
 40
0
 40
0
 40
1
 40
1
 40
1
 40
1
 10
11.514657
 20
5.564430
 30
0.0
 10
11.459195
 20
5.606581
 30
0.0
 10
11.366019
 20
5.704194
 30
0.0
 10
11.366019
 20
5.719723
 30
0.0
  0
SPLINE
  5
221
100
AcDbEntity
  8
Layer_1
 62
7
100
AcDbSpline
 70
8
 71
3
 72
8
 73
4
 74
0
 40
0
 40
0
 40
0
 40
0
 40
1
 40
1
 40
1
 40
1
 10
11.366019
 20
5.719723
 30
0.0
 10
11.366019
 20
5.725269
 30
0.0
 10
11.348271
 20
5.739690
 30
0.0
 10
11.326087
 20
5.751891
 30
0.0
  0
SPLINE
  5
222
100
AcDbEntity
  8
Layer_1
 62
7
100
AcDbSpline
 70
8
 71
3
 72
8
 73
4
 74
0
 40
0
 40
0
 40
0
 40
0
 40
1
 40
1
 40
1
 40
1
 10
11.326087
 20
5.751891
 30
0.0
 10
11.291700
 20
5.772967
 30
0.0
 10
11.287263
 20
5.779622
 30
0.0
 10
11.293919
 20
5.807353
 30
0.0
  0
SPLINE
  5
223
100
AcDbEntity
  8
Layer_1
 62
7
100
AcDbSpline
 70
8
 71
3
 72
8
 73
4
 74
0
 40
0
 40
0
 40
0
 40
0
 40
1
 40
1
 40
1
 40
1
 10
11.293919
 20
5.807353
 30
0.0
 10
11.300574
 20
5.839521
 30
0.0
 10
11.299465
 20
5.840630
 30
0.0
 10
11.236238
 20
5.852832
 30
0.0
  0
SPLINE
  5
224
100
AcDbEntity
  8
Layer_1
 62
7
100
AcDbSpline
 70
8
 71
3
 72
8
 73
4
 74
0
 40
0
 40
0
 40
0
 40
0
 40
1
 40
1
 40
1
 40
1
 10
11.236238
 20
5.852832
 30
0.0
 10
11.200742
 20
5.859487
 30
0.0
 10
11.163028
 20
5.868361
 30
0.0
 10
11.150827
 20
5.871689
 30
0.0
  0
SPLINE
  5
225
100
AcDbEntity
  8
Layer_1
 62
7
100
AcDbSpline
 70
8
 71
3
 72
8
 73
4
 74
0
 40
0
 40
0
 40
0
 40
0
 40
1
 40
1
 40
1
 40
1
 10
11.150827
 20
5.871689
 30
0.0
 10
11.119768
 20
5.880563
 30
0.0
 10
10.909012
 20
6.096865
 30
0.0
 10
10.883500
 20
6.146781
 30
0.0
  0
SPLINE
  5
226
100
AcDbEntity
  8
Layer_1
 62
7
100
AcDbSpline
 70
8
 71
3
 72
8
 73
4
 74
0
 40
0
 40
0
 40
0
 40
0
 40
1
 40
1
 40
1
 40
1
 10
10.883500
 20
6.146781
 30
0.0
 10
10.864643
 20
6.183386
 30
0.0
 10
10.853550
 20
6.192259
 30
0.0
 10
10.814727
 20
6.200024
 30
0.0
  0
SPLINE
  5
227
100
AcDbEntity
  8
Layer_1
 62
7
100
AcDbSpline
 70
8
 71
3
 72
8
 73
4
 74
0
 40
0
 40
0
 40
0
 40
0
 40
1
 40
1
 40
1
 40
1
 10
10.814727
 20
6.200024
 30
0.0
 10
10.778122
 20
6.206680
 30
0.0
 10
10.735971
 20
6.236629
 30
0.0
 10
10.607299
 20
6.347553
 30
0.0
  0
SPLINE
  5
228
100
AcDbEntity
  8
Layer_1
 62
7
100
AcDbSpline
 70
8
 71
3
 72
8
 73
4
 74
0
 40
0
 40
0
 40
0
 40
0
 40
1
 40
1
 40
1
 40
1
 10
10.607299
 20
6.347553
 30
0.0
 10
10.445350
 20
6.487317
 30
0.0
 10
10.385451
 20
6.549435
 30
0.0
 10
10.352174
 20
6.614880
 30
0.0
  0
SPLINE
  5
229
100
AcDbEntity
  8
Layer_1
 62
7
100
AcDbSpline
 70
8
 71
3
 72
8
 73
4
 74
0
 40
0
 40
0
 40
0
 40
0
 40
1
 40
1
 40
1
 40
1
 10
10.352174
 20
6.614880
 30
0.0
 10
10.343300
 20
6.633737
 30
0.0
 10
10.301149
 20
6.674779
 30
0.0
 10
10.258998
 20
6.705838
 30
0.0
  0
SPLINE
  5
22a
100
AcDbEntity
  8
Layer_1
 62
7
100
AcDbSpline
 70
8
 71
3
 72
8
 73
4
 74
0
 40
0
 40
0
 40
0
 40
0
 40
1
 40
1
 40
1
 40
1
 10
10.258998
 20
6.705838
 30
0.0
 10
10.174695
 20
6.769064
 30
0.0
 10
10.149183
 20
6.810106
 30
0.0
 10
10.140309
 20
6.898845
 30
0.0
  0
SPLINE
  5
22b
100
AcDbEntity
  8
Layer_1
 62
7
100
AcDbSpline
 70
8
 71
3
 72
8
 73
4
 74
0
 40
0
 40
0
 40
0
 40
0
 40
1
 40
1
 40
1
 40
1
 10
10.140309
 20
6.898845
 30
0.0
 10
10.132544
 20
6.973164
 30
0.0
 10
10.145855
 20
6.999786
 30
0.0
 10
10.222393
 20
7.051920
 30
0.0
  0
SPLINE
  5
22c
100
AcDbEntity
  8
Layer_1
 62
7
100
AcDbSpline
 70
8
 71
3
 72
8
 73
4
 74
0
 40
0
 40
0
 40
0
 40
0
 40
1
 40
1
 40
1
 40
1
 10
10.222393
 20
7.051920
 30
0.0
 10
10.255670
 20
7.075214
 30
0.0
 10
10.287838
 20
7.102945
 30
0.0
 10
10.293384
 20
7.114038
 30
0.0
  0
SPLINE
  5
22d
100
AcDbEntity
  8
Layer_1
 62
7
100
AcDbSpline
 70
8
 71
3
 72
8
 73
4
 74
0
 40
0
 40
0
 40
0
 40
0
 40
1
 40
1
 40
1
 40
1
 10
10.293384
 20
7.114038
 30
0.0
 10
10.300040
 20
7.125130
 30
0.0
 10
10.321115
 20
7.152861
 30
0.0
 10
10.342191
 20
7.176155
 30
0.0
  0
SPLINE
  5
22e
100
AcDbEntity
  8
Layer_1
 62
7
100
AcDbSpline
 70
8
 71
3
 72
8
 73
4
 74
0
 40
0
 40
0
 40
0
 40
0
 40
1
 40
1
 40
1
 40
1
 10
10.342191
 20
7.176155
 30
0.0
 10
10.362157
 20
7.198340
 30
0.0
 10
10.378796
 20
7.226071
 30
0.0
 10
10.378796
 20
7.237164
 30
0.0
  0
SPLINE
  5
22f
100
AcDbEntity
  8
Layer_1
 62
7
100
AcDbSpline
 70
8
 71
3
 72
8
 73
4
 74
0
 40
0
 40
0
 40
0
 40
0
 40
1
 40
1
 40
1
 40
1
 10
10.378796
 20
7.237164
 30
0.0
 10
10.378796
 20
7.249365
 30
0.0
 10
10.388779
 20
7.267113
 30
0.0
 10
10.400980
 20
7.278205
 30
0.0
  0
SPLINE
  5
230
100
AcDbEntity
  8
Layer_1
 62
7
100
AcDbSpline
 70
8
 71
3
 72
8
 73
4
 74
0
 40
0
 40
0
 40
0
 40
0
 40
1
 40
1
 40
1
 40
1
 10
10.400980
 20
7.278205
 30
0.0
 10
10.413182
 20
7.289298
 30
0.0
 10
10.423165
 20
7.307046
 30
0.0
 10
10.423165
 20
7.317029
 30
0.0
  0
SPLINE
  5
231
100
AcDbEntity
  8
Layer_1
 62
7
100
AcDbSpline
 70
8
 71
3
 72
8
 73
4
 74
0
 40
0
 40
0
 40
0
 40
0
 40
1
 40
1
 40
1
 40
1
 10
10.423165
 20
7.317029
 30
0.0
 10
10.423165
 20
7.327012
 30
0.0
 10
10.432039
 20
7.362508
 30
0.0
 10
10.444241
 20
7.395785
 30
0.0
  0
SPLINE
  5
232
100
AcDbEntity
  8
Layer_1
 62
7
100
AcDbSpline
 70
8
 71
3
 72
8
 73
4
 74
0
 40
0
 40
0
 40
0
 40
0
 40
1
 40
1
 40
1
 40
1
 10
10.444241
 20
7.395785
 30
0.0
 10
10.455333
 20
7.429062
 30
0.0
 10
10.468644
 20
7.496726
 30
0.0
 10
10.473081
 20
7.545532
 30
0.0
  0
SPLINE
  5
233
100
AcDbEntity
  8
Layer_1
 62
7
100
AcDbSpline
 70
8
 71
3
 72
8
 73
4
 74
0
 40
0
 40
0
 40
0
 40
0
 40
1
 40
1
 40
1
 40
1
 10
10.473081
 20
7.545532
 30
0.0
 10
10.479736
 20
7.623179
 30
0.0
 10
10.476409
 20
7.650910
 30
0.0
 10
10.445350
 20
7.777363
 30
0.0
  0
SPLINE
  5
234
100
AcDbEntity
  8
Layer_1
 62
7
100
AcDbSpline
 70
8
 71
3
 72
8
 73
4
 74
0
 40
0
 40
0
 40
0
 40
0
 40
1
 40
1
 40
1
 40
1
 10
10.445350
 20
7.777363
 30
0.0
 10
10.407636
 20
7.930439
 30
0.0
 10
10.371031
 20
8.012522
 30
0.0
 10
10.322224
 20
8.053564
 30
0.0
  0
SPLINE
  5
235
100
AcDbEntity
  8
Layer_1
 62
7
100
AcDbSpline
 70
8
 71
3
 72
8
 73
4
 74
0
 40
0
 40
0
 40
0
 40
0
 40
1
 40
1
 40
1
 40
1
 10
10.322224
 20
8.053564
 30
0.0
 10
10.286729
 20
8.083514
 30
0.0
 10
10.092612
 20
8.148959
 30
0.0
 10
10.039368
 20
8.148959
 30
0.0
  0
SPLINE
  5
236
100
AcDbEntity
  8
Layer_1
 62
7
100
AcDbSpline
 70
8
 71
3
 72
8
 73
4
 74
0
 40
0
 40
0
 40
0
 40
0
 40
1
 40
1
 40
1
 40
1
 10
10.039368
 20
8.148959
 30
0.0
 10
9.961721
 20
8.148959
 30
0.0
 10
9.922898
 20
8.188891
 30
0.0
 10
9.939537
 20
8.254337
 30
0.0
  0
SPLINE
  5
237
100
AcDbEntity
  8
Layer_1
 62
7
100
AcDbSpline
 70
8
 71
3
 72
8
 73
4
 74
0
 40
0
 40
0
 40
0
 40
0
 40
1
 40
1
 40
1
 40
1
 10
9.939537
 20
8.254337
 30
0.0
 10
9.943974
 20
8.273194
 30
0.0
 10
9.962831
 20
8.288723
 30
0.0
 10
9.999436
 20
8.304252
 30
0.0
  0
SPLINE
  5
238
100
AcDbEntity
  8
Layer_1
 62
7
100
AcDbSpline
 70
8
 71
3
 72
8
 73
4
 74
0
 40
0
 40
0
 40
0
 40
0
 40
1
 40
1
 40
1
 40
1
 10
9.999436
 20
8.304252
 30
0.0
 10
10.065990
 20
8.334202
 30
0.0
 10
10.203536
 20
8.418504
 30
0.0
 10
10.265653
 20
8.468420
 30
0.0
  0
SPLINE
  5
239
100
AcDbEntity
  8
Layer_1
 62
7
100
AcDbSpline
 70
8
 71
3
 72
8
 73
4
 74
0
 40
0
 40
0
 40
0
 40
0
 40
1
 40
1
 40
1
 40
1
 10
10.265653
 20
8.468420
 30
0.0
 10
10.291166
 20
8.488386
 30
0.0
 10
10.341081
 20
8.540521
 30
0.0
 10
10.374359
 20
8.581562
 30
0.0
  0
SPLINE
  5
23a
100
AcDbEntity
  8
Layer_1
 62
7
100
AcDbSpline
 70
8
 71
3
 72
8
 73
4
 74
0
 40
0
 40
0
 40
0
 40
0
 40
1
 40
1
 40
1
 40
1
 10
10.374359
 20
8.581562
 30
0.0
 10
10.407636
 20
8.623714
 30
0.0
 10
10.453115
 20
8.668083
 30
0.0
 10
10.474190
 20
8.680285
 30
0.0
  0
SPLINE
  5
23b
100
AcDbEntity
  8
Layer_1
 62
7
100
AcDbSpline
 70
8
 71
3
 72
8
 73
4
 74
0
 40
0
 40
0
 40
0
 40
0
 40
1
 40
1
 40
1
 40
1
 10
10.474190
 20
8.680285
 30
0.0
 10
10.506358
 20
8.699142
 30
0.0
 10
10.511904
 20
8.709125
 30
0.0
 10
10.511904
 20
8.742402
 30
0.0
  0
SPLINE
  5
23c
100
AcDbEntity
  8
Layer_1
 62
7
100
AcDbSpline
 70
8
 71
3
 72
8
 73
4
 74
0
 40
0
 40
0
 40
0
 40
0
 40
1
 40
1
 40
1
 40
1
 10
10.511904
 20
8.742402
 30
0.0
 10
10.511904
 20
8.779007
 30
0.0
 10
10.514123
 20
8.782335
 30
0.0
 10
10.537417
 20
8.775679
 30
0.0
  0
SPLINE
  5
23d
100
AcDbEntity
  8
Layer_1
 62
7
100
AcDbSpline
 70
8
 71
3
 72
8
 73
4
 74
0
 40
0
 40
0
 40
0
 40
0
 40
1
 40
1
 40
1
 40
1
 10
10.537417
 20
8.775679
 30
0.0
 10
10.580677
 20
8.762369
 30
0.0
 10
10.584005
 20
8.763478
 30
0.0
 10
10.584005
 20
8.802301
 30
0.0
  0
SPLINE
  5
23e
100
AcDbEntity
  8
Layer_1
 62
7
100
AcDbSpline
 70
8
 71
3
 72
8
 73
4
 74
0
 40
0
 40
0
 40
0
 40
0
 40
1
 40
1
 40
1
 40
1
 10
10.584005
 20
8.802301
 30
0.0
 10
10.584005
 20
8.834469
 30
0.0
 10
10.589551
 20
8.842234
 30
0.0
 10
10.617282
 20
8.852217
 30
0.0
  0
SPLINE
  5
23f
100
AcDbEntity
  8
Layer_1
 62
7
100
AcDbSpline
 70
8
 71
3
 72
8
 73
4
 74
0
 40
0
 40
0
 40
0
 40
0
 40
1
 40
1
 40
1
 40
1
 10
10.617282
 20
8.852217
 30
0.0
 10
10.656106
 20
8.866637
 30
0.0
 10
10.722660
 20
8.924318
 30
0.0
 10
10.722660
 20
8.944284
 30
0.0
  0
SPLINE
  5
240
100
AcDbEntity
  8
Layer_1
 62
7
100
AcDbSpline
 70
8
 71
3
 72
8
 73
4
 74
0
 40
0
 40
0
 40
0
 40
0
 40
1
 40
1
 40
1
 40
1
 10
10.722660
 20
8.944284
 30
0.0
 10
10.722660
 20
8.963141
 30
0.0
 10
10.763702
 20
8.987544
 30
0.0
 10
10.811399
 20
8.997527
 30
0.0
  0
SPLINE
  5
241
100
AcDbEntity
  8
Layer_1
 62
7
100
AcDbSpline
 70
8
 71
3
 72
8
 73
4
 74
0
 40
0
 40
0
 40
0
 40
0
 40
1
 40
1
 40
1
 40
1
 10
10.811399
 20
8.997527
 30
0.0
 10
10.832475
 20
9.001964
 30
0.0
 10
10.853550
 20
9.010838
 30
0.0
 10
10.856878
 20
9.017494
 30
0.0
  0
SPLINE
  5
242
100
AcDbEntity
  8
Layer_1
 62
7
100
AcDbSpline
 70
8
 71
3
 72
8
 73
4
 74
0
 40
0
 40
0
 40
0
 40
0
 40
1
 40
1
 40
1
 40
1
 10
10.856878
 20
9.017494
 30
0.0
 10
10.867970
 20
9.034132
 30
0.0
 10
10.971130
 20
9.040788
 30
0.0
 10
10.997752
 20
9.026368
 30
0.0
  0
SPLINE
  5
243
100
AcDbEntity
  8
Layer_1
 62
7
100
AcDbSpline
 70
8
 71
3
 72
8
 73
4
 74
0
 40
0
 40
0
 40
0
 40
0
 40
1
 40
1
 40
1
 40
1
 10
10.997752
 20
9.026368
 30
0.0
 10
11.017718
 20
9.016384
 30
0.0
 10
11.023264
 20
9.017494
 30
0.0
 10
11.033247
 20
9.036351
 30
0.0
  0
SPLINE
  5
244
100
AcDbEntity
  8
Layer_1
 62
7
100
AcDbSpline
 70
8
 71
3
 72
8
 73
4
 74
0
 40
0
 40
0
 40
0
 40
0
 40
1
 40
1
 40
1
 40
1
 10
11.033247
 20
9.036351
 30
0.0
 10
11.039903
 20
9.048552
 30
0.0
 10
11.052104
 20
9.058536
 30
0.0
 10
11.059869
 20
9.058536
 30
0.0
  0
SPLINE
  5
245
100
AcDbEntity
  8
Layer_1
 62
7
100
AcDbSpline
 70
8
 71
3
 72
8
 73
4
 74
0
 40
0
 40
0
 40
0
 40
0
 40
1
 40
1
 40
1
 40
1
 10
11.059869
 20
9.058536
 30
0.0
 10
11.067634
 20
9.058536
 30
0.0
 10
11.097583
 20
9.077393
 30
0.0
 10
11.126423
 20
9.099577
 30
0.0
  0
LWPOLYLINE
  5
246
100
AcDbEntity
  8
Layer_1
 62
7
100
AcDbPolyline
 90
3
 70
0
 10
11.716539
 20
5.328161
 30
0.0
 10
11.724304
 20
5.378077
 30
0.0
 10
11.647766
 20
5.450178
 30
0.0
  0
SPLINE
  5
247
100
AcDbEntity
  8
Layer_1
 62
7
100
AcDbSpline
 70
8
 71
3
 72
8
 73
4
 74
0
 40
0
 40
0
 40
0
 40
0
 40
1
 40
1
 40
1
 40
1
 10
11.199633
 20
9.117325
 30
0.0
 10
11.218490
 20
9.094031
 30
0.0
 10
11.218490
 20
9.094031
 30
0.0
 10
11.241784
 20
9.141729
 30
0.0
  0
SPLINE
  5
248
100
AcDbEntity
  8
Layer_1
 62
7
100
AcDbSpline
 70
8
 71
3
 72
8
 73
4
 74
0
 40
0
 40
0
 40
0
 40
0
 40
1
 40
1
 40
1
 40
1
 10
11.241784
 20
9.141729
 30
0.0
 10
11.260641
 20
9.181661
 30
0.0
 10
11.280608
 20
9.199409
 30
0.0
 10
11.351599
 20
9.240451
 30
0.0
  0
SPLINE
  5
249
100
AcDbEntity
  8
Layer_1
 62
7
100
AcDbSpline
 70
8
 71
3
 72
8
 73
4
 74
0
 40
0
 40
0
 40
0
 40
0
 40
1
 40
1
 40
1
 40
1
 10
11.351599
 20
9.240451
 30
0.0
 10
11.449212
 20
9.297022
 30
0.0
 10
11.496910
 20
9.303678
 30
0.0
 10
11.596741
 20
9.274837
 30
0.0
  0
SPLINE
  5
24a
100
AcDbEntity
  8
Layer_1
 62
7
100
AcDbSpline
 70
8
 71
3
 72
8
 73
4
 74
0
 40
0
 40
0
 40
0
 40
0
 40
1
 40
1
 40
1
 40
1
 10
11.596741
 20
9.274837
 30
0.0
 10
11.661077
 20
9.254871
 30
0.0
 10
11.801951
 20
9.155039
 30
0.0
 10
11.874051
 20
9.076283
 30
0.0
  0
SPLINE
  5
24b
100
AcDbEntity
  8
Layer_1
 62
7
100
AcDbSpline
 70
8
 71
3
 72
8
 73
4
 74
0
 40
0
 40
0
 40
0
 40
0
 40
1
 40
1
 40
1
 40
1
 10
11.874051
 20
9.076283
 30
0.0
 10
11.930622
 20
9.015275
 30
0.0
 10
11.933950
 20
8.978670
 30
0.0
 10
11.892908
 20
8.881057
 30
0.0
  0
SPLINE
  5
24c
100
AcDbEntity
  8
Layer_1
 62
7
100
AcDbSpline
 70
8
 71
3
 72
8
 73
4
 74
0
 40
0
 40
0
 40
0
 40
0
 40
1
 40
1
 40
1
 40
1
 10
11.892908
 20
8.881057
 30
0.0
 10
11.860740
 20
8.804520
 30
0.0
 10
11.856303
 20
8.735747
 30
0.0
 10
11.882925
 20
8.713562
 30
0.0
  0
SPLINE
  5
24d
100
AcDbEntity
  8
Layer_1
 62
7
100
AcDbSpline
 70
8
 71
3
 72
8
 73
4
 74
0
 40
0
 40
0
 40
0
 40
0
 40
1
 40
1
 40
1
 40
1
 10
11.882925
 20
8.713562
 30
0.0
 10
11.898454
 20
8.701360
 30
0.0
 10
11.909547
 20
8.703579
 30
0.0
 10
11.958353
 20
8.729091
 30
0.0
  0
SPLINE
  5
24e
100
AcDbEntity
  8
Layer_1
 62
7
100
AcDbSpline
 70
8
 71
3
 72
8
 73
4
 74
0
 40
0
 40
0
 40
0
 40
0
 40
1
 40
1
 40
1
 40
1
 10
11.958353
 20
8.729091
 30
0.0
 10
11.990521
 20
8.745730
 30
0.0
 10
12.045983
 20
8.784553
 30
0.0
 10
12.081479
 20
8.814503
 30
0.0
  0
LWPOLYLINE
  5
24f
100
AcDbEntity
  8
Layer_1
 62
7
100
AcDbPolyline
 90
3
 70
0
 10
11.126423
 20
9.099577
 30
0.0
 10
11.179667
 20
9.140619
 30
0.0
 10
11.199633
 20
9.117325
 30
0.0
  0
SPLINE
  5
250
100
AcDbEntity
  8
Layer_1
 62
7
100
AcDbSpline
 70
8
 71
3
 72
8
 73
4
 74
0
 40
0
 40
0
 40
0
 40
0
 40
1
 40
1
 40
1
 40
1
 10
12.185748
 20
8.825595
 30
0.0
 10
12.215697
 20
8.794536
 30
0.0
 10
12.240100
 20
8.781226
 30
0.0
 10
12.283361
 20
8.771242
 30
0.0
  0
SPLINE
  5
251
100
AcDbEntity
  8
Layer_1
 62
7
100
AcDbSpline
 70
8
 71
3
 72
8
 73
4
 74
0
 40
0
 40
0
 40
0
 40
0
 40
1
 40
1
 40
1
 40
1
 10
12.283361
 20
8.771242
 30
0.0
 10
12.397612
 20
8.747948
 30
0.0
 10
12.630553
 20
8.621495
 30
0.0
 10
12.668267
 20
8.564924
 30
0.0
  0
SPLINE
  5
252
100
AcDbEntity
  8
Layer_1
 62
7
100
AcDbSpline
 70
8
 71
3
 72
8
 73
4
 74
0
 40
0
 40
0
 40
0
 40
0
 40
1
 40
1
 40
1
 40
1
 10
12.668267
 20
8.564924
 30
0.0
 10
12.678250
 20
8.549394
 30
0.0
 10
12.697107
 20
8.537193
 30
0.0
 10
12.710418
 20
8.537193
 30
0.0
  0
SPLINE
  5
253
100
AcDbEntity
  8
Layer_1
 62
7
100
AcDbSpline
 70
8
 71
3
 72
8
 73
4
 74
0
 40
0
 40
0
 40
0
 40
0
 40
1
 40
1
 40
1
 40
1
 10
12.710418
 20
8.537193
 30
0.0
 10
12.751460
 20
8.537193
 30
0.0
 10
12.887896
 20
8.448454
 30
0.0
 10
12.959997
 20
8.374135
 30
0.0
  0
SPLINE
  5
254
100
AcDbEntity
  8
Layer_1
 62
7
100
AcDbSpline
 70
8
 71
3
 72
8
 73
4
 74
0
 40
0
 40
0
 40
0
 40
0
 40
1
 40
1
 40
1
 40
1
 10
12.959997
 20
8.374135
 30
0.0
 10
13.007694
 20
8.327546
 30
0.0
 10
13.047627
 20
8.297597
 30
0.0
 10
13.085341
 20
8.283177
 30
0.0
  0
SPLINE
  5
255
100
AcDbEntity
  8
Layer_1
 62
7
100
AcDbSpline
 70
8
 71
3
 72
8
 73
4
 74
0
 40
0
 40
0
 40
0
 40
0
 40
1
 40
1
 40
1
 40
1
 10
13.085341
 20
8.283177
 30
0.0
 10
13.115291
 20
8.272084
 30
0.0
 10
13.164097
 20
8.244353
 30
0.0
 10
13.194047
 20
8.222169
 30
0.0
  0
SPLINE
  5
256
100
AcDbEntity
  8
Layer_1
 62
7
100
AcDbSpline
 70
8
 71
3
 72
8
 73
4
 74
0
 40
0
 40
0
 40
0
 40
0
 40
1
 40
1
 40
1
 40
1
 10
13.194047
 20
8.222169
 30
0.0
 10
13.223996
 20
8.201093
 30
0.0
 10
13.260601
 20
8.177799
 30
0.0
 10
13.277240
 20
8.172253
 30
0.0
  0
SPLINE
  5
257
100
AcDbEntity
  8
Layer_1
 62
7
100
AcDbSpline
 70
8
 71
3
 72
8
 73
4
 74
0
 40
0
 40
0
 40
0
 40
0
 40
1
 40
1
 40
1
 40
1
 10
13.277240
 20
8.172253
 30
0.0
 10
13.292769
 20
8.165597
 30
0.0
 10
13.326046
 20
8.134539
 30
0.0
 10
13.350450
 20
8.101261
 30
0.0
  0
SPLINE
  5
258
100
AcDbEntity
  8
Layer_1
 62
7
100
AcDbSpline
 70
8
 71
3
 72
8
 73
4
 74
0
 40
0
 40
0
 40
0
 40
0
 40
1
 40
1
 40
1
 40
1
 10
13.350450
 20
8.101261
 30
0.0
 10
13.379290
 20
8.061329
 30
0.0
 10
13.404802
 20
8.039144
 30
0.0
 10
13.425878
 20
8.034707
 30
0.0
  0
SPLINE
  5
259
100
AcDbEntity
  8
Layer_1
 62
7
100
AcDbSpline
 70
8
 71
3
 72
8
 73
4
 74
0
 40
0
 40
0
 40
0
 40
0
 40
1
 40
1
 40
1
 40
1
 10
13.425878
 20
8.034707
 30
0.0
 10
13.442516
 20
8.030270
 30
0.0
 10
13.487995
 20
8.001430
 30
0.0
 10
13.525709
 20
7.969262
 30
0.0
  0
SPLINE
  5
25a
100
AcDbEntity
  8
Layer_1
 62
7
100
AcDbSpline
 70
8
 71
3
 72
8
 73
4
 74
0
 40
0
 40
0
 40
0
 40
0
 40
1
 40
1
 40
1
 40
1
 10
13.525709
 20
7.969262
 30
0.0
 10
13.563424
 20
7.937094
 30
0.0
 10
13.625541
 20
7.890506
 30
0.0
 10
13.665474
 20
7.866103
 30
0.0
  0
SPLINE
  5
25b
100
AcDbEntity
  8
Layer_1
 62
7
100
AcDbSpline
 70
8
 71
3
 72
8
 73
4
 74
0
 40
0
 40
0
 40
0
 40
0
 40
1
 40
1
 40
1
 40
1
 10
13.665474
 20
7.866103
 30
0.0
 10
13.859591
 20
7.746305
 30
0.0
 10
14.172396
 20
7.477869
 30
0.0
 10
14.172396
 20
7.430171
 30
0.0
  0
SPLINE
  5
25c
100
AcDbEntity
  8
Layer_1
 62
7
100
AcDbSpline
 70
8
 71
3
 72
8
 73
4
 74
0
 40
0
 40
0
 40
0
 40
0
 40
1
 40
1
 40
1
 40
1
 10
14.172396
 20
7.430171
 30
0.0
 10
14.172396
 20
7.417970
 30
0.0
 10
14.184598
 20
7.400222
 30
0.0
 10
14.200127
 20
7.390239
 30
0.0
  0
SPLINE
  5
25d
100
AcDbEntity
  8
Layer_1
 62
7
100
AcDbSpline
 70
8
 71
3
 72
8
 73
4
 74
0
 40
0
 40
0
 40
0
 40
0
 40
1
 40
1
 40
1
 40
1
 10
14.200127
 20
7.390239
 30
0.0
 10
14.217875
 20
7.378037
 30
0.0
 10
14.234514
 20
7.349197
 30
0.0
 10
14.250043
 20
7.299281
 30
0.0
  0
SPLINE
  5
25e
100
AcDbEntity
  8
Layer_1
 62
7
100
AcDbSpline
 70
8
 71
3
 72
8
 73
4
 74
0
 40
0
 40
0
 40
0
 40
0
 40
1
 40
1
 40
1
 40
1
 10
14.250043
 20
7.299281
 30
0.0
 10
14.276665
 20
7.210542
 30
0.0
 10
14.277774
 20
7.171718
 30
0.0
 10
14.253371
 20
7.125130
 30
0.0
  0
SPLINE
  5
25f
100
AcDbEntity
  8
Layer_1
 62
7
100
AcDbSpline
 70
8
 71
3
 72
8
 73
4
 74
0
 40
0
 40
0
 40
0
 40
0
 40
1
 40
1
 40
1
 40
1
 10
14.253371
 20
7.125130
 30
0.0
 10
14.236732
 20
7.091853
 30
0.0
 10
14.236732
 20
7.090744
 30
0.0
 10
14.254480
 20
7.105164
 30
0.0
  0
SPLINE
  5
260
100
AcDbEntity
  8
Layer_1
 62
7
100
AcDbSpline
 70
8
 71
3
 72
8
 73
4
 74
0
 40
0
 40
0
 40
0
 40
0
 40
1
 40
1
 40
1
 40
1
 10
14.254480
 20
7.105164
 30
0.0
 10
14.264463
 20
7.114038
 30
0.0
 10
14.276665
 20
7.117366
 30
0.0
 10
14.279993
 20
7.112929
 30
0.0
  0
SPLINE
  5
261
100
AcDbEntity
  8
Layer_1
 62
7
100
AcDbSpline
 70
8
 71
3
 72
8
 73
4
 74
0
 40
0
 40
0
 40
0
 40
0
 40
1
 40
1
 40
1
 40
1
 10
14.279993
 20
7.112929
 30
0.0
 10
14.284430
 20
7.108492
 30
0.0
 10
14.294413
 20
7.029736
 30
0.0
 10
14.301068
 20
6.936559
 30
0.0
  0
SPLINE
  5
262
100
AcDbEntity
  8
Layer_1
 62
7
100
AcDbSpline
 70
8
 71
3
 72
8
 73
4
 74
0
 40
0
 40
0
 40
0
 40
0
 40
1
 40
1
 40
1
 40
1
 10
14.301068
 20
6.936559
 30
0.0
 10
14.308833
 20
6.837837
 30
0.0
 10
14.322144
 20
6.751316
 30
0.0
 10
14.332127
 20
6.726913
 30
0.0
  0
SPLINE
  5
263
100
AcDbEntity
  8
Layer_1
 62
7
100
AcDbSpline
 70
8
 71
3
 72
8
 73
4
 74
0
 40
0
 40
0
 40
0
 40
0
 40
1
 40
1
 40
1
 40
1
 10
14.332127
 20
6.726913
 30
0.0
 10
14.347656
 20
6.690308
 30
0.0
 10
14.347656
 20
6.681434
 30
0.0
 10
14.331018
 20
6.629300
 30
0.0
  0
SPLINE
  5
264
100
AcDbEntity
  8
Layer_1
 62
7
100
AcDbSpline
 70
8
 71
3
 72
8
 73
4
 74
0
 40
0
 40
0
 40
0
 40
0
 40
1
 40
1
 40
1
 40
1
 10
14.331018
 20
6.629300
 30
0.0
 10
14.313270
 20
6.573838
 30
0.0
 10
14.313270
 20
6.571620
 30
0.0
 10
14.338782
 20
6.510611
 30
0.0
  0
LWPOLYLINE
  5
265
100
AcDbEntity
  8
Layer_1
 62
7
100
AcDbPolyline
 90
3
 70
0
 10
12.081479
 20
8.814503
 30
0.0
 10
12.144706
 20
8.867746
 30
0.0
 10
12.185748
 20
8.825595
 30
0.0
  0
SPLINE
  5
266
100
AcDbEntity
  8
Layer_1
 62
7
100
AcDbSpline
 70
8
 71
3
 72
8
 73
4
 74
0
 40
0
 40
0
 40
0
 40
0
 40
1
 40
1
 40
1
 40
1
 10
14.341001
 20
6.400797
 30
0.0
 10
14.313270
 20
6.344225
 30
0.0
 10
14.288867
 20
6.207789
 30
0.0
 10
14.298850
 20
6.161201
 30
0.0
  0
SPLINE
  5
267
100
AcDbEntity
  8
Layer_1
 62
7
100
AcDbSpline
 70
8
 71
3
 72
8
 73
4
 74
0
 40
0
 40
0
 40
0
 40
0
 40
1
 40
1
 40
1
 40
1
 10
14.298850
 20
6.161201
 30
0.0
 10
14.312161
 20
6.095756
 30
0.0
 10
14.246715
 20
5.819555
 30
0.0
 10
14.207892
 20
5.771857
 30
0.0
  0
SPLINE
  5
268
100
AcDbEntity
  8
Layer_1
 62
7
100
AcDbSpline
 70
8
 71
3
 72
8
 73
4
 74
0
 40
0
 40
0
 40
0
 40
0
 40
1
 40
1
 40
1
 40
1
 10
14.207892
 20
5.771857
 30
0.0
 10
14.197909
 20
5.759656
 30
0.0
 10
14.199018
 20
5.751891
 30
0.0
 10
14.215657
 20
5.737471
 30
0.0
  0
SPLINE
  5
269
100
AcDbEntity
  8
Layer_1
 62
7
100
AcDbSpline
 70
8
 71
3
 72
8
 73
4
 74
0
 40
0
 40
0
 40
0
 40
0
 40
1
 40
1
 40
1
 40
1
 10
14.215657
 20
5.737471
 30
0.0
 10
14.226749
 20
5.727488
 30
0.0
 10
14.238951
 20
5.704194
 30
0.0
 10
14.243388
 20
5.685337
 30
0.0
  0
SPLINE
  5
26a
100
AcDbEntity
  8
Layer_1
 62
7
100
AcDbSpline
 70
8
 71
3
 72
8
 73
4
 74
0
 40
0
 40
0
 40
0
 40
0
 40
1
 40
1
 40
1
 40
1
 10
14.243388
 20
5.685337
 30
0.0
 10
14.253371
 20
5.634312
 30
0.0
 10
14.277774
 20
5.634312
 30
0.0
 10
14.333236
 20
5.685337
 30
0.0
  0
SPLINE
  5
26b
100
AcDbEntity
  8
Layer_1
 62
7
100
AcDbSpline
 70
8
 71
3
 72
8
 73
4
 74
0
 40
0
 40
0
 40
0
 40
0
 40
1
 40
1
 40
1
 40
1
 10
14.333236
 20
5.685337
 30
0.0
 10
14.359858
 20
5.709740
 30
0.0
 10
14.387589
 20
5.730816
 30
0.0
 10
14.394244
 20
5.730816
 30
0.0
  0
SPLINE
  5
26c
100
AcDbEntity
  8
Layer_1
 62
7
100
AcDbSpline
 70
8
 71
3
 72
8
 73
4
 74
0
 40
0
 40
0
 40
0
 40
0
 40
1
 40
1
 40
1
 40
1
 10
14.394244
 20
5.730816
 30
0.0
 10
14.417538
 20
5.730816
 30
0.0
 10
14.449706
 20
5.776294
 30
0.0
 10
14.449706
 20
5.808462
 30
0.0
  0
SPLINE
  5
26d
100
AcDbEntity
  8
Layer_1
 62
7
100
AcDbSpline
 70
8
 71
3
 72
8
 73
4
 74
0
 40
0
 40
0
 40
0
 40
0
 40
1
 40
1
 40
1
 40
1
 10
14.449706
 20
5.808462
 30
0.0
 10
14.449706
 20
5.826210
 30
0.0
 10
14.459690
 20
5.866143
 30
0.0
 10
14.471891
 20
5.896092
 30
0.0
  0
SPLINE
  5
26e
100
AcDbEntity
  8
Layer_1
 62
7
100
AcDbSpline
 70
8
 71
3
 72
8
 73
4
 74
0
 40
0
 40
0
 40
0
 40
0
 40
1
 40
1
 40
1
 40
1
 10
14.471891
 20
5.896092
 30
0.0
 10
14.485202
 20
5.931588
 30
0.0
 10
14.490748
 20
5.964865
 30
0.0
 10
14.487421
 20
5.985941
 30
0.0
  0
SPLINE
  5
26f
100
AcDbEntity
  8
Layer_1
 62
7
100
AcDbSpline
 70
8
 71
3
 72
8
 73
4
 74
0
 40
0
 40
0
 40
0
 40
0
 40
1
 40
1
 40
1
 40
1
 10
14.487421
 20
5.985941
 30
0.0
 10
14.482984
 20
6.004798
 30
0.0
 10
14.487421
 20
6.036966
 30
0.0
 10
14.497404
 20
6.062478
 30
0.0
  0
SPLINE
  5
270
100
AcDbEntity
  8
Layer_1
 62
7
100
AcDbSpline
 70
8
 71
3
 72
8
 73
4
 74
0
 40
0
 40
0
 40
0
 40
0
 40
1
 40
1
 40
1
 40
1
 10
14.497404
 20
6.062478
 30
0.0
 10
14.521807
 20
6.123487
 30
0.0
 10
14.538446
 20
6.300965
 30
0.0
 10
14.538446
 20
6.506174
 30
0.0
  0
SPLINE
  5
271
100
AcDbEntity
  8
Layer_1
 62
7
100
AcDbSpline
 70
8
 71
3
 72
8
 73
4
 74
0
 40
0
 40
0
 40
0
 40
0
 40
1
 40
1
 40
1
 40
1
 10
14.538446
 20
6.506174
 30
0.0
 10
14.538446
 20
6.701401
 30
0.0
 10
14.525135
 20
6.806778
 30
0.0
 10
14.492967
 20
6.857803
 30
0.0
  0
SPLINE
  5
272
100
AcDbEntity
  8
Layer_1
 62
7
100
AcDbSpline
 70
8
 71
3
 72
8
 73
4
 74
0
 40
0
 40
0
 40
0
 40
0
 40
1
 40
1
 40
1
 40
1
 10
14.492967
 20
6.857803
 30
0.0
 10
14.459690
 20
6.912156
 30
0.0
 10
14.465236
 20
6.948761
 30
0.0
 10
14.514042
 20
6.995349
 30
0.0
  0
LWPOLYLINE
  5
273
100
AcDbEntity
  8
Layer_1
 62
7
100
AcDbPolyline
 90
3
 70
0
 10
14.338782
 20
6.510611
 30
0.0
 10
14.364295
 20
6.449603
 30
0.0
 10
14.341001
 20
6.400797
 30
0.0
  0
SPLINE
  5
274
100
AcDbEntity
  8
Layer_1
 62
7
100
AcDbSpline
 70
8
 71
3
 72
8
 73
4
 74
0
 40
0
 40
0
 40
0
 40
0
 40
1
 40
1
 40
1
 40
1
 10
14.514042
 20
7.082979
 30
0.0
 10
14.466345
 20
7.137332
 30
0.0
 10
14.459690
 20
7.181702
 30
0.0
 10
14.490748
 20
7.247147
 30
0.0
  0
SPLINE
  5
275
100
AcDbEntity
  8
Layer_1
 62
7
100
AcDbSpline
 70
8
 71
3
 72
8
 73
4
 74
0
 40
0
 40
0
 40
0
 40
0
 40
1
 40
1
 40
1
 40
1
 10
14.490748
 20
7.247147
 30
0.0
 10
14.508496
 20
7.285970
 30
0.0
 10
14.512933
 20
7.287079
 30
0.0
 10
14.566177
 20
7.267113
 30
0.0
  0
SPLINE
  5
276
100
AcDbEntity
  8
Layer_1
 62
7
100
AcDbSpline
 70
8
 71
3
 72
8
 73
4
 74
0
 40
0
 40
0
 40
0
 40
0
 40
1
 40
1
 40
1
 40
1
 10
14.566177
 20
7.267113
 30
0.0
 10
14.580597
 20
7.261567
 30
0.0
 10
14.573941
 20
7.273768
 30
0.0
 10
14.545101
 20
7.303718
 30
0.0
  0
SPLINE
  5
277
100
AcDbEntity
  8
Layer_1
 62
7
100
AcDbSpline
 70
8
 71
3
 72
8
 73
4
 74
0
 40
0
 40
0
 40
0
 40
0
 40
1
 40
1
 40
1
 40
1
 10
14.545101
 20
7.303718
 30
0.0
 10
14.521807
 20
7.328121
 30
0.0
 10
14.490748
 20
7.378037
 30
0.0
 10
14.475219
 20
7.413533
 30
0.0
  0
SPLINE
  5
278
100
AcDbEntity
  8
Layer_1
 62
7
100
AcDbSpline
 70
8
 71
3
 72
8
 73
4
 74
0
 40
0
 40
0
 40
0
 40
0
 40
1
 40
1
 40
1
 40
1
 10
14.475219
 20
7.413533
 30
0.0
 10
14.454143
 20
7.464558
 30
0.0
 10
14.389807
 20
7.698607
 30
0.0
 10
14.345438
 20
7.883850
 30
0.0
  0
SPLINE
  5
279
100
AcDbEntity
  8
Layer_1
 62
7
100
AcDbSpline
 70
8
 71
3
 72
8
 73
4
 74
0
 40
0
 40
0
 40
0
 40
0
 40
1
 40
1
 40
1
 40
1
 10
14.345438
 20
7.883850
 30
0.0
 10
14.341001
 20
7.906035
 30
0.0
 10
14.329908
 20
7.914909
 30
0.0
 10
14.302177
 20
7.920455
 30
0.0
  0
SPLINE
  5
27a
100
AcDbEntity
  8
Layer_1
 62
7
100
AcDbSpline
 70
8
 71
3
 72
8
 73
4
 74
0
 40
0
 40
0
 40
0
 40
0
 40
1
 40
1
 40
1
 40
1
 10
14.302177
 20
7.920455
 30
0.0
 10
14.282211
 20
7.923783
 30
0.0
 10
14.250043
 20
7.942640
 30
0.0
 10
14.232295
 20
7.961497
 30
0.0
  0
SPLINE
  5
27b
100
AcDbEntity
  8
Layer_1
 62
7
100
AcDbSpline
 70
8
 71
3
 72
8
 73
4
 74
0
 40
0
 40
0
 40
0
 40
0
 40
1
 40
1
 40
1
 40
1
 10
14.232295
 20
7.961497
 30
0.0
 10
14.214548
 20
7.980354
 30
0.0
 10
14.162413
 20
8.018068
 30
0.0
 10
14.115825
 20
8.044690
 30
0.0
  0
SPLINE
  5
27c
100
AcDbEntity
  8
Layer_1
 62
7
100
AcDbSpline
 70
8
 71
3
 72
8
 73
4
 74
0
 40
0
 40
0
 40
0
 40
0
 40
1
 40
1
 40
1
 40
1
 10
14.115825
 20
8.044690
 30
0.0
 10
14.069237
 20
8.071312
 30
0.0
 10
14.007120
 20
8.115682
 30
0.0
 10
13.978279
 20
8.142303
 30
0.0
  0
LWPOLYLINE
  5
27d
100
AcDbEntity
  8
Layer_1
 62
7
100
AcDbPolyline
 90
3
 70
0
 10
14.514042
 20
6.995349
 30
0.0
 10
14.557303
 20
7.035282
 30
0.0
 10
14.514042
 20
7.082979
 30
0.0
  0
SPLINE
  5
27e
100
AcDbEntity
  8
Layer_1
 62
7
100
AcDbSpline
 70
8
 71
3
 72
8
 73
4
 74
0
 40
0
 40
0
 40
0
 40
0
 40
1
 40
1
 40
1
 40
1
 10
13.947221
 20
8.223278
 30
0.0
 10
13.967187
 20
8.251009
 30
0.0
 10
13.987153
 20
8.293160
 30
0.0
 10
13.980498
 20
8.293160
 30
0.0
  0
SPLINE
  5
27f
100
AcDbEntity
  8
Layer_1
 62
7
100
AcDbSpline
 70
8
 71
3
 72
8
 73
4
 74
0
 40
0
 40
0
 40
0
 40
0
 40
1
 40
1
 40
1
 40
1
 10
13.980498
 20
8.293160
 30
0.0
 10
13.979389
 20
8.293160
 30
0.0
 10
13.951658
 20
8.283177
 30
0.0
 10
13.919490
 20
8.270975
 30
0.0
  0
SPLINE
  5
280
100
AcDbEntity
  8
Layer_1
 62
7
100
AcDbSpline
 70
8
 71
3
 72
8
 73
4
 74
0
 40
0
 40
0
 40
0
 40
0
 40
1
 40
1
 40
1
 40
1
 10
13.919490
 20
8.270975
 30
0.0
 10
13.821877
 20
8.233261
 30
0.0
 10
13.732028
 20
8.245463
 30
0.0
 10
13.667692
 20
8.304252
 30
0.0
  0
SPLINE
  5
281
100
AcDbEntity
  8
Layer_1
 62
7
100
AcDbSpline
 70
8
 71
3
 72
8
 73
4
 74
0
 40
0
 40
0
 40
0
 40
0
 40
1
 40
1
 40
1
 40
1
 10
13.667692
 20
8.304252
 30
0.0
 10
13.649944
 20
8.320891
 30
0.0
 10
13.615558
 20
8.345294
 30
0.0
 10
13.593373
 20
8.358605
 30
0.0
  0
SPLINE
  5
282
100
AcDbEntity
  8
Layer_1
 62
7
100
AcDbSpline
 70
8
 71
3
 72
8
 73
4
 74
0
 40
0
 40
0
 40
0
 40
0
 40
1
 40
1
 40
1
 40
1
 10
13.593373
 20
8.358605
 30
0.0
 10
13.571188
 20
8.371916
 30
0.0
 10
13.541239
 20
8.400756
 30
0.0
 10
13.527928
 20
8.422941
 30
0.0
  0
SPLINE
  5
283
100
AcDbEntity
  8
Layer_1
 62
7
100
AcDbSpline
 70
8
 71
3
 72
8
 73
4
 74
0
 40
0
 40
0
 40
0
 40
0
 40
1
 40
1
 40
1
 40
1
 10
13.527928
 20
8.422941
 30
0.0
 10
13.509071
 20
8.452891
 30
0.0
 10
13.482449
 20
8.471748
 30
0.0
 10
13.413676
 20
8.503916
 30
0.0
  0
SPLINE
  5
284
100
AcDbEntity
  8
Layer_1
 62
7
100
AcDbSpline
 70
8
 71
3
 72
8
 73
4
 74
0
 40
0
 40
0
 40
0
 40
0
 40
1
 40
1
 40
1
 40
1
 10
13.413676
 20
8.503916
 30
0.0
 10
13.363760
 20
8.527210
 30
0.0
 10
13.306080
 20
8.559378
 30
0.0
 10
13.282786
 20
8.577125
 30
0.0
  0
SPLINE
  5
285
100
AcDbEntity
  8
Layer_1
 62
7
100
AcDbSpline
 70
8
 71
3
 72
8
 73
4
 74
0
 40
0
 40
0
 40
0
 40
0
 40
1
 40
1
 40
1
 40
1
 10
13.282786
 20
8.577125
 30
0.0
 10
13.260601
 20
8.594873
 30
0.0
 10
13.227324
 20
8.618167
 30
0.0
 10
13.208467
 20
8.628150
 30
0.0
  0
SPLINE
  5
286
100
AcDbEntity
  8
Layer_1
 62
7
100
AcDbSpline
 70
8
 71
3
 72
8
 73
4
 74
0
 40
0
 40
0
 40
0
 40
0
 40
1
 40
1
 40
1
 40
1
 10
13.208467
 20
8.628150
 30
0.0
 10
13.189610
 20
8.638134
 30
0.0
 10
13.158551
 20
8.670302
 30
0.0
 10
13.138585
 20
8.699142
 30
0.0
  0
SPLINE
  5
287
100
AcDbEntity
  8
Layer_1
 62
7
100
AcDbSpline
 70
8
 71
3
 72
8
 73
4
 74
0
 40
0
 40
0
 40
0
 40
0
 40
1
 40
1
 40
1
 40
1
 10
13.138585
 20
8.699142
 30
0.0
 10
13.060938
 20
8.811175
 30
0.0
 10
13.049846
 20
8.818940
 30
0.0
 10
12.948905
 20
8.841125
 30
0.0
  0
SPLINE
  5
288
100
AcDbEntity
  8
Layer_1
 62
7
100
AcDbSpline
 70
8
 71
3
 72
8
 73
4
 74
0
 40
0
 40
0
 40
0
 40
0
 40
1
 40
1
 40
1
 40
1
 10
12.948905
 20
8.841125
 30
0.0
 10
12.915627
 20
8.848889
 30
0.0
 10
12.674922
 20
9.068519
 30
0.0
 10
12.661612
 20
9.104014
 30
0.0
  0
SPLINE
  5
289
100
AcDbEntity
  8
Layer_1
 62
7
100
AcDbSpline
 70
8
 71
3
 72
8
 73
4
 74
0
 40
0
 40
0
 40
0
 40
0
 40
1
 40
1
 40
1
 40
1
 10
12.661612
 20
9.104014
 30
0.0
 10
12.657175
 20
9.115107
 30
0.0
 10
12.637208
 20
9.132855
 30
0.0
 10
12.617242
 20
9.142838
 30
0.0
  0
SPLINE
  5
28a
100
AcDbEntity
  8
Layer_1
 62
7
100
AcDbSpline
 70
8
 71
3
 72
8
 73
4
 74
0
 40
0
 40
0
 40
0
 40
0
 40
1
 40
1
 40
1
 40
1
 10
12.617242
 20
9.142838
 30
0.0
 10
12.552906
 20
9.176115
 30
0.0
 10
12.501881
 20
9.222703
 30
0.0
 10
12.474150
 20
9.273728
 30
0.0
  0
LWPOLYLINE
  5
28b
100
AcDbEntity
  8
Layer_1
 62
7
100
AcDbPolyline
 90
3
 70
0
 10
13.978279
 20
8.142303
 30
0.0
 10
13.926145
 20
8.192219
 30
0.0
 10
13.947221
 20
8.223278
 30
0.0
  0
SPLINE
  5
28c
100
AcDbEntity
  8
Layer_1
 62
7
100
AcDbSpline
 70
8
 71
3
 72
8
 73
4
 74
0
 40
0
 40
0
 40
0
 40
0
 40
1
 40
1
 40
1
 40
1
 10
12.495226
 20
9.415711
 30
0.0
 10
12.545141
 20
9.513324
 30
0.0
 10
12.581746
 20
9.623139
 30
0.0
 10
12.620570
 20
9.785088
 30
0.0
  0
SPLINE
  5
28d
100
AcDbEntity
  8
Layer_1
 62
7
100
AcDbSpline
 70
8
 71
3
 72
8
 73
4
 74
0
 40
0
 40
0
 40
0
 40
0
 40
1
 40
1
 40
1
 40
1
 10
12.620570
 20
9.785088
 30
0.0
 10
12.653847
 20
9.928180
 30
0.0
 10
12.711527
 20
10.095675
 30
0.0
 10
12.782519
 20
10.255406
 30
0.0
  0
SPLINE
  5
28e
100
AcDbEntity
  8
Layer_1
 62
7
100
AcDbSpline
 70
8
 71
3
 72
8
 73
4
 74
0
 40
0
 40
0
 40
0
 40
0
 40
1
 40
1
 40
1
 40
1
 10
12.782519
 20
10.255406
 30
0.0
 10
12.816905
 20
10.333052
 30
0.0
 10
12.846855
 20
10.416245
 30
0.0
 10
12.849073
 20
10.441758
 30
0.0
  0
SPLINE
  5
28f
100
AcDbEntity
  8
Layer_1
 62
7
100
AcDbSpline
 70
8
 71
3
 72
8
 73
4
 74
0
 40
0
 40
0
 40
0
 40
0
 40
1
 40
1
 40
1
 40
1
 10
12.849073
 20
10.441758
 30
0.0
 10
12.854619
 20
10.483909
 30
0.0
 10
12.850182
 20
10.493892
 30
0.0
 10
12.816905
 20
10.527169
 30
0.0
  0
SPLINE
  5
290
100
AcDbEntity
  8
Layer_1
 62
7
100
AcDbSpline
 70
8
 71
3
 72
8
 73
4
 74
0
 40
0
 40
0
 40
0
 40
0
 40
1
 40
1
 40
1
 40
1
 10
12.816905
 20
10.527169
 30
0.0
 10
12.786956
 20
10.557119
 30
0.0
 10
12.751460
 20
10.573757
 30
0.0
 10
12.647191
 20
10.607035
 30
0.0
  0
SPLINE
  5
291
100
AcDbEntity
  8
Layer_1
 62
7
100
AcDbSpline
 70
8
 71
3
 72
8
 73
4
 74
0
 40
0
 40
0
 40
0
 40
0
 40
1
 40
1
 40
1
 40
1
 10
12.647191
 20
10.607035
 30
0.0
 10
12.572872
 20
10.630329
 30
0.0
 10
12.497444
 20
10.661387
 30
0.0
 10
12.475259
 20
10.679135
 30
0.0
  0
SPLINE
  5
292
100
AcDbEntity
  8
Layer_1
 62
7
100
AcDbSpline
 70
8
 71
3
 72
8
 73
4
 74
0
 40
0
 40
0
 40
0
 40
0
 40
1
 40
1
 40
1
 40
1
 10
12.475259
 20
10.679135
 30
0.0
 10
12.420906
 20
10.720177
 30
0.0
 10
12.288907
 20
10.784513
 30
0.0
 10
12.075933
 20
10.873252
 30
0.0
  0
SPLINE
  5
293
100
AcDbEntity
  8
Layer_1
 62
7
100
AcDbSpline
 70
8
 71
3
 72
8
 73
4
 74
0
 40
0
 40
0
 40
0
 40
0
 40
1
 40
1
 40
1
 40
1
 10
12.075933
 20
10.873252
 30
0.0
 10
11.933950
 20
10.932042
 30
0.0
 10
11.862959
 20
10.969756
 30
0.0
 10
11.759799
 20
11.039638
 30
0.0
  0
SPLINE
  5
294
100
AcDbEntity
  8
Layer_1
 62
7
100
AcDbSpline
 70
8
 71
3
 72
8
 73
4
 74
0
 40
0
 40
0
 40
0
 40
0
 40
1
 40
1
 40
1
 40
1
 10
11.759799
 20
11.039638
 30
0.0
 10
11.592304
 20
11.152781
 30
0.0
 10
11.522422
 20
11.191604
 30
0.0
 10
11.438120
 20
11.219335
 30
0.0
  0
SPLINE
  5
295
100
AcDbEntity
  8
Layer_1
 62
7
100
AcDbSpline
 70
8
 71
3
 72
8
 73
4
 74
0
 40
0
 40
0
 40
0
 40
0
 40
1
 40
1
 40
1
 40
1
 10
11.438120
 20
11.219335
 30
0.0
 10
11.362691
 20
11.243738
 30
0.0
 10
11.285045
 20
11.281453
 30
0.0
 10
11.175230
 20
11.345788
 30
0.0
  0
SPLINE
  5
296
100
AcDbEntity
  8
Layer_1
 62
7
100
AcDbSpline
 70
8
 71
3
 72
8
 73
4
 74
0
 40
0
 40
0
 40
0
 40
0
 40
1
 40
1
 40
1
 40
1
 10
11.175230
 20
11.345788
 30
0.0
 10
11.075398
 20
11.404578
 30
0.0
 10
11.072071
 20
11.410124
 30
0.0
 10
11.088709
 20
11.471133
 30
0.0
  0
SPLINE
  5
297
100
AcDbEntity
  8
Layer_1
 62
7
100
AcDbSpline
 70
8
 71
3
 72
8
 73
4
 74
0
 40
0
 40
0
 40
0
 40
0
 40
1
 40
1
 40
1
 40
1
 10
11.088709
 20
11.471133
 30
0.0
 10
11.096474
 20
11.498864
 30
0.0
 10
11.099802
 20
11.524376
 30
0.0
 10
11.096474
 20
11.527704
 30
0.0
  0
SPLINE
  5
298
100
AcDbEntity
  8
Layer_1
 62
7
100
AcDbSpline
 70
8
 71
3
 72
8
 73
4
 74
0
 40
0
 40
0
 40
0
 40
0
 40
1
 40
1
 40
1
 40
1
 10
11.096474
 20
11.527704
 30
0.0
 10
11.087600
 20
11.536578
 30
0.0
 10
11.055432
 20
11.471133
 30
0.0
 10
11.055432
 20
11.444511
 30
0.0
  0
SPLINE
  5
299
100
AcDbEntity
  8
Layer_1
 62
7
100
AcDbSpline
 70
8
 71
3
 72
8
 73
4
 74
0
 40
0
 40
0
 40
0
 40
0
 40
1
 40
1
 40
1
 40
1
 10
11.055432
 20
11.444511
 30
0.0
 10
11.055432
 20
11.399032
 30
0.0
 10
10.975567
 20
11.385721
 30
0.0
 10
10.889046
 20
11.415671
 30
0.0
  0
SPLINE
  5
29a
100
AcDbEntity
  8
Layer_1
 62
7
100
AcDbSpline
 70
8
 71
3
 72
8
 73
4
 74
0
 40
0
 40
0
 40
0
 40
0
 40
1
 40
1
 40
1
 40
1
 10
10.889046
 20
11.415671
 30
0.0
 10
10.828038
 20
11.436746
 30
0.0
 10
10.752609
 20
11.436746
 30
0.0
 10
10.710458
 20
11.414561
 30
0.0
  0
SPLINE
  5
29b
100
AcDbEntity
  8
Layer_1
 62
7
100
AcDbSpline
 70
8
 71
3
 72
8
 73
4
 74
0
 40
0
 40
0
 40
0
 40
0
 40
1
 40
1
 40
1
 40
1
 10
10.710458
 20
11.414561
 30
0.0
 10
10.682727
 20
11.401250
 30
0.0
 10
10.643904
 20
11.397923
 30
0.0
 10
10.507467
 20
11.401250
 30
0.0
  0
LWPOLYLINE
  5
29c
100
AcDbEntity
  8
Layer_1
 62
7
100
AcDbPolyline
 90
3
 70
0
 10
12.474150
 20
9.273728
 30
0.0
 10
12.448637
 20
9.323644
 30
0.0
 10
12.495226
 20
9.415711
 30
0.0
  0
SPLINE
  5
29d
100
AcDbEntity
  8
Layer_1
 62
7
100
AcDbSpline
 70
8
 71
3
 72
8
 73
4
 74
0
 40
0
 40
0
 40
0
 40
0
 40
1
 40
1
 40
1
 40
1
 10
10.277855
 20
11.362427
 30
0.0
 10
10.244578
 20
11.340242
 30
0.0
 10
10.211300
 20
11.321385
 30
0.0
 10
10.204645
 20
11.321385
 30
0.0
  0
SPLINE
  5
29e
100
AcDbEntity
  8
Layer_1
 62
7
100
AcDbSpline
 70
8
 71
3
 72
8
 73
4
 74
0
 40
0
 40
0
 40
0
 40
0
 40
1
 40
1
 40
1
 40
1
 10
10.204645
 20
11.321385
 30
0.0
 10
10.183569
 20
11.321385
 30
0.0
 10
10.143637
 20
11.260377
 30
0.0
 10
10.057116
 20
11.095100
 30
0.0
  0
SPLINE
  5
29f
100
AcDbEntity
  8
Layer_1
 62
7
100
AcDbSpline
 70
8
 71
3
 72
8
 73
4
 74
0
 40
0
 40
0
 40
0
 40
0
 40
1
 40
1
 40
1
 40
1
 10
10.057116
 20
11.095100
 30
0.0
 10
9.998326
 20
10.983067
 30
0.0
 10
9.967268
 20
10.936479
 30
0.0
 10
9.943974
 20
10.923168
 30
0.0
  0
SPLINE
  5
2a0
100
AcDbEntity
  8
Layer_1
 62
7
100
AcDbSpline
 70
8
 71
3
 72
8
 73
4
 74
0
 40
0
 40
0
 40
0
 40
0
 40
1
 40
1
 40
1
 40
1
 10
9.943974
 20
10.923168
 30
0.0
 10
9.919570
 20
10.909857
 30
0.0
 10
9.908478
 20
10.891000
 30
0.0
 10
9.895167
 20
10.844412
 30
0.0
  0
SPLINE
  5
2a1
100
AcDbEntity
  8
Layer_1
 62
7
100
AcDbSpline
 70
8
 71
3
 72
8
 73
4
 74
0
 40
0
 40
0
 40
0
 40
0
 40
1
 40
1
 40
1
 40
1
 10
9.895167
 20
10.844412
 30
0.0
 10
9.855234
 20
10.700211
 30
0.0
 10
9.853016
 20
10.694665
 30
0.0
 10
9.818629
 20
10.679135
 30
0.0
  0
SPLINE
  5
2a2
100
AcDbEntity
  8
Layer_1
 62
7
100
AcDbSpline
 70
8
 71
3
 72
8
 73
4
 74
0
 40
0
 40
0
 40
0
 40
0
 40
1
 40
1
 40
1
 40
1
 10
9.818629
 20
10.679135
 30
0.0
 10
9.776478
 20
10.659169
 30
0.0
 10
9.772041
 20
10.651404
 30
0.0
 10
9.757621
 20
10.578194
 30
0.0
  0
SPLINE
  5
2a3
100
AcDbEntity
  8
Layer_1
 62
7
100
AcDbSpline
 70
8
 71
3
 72
8
 73
4
 74
0
 40
0
 40
0
 40
0
 40
0
 40
1
 40
1
 40
1
 40
1
 10
9.757621
 20
10.578194
 30
0.0
 10
9.736546
 20
10.472817
 30
0.0
 10
9.715470
 20
10.426229
 30
0.0
 10
9.679974
 20
10.411808
 30
0.0
  0
SPLINE
  5
2a4
100
AcDbEntity
  8
Layer_1
 62
7
100
AcDbSpline
 70
8
 71
3
 72
8
 73
4
 74
0
 40
0
 40
0
 40
0
 40
0
 40
1
 40
1
 40
1
 40
1
 10
9.679974
 20
10.411808
 30
0.0
 10
9.634496
 20
10.392951
 30
0.0
 10
9.610092
 20
10.400716
 30
0.0
 10
9.587907
 20
10.445086
 30
0.0
  0
SPLINE
  5
2a5
100
AcDbEntity
  8
Layer_1
 62
7
100
AcDbSpline
 70
8
 71
3
 72
8
 73
4
 74
0
 40
0
 40
0
 40
0
 40
0
 40
1
 40
1
 40
1
 40
1
 10
9.587907
 20
10.445086
 30
0.0
 10
9.570160
 20
10.478363
 30
0.0
 10
9.567941
 20
10.502766
 30
0.0
 10
9.572378
 20
10.605925
 30
0.0
  0
SPLINE
  5
2a6
100
AcDbEntity
  8
Layer_1
 62
7
100
AcDbSpline
 70
8
 71
3
 72
8
 73
4
 74
0
 40
0
 40
0
 40
0
 40
0
 40
1
 40
1
 40
1
 40
1
 10
9.572378
 20
10.605925
 30
0.0
 10
9.575706
 20
10.673589
 30
0.0
 10
9.581252
 20
10.736816
 30
0.0
 10
9.585689
 20
10.746799
 30
0.0
  0
SPLINE
  5
2a7
100
AcDbEntity
  8
Layer_1
 62
7
100
AcDbSpline
 70
8
 71
3
 72
8
 73
4
 74
0
 40
0
 40
0
 40
0
 40
0
 40
1
 40
1
 40
1
 40
1
 10
9.585689
 20
10.746799
 30
0.0
 10
9.590126
 20
10.756782
 30
0.0
 10
9.607874
 20
10.770093
 30
0.0
 10
9.625622
 20
10.776748
 30
0.0
  0
SPLINE
  5
2a8
100
AcDbEntity
  8
Layer_1
 62
7
100
AcDbSpline
 70
8
 71
3
 72
8
 73
4
 74
0
 40
0
 40
0
 40
0
 40
0
 40
1
 40
1
 40
1
 40
1
 10
9.625622
 20
10.776748
 30
0.0
 10
9.666664
 20
10.791168
 30
0.0
 10
9.666664
 20
10.812244
 30
0.0
 10
9.624512
 20
10.877689
 30
0.0
  0
SPLINE
  5
2a9
100
AcDbEntity
  8
Layer_1
 62
7
100
AcDbSpline
 70
8
 71
3
 72
8
 73
4
 74
0
 40
0
 40
0
 40
0
 40
0
 40
1
 40
1
 40
1
 40
1
 10
9.624512
 20
10.877689
 30
0.0
 10
9.594563
 20
10.924277
 30
0.0
 10
9.590126
 20
10.943134
 30
0.0
 10
9.583471
 20
11.039638
 30
0.0
  0
LWPOLYLINE
  5
2aa
100
AcDbEntity
  8
Layer_1
 62
7
100
AcDbPolyline
 90
3
 70
0
 10
10.507467
 20
11.401250
 30
0.0
 10
10.337754
 20
11.404578
 30
0.0
 10
10.277855
 20
11.362427
 30
0.0
  0
SPLINE
  5
2ab
100
AcDbEntity
  8
Layer_1
 62
7
100
AcDbSpline
 70
8
 71
3
 72
8
 73
4
 74
0
 40
0
 40
0
 40
0
 40
0
 40
1
 40
1
 40
1
 40
1
 10
9.509151
 20
11.230428
 30
0.0
 10
9.471437
 20
11.273688
 30
0.0
 10
9.427068
 20
11.326931
 30
0.0
 10
9.410429
 20
11.348007
 30
0.0
  0
SPLINE
  5
2ac
100
AcDbEntity
  8
Layer_1
 62
7
100
AcDbSpline
 70
8
 71
3
 72
8
 73
4
 74
0
 40
0
 40
0
 40
0
 40
0
 40
1
 40
1
 40
1
 40
1
 10
9.410429
 20
11.348007
 30
0.0
 10
9.360513
 20
11.410124
 30
0.0
 10
9.299505
 20
11.432309
 30
0.0
 10
9.181926
 20
11.433418
 30
0.0
  0
SPLINE
  5
2ad
100
AcDbEntity
  8
Layer_1
 62
7
100
AcDbSpline
 70
8
 71
3
 72
8
 73
4
 74
0
 40
0
 40
0
 40
0
 40
0
 40
1
 40
1
 40
1
 40
1
 10
9.181926
 20
11.433418
 30
0.0
 10
9.117590
 20
11.433418
 30
0.0
 10
9.073220
 20
11.428981
 30
0.0
 10
9.063237
 20
11.420108
 30
0.0
  0
SPLINE
  5
2ae
100
AcDbEntity
  8
Layer_1
 62
7
100
AcDbSpline
 70
8
 71
3
 72
8
 73
4
 74
0
 40
0
 40
0
 40
0
 40
0
 40
1
 40
1
 40
1
 40
1
 10
9.063237
 20
11.420108
 30
0.0
 10
9.054363
 20
11.413452
 30
0.0
 10
9.031069
 20
11.399032
 30
0.0
 10
9.012212
 20
11.389049
 30
0.0
  0
SPLINE
  5
2af
100
AcDbEntity
  8
Layer_1
 62
7
100
AcDbSpline
 70
8
 71
3
 72
8
 73
4
 74
0
 40
0
 40
0
 40
0
 40
0
 40
1
 40
1
 40
1
 40
1
 10
9.012212
 20
11.389049
 30
0.0
 10
8.984481
 20
11.375738
 30
0.0
 10
8.961187
 20
11.343570
 30
0.0
 10
8.913490
 20
11.254831
 30
0.0
  0
SPLINE
  5
2b0
100
AcDbEntity
  8
Layer_1
 62
7
100
AcDbSpline
 70
8
 71
3
 72
8
 73
4
 74
0
 40
0
 40
0
 40
0
 40
0
 40
1
 40
1
 40
1
 40
1
 10
8.913490
 20
11.254831
 30
0.0
 10
8.880212
 20
11.190495
 30
0.0
 10
8.833624
 20
11.109520
 30
0.0
 10
8.811439
 20
11.072915
 30
0.0
  0
SPLINE
  5
2b1
100
AcDbEntity
  8
Layer_1
 62
7
100
AcDbSpline
 70
8
 71
3
 72
8
 73
4
 74
0
 40
0
 40
0
 40
0
 40
0
 40
1
 40
1
 40
1
 40
1
 10
8.811439
 20
11.072915
 30
0.0
 10
8.787036
 20
11.034092
 30
0.0
 10
8.769288
 20
10.987504
 30
0.0
 10
8.764851
 20
10.956445
 30
0.0
  0
SPLINE
  5
2b2
100
AcDbEntity
  8
Layer_1
 62
7
100
AcDbSpline
 70
8
 71
3
 72
8
 73
4
 74
0
 40
0
 40
0
 40
0
 40
0
 40
1
 40
1
 40
1
 40
1
 10
8.764851
 20
10.956445
 30
0.0
 10
8.755977
 20
10.885454
 30
0.0
 10
8.742667
 20
10.825555
 30
0.0
 10
8.720482
 20
10.766765
 30
0.0
  0
SPLINE
  5
2b3
100
AcDbEntity
  8
Layer_1
 62
7
100
AcDbSpline
 70
8
 71
3
 72
8
 73
4
 74
0
 40
0
 40
0
 40
0
 40
0
 40
1
 40
1
 40
1
 40
1
 10
8.720482
 20
10.766765
 30
0.0
 10
8.706062
 20
10.730160
 30
0.0
 10
8.702734
 20
10.694665
 30
0.0
 10
8.707171
 20
10.633656
 30
0.0
  0
SPLINE
  5
2b4
100
AcDbEntity
  8
Layer_1
 62
7
100
AcDbSpline
 70
8
 71
3
 72
8
 73
4
 74
0
 40
0
 40
0
 40
0
 40
0
 40
1
 40
1
 40
1
 40
1
 10
8.707171
 20
10.633656
 30
0.0
 10
8.711608
 20
10.554900
 30
0.0
 10
8.710499
 20
10.548245
 30
0.0
 10
8.680549
 20
10.514968
 30
0.0
  0
SPLINE
  5
2b5
100
AcDbEntity
  8
Layer_1
 62
7
100
AcDbSpline
 70
8
 71
3
 72
8
 73
4
 74
0
 40
0
 40
0
 40
0
 40
0
 40
1
 40
1
 40
1
 40
1
 10
8.680549
 20
10.514968
 30
0.0
 10
8.663911
 20
10.495001
 30
0.0
 10
8.645053
 20
10.459506
 30
0.0
 10
8.639507
 20
10.437321
 30
0.0
  0
SPLINE
  5
2b6
100
AcDbEntity
  8
Layer_1
 62
7
100
AcDbSpline
 70
8
 71
3
 72
8
 73
4
 74
0
 40
0
 40
0
 40
0
 40
0
 40
1
 40
1
 40
1
 40
1
 10
8.639507
 20
10.437321
 30
0.0
 10
8.609558
 20
10.318632
 30
0.0
 10
8.569625
 20
10.037995
 30
0.0
 10
8.554096
 20
9.846096
 30
0.0
  0
SPLINE
  5
2b7
100
AcDbEntity
  8
Layer_1
 62
7
100
AcDbSpline
 70
8
 71
3
 72
8
 73
4
 74
0
 40
0
 40
0
 40
0
 40
0
 40
1
 40
1
 40
1
 40
1
 10
8.554096
 20
9.846096
 30
0.0
 10
8.535239
 20
9.607609
 30
0.0
 10
8.530802
 20
9.586534
 30
0.0
 10
8.473121
 20
9.476719
 30
0.0
  0
SPLINE
  5
2b8
100
AcDbEntity
  8
Layer_1
 62
7
100
AcDbSpline
 70
8
 71
3
 72
8
 73
4
 74
0
 40
0
 40
0
 40
0
 40
0
 40
1
 40
1
 40
1
 40
1
 10
8.473121
 20
9.476719
 30
0.0
 10
8.420987
 20
9.375778
 30
0.0
 10
8.405458
 20
9.366904
 30
0.0
 10
8.316718
 20
9.381324
 30
0.0
  0
SPLINE
  5
2b9
100
AcDbEntity
  8
Layer_1
 62
7
100
AcDbSpline
 70
8
 71
3
 72
8
 73
4
 74
0
 40
0
 40
0
 40
0
 40
0
 40
1
 40
1
 40
1
 40
1
 10
8.316718
 20
9.381324
 30
0.0
 10
8.188047
 20
9.401291
 30
0.0
 10
8.139240
 20
9.437896
 30
0.0
 10
8.153660
 20
9.497795
 30
0.0
  0
SPLINE
  5
2ba
100
AcDbEntity
  8
Layer_1
 62
7
100
AcDbSpline
 70
8
 71
3
 72
8
 73
4
 74
0
 40
0
 40
0
 40
0
 40
0
 40
1
 40
1
 40
1
 40
1
 10
8.153660
 20
9.497795
 30
0.0
 10
8.158097
 20
9.513324
 30
0.0
 10
8.152551
 20
9.548820
 30
0.0
 10
8.143677
 20
9.577660
 30
0.0
  0
SPLINE
  5
2bb
100
AcDbEntity
  8
Layer_1
 62
7
100
AcDbSpline
 70
8
 71
3
 72
8
 73
4
 74
0
 40
0
 40
0
 40
0
 40
0
 40
1
 40
1
 40
1
 40
1
 10
8.143677
 20
9.577660
 30
0.0
 10
8.127038
 20
9.624248
 30
0.0
 10
8.127038
 20
9.658634
 30
0.0
 10
8.138131
 20
9.884919
 30
0.0
  0
SPLINE
  5
2bc
100
AcDbEntity
  8
Layer_1
 62
7
100
AcDbSpline
 70
8
 71
3
 72
8
 73
4
 74
0
 40
0
 40
0
 40
0
 40
0
 40
1
 40
1
 40
1
 40
1
 10
8.138131
 20
9.884919
 30
0.0
 10
8.144786
 20
10.024684
 30
0.0
 10
8.153660
 20
10.191070
 30
0.0
 10
8.159206
 20
10.252078
 30
0.0
  0
SPLINE
  5
2bd
100
AcDbEntity
  8
Layer_1
 62
7
100
AcDbSpline
 70
8
 71
3
 72
8
 73
4
 74
0
 40
0
 40
0
 40
0
 40
0
 40
1
 40
1
 40
1
 40
1
 10
8.159206
 20
10.252078
 30
0.0
 10
8.166971
 20
10.359674
 30
0.0
 10
8.165862
 20
10.388514
 30
0.0
 10
8.139240
 20
10.578194
 30
0.0
  0
SPLINE
  5
2be
100
AcDbEntity
  8
Layer_1
 62
7
100
AcDbSpline
 70
8
 71
3
 72
8
 73
4
 74
0
 40
0
 40
0
 40
0
 40
0
 40
1
 40
1
 40
1
 40
1
 10
8.139240
 20
10.578194
 30
0.0
 10
8.132585
 20
10.623673
 30
0.0
 10
8.127038
 20
10.689118
 30
0.0
 10
8.127038
 20
10.722396
 30
0.0
  0
SPLINE
  5
2bf
100
AcDbEntity
  8
Layer_1
 62
7
100
AcDbSpline
 70
8
 71
3
 72
8
 73
4
 74
0
 40
0
 40
0
 40
0
 40
0
 40
1
 40
1
 40
1
 40
1
 10
8.127038
 20
10.722396
 30
0.0
 10
8.127038
 20
10.785622
 30
0.0
 10
8.098198
 20
10.978630
 30
0.0
 10
8.060484
 20
11.171638
 30
0.0
  0
SPLINE
  5
2c0
100
AcDbEntity
  8
Layer_1
 62
7
100
AcDbSpline
 70
8
 71
3
 72
8
 73
4
 74
0
 40
0
 40
0
 40
0
 40
0
 40
1
 40
1
 40
1
 40
1
 10
8.060484
 20
11.171638
 30
0.0
 10
8.048282
 20
11.232646
 30
0.0
 10
8.022770
 20
11.420108
 30
0.0
 10
8.005022
 20
11.587603
 30
0.0
  0
SPLINE
  5
2c1
100
AcDbEntity
  8
Layer_1
 62
7
100
AcDbSpline
 70
8
 71
3
 72
8
 73
4
 74
0
 40
0
 40
0
 40
0
 40
0
 40
1
 40
1
 40
1
 40
1
 10
8.005022
 20
11.587603
 30
0.0
 10
7.970636
 20
11.898190
 30
0.0
 10
7.934031
 20
12.168845
 30
0.0
 10
7.921829
 20
12.199903
 30
0.0
  0
SPLINE
  5
2c2
100
AcDbEntity
  8
Layer_1
 62
7
100
AcDbSpline
 70
8
 71
3
 72
8
 73
4
 74
0
 40
0
 40
0
 40
0
 40
0
 40
1
 40
1
 40
1
 40
1
 10
7.921829
 20
12.199903
 30
0.0
 10
7.918501
 20
12.208777
 30
0.0
 10
7.900753
 20
12.227634
 30
0.0
 10
7.881896
 20
12.240945
 30
0.0
  0
SPLINE
  5
2c3
100
AcDbEntity
  8
Layer_1
 62
7
100
AcDbSpline
 70
8
 71
3
 72
8
 73
4
 74
0
 40
0
 40
0
 40
0
 40
0
 40
1
 40
1
 40
1
 40
1
 10
7.881896
 20
12.240945
 30
0.0
 10
7.864149
 20
12.254256
 30
0.0
 10
7.837527
 20
12.291970
 30
0.0
 10
7.823107
 20
12.323029
 30
0.0
  0
SPLINE
  5
2c4
100
AcDbEntity
  8
Layer_1
 62
7
100
AcDbSpline
 70
8
 71
3
 72
8
 73
4
 74
0
 40
0
 40
0
 40
0
 40
0
 40
1
 40
1
 40
1
 40
1
 10
7.823107
 20
12.323029
 30
0.0
 10
7.785392
 20
12.408440
 30
0.0
 10
7.644519
 20
12.559297
 30
0.0
 10
7.525830
 20
12.641381
 30
0.0
  0
SPLINE
  5
2c5
100
AcDbEntity
  8
Layer_1
 62
7
100
AcDbSpline
 70
8
 71
3
 72
8
 73
4
 74
0
 40
0
 40
0
 40
0
 40
0
 40
1
 40
1
 40
1
 40
1
 10
7.525830
 20
12.641381
 30
0.0
 10
7.442637
 20
12.700171
 30
0.0
 10
7.376083
 20
12.724574
 30
0.0
 10
7.244083
 20
12.746759
 30
0.0
  0
SPLINE
  5
2c6
100
AcDbEntity
  8
Layer_1
 62
7
100
AcDbSpline
 70
8
 71
3
 72
8
 73
4
 74
0
 40
0
 40
0
 40
0
 40
0
 40
1
 40
1
 40
1
 40
1
 10
7.244083
 20
12.746759
 30
0.0
 10
7.100991
 20
12.771162
 30
0.0
 10
6.998941
 20
12.803330
 30
0.0
 10
6.975647
 20
12.831061
 30
0.0
  0
SPLINE
  5
2c7
100
AcDbEntity
  8
Layer_1
 62
7
100
AcDbSpline
 70
8
 71
3
 72
8
 73
4
 74
0
 40
0
 40
0
 40
0
 40
0
 40
1
 40
1
 40
1
 40
1
 10
6.975647
 20
12.831061
 30
0.0
 10
6.965664
 20
12.843262
 30
0.0
 10
6.934605
 20
12.863229
 30
0.0
 10
6.906874
 20
12.875430
 30
0.0
  0
SPLINE
  5
2c8
100
AcDbEntity
  8
Layer_1
 62
7
100
AcDbSpline
 70
8
 71
3
 72
8
 73
4
 74
0
 40
0
 40
0
 40
0
 40
0
 40
1
 40
1
 40
1
 40
1
 10
6.906874
 20
12.875430
 30
0.0
 10
6.879143
 20
12.887632
 30
0.0
 10
6.839211
 20
12.910926
 30
0.0
 10
6.818135
 20
12.928674
 30
0.0
  0
SPLINE
  5
2c9
100
AcDbEntity
  8
Layer_1
 62
7
100
AcDbSpline
 70
8
 71
3
 72
8
 73
4
 74
0
 40
0
 40
0
 40
0
 40
0
 40
1
 40
1
 40
1
 40
1
 10
6.818135
 20
12.928674
 30
0.0
 10
6.768219
 20
12.968607
 30
0.0
 10
6.747144
 20
12.979699
 30
0.0
 10
6.653968
 20
13.012976
 30
0.0
  0
SPLINE
  5
2ca
100
AcDbEntity
  8
Layer_1
 62
7
100
AcDbSpline
 70
8
 71
3
 72
8
 73
4
 74
0
 40
0
 40
0
 40
0
 40
0
 40
1
 40
1
 40
1
 40
1
 10
6.653968
 20
13.012976
 30
0.0
 10
6.565228
 20
13.045144
 30
0.0
 10
6.566338
 20
13.045144
 30
0.0
 10
6.556355
 20
13.028506
 30
0.0
  0
LWPOLYLINE
  5
2cb
100
AcDbEntity
  8
Layer_1
 62
7
100
AcDbPolyline
 90
3
 70
0
 10
9.583471
 20
11.039638
 30
0.0
 10
9.576815
 20
11.149453
 30
0.0
 10
9.509151
 20
11.230428
 30
0.0
  0
SPLINE
  5
2cc
100
AcDbEntity
  8
Layer_1
 62
7
100
AcDbSpline
 70
8
 71
3
 72
8
 73
4
 74
0
 40
0
 40
0
 40
0
 40
0
 40
1
 40
1
 40
1
 40
1
 10
6.843648
 20
12.547095
 30
0.0
 10
6.978975
 20
12.500507
 30
0.0
 10
7.017798
 20
12.471667
 30
0.0
 10
7.055513
 20
12.389583
 30
0.0
  0
SPLINE
  5
2cd
100
AcDbEntity
  8
Layer_1
 62
7
100
AcDbSpline
 70
8
 71
3
 72
8
 73
4
 74
0
 40
0
 40
0
 40
0
 40
0
 40
1
 40
1
 40
1
 40
1
 10
7.055513
 20
12.389583
 30
0.0
 10
7.096554
 20
12.303063
 30
0.0
 10
7.119848
 20
12.279769
 30
0.0
 10
7.214134
 20
12.234290
 30
0.0
  0
SPLINE
  5
2ce
100
AcDbEntity
  8
Layer_1
 62
7
100
AcDbSpline
 70
8
 71
3
 72
8
 73
4
 74
0
 40
0
 40
0
 40
0
 40
0
 40
1
 40
1
 40
1
 40
1
 10
7.214134
 20
12.234290
 30
0.0
 10
7.339478
 20
12.172172
 30
0.0
 10
7.337260
 20
12.177718
 30
0.0
 10
7.349461
 20
11.959198
 30
0.0
  0
SPLINE
  5
2cf
100
AcDbEntity
  8
Layer_1
 62
7
100
AcDbSpline
 70
8
 71
3
 72
8
 73
4
 74
0
 40
0
 40
0
 40
0
 40
0
 40
1
 40
1
 40
1
 40
1
 10
7.349461
 20
11.959198
 30
0.0
 10
7.359444
 20
11.805014
 30
0.0
 10
7.368318
 20
11.742896
 30
0.0
 10
7.399377
 20
11.618662
 30
0.0
  0
SPLINE
  5
2d0
100
AcDbEntity
  8
Layer_1
 62
7
100
AcDbSpline
 70
8
 71
3
 72
8
 73
4
 74
0
 40
0
 40
0
 40
0
 40
0
 40
1
 40
1
 40
1
 40
1
 10
7.399377
 20
11.618662
 30
0.0
 10
7.420453
 20
11.535469
 30
0.0
 10
7.442637
 20
11.457822
 30
0.0
 10
7.448184
 20
11.446729
 30
0.0
  0
SPLINE
  5
2d1
100
AcDbEntity
  8
Layer_1
 62
7
100
AcDbSpline
 70
8
 71
3
 72
8
 73
4
 74
0
 40
0
 40
0
 40
0
 40
0
 40
1
 40
1
 40
1
 40
1
 10
7.448184
 20
11.446729
 30
0.0
 10
7.465931
 20
11.410124
 30
0.0
 10
7.505864
 20
11.282562
 30
0.0
 10
7.505864
 20
11.260377
 30
0.0
  0
SPLINE
  5
2d2
100
AcDbEntity
  8
Layer_1
 62
7
100
AcDbSpline
 70
8
 71
3
 72
8
 73
4
 74
0
 40
0
 40
0
 40
0
 40
0
 40
1
 40
1
 40
1
 40
1
 10
7.505864
 20
11.260377
 30
0.0
 10
7.505864
 20
11.248175
 30
0.0
 10
7.523612
 20
11.188276
 30
0.0
 10
7.544687
 20
11.127268
 30
0.0
  0
SPLINE
  5
2d3
100
AcDbEntity
  8
Layer_1
 62
7
100
AcDbSpline
 70
8
 71
3
 72
8
 73
4
 74
0
 40
0
 40
0
 40
0
 40
0
 40
1
 40
1
 40
1
 40
1
 10
7.544687
 20
11.127268
 30
0.0
 10
7.592385
 20
10.989722
 30
0.0
 10
7.605696
 20
10.903202
 30
0.0
 10
7.580183
 20
10.893219
 30
0.0
  0
SPLINE
  5
2d4
100
AcDbEntity
  8
Layer_1
 62
7
100
AcDbSpline
 70
8
 71
3
 72
8
 73
4
 74
0
 40
0
 40
0
 40
0
 40
0
 40
1
 40
1
 40
1
 40
1
 10
7.580183
 20
10.893219
 30
0.0
 10
7.559108
 20
10.885454
 30
0.0
 10
7.513629
 20
10.916513
 30
0.0
 10
7.366100
 20
11.041857
 30
0.0
  0
SPLINE
  5
2d5
100
AcDbEntity
  8
Layer_1
 62
7
100
AcDbSpline
 70
8
 71
3
 72
8
 73
4
 74
0
 40
0
 40
0
 40
0
 40
0
 40
1
 40
1
 40
1
 40
1
 10
7.366100
 20
11.041857
 30
0.0
 10
7.127613
 20
11.243738
 30
0.0
 10
6.845866
 20
11.375738
 30
0.0
 10
6.435447
 20
11.477788
 30
0.0
  0
SPLINE
  5
2d6
100
AcDbEntity
  8
Layer_1
 62
7
100
AcDbSpline
 70
8
 71
3
 72
8
 73
4
 74
0
 40
0
 40
0
 40
0
 40
0
 40
1
 40
1
 40
1
 40
1
 10
6.435447
 20
11.477788
 30
0.0
 10
6.337834
 20
11.502191
 30
0.0
 10
6.250204
 20
11.529922
 30
0.0
 10
6.241330
 20
11.538796
 30
0.0
  0
SPLINE
  5
2d7
100
AcDbEntity
  8
Layer_1
 62
7
100
AcDbSpline
 70
8
 71
3
 72
8
 73
4
 74
0
 40
0
 40
0
 40
0
 40
0
 40
1
 40
1
 40
1
 40
1
 10
6.241330
 20
11.538796
 30
0.0
 10
6.212490
 20
11.567636
 30
0.0
 10
6.221364
 20
11.660813
 30
0.0
 10
6.261297
 20
11.745115
 30
0.0
  0
SPLINE
  5
2d8
100
AcDbEntity
  8
Layer_1
 62
7
100
AcDbSpline
 70
8
 71
3
 72
8
 73
4
 74
0
 40
0
 40
0
 40
0
 40
0
 40
1
 40
1
 40
1
 40
1
 10
6.261297
 20
11.745115
 30
0.0
 10
6.281263
 20
11.786157
 30
0.0
 10
6.296792
 20
11.824980
 30
0.0
 10
6.296792
 20
11.832745
 30
0.0
  0
SPLINE
  5
2d9
100
AcDbEntity
  8
Layer_1
 62
7
100
AcDbSpline
 70
8
 71
3
 72
8
 73
4
 74
0
 40
0
 40
0
 40
0
 40
0
 40
1
 40
1
 40
1
 40
1
 10
6.296792
 20
11.832745
 30
0.0
 10
6.296792
 20
11.848274
 30
0.0
 10
6.342271
 20
11.958089
 30
0.0
 10
6.386641
 20
12.047937
 30
0.0
  0
SPLINE
  5
2da
100
AcDbEntity
  8
Layer_1
 62
7
100
AcDbSpline
 70
8
 71
3
 72
8
 73
4
 74
0
 40
0
 40
0
 40
0
 40
0
 40
1
 40
1
 40
1
 40
1
 10
6.386641
 20
12.047937
 30
0.0
 10
6.404389
 20
12.084542
 30
0.0
 10
6.434338
 20
12.176609
 30
0.0
 10
6.453195
 20
12.252038
 30
0.0
  0
SPLINE
  5
2db
100
AcDbEntity
  8
Layer_1
 62
7
100
AcDbSpline
 70
8
 71
3
 72
8
 73
4
 74
0
 40
0
 40
0
 40
0
 40
0
 40
1
 40
1
 40
1
 40
1
 10
6.453195
 20
12.252038
 30
0.0
 10
6.470943
 20
12.327466
 30
0.0
 10
6.496456
 20
12.408440
 30
0.0
 10
6.507548
 20
12.430625
 30
0.0
  0
SPLINE
  5
2dc
100
AcDbEntity
  8
Layer_1
 62
7
100
AcDbSpline
 70
8
 71
3
 72
8
 73
4
 74
0
 40
0
 40
0
 40
0
 40
0
 40
1
 40
1
 40
1
 40
1
 10
6.507548
 20
12.430625
 30
0.0
 10
6.546371
 20
12.506054
 30
0.0
 10
6.647312
 20
12.584810
 30
0.0
 10
6.707211
 20
12.584810
 30
0.0
  0
SPLINE
  5
2dd
100
AcDbEntity
  8
Layer_1
 62
7
100
AcDbSpline
 70
8
 71
3
 72
8
 73
4
 74
0
 40
0
 40
0
 40
0
 40
0
 40
1
 40
1
 40
1
 40
1
 10
6.707211
 20
12.584810
 30
0.0
 10
6.722741
 20
12.585919
 30
0.0
 10
6.783749
 20
12.568171
 30
0.0
 10
6.843648
 20
12.547095
 30
0.0
  0
LWPOLYLINE
  5
2de
100
AcDbEntity
  8
Layer_1
 62
7
100
AcDbPolyline
 90
1
 70
1
 10
6.556355
 20
13.028506
 30
0.0
  0
SPLINE
  5
2df
100
AcDbEntity
  8
Layer_1
 62
7
100
AcDbSpline
 70
8
 71
3
 72
8
 73
4
 74
0
 40
0
 40
0
 40
0
 40
0
 40
1
 40
1
 40
1
 40
1
 10
10.831366
 20
10.984176
 30
0.0
 10
10.860206
 20
10.969756
 30
0.0
 10
10.904575
 20
10.954227
 30
0.0
 10
10.928979
 20
10.950899
 30
0.0
  0
SPLINE
  5
2e0
100
AcDbEntity
  8
Layer_1
 62
7
100
AcDbSpline
 70
8
 71
3
 72
8
 73
4
 74
0
 40
0
 40
0
 40
0
 40
0
 40
1
 40
1
 40
1
 40
1
 10
10.928979
 20
10.950899
 30
0.0
 10
10.961147
 20
10.945353
 30
0.0
 10
10.994424
 20
10.926496
 30
0.0
 10
11.038793
 20
10.888782
 30
0.0
  0
SPLINE
  5
2e1
100
AcDbEntity
  8
Layer_1
 62
7
100
AcDbSpline
 70
8
 71
3
 72
8
 73
4
 74
0
 40
0
 40
0
 40
0
 40
0
 40
1
 40
1
 40
1
 40
1
 10
11.038793
 20
10.888782
 30
0.0
 10
11.103129
 20
10.834429
 30
0.0
 10
11.165247
 20
10.811135
 30
0.0
 10
11.246221
 20
10.811135
 30
0.0
  0
SPLINE
  5
2e2
100
AcDbEntity
  8
Layer_1
 62
7
100
AcDbSpline
 70
8
 71
3
 72
8
 73
4
 74
0
 40
0
 40
0
 40
0
 40
0
 40
1
 40
1
 40
1
 40
1
 10
11.246221
 20
10.811135
 30
0.0
 10
11.265078
 20
10.811135
 30
0.0
 10
11.313885
 20
10.796715
 30
0.0
 10
11.353818
 20
10.777858
 30
0.0
  0
SPLINE
  5
2e3
100
AcDbEntity
  8
Layer_1
 62
7
100
AcDbSpline
 70
8
 71
3
 72
8
 73
4
 74
0
 40
0
 40
0
 40
0
 40
0
 40
1
 40
1
 40
1
 40
1
 10
11.353818
 20
10.777858
 30
0.0
 10
11.393750
 20
10.760110
 30
0.0
 10
11.471397
 20
10.735706
 30
0.0
 10
11.524641
 20
10.722396
 30
0.0
  0
SPLINE
  5
2e4
100
AcDbEntity
  8
Layer_1
 62
7
100
AcDbSpline
 70
8
 71
3
 72
8
 73
4
 74
0
 40
0
 40
0
 40
0
 40
0
 40
1
 40
1
 40
1
 40
1
 10
11.524641
 20
10.722396
 30
0.0
 10
11.652203
 20
10.693555
 30
0.0
 10
11.764236
 20
10.648077
 30
0.0
 10
11.866286
 20
10.584850
 30
0.0
  0
SPLINE
  5
2e5
100
AcDbEntity
  8
Layer_1
 62
7
100
AcDbSpline
 70
8
 71
3
 72
8
 73
4
 74
0
 40
0
 40
0
 40
0
 40
0
 40
1
 40
1
 40
1
 40
1
 10
11.866286
 20
10.584850
 30
0.0
 10
11.938387
 20
10.539371
 30
0.0
 10
11.955026
 20
10.533825
 30
0.0
 10
12.011597
 20
10.533825
 30
0.0
  0
SPLINE
  5
2e6
100
AcDbEntity
  8
Layer_1
 62
7
100
AcDbSpline
 70
8
 71
3
 72
8
 73
4
 74
0
 40
0
 40
0
 40
0
 40
0
 40
1
 40
1
 40
1
 40
1
 10
12.011597
 20
10.533825
 30
0.0
 10
12.063731
 20
10.533825
 30
0.0
 10
12.095899
 20
10.524951
 30
0.0
 10
12.195731
 20
10.478363
 30
0.0
  0
SPLINE
  5
2e7
100
AcDbEntity
  8
Layer_1
 62
7
100
AcDbSpline
 70
8
 71
3
 72
8
 73
4
 74
0
 40
0
 40
0
 40
0
 40
0
 40
1
 40
1
 40
1
 40
1
 10
12.195731
 20
10.478363
 30
0.0
 10
12.262285
 20
10.448413
 30
0.0
 10
12.323293
 20
10.422901
 30
0.0
 10
12.332167
 20
10.422901
 30
0.0
  0
SPLINE
  5
2e8
100
AcDbEntity
  8
Layer_1
 62
7
100
AcDbSpline
 70
8
 71
3
 72
8
 73
4
 74
0
 40
0
 40
0
 40
0
 40
0
 40
1
 40
1
 40
1
 40
1
 10
12.332167
 20
10.422901
 30
0.0
 10
12.341041
 20
10.422901
 30
0.0
 10
12.362117
 20
10.410699
 30
0.0
 10
12.379865
 20
10.397388
 30
0.0
  0
SPLINE
  5
2e9
100
AcDbEntity
  8
Layer_1
 62
7
100
AcDbSpline
 70
8
 71
3
 72
8
 73
4
 74
0
 40
0
 40
0
 40
0
 40
0
 40
1
 40
1
 40
1
 40
1
 10
12.379865
 20
10.397388
 30
0.0
 10
12.410923
 20
10.371876
 30
0.0
 10
12.412033
 20
10.369657
 30
0.0
 10
12.394285
 20
10.344145
 30
0.0
  0
SPLINE
  5
2ea
100
AcDbEntity
  8
Layer_1
 62
7
100
AcDbSpline
 70
8
 71
3
 72
8
 73
4
 74
0
 40
0
 40
0
 40
0
 40
0
 40
1
 40
1
 40
1
 40
1
 10
12.394285
 20
10.344145
 30
0.0
 10
12.384302
 20
10.329725
 30
0.0
 10
12.375428
 20
10.309758
 30
0.0
 10
12.375428
 20
10.300884
 30
0.0
  0
SPLINE
  5
2eb
100
AcDbEntity
  8
Layer_1
 62
7
100
AcDbSpline
 70
8
 71
3
 72
8
 73
4
 74
0
 40
0
 40
0
 40
0
 40
0
 40
1
 40
1
 40
1
 40
1
 10
12.375428
 20
10.300884
 30
0.0
 10
12.375428
 20
10.290901
 30
0.0
 10
12.343260
 20
10.185523
 30
0.0
 10
12.304436
 20
10.066835
 30
0.0
  0
SPLINE
  5
2ec
100
AcDbEntity
  8
Layer_1
 62
7
100
AcDbSpline
 70
8
 71
3
 72
8
 73
4
 74
0
 40
0
 40
0
 40
0
 40
0
 40
1
 40
1
 40
1
 40
1
 10
12.304436
 20
10.066835
 30
0.0
 10
12.231226
 20
9.848314
 30
0.0
 10
12.209042
 20
9.734063
 30
0.0
 10
12.209042
 20
9.584315
 30
0.0
  0
SPLINE
  5
2ed
100
AcDbEntity
  8
Layer_1
 62
7
100
AcDbSpline
 70
8
 71
3
 72
8
 73
4
 74
0
 40
0
 40
0
 40
0
 40
0
 40
1
 40
1
 40
1
 40
1
 10
12.209042
 20
9.584315
 30
0.0
 10
12.209042
 20
9.547710
 30
0.0
 10
12.205714
 20
9.514433
 30
0.0
 10
12.202386
 20
9.511106
 30
0.0
  0
SPLINE
  5
2ee
100
AcDbEntity
  8
Layer_1
 62
7
100
AcDbSpline
 70
8
 71
3
 72
8
 73
4
 74
0
 40
0
 40
0
 40
0
 40
0
 40
1
 40
1
 40
1
 40
1
 10
12.202386
 20
9.511106
 30
0.0
 10
12.199058
 20
9.506669
 30
0.0
 10
12.179092
 20
9.511106
 30
0.0
 10
12.159126
 20
9.519979
 30
0.0
  0
SPLINE
  5
2ef
100
AcDbEntity
  8
Layer_1
 62
7
100
AcDbSpline
 70
8
 71
3
 72
8
 73
4
 74
0
 40
0
 40
0
 40
0
 40
0
 40
1
 40
1
 40
1
 40
1
 10
12.159126
 20
9.519979
 30
0.0
 10
12.138050
 20
9.528853
 30
0.0
 10
12.109210
 20
9.535509
 30
0.0
 10
12.095899
 20
9.535509
 30
0.0
  0
SPLINE
  5
2f0
100
AcDbEntity
  8
Layer_1
 62
7
100
AcDbSpline
 70
8
 71
3
 72
8
 73
4
 74
0
 40
0
 40
0
 40
0
 40
0
 40
1
 40
1
 40
1
 40
1
 10
12.095899
 20
9.535509
 30
0.0
 10
12.081479
 20
9.535509
 30
0.0
 10
12.051530
 20
9.545492
 30
0.0
 10
12.028235
 20
9.557694
 30
0.0
  0
SPLINE
  5
2f1
100
AcDbEntity
  8
Layer_1
 62
7
100
AcDbSpline
 70
8
 71
3
 72
8
 73
4
 74
0
 40
0
 40
0
 40
0
 40
0
 40
1
 40
1
 40
1
 40
1
 10
12.028235
 20
9.557694
 30
0.0
 10
12.004941
 20
9.569895
 30
0.0
 10
11.952807
 20
9.593189
 30
0.0
 10
11.912875
 20
9.607609
 30
0.0
  0
SPLINE
  5
2f2
100
AcDbEntity
  8
Layer_1
 62
7
100
AcDbSpline
 70
8
 71
3
 72
8
 73
4
 74
0
 40
0
 40
0
 40
0
 40
0
 40
1
 40
1
 40
1
 40
1
 10
11.912875
 20
9.607609
 30
0.0
 10
11.871833
 20
9.623139
 30
0.0
 10
11.816371
 20
9.649761
 30
0.0
 10
11.788640
 20
9.666399
 30
0.0
  0
SPLINE
  5
2f3
100
AcDbEntity
  8
Layer_1
 62
7
100
AcDbSpline
 70
8
 71
3
 72
8
 73
4
 74
0
 40
0
 40
0
 40
0
 40
0
 40
1
 40
1
 40
1
 40
1
 10
11.788640
 20
9.666399
 30
0.0
 10
11.685480
 20
9.729626
 30
0.0
 10
11.460305
 20
9.809491
 30
0.0
 10
11.371565
 20
9.815037
 30
0.0
  0
SPLINE
  5
2f4
100
AcDbEntity
  8
Layer_1
 62
7
100
AcDbSpline
 70
8
 71
3
 72
8
 73
4
 74
0
 40
0
 40
0
 40
0
 40
0
 40
1
 40
1
 40
1
 40
1
 10
11.371565
 20
9.815037
 30
0.0
 10
11.272843
 20
9.820583
 30
0.0
 10
11.221818
 20
9.812819
 30
0.0
 10
11.202961
 20
9.790634
 30
0.0
  0
SPLINE
  5
2f5
100
AcDbEntity
  8
Layer_1
 62
7
100
AcDbSpline
 70
8
 71
3
 72
8
 73
4
 74
0
 40
0
 40
0
 40
0
 40
0
 40
1
 40
1
 40
1
 40
1
 10
11.202961
 20
9.790634
 30
0.0
 10
11.187432
 20
9.772886
 30
0.0
 10
11.169684
 20
9.768449
 30
0.0
 10
11.116440
 20
9.768449
 30
0.0
  0
SPLINE
  5
2f6
100
AcDbEntity
  8
Layer_1
 62
7
100
AcDbSpline
 70
8
 71
3
 72
8
 73
4
 74
0
 40
0
 40
0
 40
0
 40
0
 40
1
 40
1
 40
1
 40
1
 10
11.116440
 20
9.768449
 30
0.0
 10
11.070961
 20
9.768449
 30
0.0
 10
11.028810
 20
9.759575
 30
0.0
 10
10.983331
 20
9.740718
 30
0.0
  0
SPLINE
  5
2f7
100
AcDbEntity
  8
Layer_1
 62
7
100
AcDbSpline
 70
8
 71
3
 72
8
 73
4
 74
0
 40
0
 40
0
 40
0
 40
0
 40
1
 40
1
 40
1
 40
1
 10
10.983331
 20
9.740718
 30
0.0
 10
10.894592
 20
9.704113
 30
0.0
 10
10.857987
 20
9.704113
 30
0.0
 10
10.849113
 20
9.740718
 30
0.0
  0
SPLINE
  5
2f8
100
AcDbEntity
  8
Layer_1
 62
7
100
AcDbSpline
 70
8
 71
3
 72
8
 73
4
 74
0
 40
0
 40
0
 40
0
 40
0
 40
1
 40
1
 40
1
 40
1
 10
10.849113
 20
9.740718
 30
0.0
 10
10.840239
 20
9.778432
 30
0.0
 10
10.811399
 20
9.776214
 30
0.0
 10
10.811399
 20
9.738500
 30
0.0
  0
SPLINE
  5
2f9
100
AcDbEntity
  8
Layer_1
 62
7
100
AcDbSpline
 70
8
 71
3
 72
8
 73
4
 74
0
 40
0
 40
0
 40
0
 40
0
 40
1
 40
1
 40
1
 40
1
 10
10.811399
 20
9.738500
 30
0.0
 10
10.811399
 20
9.693021
 30
0.0
 10
10.799198
 20
9.681928
 30
0.0
 10
10.732643
 20
9.656416
 30
0.0
  0
SPLINE
  5
2fa
100
AcDbEntity
  8
Layer_1
 62
7
100
AcDbSpline
 70
8
 71
3
 72
8
 73
4
 74
0
 40
0
 40
0
 40
0
 40
0
 40
1
 40
1
 40
1
 40
1
 10
10.732643
 20
9.656416
 30
0.0
 10
10.699366
 20
9.644214
 30
0.0
 10
10.657215
 20
9.620920
 30
0.0
 10
10.637249
 20
9.606500
 30
0.0
  0
SPLINE
  5
2fb
100
AcDbEntity
  8
Layer_1
 62
7
100
AcDbSpline
 70
8
 71
3
 72
8
 73
4
 74
0
 40
0
 40
0
 40
0
 40
0
 40
1
 40
1
 40
1
 40
1
 10
10.637249
 20
9.606500
 30
0.0
 10
10.618391
 20
9.592080
 30
0.0
 10
10.595097
 20
9.579878
 30
0.0
 10
10.586223
 20
9.579878
 30
0.0
  0
SPLINE
  5
2fc
100
AcDbEntity
  8
Layer_1
 62
7
100
AcDbSpline
 70
8
 71
3
 72
8
 73
4
 74
0
 40
0
 40
0
 40
0
 40
0
 40
1
 40
1
 40
1
 40
1
 10
10.586223
 20
9.579878
 30
0.0
 10
10.577350
 20
9.579878
 30
0.0
 10
10.561820
 20
9.569895
 30
0.0
 10
10.550728
 20
9.557694
 30
0.0
  0
SPLINE
  5
2fd
100
AcDbEntity
  8
Layer_1
 62
7
100
AcDbSpline
 70
8
 71
3
 72
8
 73
4
 74
0
 40
0
 40
0
 40
0
 40
0
 40
1
 40
1
 40
1
 40
1
 10
10.550728
 20
9.557694
 30
0.0
 10
10.539635
 20
9.545492
 30
0.0
 10
10.521888
 20
9.535509
 30
0.0
 10
10.511904
 20
9.535509
 30
0.0
  0
SPLINE
  5
2fe
100
AcDbEntity
  8
Layer_1
 62
7
100
AcDbSpline
 70
8
 71
3
 72
8
 73
4
 74
0
 40
0
 40
0
 40
0
 40
0
 40
1
 40
1
 40
1
 40
1
 10
10.511904
 20
9.535509
 30
0.0
 10
10.500812
 20
9.535509
 30
0.0
 10
10.483064
 20
9.522198
 30
0.0
 10
10.471972
 20
9.505559
 30
0.0
  0
SPLINE
  5
2ff
100
AcDbEntity
  8
Layer_1
 62
7
100
AcDbSpline
 70
8
 71
3
 72
8
 73
4
 74
0
 40
0
 40
0
 40
0
 40
0
 40
1
 40
1
 40
1
 40
1
 10
10.471972
 20
9.505559
 30
0.0
 10
10.448678
 20
9.467845
 30
0.0
 10
10.425384
 20
9.450097
 30
0.0
 10
10.392106
 20
9.441223
 30
0.0
  0
SPLINE
  5
300
100
AcDbEntity
  8
Layer_1
 62
7
100
AcDbSpline
 70
8
 71
3
 72
8
 73
4
 74
0
 40
0
 40
0
 40
0
 40
0
 40
1
 40
1
 40
1
 40
1
 10
10.392106
 20
9.441223
 30
0.0
 10
10.372140
 20
9.436786
 30
0.0
 10
10.357720
 20
9.444551
 30
0.0
 10
10.326661
 20
9.476719
 30
0.0
  0
SPLINE
  5
301
100
AcDbEntity
  8
Layer_1
 62
7
100
AcDbSpline
 70
8
 71
3
 72
8
 73
4
 74
0
 40
0
 40
0
 40
0
 40
0
 40
1
 40
1
 40
1
 40
1
 10
10.326661
 20
9.476719
 30
0.0
 10
10.293384
 20
9.511106
 30
0.0
 10
10.285619
 20
9.515542
 30
0.0
 10
10.281182
 20
9.500013
 30
0.0
  0
SPLINE
  5
302
100
AcDbEntity
  8
Layer_1
 62
7
100
AcDbSpline
 70
8
 71
3
 72
8
 73
4
 74
0
 40
0
 40
0
 40
0
 40
0
 40
1
 40
1
 40
1
 40
1
 10
10.281182
 20
9.500013
 30
0.0
 10
10.278964
 20
9.488921
 30
0.0
 10
10.285619
 20
9.472282
 30
0.0
 10
10.294493
 20
9.462299
 30
0.0
  0
SPLINE
  5
303
100
AcDbEntity
  8
Layer_1
 62
7
100
AcDbSpline
 70
8
 71
3
 72
8
 73
4
 74
0
 40
0
 40
0
 40
0
 40
0
 40
1
 40
1
 40
1
 40
1
 10
10.294493
 20
9.462299
 30
0.0
 10
10.315569
 20
9.441223
 30
0.0
 10
10.317787
 20
9.396854
 30
0.0
 10
10.298930
 20
9.381324
 30
0.0
  0
SPLINE
  5
304
100
AcDbEntity
  8
Layer_1
 62
7
100
AcDbSpline
 70
8
 71
3
 72
8
 73
4
 74
0
 40
0
 40
0
 40
0
 40
0
 40
1
 40
1
 40
1
 40
1
 10
10.298930
 20
9.381324
 30
0.0
 10
10.291166
 20
9.374669
 30
0.0
 10
10.254561
 20
9.344720
 30
0.0
 10
10.217956
 20
9.313661
 30
0.0
  0
SPLINE
  5
305
100
AcDbEntity
  8
Layer_1
 62
7
100
AcDbSpline
 70
8
 71
3
 72
8
 73
4
 74
0
 40
0
 40
0
 40
0
 40
0
 40
1
 40
1
 40
1
 40
1
 10
10.217956
 20
9.313661
 30
0.0
 10
10.138091
 20
9.247106
 30
0.0
 10
10.085956
 20
9.227140
 30
0.0
 10
10.033822
 20
9.245997
 30
0.0
  0
SPLINE
  5
306
100
AcDbEntity
  8
Layer_1
 62
7
100
AcDbSpline
 70
8
 71
3
 72
8
 73
4
 74
0
 40
0
 40
0
 40
0
 40
0
 40
1
 40
1
 40
1
 40
1
 10
10.033822
 20
9.245997
 30
0.0
 10
10.014965
 20
9.252653
 30
0.0
 10
9.994999
 20
9.258199
 30
0.0
 10
9.991671
 20
9.258199
 30
0.0
  0
SPLINE
  5
307
100
AcDbEntity
  8
Layer_1
 62
7
100
AcDbSpline
 70
8
 71
3
 72
8
 73
4
 74
0
 40
0
 40
0
 40
0
 40
0
 40
1
 40
1
 40
1
 40
1
 10
9.991671
 20
9.258199
 30
0.0
 10
9.988343
 20
9.258199
 30
0.0
 10
9.985015
 20
9.227140
 30
0.0
 10
9.985015
 20
9.189426
 30
0.0
  0
SPLINE
  5
308
100
AcDbEntity
  8
Layer_1
 62
7
100
AcDbSpline
 70
8
 71
3
 72
8
 73
4
 74
0
 40
0
 40
0
 40
0
 40
0
 40
1
 40
1
 40
1
 40
1
 10
9.985015
 20
9.189426
 30
0.0
 10
9.985015
 20
9.132855
 30
0.0
 10
9.979469
 20
9.109561
 30
0.0
 10
9.952847
 20
9.065191
 30
0.0
  0
SPLINE
  5
309
100
AcDbEntity
  8
Layer_1
 62
7
100
AcDbSpline
 70
8
 71
3
 72
8
 73
4
 74
0
 40
0
 40
0
 40
0
 40
0
 40
1
 40
1
 40
1
 40
1
 10
9.952847
 20
9.065191
 30
0.0
 10
9.936209
 20
9.035242
 30
0.0
 10
9.911806
 20
9.008620
 30
0.0
 10
9.899604
 20
9.005292
 30
0.0
  0
SPLINE
  5
30a
100
AcDbEntity
  8
Layer_1
 62
7
100
AcDbSpline
 70
8
 71
3
 72
8
 73
4
 74
0
 40
0
 40
0
 40
0
 40
0
 40
1
 40
1
 40
1
 40
1
 10
9.899604
 20
9.005292
 30
0.0
 10
9.887402
 20
9.001964
 30
0.0
 10
9.880747
 20
8.994200
 30
0.0
 10
9.884075
 20
8.985326
 30
0.0
  0
SPLINE
  5
30b
100
AcDbEntity
  8
Layer_1
 62
7
100
AcDbSpline
 70
8
 71
3
 72
8
 73
4
 74
0
 40
0
 40
0
 40
0
 40
0
 40
1
 40
1
 40
1
 40
1
 10
9.884075
 20
8.985326
 30
0.0
 10
9.894058
 20
8.958704
 30
0.0
 10
9.878528
 20
8.936519
 30
0.0
 10
9.849688
 20
8.936519
 30
0.0
  0
SPLINE
  5
30c
100
AcDbEntity
  8
Layer_1
 62
7
100
AcDbSpline
 70
8
 71
3
 72
8
 73
4
 74
0
 40
0
 40
0
 40
0
 40
0
 40
1
 40
1
 40
1
 40
1
 10
9.849688
 20
8.936519
 30
0.0
 10
9.826394
 20
8.936519
 30
0.0
 10
9.824176
 20
8.933191
 30
0.0
 10
9.834159
 20
8.920990
 30
0.0
  0
SPLINE
  5
30d
100
AcDbEntity
  8
Layer_1
 62
7
100
AcDbSpline
 70
8
 71
3
 72
8
 73
4
 74
0
 40
0
 40
0
 40
0
 40
0
 40
1
 40
1
 40
1
 40
1
 10
9.834159
 20
8.920990
 30
0.0
 10
9.844142
 20
8.908788
 30
0.0
 10
9.835268
 20
8.896587
 30
0.0
 10
9.790898
 20
8.858872
 30
0.0
  0
SPLINE
  5
30e
100
AcDbEntity
  8
Layer_1
 62
7
100
AcDbSpline
 70
8
 71
3
 72
8
 73
4
 74
0
 40
0
 40
0
 40
0
 40
0
 40
1
 40
1
 40
1
 40
1
 10
9.790898
 20
8.858872
 30
0.0
 10
9.652243
 20
8.742402
 30
0.0
 10
9.587907
 20
8.794536
 30
0.0
 10
9.681084
 20
8.948721
 30
0.0
  0
SPLINE
  5
30f
100
AcDbEntity
  8
Layer_1
 62
7
100
AcDbSpline
 70
8
 71
3
 72
8
 73
4
 74
0
 40
0
 40
0
 40
0
 40
0
 40
1
 40
1
 40
1
 40
1
 10
9.681084
 20
8.948721
 30
0.0
 10
9.705487
 20
8.989763
 30
0.0
 10
9.742092
 20
9.036351
 30
0.0
 10
9.762058
 20
9.051880
 30
0.0
  0
SPLINE
  5
310
100
AcDbEntity
  8
Layer_1
 62
7
100
AcDbSpline
 70
8
 71
3
 72
8
 73
4
 74
0
 40
0
 40
0
 40
0
 40
0
 40
1
 40
1
 40
1
 40
1
 10
9.762058
 20
9.051880
 30
0.0
 10
9.784243
 20
9.068519
 30
0.0
 10
9.801991
 20
9.092922
 30
0.0
 10
9.806428
 20
9.113998
 30
0.0
  0
SPLINE
  5
311
100
AcDbEntity
  8
Layer_1
 62
7
100
AcDbSpline
 70
8
 71
3
 72
8
 73
4
 74
0
 40
0
 40
0
 40
0
 40
0
 40
1
 40
1
 40
1
 40
1
 10
9.806428
 20
9.113998
 30
0.0
 10
9.818629
 20
9.176115
 30
0.0
 10
9.849688
 20
9.227140
 30
0.0
 10
9.887402
 20
9.250434
 30
0.0
  0
SPLINE
  5
312
100
AcDbEntity
  8
Layer_1
 62
7
100
AcDbSpline
 70
8
 71
3
 72
8
 73
4
 74
0
 40
0
 40
0
 40
0
 40
0
 40
1
 40
1
 40
1
 40
1
 10
9.887402
 20
9.250434
 30
0.0
 10
9.922898
 20
9.271510
 30
0.0
 10
9.924007
 20
9.272619
 30
0.0
 10
9.906259
 20
9.292585
 30
0.0
  0
SPLINE
  5
313
100
AcDbEntity
  8
Layer_1
 62
7
100
AcDbSpline
 70
8
 71
3
 72
8
 73
4
 74
0
 40
0
 40
0
 40
0
 40
0
 40
1
 40
1
 40
1
 40
1
 10
9.906259
 20
9.292585
 30
0.0
 10
9.888512
 20
9.312552
 30
0.0
 10
9.888512
 20
9.314770
 30
0.0
 10
9.907369
 20
9.335846
 30
0.0
  0
SPLINE
  5
314
100
AcDbEntity
  8
Layer_1
 62
7
100
AcDbSpline
 70
8
 71
3
 72
8
 73
4
 74
0
 40
0
 40
0
 40
0
 40
0
 40
1
 40
1
 40
1
 40
1
 10
9.907369
 20
9.335846
 30
0.0
 10
9.917352
 20
9.346938
 30
0.0
 10
9.929553
 20
9.380215
 30
0.0
 10
9.932881
 20
9.407946
 30
0.0
  0
SPLINE
  5
315
100
AcDbEntity
  8
Layer_1
 62
7
100
AcDbSpline
 70
8
 71
3
 72
8
 73
4
 74
0
 40
0
 40
0
 40
0
 40
0
 40
1
 40
1
 40
1
 40
1
 10
9.932881
 20
9.407946
 30
0.0
 10
9.936209
 20
9.442333
 30
0.0
 10
9.945083
 20
9.462299
 30
0.0
 10
9.958394
 20
9.470064
 30
0.0
  0
SPLINE
  5
316
100
AcDbEntity
  8
Layer_1
 62
7
100
AcDbSpline
 70
8
 71
3
 72
8
 73
4
 74
0
 40
0
 40
0
 40
0
 40
0
 40
1
 40
1
 40
1
 40
1
 10
9.958394
 20
9.470064
 30
0.0
 10
9.970595
 20
9.475610
 30
0.0
 10
9.979469
 20
9.493358
 30
0.0
 10
9.979469
 20
9.508887
 30
0.0
  0
SPLINE
  5
317
100
AcDbEntity
  8
Layer_1
 62
7
100
AcDbSpline
 70
8
 71
3
 72
8
 73
4
 74
0
 40
0
 40
0
 40
0
 40
0
 40
1
 40
1
 40
1
 40
1
 10
9.979469
 20
9.508887
 30
0.0
 10
9.979469
 20
9.568786
 30
0.0
 10
10.075973
 20
9.712987
 30
0.0
 10
10.117015
 20
9.712987
 30
0.0
  0
SPLINE
  5
318
100
AcDbEntity
  8
Layer_1
 62
7
100
AcDbSpline
 70
8
 71
3
 72
8
 73
4
 74
0
 40
0
 40
0
 40
0
 40
0
 40
1
 40
1
 40
1
 40
1
 10
10.117015
 20
9.712987
 30
0.0
 10
10.140309
 20
9.712987
 30
0.0
 10
10.139200
 20
9.718533
 30
0.0
 10
10.111469
 20
9.756248
 30
0.0
  0
SPLINE
  5
319
100
AcDbEntity
  8
Layer_1
 62
7
100
AcDbSpline
 70
8
 71
3
 72
8
 73
4
 74
0
 40
0
 40
0
 40
0
 40
0
 40
1
 40
1
 40
1
 40
1
 10
10.111469
 20
9.756248
 30
0.0
 10
10.084847
 20
9.792852
 30
0.0
 10
10.091502
 20
9.817256
 30
0.0
 10
10.135872
 20
9.839441
 30
0.0
  0
SPLINE
  5
31a
100
AcDbEntity
  8
Layer_1
 62
7
100
AcDbSpline
 70
8
 71
3
 72
8
 73
4
 74
0
 40
0
 40
0
 40
0
 40
0
 40
1
 40
1
 40
1
 40
1
 10
10.135872
 20
9.839441
 30
0.0
 10
10.159166
 20
9.850533
 30
0.0
 10
10.162494
 20
9.859407
 30
0.0
 10
10.159166
 20
9.898230
 30
0.0
  0
SPLINE
  5
31b
100
AcDbEntity
  8
Layer_1
 62
7
100
AcDbSpline
 70
8
 71
3
 72
8
 73
4
 74
0
 40
0
 40
0
 40
0
 40
0
 40
1
 40
1
 40
1
 40
1
 10
10.159166
 20
9.898230
 30
0.0
 10
10.155838
 20
9.940381
 30
0.0
 10
10.158057
 20
9.945928
 30
0.0
 10
10.192443
 20
9.963675
 30
0.0
  0
SPLINE
  5
31c
100
AcDbEntity
  8
Layer_1
 62
7
100
AcDbSpline
 70
8
 71
3
 72
8
 73
4
 74
0
 40
0
 40
0
 40
0
 40
0
 40
1
 40
1
 40
1
 40
1
 10
10.192443
 20
9.963675
 30
0.0
 10
10.240141
 20
9.988079
 30
0.0
 10
10.247905
 20
10.002499
 30
0.0
 10
10.227939
 20
10.024684
 30
0.0
  0
SPLINE
  5
31d
100
AcDbEntity
  8
Layer_1
 62
7
100
AcDbSpline
 70
8
 71
3
 72
8
 73
4
 74
0
 40
0
 40
0
 40
0
 40
0
 40
1
 40
1
 40
1
 40
1
 10
10.227939
 20
10.024684
 30
0.0
 10
10.212410
 20
10.041322
 30
0.0
 10
10.213519
 20
10.049087
 30
0.0
 10
10.237922
 20
10.097893
 30
0.0
  0
SPLINE
  5
31e
100
AcDbEntity
  8
Layer_1
 62
7
100
AcDbSpline
 70
8
 71
3
 72
8
 73
4
 74
0
 40
0
 40
0
 40
0
 40
0
 40
1
 40
1
 40
1
 40
1
 10
10.237922
 20
10.097893
 30
0.0
 10
10.276746
 20
10.172213
 30
0.0
 10
10.302258
 20
10.194397
 30
0.0
 10
10.344409
 20
10.184414
 30
0.0
  0
SPLINE
  5
31f
100
AcDbEntity
  8
Layer_1
 62
7
100
AcDbSpline
 70
8
 71
3
 72
8
 73
4
 74
0
 40
0
 40
0
 40
0
 40
0
 40
1
 40
1
 40
1
 40
1
 10
10.344409
 20
10.184414
 30
0.0
 10
10.386560
 20
10.175540
 30
0.0
 10
10.389888
 20
10.193288
 30
0.0
 10
10.351065
 20
10.218801
 30
0.0
  0
SPLINE
  5
320
100
AcDbEntity
  8
Layer_1
 62
7
100
AcDbSpline
 70
8
 71
3
 72
8
 73
4
 74
0
 40
0
 40
0
 40
0
 40
0
 40
1
 40
1
 40
1
 40
1
 10
10.351065
 20
10.218801
 30
0.0
 10
10.335535
 20
10.228784
 30
0.0
 10
10.323334
 20
10.242095
 30
0.0
 10
10.323334
 20
10.249859
 30
0.0
  0
SPLINE
  5
321
100
AcDbEntity
  8
Layer_1
 62
7
100
AcDbSpline
 70
8
 71
3
 72
8
 73
4
 74
0
 40
0
 40
0
 40
0
 40
0
 40
1
 40
1
 40
1
 40
1
 10
10.323334
 20
10.249859
 30
0.0
 10
10.323334
 20
10.256515
 30
0.0
 10
10.346628
 20
10.314195
 30
0.0
 10
10.373249
 20
10.377422
 30
0.0
  0
SPLINE
  5
322
100
AcDbEntity
  8
Layer_1
 62
7
100
AcDbSpline
 70
8
 71
3
 72
8
 73
4
 74
0
 40
0
 40
0
 40
0
 40
0
 40
1
 40
1
 40
1
 40
1
 10
10.373249
 20
10.377422
 30
0.0
 10
10.400980
 20
10.440649
 30
0.0
 10
10.423165
 20
10.501657
 30
0.0
 10
10.423165
 20
10.513858
 30
0.0
  0
SPLINE
  5
323
100
AcDbEntity
  8
Layer_1
 62
7
100
AcDbSpline
 70
8
 71
3
 72
8
 73
4
 74
0
 40
0
 40
0
 40
0
 40
0
 40
1
 40
1
 40
1
 40
1
 10
10.423165
 20
10.513858
 30
0.0
 10
10.423165
 20
10.526060
 30
0.0
 10
10.439804
 20
10.559337
 30
0.0
 10
10.460879
 20
10.588178
 30
0.0
  0
SPLINE
  5
324
100
AcDbEntity
  8
Layer_1
 62
7
100
AcDbSpline
 70
8
 71
3
 72
8
 73
4
 74
0
 40
0
 40
0
 40
0
 40
0
 40
1
 40
1
 40
1
 40
1
 10
10.460879
 20
10.588178
 30
0.0
 10
10.480846
 20
10.615909
 30
0.0
 10
10.516341
 20
10.674698
 30
0.0
 10
10.538526
 20
10.717959
 30
0.0
  0
SPLINE
  5
325
100
AcDbEntity
  8
Layer_1
 62
7
100
AcDbSpline
 70
8
 71
3
 72
8
 73
4
 74
0
 40
0
 40
0
 40
0
 40
0
 40
1
 40
1
 40
1
 40
1
 10
10.538526
 20
10.717959
 30
0.0
 10
10.581787
 20
10.802261
 30
0.0
 10
10.620610
 20
10.833320
 30
0.0
 10
10.647232
 20
10.807807
 30
0.0
  0
SPLINE
  5
326
100
AcDbEntity
  8
Layer_1
 62
7
100
AcDbSpline
 70
8
 71
3
 72
8
 73
4
 74
0
 40
0
 40
0
 40
0
 40
0
 40
1
 40
1
 40
1
 40
1
 10
10.647232
 20
10.807807
 30
0.0
 10
10.664980
 20
10.790059
 30
0.0
 10
10.700475
 20
10.775639
 30
0.0
 10
10.700475
 20
10.786732
 30
0.0
  0
SPLINE
  5
327
100
AcDbEntity
  8
Layer_1
 62
7
100
AcDbSpline
 70
8
 71
3
 72
8
 73
4
 74
0
 40
0
 40
0
 40
0
 40
0
 40
1
 40
1
 40
1
 40
1
 10
10.700475
 20
10.786732
 30
0.0
 10
10.699366
 20
10.791168
 30
0.0
 10
10.683837
 20
10.804479
 30
0.0
 10
10.663870
 20
10.816681
 30
0.0
  0
SPLINE
  5
328
100
AcDbEntity
  8
Layer_1
 62
7
100
AcDbSpline
 70
8
 71
3
 72
8
 73
4
 74
0
 40
0
 40
0
 40
0
 40
0
 40
1
 40
1
 40
1
 40
1
 10
10.663870
 20
10.816681
 30
0.0
 10
10.608408
 20
10.852177
 30
0.0
 10
10.610627
 20
10.887672
 30
0.0
 10
10.673853
 20
10.955336
 30
0.0
  0
SPLINE
  5
329
100
AcDbEntity
  8
Layer_1
 62
7
100
AcDbSpline
 70
8
 71
3
 72
8
 73
4
 74
0
 40
0
 40
0
 40
0
 40
0
 40
1
 40
1
 40
1
 40
1
 10
10.673853
 20
10.955336
 30
0.0
 10
10.733752
 20
11.019672
 30
0.0
 10
10.754828
 20
11.023000
 30
0.0
 10
10.831366
 20
10.984176
 30
0.0
  0
LWPOLYLINE
  5
32a
100
AcDbEntity
  8
Layer_1
 62
7
100
AcDbPolyline
 90
1
 70
1
 10
6.843648
 20
12.547095
 30
0.0
  0
SPLINE
  5
32b
100
AcDbEntity
  8
Layer_1
 62
7
100
AcDbSpline
 70
8
 71
3
 72
8
 73
4
 74
0
 40
0
 40
0
 40
0
 40
0
 40
1
 40
1
 40
1
 40
1
 10
9.321690
 20
10.688009
 30
0.0
 10
9.331673
 20
10.668043
 30
0.0
 10
9.339438
 20
10.549354
 30
0.0
 10
9.346093
 20
10.327506
 30
0.0
  0
SPLINE
  5
32c
100
AcDbEntity
  8
Layer_1
 62
7
100
AcDbSpline
 70
8
 71
3
 72
8
 73
4
 74
0
 40
0
 40
0
 40
0
 40
0
 40
1
 40
1
 40
1
 40
1
 10
9.346093
 20
10.327506
 30
0.0
 10
9.353858
 20
10.084583
 30
0.0
 10
9.361623
 20
9.981423
 30
0.0
 10
9.373824
 20
9.940381
 30
0.0
  0
SPLINE
  5
32d
100
AcDbEntity
  8
Layer_1
 62
7
100
AcDbSpline
 70
8
 71
3
 72
8
 73
4
 74
0
 40
0
 40
0
 40
0
 40
0
 40
1
 40
1
 40
1
 40
1
 10
9.373824
 20
9.940381
 30
0.0
 10
9.398227
 20
9.862735
 30
0.0
 10
9.397118
 20
9.822802
 30
0.0
 10
9.369387
 20
9.816147
 30
0.0
  0
SPLINE
  5
32e
100
AcDbEntity
  8
Layer_1
 62
7
100
AcDbSpline
 70
8
 71
3
 72
8
 73
4
 74
0
 40
0
 40
0
 40
0
 40
0
 40
1
 40
1
 40
1
 40
1
 10
9.369387
 20
9.816147
 30
0.0
 10
9.343875
 20
9.809491
 30
0.0
 10
9.342765
 20
9.808382
 30
0.0
 10
9.360513
 20
9.780651
 30
0.0
  0
SPLINE
  5
32f
100
AcDbEntity
  8
Layer_1
 62
7
100
AcDbSpline
 70
8
 71
3
 72
8
 73
4
 74
0
 40
0
 40
0
 40
0
 40
0
 40
1
 40
1
 40
1
 40
1
 10
9.360513
 20
9.780651
 30
0.0
 10
9.381589
 20
9.747374
 30
0.0
 10
9.364950
 20
9.722970
 30
0.0
 10
9.325018
 20
9.730735
 30
0.0
  0
SPLINE
  5
330
100
AcDbEntity
  8
Layer_1
 62
7
100
AcDbSpline
 70
8
 71
3
 72
8
 73
4
 74
0
 40
0
 40
0
 40
0
 40
0
 40
1
 40
1
 40
1
 40
1
 10
9.325018
 20
9.730735
 30
0.0
 10
9.298396
 20
9.736281
 30
0.0
 10
9.291740
 20
9.734063
 30
0.0
 10
9.291740
 20
9.718533
 30
0.0
  0
SPLINE
  5
331
100
AcDbEntity
  8
Layer_1
 62
7
100
AcDbSpline
 70
8
 71
3
 72
8
 73
4
 74
0
 40
0
 40
0
 40
0
 40
0
 40
1
 40
1
 40
1
 40
1
 10
9.291740
 20
9.718533
 30
0.0
 10
9.291740
 20
9.707441
 30
0.0
 10
9.300614
 20
9.688584
 30
0.0
 10
9.310597
 20
9.677492
 30
0.0
  0
SPLINE
  5
332
100
AcDbEntity
  8
Layer_1
 62
7
100
AcDbSpline
 70
8
 71
3
 72
8
 73
4
 74
0
 40
0
 40
0
 40
0
 40
0
 40
1
 40
1
 40
1
 40
1
 10
9.310597
 20
9.677492
 30
0.0
 10
9.336110
 20
9.649761
 30
0.0
 10
9.333892
 20
9.600954
 30
0.0
 10
9.305051
 20
9.559912
 30
0.0
  0
SPLINE
  5
333
100
AcDbEntity
  8
Layer_1
 62
7
100
AcDbSpline
 70
8
 71
3
 72
8
 73
4
 74
0
 40
0
 40
0
 40
0
 40
0
 40
1
 40
1
 40
1
 40
1
 10
9.305051
 20
9.559912
 30
0.0
 10
9.276211
 20
9.519979
 30
0.0
 10
9.275102
 20
9.501122
 30
0.0
 10
9.298396
 20
9.455644
 30
0.0
  0
SPLINE
  5
334
100
AcDbEntity
  8
Layer_1
 62
7
100
AcDbSpline
 70
8
 71
3
 72
8
 73
4
 74
0
 40
0
 40
0
 40
0
 40
0
 40
1
 40
1
 40
1
 40
1
 10
9.298396
 20
9.455644
 30
0.0
 10
9.312816
 20
9.427913
 30
0.0
 10
9.315034
 20
9.402400
 30
0.0
 10
9.310597
 20
9.343610
 30
0.0
  0
SPLINE
  5
335
100
AcDbEntity
  8
Layer_1
 62
7
100
AcDbSpline
 70
8
 71
3
 72
8
 73
4
 74
0
 40
0
 40
0
 40
0
 40
0
 40
1
 40
1
 40
1
 40
1
 10
9.310597
 20
9.343610
 30
0.0
 10
9.302833
 20
9.260417
 30
0.0
 10
9.280648
 20
9.213829
 30
0.0
 10
9.247371
 20
9.213829
 30
0.0
  0
SPLINE
  5
336
100
AcDbEntity
  8
Layer_1
 62
7
100
AcDbSpline
 70
8
 71
3
 72
8
 73
4
 74
0
 40
0
 40
0
 40
0
 40
0
 40
1
 40
1
 40
1
 40
1
 10
9.247371
 20
9.213829
 30
0.0
 10
9.235169
 20
9.213829
 30
0.0
 10
9.208547
 20
9.199409
 30
0.0
 10
9.188581
 20
9.180552
 30
0.0
  0
SPLINE
  5
337
100
AcDbEntity
  8
Layer_1
 62
7
100
AcDbSpline
 70
8
 71
3
 72
8
 73
4
 74
0
 40
0
 40
0
 40
0
 40
0
 40
1
 40
1
 40
1
 40
1
 10
9.188581
 20
9.180552
 30
0.0
 10
9.147539
 20
9.145056
 30
0.0
 10
9.116480
 20
9.139510
 30
0.0
 10
9.078766
 20
9.159476
 30
0.0
  0
SPLINE
  5
338
100
AcDbEntity
  8
Layer_1
 62
7
100
AcDbSpline
 70
8
 71
3
 72
8
 73
4
 74
0
 40
0
 40
0
 40
0
 40
0
 40
1
 40
1
 40
1
 40
1
 10
9.078766
 20
9.159476
 30
0.0
 10
9.059909
 20
9.169460
 30
0.0
 10
9.047708
 20
9.168350
 30
0.0
 10
9.017758
 20
9.152821
 30
0.0
  0
SPLINE
  5
339
100
AcDbEntity
  8
Layer_1
 62
7
100
AcDbSpline
 70
8
 71
3
 72
8
 73
4
 74
0
 40
0
 40
0
 40
0
 40
0
 40
1
 40
1
 40
1
 40
1
 10
9.017758
 20
9.152821
 30
0.0
 10
8.981153
 20
9.132855
 30
0.0
 10
8.978935
 20
9.132855
 30
0.0
 10
8.930128
 20
9.157258
 30
0.0
  0
SPLINE
  5
33a
100
AcDbEntity
  8
Layer_1
 62
7
100
AcDbSpline
 70
8
 71
3
 72
8
 73
4
 74
0
 40
0
 40
0
 40
0
 40
0
 40
1
 40
1
 40
1
 40
1
 10
8.930128
 20
9.157258
 30
0.0
 10
8.885759
 20
9.178334
 30
0.0
 10
8.880212
 20
9.184989
 30
0.0
 10
8.886868
 20
9.206065
 30
0.0
  0
SPLINE
  5
33b
100
AcDbEntity
  8
Layer_1
 62
7
100
AcDbSpline
 70
8
 71
3
 72
8
 73
4
 74
0
 40
0
 40
0
 40
0
 40
0
 40
1
 40
1
 40
1
 40
1
 10
8.886868
 20
9.206065
 30
0.0
 10
8.891305
 20
9.219375
 30
0.0
 10
8.895742
 20
9.262636
 30
0.0
 10
8.896851
 20
9.302568
 30
0.0
  0
SPLINE
  5
33c
100
AcDbEntity
  8
Layer_1
 62
7
100
AcDbSpline
 70
8
 71
3
 72
8
 73
4
 74
0
 40
0
 40
0
 40
0
 40
0
 40
1
 40
1
 40
1
 40
1
 10
8.896851
 20
9.302568
 30
0.0
 10
8.897960
 20
9.360249
 30
0.0
 10
8.905725
 20
9.387980
 30
0.0
 10
8.934565
 20
9.441223
 30
0.0
  0
SPLINE
  5
33d
100
AcDbEntity
  8
Layer_1
 62
7
100
AcDbSpline
 70
8
 71
3
 72
8
 73
4
 74
0
 40
0
 40
0
 40
0
 40
0
 40
1
 40
1
 40
1
 40
1
 10
8.934565
 20
9.441223
 30
0.0
 10
8.964515
 20
9.497795
 30
0.0
 10
8.971170
 20
9.528853
 30
0.0
 10
8.985590
 20
9.655307
 30
0.0
  0
SPLINE
  5
33e
100
AcDbEntity
  8
Layer_1
 62
7
100
AcDbSpline
 70
8
 71
3
 72
8
 73
4
 74
0
 40
0
 40
0
 40
0
 40
0
 40
1
 40
1
 40
1
 40
1
 10
8.985590
 20
9.655307
 30
0.0
 10
9.003338
 20
9.816147
 30
0.0
 10
9.018867
 20
9.857188
 30
0.0
 10
9.077657
 20
9.897121
 30
0.0
  0
SPLINE
  5
33f
100
AcDbEntity
  8
Layer_1
 62
7
100
AcDbSpline
 70
8
 71
3
 72
8
 73
4
 74
0
 40
0
 40
0
 40
0
 40
0
 40
1
 40
1
 40
1
 40
1
 10
9.077657
 20
9.897121
 30
0.0
 10
9.112044
 20
9.919306
 30
0.0
 10
9.112044
 20
9.920415
 30
0.0
 10
9.090968
 20
9.947037
 30
0.0
  0
SPLINE
  5
340
100
AcDbEntity
  8
Layer_1
 62
7
100
AcDbSpline
 70
8
 71
3
 72
8
 73
4
 74
0
 40
0
 40
0
 40
0
 40
0
 40
1
 40
1
 40
1
 40
1
 10
9.090968
 20
9.947037
 30
0.0
 10
9.065455
 20
9.980314
 30
0.0
 10
9.064346
 20
10.030230
 30
0.0
 10
9.087640
 20
10.085692
 30
0.0
  0
SPLINE
  5
341
100
AcDbEntity
  8
Layer_1
 62
7
100
AcDbSpline
 70
8
 71
3
 72
8
 73
4
 74
0
 40
0
 40
0
 40
0
 40
0
 40
1
 40
1
 40
1
 40
1
 10
9.087640
 20
10.085692
 30
0.0
 10
9.097623
 20
10.110095
 30
0.0
 10
9.109825
 20
10.165557
 30
0.0
 10
9.115371
 20
10.208817
 30
0.0
  0
SPLINE
  5
342
100
AcDbEntity
  8
Layer_1
 62
7
100
AcDbSpline
 70
8
 71
3
 72
8
 73
4
 74
0
 40
0
 40
0
 40
0
 40
0
 40
1
 40
1
 40
1
 40
1
 10
9.115371
 20
10.208817
 30
0.0
 10
9.119808
 20
10.253187
 30
0.0
 10
9.135338
 20
10.313086
 30
0.0
 10
9.147539
 20
10.341926
 30
0.0
  0
SPLINE
  5
343
100
AcDbEntity
  8
Layer_1
 62
7
100
AcDbSpline
 70
8
 71
3
 72
8
 73
4
 74
0
 40
0
 40
0
 40
0
 40
0
 40
1
 40
1
 40
1
 40
1
 10
9.147539
 20
10.341926
 30
0.0
 10
9.161959
 20
10.375203
 30
0.0
 10
9.177489
 20
10.448413
 30
0.0
 10
9.187472
 20
10.533825
 30
0.0
  0
SPLINE
  5
344
100
AcDbEntity
  8
Layer_1
 62
7
100
AcDbSpline
 70
8
 71
3
 72
8
 73
4
 74
0
 40
0
 40
0
 40
0
 40
0
 40
1
 40
1
 40
1
 40
1
 10
9.187472
 20
10.533825
 30
0.0
 10
9.206329
 20
10.694665
 30
0.0
 10
9.220749
 20
10.725723
 30
0.0
 10
9.272883
 20
10.720177
 30
0.0
  0
SPLINE
  5
345
100
AcDbEntity
  8
Layer_1
 62
7
100
AcDbSpline
 70
8
 71
3
 72
8
 73
4
 74
0
 40
0
 40
0
 40
0
 40
0
 40
1
 40
1
 40
1
 40
1
 10
9.272883
 20
10.720177
 30
0.0
 10
9.298396
 20
10.717959
 30
0.0
 10
9.311707
 20
10.709085
 30
0.0
 10
9.321690
 20
10.688009
 30
0.0
  0
LWPOLYLINE
  5
346
100
AcDbEntity
  8
Layer_1
 62
7
100
AcDbPolyline
 90
1
 70
1
 10
10.831366
 20
10.984176
 30
0.0
  0
SPLINE
  5
347
100
AcDbEntity
  8
Layer_1
 62
7
100
AcDbSpline
 70
8
 71
3
 72
8
 73
4
 74
0
 40
0
 40
0
 40
0
 40
0
 40
1
 40
1
 40
1
 40
1
 10
10.142527
 20
7.798439
 30
0.0
 10
10.191334
 20
7.760725
 30
0.0
 10
10.223502
 20
7.708591
 30
0.0
 10
10.223502
 20
7.666439
 30
0.0
  0
SPLINE
  5
348
100
AcDbEntity
  8
Layer_1
 62
7
100
AcDbSpline
 70
8
 71
3
 72
8
 73
4
 74
0
 40
0
 40
0
 40
0
 40
0
 40
1
 40
1
 40
1
 40
1
 10
10.223502
 20
7.666439
 30
0.0
 10
10.223502
 20
7.617633
 30
0.0
 10
10.152511
 20
7.419079
 30
0.0
 10
10.123670
 20
7.389129
 30
0.0
  0
SPLINE
  5
349
100
AcDbEntity
  8
Layer_1
 62
7
100
AcDbSpline
 70
8
 71
3
 72
8
 73
4
 74
0
 40
0
 40
0
 40
0
 40
0
 40
1
 40
1
 40
1
 40
1
 10
10.123670
 20
7.389129
 30
0.0
 10
10.110360
 20
7.374709
 30
0.0
 10
10.085956
 20
7.360289
 30
0.0
 10
10.070427
 20
7.355852
 30
0.0
  0
SPLINE
  5
34a
100
AcDbEntity
  8
Layer_1
 62
7
100
AcDbSpline
 70
8
 71
3
 72
8
 73
4
 74
0
 40
0
 40
0
 40
0
 40
0
 40
1
 40
1
 40
1
 40
1
 10
10.070427
 20
7.355852
 30
0.0
 10
10.054898
 20
7.352524
 30
0.0
 10
10.021620
 20
7.334777
 30
0.0
 10
9.997217
 20
7.317029
 30
0.0
  0
SPLINE
  5
34b
100
AcDbEntity
  8
Layer_1
 62
7
100
AcDbSpline
 70
8
 71
3
 72
8
 73
4
 74
0
 40
0
 40
0
 40
0
 40
0
 40
1
 40
1
 40
1
 40
1
 10
9.997217
 20
7.317029
 30
0.0
 10
9.936209
 20
7.274878
 30
0.0
 10
9.908478
 20
7.268222
 30
0.0
 10
9.886293
 20
7.289298
 30
0.0
  0
SPLINE
  5
34c
100
AcDbEntity
  8
Layer_1
 62
7
100
AcDbSpline
 70
8
 71
3
 72
8
 73
4
 74
0
 40
0
 40
0
 40
0
 40
0
 40
1
 40
1
 40
1
 40
1
 10
9.886293
 20
7.289298
 30
0.0
 10
9.851907
 20
7.323684
 30
0.0
 10
9.865217
 20
7.359180
 30
0.0
 10
9.939537
 20
7.436827
 30
0.0
  0
SPLINE
  5
34d
100
AcDbEntity
  8
Layer_1
 62
7
100
AcDbSpline
 70
8
 71
3
 72
8
 73
4
 74
0
 40
0
 40
0
 40
0
 40
0
 40
1
 40
1
 40
1
 40
1
 10
9.939537
 20
7.436827
 30
0.0
 10
10.048242
 20
7.551078
 30
0.0
 10
10.068208
 20
7.604322
 30
0.0
 10
10.039368
 20
7.706372
 30
0.0
  0
SPLINE
  5
34e
100
AcDbEntity
  8
Layer_1
 62
7
100
AcDbSpline
 70
8
 71
3
 72
8
 73
4
 74
0
 40
0
 40
0
 40
0
 40
0
 40
1
 40
1
 40
1
 40
1
 10
10.039368
 20
7.706372
 30
0.0
 10
10.024948
 20
7.758506
 30
0.0
 10
10.023839
 20
7.778473
 30
0.0
 10
10.032713
 20
7.799548
 30
0.0
  0
SPLINE
  5
34f
100
AcDbEntity
  8
Layer_1
 62
7
100
AcDbSpline
 70
8
 71
3
 72
8
 73
4
 74
0
 40
0
 40
0
 40
0
 40
0
 40
1
 40
1
 40
1
 40
1
 10
10.032713
 20
7.799548
 30
0.0
 10
10.049351
 20
7.836153
 30
0.0
 10
10.093721
 20
7.836153
 30
0.0
 10
10.142527
 20
7.798439
 30
0.0
  0
LWPOLYLINE
  5
350
100
AcDbEntity
  8
Layer_1
 62
7
100
AcDbPolyline
 90
1
 70
1
 10
9.321690
 20
10.688009
 30
0.0
  0
SPLINE
  5
351
100
AcDbEntity
  8
Layer_1
 62
7
100
AcDbSpline
 70
8
 71
3
 72
8
 73
4
 74
0
 40
0
 40
0
 40
0
 40
0
 40
1
 40
1
 40
1
 40
1
 10
6.822572
 20
7.254911
 30
0.0
 10
6.844757
 20
7.232727
 30
0.0
 10
6.844757
 20
7.218306
 30
0.0
 10
6.819244
 20
7.185029
 30
0.0
  0
SPLINE
  5
352
100
AcDbEntity
  8
Layer_1
 62
7
100
AcDbSpline
 70
8
 71
3
 72
8
 73
4
 74
0
 40
0
 40
0
 40
0
 40
0
 40
1
 40
1
 40
1
 40
1
 10
6.819244
 20
7.185029
 30
0.0
 10
6.795950
 20
7.155080
 30
0.0
 10
6.766001
 20
7.157298
 30
0.0
 10
6.744925
 20
7.190575
 30
0.0
  0
SPLINE
  5
353
100
AcDbEntity
  8
Layer_1
 62
7
100
AcDbSpline
 70
8
 71
3
 72
8
 73
4
 74
0
 40
0
 40
0
 40
0
 40
0
 40
1
 40
1
 40
1
 40
1
 10
6.744925
 20
7.190575
 30
0.0
 10
6.730505
 20
7.210542
 30
0.0
 10
6.731614
 20
7.217197
 30
0.0
 10
6.752690
 20
7.242710
 30
0.0
  0
SPLINE
  5
354
100
AcDbEntity
  8
Layer_1
 62
7
100
AcDbSpline
 70
8
 71
3
 72
8
 73
4
 74
0
 40
0
 40
0
 40
0
 40
0
 40
1
 40
1
 40
1
 40
1
 10
6.752690
 20
7.242710
 30
0.0
 10
6.778203
 20
7.277096
 30
0.0
 10
6.798169
 20
7.280424
 30
0.0
 10
6.822572
 20
7.254911
 30
0.0
  0
LWPOLYLINE
  5
355
100
AcDbEntity
  8
Layer_1
 62
7
100
AcDbPolyline
 90
1
 70
1
 10
10.142527
 20
7.798439
 30
0.0
  0
SPLINE
  5
356
100
AcDbEntity
  8
Layer_1
 62
7
100
AcDbSpline
 70
8
 71
3
 72
8
 73
4
 74
0
 40
0
 40
0
 40
0
 40
0
 40
1
 40
1
 40
1
 40
1
 10
7.952888
 20
5.823992
 30
0.0
 10
7.945123
 20
5.804025
 30
0.0
 10
7.971745
 20
5.781841
 30
0.0
 10
7.987274
 20
5.797370
 30
0.0
  0
SPLINE
  5
357
100
AcDbEntity
  8
Layer_1
 62
7
100
AcDbSpline
 70
8
 71
3
 72
8
 73
4
 74
0
 40
0
 40
0
 40
0
 40
0
 40
1
 40
1
 40
1
 40
1
 10
7.987274
 20
5.797370
 30
0.0
 10
7.999476
 20
5.809572
 30
0.0
 10
7.988383
 20
5.841740
 30
0.0
 10
7.971745
 20
5.841740
 30
0.0
  0
SPLINE
  5
358
100
AcDbEntity
  8
Layer_1
 62
7
100
AcDbSpline
 70
8
 71
3
 72
8
 73
4
 74
0
 40
0
 40
0
 40
0
 40
0
 40
1
 40
1
 40
1
 40
1
 10
7.971745
 20
5.841740
 30
0.0
 10
7.965089
 20
5.841740
 30
0.0
 10
7.957325
 20
5.833975
 30
0.0
 10
7.952888
 20
5.823992
 30
0.0
  0
LWPOLYLINE
  5
359
100
AcDbEntity
  8
Layer_1
 62
7
100
AcDbPolyline
 90
1
 70
1
 10
6.822572
 20
7.254911
 30
0.0
  0
LWPOLYLINE
  5
35a
100
AcDbEntity
  8
Layer_1
 62
7
100
AcDbPolyline
 90
1
 70
1
 10
7.952888
 20
5.823992
 30
0.0
  0
ENDSEC
  0
SECTION
  2
OBJECTS
  0
DICTIONARY
  5
C
330
0
100
AcDbDictionary
  3
ACAD_GROUP
350
D
  3
ACAD_MLINESTYLE
350
17
  0
DICTIONARY
  5
D
330
C
100
AcDbDictionary
  0
DICTIONARY
  5
1A
330
C
100
AcDbDictionary
  0
DICTIONARY
  5
17
330
C
100
AcDbDictionary
  3
STANDARD
350
18
  0
DICTIONARY
  5
19
330
C
100
AcDbDictionary
  0
ENDSEC
  0
EOF
