G04 #@! TF.GenerationSoftware,KiCad,Pcbnew,(5.1.4)-1*
G04 #@! TF.CreationDate,2020-02-24T20:41:39-03:00*
G04 #@! TF.ProjectId,TKL2019,544b4c32-3031-4392-9e6b-696361645f70,rev?*
G04 #@! TF.SameCoordinates,Original*
G04 #@! TF.FileFunction,Legend,Bot*
G04 #@! TF.FilePolarity,Positive*
%FSLAX46Y46*%
G04 Gerber Fmt 4.6, Leading zero omitted, Abs format (unit mm)*
G04 Created by KiCad (PCBNEW (5.1.4)-1) date 2020-02-24 20:41:39*
%MOMM*%
%LPD*%
G04 APERTURE LIST*
%ADD10C,0.050000*%
%ADD11C,0.120000*%
%ADD12C,0.150000*%
%ADD13C,0.200000*%
%ADD14C,0.254000*%
G04 APERTURE END LIST*
D10*
X17550000Y-122700000D02*
X322300000Y-122700000D01*
X17550000Y-27450000D02*
X17550000Y-122700000D01*
X322300000Y-27450000D02*
X17550000Y-27450000D01*
X322300000Y-122700000D02*
X322300000Y-27450000D01*
D11*
X57550000Y-90800000D02*
X57550000Y-92000000D01*
X59310000Y-92000000D02*
X59310000Y-90800000D01*
X57550000Y-95800000D02*
X57550000Y-97000000D01*
X59310000Y-97000000D02*
X59310000Y-95800000D01*
X55050000Y-95800000D02*
X55050000Y-97000000D01*
X56810000Y-97000000D02*
X56810000Y-95800000D01*
X55050000Y-90800000D02*
X55050000Y-92000000D01*
X56810000Y-92000000D02*
X56810000Y-90800000D01*
X54310000Y-97000000D02*
X54310000Y-95800000D01*
X52550000Y-95800000D02*
X52550000Y-97000000D01*
D12*
X122050000Y-116525000D02*
X122050000Y-117800000D01*
X122625000Y-106175000D02*
X122625000Y-106850000D01*
X112275000Y-106175000D02*
X112275000Y-106850000D01*
X112275000Y-116525000D02*
X112275000Y-115850000D01*
X122625000Y-116525000D02*
X122625000Y-115850000D01*
X112275000Y-116525000D02*
X112950000Y-116525000D01*
X112275000Y-106175000D02*
X112950000Y-106175000D01*
X122625000Y-106175000D02*
X121950000Y-106175000D01*
X122625000Y-116525000D02*
X122050000Y-116525000D01*
D11*
X20994000Y-90200000D02*
X21994000Y-90200000D01*
X21994000Y-91900000D02*
X20994000Y-91900000D01*
D13*
X32750000Y-27450000D02*
X40450000Y-27450000D01*
X35405270Y-37212000D02*
G75*
G03X35405270Y-37212000I-336270J0D01*
G01*
D11*
X137474000Y-93650000D02*
X137474000Y-92450000D01*
X135714000Y-92450000D02*
X135714000Y-93650000D01*
X116664000Y-92450000D02*
X116664000Y-93650000D01*
X118424000Y-93650000D02*
X118424000Y-92450000D01*
X127580000Y-106700000D02*
X127580000Y-105500000D01*
X125820000Y-105500000D02*
X125820000Y-106700000D01*
X132050000Y-112470000D02*
X130850000Y-112470000D01*
X130850000Y-114230000D02*
X132050000Y-114230000D01*
X126450000Y-120500000D02*
X127450000Y-120500000D01*
X127450000Y-122200000D02*
X126450000Y-122200000D01*
X26994000Y-94400000D02*
X25994000Y-94400000D01*
X25994000Y-92700000D02*
X26994000Y-92700000D01*
X25994000Y-90200000D02*
X26994000Y-90200000D01*
X26994000Y-91900000D02*
X25994000Y-91900000D01*
X26994000Y-99400000D02*
X25994000Y-99400000D01*
X25994000Y-97700000D02*
X26994000Y-97700000D01*
X26994000Y-96900000D02*
X25994000Y-96900000D01*
X25994000Y-95200000D02*
X26994000Y-95200000D01*
X104950000Y-109000000D02*
X105950000Y-109000000D01*
X105950000Y-110700000D02*
X104950000Y-110700000D01*
X104950000Y-116000000D02*
X105950000Y-116000000D01*
X105950000Y-117700000D02*
X104950000Y-117700000D01*
D13*
X23800000Y-38350000D02*
X23800000Y-32550000D01*
X21400000Y-38350000D02*
X23800000Y-38350000D01*
X21400000Y-32550000D02*
X21400000Y-38350000D01*
X21400000Y-32625000D02*
X23800000Y-32625000D01*
X21400000Y-32750000D02*
X23800000Y-32750000D01*
X23800000Y-32525000D02*
X21400000Y-32525000D01*
X21400000Y-32925000D02*
X23800000Y-32925000D01*
X21400000Y-33100000D02*
X23800000Y-33100000D01*
X21400000Y-33275000D02*
X23800000Y-33275000D01*
X52400000Y-33275000D02*
X54800000Y-33275000D01*
X52400000Y-33100000D02*
X54800000Y-33100000D01*
X52400000Y-32925000D02*
X54800000Y-32925000D01*
X54800000Y-32525000D02*
X52400000Y-32525000D01*
X52400000Y-32750000D02*
X54800000Y-32750000D01*
X52400000Y-32625000D02*
X54800000Y-32625000D01*
X52400000Y-32550000D02*
X52400000Y-38350000D01*
X52400000Y-38350000D02*
X54800000Y-38350000D01*
X54800000Y-38350000D02*
X54800000Y-32550000D01*
X69500000Y-35600000D02*
X69500000Y-41400000D01*
X71900000Y-35600000D02*
X69500000Y-35600000D01*
X71900000Y-41400000D02*
X71900000Y-35600000D01*
X71900000Y-41325000D02*
X69500000Y-41325000D01*
X71900000Y-41200000D02*
X69500000Y-41200000D01*
X69500000Y-41425000D02*
X71900000Y-41425000D01*
X71900000Y-41025000D02*
X69500000Y-41025000D01*
X71900000Y-40850000D02*
X69500000Y-40850000D01*
X71900000Y-40675000D02*
X69500000Y-40675000D01*
X90950000Y-40675000D02*
X88550000Y-40675000D01*
X90950000Y-40850000D02*
X88550000Y-40850000D01*
X90950000Y-41025000D02*
X88550000Y-41025000D01*
X88550000Y-41425000D02*
X90950000Y-41425000D01*
X90950000Y-41200000D02*
X88550000Y-41200000D01*
X90950000Y-41325000D02*
X88550000Y-41325000D01*
X90950000Y-41400000D02*
X90950000Y-35600000D01*
X90950000Y-35600000D02*
X88550000Y-35600000D01*
X88550000Y-35600000D02*
X88550000Y-41400000D01*
X110000000Y-40675000D02*
X107600000Y-40675000D01*
X110000000Y-40850000D02*
X107600000Y-40850000D01*
X110000000Y-41025000D02*
X107600000Y-41025000D01*
X107600000Y-41425000D02*
X110000000Y-41425000D01*
X110000000Y-41200000D02*
X107600000Y-41200000D01*
X110000000Y-41325000D02*
X107600000Y-41325000D01*
X110000000Y-41400000D02*
X110000000Y-35600000D01*
X110000000Y-35600000D02*
X107600000Y-35600000D01*
X107600000Y-35600000D02*
X107600000Y-41400000D01*
X126650000Y-35600000D02*
X126650000Y-41400000D01*
X129050000Y-35600000D02*
X126650000Y-35600000D01*
X129050000Y-41400000D02*
X129050000Y-35600000D01*
X129050000Y-41325000D02*
X126650000Y-41325000D01*
X129050000Y-41200000D02*
X126650000Y-41200000D01*
X126650000Y-41425000D02*
X129050000Y-41425000D01*
X129050000Y-41025000D02*
X126650000Y-41025000D01*
X129050000Y-40850000D02*
X126650000Y-40850000D01*
X129050000Y-40675000D02*
X126650000Y-40675000D01*
X145700000Y-35600000D02*
X145700000Y-41400000D01*
X148100000Y-35600000D02*
X145700000Y-35600000D01*
X148100000Y-41400000D02*
X148100000Y-35600000D01*
X148100000Y-41325000D02*
X145700000Y-41325000D01*
X148100000Y-41200000D02*
X145700000Y-41200000D01*
X145700000Y-41425000D02*
X148100000Y-41425000D01*
X148100000Y-41025000D02*
X145700000Y-41025000D01*
X148100000Y-40850000D02*
X145700000Y-40850000D01*
X148100000Y-40675000D02*
X145700000Y-40675000D01*
X164750000Y-35600000D02*
X164750000Y-41400000D01*
X167150000Y-35600000D02*
X164750000Y-35600000D01*
X167150000Y-41400000D02*
X167150000Y-35600000D01*
X167150000Y-41325000D02*
X164750000Y-41325000D01*
X167150000Y-41200000D02*
X164750000Y-41200000D01*
X164750000Y-41425000D02*
X167150000Y-41425000D01*
X167150000Y-41025000D02*
X164750000Y-41025000D01*
X167150000Y-40850000D02*
X164750000Y-40850000D01*
X167150000Y-40675000D02*
X164750000Y-40675000D01*
X183800000Y-35600000D02*
X183800000Y-41400000D01*
X186200000Y-35600000D02*
X183800000Y-35600000D01*
X186200000Y-41400000D02*
X186200000Y-35600000D01*
X186200000Y-41325000D02*
X183800000Y-41325000D01*
X186200000Y-41200000D02*
X183800000Y-41200000D01*
X183800000Y-41425000D02*
X186200000Y-41425000D01*
X186200000Y-41025000D02*
X183800000Y-41025000D01*
X186200000Y-40850000D02*
X183800000Y-40850000D01*
X186200000Y-40675000D02*
X183800000Y-40675000D01*
X202850000Y-35600000D02*
X202850000Y-41400000D01*
X205250000Y-35600000D02*
X202850000Y-35600000D01*
X205250000Y-41400000D02*
X205250000Y-35600000D01*
X205250000Y-41325000D02*
X202850000Y-41325000D01*
X205250000Y-41200000D02*
X202850000Y-41200000D01*
X202850000Y-41425000D02*
X205250000Y-41425000D01*
X205250000Y-41025000D02*
X202850000Y-41025000D01*
X205250000Y-40850000D02*
X202850000Y-40850000D01*
X205250000Y-40675000D02*
X202850000Y-40675000D01*
X221900000Y-35600000D02*
X221900000Y-41400000D01*
X224300000Y-35600000D02*
X221900000Y-35600000D01*
X224300000Y-41400000D02*
X224300000Y-35600000D01*
X224300000Y-41325000D02*
X221900000Y-41325000D01*
X224300000Y-41200000D02*
X221900000Y-41200000D01*
X221900000Y-41425000D02*
X224300000Y-41425000D01*
X224300000Y-41025000D02*
X221900000Y-41025000D01*
X224300000Y-40850000D02*
X221900000Y-40850000D01*
X224300000Y-40675000D02*
X221900000Y-40675000D01*
X243350000Y-40675000D02*
X240950000Y-40675000D01*
X243350000Y-40850000D02*
X240950000Y-40850000D01*
X243350000Y-41025000D02*
X240950000Y-41025000D01*
X240950000Y-41425000D02*
X243350000Y-41425000D01*
X243350000Y-41200000D02*
X240950000Y-41200000D01*
X243350000Y-41325000D02*
X240950000Y-41325000D01*
X243350000Y-41400000D02*
X243350000Y-35600000D01*
X243350000Y-35600000D02*
X240950000Y-35600000D01*
X240950000Y-35600000D02*
X240950000Y-41400000D01*
X260000000Y-35600000D02*
X260000000Y-41400000D01*
X262400000Y-35600000D02*
X260000000Y-35600000D01*
X262400000Y-41400000D02*
X262400000Y-35600000D01*
X262400000Y-41325000D02*
X260000000Y-41325000D01*
X262400000Y-41200000D02*
X260000000Y-41200000D01*
X260000000Y-41425000D02*
X262400000Y-41425000D01*
X262400000Y-41025000D02*
X260000000Y-41025000D01*
X262400000Y-40850000D02*
X260000000Y-40850000D01*
X262400000Y-40675000D02*
X260000000Y-40675000D01*
X290950000Y-40675000D02*
X288550000Y-40675000D01*
X290950000Y-40850000D02*
X288550000Y-40850000D01*
X290950000Y-41025000D02*
X288550000Y-41025000D01*
X288550000Y-41425000D02*
X290950000Y-41425000D01*
X290950000Y-41200000D02*
X288550000Y-41200000D01*
X290950000Y-41325000D02*
X288550000Y-41325000D01*
X290950000Y-41400000D02*
X290950000Y-35600000D01*
X290950000Y-35600000D02*
X288550000Y-35600000D01*
X288550000Y-35600000D02*
X288550000Y-41400000D01*
X319500000Y-40675000D02*
X317100000Y-40675000D01*
X319500000Y-40850000D02*
X317100000Y-40850000D01*
X319500000Y-41025000D02*
X317100000Y-41025000D01*
X317100000Y-41425000D02*
X319500000Y-41425000D01*
X319500000Y-41200000D02*
X317100000Y-41200000D01*
X319500000Y-41325000D02*
X317100000Y-41325000D01*
X319500000Y-41400000D02*
X319500000Y-35600000D01*
X319500000Y-35600000D02*
X317100000Y-35600000D01*
X317100000Y-35600000D02*
X317100000Y-41400000D01*
X38550000Y-59725000D02*
X36150000Y-59725000D01*
X38550000Y-59900000D02*
X36150000Y-59900000D01*
X38550000Y-60075000D02*
X36150000Y-60075000D01*
X36150000Y-60475000D02*
X38550000Y-60475000D01*
X38550000Y-60250000D02*
X36150000Y-60250000D01*
X38550000Y-60375000D02*
X36150000Y-60375000D01*
X38550000Y-60450000D02*
X38550000Y-54650000D01*
X38550000Y-54650000D02*
X36150000Y-54650000D01*
X36150000Y-54650000D02*
X36150000Y-60450000D01*
X62350000Y-59725000D02*
X59950000Y-59725000D01*
X62350000Y-59900000D02*
X59950000Y-59900000D01*
X62350000Y-60075000D02*
X59950000Y-60075000D01*
X59950000Y-60475000D02*
X62350000Y-60475000D01*
X62350000Y-60250000D02*
X59950000Y-60250000D01*
X62350000Y-60375000D02*
X59950000Y-60375000D01*
X62350000Y-60450000D02*
X62350000Y-54650000D01*
X62350000Y-54650000D02*
X59950000Y-54650000D01*
X59950000Y-54650000D02*
X59950000Y-60450000D01*
X79000000Y-54650000D02*
X79000000Y-60450000D01*
X81400000Y-54650000D02*
X79000000Y-54650000D01*
X81400000Y-60450000D02*
X81400000Y-54650000D01*
X81400000Y-60375000D02*
X79000000Y-60375000D01*
X81400000Y-60250000D02*
X79000000Y-60250000D01*
X79000000Y-60475000D02*
X81400000Y-60475000D01*
X81400000Y-60075000D02*
X79000000Y-60075000D01*
X81400000Y-59900000D02*
X79000000Y-59900000D01*
X81400000Y-59725000D02*
X79000000Y-59725000D01*
X98050000Y-54650000D02*
X98050000Y-60450000D01*
X100450000Y-54650000D02*
X98050000Y-54650000D01*
X100450000Y-60450000D02*
X100450000Y-54650000D01*
X100450000Y-60375000D02*
X98050000Y-60375000D01*
X100450000Y-60250000D02*
X98050000Y-60250000D01*
X98050000Y-60475000D02*
X100450000Y-60475000D01*
X100450000Y-60075000D02*
X98050000Y-60075000D01*
X100450000Y-59900000D02*
X98050000Y-59900000D01*
X100450000Y-59725000D02*
X98050000Y-59725000D01*
X117100000Y-54650000D02*
X117100000Y-60450000D01*
X119500000Y-54650000D02*
X117100000Y-54650000D01*
X119500000Y-60450000D02*
X119500000Y-54650000D01*
X119500000Y-60375000D02*
X117100000Y-60375000D01*
X119500000Y-60250000D02*
X117100000Y-60250000D01*
X117100000Y-60475000D02*
X119500000Y-60475000D01*
X119500000Y-60075000D02*
X117100000Y-60075000D01*
X119500000Y-59900000D02*
X117100000Y-59900000D01*
X119500000Y-59725000D02*
X117100000Y-59725000D01*
X136150000Y-54650000D02*
X136150000Y-60450000D01*
X138550000Y-54650000D02*
X136150000Y-54650000D01*
X138550000Y-60450000D02*
X138550000Y-54650000D01*
X138550000Y-60375000D02*
X136150000Y-60375000D01*
X138550000Y-60250000D02*
X136150000Y-60250000D01*
X136150000Y-60475000D02*
X138550000Y-60475000D01*
X138550000Y-60075000D02*
X136150000Y-60075000D01*
X138550000Y-59900000D02*
X136150000Y-59900000D01*
X138550000Y-59725000D02*
X136150000Y-59725000D01*
X155200000Y-54650000D02*
X155200000Y-60450000D01*
X157600000Y-54650000D02*
X155200000Y-54650000D01*
X157600000Y-60450000D02*
X157600000Y-54650000D01*
X157600000Y-60375000D02*
X155200000Y-60375000D01*
X157600000Y-60250000D02*
X155200000Y-60250000D01*
X155200000Y-60475000D02*
X157600000Y-60475000D01*
X157600000Y-60075000D02*
X155200000Y-60075000D01*
X157600000Y-59900000D02*
X155200000Y-59900000D01*
X157600000Y-59725000D02*
X155200000Y-59725000D01*
X176650000Y-59725000D02*
X174250000Y-59725000D01*
X176650000Y-59900000D02*
X174250000Y-59900000D01*
X176650000Y-60075000D02*
X174250000Y-60075000D01*
X174250000Y-60475000D02*
X176650000Y-60475000D01*
X176650000Y-60250000D02*
X174250000Y-60250000D01*
X176650000Y-60375000D02*
X174250000Y-60375000D01*
X176650000Y-60450000D02*
X176650000Y-54650000D01*
X176650000Y-54650000D02*
X174250000Y-54650000D01*
X174250000Y-54650000D02*
X174250000Y-60450000D01*
X195700000Y-59725000D02*
X193300000Y-59725000D01*
X195700000Y-59900000D02*
X193300000Y-59900000D01*
X195700000Y-60075000D02*
X193300000Y-60075000D01*
X193300000Y-60475000D02*
X195700000Y-60475000D01*
X195700000Y-60250000D02*
X193300000Y-60250000D01*
X195700000Y-60375000D02*
X193300000Y-60375000D01*
X195700000Y-60450000D02*
X195700000Y-54650000D01*
X195700000Y-54650000D02*
X193300000Y-54650000D01*
X193300000Y-54650000D02*
X193300000Y-60450000D01*
X214750000Y-59725000D02*
X212350000Y-59725000D01*
X214750000Y-59900000D02*
X212350000Y-59900000D01*
X214750000Y-60075000D02*
X212350000Y-60075000D01*
X212350000Y-60475000D02*
X214750000Y-60475000D01*
X214750000Y-60250000D02*
X212350000Y-60250000D01*
X214750000Y-60375000D02*
X212350000Y-60375000D01*
X214750000Y-60450000D02*
X214750000Y-54650000D01*
X214750000Y-54650000D02*
X212350000Y-54650000D01*
X212350000Y-54650000D02*
X212350000Y-60450000D01*
X233800000Y-59725000D02*
X231400000Y-59725000D01*
X233800000Y-59900000D02*
X231400000Y-59900000D01*
X233800000Y-60075000D02*
X231400000Y-60075000D01*
X231400000Y-60475000D02*
X233800000Y-60475000D01*
X233800000Y-60250000D02*
X231400000Y-60250000D01*
X233800000Y-60375000D02*
X231400000Y-60375000D01*
X233800000Y-60450000D02*
X233800000Y-54650000D01*
X233800000Y-54650000D02*
X231400000Y-54650000D01*
X231400000Y-54650000D02*
X231400000Y-60450000D01*
X250450000Y-54650000D02*
X250450000Y-60450000D01*
X252850000Y-54650000D02*
X250450000Y-54650000D01*
X252850000Y-60450000D02*
X252850000Y-54650000D01*
X252850000Y-60375000D02*
X250450000Y-60375000D01*
X252850000Y-60250000D02*
X250450000Y-60250000D01*
X250450000Y-60475000D02*
X252850000Y-60475000D01*
X252850000Y-60075000D02*
X250450000Y-60075000D01*
X252850000Y-59900000D02*
X250450000Y-59900000D01*
X252850000Y-59725000D02*
X250450000Y-59725000D01*
X271900000Y-59725000D02*
X269500000Y-59725000D01*
X271900000Y-59900000D02*
X269500000Y-59900000D01*
X271900000Y-60075000D02*
X269500000Y-60075000D01*
X269500000Y-60475000D02*
X271900000Y-60475000D01*
X271900000Y-60250000D02*
X269500000Y-60250000D01*
X271900000Y-60375000D02*
X269500000Y-60375000D01*
X271900000Y-60450000D02*
X271900000Y-54650000D01*
X271900000Y-54650000D02*
X269500000Y-54650000D01*
X269500000Y-54650000D02*
X269500000Y-60450000D01*
X295700000Y-59725000D02*
X293300000Y-59725000D01*
X295700000Y-59900000D02*
X293300000Y-59900000D01*
X295700000Y-60075000D02*
X293300000Y-60075000D01*
X293300000Y-60475000D02*
X295700000Y-60475000D01*
X295700000Y-60250000D02*
X293300000Y-60250000D01*
X295700000Y-60375000D02*
X293300000Y-60375000D01*
X295700000Y-60450000D02*
X295700000Y-54650000D01*
X295700000Y-54650000D02*
X293300000Y-54650000D01*
X293300000Y-54650000D02*
X293300000Y-60450000D01*
X319500000Y-59725000D02*
X317100000Y-59725000D01*
X319500000Y-59900000D02*
X317100000Y-59900000D01*
X319500000Y-60075000D02*
X317100000Y-60075000D01*
X317100000Y-60475000D02*
X319500000Y-60475000D01*
X319500000Y-60250000D02*
X317100000Y-60250000D01*
X319500000Y-60375000D02*
X317100000Y-60375000D01*
X319500000Y-60450000D02*
X319500000Y-54650000D01*
X319500000Y-54650000D02*
X317100000Y-54650000D01*
X317100000Y-54650000D02*
X317100000Y-60450000D01*
X40930000Y-78775000D02*
X38530000Y-78775000D01*
X40930000Y-78950000D02*
X38530000Y-78950000D01*
X40930000Y-79125000D02*
X38530000Y-79125000D01*
X38530000Y-79525000D02*
X40930000Y-79525000D01*
X40930000Y-79300000D02*
X38530000Y-79300000D01*
X40930000Y-79425000D02*
X38530000Y-79425000D01*
X40930000Y-79500000D02*
X40930000Y-73700000D01*
X40930000Y-73700000D02*
X38530000Y-73700000D01*
X38530000Y-73700000D02*
X38530000Y-79500000D01*
X67130000Y-78775000D02*
X64730000Y-78775000D01*
X67130000Y-78950000D02*
X64730000Y-78950000D01*
X67130000Y-79125000D02*
X64730000Y-79125000D01*
X64730000Y-79525000D02*
X67130000Y-79525000D01*
X67130000Y-79300000D02*
X64730000Y-79300000D01*
X67130000Y-79425000D02*
X64730000Y-79425000D01*
X67130000Y-79500000D02*
X67130000Y-73700000D01*
X67130000Y-73700000D02*
X64730000Y-73700000D01*
X64730000Y-73700000D02*
X64730000Y-79500000D01*
X83780000Y-73700000D02*
X83780000Y-79500000D01*
X86180000Y-73700000D02*
X83780000Y-73700000D01*
X86180000Y-79500000D02*
X86180000Y-73700000D01*
X86180000Y-79425000D02*
X83780000Y-79425000D01*
X86180000Y-79300000D02*
X83780000Y-79300000D01*
X83780000Y-79525000D02*
X86180000Y-79525000D01*
X86180000Y-79125000D02*
X83780000Y-79125000D01*
X86180000Y-78950000D02*
X83780000Y-78950000D01*
X86180000Y-78775000D02*
X83780000Y-78775000D01*
X102830000Y-73700000D02*
X102830000Y-79500000D01*
X105230000Y-73700000D02*
X102830000Y-73700000D01*
X105230000Y-79500000D02*
X105230000Y-73700000D01*
X105230000Y-79425000D02*
X102830000Y-79425000D01*
X105230000Y-79300000D02*
X102830000Y-79300000D01*
X102830000Y-79525000D02*
X105230000Y-79525000D01*
X105230000Y-79125000D02*
X102830000Y-79125000D01*
X105230000Y-78950000D02*
X102830000Y-78950000D01*
X105230000Y-78775000D02*
X102830000Y-78775000D01*
X121880000Y-73700000D02*
X121880000Y-79500000D01*
X124280000Y-73700000D02*
X121880000Y-73700000D01*
X124280000Y-79500000D02*
X124280000Y-73700000D01*
X124280000Y-79425000D02*
X121880000Y-79425000D01*
X124280000Y-79300000D02*
X121880000Y-79300000D01*
X121880000Y-79525000D02*
X124280000Y-79525000D01*
X124280000Y-79125000D02*
X121880000Y-79125000D01*
X124280000Y-78950000D02*
X121880000Y-78950000D01*
X124280000Y-78775000D02*
X121880000Y-78775000D01*
X140930000Y-73700000D02*
X140930000Y-79500000D01*
X143330000Y-73700000D02*
X140930000Y-73700000D01*
X143330000Y-79500000D02*
X143330000Y-73700000D01*
X143330000Y-79425000D02*
X140930000Y-79425000D01*
X143330000Y-79300000D02*
X140930000Y-79300000D01*
X140930000Y-79525000D02*
X143330000Y-79525000D01*
X143330000Y-79125000D02*
X140930000Y-79125000D01*
X143330000Y-78950000D02*
X140930000Y-78950000D01*
X143330000Y-78775000D02*
X140930000Y-78775000D01*
X159980000Y-73700000D02*
X159980000Y-79500000D01*
X162380000Y-73700000D02*
X159980000Y-73700000D01*
X162380000Y-79500000D02*
X162380000Y-73700000D01*
X162380000Y-79425000D02*
X159980000Y-79425000D01*
X162380000Y-79300000D02*
X159980000Y-79300000D01*
X159980000Y-79525000D02*
X162380000Y-79525000D01*
X162380000Y-79125000D02*
X159980000Y-79125000D01*
X162380000Y-78950000D02*
X159980000Y-78950000D01*
X162380000Y-78775000D02*
X159980000Y-78775000D01*
X179030000Y-73700000D02*
X179030000Y-79500000D01*
X181430000Y-73700000D02*
X179030000Y-73700000D01*
X181430000Y-79500000D02*
X181430000Y-73700000D01*
X181430000Y-79425000D02*
X179030000Y-79425000D01*
X181430000Y-79300000D02*
X179030000Y-79300000D01*
X179030000Y-79525000D02*
X181430000Y-79525000D01*
X181430000Y-79125000D02*
X179030000Y-79125000D01*
X181430000Y-78950000D02*
X179030000Y-78950000D01*
X181430000Y-78775000D02*
X179030000Y-78775000D01*
X198080000Y-73700000D02*
X198080000Y-79500000D01*
X200480000Y-73700000D02*
X198080000Y-73700000D01*
X200480000Y-79500000D02*
X200480000Y-73700000D01*
X200480000Y-79425000D02*
X198080000Y-79425000D01*
X200480000Y-79300000D02*
X198080000Y-79300000D01*
X198080000Y-79525000D02*
X200480000Y-79525000D01*
X200480000Y-79125000D02*
X198080000Y-79125000D01*
X200480000Y-78950000D02*
X198080000Y-78950000D01*
X200480000Y-78775000D02*
X198080000Y-78775000D01*
X217130000Y-73700000D02*
X217130000Y-79500000D01*
X219530000Y-73700000D02*
X217130000Y-73700000D01*
X219530000Y-79500000D02*
X219530000Y-73700000D01*
X219530000Y-79425000D02*
X217130000Y-79425000D01*
X219530000Y-79300000D02*
X217130000Y-79300000D01*
X217130000Y-79525000D02*
X219530000Y-79525000D01*
X219530000Y-79125000D02*
X217130000Y-79125000D01*
X219530000Y-78950000D02*
X217130000Y-78950000D01*
X219530000Y-78775000D02*
X217130000Y-78775000D01*
X238580000Y-78775000D02*
X236180000Y-78775000D01*
X238580000Y-78950000D02*
X236180000Y-78950000D01*
X238580000Y-79125000D02*
X236180000Y-79125000D01*
X236180000Y-79525000D02*
X238580000Y-79525000D01*
X238580000Y-79300000D02*
X236180000Y-79300000D01*
X238580000Y-79425000D02*
X236180000Y-79425000D01*
X238580000Y-79500000D02*
X238580000Y-73700000D01*
X238580000Y-73700000D02*
X236180000Y-73700000D01*
X236180000Y-73700000D02*
X236180000Y-79500000D01*
X257630000Y-78775000D02*
X255230000Y-78775000D01*
X257630000Y-78950000D02*
X255230000Y-78950000D01*
X257630000Y-79125000D02*
X255230000Y-79125000D01*
X255230000Y-79525000D02*
X257630000Y-79525000D01*
X257630000Y-79300000D02*
X255230000Y-79300000D01*
X257630000Y-79425000D02*
X255230000Y-79425000D01*
X257630000Y-79500000D02*
X257630000Y-73700000D01*
X257630000Y-73700000D02*
X255230000Y-73700000D01*
X255230000Y-73700000D02*
X255230000Y-79500000D01*
X288580000Y-78775000D02*
X286180000Y-78775000D01*
X288580000Y-78950000D02*
X286180000Y-78950000D01*
X288580000Y-79125000D02*
X286180000Y-79125000D01*
X286180000Y-79525000D02*
X288580000Y-79525000D01*
X288580000Y-79300000D02*
X286180000Y-79300000D01*
X288580000Y-79425000D02*
X286180000Y-79425000D01*
X288580000Y-79500000D02*
X288580000Y-73700000D01*
X288580000Y-73700000D02*
X286180000Y-73700000D01*
X286180000Y-73700000D02*
X286180000Y-79500000D01*
X319530000Y-78775000D02*
X317130000Y-78775000D01*
X319530000Y-78950000D02*
X317130000Y-78950000D01*
X319530000Y-79125000D02*
X317130000Y-79125000D01*
X317130000Y-79525000D02*
X319530000Y-79525000D01*
X319530000Y-79300000D02*
X317130000Y-79300000D01*
X319530000Y-79425000D02*
X317130000Y-79425000D01*
X319530000Y-79500000D02*
X319530000Y-73700000D01*
X319530000Y-73700000D02*
X317130000Y-73700000D01*
X317130000Y-73700000D02*
X317130000Y-79500000D01*
X45694000Y-97825000D02*
X43294000Y-97825000D01*
X45694000Y-98000000D02*
X43294000Y-98000000D01*
X45694000Y-98175000D02*
X43294000Y-98175000D01*
X43294000Y-98575000D02*
X45694000Y-98575000D01*
X45694000Y-98350000D02*
X43294000Y-98350000D01*
X45694000Y-98475000D02*
X43294000Y-98475000D01*
X45694000Y-98550000D02*
X45694000Y-92750000D01*
X45694000Y-92750000D02*
X43294000Y-92750000D01*
X43294000Y-92750000D02*
X43294000Y-98550000D01*
X76144000Y-97825000D02*
X73744000Y-97825000D01*
X76144000Y-98000000D02*
X73744000Y-98000000D01*
X76144000Y-98175000D02*
X73744000Y-98175000D01*
X73744000Y-98575000D02*
X76144000Y-98575000D01*
X76144000Y-98350000D02*
X73744000Y-98350000D01*
X76144000Y-98475000D02*
X73744000Y-98475000D01*
X76144000Y-98550000D02*
X76144000Y-92750000D01*
X76144000Y-92750000D02*
X73744000Y-92750000D01*
X73744000Y-92750000D02*
X73744000Y-98550000D01*
X93294000Y-92750000D02*
X93294000Y-98550000D01*
X95694000Y-92750000D02*
X93294000Y-92750000D01*
X95694000Y-98550000D02*
X95694000Y-92750000D01*
X95694000Y-98475000D02*
X93294000Y-98475000D01*
X95694000Y-98350000D02*
X93294000Y-98350000D01*
X93294000Y-98575000D02*
X95694000Y-98575000D01*
X95694000Y-98175000D02*
X93294000Y-98175000D01*
X95694000Y-98000000D02*
X93294000Y-98000000D01*
X95694000Y-97825000D02*
X93294000Y-97825000D01*
X112344000Y-92750000D02*
X112344000Y-98550000D01*
X114744000Y-92750000D02*
X112344000Y-92750000D01*
X114744000Y-98550000D02*
X114744000Y-92750000D01*
X114744000Y-98475000D02*
X112344000Y-98475000D01*
X114744000Y-98350000D02*
X112344000Y-98350000D01*
X112344000Y-98575000D02*
X114744000Y-98575000D01*
X114744000Y-98175000D02*
X112344000Y-98175000D01*
X114744000Y-98000000D02*
X112344000Y-98000000D01*
X114744000Y-97825000D02*
X112344000Y-97825000D01*
X131394000Y-92750000D02*
X131394000Y-98550000D01*
X133794000Y-92750000D02*
X131394000Y-92750000D01*
X133794000Y-98550000D02*
X133794000Y-92750000D01*
X133794000Y-98475000D02*
X131394000Y-98475000D01*
X133794000Y-98350000D02*
X131394000Y-98350000D01*
X131394000Y-98575000D02*
X133794000Y-98575000D01*
X133794000Y-98175000D02*
X131394000Y-98175000D01*
X133794000Y-98000000D02*
X131394000Y-98000000D01*
X133794000Y-97825000D02*
X131394000Y-97825000D01*
X150444000Y-92750000D02*
X150444000Y-98550000D01*
X152844000Y-92750000D02*
X150444000Y-92750000D01*
X152844000Y-98550000D02*
X152844000Y-92750000D01*
X152844000Y-98475000D02*
X150444000Y-98475000D01*
X152844000Y-98350000D02*
X150444000Y-98350000D01*
X150444000Y-98575000D02*
X152844000Y-98575000D01*
X152844000Y-98175000D02*
X150444000Y-98175000D01*
X152844000Y-98000000D02*
X150444000Y-98000000D01*
X152844000Y-97825000D02*
X150444000Y-97825000D01*
X169494000Y-92750000D02*
X169494000Y-98550000D01*
X171894000Y-92750000D02*
X169494000Y-92750000D01*
X171894000Y-98550000D02*
X171894000Y-92750000D01*
X171894000Y-98475000D02*
X169494000Y-98475000D01*
X171894000Y-98350000D02*
X169494000Y-98350000D01*
X169494000Y-98575000D02*
X171894000Y-98575000D01*
X171894000Y-98175000D02*
X169494000Y-98175000D01*
X171894000Y-98000000D02*
X169494000Y-98000000D01*
X171894000Y-97825000D02*
X169494000Y-97825000D01*
X188544000Y-92750000D02*
X188544000Y-98550000D01*
X190944000Y-92750000D02*
X188544000Y-92750000D01*
X190944000Y-98550000D02*
X190944000Y-92750000D01*
X190944000Y-98475000D02*
X188544000Y-98475000D01*
X190944000Y-98350000D02*
X188544000Y-98350000D01*
X188544000Y-98575000D02*
X190944000Y-98575000D01*
X190944000Y-98175000D02*
X188544000Y-98175000D01*
X190944000Y-98000000D02*
X188544000Y-98000000D01*
X190944000Y-97825000D02*
X188544000Y-97825000D01*
X209994000Y-97825000D02*
X207594000Y-97825000D01*
X209994000Y-98000000D02*
X207594000Y-98000000D01*
X209994000Y-98175000D02*
X207594000Y-98175000D01*
X207594000Y-98575000D02*
X209994000Y-98575000D01*
X209994000Y-98350000D02*
X207594000Y-98350000D01*
X209994000Y-98475000D02*
X207594000Y-98475000D01*
X209994000Y-98550000D02*
X209994000Y-92750000D01*
X209994000Y-92750000D02*
X207594000Y-92750000D01*
X207594000Y-92750000D02*
X207594000Y-98550000D01*
X229044000Y-97825000D02*
X226644000Y-97825000D01*
X229044000Y-98000000D02*
X226644000Y-98000000D01*
X229044000Y-98175000D02*
X226644000Y-98175000D01*
X226644000Y-98575000D02*
X229044000Y-98575000D01*
X229044000Y-98350000D02*
X226644000Y-98350000D01*
X229044000Y-98475000D02*
X226644000Y-98475000D01*
X229044000Y-98550000D02*
X229044000Y-92750000D01*
X229044000Y-92750000D02*
X226644000Y-92750000D01*
X226644000Y-92750000D02*
X226644000Y-98550000D01*
X248094000Y-97825000D02*
X245694000Y-97825000D01*
X248094000Y-98000000D02*
X245694000Y-98000000D01*
X248094000Y-98175000D02*
X245694000Y-98175000D01*
X245694000Y-98575000D02*
X248094000Y-98575000D01*
X248094000Y-98350000D02*
X245694000Y-98350000D01*
X248094000Y-98475000D02*
X245694000Y-98475000D01*
X248094000Y-98550000D02*
X248094000Y-92750000D01*
X248094000Y-92750000D02*
X245694000Y-92750000D01*
X245694000Y-92750000D02*
X245694000Y-98550000D01*
X274286500Y-97825000D02*
X271886500Y-97825000D01*
X274286500Y-98000000D02*
X271886500Y-98000000D01*
X274286500Y-98175000D02*
X271886500Y-98175000D01*
X271886500Y-98575000D02*
X274286500Y-98575000D01*
X274286500Y-98350000D02*
X271886500Y-98350000D01*
X274286500Y-98475000D02*
X271886500Y-98475000D01*
X274286500Y-98550000D02*
X274286500Y-92750000D01*
X274286500Y-92750000D02*
X271886500Y-92750000D01*
X271886500Y-92750000D02*
X271886500Y-98550000D01*
X300486500Y-97825000D02*
X298086500Y-97825000D01*
X300486500Y-98000000D02*
X298086500Y-98000000D01*
X300486500Y-98175000D02*
X298086500Y-98175000D01*
X298086500Y-98575000D02*
X300486500Y-98575000D01*
X300486500Y-98350000D02*
X298086500Y-98350000D01*
X300486500Y-98475000D02*
X298086500Y-98475000D01*
X300486500Y-98550000D02*
X300486500Y-92750000D01*
X300486500Y-92750000D02*
X298086500Y-92750000D01*
X298086500Y-92750000D02*
X298086500Y-98550000D01*
X319536500Y-97825000D02*
X317136500Y-97825000D01*
X319536500Y-98000000D02*
X317136500Y-98000000D01*
X319536500Y-98175000D02*
X317136500Y-98175000D01*
X317136500Y-98575000D02*
X319536500Y-98575000D01*
X319536500Y-98350000D02*
X317136500Y-98350000D01*
X319536500Y-98475000D02*
X317136500Y-98475000D01*
X319536500Y-98550000D02*
X319536500Y-92750000D01*
X319536500Y-92750000D02*
X317136500Y-92750000D01*
X317136500Y-92750000D02*
X317136500Y-98550000D01*
X33769000Y-111800000D02*
X33769000Y-117600000D01*
X36169000Y-111800000D02*
X33769000Y-111800000D01*
X36169000Y-117600000D02*
X36169000Y-111800000D01*
X36169000Y-117525000D02*
X33769000Y-117525000D01*
X36169000Y-117400000D02*
X33769000Y-117400000D01*
X33769000Y-117625000D02*
X36169000Y-117625000D01*
X36169000Y-117225000D02*
X33769000Y-117225000D01*
X36169000Y-117050000D02*
X33769000Y-117050000D01*
X36169000Y-116875000D02*
X33769000Y-116875000D01*
X57579000Y-111800000D02*
X57579000Y-117600000D01*
X59979000Y-111800000D02*
X57579000Y-111800000D01*
X59979000Y-117600000D02*
X59979000Y-111800000D01*
X59979000Y-117525000D02*
X57579000Y-117525000D01*
X59979000Y-117400000D02*
X57579000Y-117400000D01*
X57579000Y-117625000D02*
X59979000Y-117625000D01*
X59979000Y-117225000D02*
X57579000Y-117225000D01*
X59979000Y-117050000D02*
X57579000Y-117050000D01*
X59979000Y-116875000D02*
X57579000Y-116875000D01*
X81389000Y-111800000D02*
X81389000Y-117600000D01*
X83789000Y-111800000D02*
X81389000Y-111800000D01*
X83789000Y-117600000D02*
X83789000Y-111800000D01*
X83789000Y-117525000D02*
X81389000Y-117525000D01*
X83789000Y-117400000D02*
X81389000Y-117400000D01*
X81389000Y-117625000D02*
X83789000Y-117625000D01*
X83789000Y-117225000D02*
X81389000Y-117225000D01*
X83789000Y-117050000D02*
X81389000Y-117050000D01*
X83789000Y-116875000D02*
X81389000Y-116875000D01*
X152829000Y-111800000D02*
X152829000Y-117600000D01*
X155229000Y-111800000D02*
X152829000Y-111800000D01*
X155229000Y-117600000D02*
X155229000Y-111800000D01*
X155229000Y-117525000D02*
X152829000Y-117525000D01*
X155229000Y-117400000D02*
X152829000Y-117400000D01*
X152829000Y-117625000D02*
X155229000Y-117625000D01*
X155229000Y-117225000D02*
X152829000Y-117225000D01*
X155229000Y-117050000D02*
X152829000Y-117050000D01*
X155229000Y-116875000D02*
X152829000Y-116875000D01*
X221884000Y-111800000D02*
X221884000Y-117600000D01*
X224284000Y-111800000D02*
X221884000Y-111800000D01*
X224284000Y-117600000D02*
X224284000Y-111800000D01*
X224284000Y-117525000D02*
X221884000Y-117525000D01*
X224284000Y-117400000D02*
X221884000Y-117400000D01*
X221884000Y-117625000D02*
X224284000Y-117625000D01*
X224284000Y-117225000D02*
X221884000Y-117225000D01*
X224284000Y-117050000D02*
X221884000Y-117050000D01*
X224284000Y-116875000D02*
X221884000Y-116875000D01*
X243334000Y-116875000D02*
X240934000Y-116875000D01*
X243334000Y-117050000D02*
X240934000Y-117050000D01*
X243334000Y-117225000D02*
X240934000Y-117225000D01*
X240934000Y-117625000D02*
X243334000Y-117625000D01*
X243334000Y-117400000D02*
X240934000Y-117400000D01*
X243334000Y-117525000D02*
X240934000Y-117525000D01*
X243334000Y-117600000D02*
X243334000Y-111800000D01*
X243334000Y-111800000D02*
X240934000Y-111800000D01*
X240934000Y-111800000D02*
X240934000Y-117600000D01*
X259900000Y-111750000D02*
X259900000Y-117550000D01*
X262300000Y-111750000D02*
X259900000Y-111750000D01*
X262300000Y-117550000D02*
X262300000Y-111750000D01*
X262300000Y-117475000D02*
X259900000Y-117475000D01*
X262300000Y-117350000D02*
X259900000Y-117350000D01*
X259900000Y-117575000D02*
X262300000Y-117575000D01*
X262300000Y-117175000D02*
X259900000Y-117175000D01*
X262300000Y-117000000D02*
X259900000Y-117000000D01*
X262300000Y-116825000D02*
X259900000Y-116825000D01*
X281434000Y-116875000D02*
X279034000Y-116875000D01*
X281434000Y-117050000D02*
X279034000Y-117050000D01*
X281434000Y-117225000D02*
X279034000Y-117225000D01*
X279034000Y-117625000D02*
X281434000Y-117625000D01*
X281434000Y-117400000D02*
X279034000Y-117400000D01*
X281434000Y-117525000D02*
X279034000Y-117525000D01*
X281434000Y-117600000D02*
X281434000Y-111800000D01*
X281434000Y-111800000D02*
X279034000Y-111800000D01*
X279034000Y-111800000D02*
X279034000Y-117600000D01*
X298084000Y-111800000D02*
X298084000Y-117600000D01*
X300484000Y-111800000D02*
X298084000Y-111800000D01*
X300484000Y-117600000D02*
X300484000Y-111800000D01*
X300484000Y-117525000D02*
X298084000Y-117525000D01*
X300484000Y-117400000D02*
X298084000Y-117400000D01*
X298084000Y-117625000D02*
X300484000Y-117625000D01*
X300484000Y-117225000D02*
X298084000Y-117225000D01*
X300484000Y-117050000D02*
X298084000Y-117050000D01*
X300484000Y-116875000D02*
X298084000Y-116875000D01*
X319534000Y-116875000D02*
X317134000Y-116875000D01*
X319534000Y-117050000D02*
X317134000Y-117050000D01*
X319534000Y-117225000D02*
X317134000Y-117225000D01*
X317134000Y-117625000D02*
X319534000Y-117625000D01*
X319534000Y-117400000D02*
X317134000Y-117400000D01*
X319534000Y-117525000D02*
X317134000Y-117525000D01*
X319534000Y-117600000D02*
X319534000Y-111800000D01*
X319534000Y-111800000D02*
X317134000Y-111800000D01*
X317134000Y-111800000D02*
X317134000Y-117600000D01*
D11*
X136150000Y-115050000D02*
X135700000Y-114600000D01*
X136150000Y-111650000D02*
X135700000Y-112100000D01*
X140750000Y-111650000D02*
X141200000Y-112100000D01*
X140750000Y-115050000D02*
X141200000Y-114600000D01*
X139450000Y-110600000D02*
X137450000Y-110600000D01*
X135700000Y-114600000D02*
X135700000Y-112100000D01*
X139450000Y-116100000D02*
X137450000Y-116100000D01*
X141200000Y-114600000D02*
X141200000Y-112100000D01*
D12*
X106750000Y-113550000D02*
X106750000Y-113150000D01*
X104150000Y-113550000D02*
X104150000Y-113150000D01*
X104250000Y-113450000D02*
X105250000Y-113450000D01*
X60702380Y-91032142D02*
X60226190Y-90698809D01*
X60702380Y-90460714D02*
X59702380Y-90460714D01*
X59702380Y-90841666D01*
X59750000Y-90936904D01*
X59797619Y-90984523D01*
X59892857Y-91032142D01*
X60035714Y-91032142D01*
X60130952Y-90984523D01*
X60178571Y-90936904D01*
X60226190Y-90841666D01*
X60226190Y-90460714D01*
X60702380Y-91984523D02*
X60702380Y-91413095D01*
X60702380Y-91698809D02*
X59702380Y-91698809D01*
X59845238Y-91603571D01*
X59940476Y-91508333D01*
X59988095Y-91413095D01*
X59702380Y-92603571D02*
X59702380Y-92698809D01*
X59750000Y-92794047D01*
X59797619Y-92841666D01*
X59892857Y-92889285D01*
X60083333Y-92936904D01*
X60321428Y-92936904D01*
X60511904Y-92889285D01*
X60607142Y-92841666D01*
X60654761Y-92794047D01*
X60702380Y-92698809D01*
X60702380Y-92603571D01*
X60654761Y-92508333D01*
X60607142Y-92460714D01*
X60511904Y-92413095D01*
X60321428Y-92365476D01*
X60083333Y-92365476D01*
X59892857Y-92413095D01*
X59797619Y-92460714D01*
X59750000Y-92508333D01*
X59702380Y-92603571D01*
X58977380Y-99683333D02*
X58501190Y-99350000D01*
X58977380Y-99111904D02*
X57977380Y-99111904D01*
X57977380Y-99492857D01*
X58025000Y-99588095D01*
X58072619Y-99635714D01*
X58167857Y-99683333D01*
X58310714Y-99683333D01*
X58405952Y-99635714D01*
X58453571Y-99588095D01*
X58501190Y-99492857D01*
X58501190Y-99111904D01*
X58977380Y-100159523D02*
X58977380Y-100350000D01*
X58929761Y-100445238D01*
X58882142Y-100492857D01*
X58739285Y-100588095D01*
X58548809Y-100635714D01*
X58167857Y-100635714D01*
X58072619Y-100588095D01*
X58025000Y-100540476D01*
X57977380Y-100445238D01*
X57977380Y-100254761D01*
X58025000Y-100159523D01*
X58072619Y-100111904D01*
X58167857Y-100064285D01*
X58405952Y-100064285D01*
X58501190Y-100111904D01*
X58548809Y-100159523D01*
X58596428Y-100254761D01*
X58596428Y-100445238D01*
X58548809Y-100540476D01*
X58501190Y-100588095D01*
X58405952Y-100635714D01*
X56527380Y-99708333D02*
X56051190Y-99375000D01*
X56527380Y-99136904D02*
X55527380Y-99136904D01*
X55527380Y-99517857D01*
X55575000Y-99613095D01*
X55622619Y-99660714D01*
X55717857Y-99708333D01*
X55860714Y-99708333D01*
X55955952Y-99660714D01*
X56003571Y-99613095D01*
X56051190Y-99517857D01*
X56051190Y-99136904D01*
X55955952Y-100279761D02*
X55908333Y-100184523D01*
X55860714Y-100136904D01*
X55765476Y-100089285D01*
X55717857Y-100089285D01*
X55622619Y-100136904D01*
X55575000Y-100184523D01*
X55527380Y-100279761D01*
X55527380Y-100470238D01*
X55575000Y-100565476D01*
X55622619Y-100613095D01*
X55717857Y-100660714D01*
X55765476Y-100660714D01*
X55860714Y-100613095D01*
X55908333Y-100565476D01*
X55955952Y-100470238D01*
X55955952Y-100279761D01*
X56003571Y-100184523D01*
X56051190Y-100136904D01*
X56146428Y-100089285D01*
X56336904Y-100089285D01*
X56432142Y-100136904D01*
X56479761Y-100184523D01*
X56527380Y-100279761D01*
X56527380Y-100470238D01*
X56479761Y-100565476D01*
X56432142Y-100613095D01*
X56336904Y-100660714D01*
X56146428Y-100660714D01*
X56051190Y-100613095D01*
X56003571Y-100565476D01*
X55955952Y-100470238D01*
X54682380Y-91233333D02*
X54206190Y-90900000D01*
X54682380Y-90661904D02*
X53682380Y-90661904D01*
X53682380Y-91042857D01*
X53730000Y-91138095D01*
X53777619Y-91185714D01*
X53872857Y-91233333D01*
X54015714Y-91233333D01*
X54110952Y-91185714D01*
X54158571Y-91138095D01*
X54206190Y-91042857D01*
X54206190Y-90661904D01*
X53682380Y-91566666D02*
X53682380Y-92233333D01*
X54682380Y-91804761D01*
X52177380Y-96233333D02*
X51701190Y-95900000D01*
X52177380Y-95661904D02*
X51177380Y-95661904D01*
X51177380Y-96042857D01*
X51225000Y-96138095D01*
X51272619Y-96185714D01*
X51367857Y-96233333D01*
X51510714Y-96233333D01*
X51605952Y-96185714D01*
X51653571Y-96138095D01*
X51701190Y-96042857D01*
X51701190Y-95661904D01*
X51177380Y-97090476D02*
X51177380Y-96900000D01*
X51225000Y-96804761D01*
X51272619Y-96757142D01*
X51415476Y-96661904D01*
X51605952Y-96614285D01*
X51986904Y-96614285D01*
X52082142Y-96661904D01*
X52129761Y-96709523D01*
X52177380Y-96804761D01*
X52177380Y-96995238D01*
X52129761Y-97090476D01*
X52082142Y-97138095D01*
X51986904Y-97185714D01*
X51748809Y-97185714D01*
X51653571Y-97138095D01*
X51605952Y-97090476D01*
X51558333Y-96995238D01*
X51558333Y-96804761D01*
X51605952Y-96709523D01*
X51653571Y-96661904D01*
X51748809Y-96614285D01*
X124352380Y-110588095D02*
X125161904Y-110588095D01*
X125257142Y-110635714D01*
X125304761Y-110683333D01*
X125352380Y-110778571D01*
X125352380Y-110969047D01*
X125304761Y-111064285D01*
X125257142Y-111111904D01*
X125161904Y-111159523D01*
X124352380Y-111159523D01*
X125352380Y-112159523D02*
X125352380Y-111588095D01*
X125352380Y-111873809D02*
X124352380Y-111873809D01*
X124495238Y-111778571D01*
X124590476Y-111683333D01*
X124638095Y-111588095D01*
X21660666Y-93157142D02*
X21708285Y-93204761D01*
X21851142Y-93252380D01*
X21946380Y-93252380D01*
X22089238Y-93204761D01*
X22184476Y-93109523D01*
X22232095Y-93014285D01*
X22279714Y-92823809D01*
X22279714Y-92680952D01*
X22232095Y-92490476D01*
X22184476Y-92395238D01*
X22089238Y-92300000D01*
X21946380Y-92252380D01*
X21851142Y-92252380D01*
X21708285Y-92300000D01*
X21660666Y-92347619D01*
X21327333Y-92252380D02*
X20708285Y-92252380D01*
X21041619Y-92633333D01*
X20898761Y-92633333D01*
X20803523Y-92680952D01*
X20755904Y-92728571D01*
X20708285Y-92823809D01*
X20708285Y-93061904D01*
X20755904Y-93157142D01*
X20803523Y-93204761D01*
X20898761Y-93252380D01*
X21184476Y-93252380D01*
X21279714Y-93204761D01*
X21327333Y-93157142D01*
D14*
X36273523Y-29096666D02*
X37180666Y-29096666D01*
X37362095Y-29036190D01*
X37483047Y-28915238D01*
X37543523Y-28733809D01*
X37543523Y-28612857D01*
X37543523Y-30366666D02*
X37543523Y-29640952D01*
X37543523Y-30003809D02*
X36273523Y-30003809D01*
X36454952Y-29882857D01*
X36575904Y-29761904D01*
X36636380Y-29640952D01*
D12*
X138746380Y-92883333D02*
X138270190Y-92550000D01*
X138746380Y-92311904D02*
X137746380Y-92311904D01*
X137746380Y-92692857D01*
X137794000Y-92788095D01*
X137841619Y-92835714D01*
X137936857Y-92883333D01*
X138079714Y-92883333D01*
X138174952Y-92835714D01*
X138222571Y-92788095D01*
X138270190Y-92692857D01*
X138270190Y-92311904D01*
X138079714Y-93740476D02*
X138746380Y-93740476D01*
X137698761Y-93502380D02*
X138413047Y-93264285D01*
X138413047Y-93883333D01*
X119696380Y-92883333D02*
X119220190Y-92550000D01*
X119696380Y-92311904D02*
X118696380Y-92311904D01*
X118696380Y-92692857D01*
X118744000Y-92788095D01*
X118791619Y-92835714D01*
X118886857Y-92883333D01*
X119029714Y-92883333D01*
X119124952Y-92835714D01*
X119172571Y-92788095D01*
X119220190Y-92692857D01*
X119220190Y-92311904D01*
X118696380Y-93216666D02*
X118696380Y-93835714D01*
X119077333Y-93502380D01*
X119077333Y-93645238D01*
X119124952Y-93740476D01*
X119172571Y-93788095D01*
X119267809Y-93835714D01*
X119505904Y-93835714D01*
X119601142Y-93788095D01*
X119648761Y-93740476D01*
X119696380Y-93645238D01*
X119696380Y-93359523D01*
X119648761Y-93264285D01*
X119601142Y-93216666D01*
X128852380Y-105933333D02*
X128376190Y-105600000D01*
X128852380Y-105361904D02*
X127852380Y-105361904D01*
X127852380Y-105742857D01*
X127900000Y-105838095D01*
X127947619Y-105885714D01*
X128042857Y-105933333D01*
X128185714Y-105933333D01*
X128280952Y-105885714D01*
X128328571Y-105838095D01*
X128376190Y-105742857D01*
X128376190Y-105361904D01*
X127947619Y-106314285D02*
X127900000Y-106361904D01*
X127852380Y-106457142D01*
X127852380Y-106695238D01*
X127900000Y-106790476D01*
X127947619Y-106838095D01*
X128042857Y-106885714D01*
X128138095Y-106885714D01*
X128280952Y-106838095D01*
X128852380Y-106266666D01*
X128852380Y-106885714D01*
X131616666Y-112102380D02*
X131950000Y-111626190D01*
X132188095Y-112102380D02*
X132188095Y-111102380D01*
X131807142Y-111102380D01*
X131711904Y-111150000D01*
X131664285Y-111197619D01*
X131616666Y-111292857D01*
X131616666Y-111435714D01*
X131664285Y-111530952D01*
X131711904Y-111578571D01*
X131807142Y-111626190D01*
X132188095Y-111626190D01*
X130664285Y-112102380D02*
X131235714Y-112102380D01*
X130950000Y-112102380D02*
X130950000Y-111102380D01*
X131045238Y-111245238D01*
X131140476Y-111340476D01*
X131235714Y-111388095D01*
X127116666Y-123457142D02*
X127164285Y-123504761D01*
X127307142Y-123552380D01*
X127402380Y-123552380D01*
X127545238Y-123504761D01*
X127640476Y-123409523D01*
X127688095Y-123314285D01*
X127735714Y-123123809D01*
X127735714Y-122980952D01*
X127688095Y-122790476D01*
X127640476Y-122695238D01*
X127545238Y-122600000D01*
X127402380Y-122552380D01*
X127307142Y-122552380D01*
X127164285Y-122600000D01*
X127116666Y-122647619D01*
X126545238Y-122980952D02*
X126640476Y-122933333D01*
X126688095Y-122885714D01*
X126735714Y-122790476D01*
X126735714Y-122742857D01*
X126688095Y-122647619D01*
X126640476Y-122600000D01*
X126545238Y-122552380D01*
X126354761Y-122552380D01*
X126259523Y-122600000D01*
X126211904Y-122647619D01*
X126164285Y-122742857D01*
X126164285Y-122790476D01*
X126211904Y-122885714D01*
X126259523Y-122933333D01*
X126354761Y-122980952D01*
X126545238Y-122980952D01*
X126640476Y-123028571D01*
X126688095Y-123076190D01*
X126735714Y-123171428D01*
X126735714Y-123361904D01*
X126688095Y-123457142D01*
X126640476Y-123504761D01*
X126545238Y-123552380D01*
X126354761Y-123552380D01*
X126259523Y-123504761D01*
X126211904Y-123457142D01*
X126164285Y-123361904D01*
X126164285Y-123171428D01*
X126211904Y-123076190D01*
X126259523Y-123028571D01*
X126354761Y-122980952D01*
X30091666Y-93857142D02*
X30139285Y-93904761D01*
X30282142Y-93952380D01*
X30377380Y-93952380D01*
X30520238Y-93904761D01*
X30615476Y-93809523D01*
X30663095Y-93714285D01*
X30710714Y-93523809D01*
X30710714Y-93380952D01*
X30663095Y-93190476D01*
X30615476Y-93095238D01*
X30520238Y-93000000D01*
X30377380Y-92952380D01*
X30282142Y-92952380D01*
X30139285Y-93000000D01*
X30091666Y-93047619D01*
X29758333Y-92952380D02*
X29091666Y-92952380D01*
X29520238Y-93952380D01*
X30116666Y-91382142D02*
X30164285Y-91429761D01*
X30307142Y-91477380D01*
X30402380Y-91477380D01*
X30545238Y-91429761D01*
X30640476Y-91334523D01*
X30688095Y-91239285D01*
X30735714Y-91048809D01*
X30735714Y-90905952D01*
X30688095Y-90715476D01*
X30640476Y-90620238D01*
X30545238Y-90525000D01*
X30402380Y-90477380D01*
X30307142Y-90477380D01*
X30164285Y-90525000D01*
X30116666Y-90572619D01*
X29259523Y-90477380D02*
X29450000Y-90477380D01*
X29545238Y-90525000D01*
X29592857Y-90572619D01*
X29688095Y-90715476D01*
X29735714Y-90905952D01*
X29735714Y-91286904D01*
X29688095Y-91382142D01*
X29640476Y-91429761D01*
X29545238Y-91477380D01*
X29354761Y-91477380D01*
X29259523Y-91429761D01*
X29211904Y-91382142D01*
X29164285Y-91286904D01*
X29164285Y-91048809D01*
X29211904Y-90953571D01*
X29259523Y-90905952D01*
X29354761Y-90858333D01*
X29545238Y-90858333D01*
X29640476Y-90905952D01*
X29688095Y-90953571D01*
X29735714Y-91048809D01*
X30116666Y-98882142D02*
X30164285Y-98929761D01*
X30307142Y-98977380D01*
X30402380Y-98977380D01*
X30545238Y-98929761D01*
X30640476Y-98834523D01*
X30688095Y-98739285D01*
X30735714Y-98548809D01*
X30735714Y-98405952D01*
X30688095Y-98215476D01*
X30640476Y-98120238D01*
X30545238Y-98025000D01*
X30402380Y-97977380D01*
X30307142Y-97977380D01*
X30164285Y-98025000D01*
X30116666Y-98072619D01*
X29211904Y-97977380D02*
X29688095Y-97977380D01*
X29735714Y-98453571D01*
X29688095Y-98405952D01*
X29592857Y-98358333D01*
X29354761Y-98358333D01*
X29259523Y-98405952D01*
X29211904Y-98453571D01*
X29164285Y-98548809D01*
X29164285Y-98786904D01*
X29211904Y-98882142D01*
X29259523Y-98929761D01*
X29354761Y-98977380D01*
X29592857Y-98977380D01*
X29688095Y-98929761D01*
X29735714Y-98882142D01*
X30016666Y-96507142D02*
X30064285Y-96554761D01*
X30207142Y-96602380D01*
X30302380Y-96602380D01*
X30445238Y-96554761D01*
X30540476Y-96459523D01*
X30588095Y-96364285D01*
X30635714Y-96173809D01*
X30635714Y-96030952D01*
X30588095Y-95840476D01*
X30540476Y-95745238D01*
X30445238Y-95650000D01*
X30302380Y-95602380D01*
X30207142Y-95602380D01*
X30064285Y-95650000D01*
X30016666Y-95697619D01*
X29159523Y-95935714D02*
X29159523Y-96602380D01*
X29397619Y-95554761D02*
X29635714Y-96269047D01*
X29016666Y-96269047D01*
X105616666Y-108457142D02*
X105664285Y-108504761D01*
X105807142Y-108552380D01*
X105902380Y-108552380D01*
X106045238Y-108504761D01*
X106140476Y-108409523D01*
X106188095Y-108314285D01*
X106235714Y-108123809D01*
X106235714Y-107980952D01*
X106188095Y-107790476D01*
X106140476Y-107695238D01*
X106045238Y-107600000D01*
X105902380Y-107552380D01*
X105807142Y-107552380D01*
X105664285Y-107600000D01*
X105616666Y-107647619D01*
X105235714Y-107647619D02*
X105188095Y-107600000D01*
X105092857Y-107552380D01*
X104854761Y-107552380D01*
X104759523Y-107600000D01*
X104711904Y-107647619D01*
X104664285Y-107742857D01*
X104664285Y-107838095D01*
X104711904Y-107980952D01*
X105283333Y-108552380D01*
X104664285Y-108552380D01*
X105616666Y-118957142D02*
X105664285Y-119004761D01*
X105807142Y-119052380D01*
X105902380Y-119052380D01*
X106045238Y-119004761D01*
X106140476Y-118909523D01*
X106188095Y-118814285D01*
X106235714Y-118623809D01*
X106235714Y-118480952D01*
X106188095Y-118290476D01*
X106140476Y-118195238D01*
X106045238Y-118100000D01*
X105902380Y-118052380D01*
X105807142Y-118052380D01*
X105664285Y-118100000D01*
X105616666Y-118147619D01*
X104664285Y-119052380D02*
X105235714Y-119052380D01*
X104950000Y-119052380D02*
X104950000Y-118052380D01*
X105045238Y-118195238D01*
X105140476Y-118290476D01*
X105235714Y-118338095D01*
X24886904Y-34959523D02*
X24086904Y-34959523D01*
X24086904Y-35150000D01*
X24125000Y-35264285D01*
X24201190Y-35340476D01*
X24277380Y-35378571D01*
X24429761Y-35416666D01*
X24544047Y-35416666D01*
X24696428Y-35378571D01*
X24772619Y-35340476D01*
X24848809Y-35264285D01*
X24886904Y-35150000D01*
X24886904Y-34959523D01*
X24886904Y-36178571D02*
X24886904Y-35721428D01*
X24886904Y-35950000D02*
X24086904Y-35950000D01*
X24201190Y-35873809D01*
X24277380Y-35797619D01*
X24315476Y-35721428D01*
X55886904Y-34959523D02*
X55086904Y-34959523D01*
X55086904Y-35150000D01*
X55125000Y-35264285D01*
X55201190Y-35340476D01*
X55277380Y-35378571D01*
X55429761Y-35416666D01*
X55544047Y-35416666D01*
X55696428Y-35378571D01*
X55772619Y-35340476D01*
X55848809Y-35264285D01*
X55886904Y-35150000D01*
X55886904Y-34959523D01*
X55163095Y-35721428D02*
X55125000Y-35759523D01*
X55086904Y-35835714D01*
X55086904Y-36026190D01*
X55125000Y-36102380D01*
X55163095Y-36140476D01*
X55239285Y-36178571D01*
X55315476Y-36178571D01*
X55429761Y-36140476D01*
X55886904Y-35683333D01*
X55886904Y-36178571D01*
X69136904Y-37809523D02*
X68336904Y-37809523D01*
X68336904Y-38000000D01*
X68375000Y-38114285D01*
X68451190Y-38190476D01*
X68527380Y-38228571D01*
X68679761Y-38266666D01*
X68794047Y-38266666D01*
X68946428Y-38228571D01*
X69022619Y-38190476D01*
X69098809Y-38114285D01*
X69136904Y-38000000D01*
X69136904Y-37809523D01*
X68336904Y-38533333D02*
X68336904Y-39028571D01*
X68641666Y-38761904D01*
X68641666Y-38876190D01*
X68679761Y-38952380D01*
X68717857Y-38990476D01*
X68794047Y-39028571D01*
X68984523Y-39028571D01*
X69060714Y-38990476D01*
X69098809Y-38952380D01*
X69136904Y-38876190D01*
X69136904Y-38647619D01*
X69098809Y-38571428D01*
X69060714Y-38533333D01*
X88186904Y-37809523D02*
X87386904Y-37809523D01*
X87386904Y-38000000D01*
X87425000Y-38114285D01*
X87501190Y-38190476D01*
X87577380Y-38228571D01*
X87729761Y-38266666D01*
X87844047Y-38266666D01*
X87996428Y-38228571D01*
X88072619Y-38190476D01*
X88148809Y-38114285D01*
X88186904Y-38000000D01*
X88186904Y-37809523D01*
X87653571Y-38952380D02*
X88186904Y-38952380D01*
X87348809Y-38761904D02*
X87920238Y-38571428D01*
X87920238Y-39066666D01*
X107236904Y-37809523D02*
X106436904Y-37809523D01*
X106436904Y-38000000D01*
X106475000Y-38114285D01*
X106551190Y-38190476D01*
X106627380Y-38228571D01*
X106779761Y-38266666D01*
X106894047Y-38266666D01*
X107046428Y-38228571D01*
X107122619Y-38190476D01*
X107198809Y-38114285D01*
X107236904Y-38000000D01*
X107236904Y-37809523D01*
X106436904Y-38990476D02*
X106436904Y-38609523D01*
X106817857Y-38571428D01*
X106779761Y-38609523D01*
X106741666Y-38685714D01*
X106741666Y-38876190D01*
X106779761Y-38952380D01*
X106817857Y-38990476D01*
X106894047Y-39028571D01*
X107084523Y-39028571D01*
X107160714Y-38990476D01*
X107198809Y-38952380D01*
X107236904Y-38876190D01*
X107236904Y-38685714D01*
X107198809Y-38609523D01*
X107160714Y-38571428D01*
X126286904Y-37809523D02*
X125486904Y-37809523D01*
X125486904Y-38000000D01*
X125525000Y-38114285D01*
X125601190Y-38190476D01*
X125677380Y-38228571D01*
X125829761Y-38266666D01*
X125944047Y-38266666D01*
X126096428Y-38228571D01*
X126172619Y-38190476D01*
X126248809Y-38114285D01*
X126286904Y-38000000D01*
X126286904Y-37809523D01*
X125486904Y-38952380D02*
X125486904Y-38800000D01*
X125525000Y-38723809D01*
X125563095Y-38685714D01*
X125677380Y-38609523D01*
X125829761Y-38571428D01*
X126134523Y-38571428D01*
X126210714Y-38609523D01*
X126248809Y-38647619D01*
X126286904Y-38723809D01*
X126286904Y-38876190D01*
X126248809Y-38952380D01*
X126210714Y-38990476D01*
X126134523Y-39028571D01*
X125944047Y-39028571D01*
X125867857Y-38990476D01*
X125829761Y-38952380D01*
X125791666Y-38876190D01*
X125791666Y-38723809D01*
X125829761Y-38647619D01*
X125867857Y-38609523D01*
X125944047Y-38571428D01*
X145336904Y-37809523D02*
X144536904Y-37809523D01*
X144536904Y-38000000D01*
X144575000Y-38114285D01*
X144651190Y-38190476D01*
X144727380Y-38228571D01*
X144879761Y-38266666D01*
X144994047Y-38266666D01*
X145146428Y-38228571D01*
X145222619Y-38190476D01*
X145298809Y-38114285D01*
X145336904Y-38000000D01*
X145336904Y-37809523D01*
X144536904Y-38533333D02*
X144536904Y-39066666D01*
X145336904Y-38723809D01*
X164386904Y-37809523D02*
X163586904Y-37809523D01*
X163586904Y-38000000D01*
X163625000Y-38114285D01*
X163701190Y-38190476D01*
X163777380Y-38228571D01*
X163929761Y-38266666D01*
X164044047Y-38266666D01*
X164196428Y-38228571D01*
X164272619Y-38190476D01*
X164348809Y-38114285D01*
X164386904Y-38000000D01*
X164386904Y-37809523D01*
X163929761Y-38723809D02*
X163891666Y-38647619D01*
X163853571Y-38609523D01*
X163777380Y-38571428D01*
X163739285Y-38571428D01*
X163663095Y-38609523D01*
X163625000Y-38647619D01*
X163586904Y-38723809D01*
X163586904Y-38876190D01*
X163625000Y-38952380D01*
X163663095Y-38990476D01*
X163739285Y-39028571D01*
X163777380Y-39028571D01*
X163853571Y-38990476D01*
X163891666Y-38952380D01*
X163929761Y-38876190D01*
X163929761Y-38723809D01*
X163967857Y-38647619D01*
X164005952Y-38609523D01*
X164082142Y-38571428D01*
X164234523Y-38571428D01*
X164310714Y-38609523D01*
X164348809Y-38647619D01*
X164386904Y-38723809D01*
X164386904Y-38876190D01*
X164348809Y-38952380D01*
X164310714Y-38990476D01*
X164234523Y-39028571D01*
X164082142Y-39028571D01*
X164005952Y-38990476D01*
X163967857Y-38952380D01*
X163929761Y-38876190D01*
X183436904Y-37809523D02*
X182636904Y-37809523D01*
X182636904Y-38000000D01*
X182675000Y-38114285D01*
X182751190Y-38190476D01*
X182827380Y-38228571D01*
X182979761Y-38266666D01*
X183094047Y-38266666D01*
X183246428Y-38228571D01*
X183322619Y-38190476D01*
X183398809Y-38114285D01*
X183436904Y-38000000D01*
X183436904Y-37809523D01*
X183436904Y-38647619D02*
X183436904Y-38800000D01*
X183398809Y-38876190D01*
X183360714Y-38914285D01*
X183246428Y-38990476D01*
X183094047Y-39028571D01*
X182789285Y-39028571D01*
X182713095Y-38990476D01*
X182675000Y-38952380D01*
X182636904Y-38876190D01*
X182636904Y-38723809D01*
X182675000Y-38647619D01*
X182713095Y-38609523D01*
X182789285Y-38571428D01*
X182979761Y-38571428D01*
X183055952Y-38609523D01*
X183094047Y-38647619D01*
X183132142Y-38723809D01*
X183132142Y-38876190D01*
X183094047Y-38952380D01*
X183055952Y-38990476D01*
X182979761Y-39028571D01*
X202486904Y-37428571D02*
X201686904Y-37428571D01*
X201686904Y-37619047D01*
X201725000Y-37733333D01*
X201801190Y-37809523D01*
X201877380Y-37847619D01*
X202029761Y-37885714D01*
X202144047Y-37885714D01*
X202296428Y-37847619D01*
X202372619Y-37809523D01*
X202448809Y-37733333D01*
X202486904Y-37619047D01*
X202486904Y-37428571D01*
X202486904Y-38647619D02*
X202486904Y-38190476D01*
X202486904Y-38419047D02*
X201686904Y-38419047D01*
X201801190Y-38342857D01*
X201877380Y-38266666D01*
X201915476Y-38190476D01*
X201686904Y-39142857D02*
X201686904Y-39219047D01*
X201725000Y-39295238D01*
X201763095Y-39333333D01*
X201839285Y-39371428D01*
X201991666Y-39409523D01*
X202182142Y-39409523D01*
X202334523Y-39371428D01*
X202410714Y-39333333D01*
X202448809Y-39295238D01*
X202486904Y-39219047D01*
X202486904Y-39142857D01*
X202448809Y-39066666D01*
X202410714Y-39028571D01*
X202334523Y-38990476D01*
X202182142Y-38952380D01*
X201991666Y-38952380D01*
X201839285Y-38990476D01*
X201763095Y-39028571D01*
X201725000Y-39066666D01*
X201686904Y-39142857D01*
X221536904Y-37428571D02*
X220736904Y-37428571D01*
X220736904Y-37619047D01*
X220775000Y-37733333D01*
X220851190Y-37809523D01*
X220927380Y-37847619D01*
X221079761Y-37885714D01*
X221194047Y-37885714D01*
X221346428Y-37847619D01*
X221422619Y-37809523D01*
X221498809Y-37733333D01*
X221536904Y-37619047D01*
X221536904Y-37428571D01*
X221536904Y-38647619D02*
X221536904Y-38190476D01*
X221536904Y-38419047D02*
X220736904Y-38419047D01*
X220851190Y-38342857D01*
X220927380Y-38266666D01*
X220965476Y-38190476D01*
X221536904Y-39409523D02*
X221536904Y-38952380D01*
X221536904Y-39180952D02*
X220736904Y-39180952D01*
X220851190Y-39104761D01*
X220927380Y-39028571D01*
X220965476Y-38952380D01*
X240586904Y-37428571D02*
X239786904Y-37428571D01*
X239786904Y-37619047D01*
X239825000Y-37733333D01*
X239901190Y-37809523D01*
X239977380Y-37847619D01*
X240129761Y-37885714D01*
X240244047Y-37885714D01*
X240396428Y-37847619D01*
X240472619Y-37809523D01*
X240548809Y-37733333D01*
X240586904Y-37619047D01*
X240586904Y-37428571D01*
X240586904Y-38647619D02*
X240586904Y-38190476D01*
X240586904Y-38419047D02*
X239786904Y-38419047D01*
X239901190Y-38342857D01*
X239977380Y-38266666D01*
X240015476Y-38190476D01*
X239863095Y-38952380D02*
X239825000Y-38990476D01*
X239786904Y-39066666D01*
X239786904Y-39257142D01*
X239825000Y-39333333D01*
X239863095Y-39371428D01*
X239939285Y-39409523D01*
X240015476Y-39409523D01*
X240129761Y-39371428D01*
X240586904Y-38914285D01*
X240586904Y-39409523D01*
X259636904Y-37428571D02*
X258836904Y-37428571D01*
X258836904Y-37619047D01*
X258875000Y-37733333D01*
X258951190Y-37809523D01*
X259027380Y-37847619D01*
X259179761Y-37885714D01*
X259294047Y-37885714D01*
X259446428Y-37847619D01*
X259522619Y-37809523D01*
X259598809Y-37733333D01*
X259636904Y-37619047D01*
X259636904Y-37428571D01*
X259636904Y-38647619D02*
X259636904Y-38190476D01*
X259636904Y-38419047D02*
X258836904Y-38419047D01*
X258951190Y-38342857D01*
X259027380Y-38266666D01*
X259065476Y-38190476D01*
X258836904Y-38914285D02*
X258836904Y-39409523D01*
X259141666Y-39142857D01*
X259141666Y-39257142D01*
X259179761Y-39333333D01*
X259217857Y-39371428D01*
X259294047Y-39409523D01*
X259484523Y-39409523D01*
X259560714Y-39371428D01*
X259598809Y-39333333D01*
X259636904Y-39257142D01*
X259636904Y-39028571D01*
X259598809Y-38952380D01*
X259560714Y-38914285D01*
X288186904Y-37428571D02*
X287386904Y-37428571D01*
X287386904Y-37619047D01*
X287425000Y-37733333D01*
X287501190Y-37809523D01*
X287577380Y-37847619D01*
X287729761Y-37885714D01*
X287844047Y-37885714D01*
X287996428Y-37847619D01*
X288072619Y-37809523D01*
X288148809Y-37733333D01*
X288186904Y-37619047D01*
X288186904Y-37428571D01*
X288186904Y-38647619D02*
X288186904Y-38190476D01*
X288186904Y-38419047D02*
X287386904Y-38419047D01*
X287501190Y-38342857D01*
X287577380Y-38266666D01*
X287615476Y-38190476D01*
X287653571Y-39333333D02*
X288186904Y-39333333D01*
X287348809Y-39142857D02*
X287920238Y-38952380D01*
X287920238Y-39447619D01*
X316736904Y-37428571D02*
X315936904Y-37428571D01*
X315936904Y-37619047D01*
X315975000Y-37733333D01*
X316051190Y-37809523D01*
X316127380Y-37847619D01*
X316279761Y-37885714D01*
X316394047Y-37885714D01*
X316546428Y-37847619D01*
X316622619Y-37809523D01*
X316698809Y-37733333D01*
X316736904Y-37619047D01*
X316736904Y-37428571D01*
X316736904Y-38647619D02*
X316736904Y-38190476D01*
X316736904Y-38419047D02*
X315936904Y-38419047D01*
X316051190Y-38342857D01*
X316127380Y-38266666D01*
X316165476Y-38190476D01*
X315936904Y-39371428D02*
X315936904Y-38990476D01*
X316317857Y-38952380D01*
X316279761Y-38990476D01*
X316241666Y-39066666D01*
X316241666Y-39257142D01*
X316279761Y-39333333D01*
X316317857Y-39371428D01*
X316394047Y-39409523D01*
X316584523Y-39409523D01*
X316660714Y-39371428D01*
X316698809Y-39333333D01*
X316736904Y-39257142D01*
X316736904Y-39066666D01*
X316698809Y-38990476D01*
X316660714Y-38952380D01*
X35811904Y-56478571D02*
X35011904Y-56478571D01*
X35011904Y-56669047D01*
X35050000Y-56783333D01*
X35126190Y-56859523D01*
X35202380Y-56897619D01*
X35354761Y-56935714D01*
X35469047Y-56935714D01*
X35621428Y-56897619D01*
X35697619Y-56859523D01*
X35773809Y-56783333D01*
X35811904Y-56669047D01*
X35811904Y-56478571D01*
X35811904Y-57697619D02*
X35811904Y-57240476D01*
X35811904Y-57469047D02*
X35011904Y-57469047D01*
X35126190Y-57392857D01*
X35202380Y-57316666D01*
X35240476Y-57240476D01*
X35011904Y-58383333D02*
X35011904Y-58230952D01*
X35050000Y-58154761D01*
X35088095Y-58116666D01*
X35202380Y-58040476D01*
X35354761Y-58002380D01*
X35659523Y-58002380D01*
X35735714Y-58040476D01*
X35773809Y-58078571D01*
X35811904Y-58154761D01*
X35811904Y-58307142D01*
X35773809Y-58383333D01*
X35735714Y-58421428D01*
X35659523Y-58459523D01*
X35469047Y-58459523D01*
X35392857Y-58421428D01*
X35354761Y-58383333D01*
X35316666Y-58307142D01*
X35316666Y-58154761D01*
X35354761Y-58078571D01*
X35392857Y-58040476D01*
X35469047Y-58002380D01*
X59586904Y-56478571D02*
X58786904Y-56478571D01*
X58786904Y-56669047D01*
X58825000Y-56783333D01*
X58901190Y-56859523D01*
X58977380Y-56897619D01*
X59129761Y-56935714D01*
X59244047Y-56935714D01*
X59396428Y-56897619D01*
X59472619Y-56859523D01*
X59548809Y-56783333D01*
X59586904Y-56669047D01*
X59586904Y-56478571D01*
X59586904Y-57697619D02*
X59586904Y-57240476D01*
X59586904Y-57469047D02*
X58786904Y-57469047D01*
X58901190Y-57392857D01*
X58977380Y-57316666D01*
X59015476Y-57240476D01*
X58786904Y-57964285D02*
X58786904Y-58497619D01*
X59586904Y-58154761D01*
X78636904Y-56478571D02*
X77836904Y-56478571D01*
X77836904Y-56669047D01*
X77875000Y-56783333D01*
X77951190Y-56859523D01*
X78027380Y-56897619D01*
X78179761Y-56935714D01*
X78294047Y-56935714D01*
X78446428Y-56897619D01*
X78522619Y-56859523D01*
X78598809Y-56783333D01*
X78636904Y-56669047D01*
X78636904Y-56478571D01*
X78636904Y-57697619D02*
X78636904Y-57240476D01*
X78636904Y-57469047D02*
X77836904Y-57469047D01*
X77951190Y-57392857D01*
X78027380Y-57316666D01*
X78065476Y-57240476D01*
X78179761Y-58154761D02*
X78141666Y-58078571D01*
X78103571Y-58040476D01*
X78027380Y-58002380D01*
X77989285Y-58002380D01*
X77913095Y-58040476D01*
X77875000Y-58078571D01*
X77836904Y-58154761D01*
X77836904Y-58307142D01*
X77875000Y-58383333D01*
X77913095Y-58421428D01*
X77989285Y-58459523D01*
X78027380Y-58459523D01*
X78103571Y-58421428D01*
X78141666Y-58383333D01*
X78179761Y-58307142D01*
X78179761Y-58154761D01*
X78217857Y-58078571D01*
X78255952Y-58040476D01*
X78332142Y-58002380D01*
X78484523Y-58002380D01*
X78560714Y-58040476D01*
X78598809Y-58078571D01*
X78636904Y-58154761D01*
X78636904Y-58307142D01*
X78598809Y-58383333D01*
X78560714Y-58421428D01*
X78484523Y-58459523D01*
X78332142Y-58459523D01*
X78255952Y-58421428D01*
X78217857Y-58383333D01*
X78179761Y-58307142D01*
X97686904Y-56478571D02*
X96886904Y-56478571D01*
X96886904Y-56669047D01*
X96925000Y-56783333D01*
X97001190Y-56859523D01*
X97077380Y-56897619D01*
X97229761Y-56935714D01*
X97344047Y-56935714D01*
X97496428Y-56897619D01*
X97572619Y-56859523D01*
X97648809Y-56783333D01*
X97686904Y-56669047D01*
X97686904Y-56478571D01*
X97686904Y-57697619D02*
X97686904Y-57240476D01*
X97686904Y-57469047D02*
X96886904Y-57469047D01*
X97001190Y-57392857D01*
X97077380Y-57316666D01*
X97115476Y-57240476D01*
X97686904Y-58078571D02*
X97686904Y-58230952D01*
X97648809Y-58307142D01*
X97610714Y-58345238D01*
X97496428Y-58421428D01*
X97344047Y-58459523D01*
X97039285Y-58459523D01*
X96963095Y-58421428D01*
X96925000Y-58383333D01*
X96886904Y-58307142D01*
X96886904Y-58154761D01*
X96925000Y-58078571D01*
X96963095Y-58040476D01*
X97039285Y-58002380D01*
X97229761Y-58002380D01*
X97305952Y-58040476D01*
X97344047Y-58078571D01*
X97382142Y-58154761D01*
X97382142Y-58307142D01*
X97344047Y-58383333D01*
X97305952Y-58421428D01*
X97229761Y-58459523D01*
X116736904Y-56478571D02*
X115936904Y-56478571D01*
X115936904Y-56669047D01*
X115975000Y-56783333D01*
X116051190Y-56859523D01*
X116127380Y-56897619D01*
X116279761Y-56935714D01*
X116394047Y-56935714D01*
X116546428Y-56897619D01*
X116622619Y-56859523D01*
X116698809Y-56783333D01*
X116736904Y-56669047D01*
X116736904Y-56478571D01*
X116013095Y-57240476D02*
X115975000Y-57278571D01*
X115936904Y-57354761D01*
X115936904Y-57545238D01*
X115975000Y-57621428D01*
X116013095Y-57659523D01*
X116089285Y-57697619D01*
X116165476Y-57697619D01*
X116279761Y-57659523D01*
X116736904Y-57202380D01*
X116736904Y-57697619D01*
X115936904Y-58192857D02*
X115936904Y-58269047D01*
X115975000Y-58345238D01*
X116013095Y-58383333D01*
X116089285Y-58421428D01*
X116241666Y-58459523D01*
X116432142Y-58459523D01*
X116584523Y-58421428D01*
X116660714Y-58383333D01*
X116698809Y-58345238D01*
X116736904Y-58269047D01*
X116736904Y-58192857D01*
X116698809Y-58116666D01*
X116660714Y-58078571D01*
X116584523Y-58040476D01*
X116432142Y-58002380D01*
X116241666Y-58002380D01*
X116089285Y-58040476D01*
X116013095Y-58078571D01*
X115975000Y-58116666D01*
X115936904Y-58192857D01*
X135786904Y-56478571D02*
X134986904Y-56478571D01*
X134986904Y-56669047D01*
X135025000Y-56783333D01*
X135101190Y-56859523D01*
X135177380Y-56897619D01*
X135329761Y-56935714D01*
X135444047Y-56935714D01*
X135596428Y-56897619D01*
X135672619Y-56859523D01*
X135748809Y-56783333D01*
X135786904Y-56669047D01*
X135786904Y-56478571D01*
X135063095Y-57240476D02*
X135025000Y-57278571D01*
X134986904Y-57354761D01*
X134986904Y-57545238D01*
X135025000Y-57621428D01*
X135063095Y-57659523D01*
X135139285Y-57697619D01*
X135215476Y-57697619D01*
X135329761Y-57659523D01*
X135786904Y-57202380D01*
X135786904Y-57697619D01*
X135786904Y-58459523D02*
X135786904Y-58002380D01*
X135786904Y-58230952D02*
X134986904Y-58230952D01*
X135101190Y-58154761D01*
X135177380Y-58078571D01*
X135215476Y-58002380D01*
X154836904Y-56478571D02*
X154036904Y-56478571D01*
X154036904Y-56669047D01*
X154075000Y-56783333D01*
X154151190Y-56859523D01*
X154227380Y-56897619D01*
X154379761Y-56935714D01*
X154494047Y-56935714D01*
X154646428Y-56897619D01*
X154722619Y-56859523D01*
X154798809Y-56783333D01*
X154836904Y-56669047D01*
X154836904Y-56478571D01*
X154113095Y-57240476D02*
X154075000Y-57278571D01*
X154036904Y-57354761D01*
X154036904Y-57545238D01*
X154075000Y-57621428D01*
X154113095Y-57659523D01*
X154189285Y-57697619D01*
X154265476Y-57697619D01*
X154379761Y-57659523D01*
X154836904Y-57202380D01*
X154836904Y-57697619D01*
X154113095Y-58002380D02*
X154075000Y-58040476D01*
X154036904Y-58116666D01*
X154036904Y-58307142D01*
X154075000Y-58383333D01*
X154113095Y-58421428D01*
X154189285Y-58459523D01*
X154265476Y-58459523D01*
X154379761Y-58421428D01*
X154836904Y-57964285D01*
X154836904Y-58459523D01*
X173886904Y-56478571D02*
X173086904Y-56478571D01*
X173086904Y-56669047D01*
X173125000Y-56783333D01*
X173201190Y-56859523D01*
X173277380Y-56897619D01*
X173429761Y-56935714D01*
X173544047Y-56935714D01*
X173696428Y-56897619D01*
X173772619Y-56859523D01*
X173848809Y-56783333D01*
X173886904Y-56669047D01*
X173886904Y-56478571D01*
X173163095Y-57240476D02*
X173125000Y-57278571D01*
X173086904Y-57354761D01*
X173086904Y-57545238D01*
X173125000Y-57621428D01*
X173163095Y-57659523D01*
X173239285Y-57697619D01*
X173315476Y-57697619D01*
X173429761Y-57659523D01*
X173886904Y-57202380D01*
X173886904Y-57697619D01*
X173086904Y-57964285D02*
X173086904Y-58459523D01*
X173391666Y-58192857D01*
X173391666Y-58307142D01*
X173429761Y-58383333D01*
X173467857Y-58421428D01*
X173544047Y-58459523D01*
X173734523Y-58459523D01*
X173810714Y-58421428D01*
X173848809Y-58383333D01*
X173886904Y-58307142D01*
X173886904Y-58078571D01*
X173848809Y-58002380D01*
X173810714Y-57964285D01*
X192936904Y-56478571D02*
X192136904Y-56478571D01*
X192136904Y-56669047D01*
X192175000Y-56783333D01*
X192251190Y-56859523D01*
X192327380Y-56897619D01*
X192479761Y-56935714D01*
X192594047Y-56935714D01*
X192746428Y-56897619D01*
X192822619Y-56859523D01*
X192898809Y-56783333D01*
X192936904Y-56669047D01*
X192936904Y-56478571D01*
X192213095Y-57240476D02*
X192175000Y-57278571D01*
X192136904Y-57354761D01*
X192136904Y-57545238D01*
X192175000Y-57621428D01*
X192213095Y-57659523D01*
X192289285Y-57697619D01*
X192365476Y-57697619D01*
X192479761Y-57659523D01*
X192936904Y-57202380D01*
X192936904Y-57697619D01*
X192403571Y-58383333D02*
X192936904Y-58383333D01*
X192098809Y-58192857D02*
X192670238Y-58002380D01*
X192670238Y-58497619D01*
X211986904Y-56478571D02*
X211186904Y-56478571D01*
X211186904Y-56669047D01*
X211225000Y-56783333D01*
X211301190Y-56859523D01*
X211377380Y-56897619D01*
X211529761Y-56935714D01*
X211644047Y-56935714D01*
X211796428Y-56897619D01*
X211872619Y-56859523D01*
X211948809Y-56783333D01*
X211986904Y-56669047D01*
X211986904Y-56478571D01*
X211263095Y-57240476D02*
X211225000Y-57278571D01*
X211186904Y-57354761D01*
X211186904Y-57545238D01*
X211225000Y-57621428D01*
X211263095Y-57659523D01*
X211339285Y-57697619D01*
X211415476Y-57697619D01*
X211529761Y-57659523D01*
X211986904Y-57202380D01*
X211986904Y-57697619D01*
X211186904Y-58421428D02*
X211186904Y-58040476D01*
X211567857Y-58002380D01*
X211529761Y-58040476D01*
X211491666Y-58116666D01*
X211491666Y-58307142D01*
X211529761Y-58383333D01*
X211567857Y-58421428D01*
X211644047Y-58459523D01*
X211834523Y-58459523D01*
X211910714Y-58421428D01*
X211948809Y-58383333D01*
X211986904Y-58307142D01*
X211986904Y-58116666D01*
X211948809Y-58040476D01*
X211910714Y-58002380D01*
X230881905Y-56478571D02*
X230081905Y-56478571D01*
X230081905Y-56669047D01*
X230120001Y-56783333D01*
X230196191Y-56859523D01*
X230272381Y-56897619D01*
X230424762Y-56935714D01*
X230539048Y-56935714D01*
X230691429Y-56897619D01*
X230767620Y-56859523D01*
X230843810Y-56783333D01*
X230881905Y-56669047D01*
X230881905Y-56478571D01*
X230158096Y-57240476D02*
X230120001Y-57278571D01*
X230081905Y-57354761D01*
X230081905Y-57545238D01*
X230120001Y-57621428D01*
X230158096Y-57659523D01*
X230234286Y-57697619D01*
X230310477Y-57697619D01*
X230424762Y-57659523D01*
X230881905Y-57202380D01*
X230881905Y-57697619D01*
X230081905Y-58383333D02*
X230081905Y-58230952D01*
X230120001Y-58154761D01*
X230158096Y-58116666D01*
X230272381Y-58040476D01*
X230424762Y-58002380D01*
X230729524Y-58002380D01*
X230805715Y-58040476D01*
X230843810Y-58078571D01*
X230881905Y-58154761D01*
X230881905Y-58307142D01*
X230843810Y-58383333D01*
X230805715Y-58421428D01*
X230729524Y-58459523D01*
X230539048Y-58459523D01*
X230462858Y-58421428D01*
X230424762Y-58383333D01*
X230386667Y-58307142D01*
X230386667Y-58154761D01*
X230424762Y-58078571D01*
X230462858Y-58040476D01*
X230539048Y-58002380D01*
X250086904Y-56478571D02*
X249286904Y-56478571D01*
X249286904Y-56669047D01*
X249325000Y-56783333D01*
X249401190Y-56859523D01*
X249477380Y-56897619D01*
X249629761Y-56935714D01*
X249744047Y-56935714D01*
X249896428Y-56897619D01*
X249972619Y-56859523D01*
X250048809Y-56783333D01*
X250086904Y-56669047D01*
X250086904Y-56478571D01*
X249363095Y-57240476D02*
X249325000Y-57278571D01*
X249286904Y-57354761D01*
X249286904Y-57545238D01*
X249325000Y-57621428D01*
X249363095Y-57659523D01*
X249439285Y-57697619D01*
X249515476Y-57697619D01*
X249629761Y-57659523D01*
X250086904Y-57202380D01*
X250086904Y-57697619D01*
X249286904Y-57964285D02*
X249286904Y-58497619D01*
X250086904Y-58154761D01*
X269136904Y-56478571D02*
X268336904Y-56478571D01*
X268336904Y-56669047D01*
X268375000Y-56783333D01*
X268451190Y-56859523D01*
X268527380Y-56897619D01*
X268679761Y-56935714D01*
X268794047Y-56935714D01*
X268946428Y-56897619D01*
X269022619Y-56859523D01*
X269098809Y-56783333D01*
X269136904Y-56669047D01*
X269136904Y-56478571D01*
X268413095Y-57240476D02*
X268375000Y-57278571D01*
X268336904Y-57354761D01*
X268336904Y-57545238D01*
X268375000Y-57621428D01*
X268413095Y-57659523D01*
X268489285Y-57697619D01*
X268565476Y-57697619D01*
X268679761Y-57659523D01*
X269136904Y-57202380D01*
X269136904Y-57697619D01*
X268679761Y-58154761D02*
X268641666Y-58078571D01*
X268603571Y-58040476D01*
X268527380Y-58002380D01*
X268489285Y-58002380D01*
X268413095Y-58040476D01*
X268375000Y-58078571D01*
X268336904Y-58154761D01*
X268336904Y-58307142D01*
X268375000Y-58383333D01*
X268413095Y-58421428D01*
X268489285Y-58459523D01*
X268527380Y-58459523D01*
X268603571Y-58421428D01*
X268641666Y-58383333D01*
X268679761Y-58307142D01*
X268679761Y-58154761D01*
X268717857Y-58078571D01*
X268755952Y-58040476D01*
X268832142Y-58002380D01*
X268984523Y-58002380D01*
X269060714Y-58040476D01*
X269098809Y-58078571D01*
X269136904Y-58154761D01*
X269136904Y-58307142D01*
X269098809Y-58383333D01*
X269060714Y-58421428D01*
X268984523Y-58459523D01*
X268832142Y-58459523D01*
X268755952Y-58421428D01*
X268717857Y-58383333D01*
X268679761Y-58307142D01*
X292936904Y-56478571D02*
X292136904Y-56478571D01*
X292136904Y-56669047D01*
X292175000Y-56783333D01*
X292251190Y-56859523D01*
X292327380Y-56897619D01*
X292479761Y-56935714D01*
X292594047Y-56935714D01*
X292746428Y-56897619D01*
X292822619Y-56859523D01*
X292898809Y-56783333D01*
X292936904Y-56669047D01*
X292936904Y-56478571D01*
X292213095Y-57240476D02*
X292175000Y-57278571D01*
X292136904Y-57354761D01*
X292136904Y-57545238D01*
X292175000Y-57621428D01*
X292213095Y-57659523D01*
X292289285Y-57697619D01*
X292365476Y-57697619D01*
X292479761Y-57659523D01*
X292936904Y-57202380D01*
X292936904Y-57697619D01*
X292936904Y-58078571D02*
X292936904Y-58230952D01*
X292898809Y-58307142D01*
X292860714Y-58345238D01*
X292746428Y-58421428D01*
X292594047Y-58459523D01*
X292289285Y-58459523D01*
X292213095Y-58421428D01*
X292175000Y-58383333D01*
X292136904Y-58307142D01*
X292136904Y-58154761D01*
X292175000Y-58078571D01*
X292213095Y-58040476D01*
X292289285Y-58002380D01*
X292479761Y-58002380D01*
X292555952Y-58040476D01*
X292594047Y-58078571D01*
X292632142Y-58154761D01*
X292632142Y-58307142D01*
X292594047Y-58383333D01*
X292555952Y-58421428D01*
X292479761Y-58459523D01*
X316736904Y-56478571D02*
X315936904Y-56478571D01*
X315936904Y-56669047D01*
X315975000Y-56783333D01*
X316051190Y-56859523D01*
X316127380Y-56897619D01*
X316279761Y-56935714D01*
X316394047Y-56935714D01*
X316546428Y-56897619D01*
X316622619Y-56859523D01*
X316698809Y-56783333D01*
X316736904Y-56669047D01*
X316736904Y-56478571D01*
X315936904Y-57202380D02*
X315936904Y-57697619D01*
X316241666Y-57430952D01*
X316241666Y-57545238D01*
X316279761Y-57621428D01*
X316317857Y-57659523D01*
X316394047Y-57697619D01*
X316584523Y-57697619D01*
X316660714Y-57659523D01*
X316698809Y-57621428D01*
X316736904Y-57545238D01*
X316736904Y-57316666D01*
X316698809Y-57240476D01*
X316660714Y-57202380D01*
X315936904Y-58192857D02*
X315936904Y-58269047D01*
X315975000Y-58345238D01*
X316013095Y-58383333D01*
X316089285Y-58421428D01*
X316241666Y-58459523D01*
X316432142Y-58459523D01*
X316584523Y-58421428D01*
X316660714Y-58383333D01*
X316698809Y-58345238D01*
X316736904Y-58269047D01*
X316736904Y-58192857D01*
X316698809Y-58116666D01*
X316660714Y-58078571D01*
X316584523Y-58040476D01*
X316432142Y-58002380D01*
X316241666Y-58002380D01*
X316089285Y-58040476D01*
X316013095Y-58078571D01*
X315975000Y-58116666D01*
X315936904Y-58192857D01*
X38166904Y-75528571D02*
X37366904Y-75528571D01*
X37366904Y-75719047D01*
X37405000Y-75833333D01*
X37481190Y-75909523D01*
X37557380Y-75947619D01*
X37709761Y-75985714D01*
X37824047Y-75985714D01*
X37976428Y-75947619D01*
X38052619Y-75909523D01*
X38128809Y-75833333D01*
X38166904Y-75719047D01*
X38166904Y-75528571D01*
X37366904Y-76252380D02*
X37366904Y-76747619D01*
X37671666Y-76480952D01*
X37671666Y-76595238D01*
X37709761Y-76671428D01*
X37747857Y-76709523D01*
X37824047Y-76747619D01*
X38014523Y-76747619D01*
X38090714Y-76709523D01*
X38128809Y-76671428D01*
X38166904Y-76595238D01*
X38166904Y-76366666D01*
X38128809Y-76290476D01*
X38090714Y-76252380D01*
X37443095Y-77052380D02*
X37405000Y-77090476D01*
X37366904Y-77166666D01*
X37366904Y-77357142D01*
X37405000Y-77433333D01*
X37443095Y-77471428D01*
X37519285Y-77509523D01*
X37595476Y-77509523D01*
X37709761Y-77471428D01*
X38166904Y-77014285D01*
X38166904Y-77509523D01*
X64366904Y-75528571D02*
X63566904Y-75528571D01*
X63566904Y-75719047D01*
X63605000Y-75833333D01*
X63681190Y-75909523D01*
X63757380Y-75947619D01*
X63909761Y-75985714D01*
X64024047Y-75985714D01*
X64176428Y-75947619D01*
X64252619Y-75909523D01*
X64328809Y-75833333D01*
X64366904Y-75719047D01*
X64366904Y-75528571D01*
X63566904Y-76252380D02*
X63566904Y-76747619D01*
X63871666Y-76480952D01*
X63871666Y-76595238D01*
X63909761Y-76671428D01*
X63947857Y-76709523D01*
X64024047Y-76747619D01*
X64214523Y-76747619D01*
X64290714Y-76709523D01*
X64328809Y-76671428D01*
X64366904Y-76595238D01*
X64366904Y-76366666D01*
X64328809Y-76290476D01*
X64290714Y-76252380D01*
X63566904Y-77014285D02*
X63566904Y-77509523D01*
X63871666Y-77242857D01*
X63871666Y-77357142D01*
X63909761Y-77433333D01*
X63947857Y-77471428D01*
X64024047Y-77509523D01*
X64214523Y-77509523D01*
X64290714Y-77471428D01*
X64328809Y-77433333D01*
X64366904Y-77357142D01*
X64366904Y-77128571D01*
X64328809Y-77052380D01*
X64290714Y-77014285D01*
X83416904Y-75528571D02*
X82616904Y-75528571D01*
X82616904Y-75719047D01*
X82655000Y-75833333D01*
X82731190Y-75909523D01*
X82807380Y-75947619D01*
X82959761Y-75985714D01*
X83074047Y-75985714D01*
X83226428Y-75947619D01*
X83302619Y-75909523D01*
X83378809Y-75833333D01*
X83416904Y-75719047D01*
X83416904Y-75528571D01*
X82616904Y-76252380D02*
X82616904Y-76747619D01*
X82921666Y-76480952D01*
X82921666Y-76595238D01*
X82959761Y-76671428D01*
X82997857Y-76709523D01*
X83074047Y-76747619D01*
X83264523Y-76747619D01*
X83340714Y-76709523D01*
X83378809Y-76671428D01*
X83416904Y-76595238D01*
X83416904Y-76366666D01*
X83378809Y-76290476D01*
X83340714Y-76252380D01*
X82883571Y-77433333D02*
X83416904Y-77433333D01*
X82578809Y-77242857D02*
X83150238Y-77052380D01*
X83150238Y-77547619D01*
X102466904Y-75528571D02*
X101666904Y-75528571D01*
X101666904Y-75719047D01*
X101705000Y-75833333D01*
X101781190Y-75909523D01*
X101857380Y-75947619D01*
X102009761Y-75985714D01*
X102124047Y-75985714D01*
X102276428Y-75947619D01*
X102352619Y-75909523D01*
X102428809Y-75833333D01*
X102466904Y-75719047D01*
X102466904Y-75528571D01*
X101666904Y-76252380D02*
X101666904Y-76747619D01*
X101971666Y-76480952D01*
X101971666Y-76595238D01*
X102009761Y-76671428D01*
X102047857Y-76709523D01*
X102124047Y-76747619D01*
X102314523Y-76747619D01*
X102390714Y-76709523D01*
X102428809Y-76671428D01*
X102466904Y-76595238D01*
X102466904Y-76366666D01*
X102428809Y-76290476D01*
X102390714Y-76252380D01*
X101666904Y-77471428D02*
X101666904Y-77090476D01*
X102047857Y-77052380D01*
X102009761Y-77090476D01*
X101971666Y-77166666D01*
X101971666Y-77357142D01*
X102009761Y-77433333D01*
X102047857Y-77471428D01*
X102124047Y-77509523D01*
X102314523Y-77509523D01*
X102390714Y-77471428D01*
X102428809Y-77433333D01*
X102466904Y-77357142D01*
X102466904Y-77166666D01*
X102428809Y-77090476D01*
X102390714Y-77052380D01*
X121516904Y-75528571D02*
X120716904Y-75528571D01*
X120716904Y-75719047D01*
X120755000Y-75833333D01*
X120831190Y-75909523D01*
X120907380Y-75947619D01*
X121059761Y-75985714D01*
X121174047Y-75985714D01*
X121326428Y-75947619D01*
X121402619Y-75909523D01*
X121478809Y-75833333D01*
X121516904Y-75719047D01*
X121516904Y-75528571D01*
X120716904Y-76252380D02*
X120716904Y-76747619D01*
X121021666Y-76480952D01*
X121021666Y-76595238D01*
X121059761Y-76671428D01*
X121097857Y-76709523D01*
X121174047Y-76747619D01*
X121364523Y-76747619D01*
X121440714Y-76709523D01*
X121478809Y-76671428D01*
X121516904Y-76595238D01*
X121516904Y-76366666D01*
X121478809Y-76290476D01*
X121440714Y-76252380D01*
X120716904Y-77433333D02*
X120716904Y-77280952D01*
X120755000Y-77204761D01*
X120793095Y-77166666D01*
X120907380Y-77090476D01*
X121059761Y-77052380D01*
X121364523Y-77052380D01*
X121440714Y-77090476D01*
X121478809Y-77128571D01*
X121516904Y-77204761D01*
X121516904Y-77357142D01*
X121478809Y-77433333D01*
X121440714Y-77471428D01*
X121364523Y-77509523D01*
X121174047Y-77509523D01*
X121097857Y-77471428D01*
X121059761Y-77433333D01*
X121021666Y-77357142D01*
X121021666Y-77204761D01*
X121059761Y-77128571D01*
X121097857Y-77090476D01*
X121174047Y-77052380D01*
X142491904Y-82528571D02*
X141691904Y-82528571D01*
X141691904Y-82719047D01*
X141730000Y-82833333D01*
X141806190Y-82909523D01*
X141882380Y-82947619D01*
X142034761Y-82985714D01*
X142149047Y-82985714D01*
X142301428Y-82947619D01*
X142377619Y-82909523D01*
X142453809Y-82833333D01*
X142491904Y-82719047D01*
X142491904Y-82528571D01*
X141691904Y-83252380D02*
X141691904Y-83747619D01*
X141996666Y-83480952D01*
X141996666Y-83595238D01*
X142034761Y-83671428D01*
X142072857Y-83709523D01*
X142149047Y-83747619D01*
X142339523Y-83747619D01*
X142415714Y-83709523D01*
X142453809Y-83671428D01*
X142491904Y-83595238D01*
X142491904Y-83366666D01*
X142453809Y-83290476D01*
X142415714Y-83252380D01*
X141691904Y-84014285D02*
X141691904Y-84547619D01*
X142491904Y-84204761D01*
X159616904Y-75528571D02*
X158816904Y-75528571D01*
X158816904Y-75719047D01*
X158855000Y-75833333D01*
X158931190Y-75909523D01*
X159007380Y-75947619D01*
X159159761Y-75985714D01*
X159274047Y-75985714D01*
X159426428Y-75947619D01*
X159502619Y-75909523D01*
X159578809Y-75833333D01*
X159616904Y-75719047D01*
X159616904Y-75528571D01*
X158816904Y-76252380D02*
X158816904Y-76747619D01*
X159121666Y-76480952D01*
X159121666Y-76595238D01*
X159159761Y-76671428D01*
X159197857Y-76709523D01*
X159274047Y-76747619D01*
X159464523Y-76747619D01*
X159540714Y-76709523D01*
X159578809Y-76671428D01*
X159616904Y-76595238D01*
X159616904Y-76366666D01*
X159578809Y-76290476D01*
X159540714Y-76252380D01*
X159159761Y-77204761D02*
X159121666Y-77128571D01*
X159083571Y-77090476D01*
X159007380Y-77052380D01*
X158969285Y-77052380D01*
X158893095Y-77090476D01*
X158855000Y-77128571D01*
X158816904Y-77204761D01*
X158816904Y-77357142D01*
X158855000Y-77433333D01*
X158893095Y-77471428D01*
X158969285Y-77509523D01*
X159007380Y-77509523D01*
X159083571Y-77471428D01*
X159121666Y-77433333D01*
X159159761Y-77357142D01*
X159159761Y-77204761D01*
X159197857Y-77128571D01*
X159235952Y-77090476D01*
X159312142Y-77052380D01*
X159464523Y-77052380D01*
X159540714Y-77090476D01*
X159578809Y-77128571D01*
X159616904Y-77204761D01*
X159616904Y-77357142D01*
X159578809Y-77433333D01*
X159540714Y-77471428D01*
X159464523Y-77509523D01*
X159312142Y-77509523D01*
X159235952Y-77471428D01*
X159197857Y-77433333D01*
X159159761Y-77357142D01*
X178666904Y-75528571D02*
X177866904Y-75528571D01*
X177866904Y-75719047D01*
X177905000Y-75833333D01*
X177981190Y-75909523D01*
X178057380Y-75947619D01*
X178209761Y-75985714D01*
X178324047Y-75985714D01*
X178476428Y-75947619D01*
X178552619Y-75909523D01*
X178628809Y-75833333D01*
X178666904Y-75719047D01*
X178666904Y-75528571D01*
X177866904Y-76252380D02*
X177866904Y-76747619D01*
X178171666Y-76480952D01*
X178171666Y-76595238D01*
X178209761Y-76671428D01*
X178247857Y-76709523D01*
X178324047Y-76747619D01*
X178514523Y-76747619D01*
X178590714Y-76709523D01*
X178628809Y-76671428D01*
X178666904Y-76595238D01*
X178666904Y-76366666D01*
X178628809Y-76290476D01*
X178590714Y-76252380D01*
X178666904Y-77128571D02*
X178666904Y-77280952D01*
X178628809Y-77357142D01*
X178590714Y-77395238D01*
X178476428Y-77471428D01*
X178324047Y-77509523D01*
X178019285Y-77509523D01*
X177943095Y-77471428D01*
X177905000Y-77433333D01*
X177866904Y-77357142D01*
X177866904Y-77204761D01*
X177905000Y-77128571D01*
X177943095Y-77090476D01*
X178019285Y-77052380D01*
X178209761Y-77052380D01*
X178285952Y-77090476D01*
X178324047Y-77128571D01*
X178362142Y-77204761D01*
X178362142Y-77357142D01*
X178324047Y-77433333D01*
X178285952Y-77471428D01*
X178209761Y-77509523D01*
X197716904Y-75528571D02*
X196916904Y-75528571D01*
X196916904Y-75719047D01*
X196955000Y-75833333D01*
X197031190Y-75909523D01*
X197107380Y-75947619D01*
X197259761Y-75985714D01*
X197374047Y-75985714D01*
X197526428Y-75947619D01*
X197602619Y-75909523D01*
X197678809Y-75833333D01*
X197716904Y-75719047D01*
X197716904Y-75528571D01*
X197183571Y-76671428D02*
X197716904Y-76671428D01*
X196878809Y-76480952D02*
X197450238Y-76290476D01*
X197450238Y-76785714D01*
X196916904Y-77242857D02*
X196916904Y-77319047D01*
X196955000Y-77395238D01*
X196993095Y-77433333D01*
X197069285Y-77471428D01*
X197221666Y-77509523D01*
X197412142Y-77509523D01*
X197564523Y-77471428D01*
X197640714Y-77433333D01*
X197678809Y-77395238D01*
X197716904Y-77319047D01*
X197716904Y-77242857D01*
X197678809Y-77166666D01*
X197640714Y-77128571D01*
X197564523Y-77090476D01*
X197412142Y-77052380D01*
X197221666Y-77052380D01*
X197069285Y-77090476D01*
X196993095Y-77128571D01*
X196955000Y-77166666D01*
X196916904Y-77242857D01*
X216766904Y-75528571D02*
X215966904Y-75528571D01*
X215966904Y-75719047D01*
X216005000Y-75833333D01*
X216081190Y-75909523D01*
X216157380Y-75947619D01*
X216309761Y-75985714D01*
X216424047Y-75985714D01*
X216576428Y-75947619D01*
X216652619Y-75909523D01*
X216728809Y-75833333D01*
X216766904Y-75719047D01*
X216766904Y-75528571D01*
X216233571Y-76671428D02*
X216766904Y-76671428D01*
X215928809Y-76480952D02*
X216500238Y-76290476D01*
X216500238Y-76785714D01*
X216766904Y-77509523D02*
X216766904Y-77052380D01*
X216766904Y-77280952D02*
X215966904Y-77280952D01*
X216081190Y-77204761D01*
X216157380Y-77128571D01*
X216195476Y-77052380D01*
X235816904Y-75528571D02*
X235016904Y-75528571D01*
X235016904Y-75719047D01*
X235055000Y-75833333D01*
X235131190Y-75909523D01*
X235207380Y-75947619D01*
X235359761Y-75985714D01*
X235474047Y-75985714D01*
X235626428Y-75947619D01*
X235702619Y-75909523D01*
X235778809Y-75833333D01*
X235816904Y-75719047D01*
X235816904Y-75528571D01*
X235283571Y-76671428D02*
X235816904Y-76671428D01*
X234978809Y-76480952D02*
X235550238Y-76290476D01*
X235550238Y-76785714D01*
X235093095Y-77052380D02*
X235055000Y-77090476D01*
X235016904Y-77166666D01*
X235016904Y-77357142D01*
X235055000Y-77433333D01*
X235093095Y-77471428D01*
X235169285Y-77509523D01*
X235245476Y-77509523D01*
X235359761Y-77471428D01*
X235816904Y-77014285D01*
X235816904Y-77509523D01*
X254866904Y-75528571D02*
X254066904Y-75528571D01*
X254066904Y-75719047D01*
X254105000Y-75833333D01*
X254181190Y-75909523D01*
X254257380Y-75947619D01*
X254409761Y-75985714D01*
X254524047Y-75985714D01*
X254676428Y-75947619D01*
X254752619Y-75909523D01*
X254828809Y-75833333D01*
X254866904Y-75719047D01*
X254866904Y-75528571D01*
X254333571Y-76671428D02*
X254866904Y-76671428D01*
X254028809Y-76480952D02*
X254600238Y-76290476D01*
X254600238Y-76785714D01*
X254066904Y-77014285D02*
X254066904Y-77509523D01*
X254371666Y-77242857D01*
X254371666Y-77357142D01*
X254409761Y-77433333D01*
X254447857Y-77471428D01*
X254524047Y-77509523D01*
X254714523Y-77509523D01*
X254790714Y-77471428D01*
X254828809Y-77433333D01*
X254866904Y-77357142D01*
X254866904Y-77128571D01*
X254828809Y-77052380D01*
X254790714Y-77014285D01*
X285816904Y-75528571D02*
X285016904Y-75528571D01*
X285016904Y-75719047D01*
X285055000Y-75833333D01*
X285131190Y-75909523D01*
X285207380Y-75947619D01*
X285359761Y-75985714D01*
X285474047Y-75985714D01*
X285626428Y-75947619D01*
X285702619Y-75909523D01*
X285778809Y-75833333D01*
X285816904Y-75719047D01*
X285816904Y-75528571D01*
X285283571Y-76671428D02*
X285816904Y-76671428D01*
X284978809Y-76480952D02*
X285550238Y-76290476D01*
X285550238Y-76785714D01*
X285283571Y-77433333D02*
X285816904Y-77433333D01*
X284978809Y-77242857D02*
X285550238Y-77052380D01*
X285550238Y-77547619D01*
X316766904Y-75528571D02*
X315966904Y-75528571D01*
X315966904Y-75719047D01*
X316005000Y-75833333D01*
X316081190Y-75909523D01*
X316157380Y-75947619D01*
X316309761Y-75985714D01*
X316424047Y-75985714D01*
X316576428Y-75947619D01*
X316652619Y-75909523D01*
X316728809Y-75833333D01*
X316766904Y-75719047D01*
X316766904Y-75528571D01*
X316233571Y-76671428D02*
X316766904Y-76671428D01*
X315928809Y-76480952D02*
X316500238Y-76290476D01*
X316500238Y-76785714D01*
X315966904Y-77471428D02*
X315966904Y-77090476D01*
X316347857Y-77052380D01*
X316309761Y-77090476D01*
X316271666Y-77166666D01*
X316271666Y-77357142D01*
X316309761Y-77433333D01*
X316347857Y-77471428D01*
X316424047Y-77509523D01*
X316614523Y-77509523D01*
X316690714Y-77471428D01*
X316728809Y-77433333D01*
X316766904Y-77357142D01*
X316766904Y-77166666D01*
X316728809Y-77090476D01*
X316690714Y-77052380D01*
X42930904Y-94578571D02*
X42130904Y-94578571D01*
X42130904Y-94769047D01*
X42169000Y-94883333D01*
X42245190Y-94959523D01*
X42321380Y-94997619D01*
X42473761Y-95035714D01*
X42588047Y-95035714D01*
X42740428Y-94997619D01*
X42816619Y-94959523D01*
X42892809Y-94883333D01*
X42930904Y-94769047D01*
X42930904Y-94578571D01*
X42397571Y-95721428D02*
X42930904Y-95721428D01*
X42092809Y-95530952D02*
X42664238Y-95340476D01*
X42664238Y-95835714D01*
X42130904Y-96483333D02*
X42130904Y-96330952D01*
X42169000Y-96254761D01*
X42207095Y-96216666D01*
X42321380Y-96140476D01*
X42473761Y-96102380D01*
X42778523Y-96102380D01*
X42854714Y-96140476D01*
X42892809Y-96178571D01*
X42930904Y-96254761D01*
X42930904Y-96407142D01*
X42892809Y-96483333D01*
X42854714Y-96521428D01*
X42778523Y-96559523D01*
X42588047Y-96559523D01*
X42511857Y-96521428D01*
X42473761Y-96483333D01*
X42435666Y-96407142D01*
X42435666Y-96254761D01*
X42473761Y-96178571D01*
X42511857Y-96140476D01*
X42588047Y-96102380D01*
X73380904Y-94578571D02*
X72580904Y-94578571D01*
X72580904Y-94769047D01*
X72619000Y-94883333D01*
X72695190Y-94959523D01*
X72771380Y-94997619D01*
X72923761Y-95035714D01*
X73038047Y-95035714D01*
X73190428Y-94997619D01*
X73266619Y-94959523D01*
X73342809Y-94883333D01*
X73380904Y-94769047D01*
X73380904Y-94578571D01*
X72847571Y-95721428D02*
X73380904Y-95721428D01*
X72542809Y-95530952D02*
X73114238Y-95340476D01*
X73114238Y-95835714D01*
X72580904Y-96064285D02*
X72580904Y-96597619D01*
X73380904Y-96254761D01*
X92930904Y-94578571D02*
X92130904Y-94578571D01*
X92130904Y-94769047D01*
X92169000Y-94883333D01*
X92245190Y-94959523D01*
X92321380Y-94997619D01*
X92473761Y-95035714D01*
X92588047Y-95035714D01*
X92740428Y-94997619D01*
X92816619Y-94959523D01*
X92892809Y-94883333D01*
X92930904Y-94769047D01*
X92930904Y-94578571D01*
X92397571Y-95721428D02*
X92930904Y-95721428D01*
X92092809Y-95530952D02*
X92664238Y-95340476D01*
X92664238Y-95835714D01*
X92473761Y-96254761D02*
X92435666Y-96178571D01*
X92397571Y-96140476D01*
X92321380Y-96102380D01*
X92283285Y-96102380D01*
X92207095Y-96140476D01*
X92169000Y-96178571D01*
X92130904Y-96254761D01*
X92130904Y-96407142D01*
X92169000Y-96483333D01*
X92207095Y-96521428D01*
X92283285Y-96559523D01*
X92321380Y-96559523D01*
X92397571Y-96521428D01*
X92435666Y-96483333D01*
X92473761Y-96407142D01*
X92473761Y-96254761D01*
X92511857Y-96178571D01*
X92549952Y-96140476D01*
X92626142Y-96102380D01*
X92778523Y-96102380D01*
X92854714Y-96140476D01*
X92892809Y-96178571D01*
X92930904Y-96254761D01*
X92930904Y-96407142D01*
X92892809Y-96483333D01*
X92854714Y-96521428D01*
X92778523Y-96559523D01*
X92626142Y-96559523D01*
X92549952Y-96521428D01*
X92511857Y-96483333D01*
X92473761Y-96407142D01*
X111980904Y-94578571D02*
X111180904Y-94578571D01*
X111180904Y-94769047D01*
X111219000Y-94883333D01*
X111295190Y-94959523D01*
X111371380Y-94997619D01*
X111523761Y-95035714D01*
X111638047Y-95035714D01*
X111790428Y-94997619D01*
X111866619Y-94959523D01*
X111942809Y-94883333D01*
X111980904Y-94769047D01*
X111980904Y-94578571D01*
X111447571Y-95721428D02*
X111980904Y-95721428D01*
X111142809Y-95530952D02*
X111714238Y-95340476D01*
X111714238Y-95835714D01*
X111980904Y-96178571D02*
X111980904Y-96330952D01*
X111942809Y-96407142D01*
X111904714Y-96445238D01*
X111790428Y-96521428D01*
X111638047Y-96559523D01*
X111333285Y-96559523D01*
X111257095Y-96521428D01*
X111219000Y-96483333D01*
X111180904Y-96407142D01*
X111180904Y-96254761D01*
X111219000Y-96178571D01*
X111257095Y-96140476D01*
X111333285Y-96102380D01*
X111523761Y-96102380D01*
X111599952Y-96140476D01*
X111638047Y-96178571D01*
X111676142Y-96254761D01*
X111676142Y-96407142D01*
X111638047Y-96483333D01*
X111599952Y-96521428D01*
X111523761Y-96559523D01*
X131030904Y-94578571D02*
X130230904Y-94578571D01*
X130230904Y-94769047D01*
X130269000Y-94883333D01*
X130345190Y-94959523D01*
X130421380Y-94997619D01*
X130573761Y-95035714D01*
X130688047Y-95035714D01*
X130840428Y-94997619D01*
X130916619Y-94959523D01*
X130992809Y-94883333D01*
X131030904Y-94769047D01*
X131030904Y-94578571D01*
X130230904Y-95759523D02*
X130230904Y-95378571D01*
X130611857Y-95340476D01*
X130573761Y-95378571D01*
X130535666Y-95454761D01*
X130535666Y-95645238D01*
X130573761Y-95721428D01*
X130611857Y-95759523D01*
X130688047Y-95797619D01*
X130878523Y-95797619D01*
X130954714Y-95759523D01*
X130992809Y-95721428D01*
X131030904Y-95645238D01*
X131030904Y-95454761D01*
X130992809Y-95378571D01*
X130954714Y-95340476D01*
X130230904Y-96292857D02*
X130230904Y-96369047D01*
X130269000Y-96445238D01*
X130307095Y-96483333D01*
X130383285Y-96521428D01*
X130535666Y-96559523D01*
X130726142Y-96559523D01*
X130878523Y-96521428D01*
X130954714Y-96483333D01*
X130992809Y-96445238D01*
X131030904Y-96369047D01*
X131030904Y-96292857D01*
X130992809Y-96216666D01*
X130954714Y-96178571D01*
X130878523Y-96140476D01*
X130726142Y-96102380D01*
X130535666Y-96102380D01*
X130383285Y-96140476D01*
X130307095Y-96178571D01*
X130269000Y-96216666D01*
X130230904Y-96292857D01*
X150080904Y-94578571D02*
X149280904Y-94578571D01*
X149280904Y-94769047D01*
X149319000Y-94883333D01*
X149395190Y-94959523D01*
X149471380Y-94997619D01*
X149623761Y-95035714D01*
X149738047Y-95035714D01*
X149890428Y-94997619D01*
X149966619Y-94959523D01*
X150042809Y-94883333D01*
X150080904Y-94769047D01*
X150080904Y-94578571D01*
X149280904Y-95759523D02*
X149280904Y-95378571D01*
X149661857Y-95340476D01*
X149623761Y-95378571D01*
X149585666Y-95454761D01*
X149585666Y-95645238D01*
X149623761Y-95721428D01*
X149661857Y-95759523D01*
X149738047Y-95797619D01*
X149928523Y-95797619D01*
X150004714Y-95759523D01*
X150042809Y-95721428D01*
X150080904Y-95645238D01*
X150080904Y-95454761D01*
X150042809Y-95378571D01*
X150004714Y-95340476D01*
X150080904Y-96559523D02*
X150080904Y-96102380D01*
X150080904Y-96330952D02*
X149280904Y-96330952D01*
X149395190Y-96254761D01*
X149471380Y-96178571D01*
X149509476Y-96102380D01*
X169130904Y-94578571D02*
X168330904Y-94578571D01*
X168330904Y-94769047D01*
X168369000Y-94883333D01*
X168445190Y-94959523D01*
X168521380Y-94997619D01*
X168673761Y-95035714D01*
X168788047Y-95035714D01*
X168940428Y-94997619D01*
X169016619Y-94959523D01*
X169092809Y-94883333D01*
X169130904Y-94769047D01*
X169130904Y-94578571D01*
X168330904Y-95759523D02*
X168330904Y-95378571D01*
X168711857Y-95340476D01*
X168673761Y-95378571D01*
X168635666Y-95454761D01*
X168635666Y-95645238D01*
X168673761Y-95721428D01*
X168711857Y-95759523D01*
X168788047Y-95797619D01*
X168978523Y-95797619D01*
X169054714Y-95759523D01*
X169092809Y-95721428D01*
X169130904Y-95645238D01*
X169130904Y-95454761D01*
X169092809Y-95378571D01*
X169054714Y-95340476D01*
X168407095Y-96102380D02*
X168369000Y-96140476D01*
X168330904Y-96216666D01*
X168330904Y-96407142D01*
X168369000Y-96483333D01*
X168407095Y-96521428D01*
X168483285Y-96559523D01*
X168559476Y-96559523D01*
X168673761Y-96521428D01*
X169130904Y-96064285D01*
X169130904Y-96559523D01*
X188180904Y-94578571D02*
X187380904Y-94578571D01*
X187380904Y-94769047D01*
X187419000Y-94883333D01*
X187495190Y-94959523D01*
X187571380Y-94997619D01*
X187723761Y-95035714D01*
X187838047Y-95035714D01*
X187990428Y-94997619D01*
X188066619Y-94959523D01*
X188142809Y-94883333D01*
X188180904Y-94769047D01*
X188180904Y-94578571D01*
X187380904Y-95759523D02*
X187380904Y-95378571D01*
X187761857Y-95340476D01*
X187723761Y-95378571D01*
X187685666Y-95454761D01*
X187685666Y-95645238D01*
X187723761Y-95721428D01*
X187761857Y-95759523D01*
X187838047Y-95797619D01*
X188028523Y-95797619D01*
X188104714Y-95759523D01*
X188142809Y-95721428D01*
X188180904Y-95645238D01*
X188180904Y-95454761D01*
X188142809Y-95378571D01*
X188104714Y-95340476D01*
X187380904Y-96064285D02*
X187380904Y-96559523D01*
X187685666Y-96292857D01*
X187685666Y-96407142D01*
X187723761Y-96483333D01*
X187761857Y-96521428D01*
X187838047Y-96559523D01*
X188028523Y-96559523D01*
X188104714Y-96521428D01*
X188142809Y-96483333D01*
X188180904Y-96407142D01*
X188180904Y-96178571D01*
X188142809Y-96102380D01*
X188104714Y-96064285D01*
X207230904Y-94578571D02*
X206430904Y-94578571D01*
X206430904Y-94769047D01*
X206469000Y-94883333D01*
X206545190Y-94959523D01*
X206621380Y-94997619D01*
X206773761Y-95035714D01*
X206888047Y-95035714D01*
X207040428Y-94997619D01*
X207116619Y-94959523D01*
X207192809Y-94883333D01*
X207230904Y-94769047D01*
X207230904Y-94578571D01*
X206430904Y-95759523D02*
X206430904Y-95378571D01*
X206811857Y-95340476D01*
X206773761Y-95378571D01*
X206735666Y-95454761D01*
X206735666Y-95645238D01*
X206773761Y-95721428D01*
X206811857Y-95759523D01*
X206888047Y-95797619D01*
X207078523Y-95797619D01*
X207154714Y-95759523D01*
X207192809Y-95721428D01*
X207230904Y-95645238D01*
X207230904Y-95454761D01*
X207192809Y-95378571D01*
X207154714Y-95340476D01*
X206697571Y-96483333D02*
X207230904Y-96483333D01*
X206392809Y-96292857D02*
X206964238Y-96102380D01*
X206964238Y-96597619D01*
X226280904Y-94578571D02*
X225480904Y-94578571D01*
X225480904Y-94769047D01*
X225519000Y-94883333D01*
X225595190Y-94959523D01*
X225671380Y-94997619D01*
X225823761Y-95035714D01*
X225938047Y-95035714D01*
X226090428Y-94997619D01*
X226166619Y-94959523D01*
X226242809Y-94883333D01*
X226280904Y-94769047D01*
X226280904Y-94578571D01*
X225480904Y-95759523D02*
X225480904Y-95378571D01*
X225861857Y-95340476D01*
X225823761Y-95378571D01*
X225785666Y-95454761D01*
X225785666Y-95645238D01*
X225823761Y-95721428D01*
X225861857Y-95759523D01*
X225938047Y-95797619D01*
X226128523Y-95797619D01*
X226204714Y-95759523D01*
X226242809Y-95721428D01*
X226280904Y-95645238D01*
X226280904Y-95454761D01*
X226242809Y-95378571D01*
X226204714Y-95340476D01*
X225480904Y-96521428D02*
X225480904Y-96140476D01*
X225861857Y-96102380D01*
X225823761Y-96140476D01*
X225785666Y-96216666D01*
X225785666Y-96407142D01*
X225823761Y-96483333D01*
X225861857Y-96521428D01*
X225938047Y-96559523D01*
X226128523Y-96559523D01*
X226204714Y-96521428D01*
X226242809Y-96483333D01*
X226280904Y-96407142D01*
X226280904Y-96216666D01*
X226242809Y-96140476D01*
X226204714Y-96102380D01*
X245330904Y-94578571D02*
X244530904Y-94578571D01*
X244530904Y-94769047D01*
X244569000Y-94883333D01*
X244645190Y-94959523D01*
X244721380Y-94997619D01*
X244873761Y-95035714D01*
X244988047Y-95035714D01*
X245140428Y-94997619D01*
X245216619Y-94959523D01*
X245292809Y-94883333D01*
X245330904Y-94769047D01*
X245330904Y-94578571D01*
X244530904Y-95759523D02*
X244530904Y-95378571D01*
X244911857Y-95340476D01*
X244873761Y-95378571D01*
X244835666Y-95454761D01*
X244835666Y-95645238D01*
X244873761Y-95721428D01*
X244911857Y-95759523D01*
X244988047Y-95797619D01*
X245178523Y-95797619D01*
X245254714Y-95759523D01*
X245292809Y-95721428D01*
X245330904Y-95645238D01*
X245330904Y-95454761D01*
X245292809Y-95378571D01*
X245254714Y-95340476D01*
X244530904Y-96483333D02*
X244530904Y-96330952D01*
X244569000Y-96254761D01*
X244607095Y-96216666D01*
X244721380Y-96140476D01*
X244873761Y-96102380D01*
X245178523Y-96102380D01*
X245254714Y-96140476D01*
X245292809Y-96178571D01*
X245330904Y-96254761D01*
X245330904Y-96407142D01*
X245292809Y-96483333D01*
X245254714Y-96521428D01*
X245178523Y-96559523D01*
X244988047Y-96559523D01*
X244911857Y-96521428D01*
X244873761Y-96483333D01*
X244835666Y-96407142D01*
X244835666Y-96254761D01*
X244873761Y-96178571D01*
X244911857Y-96140476D01*
X244988047Y-96102380D01*
X271523404Y-94578571D02*
X270723404Y-94578571D01*
X270723404Y-94769047D01*
X270761500Y-94883333D01*
X270837690Y-94959523D01*
X270913880Y-94997619D01*
X271066261Y-95035714D01*
X271180547Y-95035714D01*
X271332928Y-94997619D01*
X271409119Y-94959523D01*
X271485309Y-94883333D01*
X271523404Y-94769047D01*
X271523404Y-94578571D01*
X270723404Y-95759523D02*
X270723404Y-95378571D01*
X271104357Y-95340476D01*
X271066261Y-95378571D01*
X271028166Y-95454761D01*
X271028166Y-95645238D01*
X271066261Y-95721428D01*
X271104357Y-95759523D01*
X271180547Y-95797619D01*
X271371023Y-95797619D01*
X271447214Y-95759523D01*
X271485309Y-95721428D01*
X271523404Y-95645238D01*
X271523404Y-95454761D01*
X271485309Y-95378571D01*
X271447214Y-95340476D01*
X270723404Y-96064285D02*
X270723404Y-96597619D01*
X271523404Y-96254761D01*
X297723404Y-94578571D02*
X296923404Y-94578571D01*
X296923404Y-94769047D01*
X296961500Y-94883333D01*
X297037690Y-94959523D01*
X297113880Y-94997619D01*
X297266261Y-95035714D01*
X297380547Y-95035714D01*
X297532928Y-94997619D01*
X297609119Y-94959523D01*
X297685309Y-94883333D01*
X297723404Y-94769047D01*
X297723404Y-94578571D01*
X296923404Y-95759523D02*
X296923404Y-95378571D01*
X297304357Y-95340476D01*
X297266261Y-95378571D01*
X297228166Y-95454761D01*
X297228166Y-95645238D01*
X297266261Y-95721428D01*
X297304357Y-95759523D01*
X297380547Y-95797619D01*
X297571023Y-95797619D01*
X297647214Y-95759523D01*
X297685309Y-95721428D01*
X297723404Y-95645238D01*
X297723404Y-95454761D01*
X297685309Y-95378571D01*
X297647214Y-95340476D01*
X297266261Y-96254761D02*
X297228166Y-96178571D01*
X297190071Y-96140476D01*
X297113880Y-96102380D01*
X297075785Y-96102380D01*
X296999595Y-96140476D01*
X296961500Y-96178571D01*
X296923404Y-96254761D01*
X296923404Y-96407142D01*
X296961500Y-96483333D01*
X296999595Y-96521428D01*
X297075785Y-96559523D01*
X297113880Y-96559523D01*
X297190071Y-96521428D01*
X297228166Y-96483333D01*
X297266261Y-96407142D01*
X297266261Y-96254761D01*
X297304357Y-96178571D01*
X297342452Y-96140476D01*
X297418642Y-96102380D01*
X297571023Y-96102380D01*
X297647214Y-96140476D01*
X297685309Y-96178571D01*
X297723404Y-96254761D01*
X297723404Y-96407142D01*
X297685309Y-96483333D01*
X297647214Y-96521428D01*
X297571023Y-96559523D01*
X297418642Y-96559523D01*
X297342452Y-96521428D01*
X297304357Y-96483333D01*
X297266261Y-96407142D01*
X316773404Y-94578571D02*
X315973404Y-94578571D01*
X315973404Y-94769047D01*
X316011500Y-94883333D01*
X316087690Y-94959523D01*
X316163880Y-94997619D01*
X316316261Y-95035714D01*
X316430547Y-95035714D01*
X316582928Y-94997619D01*
X316659119Y-94959523D01*
X316735309Y-94883333D01*
X316773404Y-94769047D01*
X316773404Y-94578571D01*
X315973404Y-95759523D02*
X315973404Y-95378571D01*
X316354357Y-95340476D01*
X316316261Y-95378571D01*
X316278166Y-95454761D01*
X316278166Y-95645238D01*
X316316261Y-95721428D01*
X316354357Y-95759523D01*
X316430547Y-95797619D01*
X316621023Y-95797619D01*
X316697214Y-95759523D01*
X316735309Y-95721428D01*
X316773404Y-95645238D01*
X316773404Y-95454761D01*
X316735309Y-95378571D01*
X316697214Y-95340476D01*
X316773404Y-96178571D02*
X316773404Y-96330952D01*
X316735309Y-96407142D01*
X316697214Y-96445238D01*
X316582928Y-96521428D01*
X316430547Y-96559523D01*
X316125785Y-96559523D01*
X316049595Y-96521428D01*
X316011500Y-96483333D01*
X315973404Y-96407142D01*
X315973404Y-96254761D01*
X316011500Y-96178571D01*
X316049595Y-96140476D01*
X316125785Y-96102380D01*
X316316261Y-96102380D01*
X316392452Y-96140476D01*
X316430547Y-96178571D01*
X316468642Y-96254761D01*
X316468642Y-96407142D01*
X316430547Y-96483333D01*
X316392452Y-96521428D01*
X316316261Y-96559523D01*
X35330904Y-120628571D02*
X34530904Y-120628571D01*
X34530904Y-120819047D01*
X34569000Y-120933333D01*
X34645190Y-121009523D01*
X34721380Y-121047619D01*
X34873761Y-121085714D01*
X34988047Y-121085714D01*
X35140428Y-121047619D01*
X35216619Y-121009523D01*
X35292809Y-120933333D01*
X35330904Y-120819047D01*
X35330904Y-120628571D01*
X34530904Y-121771428D02*
X34530904Y-121619047D01*
X34569000Y-121542857D01*
X34607095Y-121504761D01*
X34721380Y-121428571D01*
X34873761Y-121390476D01*
X35178523Y-121390476D01*
X35254714Y-121428571D01*
X35292809Y-121466666D01*
X35330904Y-121542857D01*
X35330904Y-121695238D01*
X35292809Y-121771428D01*
X35254714Y-121809523D01*
X35178523Y-121847619D01*
X34988047Y-121847619D01*
X34911857Y-121809523D01*
X34873761Y-121771428D01*
X34835666Y-121695238D01*
X34835666Y-121542857D01*
X34873761Y-121466666D01*
X34911857Y-121428571D01*
X34988047Y-121390476D01*
X34530904Y-122342857D02*
X34530904Y-122419047D01*
X34569000Y-122495238D01*
X34607095Y-122533333D01*
X34683285Y-122571428D01*
X34835666Y-122609523D01*
X35026142Y-122609523D01*
X35178523Y-122571428D01*
X35254714Y-122533333D01*
X35292809Y-122495238D01*
X35330904Y-122419047D01*
X35330904Y-122342857D01*
X35292809Y-122266666D01*
X35254714Y-122228571D01*
X35178523Y-122190476D01*
X35026142Y-122152380D01*
X34835666Y-122152380D01*
X34683285Y-122190476D01*
X34607095Y-122228571D01*
X34569000Y-122266666D01*
X34530904Y-122342857D01*
X57215904Y-113628571D02*
X56415904Y-113628571D01*
X56415904Y-113819047D01*
X56454000Y-113933333D01*
X56530190Y-114009523D01*
X56606380Y-114047619D01*
X56758761Y-114085714D01*
X56873047Y-114085714D01*
X57025428Y-114047619D01*
X57101619Y-114009523D01*
X57177809Y-113933333D01*
X57215904Y-113819047D01*
X57215904Y-113628571D01*
X56415904Y-114771428D02*
X56415904Y-114619047D01*
X56454000Y-114542857D01*
X56492095Y-114504761D01*
X56606380Y-114428571D01*
X56758761Y-114390476D01*
X57063523Y-114390476D01*
X57139714Y-114428571D01*
X57177809Y-114466666D01*
X57215904Y-114542857D01*
X57215904Y-114695238D01*
X57177809Y-114771428D01*
X57139714Y-114809523D01*
X57063523Y-114847619D01*
X56873047Y-114847619D01*
X56796857Y-114809523D01*
X56758761Y-114771428D01*
X56720666Y-114695238D01*
X56720666Y-114542857D01*
X56758761Y-114466666D01*
X56796857Y-114428571D01*
X56873047Y-114390476D01*
X57215904Y-115609523D02*
X57215904Y-115152380D01*
X57215904Y-115380952D02*
X56415904Y-115380952D01*
X56530190Y-115304761D01*
X56606380Y-115228571D01*
X56644476Y-115152380D01*
X81025904Y-113628571D02*
X80225904Y-113628571D01*
X80225904Y-113819047D01*
X80264000Y-113933333D01*
X80340190Y-114009523D01*
X80416380Y-114047619D01*
X80568761Y-114085714D01*
X80683047Y-114085714D01*
X80835428Y-114047619D01*
X80911619Y-114009523D01*
X80987809Y-113933333D01*
X81025904Y-113819047D01*
X81025904Y-113628571D01*
X80225904Y-114771428D02*
X80225904Y-114619047D01*
X80264000Y-114542857D01*
X80302095Y-114504761D01*
X80416380Y-114428571D01*
X80568761Y-114390476D01*
X80873523Y-114390476D01*
X80949714Y-114428571D01*
X80987809Y-114466666D01*
X81025904Y-114542857D01*
X81025904Y-114695238D01*
X80987809Y-114771428D01*
X80949714Y-114809523D01*
X80873523Y-114847619D01*
X80683047Y-114847619D01*
X80606857Y-114809523D01*
X80568761Y-114771428D01*
X80530666Y-114695238D01*
X80530666Y-114542857D01*
X80568761Y-114466666D01*
X80606857Y-114428571D01*
X80683047Y-114390476D01*
X80302095Y-115152380D02*
X80264000Y-115190476D01*
X80225904Y-115266666D01*
X80225904Y-115457142D01*
X80264000Y-115533333D01*
X80302095Y-115571428D01*
X80378285Y-115609523D01*
X80454476Y-115609523D01*
X80568761Y-115571428D01*
X81025904Y-115114285D01*
X81025904Y-115609523D01*
X152465904Y-113628571D02*
X151665904Y-113628571D01*
X151665904Y-113819047D01*
X151704000Y-113933333D01*
X151780190Y-114009523D01*
X151856380Y-114047619D01*
X152008761Y-114085714D01*
X152123047Y-114085714D01*
X152275428Y-114047619D01*
X152351619Y-114009523D01*
X152427809Y-113933333D01*
X152465904Y-113819047D01*
X152465904Y-113628571D01*
X151665904Y-114771428D02*
X151665904Y-114619047D01*
X151704000Y-114542857D01*
X151742095Y-114504761D01*
X151856380Y-114428571D01*
X152008761Y-114390476D01*
X152313523Y-114390476D01*
X152389714Y-114428571D01*
X152427809Y-114466666D01*
X152465904Y-114542857D01*
X152465904Y-114695238D01*
X152427809Y-114771428D01*
X152389714Y-114809523D01*
X152313523Y-114847619D01*
X152123047Y-114847619D01*
X152046857Y-114809523D01*
X152008761Y-114771428D01*
X151970666Y-114695238D01*
X151970666Y-114542857D01*
X152008761Y-114466666D01*
X152046857Y-114428571D01*
X152123047Y-114390476D01*
X151665904Y-115114285D02*
X151665904Y-115609523D01*
X151970666Y-115342857D01*
X151970666Y-115457142D01*
X152008761Y-115533333D01*
X152046857Y-115571428D01*
X152123047Y-115609523D01*
X152313523Y-115609523D01*
X152389714Y-115571428D01*
X152427809Y-115533333D01*
X152465904Y-115457142D01*
X152465904Y-115228571D01*
X152427809Y-115152380D01*
X152389714Y-115114285D01*
X221520904Y-113628571D02*
X220720904Y-113628571D01*
X220720904Y-113819047D01*
X220759000Y-113933333D01*
X220835190Y-114009523D01*
X220911380Y-114047619D01*
X221063761Y-114085714D01*
X221178047Y-114085714D01*
X221330428Y-114047619D01*
X221406619Y-114009523D01*
X221482809Y-113933333D01*
X221520904Y-113819047D01*
X221520904Y-113628571D01*
X220720904Y-114771428D02*
X220720904Y-114619047D01*
X220759000Y-114542857D01*
X220797095Y-114504761D01*
X220911380Y-114428571D01*
X221063761Y-114390476D01*
X221368523Y-114390476D01*
X221444714Y-114428571D01*
X221482809Y-114466666D01*
X221520904Y-114542857D01*
X221520904Y-114695238D01*
X221482809Y-114771428D01*
X221444714Y-114809523D01*
X221368523Y-114847619D01*
X221178047Y-114847619D01*
X221101857Y-114809523D01*
X221063761Y-114771428D01*
X221025666Y-114695238D01*
X221025666Y-114542857D01*
X221063761Y-114466666D01*
X221101857Y-114428571D01*
X221178047Y-114390476D01*
X220987571Y-115533333D02*
X221520904Y-115533333D01*
X220682809Y-115342857D02*
X221254238Y-115152380D01*
X221254238Y-115647619D01*
X240570904Y-113628571D02*
X239770904Y-113628571D01*
X239770904Y-113819047D01*
X239809000Y-113933333D01*
X239885190Y-114009523D01*
X239961380Y-114047619D01*
X240113761Y-114085714D01*
X240228047Y-114085714D01*
X240380428Y-114047619D01*
X240456619Y-114009523D01*
X240532809Y-113933333D01*
X240570904Y-113819047D01*
X240570904Y-113628571D01*
X239770904Y-114771428D02*
X239770904Y-114619047D01*
X239809000Y-114542857D01*
X239847095Y-114504761D01*
X239961380Y-114428571D01*
X240113761Y-114390476D01*
X240418523Y-114390476D01*
X240494714Y-114428571D01*
X240532809Y-114466666D01*
X240570904Y-114542857D01*
X240570904Y-114695238D01*
X240532809Y-114771428D01*
X240494714Y-114809523D01*
X240418523Y-114847619D01*
X240228047Y-114847619D01*
X240151857Y-114809523D01*
X240113761Y-114771428D01*
X240075666Y-114695238D01*
X240075666Y-114542857D01*
X240113761Y-114466666D01*
X240151857Y-114428571D01*
X240228047Y-114390476D01*
X239770904Y-115571428D02*
X239770904Y-115190476D01*
X240151857Y-115152380D01*
X240113761Y-115190476D01*
X240075666Y-115266666D01*
X240075666Y-115457142D01*
X240113761Y-115533333D01*
X240151857Y-115571428D01*
X240228047Y-115609523D01*
X240418523Y-115609523D01*
X240494714Y-115571428D01*
X240532809Y-115533333D01*
X240570904Y-115457142D01*
X240570904Y-115266666D01*
X240532809Y-115190476D01*
X240494714Y-115152380D01*
X259536904Y-113578571D02*
X258736904Y-113578571D01*
X258736904Y-113769047D01*
X258775000Y-113883333D01*
X258851190Y-113959523D01*
X258927380Y-113997619D01*
X259079761Y-114035714D01*
X259194047Y-114035714D01*
X259346428Y-113997619D01*
X259422619Y-113959523D01*
X259498809Y-113883333D01*
X259536904Y-113769047D01*
X259536904Y-113578571D01*
X258736904Y-114721428D02*
X258736904Y-114569047D01*
X258775000Y-114492857D01*
X258813095Y-114454761D01*
X258927380Y-114378571D01*
X259079761Y-114340476D01*
X259384523Y-114340476D01*
X259460714Y-114378571D01*
X259498809Y-114416666D01*
X259536904Y-114492857D01*
X259536904Y-114645238D01*
X259498809Y-114721428D01*
X259460714Y-114759523D01*
X259384523Y-114797619D01*
X259194047Y-114797619D01*
X259117857Y-114759523D01*
X259079761Y-114721428D01*
X259041666Y-114645238D01*
X259041666Y-114492857D01*
X259079761Y-114416666D01*
X259117857Y-114378571D01*
X259194047Y-114340476D01*
X258736904Y-115483333D02*
X258736904Y-115330952D01*
X258775000Y-115254761D01*
X258813095Y-115216666D01*
X258927380Y-115140476D01*
X259079761Y-115102380D01*
X259384523Y-115102380D01*
X259460714Y-115140476D01*
X259498809Y-115178571D01*
X259536904Y-115254761D01*
X259536904Y-115407142D01*
X259498809Y-115483333D01*
X259460714Y-115521428D01*
X259384523Y-115559523D01*
X259194047Y-115559523D01*
X259117857Y-115521428D01*
X259079761Y-115483333D01*
X259041666Y-115407142D01*
X259041666Y-115254761D01*
X259079761Y-115178571D01*
X259117857Y-115140476D01*
X259194047Y-115102380D01*
X280695904Y-107244571D02*
X279895904Y-107244571D01*
X279895904Y-107435047D01*
X279934000Y-107549333D01*
X280010190Y-107625523D01*
X280086380Y-107663619D01*
X280238761Y-107701714D01*
X280353047Y-107701714D01*
X280505428Y-107663619D01*
X280581619Y-107625523D01*
X280657809Y-107549333D01*
X280695904Y-107435047D01*
X280695904Y-107244571D01*
X279895904Y-108387428D02*
X279895904Y-108235047D01*
X279934000Y-108158857D01*
X279972095Y-108120761D01*
X280086380Y-108044571D01*
X280238761Y-108006476D01*
X280543523Y-108006476D01*
X280619714Y-108044571D01*
X280657809Y-108082666D01*
X280695904Y-108158857D01*
X280695904Y-108311238D01*
X280657809Y-108387428D01*
X280619714Y-108425523D01*
X280543523Y-108463619D01*
X280353047Y-108463619D01*
X280276857Y-108425523D01*
X280238761Y-108387428D01*
X280200666Y-108311238D01*
X280200666Y-108158857D01*
X280238761Y-108082666D01*
X280276857Y-108044571D01*
X280353047Y-108006476D01*
X279895904Y-108730285D02*
X279895904Y-109263619D01*
X280695904Y-108920761D01*
X297720904Y-113628571D02*
X296920904Y-113628571D01*
X296920904Y-113819047D01*
X296959000Y-113933333D01*
X297035190Y-114009523D01*
X297111380Y-114047619D01*
X297263761Y-114085714D01*
X297378047Y-114085714D01*
X297530428Y-114047619D01*
X297606619Y-114009523D01*
X297682809Y-113933333D01*
X297720904Y-113819047D01*
X297720904Y-113628571D01*
X296920904Y-114771428D02*
X296920904Y-114619047D01*
X296959000Y-114542857D01*
X296997095Y-114504761D01*
X297111380Y-114428571D01*
X297263761Y-114390476D01*
X297568523Y-114390476D01*
X297644714Y-114428571D01*
X297682809Y-114466666D01*
X297720904Y-114542857D01*
X297720904Y-114695238D01*
X297682809Y-114771428D01*
X297644714Y-114809523D01*
X297568523Y-114847619D01*
X297378047Y-114847619D01*
X297301857Y-114809523D01*
X297263761Y-114771428D01*
X297225666Y-114695238D01*
X297225666Y-114542857D01*
X297263761Y-114466666D01*
X297301857Y-114428571D01*
X297378047Y-114390476D01*
X297263761Y-115304761D02*
X297225666Y-115228571D01*
X297187571Y-115190476D01*
X297111380Y-115152380D01*
X297073285Y-115152380D01*
X296997095Y-115190476D01*
X296959000Y-115228571D01*
X296920904Y-115304761D01*
X296920904Y-115457142D01*
X296959000Y-115533333D01*
X296997095Y-115571428D01*
X297073285Y-115609523D01*
X297111380Y-115609523D01*
X297187571Y-115571428D01*
X297225666Y-115533333D01*
X297263761Y-115457142D01*
X297263761Y-115304761D01*
X297301857Y-115228571D01*
X297339952Y-115190476D01*
X297416142Y-115152380D01*
X297568523Y-115152380D01*
X297644714Y-115190476D01*
X297682809Y-115228571D01*
X297720904Y-115304761D01*
X297720904Y-115457142D01*
X297682809Y-115533333D01*
X297644714Y-115571428D01*
X297568523Y-115609523D01*
X297416142Y-115609523D01*
X297339952Y-115571428D01*
X297301857Y-115533333D01*
X297263761Y-115457142D01*
X316770904Y-113628571D02*
X315970904Y-113628571D01*
X315970904Y-113819047D01*
X316009000Y-113933333D01*
X316085190Y-114009523D01*
X316161380Y-114047619D01*
X316313761Y-114085714D01*
X316428047Y-114085714D01*
X316580428Y-114047619D01*
X316656619Y-114009523D01*
X316732809Y-113933333D01*
X316770904Y-113819047D01*
X316770904Y-113628571D01*
X315970904Y-114771428D02*
X315970904Y-114619047D01*
X316009000Y-114542857D01*
X316047095Y-114504761D01*
X316161380Y-114428571D01*
X316313761Y-114390476D01*
X316618523Y-114390476D01*
X316694714Y-114428571D01*
X316732809Y-114466666D01*
X316770904Y-114542857D01*
X316770904Y-114695238D01*
X316732809Y-114771428D01*
X316694714Y-114809523D01*
X316618523Y-114847619D01*
X316428047Y-114847619D01*
X316351857Y-114809523D01*
X316313761Y-114771428D01*
X316275666Y-114695238D01*
X316275666Y-114542857D01*
X316313761Y-114466666D01*
X316351857Y-114428571D01*
X316428047Y-114390476D01*
X316770904Y-115228571D02*
X316770904Y-115380952D01*
X316732809Y-115457142D01*
X316694714Y-115495238D01*
X316580428Y-115571428D01*
X316428047Y-115609523D01*
X316123285Y-115609523D01*
X316047095Y-115571428D01*
X316009000Y-115533333D01*
X315970904Y-115457142D01*
X315970904Y-115304761D01*
X316009000Y-115228571D01*
X316047095Y-115190476D01*
X316123285Y-115152380D01*
X316313761Y-115152380D01*
X316389952Y-115190476D01*
X316428047Y-115228571D01*
X316466142Y-115304761D01*
X316466142Y-115457142D01*
X316428047Y-115533333D01*
X316389952Y-115571428D01*
X316313761Y-115609523D01*
X142604761Y-112016666D02*
X142652380Y-112159523D01*
X142652380Y-112397619D01*
X142604761Y-112492857D01*
X142557142Y-112540476D01*
X142461904Y-112588095D01*
X142366666Y-112588095D01*
X142271428Y-112540476D01*
X142223809Y-112492857D01*
X142176190Y-112397619D01*
X142128571Y-112207142D01*
X142080952Y-112111904D01*
X142033333Y-112064285D01*
X141938095Y-112016666D01*
X141842857Y-112016666D01*
X141747619Y-112064285D01*
X141700000Y-112111904D01*
X141652380Y-112207142D01*
X141652380Y-112445238D01*
X141700000Y-112588095D01*
X141652380Y-112921428D02*
X142652380Y-113159523D01*
X141938095Y-113350000D01*
X142652380Y-113540476D01*
X141652380Y-113778571D01*
X142652380Y-114683333D02*
X142652380Y-114111904D01*
X142652380Y-114397619D02*
X141652380Y-114397619D01*
X141795238Y-114302380D01*
X141890476Y-114207142D01*
X141938095Y-114111904D01*
X107202380Y-112640476D02*
X108202380Y-113307142D01*
X107202380Y-113307142D02*
X108202380Y-112640476D01*
X108202380Y-114211904D02*
X108202380Y-113640476D01*
X108202380Y-113926190D02*
X107202380Y-113926190D01*
X107345238Y-113830952D01*
X107440476Y-113735714D01*
X107488095Y-113640476D01*
M02*
