M48
; DRILL file {KiCad (5.1.4)-1} date 24-02-2020 20:41:37
; FORMAT={-:-/ absolute / inch / decimal}
; #@! TF.CreationDate,2020-02-24T20:41:37-03:00
; #@! TF.GenerationSoftware,Kicad,Pcbnew,(5.1.4)-1
; #@! TF.FileFunction,NonPlated,1,2,NPTH
FMAT,2
INCH
T1C0.0354
T2C0.0866
T3C0.1201
T4C0.1575
%
G90
G05
T1
X1.3543Y-1.2874
X1.5276Y-1.2874
T2
X1.6738Y-4.4528
X1.6738Y-2.2031
X10.9435Y-2.2031
X11.1903Y-4.4528
X5.7521Y-2.9591
X8.0277Y-4.463
T3
X10.7209Y-1.1803
X11.6579Y-1.1803
X1.0651Y-3.4303
X2.0021Y-3.4303
X3.8775Y-4.1803
X7.8145Y-4.1803
X10.6276Y-2.6803
X11.5646Y-2.6803
T4
X12.3147Y-4.4559
X11.3764Y-2.2059
X4.8154Y-1.4559
X1.8165Y-1.4555
X1.0651Y-4.0303
X1.5336Y-3.7059
X2.0021Y-4.0303
X6.8776Y-2.9559
X6.6894Y-2.2059
X9.6894Y-2.2059
X10.0654Y-1.4559
X12.3134Y-1.4559
X3.6894Y-2.2059
X10.0614Y-4.4539
X8.3776Y-2.9559
X3.8776Y-2.9559
X6.3154Y-1.4559
X9.5021Y-3.7059
X5.0021Y-3.7059
X6.5021Y-3.7059
X9.8776Y-2.9559
X8.1894Y-2.2059
X3.1276Y-2.9559
X8.5647Y-4.4559
X7.0654Y-1.4559
X10.5333Y-3.7059
X3.8775Y-4.7803
X5.846Y-4.4559
X7.8145Y-4.7803
X4.2521Y-3.7059
X8.7521Y-3.7059
X11.5647Y-4.4559
X8.0021Y-3.7059
X10.6276Y-3.2803
X11.0961Y-2.9559
X11.5646Y-3.2803
X10.4394Y-2.2059
X10.8147Y-4.4559
X9.1276Y-2.9559
X2.7521Y-3.7059
X4.6276Y-2.9559
X1.1586Y-4.4559
X4.4394Y-2.2059
X2.096Y-4.4559
X7.4394Y-2.2059
X12.3146Y-2.9559
X9.3154Y-1.4559
X2.3776Y-2.9559
X4.0654Y-1.4559
X1.2524Y-2.2059
X9.3147Y-4.4559
X5.7521Y-3.7059
X8.9394Y-2.2059
X3.3154Y-1.4559
X2.9394Y-2.2059
X10.7209Y-1.7803
X11.1894Y-1.4559
X11.6579Y-1.7803
X6.1276Y-2.9559
X3.5021Y-3.7059
X1.0665Y-1.4555
X7.8154Y-1.4559
X5.9394Y-2.2059
X5.3776Y-2.9559
X2.1894Y-2.2059
X11.5648Y-3.7059
X7.2521Y-3.7059
X5.5654Y-1.4559
X12.3134Y-2.2059
X5.1894Y-2.2059
X7.6276Y-2.9559
X3.0334Y-4.4559
X2.5654Y-1.4559
X8.5654Y-1.4559
X1.3461Y-2.9559
X12.3148Y-3.7059
T0
M30
