M48
; DRILL file {KiCad (5.1.4)-1} date 24-02-2020 20:41:37
; FORMAT={-:-/ absolute / inch / decimal}
; #@! TF.CreationDate,2020-02-24T20:41:37-03:00
; #@! TF.GenerationSoftware,Kicad,Pcbnew,(5.1.4)-1
; #@! TF.FileFunction,Plated,1,2,PTH
FMAT,2
INCH
T1C0.0157
T2C0.0276
T3C0.0354
T4C0.0591
%
G90
G05
T1
X0.8031Y-3.8071
X2.1183Y-4.1219
X2.2382Y-3.999
X3.247Y-4.1644
X3.435Y-4.1565
X3.5197Y-4.0659
X3.6575Y-2.5807
X3.9567Y-4.5512
X3.9961Y-4.7992
X4.002Y-3.9902
X4.0433Y-4.7362
X4.1959Y-4.2106
X4.252Y-2.5807
X4.2825Y-4.747
X4.3031Y-4.1447
X4.3681Y-4.7461
X4.4455Y-4.7323
X4.5295Y-4.7028
X4.6614Y-3.9902
X4.6919Y-4.7323
X4.7795Y-4.7087
X4.8552Y-4.6752
X4.935Y-4.6093
X5.0965Y-2.5807
X5.1083Y-4.1132
X5.1909Y-1.8287
X5.1909Y-4.5866
X5.2618Y-4.3642
X5.3777Y-3.9565
X5.4508Y-4.6575
X5.5374Y-4.7067
X7.0738Y-4.0197
X8.189Y-4.0807
X10.5354Y-2.9094
T2
X10.0957Y-2.8583
X10.0957Y-3.1654
X3.1575Y-2.1083
X3.1575Y-2.4154
X4.4702Y-3.6083
X4.4702Y-3.9154
X2.4075Y-2.1083
X2.4075Y-2.4154
X2.7835Y-1.3583
X2.7835Y-1.6654
X7.4702Y-3.6083
X7.4702Y-3.9154
X12.5327Y-2.8583
X12.5327Y-3.1654
X7.6575Y-2.1083
X7.6575Y-2.4154
X10.7514Y-3.6083
X10.7514Y-3.9154
X2.9506Y-3.6083
X2.9506Y-3.9154
X9.9075Y-2.1083
X9.9075Y-2.4154
X11.4075Y-1.3583
X11.4075Y-1.6654
X11.7828Y-4.3583
X11.7828Y-4.6654
X6.7202Y-3.6083
X6.7202Y-3.9154
X1.5642Y-2.8583
X1.5642Y-3.1654
X6.5335Y-1.3583
X6.5335Y-1.6654
X2.3141Y-4.3583
X2.3141Y-4.6654
X12.5315Y-2.1083
X12.5315Y-2.4154
X9.5335Y-1.3583
X9.5335Y-1.6654
X6.0641Y-4.3583
X6.0641Y-4.6654
X9.7202Y-3.6083
X9.7202Y-3.9154
X5.5957Y-2.8583
X5.5957Y-3.1654
X9.3457Y-2.8583
X9.3457Y-3.1654
X6.9075Y-2.1083
X6.9075Y-2.4154
X0.8898Y-1.2461
X0.8898Y-1.5531
X4.8457Y-2.8583
X4.8457Y-3.1654
X5.4075Y-2.1083
X5.4075Y-2.4154
X4.2835Y-1.3583
X4.2835Y-1.6654
X8.9702Y-3.6083
X8.9702Y-3.9154
X11.3142Y-2.8583
X11.3142Y-3.1654
X8.4075Y-2.1083
X8.4075Y-2.4154
X5.0335Y-1.3583
X5.0335Y-1.6654
X8.7828Y-4.3583
X8.7828Y-4.6654
X5.9702Y-3.6083
X5.9702Y-3.9154
X10.6575Y-2.1083
X10.6575Y-2.4154
X12.5315Y-1.3583
X12.5315Y-1.6654
X1.7517Y-3.6083
X1.7517Y-3.9154
X9.1575Y-2.1083
X9.1575Y-2.4154
X10.2835Y-1.3583
X10.2835Y-1.6654
X1.3767Y-4.3583
X1.3767Y-4.6654
X2.5957Y-2.8583
X2.5957Y-3.1654
X8.7835Y-1.3583
X8.7835Y-1.6654
X11.7829Y-3.6083
X11.7829Y-3.9154
X11.0328Y-4.3583
X11.0328Y-4.6654
X7.8457Y-2.8583
X7.8457Y-3.1654
X4.6575Y-2.1083
X4.6575Y-2.4154
X5.7835Y-1.3583
X5.7835Y-1.6654
X3.7202Y-3.6083
X3.7202Y-3.9154
X3.9075Y-2.1083
X3.9075Y-2.4154
X2.1102Y-1.2461
X2.1102Y-1.5531
X8.5957Y-2.8583
X8.5957Y-3.1654
X6.1575Y-2.1083
X6.1575Y-2.4154
X3.5335Y-1.3583
X3.5335Y-1.6654
X9.5328Y-4.3583
X9.5328Y-4.6654
X5.2202Y-3.6083
X5.2202Y-3.9154
X10.2795Y-4.3563
X10.2795Y-4.6634
X7.0957Y-2.8583
X7.0957Y-3.1654
X1.4705Y-2.1083
X1.4705Y-2.4154
X8.2202Y-3.6083
X8.2202Y-3.9154
X4.0957Y-2.8583
X4.0957Y-3.1654
X11.5945Y-2.1083
X11.5945Y-2.4154
X8.0335Y-1.3583
X8.0335Y-1.6654
X3.2515Y-4.3583
X3.2515Y-4.6654
X3.3457Y-2.8583
X3.3457Y-3.1654
X7.2835Y-1.3583
X7.2835Y-1.6654
X12.5329Y-3.6083
X12.5329Y-3.9154
X12.5328Y-4.3583
X12.5328Y-4.6654
X6.3457Y-2.8583
X6.3457Y-3.1654
T3
X1.2961Y-3.1559
X1.3961Y-3.1559
T4
X12.1647Y-4.3559
X12.4147Y-4.2559
X11.2264Y-2.1059
X11.4764Y-2.0059
X4.6654Y-1.3559
X4.9154Y-1.2559
X1.7165Y-1.6555
X1.9665Y-1.5555
X1.3836Y-3.6059
X1.6336Y-3.5059
X6.7276Y-2.8559
X6.9776Y-2.7559
X6.5394Y-2.1059
X6.7894Y-2.0059
X9.5394Y-2.1059
X9.7894Y-2.0059
X9.9154Y-1.3559
X10.1654Y-1.2559
X12.1634Y-1.3559
X12.4134Y-1.2559
X3.5394Y-2.1059
X3.7894Y-2.0059
X9.9114Y-4.3539
X10.1614Y-4.2539
X8.2276Y-2.8559
X8.4776Y-2.7559
X3.7276Y-2.8559
X3.9776Y-2.7559
X6.1654Y-1.3559
X6.4154Y-1.2559
X9.3521Y-3.6059
X9.6021Y-3.5059
X4.8521Y-3.6059
X5.1021Y-3.5059
X6.3521Y-3.6059
X6.6021Y-3.5059
X9.7276Y-2.8559
X9.9776Y-2.7559
X8.0394Y-2.1059
X8.2894Y-2.0059
X2.9776Y-2.8559
X3.2276Y-2.7559
X8.4147Y-4.3559
X8.6647Y-4.2559
X6.9154Y-1.3559
X7.1654Y-1.2559
X10.3833Y-3.6059
X10.6333Y-3.5059
X5.696Y-4.3559
X5.946Y-4.2559
X4.1021Y-3.6059
X4.3521Y-3.5059
X8.6021Y-3.6059
X8.8521Y-3.5059
X11.4147Y-4.3559
X11.6647Y-4.2559
X7.8521Y-3.6059
X8.1021Y-3.5059
X10.9461Y-2.8559
X11.1961Y-2.7559
X10.2894Y-2.1059
X10.5394Y-2.0059
X10.6647Y-4.3559
X10.9147Y-4.2559
X8.9776Y-2.8559
X9.2276Y-2.7559
X2.6021Y-3.6059
X2.8521Y-3.5059
X4.4776Y-2.8559
X4.7276Y-2.7559
X1.0086Y-4.3559
X1.2586Y-4.2559
X4.2894Y-2.1059
X4.5394Y-2.0059
X1.946Y-4.3559
X2.196Y-4.2559
X7.2894Y-2.1059
X7.5394Y-2.0059
X12.1646Y-2.8559
X12.4146Y-2.7559
X9.1654Y-1.3559
X9.4154Y-1.2559
X2.2276Y-2.8559
X2.4776Y-2.7559
X3.9154Y-1.3559
X4.1654Y-1.2559
X1.1024Y-2.1059
X1.3524Y-2.0059
X9.1647Y-4.3559
X9.4147Y-4.2559
X5.6021Y-3.6059
X5.8521Y-3.5059
X8.7894Y-2.1059
X9.0394Y-2.0059
X3.1654Y-1.3559
X3.4154Y-1.2559
X2.7894Y-2.1059
X3.0394Y-2.0059
X11.0394Y-1.3559
X11.2894Y-1.2559
X5.9776Y-2.8559
X6.2276Y-2.7559
X3.3521Y-3.6059
X3.6021Y-3.5059
X0.9665Y-1.6555
X1.2165Y-1.5555
X7.6654Y-1.3559
X7.9154Y-1.2559
X5.7894Y-2.1059
X6.0394Y-2.0059
X5.2276Y-2.8559
X5.4776Y-2.7559
X2.0394Y-2.1059
X2.2894Y-2.0059
X11.4148Y-3.6059
X11.6648Y-3.5059
X7.1021Y-3.6059
X7.3521Y-3.5059
X5.4154Y-1.3559
X5.6654Y-1.2559
X12.1634Y-2.1059
X12.4134Y-2.0059
X5.0394Y-2.1059
X5.2894Y-2.0059
X7.4776Y-2.8559
X7.7276Y-2.7559
X2.8834Y-4.3559
X3.1334Y-4.2559
X2.4154Y-1.3559
X2.6654Y-1.2559
X8.4154Y-1.3559
X8.6654Y-1.2559
X1.1961Y-2.8559
X1.4461Y-2.7559
X12.1648Y-3.6059
X12.4148Y-3.5059
T0
M30
